<svg xmlns="http://www.w3.org/2000/svg" viewBox="0 0 1346 564"><defs><style>.cls-1,.cls-4,.cls-5,.cls-6{fill:none;stroke-miterlimit:10;}.cls-1{stroke:#ed1c24;stroke-width:0.25px;}.cls-2{fill:#ccc;}.cls-3{fill:#fff;}.cls-4,.cls-6{stroke:#ccc;}.cls-4,.cls-5{stroke-width:3px;}.cls-5{stroke:#3b90f7;}.cls-6{stroke-width:0.75px;}</style></defs><g id="Lines"><polyline class="cls-1" points="290.83 311.55 268.89 289.61 268.89 313.02"/><polyline class="cls-1" points="304.99 307.45 268.89 289.61 294.58 307.45"/><line class="cls-1" x1="268.89" y1="289.61" x2="276.47" y2="310.45"/><path class="cls-2" d="M234.85,347.83l3,2.42h4.92l-4.35-3.36a2.15,2.15,0,0,1-.29-.25,1.37,1.37,0,0,1,0-1.58,1.72,1.72,0,0,1,.44-.3q11.55-5.72,23-12.28a16.41,16.41,0,0,1,6.54-2c1.92-.21,3.86-.27,5.79-.45a12.92,12.92,0,0,0,1.88-.47,5.4,5.4,0,0,1,.58-.09l0,.12-.79,1.31c-.64,1.05-1.27,2.11-1.92,3.14a24.8,24.8,0,0,0-3.21,9.06c-.4,2.39-.79,4.79-1.17,7.18h1.23q.56-3.21,1.1-6.42a20.89,20.89,0,0,1,2.4-7c1.35-2.36,2.75-4.63,4.11-7a2.82,2.82,0,0,1,1.82-1.52c3.87-.84,7.73-1.72,11.59-2.59.51-.12,1-.27,1.54-.4a.69.69,0,0,1,.32,0c.4.11.54.78.29,1.37-1.41,3.24-2.8,6.48-4.2,9.72-.42,1-.83,1.93-1.25,2.9a5.59,5.59,0,0,1-1.24,1.89l-9.61,9h3.33q3.11-2.83,6.16-5.77a14.23,14.23,0,0,0,3.06-4.72c1.29-3,2.62-6,3.93-9.07.32-.74.61-1.53.92-2.28.46-1.13.81-1.28,1.43-.42,1,1.37,1.93,2.82,2.88,4.26q3.06,4.61,6.11,9.21l.53.75a.82.82,0,0,1,.12.78,6.24,6.24,0,0,1-.47,1.15c-.18.25-.46.5-.65.42a3.43,3.43,0,0,0-3.25.63,52.69,52.69,0,0,0-6.42,5.06h3.58a21.2,21.2,0,0,0,2.9-2.4,3.53,3.53,0,0,1,1.37-.83,2.48,2.48,0,0,1,2.06.26,3.41,3.41,0,0,1,.8.93c.45.63.88,1.29,1.32,1.93l0,0,.07.08h10.3l.86-.24a1.68,1.68,0,0,1,1,.1.72.72,0,0,1,.24.14h2.2c0-1.8,0-3.6.12-5.39A101.81,101.81,0,0,0,322,334a60.34,60.34,0,0,0-.84-7.34c-.35-1.94-.89-2.42-2-1.78-.62.36-1.21.8-1.81,1.23a12.06,12.06,0,0,0-3.94,4.49,7.23,7.23,0,0,1-.68,1c-.06-1.4-.11-2.66-.16-3.91a12.28,12.28,0,0,0-.68-4.28q-3-7.2-6-14.41c-.54-1.31-1.25-1.92-2.14-1.91-2.3,0-4.59.05-6.88,0a6.17,6.17,0,0,0-4.11,1.45l-1.29,1c-2,1.56-3.94,3.1-5.9,4.66-.37.29-.73.44-1.1.11-1.06-.95-2.13-1.87-3.18-2.85a2.93,2.93,0,0,0-2.3-1c-2.56.31-5.12.64-7.68,1-2.79.41-5.58.89-8.37,1.33a4.78,4.78,0,0,0-3.49,2.55c-.89,1.5-1.71,3.12-2.53,4.74s-1.46,1.93-2.53,1.21a2,2,0,0,0-2.7.21,10,10,0,0,0-1.32,1.47q-2.25,3.09-4.49,6.24c-3.81,5.39-7.6,10.81-11.81,15.15a2.15,2.15,0,0,0-.17,2.45A3.76,3.76,0,0,0,234.85,347.83Zm79.92-14.59c.44-.67.86-1.38,1.3-2.08a3.41,3.41,0,0,1,2.2-1.71c.65-.13,1,.31,1.35,1.36.2.68.43,1.32.64,2a8.55,8.55,0,0,1,.4,2.68c-.33,2.3-.09,4.86-.19,7.39-.08,1.9-.6,2.94-1.63,3.32-2.44.91-4.89,1.78-7.34,2.72-1.26.49-2.4.05-3.44-1.3A15.8,15.8,0,0,1,307,346a1,1,0,0,1,0-1.26Zm-10.48-21.65c.35-.58.56-.53.84.17l4.77,11.8a20.22,20.22,0,0,1,1.27,6.6c0,.78.05,1.56.09,2.59a5.37,5.37,0,0,1-.44,1.91c-.18.4-.38.77-.58,1.12-.95,1.57-1.9,3.12-2.84,4.7-.48.79-.75.82-1.2,0-2.78-5.19-5.73-10.07-8.72-14.86a3.78,3.78,0,0,1-.28-.53,3.17,3.17,0,0,1,0-2.83,10.32,10.32,0,0,1,.7-1.13c1.81-2.64,3.63-5.27,5.44-7.92C303.68,312.7,304,312.12,304.29,311.59Zm-16.48,7.35a33.08,33.08,0,0,1,5.28-6.84c.65-.66,1.26-1.48,1.9-2.19a.85.85,0,0,1,.59-.35c2.45.22,4.89.48,7.37.73l-.83,1.2c-1.56,2.28-3.13,4.54-4.68,6.85a16.31,16.31,0,0,0-1.15,2,4.35,4.35,0,0,1-3.21,2.7c-2.8.54-5.59,1.1-8.38,1.65a1.23,1.23,0,0,1-.33,0c-.27,0-.46-.29-.5-.8a.75.75,0,0,1,.37-.82A12.51,12.51,0,0,0,287.81,318.94Zm-30.26,3.7c.16-.34.36-.65.54-1,1-1.79,2-3.57,3.05-5.37a1.11,1.11,0,0,1,.92-.69,60,60,0,0,0,9.66-1.35c2-.38,4.08-.67,6.12-1a13.8,13.8,0,0,1,1.55-.23,1,1,0,0,1,.76.21c1.29,1,2.57,2.13,3.86,3.2l.13.12a2.06,2.06,0,0,1,0,2.6c-.57.57-1.16,1.09-1.75,1.63-2.16,2-4.33,4-6.5,6a1.39,1.39,0,0,1-.72.37l-9.73,1.05a4.68,4.68,0,0,1-.53,0,4.59,4.59,0,0,1-3.18-1.2l-3.86-3.2a1.19,1.19,0,0,1-.23-.22A.76.76,0,0,1,257.55,322.64Zm-17.11,17.78,10-13.4c.55-.74,1.12-1.43,1.67-2.15,1-1.29,2-1.5,3.12-.53,1.32,1.16,2.64,2.28,4,3.43a1.36,1.36,0,0,1,.51,1.18,1.43,1.43,0,0,1-.51,1.25c-.73.49-1.47,1-2.21,1.37q-8.17,4.59-16.36,9.15l-.53.25,0-.09C240.21,340.72,240.33,340.57,240.44,340.42Z"/><line class="cls-1" x1="268.89" y1="289.61" x2="285.63" y2="314.16"/><path class="cls-2" d="M86.9,223.75c-.31-3.13-2.37-3.17-4.56-3.09-3.13.12-3.13.08-2.52,3.41.05.31.07.63.12,1-1.19.14-2.21.36-2.47-1.45A2.08,2.08,0,0,0,76,222.4a34.32,34.32,0,0,0-5.26-.41,2.41,2.41,0,0,0-1.64.87,5.81,5.81,0,0,0-1.24,4.7,3.37,3.37,0,0,0,1.25,1.92c1.24.91,2.63,1.58,3.93,2.4a1.75,1.75,0,0,0,2.64-.38c.5-.66,1-.59,1.54-.2.83.57,1.69,1.08,2.62,1.68l-3.56,4.44c2.34.82,4.47,1.57,6.6,2.29a.69.69,0,0,0,.61-.12c1.11-1.32,2.09-.34,3.1.18.23.12.45.27.68.39,1.55.82,1.74.74,2.26-1.12,1.87,1.05,3.71,2.12,5.57,3.11A69.46,69.46,0,0,0,110.28,248c4.81,1.27,9.11,3.9,13.73,5.62,6.74,2.52,13.48,5.08,20.31,7.29,23.32,7.54,46.67,14.94,70,22.37,2.8.89,5.64,1.64,8.46,2.46.28.08.55.21,1,.38-.57,2.14-1.07,4.26-1.71,6.33-.38,1.25-.24,2.05,1,2.47,3.65,1.21,7.28,2.47,10.92,3.7,1,.33,1.52-.16,1.77-1.21.44-1.77.93-3.52,1.4-5.27s1.06-2.23,2.69-1.92c4,.77,7.94,1.59,11.9,2.43a1.27,1.27,0,0,1,.69.66c.61,1.19,1,1.25,2,.48a2.54,2.54,0,0,1,1.59-.51,46.74,46.74,0,0,0,5.78.25A13.94,13.94,0,0,0,267,292c2.7-1.45,3.51-4.59,2.17-7.55a13,13,0,0,0-6.76-6.42,112.64,112.64,0,0,0-12.9-5.22q-69.37-22-138.78-43.87a64.93,64.93,0,0,0-14.93-2.93c-.64-.05-1.28,0-1.44-1,0-.29-.52-.64-.85-.72-1.63-.42-3.27-.79-4.92-1.07C88.11,223.22,87.61,223.54,86.9,223.75Zm6.56,3c.44,0,.77.11,1.11.13A68.73,68.73,0,0,1,111.16,230q66.06,20.82,132.11,41.72c5.56,1.76,11,3.87,16.49,6a17.65,17.65,0,0,1,7.48,5.32c2.92,3.61,1.86,7.58-2.36,9-2.61.9-5.26.64-7.92.35-1.24-.14-2.55-.56-3.47.94-.48-1.45-.48-1.42-1.72-1.7-6.56-1.47-13.16-2.75-19.66-4.48-9.14-2.43-18.2-5.2-27.29-7.84a3.19,3.19,0,0,1-1.16-.71c-.34-.28-.54-.88-.89-1q-13.92-4.45-27.86-8.81c-.29-.1-.84-.17-.92,0-.46.87-1.05.41-1.58.24-6.31-2-12.64-4-18.92-6.06q-12.93-4.32-25.81-8.85c-2.74-1-5.38-2.23-8.06-3.36a1.34,1.34,0,0,1,1.08-.19c10.73,2.59,21.53,4.91,32.18,7.86,14.82,4.11,29.52,8.7,44.28,13.05q20.66,6.09,41.32,12.1c2.25.65,4.52,1.24,6.79,1.85a5.78,5.78,0,0,0-2.16-1Q225,279,207,273.56c-17.32-5.18-34.62-10.42-52-15.44-8.3-2.4-16.69-4.43-25.08-6.47-4.81-1.17-9.76-1.76-14.54-3.07-9-2.46-17.81-5.38-25.82-10.63a4.61,4.61,0,0,0-.93-.35l-.29,2.06-3-1.68c2.2-2.2,4.52-1.34,6.88-.94a4.19,4.19,0,0,0-1.53-1.48c-2.39-1.29-4.8-2.51-7.17-3.83-1.14-.64-2.18-1.26-3,.54-1.24-.75-2.37-1.41-3.47-2.12-.71-.46-1.25-.47-1.73.36a1.25,1.25,0,0,1-2.07.44c-1-.71-2.1-1.28-3.16-1.9-1.5-.88-1.71-1.31-1.35-3.13a10,10,0,0,1,.59-1.85,1.64,1.64,0,0,1,1.84-1.17c1.45.16,2.92.16,4.36.37.44.06,1.16.62,1.16.94,0,1.89,1.08,1.94,2.31,1.9.62,0,1.28,0,1.23,1,0,1.3.66,1.66,1.68,1.75.55.05,1.09.25,1.65.32,2.47.3,4.94.61,7.42.83.38,0,.8-.38,1.21-.59a6.46,6.46,0,0,0-.85-1.12c-1-.87-2.17-1.65-3.21-2.54a1.21,1.21,0,0,1-.32-1,1.12,1.12,0,0,1,1-.43c1.15.14,2.28.41,3.43.61C93.19,225,93.87,225.42,93.46,226.74ZM237,289.47c-.68,2.56-1.32,4.93-1.94,7.3-.17.65-.33,1.07-1.12.92A35.76,35.76,0,0,1,223.42,294a1.32,1.32,0,0,1-.58-1c.53-2.24,1.15-4.46,1.77-6.81ZM80.3,221.64c1.31,0,2.54,0,3.77,0a1.44,1.44,0,0,1,1.6,1.22,9.13,9.13,0,0,0,3.78,5.28c.35.23.68.49,1,.74-.07.1-.1.17-.12.17-2.88-.4-5.75-.79-8.62-1.23a.92.92,0,0,1-.55-.64C80.87,225.37,80.61,223.59,80.3,221.64Zm8,13.64A8.14,8.14,0,0,0,84,238a1.88,1.88,0,0,1-1.53.65c-1.51-.41-3-1-4.67-1.68,1.4-1.71,2.6-3.2,3.86-4.64a.9.9,0,0,1,.88-.06C84.46,233.26,86.38,234.28,88.3,235.28Zm100,38.46-.08.25-2.86-.9.07-.26Zm-6.64-1.81.07-.22,2.82.89-.07.22ZM192,274.84l-.07.26-2.86-.9.08-.26Zm.76.58.06-.27,2.86.91-.07.26Z"/><path class="cls-3" d="M213.07,229a5,5,0,0,1-2.29-.49,4.25,4.25,0,0,1-1.6-1.41,6.46,6.46,0,0,1-.93-2.26,15.71,15.71,0,0,1,0-6.11,6.44,6.44,0,0,1,.93-2.27,4.25,4.25,0,0,1,1.6-1.41,5.6,5.6,0,0,1,4.58,0,4.33,4.33,0,0,1,1.6,1.41,6.44,6.44,0,0,1,.93,2.27,15.71,15.71,0,0,1,0,6.11,6.46,6.46,0,0,1-.93,2.26,4.33,4.33,0,0,1-1.6,1.41A5,5,0,0,1,213.07,229Zm0-1.84a2.23,2.23,0,0,0,2.12-1.13,6.54,6.54,0,0,0,.62-3.09v-2.34a6.48,6.48,0,0,0-.62-3.07,2.55,2.55,0,0,0-4.24,0,6.36,6.36,0,0,0-.62,3.07v2.36A6.36,6.36,0,0,0,211,226,2.22,2.22,0,0,0,213.07,227.13Z"/><path class="cls-3" d="M220.65,213.93h2.18v6.24H223a3.63,3.63,0,0,1,1.22-1.47,3.25,3.25,0,0,1,1.9-.53,3.51,3.51,0,0,1,2.9,1.36,8.1,8.1,0,0,1,0,8.08,3.51,3.51,0,0,1-2.9,1.36,3.25,3.25,0,0,1-1.9-.53A3.63,3.63,0,0,1,223,227h-.12v1.76h-2.18Zm4.52,13.26a2.41,2.41,0,0,0,1.91-.76,3,3,0,0,0,.67-2v-1.68a3,3,0,0,0-.67-2,2.41,2.41,0,0,0-1.91-.76,3.26,3.26,0,0,0-.9.12,2.22,2.22,0,0,0-.74.36,1.69,1.69,0,0,0-.51.59,1.67,1.67,0,0,0-.19.83v3.44a1.67,1.67,0,0,0,.19.83,1.69,1.69,0,0,0,.51.59,2.22,2.22,0,0,0,.74.36A3.26,3.26,0,0,0,225.17,227.19Z"/><path class="cls-3" d="M237.09,229a7,7,0,0,1-2.89-.54,5.18,5.18,0,0,1-1.95-1.44l1.34-1.2a4.48,4.48,0,0,0,3.54,1.52,3.56,3.56,0,0,0,1.71-.36,1.2,1.2,0,0,0,.65-1.12,1.13,1.13,0,0,0-.12-.54,1,1,0,0,0-.34-.36,2,2,0,0,0-.51-.22,6,6,0,0,0-.61-.12l-1.64-.26a7.82,7.82,0,0,1-1.22-.26,3.77,3.77,0,0,1-1.11-.51,2.43,2.43,0,0,1-1.11-2.17A2.72,2.72,0,0,1,234,219a5.55,5.55,0,0,1,3.19-.82,6.49,6.49,0,0,1,2.49.43,4.85,4.85,0,0,1,1.75,1.19l-1.22,1.28a3.94,3.94,0,0,0-1.14-.85,4.24,4.24,0,0,0-2-.39c-1.46,0-2.18.46-2.18,1.38a.93.93,0,0,0,.47.91,3,3,0,0,0,1.11.33l1.64.26c.41.07.82.15,1.23.26a3.77,3.77,0,0,1,1.1.49,2.72,2.72,0,0,1,.8.85,2.63,2.63,0,0,1,.31,1.32,2.89,2.89,0,0,1-1.21,2.45A5.55,5.55,0,0,1,237.09,229Z"/><path class="cls-3" d="M249.29,229a5.64,5.64,0,0,1-2.12-.38,4.12,4.12,0,0,1-1.58-1.08,4.64,4.64,0,0,1-1-1.69,6.74,6.74,0,0,1-.34-2.23,6.58,6.58,0,0,1,.35-2.24,4.94,4.94,0,0,1,1-1.71,4.2,4.2,0,0,1,1.53-1.09,5.13,5.13,0,0,1,2-.38,5,5,0,0,1,2,.37,4.42,4.42,0,0,1,1.5,1.05,4.66,4.66,0,0,1,.95,1.62,6.26,6.26,0,0,1,.33,2.08v.82h-7.4v.34a2.69,2.69,0,0,0,.76,2,2.8,2.8,0,0,0,2.1.76,3.24,3.24,0,0,0,1.71-.43,3.39,3.39,0,0,0,1.15-1.14l1.36,1.2a4.26,4.26,0,0,1-1.59,1.53A5.33,5.33,0,0,1,249.29,229Zm-.16-9.14a2.83,2.83,0,0,0-1.07.2,2.24,2.24,0,0,0-.84.57,2.63,2.63,0,0,0-.55.87,2.8,2.8,0,0,0-.2,1.1v.14h5.18v-.2a2.73,2.73,0,0,0-.69-1.95A2.39,2.39,0,0,0,249.13,219.83Z"/><path class="cls-3" d="M256.59,227h2.74v-6.76h-2.74v-1.78h4.92v2.74h.12a4.38,4.38,0,0,1,.4-1,3.13,3.13,0,0,1,.66-.87,2.9,2.9,0,0,1,1-.6,3.72,3.72,0,0,1,1.36-.23h1.24v2.08h-2a2.76,2.76,0,0,0-2,.71,2.45,2.45,0,0,0-.76,1.9V227h3.74v1.78h-8.66Z"/><path class="cls-3" d="M271.73,228.73,268,218.41h2.26l1.42,4.36,1.34,4.14h.12l1.34-4.14,1.42-4.36h2.18l-3.7,10.32Z"/><path class="cls-3" d="M288.91,228.73a1.88,1.88,0,0,1-1.41-.48,2.05,2.05,0,0,1-.57-1.26h-.1a2.69,2.69,0,0,1-1.09,1.46,3.58,3.58,0,0,1-2,.52,3.66,3.66,0,0,1-2.52-.83,2.89,2.89,0,0,1-.94-2.29,2.64,2.64,0,0,1,1.11-2.29,5.88,5.88,0,0,1,3.41-.79h2V222q0-2.1-2.22-2.1a3,3,0,0,0-1.62.39,3.3,3.3,0,0,0-1,1l-1.3-1.06a3.69,3.69,0,0,1,1.48-1.45,5.19,5.19,0,0,1,2.68-.61,4.65,4.65,0,0,1,3.08.94,3.37,3.37,0,0,1,1.12,2.72V227h1.3v1.72Zm-4.56-1.36a3,3,0,0,0,1.74-.48,1.46,1.46,0,0,0,.68-1.23v-1.49h-1.94c-1.58,0-2.36.47-2.36,1.41v.4a1.17,1.17,0,0,0,.5,1A2.39,2.39,0,0,0,284.35,227.37Z"/><path class="cls-3" d="M297.69,228.73a2.5,2.5,0,0,1-2-.73,2.71,2.71,0,0,1-.64-1.88v-5.93h-3.18v-1.78h2.26a1.2,1.2,0,0,0,.82-.23,1.13,1.13,0,0,0,.24-.83v-2.58h2v3.64h4.4v1.78h-4.4V227h4.4v1.78Z"/><path class="cls-3" d="M305.09,227h3.52v-6.76h-3.52v-1.78h5.7V227h3.3v1.78h-9Zm4.62-10.42a1.59,1.59,0,0,1-1.17-.34,1.17,1.17,0,0,1-.33-.84v-.42a1.17,1.17,0,0,1,.33-.84,1.55,1.55,0,0,1,1.15-.34,1.59,1.59,0,0,1,1.17.34,1.17,1.17,0,0,1,.33.84v.42a1.17,1.17,0,0,1-.33.84A1.57,1.57,0,0,1,309.71,216.53Z"/><path class="cls-3" d="M321.07,229a5.31,5.31,0,0,1-2.05-.38,4.13,4.13,0,0,1-1.54-1.08,4.73,4.73,0,0,1-1-1.7,7.55,7.55,0,0,1,0-4.48,4.73,4.73,0,0,1,1-1.7,4.13,4.13,0,0,1,1.54-1.08,5.72,5.72,0,0,1,4.1,0,4.21,4.21,0,0,1,1.54,1.08,4.88,4.88,0,0,1,1,1.7,7.55,7.55,0,0,1,0,4.48,4.88,4.88,0,0,1-1,1.7,4.21,4.21,0,0,1-1.54,1.08A5.35,5.35,0,0,1,321.07,229Zm0-1.72a2.54,2.54,0,0,0,1.91-.73,3,3,0,0,0,.71-2.17v-1.56a3,3,0,0,0-.71-2.17,2.86,2.86,0,0,0-3.82,0,3,3,0,0,0-.71,2.17v1.56a3,3,0,0,0,.71,2.17A2.52,2.52,0,0,0,321.07,227.25Z"/><path class="cls-3" d="M328.75,228.73V218.41h2.18v1.76h.1a3.58,3.58,0,0,1,.41-.77,2.47,2.47,0,0,1,.61-.64,3,3,0,0,1,.84-.43,3.44,3.44,0,0,1,1.12-.16,3.3,3.3,0,0,1,2.52,1,4.08,4.08,0,0,1,1,2.9v6.64h-2.18v-6.32c0-1.64-.72-2.46-2.14-2.46a3.18,3.18,0,0,0-.82.11,2.16,2.16,0,0,0-.72.33,1.52,1.52,0,0,0-.51.56,1.55,1.55,0,0,0-.19.78v7Z"/><path class="cls-3" d="M345.09,229a7,7,0,0,1-2.89-.54,5.18,5.18,0,0,1-1.95-1.44l1.34-1.2a4.48,4.48,0,0,0,3.54,1.52,3.56,3.56,0,0,0,1.71-.36,1.2,1.2,0,0,0,.65-1.12,1.13,1.13,0,0,0-.12-.54,1,1,0,0,0-.34-.36,2,2,0,0,0-.51-.22,6,6,0,0,0-.61-.12l-1.64-.26a7.82,7.82,0,0,1-1.22-.26,3.77,3.77,0,0,1-1.11-.51,2.43,2.43,0,0,1-1.11-2.17A2.72,2.72,0,0,1,342,219a5.55,5.55,0,0,1,3.19-.82,6.49,6.49,0,0,1,2.49.43,4.85,4.85,0,0,1,1.75,1.19l-1.22,1.28a3.94,3.94,0,0,0-1.14-.85,4.24,4.24,0,0,0-2-.39c-1.46,0-2.18.46-2.18,1.38a.93.93,0,0,0,.47.91,3,3,0,0,0,1.11.33l1.64.26c.41.07.82.15,1.23.26a3.77,3.77,0,0,1,1.1.49,2.72,2.72,0,0,1,.8.85,2.63,2.63,0,0,1,.31,1.32,2.89,2.89,0,0,1-1.21,2.45A5.55,5.55,0,0,1,345.09,229Z"/><circle class="cls-4" cx="635.2" cy="96.91" r="14.25"/><circle class="cls-4" cx="634.93" cy="138.5" r="14.25"/><circle class="cls-4" cx="635.07" cy="179.7" r="14.25"/><circle class="cls-4" cx="634.79" cy="221.3" r="14.25"/><circle class="cls-4" cx="635.13" cy="263.3" r="14.25"/><circle class="cls-4" cx="634.86" cy="304.9" r="14.25"/><circle class="cls-4" cx="635" cy="346.1" r="14.25"/><circle class="cls-4" cx="634.69" cy="387.78" r="14.25"/><circle class="cls-4" cx="635.03" cy="429.79" r="14.25"/><circle class="cls-4" cx="634.75" cy="471.39" r="14.25"/><circle class="cls-4" cx="725.11" cy="96.91" r="14.25"/><circle class="cls-4" cx="724.84" cy="138.5" r="14.25"/><circle class="cls-4" cx="724.98" cy="179.7" r="14.25"/><circle class="cls-4" cx="724.71" cy="221.3" r="14.25"/><circle class="cls-4" cx="725.05" cy="263.3" r="14.25"/><circle class="cls-4" cx="724.77" cy="304.9" r="14.25"/><circle class="cls-4" cx="724.91" cy="346.1" r="14.25"/><circle class="cls-4" cx="724.6" cy="387.78" r="14.25"/><circle class="cls-4" cx="724.94" cy="429.79" r="14.25"/><circle class="cls-4" cx="724.67" cy="471.39" r="14.25"/><circle class="cls-4" cx="827.06" cy="200.95" r="14.25"/><circle class="cls-4" cx="826.79" cy="242.54" r="14.25"/><circle class="cls-4" cx="826.65" cy="325.34" r="14.25"/><circle class="cls-4" cx="826.99" cy="367.35" r="14.25"/><circle class="cls-5" cx="826.92" cy="283.74" r="14.25"/><circle class="cls-4" cx="536.27" cy="167.73" r="14.25"/><circle class="cls-4" cx="536" cy="209.32" r="14.25"/><circle class="cls-4" cx="536.13" cy="250.52" r="14.25"/><circle class="cls-4" cx="535.86" cy="292.12" r="14.25"/><circle class="cls-4" cx="536.2" cy="334.13" r="14.25"/><circle class="cls-4" cx="535.93" cy="375.72" r="14.25"/><circle class="cls-4" cx="536.07" cy="416.92" r="14.25"/><polygon class="cls-6" points="620.68 138.5 550.52 167.73 620.95 96.91 550.25 209.32 620.68 138.5"/><polygon class="cls-6" points="620.54 221.3 550.52 167.73 620.82 179.7 550.25 209.32 620.54 221.3"/><polygon class="cls-6" points="620.61 304.9 550.52 167.73 620.88 263.31 550.25 209.32 620.61 304.9"/><polygon class="cls-6" points="620.43 387.78 550.52 167.73 620.75 346.1 550.25 209.32 620.43 387.78"/><polygon class="cls-6" points="620.5 471.38 550.52 167.73 620.78 429.79 550.25 209.32 620.5 471.38"/><polygon class="cls-6" points="620.68 138.5 550.38 250.53 620.95 96.91 550.11 292.12 620.68 138.5"/><polygon class="cls-6" points="620.54 221.3 550.38 250.53 620.82 179.7 550.11 292.12 620.54 221.3"/><polygon class="cls-6" points="620.61 304.9 550.38 250.53 620.88 263.31 550.11 292.12 620.61 304.9"/><polygon class="cls-6" points="620.43 387.78 550.38 250.53 620.75 346.1 550.11 292.12 620.43 387.78"/><polygon class="cls-6" points="620.5 471.38 550.38 250.53 620.78 429.79 550.11 292.12 620.5 471.38"/><path class="cls-6" d="M550.45,334.13l70.3,12Z"/><path class="cls-6" d="M550.45,334.13l70,53.65Z"/><path class="cls-6" d="M550.45,334.13l70.33,95.66Z"/><polygon class="cls-6" points="620.68 138.5 550.45 334.13 620.95 96.91 550.18 375.72 620.68 138.5"/><polyline class="cls-6" points="550.18 375.72 620.5 471.38 550.45 334.13"/><polyline class="cls-6" points="620.95 96.91 550.32 416.92 620.68 138.5"/><polyline class="cls-6" points="620.54 221.3 550.32 416.92 620.88 263.31"/><polyline class="cls-6" points="620.61 304.9 550.32 416.92 620.75 346.1 550.18 375.72 620.61 304.9 550.45 334.13 620.88 263.31 550.18 375.72 620.54 221.3 550.45 334.13 620.82 179.7"/><polygon class="cls-6" points="620.78 429.79 550.18 375.72 620.43 387.78 550.32 416.92 620.78 429.79"/><line class="cls-6" x1="550.32" y1="416.92" x2="620.5" y2="471.39"/><polygon class="cls-6" points="710.59 138.5 649.45 96.91 710.87 96.91 649.18 138.5 710.59 138.5"/><polygon class="cls-6" points="710.46 221.3 649.45 96.91 710.73 179.7 649.18 138.5 710.46 221.3"/><polygon class="cls-6" points="710.66 346.1 649.45 96.91 710.52 304.9 649.45 96.91 710.8 263.31 649.18 138.5 710.52 304.9 649.18 138.5 710.66 346.1"/><polygon class="cls-6" points="710.69 429.79 649.45 96.91 710.35 387.78 649.18 138.5 710.69 429.79"/><polyline class="cls-6" points="649.18 138.5 710.41 471.38 649.45 96.91"/><path class="cls-6" d="M649.32,179.7l61.48,83.6Z"/><polygon class="cls-6" points="710.59 138.5 649.32 179.7 710.87 96.91 649.04 221.3 710.59 138.5"/><polygon class="cls-6" points="710.46 221.3 649.32 179.7 710.73 179.7 649.04 221.3 710.46 221.3"/><polyline class="cls-6" points="710.66 346.1 649.04 221.3 710.35 387.78 649.04 221.3 710.69 429.79"/><polyline class="cls-6" points="649.04 221.3 710.41 471.38 649.32 179.7 710.69 429.79 649.32 179.7 710.35 387.78 649.32 179.7 710.66 346.1 649.32 179.7 710.52 304.9 649.04 221.3 710.8 263.31 649.38 263.31 710.52 304.9"/><polygon class="cls-6" points="710.59 138.5 649.38 263.31 710.87 96.91 649.11 304.9 710.59 138.5"/><polygon class="cls-6" points="710.46 221.3 649.38 263.31 710.73 179.7 649.11 304.9 710.46 221.3"/><polyline class="cls-6" points="649.11 304.9 710.41 471.38 649.38 263.31 710.69 429.79 649.38 263.31 710.35 387.78 649.38 263.31 710.66 346.1 649.11 304.9 710.35 387.78 649.11 304.9 710.69 429.79"/><polygon class="cls-6" points="710.52 304.9 649.11 304.9 710.8 263.31 649.25 346.1 710.52 304.9"/><path class="cls-6" d="M649.25,346.1l61.44,83.69Z"/><polygon class="cls-6" points="710.59 138.5 649.25 346.1 710.87 96.91 648.93 387.78 710.59 138.5"/><polyline class="cls-6" points="710.66 346.1 649.28 429.79 710.35 387.78"/><polyline class="cls-6" points="710.69 429.79 649.28 429.79 710.41 471.38"/><polygon class="cls-6" points="710.59 138.5 649.28 429.79 710.87 96.91 649 471.38 710.59 138.5"/><polyline class="cls-6" points="649.25 346.1 710.41 471.38 648.93 387.78 710.69 429.79 648.93 387.78 710.35 387.78 649.25 346.1 710.66 346.1 648.93 387.78 710.52 304.9 649.28 429.79 710.8 263.31 648.93 387.78 710.73 179.7 649.25 346.1 710.46 221.3 649.28 429.79 710.73 179.7 649 471.38 710.46 221.3"/><polyline class="cls-6" points="710.8 263.31 649 471.38 710.52 304.9"/><polyline class="cls-6" points="710.66 346.1 649 471.38 710.35 387.78"/><polyline class="cls-6" points="710.69 429.79 649 471.38 710.41 471.38"/><circle class="cls-2" cx="635.52" cy="68.48" r="3.5"/><circle class="cls-2" cx="635.52" cy="56.48" r="3.5"/><circle class="cls-2" cx="635.52" cy="44.48" r="3.5"/><circle class="cls-2" cx="635.52" cy="32.48" r="3.5"/><circle class="cls-2" cx="724.52" cy="67.48" r="3.5"/><circle class="cls-2" cx="724.52" cy="55.48" r="3.5"/><circle class="cls-2" cx="724.52" cy="43.48" r="3.5"/><circle class="cls-2" cx="724.52" cy="31.48" r="3.5"/><ellipse class="cls-2" cx="634.71" cy="532.52" rx="3.23" ry="3.5"/><ellipse class="cls-2" cx="634.71" cy="520.52" rx="3.23" ry="3.5"/><ellipse class="cls-2" cx="634.71" cy="508.52" rx="3.23" ry="3.5"/><ellipse class="cls-2" cx="634.71" cy="496.52" rx="3.23" ry="3.5"/><ellipse class="cls-2" cx="724.79" cy="532.52" rx="3.23" ry="3.5"/><ellipse class="cls-2" cx="724.79" cy="520.52" rx="3.23" ry="3.5"/><ellipse class="cls-2" cx="724.79" cy="508.52" rx="3.23" ry="3.5"/><ellipse class="cls-2" cx="724.79" cy="496.52" rx="3.23" ry="3.5"/><ellipse class="cls-2" cx="536.07" cy="483.05" rx="3.23" ry="3.5"/><ellipse class="cls-2" cx="536.07" cy="471.05" rx="3.23" ry="3.5"/><ellipse class="cls-2" cx="536.07" cy="459.05" rx="3.23" ry="3.5"/><ellipse class="cls-2" cx="536.07" cy="447.05" rx="3.23" ry="3.5"/><ellipse class="cls-2" cx="536.07" cy="136.05" rx="3.23" ry="3.5"/><ellipse class="cls-2" cx="536.07" cy="124.05" rx="3.23" ry="3.5"/><ellipse class="cls-2" cx="536.07" cy="112.05" rx="3.23" ry="3.5"/><ellipse class="cls-2" cx="536.07" cy="100.05" rx="3.23" ry="3.5"/><polygon class="cls-6" points="812.74 367.35 738.91 471.38 812.4 325.34 739.19 429.79 812.74 367.35"/><polyline class="cls-6" points="812.54 242.54 739.3 263.31 812.81 200.95 739.02 304.9 812.54 242.54"/><polyline class="cls-6" points="812.54 242.54 739.23 179.7 812.81 200.95 738.96 221.3 812.54 242.54"/><polyline class="cls-6" points="739.09 138.5 812.74 367.35 739.37 96.91"/><polyline class="cls-6" points="812.4 325.34 739.23 179.7 812.67 283.74 739.09 138.5 812.4 325.34 739.37 96.91 812.67 283.74 738.85 387.78 812.54 242.54 739.09 138.5 812.81 200.95 739.37 96.91 812.54 242.54 739.16 346.1 812.81 200.95"/><polyline class="cls-6" points="738.96 221.3 812.74 367.35 739.23 179.7"/><polygon class="cls-6" points="812.4 325.34 738.96 221.3 812.67 283.74 739.3 263.31 812.4 325.34"/><polyline class="cls-6" points="739.02 304.9 812.74 367.35 739.3 263.31"/><polygon class="cls-6" points="812.4 325.34 739.02 304.9 812.67 283.74 739.16 346.1 812.4 325.34"/><polyline class="cls-6" points="812.4 325.34 738.85 387.78 812.74 367.35 739.16 346.1"/><polyline class="cls-6" points="738.91 471.38 812.81 200.95 739.19 429.79 812.54 242.54 738.91 471.38 812.67 283.74 739.19 429.79"/><circle class="cls-2" cx="827.52" cy="429.48" r="3.5"/><circle class="cls-2" cx="827.52" cy="417.48" r="3.5"/><circle class="cls-2" cx="827.52" cy="405.48" r="3.5"/><circle class="cls-2" cx="827.52" cy="393.48" r="3.5"/><circle class="cls-2" cx="827.52" cy="175.48" r="3.5"/><circle class="cls-2" cx="827.52" cy="163.48" r="3.5"/><circle class="cls-2" cx="827.52" cy="151.48" r="3.5"/><circle class="cls-2" cx="827.52" cy="139.48" r="3.5"/><path class="cls-3" d="M399.81,170.29l-.64-2.25h-2.66l-.64,2.25H394.5l2.45-8.38h1.84l2.44,8.38Zm-1.92-7h-.1l-1,3.67h2.16Z"/><path class="cls-3" d="M402.47,170.29v-6.2h1.31v1.06h.06a1.88,1.88,0,0,1,.25-.46,1.48,1.48,0,0,1,.36-.39,1.86,1.86,0,0,1,.51-.25,1.93,1.93,0,0,1,.67-.1,2,2,0,0,1,1.51.61,2.47,2.47,0,0,1,.58,1.74v4h-1.31V166.5c0-1-.43-1.48-1.29-1.48a2.05,2.05,0,0,0-.49.06,1.89,1.89,0,0,0-.43.2,1,1,0,0,0-.31.34,1,1,0,0,0-.11.47v4.2Z"/><path class="cls-3" d="M415.5,171a1.52,1.52,0,0,1-.8,1.42,5.18,5.18,0,0,1-2.45.45,7.44,7.44,0,0,1-1.35-.1,3.32,3.32,0,0,1-.89-.29,1.17,1.17,0,0,1-.64-1.1,1.09,1.09,0,0,1,.28-.78,1.74,1.74,0,0,1,.8-.42V170a1.29,1.29,0,0,1-.5-.33.86.86,0,0,1-.18-.57.81.81,0,0,1,.31-.69,2.36,2.36,0,0,1,.8-.35V168a2.18,2.18,0,0,1-.87-.74,2.07,2.07,0,0,1-.31-1.16,2.14,2.14,0,0,1,.18-.89,1.94,1.94,0,0,1,.51-.69,2.4,2.4,0,0,1,.79-.43,3.07,3.07,0,0,1,1-.16,3,3,0,0,1,1.16.21V164a.92.92,0,0,1,.2-.6.79.79,0,0,1,.63-.24h1.13v1H413.9v.29a1.89,1.89,0,0,1,.62.7,2.25,2.25,0,0,1,.22,1,2.19,2.19,0,0,1-.18.9,1.91,1.91,0,0,1-.51.68,2.28,2.28,0,0,1-.8.43,3.28,3.28,0,0,1-1,.15,3.74,3.74,0,0,1-.77-.07,1.32,1.32,0,0,0-.43.21.43.43,0,0,0-.22.39.34.34,0,0,0,.28.36,2.63,2.63,0,0,0,.68.07h1.39a2.73,2.73,0,0,1,1.8.48A1.54,1.54,0,0,1,415.5,171Zm-1.22.08a.61.61,0,0,0-.25-.51,1.66,1.66,0,0,0-.91-.18H411a.72.72,0,0,0-.46.7.77.77,0,0,0,.3.6,1.46,1.46,0,0,0,1,.26h1a2.3,2.3,0,0,0,1.13-.23A.7.7,0,0,0,414.28,171Zm-2.06-3.66a1.27,1.27,0,0,0,.93-.3,1.07,1.07,0,0,0,.3-.8V166a1.09,1.09,0,0,0-.3-.81,1.61,1.61,0,0,0-1.87,0,1.09,1.09,0,0,0-.3.81v.32a1.07,1.07,0,0,0,.3.8A1.28,1.28,0,0,0,412.22,167.38Z"/><path class="cls-3" d="M420.75,169.23h-.06a2.94,2.94,0,0,1-.25.46,1.67,1.67,0,0,1-.36.39,1.73,1.73,0,0,1-.51.25,1.93,1.93,0,0,1-.67.1,2,2,0,0,1-1.51-.61,2.42,2.42,0,0,1-.58-1.74v-4h1.31v3.8c0,1,.43,1.47,1.28,1.47a2.07,2.07,0,0,0,.5-.06,1.54,1.54,0,0,0,.43-.2.94.94,0,0,0,.3-.33.9.9,0,0,0,.12-.48v-4.2h1.31v6.2h-1.31Z"/><path class="cls-3" d="M424,169.22H426v-6.74H424v-1.07h3.36v7.81h2.06v1.07H424Z"/><path class="cls-3" d="M436.17,170.29a1.15,1.15,0,0,1-.85-.29,1.28,1.28,0,0,1-.34-.76h-.06a1.62,1.62,0,0,1-.65.88,2.52,2.52,0,0,1-2.72-.19,1.72,1.72,0,0,1-.57-1.37,1.58,1.58,0,0,1,.67-1.37,3.52,3.52,0,0,1,2.05-.48h1.18v-.48c0-.84-.44-1.26-1.33-1.26a1.76,1.76,0,0,0-1,.24,1.9,1.9,0,0,0-.62.61l-.78-.63a2.17,2.17,0,0,1,.88-.87,3.12,3.12,0,0,1,1.61-.37,2.82,2.82,0,0,1,1.85.56,2,2,0,0,1,.67,1.64v3.1H437v1Zm-2.74-.82a1.74,1.74,0,0,0,1.05-.29.85.85,0,0,0,.4-.73v-.9h-1.16c-.94,0-1.42.28-1.42.85v.24a.7.7,0,0,0,.3.62A1.44,1.44,0,0,0,433.43,169.47Z"/><path class="cls-3" d="M438.38,169.22H440v-4.06h-1.64v-1.07h2.95v1.65h.07a3.32,3.32,0,0,1,.24-.62,1.9,1.9,0,0,1,.4-.53,2.2,2.2,0,0,1,.58-.36,2.31,2.31,0,0,1,.82-.14h.74v1.25H443a1.65,1.65,0,0,0-1.18.43,1.48,1.48,0,0,0-.45,1.14v2.31h2.24v1.07h-5.19Z"/><path class="cls-3" d="M454.66,170.29l-2.22-6.2h1.36l.85,2.62.8,2.49h.07l.81-2.49.85-2.62h1.31l-2.22,6.2Z"/><path class="cls-3" d="M462.8,170.43a3.25,3.25,0,0,1-1.28-.23,2.52,2.52,0,0,1-.94-.65,2.6,2.6,0,0,1-.59-1,4,4,0,0,1-.21-1.34,4.05,4.05,0,0,1,.21-1.34,3.34,3.34,0,0,1,.59-1,2.52,2.52,0,0,1,.92-.65,3.09,3.09,0,0,1,1.2-.23,3.22,3.22,0,0,1,1.18.22,2.61,2.61,0,0,1,.9.63,3,3,0,0,1,.57,1,3.75,3.75,0,0,1,.2,1.24v.49H461.1v.21a1.61,1.61,0,0,0,.46,1.18,1.67,1.67,0,0,0,1.26.46,2,2,0,0,0,1-.25,2.07,2.07,0,0,0,.69-.69l.81.72a2.55,2.55,0,0,1-1,.92A3.13,3.13,0,0,1,462.8,170.43Zm-.1-5.48a1.66,1.66,0,0,0-.64.12,1.27,1.27,0,0,0-.5.34,1.67,1.67,0,0,0-.34.52,1.76,1.76,0,0,0-.12.66v.08h3.11v-.12a1.69,1.69,0,0,0-.41-1.17A1.45,1.45,0,0,0,462.7,165Z"/><path class="cls-3" d="M467.17,169.22h2.05v-6.74h-2.05v-1.07h3.35v7.81h2.06v1.07h-5.41Z"/><path class="cls-3" d="M477.06,170.43a3,3,0,0,1-1.22-.23,2.48,2.48,0,0,1-.93-.65,2.85,2.85,0,0,1-.58-1,4.12,4.12,0,0,1-.2-1.35,4.05,4.05,0,0,1,.2-1.34,3,3,0,0,1,.58-1,2.48,2.48,0,0,1,.93-.65,3.16,3.16,0,0,1,1.22-.23,3.26,3.26,0,0,1,1.24.23,2.52,2.52,0,0,1,.92.65,2.83,2.83,0,0,1,.58,1,4.05,4.05,0,0,1,.21,1.34,4.11,4.11,0,0,1-.21,1.35,2.71,2.71,0,0,1-.58,1,2.52,2.52,0,0,1-.92.65A3.08,3.08,0,0,1,477.06,170.43Zm0-1a1.52,1.52,0,0,0,1.15-.44,1.76,1.76,0,0,0,.43-1.3v-.94a1.77,1.77,0,0,0-.43-1.3,1.71,1.71,0,0,0-2.29,0,1.82,1.82,0,0,0-.43,1.3v.94a1.8,1.8,0,0,0,.43,1.3A1.53,1.53,0,0,0,477.06,169.4Z"/><path class="cls-3" d="M484.49,170.43a3.08,3.08,0,0,1-1.24-.23,2.52,2.52,0,0,1-.92-.65,2.71,2.71,0,0,1-.58-1,4.4,4.4,0,0,1-.2-1.35,4.33,4.33,0,0,1,.2-1.34,2.83,2.83,0,0,1,.58-1,2.52,2.52,0,0,1,.92-.65,3.25,3.25,0,0,1,1.23-.23,2.7,2.7,0,0,1,1.54.4,2.47,2.47,0,0,1,.87,1.05l-1,.56a1.49,1.49,0,0,0-.51-.69,1.41,1.41,0,0,0-.88-.25,1.48,1.48,0,0,0-1.15.45,1.73,1.73,0,0,0-.41,1.2v1a1.72,1.72,0,0,0,.41,1.19,1.47,1.47,0,0,0,1.18.46,1.56,1.56,0,0,0,.94-.26,1.89,1.89,0,0,0,.58-.72l1,.59a2.49,2.49,0,0,1-.91,1.05A2.84,2.84,0,0,1,484.49,170.43Z"/><path class="cls-3" d="M489.08,169.22h2.11v-4.06h-2.11v-1.07h3.42v5.13h2v1.07h-5.4Zm2.77-6.25a.93.93,0,0,1-.7-.21.69.69,0,0,1-.2-.5V162a.73.73,0,0,1,.2-.51,1,1,0,0,1,.69-.2,1,1,0,0,1,.7.2.73.73,0,0,1,.2.51v.25a.69.69,0,0,1-.2.5A.92.92,0,0,1,491.85,163Z"/><path class="cls-3" d="M499,170.29a1.51,1.51,0,0,1-1.2-.44,1.63,1.63,0,0,1-.39-1.13v-3.56h-1.9v-1.07h1.35a.7.7,0,0,0,.49-.13.66.66,0,0,0,.15-.5v-1.55h1.22v2.18h2.64v1.07h-2.64v4.06h2.64v1.07Z"/><path class="cls-3" d="M507.68,164.09H509l-3,7.4a2.07,2.07,0,0,1-.63.9,1.82,1.82,0,0,1-1.12.3H503.2v-1.07h1.47l.56-1.42-2.5-6.11h1.37l1,2.6.76,2.12h.08l.76-2.12Z"/><path class="cls-3" d="M403,211.21v-8.37h1.35v7.24h3.81v1.13Z"/><path class="cls-3" d="M410.08,210.14h2.11v-4h-2.11V205h3.42v5.12h2v1.07h-5.4Zm2.77-6.25a1,1,0,0,1-.7-.2.73.73,0,0,1-.2-.51v-.25a.69.69,0,0,1,.2-.5.92.92,0,0,1,.69-.21.94.94,0,0,1,.7.21.69.69,0,0,1,.2.5v.25a.73.73,0,0,1-.2.51A1,1,0,0,1,412.85,203.89Z"/><path class="cls-3" d="M417.07,211.21V205h1.31v1.06h.06a3,3,0,0,1,.25-.47,1.66,1.66,0,0,1,.37-.38,1.82,1.82,0,0,1,.5-.26,2.22,2.22,0,0,1,.67-.09,2,2,0,0,1,1.51.61,2.42,2.42,0,0,1,.58,1.74v4H421v-3.79c0-1-.43-1.48-1.28-1.48a2.08,2.08,0,0,0-.5.07,1.3,1.3,0,0,0-.43.2,1,1,0,0,0-.3.33.94.94,0,0,0-.12.47v4.2Z"/><path class="cls-3" d="M427,211.36a3.38,3.38,0,0,1-1.27-.23,2.48,2.48,0,0,1-1-.65,2.89,2.89,0,0,1-.59-1,4.33,4.33,0,0,1-.2-1.34,4.07,4.07,0,0,1,.21-1.35,3,3,0,0,1,.58-1,2.64,2.64,0,0,1,.92-.66,3.09,3.09,0,0,1,1.2-.22,3,3,0,0,1,1.18.22,2.61,2.61,0,0,1,.9.63,2.68,2.68,0,0,1,.57,1,3.81,3.81,0,0,1,.2,1.25v.49h-4.44v.2a1.63,1.63,0,0,0,.45,1.19,1.74,1.74,0,0,0,1.26.46,2,2,0,0,0,1-.26,2.13,2.13,0,0,0,.69-.68l.82.72a2.56,2.56,0,0,1-1,.91A3.13,3.13,0,0,1,427,211.36Zm-.1-5.49a1.69,1.69,0,0,0-.64.12,1.48,1.48,0,0,0-.5.34,1.69,1.69,0,0,0-.33.53,1.76,1.76,0,0,0-.12.66v.08h3.11v-.12a1.61,1.61,0,0,0-.42-1.17A1.45,1.45,0,0,0,426.9,205.87Z"/><path class="cls-3" d="M436.37,211.21a1.13,1.13,0,0,1-.85-.29,1.31,1.31,0,0,1-.34-.75h-.06a1.55,1.55,0,0,1-.65.87,2.16,2.16,0,0,1-1.21.32,2.22,2.22,0,0,1-1.51-.5,1.76,1.76,0,0,1-.56-1.38,1.58,1.58,0,0,1,.66-1.37,3.55,3.55,0,0,1,2-.47h1.19v-.48c0-.84-.45-1.26-1.33-1.26a1.78,1.78,0,0,0-1,.23,2.15,2.15,0,0,0-.62.62l-.78-.64a2.33,2.33,0,0,1,.89-.87,3.17,3.17,0,0,1,1.61-.36,2.75,2.75,0,0,1,1.84.56,2,2,0,0,1,.67,1.63v3.11h.79v1Zm-2.73-.81a1.77,1.77,0,0,0,1-.29.88.88,0,0,0,.41-.74v-.89h-1.17q-1.41,0-1.41.84v.24a.72.72,0,0,0,.3.63A1.41,1.41,0,0,0,433.64,210.4Z"/><path class="cls-3" d="M438.58,210.14h1.64v-4h-1.64V205h2.95v1.64h.07a3.61,3.61,0,0,1,.24-.62,2.06,2.06,0,0,1,.4-.52,1.83,1.83,0,0,1,.59-.36,2.21,2.21,0,0,1,.81-.14h.75v1.25h-1.23a1.65,1.65,0,0,0-1.17.42,1.48,1.48,0,0,0-.46,1.14v2.31h2.25v1.07h-5.2Z"/><path class="cls-3" d="M454.86,211.21,452.64,205H454l.85,2.62.81,2.48h.07l.8-2.48.85-2.62h1.31l-2.22,6.19Z"/><path class="cls-3" d="M463,211.36a3.38,3.38,0,0,1-1.27-.23,2.56,2.56,0,0,1-1-.65,2.89,2.89,0,0,1-.59-1,4.33,4.33,0,0,1-.2-1.34,4.07,4.07,0,0,1,.21-1.35,2.85,2.85,0,0,1,.59-1,2.51,2.51,0,0,1,.91-.66,3.09,3.09,0,0,1,1.2-.22,3,3,0,0,1,1.18.22,2.61,2.61,0,0,1,.9.63,2.68,2.68,0,0,1,.57,1,3.81,3.81,0,0,1,.2,1.25v.49h-4.44v.2a1.63,1.63,0,0,0,.45,1.19,1.74,1.74,0,0,0,1.26.46,2,2,0,0,0,1-.26,2.13,2.13,0,0,0,.69-.68l.82.72a2.56,2.56,0,0,1-1,.91A3.13,3.13,0,0,1,463,211.36Zm-.1-5.49a1.69,1.69,0,0,0-.64.12,1.58,1.58,0,0,0-.5.34,1.69,1.69,0,0,0-.33.53,1.76,1.76,0,0,0-.12.66v.08h3.11v-.12a1.61,1.61,0,0,0-.42-1.17A1.44,1.44,0,0,0,462.9,205.87Z"/><path class="cls-3" d="M467.37,210.14h2.05V203.4h-2.05v-1.07h3.36v7.81h2v1.07h-5.41Z"/><path class="cls-3" d="M477.27,211.36a3.17,3.17,0,0,1-1.23-.23,2.56,2.56,0,0,1-.93-.65,3,3,0,0,1-.58-1,4.62,4.62,0,0,1,0-2.69,3,3,0,0,1,.58-1,2.69,2.69,0,0,1,.93-.65,3.17,3.17,0,0,1,1.23-.22,3.24,3.24,0,0,1,1.23.22,2.65,2.65,0,0,1,.92.65,2.83,2.83,0,0,1,.58,1,4.41,4.41,0,0,1,0,2.69,2.83,2.83,0,0,1-.58,1,2.52,2.52,0,0,1-.92.65A3.25,3.25,0,0,1,477.27,211.36Zm0-1a1.51,1.51,0,0,0,1.14-.43,1.8,1.8,0,0,0,.43-1.31v-.93a1.76,1.76,0,0,0-.43-1.3,1.48,1.48,0,0,0-1.14-.44,1.51,1.51,0,0,0-1.15.44,1.8,1.8,0,0,0-.42,1.3v.93a1.84,1.84,0,0,0,.42,1.31A1.55,1.55,0,0,0,477.27,210.32Z"/><path class="cls-3" d="M484.7,211.36a3.28,3.28,0,0,1-1.25-.23,2.52,2.52,0,0,1-.92-.65,3,3,0,0,1-.58-1,4.86,4.86,0,0,1,0-2.69,3,3,0,0,1,.58-1,2.65,2.65,0,0,1,.92-.65,3.24,3.24,0,0,1,1.23-.22,2.68,2.68,0,0,1,1.55.4,2.62,2.62,0,0,1,.87,1.05l-1,.55a1.55,1.55,0,0,0-.51-.68,1.47,1.47,0,0,0-.89-.26,1.45,1.45,0,0,0-1.15.46,1.73,1.73,0,0,0-.41,1.2v1a1.75,1.75,0,0,0,.41,1.2,1.52,1.52,0,0,0,1.18.46,1.54,1.54,0,0,0,.94-.27,1.75,1.75,0,0,0,.58-.72l1,.59a2.58,2.58,0,0,1-.91,1.06A2.83,2.83,0,0,1,484.7,211.36Z"/><path class="cls-3" d="M489.28,210.14h2.11v-4h-2.11V205h3.42v5.12h2v1.07h-5.4Zm2.77-6.25a1,1,0,0,1-.7-.2.73.73,0,0,1-.2-.51v-.25a.69.69,0,0,1,.2-.5.92.92,0,0,1,.69-.21.93.93,0,0,1,.7.21.69.69,0,0,1,.2.5v.25a.73.73,0,0,1-.2.51A1,1,0,0,1,492.05,203.89Z"/><path class="cls-3" d="M499.24,211.21a1.53,1.53,0,0,1-1.2-.43,1.65,1.65,0,0,1-.38-1.14v-3.55h-1.91V205h1.35a.73.73,0,0,0,.5-.14.71.71,0,0,0,.14-.5v-1.54H499V205h2.63v1.07H499v4h2.63v1.07Z"/><path class="cls-3" d="M507.88,205h1.32l-3,7.39a2.07,2.07,0,0,1-.63.9,1.8,1.8,0,0,1-1.12.3H503.4v-1.07h1.47l.56-1.41L502.94,205h1.37l1,2.59.77,2.13h.07l.77-2.13Z"/><path class="cls-3" d="M448.07,254.21v-8.37h3.14a2.38,2.38,0,0,1,1.83.67,3,3,0,0,1,0,3.68,2.38,2.38,0,0,1-1.83.67h-1.79v3.35Zm1.35-4.45H451c.83,0,1.25-.39,1.25-1.16v-.52c0-.76-.42-1.14-1.25-1.14h-1.58Z"/><path class="cls-3" d="M457.87,254.36a3.17,3.17,0,0,1-1.23-.23,2.48,2.48,0,0,1-.93-.65,3,3,0,0,1-.58-1,4.62,4.62,0,0,1,0-2.69,3,3,0,0,1,.58-1,2.6,2.6,0,0,1,.93-.65,3.17,3.17,0,0,1,1.23-.22,3.24,3.24,0,0,1,1.23.22,2.65,2.65,0,0,1,.92.65,2.83,2.83,0,0,1,.58,1,4.41,4.41,0,0,1,0,2.69,2.83,2.83,0,0,1-.58,1,2.52,2.52,0,0,1-.92.65A3.25,3.25,0,0,1,457.87,254.36Zm0-1a1.51,1.51,0,0,0,1.14-.43,1.8,1.8,0,0,0,.43-1.31v-.93a1.76,1.76,0,0,0-.43-1.3,1.48,1.48,0,0,0-1.14-.44,1.5,1.5,0,0,0-1.15.44,1.8,1.8,0,0,0-.43,1.3v.93a1.84,1.84,0,0,0,.43,1.31A1.53,1.53,0,0,0,457.87,253.32Z"/><path class="cls-3" d="M465.08,254.36a4.22,4.22,0,0,1-1.74-.33,3.13,3.13,0,0,1-1.17-.86l.81-.72a3,3,0,0,0,.92.68,3,3,0,0,0,1.2.23,2,2,0,0,0,1-.22.7.7,0,0,0,.39-.67.76.76,0,0,0-.07-.32.63.63,0,0,0-.21-.22,1.36,1.36,0,0,0-.3-.13,2.2,2.2,0,0,0-.37-.07l-1-.16a5.11,5.11,0,0,1-.74-.15,2.68,2.68,0,0,1-.66-.31,1.47,1.47,0,0,1-.67-1.3,1.62,1.62,0,0,1,.73-1.44,3.32,3.32,0,0,1,1.91-.49,4,4,0,0,1,1.5.25,2.93,2.93,0,0,1,1,.72l-.74.77a2.09,2.09,0,0,0-.68-.51,2.5,2.5,0,0,0-1.18-.24c-.87,0-1.3.28-1.3.83a.57.57,0,0,0,.28.55,1.89,1.89,0,0,0,.66.19l1,.16a6.52,6.52,0,0,1,.74.16,2.18,2.18,0,0,1,.66.29,1.68,1.68,0,0,1,.48.51,1.57,1.57,0,0,1,.18.79,1.71,1.71,0,0,1-.72,1.47A3.3,3.3,0,0,1,465.08,254.36Z"/><path class="cls-3" d="M469.88,253.14H472v-4h-2.11V248h3.42v5.12h2v1.07h-5.4Zm2.77-6.25a1,1,0,0,1-.7-.2.73.73,0,0,1-.2-.51v-.25a.69.69,0,0,1,.2-.5.92.92,0,0,1,.69-.21.94.94,0,0,1,.7.21.69.69,0,0,1,.2.5v.25a.73.73,0,0,1-.2.51A1,1,0,0,1,472.65,246.89Z"/><path class="cls-3" d="M479.84,254.21a1.5,1.5,0,0,1-1.2-.43,1.66,1.66,0,0,1-.39-1.14v-3.55h-1.9V248h1.35a.7.7,0,0,0,.49-.14.66.66,0,0,0,.15-.5v-1.54h1.22V248h2.64v1.07h-2.64v4h2.64v1.07Z"/><path class="cls-3" d="M484.28,253.14h2.11v-4h-2.11V248h3.42v5.12h2v1.07h-5.4Zm2.77-6.25a1,1,0,0,1-.7-.2.73.73,0,0,1-.2-.51v-.25a.69.69,0,0,1,.2-.5.92.92,0,0,1,.69-.21.94.94,0,0,1,.7.21.69.69,0,0,1,.2.5v.25a.73.73,0,0,1-.2.51A1,1,0,0,1,487.05,246.89Z"/><path class="cls-3" d="M493.87,254.36a3.17,3.17,0,0,1-1.23-.23,2.56,2.56,0,0,1-.93-.65,3,3,0,0,1-.58-1,4.62,4.62,0,0,1,0-2.69,3,3,0,0,1,.58-1,2.69,2.69,0,0,1,.93-.65,3.17,3.17,0,0,1,1.23-.22,3.24,3.24,0,0,1,1.23.22,2.65,2.65,0,0,1,.92.65,2.83,2.83,0,0,1,.58,1,4.41,4.41,0,0,1,0,2.69,2.83,2.83,0,0,1-.58,1,2.52,2.52,0,0,1-.92.65A3.25,3.25,0,0,1,493.87,254.36Zm0-1a1.51,1.51,0,0,0,1.14-.43,1.8,1.8,0,0,0,.43-1.31v-.93a1.76,1.76,0,0,0-.43-1.3,1.48,1.48,0,0,0-1.14-.44,1.51,1.51,0,0,0-1.15.44,1.8,1.8,0,0,0-.42,1.3v.93a1.84,1.84,0,0,0,.42,1.31A1.55,1.55,0,0,0,493.87,253.32Z"/><path class="cls-3" d="M498.47,254.21V248h1.31v1.06h.06a3,3,0,0,1,.25-.47,1.66,1.66,0,0,1,.37-.38,1.82,1.82,0,0,1,.5-.26,2.26,2.26,0,0,1,.67-.09,2,2,0,0,1,1.51.61,2.42,2.42,0,0,1,.58,1.74v4h-1.31v-3.79c0-1-.43-1.48-1.28-1.48a2,2,0,0,0-.49.07,1.27,1.27,0,0,0-.44.2,1,1,0,0,0-.3.33.94.94,0,0,0-.12.47v4.2Z"/><path class="cls-3" d="M421.06,294.21v-8.37h1.35v7.24h3.81v1.13Z"/><path class="cls-3" d="M428.18,293.14h2.11v-4.05h-2.11V288h3.42v5.12h2v1.07h-5.4Zm2.77-6.25a1,1,0,0,1-.7-.2.73.73,0,0,1-.2-.51v-.25a.69.69,0,0,1,.2-.5.92.92,0,0,1,.69-.21.94.94,0,0,1,.7.21.69.69,0,0,1,.2.5v.25a.73.73,0,0,1-.2.51A1,1,0,0,1,431,286.89Z"/><path class="cls-3" d="M435.15,285.84h2.5A2.75,2.75,0,0,1,440,286.9a6.71,6.71,0,0,1,0,6.24,2.73,2.73,0,0,1-2.38,1.07h-2.5Zm2.41,7.27a1.6,1.6,0,0,0,1.38-.62,3,3,0,0,0,.45-1.77v-1.39a3,3,0,0,0-.45-1.77,1.6,1.6,0,0,0-1.38-.62h-1.08v6.17Z"/><path class="cls-3" d="M446.91,294.21l-.64-2.24h-2.66l-.64,2.24h-1.36l2.45-8.37h1.83l2.45,8.37Zm-1.92-7h-.1l-1,3.67H446Z"/><path class="cls-3" d="M450.91,294.21h-1.34v-8.37h3.14a2.38,2.38,0,0,1,1.83.67,3,3,0,0,1,.16,3.42,2,2,0,0,1-1.35.77l1.94,3.51H453.8L452,290.82h-1.11Zm1.61-4.46c.83,0,1.24-.38,1.24-1.15v-.52c0-.76-.41-1.14-1.24-1.14h-1.61v2.81Z"/><path class="cls-3" d="M465.76,294.21,463.54,288h1.36l.85,2.62.81,2.48h.07l.8-2.48.85-2.62h1.31l-2.22,6.19Z"/><path class="cls-3" d="M473.9,294.36a3.38,3.38,0,0,1-1.27-.23,2.48,2.48,0,0,1-.95-.65,2.89,2.89,0,0,1-.59-1,4.33,4.33,0,0,1-.2-1.34,4.07,4.07,0,0,1,.21-1.35,3,3,0,0,1,.58-1,2.64,2.64,0,0,1,.92-.66,3.09,3.09,0,0,1,1.2-.22,3,3,0,0,1,1.18.22,2.61,2.61,0,0,1,.9.63,2.68,2.68,0,0,1,.57,1,3.81,3.81,0,0,1,.2,1.25v.49h-4.44v.2a1.63,1.63,0,0,0,.45,1.19,1.74,1.74,0,0,0,1.26.46,2,2,0,0,0,1-.26,2.13,2.13,0,0,0,.69-.68l.82.72a2.56,2.56,0,0,1-1,.91A3.13,3.13,0,0,1,473.9,294.36Zm-.1-5.49a1.69,1.69,0,0,0-.64.12,1.58,1.58,0,0,0-.5.34,1.69,1.69,0,0,0-.33.53,1.76,1.76,0,0,0-.12.66v.08h3.11v-.12a1.61,1.61,0,0,0-.42-1.17A1.44,1.44,0,0,0,473.8,288.87Z"/><path class="cls-3" d="M481.2,294.36a3.28,3.28,0,0,1-1.25-.23,2.52,2.52,0,0,1-.92-.65,3,3,0,0,1-.58-1,4.86,4.86,0,0,1,0-2.69,3,3,0,0,1,.58-1,2.65,2.65,0,0,1,.92-.65,3.24,3.24,0,0,1,1.23-.22,2.68,2.68,0,0,1,1.55.4,2.62,2.62,0,0,1,.87,1.05l-1,.55a1.55,1.55,0,0,0-.51-.68,1.47,1.47,0,0,0-.89-.26,1.45,1.45,0,0,0-1.15.46,1.73,1.73,0,0,0-.41,1.2v1a1.75,1.75,0,0,0,.41,1.2,1.52,1.52,0,0,0,1.18.46,1.54,1.54,0,0,0,.94-.27,1.75,1.75,0,0,0,.58-.72l1,.59a2.58,2.58,0,0,1-.91,1.06A2.83,2.83,0,0,1,481.2,294.36Z"/><path class="cls-3" d="M488.54,294.21a1.53,1.53,0,0,1-1.2-.43,1.65,1.65,0,0,1-.38-1.14v-3.55h-1.91V288h1.35a.73.73,0,0,0,.5-.14.71.71,0,0,0,.14-.5v-1.54h1.22V288h2.64v1.07h-2.64v4.05h2.64v1.07Z"/><path class="cls-3" d="M495.37,294.36a3.17,3.17,0,0,1-1.23-.23,2.56,2.56,0,0,1-.93-.65,3,3,0,0,1-.58-1,4.62,4.62,0,0,1,0-2.69,3,3,0,0,1,.58-1,2.69,2.69,0,0,1,.93-.65,3.17,3.17,0,0,1,1.23-.22,3.24,3.24,0,0,1,1.23.22,2.65,2.65,0,0,1,.92.65,2.83,2.83,0,0,1,.58,1,4.41,4.41,0,0,1,0,2.69,2.83,2.83,0,0,1-.58,1,2.52,2.52,0,0,1-.92.65A3.25,3.25,0,0,1,495.37,294.36Zm0-1a1.51,1.51,0,0,0,1.14-.43,1.8,1.8,0,0,0,.43-1.31v-.93a1.76,1.76,0,0,0-.43-1.3,1.48,1.48,0,0,0-1.14-.44,1.51,1.51,0,0,0-1.15.44,1.8,1.8,0,0,0-.42,1.3v.93a1.84,1.84,0,0,0,.42,1.31A1.55,1.55,0,0,0,495.37,293.32Z"/><path class="cls-3" d="M499.88,293.14h1.64v-4.05h-1.64V288h2.95v1.64h.07a3.61,3.61,0,0,1,.24-.62,2.06,2.06,0,0,1,.4-.52,1.83,1.83,0,0,1,.59-.36,2.21,2.21,0,0,1,.81-.14h.75v1.25h-1.23a1.65,1.65,0,0,0-1.17.42,1.48,1.48,0,0,0-.46,1.14v2.31h2.25v1.07h-5.2Z"/><path class="cls-3" d="M448.91,337.21h-1.34v-8.37h3.14a2.38,2.38,0,0,1,1.83.67,3,3,0,0,1,.16,3.42,2,2,0,0,1-1.35.77l1.94,3.51H451.8L450,333.82h-1.11Zm1.6-4.46c.84,0,1.25-.38,1.25-1.15v-.52c0-.76-.41-1.14-1.25-1.14h-1.6v2.81Z"/><path class="cls-3" d="M457.37,337.36a3.17,3.17,0,0,1-1.23-.23,2.48,2.48,0,0,1-.93-.65,3,3,0,0,1-.58-1,4.62,4.62,0,0,1,0-2.69,3,3,0,0,1,.58-1,2.6,2.6,0,0,1,.93-.65,3.17,3.17,0,0,1,1.23-.22,3.24,3.24,0,0,1,1.23.22,2.65,2.65,0,0,1,.92.65,2.83,2.83,0,0,1,.58,1,4.41,4.41,0,0,1,0,2.69,2.83,2.83,0,0,1-.58,1,2.52,2.52,0,0,1-.92.65A3.25,3.25,0,0,1,457.37,337.36Zm0-1a1.51,1.51,0,0,0,1.14-.43,1.8,1.8,0,0,0,.43-1.31v-.93a1.76,1.76,0,0,0-.43-1.3,1.48,1.48,0,0,0-1.14-.44,1.5,1.5,0,0,0-1.15.44,1.8,1.8,0,0,0-.43,1.3v.93a1.84,1.84,0,0,0,.43,1.31A1.53,1.53,0,0,0,457.37,336.32Z"/><path class="cls-3" d="M464.94,337.21a1.5,1.5,0,0,1-1.2-.43,1.66,1.66,0,0,1-.39-1.14v-3.55h-1.9V331h1.35a.7.7,0,0,0,.49-.14.66.66,0,0,0,.15-.5v-1.54h1.22V331h2.64v1.07h-2.64v4.05h2.64v1.07Z"/><path class="cls-3" d="M474.07,337.21a1.11,1.11,0,0,1-.85-.29,1.31,1.31,0,0,1-.34-.75h-.06a1.6,1.6,0,0,1-.65.87,2.16,2.16,0,0,1-1.21.32,2.22,2.22,0,0,1-1.51-.5,1.72,1.72,0,0,1-.56-1.38,1.58,1.58,0,0,1,.66-1.37,3.55,3.55,0,0,1,2.05-.47h1.19v-.48c0-.84-.45-1.26-1.34-1.26a1.77,1.77,0,0,0-1,.23,2,2,0,0,0-.62.62l-.78-.64a2.26,2.26,0,0,1,.89-.87,3.16,3.16,0,0,1,1.6-.36,2.76,2.76,0,0,1,1.85.56,2,2,0,0,1,.67,1.63v3.11h.78v1Zm-2.74-.81a1.79,1.79,0,0,0,1.05-.29.88.88,0,0,0,.41-.74v-.89h-1.17q-1.41,0-1.41.84v.24a.72.72,0,0,0,.3.63A1.4,1.4,0,0,0,471.33,336.4Z"/><path class="cls-3" d="M479.34,337.21a1.5,1.5,0,0,1-1.2-.43,1.66,1.66,0,0,1-.39-1.14v-3.55h-1.9V331h1.35a.7.7,0,0,0,.49-.14.66.66,0,0,0,.15-.5v-1.54h1.22V331h2.64v1.07h-2.64v4.05h2.64v1.07Z"/><path class="cls-3" d="M483.78,336.14h2.11v-4.05h-2.11V331h3.42v5.12h2v1.07h-5.4Zm2.77-6.25a1,1,0,0,1-.7-.2.73.73,0,0,1-.2-.51v-.25a.69.69,0,0,1,.2-.5.92.92,0,0,1,.69-.21.94.94,0,0,1,.7.21.69.69,0,0,1,.2.5v.25a.73.73,0,0,1-.2.51A1,1,0,0,1,486.55,329.89Z"/><path class="cls-3" d="M493.37,337.36a3.17,3.17,0,0,1-1.23-.23,2.56,2.56,0,0,1-.93-.65,3,3,0,0,1-.58-1,4.62,4.62,0,0,1,0-2.69,3,3,0,0,1,.58-1,2.69,2.69,0,0,1,.93-.65,3.17,3.17,0,0,1,1.23-.22,3.24,3.24,0,0,1,1.23.22,2.65,2.65,0,0,1,.92.65,2.83,2.83,0,0,1,.58,1,4.41,4.41,0,0,1,0,2.69,2.83,2.83,0,0,1-.58,1,2.52,2.52,0,0,1-.92.65A3.25,3.25,0,0,1,493.37,337.36Zm0-1a1.51,1.51,0,0,0,1.14-.43,1.8,1.8,0,0,0,.43-1.31v-.93a1.76,1.76,0,0,0-.43-1.3,1.48,1.48,0,0,0-1.14-.44,1.51,1.51,0,0,0-1.15.44,1.8,1.8,0,0,0-.42,1.3v.93a1.84,1.84,0,0,0,.42,1.31A1.55,1.55,0,0,0,493.37,336.32Z"/><path class="cls-3" d="M498,337.21V331h1.31v1.06h.06a3,3,0,0,1,.25-.47,1.66,1.66,0,0,1,.37-.38,1.82,1.82,0,0,1,.5-.26,2.26,2.26,0,0,1,.67-.09,2,2,0,0,1,1.51.61,2.42,2.42,0,0,1,.58,1.74v4h-1.31v-3.79c0-1-.43-1.48-1.28-1.48a2,2,0,0,0-.49.07,1.27,1.27,0,0,0-.44.2,1,1,0,0,0-.3.33.94.94,0,0,0-.12.47v4.2Z"/><path class="cls-3" d="M468.2,379.21v-8.37h5.24V372h-3.9v2.44h3.76v1.13h-3.76v2.55h3.9v1.13Z"/><path class="cls-3" d="M478.34,379.21a1.5,1.5,0,0,1-1.2-.43,1.66,1.66,0,0,1-.39-1.14v-3.55h-1.9V373h1.35a.7.7,0,0,0,.49-.14.66.66,0,0,0,.15-.5v-1.54h1.22V373h2.64v1.07h-2.64v4.05h2.64v1.07Z"/><path class="cls-3" d="M485.39,379.36a3.26,3.26,0,0,1-1.24-.23,2.52,2.52,0,0,1-.92-.65,2.83,2.83,0,0,1-.58-1,4.62,4.62,0,0,1,0-2.69,2.83,2.83,0,0,1,.58-1,2.65,2.65,0,0,1,.92-.65,3.24,3.24,0,0,1,1.23-.22,2.63,2.63,0,0,1,1.54.4,2.47,2.47,0,0,1,.87,1.05l-1,.55a1.4,1.4,0,0,0-1.39-.94,1.45,1.45,0,0,0-1.15.46,1.73,1.73,0,0,0-.41,1.2v1a1.75,1.75,0,0,0,.41,1.2,1.51,1.51,0,0,0,1.18.46,1.56,1.56,0,0,0,.94-.27,1.75,1.75,0,0,0,.58-.72l1,.59A2.58,2.58,0,0,1,487,379,2.84,2.84,0,0,1,485.39,379.36Z"/><path class="cls-3" d="M492.37,379.33a1.09,1.09,0,0,1-.81-.24.79.79,0,0,1-.24-.59v-.31a.81.81,0,0,1,.24-.59,1.09,1.09,0,0,1,.81-.24,1.12,1.12,0,0,1,.81.24.84.84,0,0,1,.23.59v.31a.82.82,0,0,1-.23.59A1.12,1.12,0,0,1,492.37,379.33Z"/><path class="cls-3" d="M499.57,379.33a1.09,1.09,0,0,1-.81-.24.79.79,0,0,1-.24-.59v-.31a.81.81,0,0,1,.24-.59,1.09,1.09,0,0,1,.81-.24,1.12,1.12,0,0,1,.81.24.84.84,0,0,1,.23.59v.31a.82.82,0,0,1-.23.59A1.12,1.12,0,0,1,499.57,379.33Z"/><path class="cls-3" d="M858.31,196.65v7.25H857v-7.25h-2.63v-1.13h6.6v1.13Z"/><path class="cls-3" d="M866.12,202.84h-.06a2.94,2.94,0,0,1-.25.46,1.67,1.67,0,0,1-.36.39,1.86,1.86,0,0,1-.51.25,1.93,1.93,0,0,1-.67.1,2,2,0,0,1-1.51-.61,2.42,2.42,0,0,1-.58-1.74v-4h1.31v3.8c0,1,.43,1.47,1.28,1.47a2.07,2.07,0,0,0,.5-.06,1.54,1.54,0,0,0,.43-.2.94.94,0,0,0,.3-.33.9.9,0,0,0,.12-.48v-4.2h1.31v6.2h-1.31Z"/><path class="cls-3" d="M869.35,202.83H871v-4.06h-1.64V197.7h2.95v1.65h.07a3.41,3.41,0,0,1,.24-.63,2.06,2.06,0,0,1,.4-.52,1.73,1.73,0,0,1,.59-.36,2.21,2.21,0,0,1,.81-.14h.74V199h-1.22a1.61,1.61,0,0,0-1.17.43,1.46,1.46,0,0,0-.46,1.14v2.31h2.24v1.07h-5.19Z"/><path class="cls-3" d="M876.64,203.9v-6.2H878v1.06H878a2.3,2.3,0,0,1,.25-.46,1.67,1.67,0,0,1,.36-.39,1.86,1.86,0,0,1,.51-.25,1.93,1.93,0,0,1,.67-.1,2,2,0,0,1,1.51.61,2.47,2.47,0,0,1,.58,1.74v4h-1.31v-3.8c0-1-.43-1.47-1.28-1.47a2.07,2.07,0,0,0-.5.06,1.54,1.54,0,0,0-.43.2,1,1,0,0,0-.31.34,1,1,0,0,0-.11.47v4.2Z"/><path class="cls-3" d="M890.94,202.83h2v-6.75h-2V195h3.36v7.81h2.05v1.07h-5.41Z"/><path class="cls-3" d="M901,204a3.38,3.38,0,0,1-1.27-.23,2.48,2.48,0,0,1-1-.65,2.81,2.81,0,0,1-.59-1,4.48,4.48,0,0,1,0-2.68,3.13,3.13,0,0,1,.58-1,2.61,2.61,0,0,1,.92-.65,3.09,3.09,0,0,1,1.2-.23,3,3,0,0,1,1.18.22,2.61,2.61,0,0,1,.9.63,2.77,2.77,0,0,1,.57,1,3.85,3.85,0,0,1,.2,1.25v.49h-4.44v.21a1.61,1.61,0,0,0,.45,1.18A1.7,1.7,0,0,0,901,203a2,2,0,0,0,1-.25,2.17,2.17,0,0,0,.69-.69l.81.72a2.48,2.48,0,0,1-.95.92A3.13,3.13,0,0,1,901,204Zm-.1-5.48a1.69,1.69,0,0,0-.64.12,1.35,1.35,0,0,0-.5.34,1.65,1.65,0,0,0-.33.52,1.76,1.76,0,0,0-.12.66v.08h3.1v-.12A1.64,1.64,0,0,0,902,199,1.45,1.45,0,0,0,900.87,198.56Z"/><path class="cls-3" d="M905.37,202.83h2v-4.06h-2.1V197.7h2.1v-1.11a1.66,1.66,0,0,1,.39-1.14,1.5,1.5,0,0,1,1.2-.43H911v1.06h-2.36v1.62H911v1.07h-2.36v4.06h2.09v1.07h-5.38Z"/><path class="cls-3" d="M915.61,203.9a1.51,1.51,0,0,1-1.2-.44,1.63,1.63,0,0,1-.39-1.13v-3.56h-1.9V197.7h1.35a.7.7,0,0,0,.49-.13.68.68,0,0,0,.15-.5v-1.55h1.22v2.18H918v1.07h-2.64v4.06H918v1.07Z"/><path class="cls-3" d="M857.51,238.57v7.25h-1.34v-7.25h-2.63v-1.12h6.6v1.12Z"/><path class="cls-3" d="M865.32,244.77h-.06a2.25,2.25,0,0,1-.24.46,1.67,1.67,0,0,1-.37.38,1.58,1.58,0,0,1-.5.26,2.33,2.33,0,0,1-.68.09,2,2,0,0,1-1.51-.61,2.43,2.43,0,0,1-.57-1.74v-4h1.3v3.79c0,1,.43,1.48,1.29,1.48a1.61,1.61,0,0,0,.49-.07,1.3,1.3,0,0,0,.43-.2.9.9,0,0,0,.42-.8v-4.2h1.31v6.19h-1.31Z"/><path class="cls-3" d="M868.55,244.75h1.64V240.7h-1.64v-1.07h3v1.64h.07a3.61,3.61,0,0,1,.24-.62,2.06,2.06,0,0,1,.4-.52,1.83,1.83,0,0,1,.59-.36,2.21,2.21,0,0,1,.81-.14h.75v1.25h-1.23a1.65,1.65,0,0,0-1.17.42,1.47,1.47,0,0,0-.46,1.14v2.31h2.25v1.07h-5.2Z"/><path class="cls-3" d="M875.85,245.82v-6.19h1.3v1.06h.06a3,3,0,0,1,.25-.47,1.66,1.66,0,0,1,.37-.38,1.82,1.82,0,0,1,.5-.26,2.26,2.26,0,0,1,.67-.09,2,2,0,0,1,1.51.61,2.39,2.39,0,0,1,.58,1.74v4h-1.31V242c0-1-.43-1.48-1.28-1.48a2,2,0,0,0-.49.07,1.35,1.35,0,0,0-.44.2,1,1,0,0,0-.3.33.94.94,0,0,0-.12.47v4.2Z"/><path class="cls-3" d="M890.15,244.75h1.64V240.7h-1.64v-1.07h3v1.64h.07a3.61,3.61,0,0,1,.24-.62,2.06,2.06,0,0,1,.4-.52,1.83,1.83,0,0,1,.59-.36,2.21,2.21,0,0,1,.81-.14H896v1.25h-1.23a1.65,1.65,0,0,0-1.17.42,1.47,1.47,0,0,0-.46,1.14v2.31h2.25v1.07h-5.2Z"/><path class="cls-3" d="M897.65,244.75h2.11V240.7h-2.11v-1.07h3.42v5.12h2v1.07h-5.4Zm2.77-6.25a1,1,0,0,1-.7-.2.73.73,0,0,1-.2-.51v-.25a.69.69,0,0,1,.2-.5.92.92,0,0,1,.69-.21.93.93,0,0,1,.7.21.69.69,0,0,1,.2.5v.25a.73.73,0,0,1-.2.51A1,1,0,0,1,900.42,238.5Z"/><path class="cls-3" d="M910.48,246.49a1.53,1.53,0,0,1-.8,1.42,5.19,5.19,0,0,1-2.45.46,7.2,7.2,0,0,1-1.35-.11A2.66,2.66,0,0,1,905,248a1.17,1.17,0,0,1-.49-.47,1.26,1.26,0,0,1-.15-.62,1.06,1.06,0,0,1,.28-.79,1.68,1.68,0,0,1,.8-.41v-.12a1.14,1.14,0,0,1-.5-.34.84.84,0,0,1-.19-.56.79.79,0,0,1,.32-.69,2,2,0,0,1,.8-.36v-.06a2,2,0,0,1-.88-.74,2,2,0,0,1-.31-1.15,2.19,2.19,0,0,1,.18-.9,2,2,0,0,1,.51-.68,2.52,2.52,0,0,1,.79-.44,3.39,3.39,0,0,1,1-.15,3,3,0,0,1,1.16.2v-.2a.88.88,0,0,1,.21-.6.76.76,0,0,1,.62-.24h1.13v1h-1.44V240a2,2,0,0,1,.63.71,2.19,2.19,0,0,1,.21,1,2.14,2.14,0,0,1-.18.89,1.94,1.94,0,0,1-.51.69,2.4,2.4,0,0,1-.79.43,3.39,3.39,0,0,1-1,.15,4.69,4.69,0,0,1-.77-.07,1.5,1.5,0,0,0-.43.2.46.46,0,0,0-.22.4.35.35,0,0,0,.28.36,3.16,3.16,0,0,0,.68.07h1.4a2.79,2.79,0,0,1,1.8.47A1.55,1.55,0,0,1,910.48,246.49Zm-1.22.08a.59.59,0,0,0-.26-.5,1.54,1.54,0,0,0-.91-.19h-2.15a.73.73,0,0,0-.45.7.79.79,0,0,0,.29.61,1.5,1.5,0,0,0,1,.25h1a2.28,2.28,0,0,0,1.13-.22A.71.71,0,0,0,909.26,246.57Zm-2.07-3.65a1.29,1.29,0,0,0,.94-.3,1.09,1.09,0,0,0,.3-.81v-.32a1.07,1.07,0,0,0-.3-.8,1.29,1.29,0,0,0-.94-.3,1.25,1.25,0,0,0-.93.3,1.07,1.07,0,0,0-.3.8v.32a1.09,1.09,0,0,0,.3.81A1.25,1.25,0,0,0,907.19,242.92Z"/><path class="cls-3" d="M911.85,236.94h1.31v3.75h.06a2.32,2.32,0,0,1,.24-.47,1.66,1.66,0,0,1,.37-.38,1.82,1.82,0,0,1,.5-.26,2.26,2.26,0,0,1,.67-.09,2,2,0,0,1,1.52.61,2.43,2.43,0,0,1,.57,1.74v4h-1.31V242c0-1-.43-1.48-1.28-1.48a2,2,0,0,0-.49.07,1.22,1.22,0,0,0-.43.2,1.08,1.08,0,0,0-.31.33.93.93,0,0,0-.11.47v4.2h-1.31Z"/><path class="cls-3" d="M922,245.82a1.5,1.5,0,0,1-1.2-.44,1.66,1.66,0,0,1-.38-1.13V240.7h-1.91v-1.07h1.36a.53.53,0,0,0,.63-.64v-1.54h1.23v2.18h2.64v1.07h-2.64v4.05h2.64v1.07Z"/><path class="cls-3" d="M854.69,285.25v-8.38h3.13a2.42,2.42,0,0,1,1.83.67,3,3,0,0,1,0,3.69,2.38,2.38,0,0,1-1.83.67H856v3.35ZM856,280.8h1.59c.83,0,1.25-.39,1.25-1.16v-.52c0-.76-.42-1.14-1.25-1.14H856Z"/><path class="cls-3" d="M862.1,284.18h2.11v-4.06H862.1v-1.06h3.42v5.12h2v1.07h-5.4Zm2.77-6.25a.93.93,0,0,1-.7-.21.65.65,0,0,1-.2-.5V277a.69.69,0,0,1,.2-.51,1,1,0,0,1,.68-.2,1,1,0,0,1,.71.2.73.73,0,0,1,.2.51v.25a.69.69,0,0,1-.2.5A.93.93,0,0,1,864.87,277.93Z"/><path class="cls-3" d="M872.06,285.25a1.51,1.51,0,0,1-1.2-.44,1.63,1.63,0,0,1-.39-1.13v-3.56h-1.91v-1.06h1.36a.7.7,0,0,0,.49-.14.66.66,0,0,0,.15-.5v-1.55h1.22v2.19h2.64v1.06h-2.64v4.06h2.64v1.07Z"/><path class="cls-3" d="M879.11,285.39a3,3,0,0,1-1.24-.23,2.5,2.5,0,0,1-.92-.64,2.69,2.69,0,0,1-.58-1,4.62,4.62,0,0,1,0-2.69,2.69,2.69,0,0,1,.58-1,2.52,2.52,0,0,1,.92-.65,3.17,3.17,0,0,1,1.23-.23,2.65,2.65,0,0,1,1.54.41,2.38,2.38,0,0,1,.87,1l-1,.56a1.49,1.49,0,0,0-.51-.69,1.43,1.43,0,0,0-.88-.25,1.46,1.46,0,0,0-1.15.45,1.73,1.73,0,0,0-.41,1.2v1a1.76,1.76,0,0,0,.41,1.2,1.49,1.49,0,0,0,1.17.45,1.57,1.57,0,0,0,1-.26,2,2,0,0,0,.58-.72l1,.59a2.56,2.56,0,0,1-.91,1.05A2.76,2.76,0,0,1,879.11,285.39Z"/><path class="cls-3" d="M883.49,276.37h1.31v3.74h.06a2.3,2.3,0,0,1,.25-.46,1.45,1.45,0,0,1,.36-.38A1.64,1.64,0,0,1,886,279a1.93,1.93,0,0,1,.67-.1,2,2,0,0,1,1.51.61,2.47,2.47,0,0,1,.58,1.74v4h-1.31v-3.79c0-1-.43-1.48-1.29-1.48a1.66,1.66,0,0,0-.49.07,1.52,1.52,0,0,0-.43.19.94.94,0,0,0-.42.81v4.2h-1.31Z"/><path class="cls-3" d="M901.77,284.19h-.06a2.55,2.55,0,0,1-.25.46,1.67,1.67,0,0,1-.36.39,2,2,0,0,1-.51.26,2.22,2.22,0,0,1-.67.09,2,2,0,0,1-1.51-.61,2.42,2.42,0,0,1-.58-1.74v-4h1.31v3.79c0,1,.43,1.47,1.28,1.47a2.07,2.07,0,0,0,.5-.06,1.54,1.54,0,0,0,.43-.2.94.94,0,0,0,.3-.33.89.89,0,0,0,.12-.47v-4.2h1.31v6.19h-1.31Z"/><path class="cls-3" d="M905,279.06h1.31v1.05h.07a2.36,2.36,0,0,1,.73-.88,2,2,0,0,1,1.14-.32,2.09,2.09,0,0,1,1.74.82,3.78,3.78,0,0,1,.65,2.42,3.83,3.83,0,0,1-.65,2.43,2.11,2.11,0,0,1-1.74.81,1.91,1.91,0,0,1-1.14-.32,2.29,2.29,0,0,1-.73-.88h-.07v3.46H905Zm2.71,5.26a1.46,1.46,0,0,0,1.15-.45,1.77,1.77,0,0,0,.4-1.21v-1a1.73,1.73,0,0,0-.4-1.21,1.44,1.44,0,0,0-1.15-.46,1.9,1.9,0,0,0-.54.07,1.4,1.4,0,0,0-.44.22,1,1,0,0,0-.31.35,1.12,1.12,0,0,0-.11.5v2.06a1.09,1.09,0,0,0,.11.5,1.19,1.19,0,0,0,.31.36,1.63,1.63,0,0,0,.44.21A1.9,1.9,0,0,0,907.74,284.32Z"/><path class="cls-3" d="M855.69,326.25v-8.38h3.13a2.42,2.42,0,0,1,1.83.67,3,3,0,0,1,0,3.69,2.38,2.38,0,0,1-1.83.67H857v3.35ZM857,321.8h1.59c.83,0,1.25-.39,1.25-1.16v-.52c0-.76-.42-1.14-1.25-1.14H857Z"/><path class="cls-3" d="M863.1,325.18h2.11v-4.06H863.1v-1.06h3.42v5.12h2v1.07h-5.4Zm2.77-6.25a.93.93,0,0,1-.7-.21.65.65,0,0,1-.2-.5V318a.69.69,0,0,1,.2-.51,1,1,0,0,1,.68-.2,1,1,0,0,1,.71.2.73.73,0,0,1,.2.51v.25a.69.69,0,0,1-.2.5A.93.93,0,0,1,865.87,318.93Z"/><path class="cls-3" d="M873.06,326.25a1.51,1.51,0,0,1-1.2-.44,1.63,1.63,0,0,1-.39-1.13v-3.56h-1.91v-1.06h1.36a.7.7,0,0,0,.49-.14.66.66,0,0,0,.15-.5v-1.55h1.22v2.19h2.64v1.06h-2.64v4.06h2.64v1.07Z"/><path class="cls-3" d="M880.11,326.39a3,3,0,0,1-1.24-.23,2.5,2.5,0,0,1-.92-.64,2.69,2.69,0,0,1-.58-1,4.62,4.62,0,0,1,0-2.69,2.69,2.69,0,0,1,.58-1,2.52,2.52,0,0,1,.92-.65,3.17,3.17,0,0,1,1.23-.23,2.65,2.65,0,0,1,1.54.41,2.38,2.38,0,0,1,.87,1l-1,.56a1.49,1.49,0,0,0-.51-.69,1.43,1.43,0,0,0-.88-.25,1.46,1.46,0,0,0-1.15.45,1.73,1.73,0,0,0-.41,1.2v1a1.76,1.76,0,0,0,.41,1.2,1.49,1.49,0,0,0,1.17.45,1.57,1.57,0,0,0,1-.26,2,2,0,0,0,.58-.72l1,.59a2.56,2.56,0,0,1-.91,1.05A2.76,2.76,0,0,1,880.11,326.39Z"/><path class="cls-3" d="M884.49,317.37h1.31v3.74h.06a2.3,2.3,0,0,1,.25-.46,1.45,1.45,0,0,1,.36-.38A1.64,1.64,0,0,1,887,320a1.93,1.93,0,0,1,.67-.1,2,2,0,0,1,1.51.61,2.47,2.47,0,0,1,.58,1.74v4h-1.31v-3.79c0-1-.43-1.48-1.29-1.48a1.66,1.66,0,0,0-.49.07,1.52,1.52,0,0,0-.43.19.94.94,0,0,0-.42.81v4.2h-1.31Z"/><path class="cls-3" d="M902.83,325.19h-.07a2.22,2.22,0,0,1-.74.88,1.87,1.87,0,0,1-1.14.32,2.13,2.13,0,0,1-1.74-.81,3.89,3.89,0,0,1-.64-2.43,3.84,3.84,0,0,1,.64-2.42,2.11,2.11,0,0,1,1.74-.82,1.94,1.94,0,0,1,1.14.32,2.3,2.3,0,0,1,.74.88h.07v-3.74h1.31v8.88h-1.31Zm-1.41.13a1.81,1.81,0,0,0,.54-.07,1.55,1.55,0,0,0,.45-.21,1,1,0,0,0,.3-.36,1,1,0,0,0,.12-.5v-2.06a1,1,0,0,0-.12-.5.92.92,0,0,0-.3-.35,1.35,1.35,0,0,0-.45-.22,1.81,1.81,0,0,0-.54-.07,1.43,1.43,0,0,0-1.14.46,1.73,1.73,0,0,0-.4,1.21v1a1.77,1.77,0,0,0,.4,1.21A1.45,1.45,0,0,0,901.42,325.32Z"/><path class="cls-3" d="M908.68,326.39a3.06,3.06,0,0,1-1.23-.23,2.5,2.5,0,0,1-.92-.64,2.83,2.83,0,0,1-.58-1,4.41,4.41,0,0,1,0-2.69,2.83,2.83,0,0,1,.58-1,2.52,2.52,0,0,1,.92-.65,3.25,3.25,0,0,1,1.23-.23,3.17,3.17,0,0,1,1.23.23,2.48,2.48,0,0,1,.93.65,3,3,0,0,1,.58,1,4.62,4.62,0,0,1,0,2.69,3,3,0,0,1-.58,1,2.46,2.46,0,0,1-.93.64A3,3,0,0,1,908.68,326.39Zm0-1a1.54,1.54,0,0,0,1.15-.44,1.8,1.8,0,0,0,.43-1.3v-.94a1.82,1.82,0,0,0-.43-1.3,1.54,1.54,0,0,0-1.15-.44,1.51,1.51,0,0,0-1.14.44,1.77,1.77,0,0,0-.43,1.3v.94a1.76,1.76,0,0,0,.43,1.3A1.51,1.51,0,0,0,908.68,325.36Z"/><path class="cls-3" d="M912.52,320.06h1.12l.6,5.2h.11l.92-5.2h1.27l.92,5.2h.1l.62-5.2h1.06l-.86,6.19h-1.61l-.83-4.8h-.1l-.84,4.8h-1.61Z"/><path class="cls-3" d="M920.49,326.25v-6.19h1.31v1.05h.06a2.3,2.3,0,0,1,.25-.46,1.45,1.45,0,0,1,.36-.38A1.64,1.64,0,0,1,923,320a1.93,1.93,0,0,1,.67-.1,2,2,0,0,1,1.51.61,2.47,2.47,0,0,1,.58,1.74v4h-1.31v-3.79c0-1-.43-1.48-1.29-1.48a1.66,1.66,0,0,0-.49.07,1.52,1.52,0,0,0-.43.19.94.94,0,0,0-.42.81v4.2Z"/><path class="cls-3" d="M855.72,369.25v-8.38H861V362h-3.9v2.44h3.75v1.12h-3.75v2.56H861v1.13Z"/><path class="cls-3" d="M865.85,369.25a1.5,1.5,0,0,1-1.19-.44,1.63,1.63,0,0,1-.39-1.13v-3.56h-1.91v-1.06h1.36a.7.7,0,0,0,.49-.14.67.67,0,0,0,.14-.5v-1.55h1.23v2.19h2.64v1.06h-2.64v4.06h2.64v1.07Z"/><path class="cls-3" d="M872.91,369.39a3,3,0,0,1-1.24-.23,2.5,2.5,0,0,1-.92-.64,2.69,2.69,0,0,1-.58-1,4.62,4.62,0,0,1,0-2.69,2.69,2.69,0,0,1,.58-1,2.52,2.52,0,0,1,.92-.65,3.17,3.17,0,0,1,1.23-.23,2.65,2.65,0,0,1,1.54.41,2.38,2.38,0,0,1,.87,1l-1,.56a1.49,1.49,0,0,0-.51-.69,1.43,1.43,0,0,0-.88-.25,1.46,1.46,0,0,0-1.15.45,1.68,1.68,0,0,0-.41,1.2v1a1.72,1.72,0,0,0,.41,1.2,1.49,1.49,0,0,0,1.17.45,1.57,1.57,0,0,0,1-.26,2,2,0,0,0,.58-.72l1,.59a2.56,2.56,0,0,1-.91,1.05A2.76,2.76,0,0,1,872.91,369.39Z"/><path class="cls-3" d="M879.88,369.37a1.12,1.12,0,0,1-.81-.24.84.84,0,0,1-.23-.59v-.31a.84.84,0,0,1,.23-.59,1.12,1.12,0,0,1,.81-.24,1.09,1.09,0,0,1,.81.24.81.81,0,0,1,.24.59v.31a.81.81,0,0,1-.24.59A1.09,1.09,0,0,1,879.88,369.37Z"/><path class="cls-3" d="M887.08,369.37a1.12,1.12,0,0,1-.81-.24.84.84,0,0,1-.23-.59v-.31a.84.84,0,0,1,.23-.59,1.12,1.12,0,0,1,.81-.24,1.09,1.09,0,0,1,.81.24.81.81,0,0,1,.24.59v.31a.81.81,0,0,1-.24.59A1.09,1.09,0,0,1,887.08,369.37Z"/><path class="cls-3" d="M894.28,369.37a1.12,1.12,0,0,1-.81-.24.84.84,0,0,1-.23-.59v-.31a.84.84,0,0,1,.23-.59,1.12,1.12,0,0,1,.81-.24,1.09,1.09,0,0,1,.81.24.81.81,0,0,1,.24.59v.31a.81.81,0,0,1-.24.59A1.09,1.09,0,0,1,894.28,369.37Z"/><path class="cls-2" d="M1148.12,334.31l3,2.42h4.92l-4.35-3.37a1.61,1.61,0,0,1-.29-.24,1.35,1.35,0,0,1,0-1.58,1.38,1.38,0,0,1,.44-.3q11.55-5.72,23-12.28a16.55,16.55,0,0,1,6.53-2c1.93-.21,3.86-.26,5.79-.44a14.49,14.49,0,0,0,1.89-.47,5.67,5.67,0,0,1,.57-.1l0,.12-.8,1.32c-.63,1-1.27,2.1-1.91,3.14a24.48,24.48,0,0,0-3.21,9.06q-.6,3.58-1.18,7.18h1.24q.56-3.21,1.1-6.42a20.82,20.82,0,0,1,2.4-7c1.35-2.37,2.75-4.63,4.11-7a2.8,2.8,0,0,1,1.82-1.51c3.86-.84,7.73-1.72,11.59-2.6.51-.11,1-.26,1.53-.39a.59.59,0,0,1,.32,0c.41.12.55.79.29,1.38l-4.2,9.72c-.41,1-.82,1.93-1.24,2.9a5.56,5.56,0,0,1-1.25,1.89q-4.8,4.49-9.6,9H1194c2.06-1.89,4.12-3.81,6.16-5.78a14.17,14.17,0,0,0,3-4.71c1.3-3.05,2.63-6.05,3.94-9.08.32-.74.61-1.52.92-2.28.46-1.12.81-1.28,1.42-.42,1,1.38,1.93,2.83,2.89,4.27,2,3.06,4.07,6.14,6.11,9.21.17.26.35.5.53.75a.81.81,0,0,1,.11.78,5,5,0,0,1-.47,1.14c-.17.26-.45.5-.65.43a3.39,3.39,0,0,0-3.24.62,53.88,53.88,0,0,0-6.43,5.07h3.59a21.75,21.75,0,0,0,2.89-2.4,3.52,3.52,0,0,1,1.38-.83,2.44,2.44,0,0,1,2.06.26,3.41,3.41,0,0,1,.8.93c.45.62.88,1.28,1.32,1.93l0,0,.07.09h10.3c.29-.08.57-.17.86-.24a1.68,1.68,0,0,1,1,.09,1,1,0,0,1,.24.15h2.2c0-1.8,0-3.6.12-5.4a101.61,101.61,0,0,0,.07-10.9,60.74,60.74,0,0,0-.84-7.35c-.36-1.93-.89-2.41-2-1.77-.61.36-1.21.8-1.81,1.22a12.16,12.16,0,0,0-3.93,4.5,8.09,8.09,0,0,1-.69,1c0-1.41-.1-2.66-.15-3.91a12.52,12.52,0,0,0-.68-4.28q-3-7.2-6-14.42c-.54-1.3-1.25-1.91-2.15-1.9-2.29,0-4.58.05-6.88,0a6.16,6.16,0,0,0-4.1,1.45l-1.29,1-5.91,4.66c-.36.28-.72.44-1.1.1-1.06-.94-2.12-1.86-3.17-2.85a3,3,0,0,0-2.3-1c-2.56.31-5.13.64-7.68,1-2.79.41-5.58.9-8.37,1.33a4.81,4.81,0,0,0-3.5,2.56c-.88,1.49-1.71,3.11-2.52,4.74s-1.46,1.93-2.53,1.2a2,2,0,0,0-2.7.21,10.06,10.06,0,0,0-1.32,1.48c-1.51,2.05-3,4.13-4.49,6.24-3.81,5.39-7.6,10.81-11.82,15.14a2.19,2.19,0,0,0-.17,2.46A4.1,4.1,0,0,0,1148.12,334.31Zm79.91-14.6c.45-.66.87-1.38,1.3-2.07a3.4,3.4,0,0,1,2.2-1.71c.65-.14,1,.31,1.36,1.36.2.67.42,1.32.63,2a8.48,8.48,0,0,1,.41,2.68c-.33,2.3-.09,4.86-.19,7.38-.08,1.9-.6,2.94-1.63,3.32-2.45.91-4.9,1.79-7.34,2.73-1.27.49-2.4,0-3.44-1.31a16.44,16.44,0,0,1-1.06-1.6,1,1,0,0,1,0-1.25Q1224.17,325.47,1228,319.71Zm-10.47-21.64c.34-.58.56-.53.84.16l4.77,11.8a20.34,20.34,0,0,1,1.26,6.61c0,.78.06,1.56.09,2.59a5.12,5.12,0,0,1-.44,1.9,8.55,8.55,0,0,1-.58,1.13c-.94,1.57-1.89,3.12-2.83,4.69-.48.8-.75.83-1.2,0-2.78-5.19-5.73-10.07-8.72-14.86a5.25,5.25,0,0,1-.29-.53,3.17,3.17,0,0,1,0-2.83,8,8,0,0,1,.7-1.13c1.81-2.64,3.63-5.27,5.44-7.92C1217,299.18,1217.24,298.6,1217.56,298.07Zm-16.49,7.34a33.63,33.63,0,0,1,5.28-6.83c.66-.66,1.27-1.49,1.91-2.2a.83.83,0,0,1,.59-.34c2.45.22,4.89.48,7.36.73l-.82,1.2c-1.56,2.28-3.13,4.54-4.68,6.84a15.91,15.91,0,0,0-1.15,2,4.35,4.35,0,0,1-3.22,2.7c-2.79.53-5.58,1.09-8.38,1.64a.85.85,0,0,1-.32,0c-.27,0-.46-.29-.51-.8a.75.75,0,0,1,.38-.81A12.42,12.42,0,0,0,1201.07,305.41Zm-30.26,3.71c.17-.35.36-.66.55-1,1-1.78,2-3.57,3.05-5.36a1.14,1.14,0,0,1,.92-.7,59.09,59.09,0,0,0,9.66-1.35c2-.38,4.08-.67,6.12-1,.51-.08,1-.19,1.54-.23a1.15,1.15,0,0,1,.77.21c1.29,1,2.57,2.13,3.85,3.21a.49.49,0,0,1,.13.12,2.06,2.06,0,0,1,0,2.6c-.58.57-1.17,1.09-1.75,1.63-2.17,2-4.33,4-6.5,6a1.38,1.38,0,0,1-.73.37c-3.24.36-6.48.7-9.73,1.05h-.52a4.59,4.59,0,0,1-3.18-1.2l-3.86-3.2a2.4,2.4,0,0,1-.24-.22A.76.76,0,0,1,1170.81,309.12Zm-17.1,17.77,10-13.4c.55-.73,1.12-1.42,1.67-2.15,1-1.28,2-1.49,3.12-.52,1.31,1.15,2.64,2.28,4,3.43a1.38,1.38,0,0,1,.51,1.18,1.46,1.46,0,0,1-.51,1.25c-.73.49-1.47.95-2.21,1.37q-8.17,4.59-16.36,9.14c-.18.1-.35.17-.53.26l0-.1Z"/><polyline class="cls-1" points="1203.36 297.67 1218.1 247.63 1218.1 293.49 1218.1 247.63 1256.76 325.74"/><polyline class="cls-1" points="1278.21 307.73 1218.1 247.63 1270.38 318.83"/><polyline class="cls-1" points="1232.47 311.31 1218.1 247.63 1243.12 322.82"/><polyline class="cls-1" points="1224.07 307.08 1218.1 247.63 1210.19 293.51"/><polyline class="cls-1" points="1263.12 320.82 1218.1 247.63 1273.29 311.23"/><path class="cls-2" d="M1040.27,278.93c-2-2.47-3.71-1.39-5.51-.13-2.56,1.8-2.58,1.76-.27,4.24.22.23.41.49.67.81-.93.75-1.66,1.5-2.86.11a2.1,2.1,0,0,0-1.9-.27,34.15,34.15,0,0,0-4.65,2.51,2.4,2.4,0,0,0-.9,1.62,5.82,5.82,0,0,0,1.5,4.62,3.37,3.37,0,0,0,2.09.93c1.54.1,3.07-.09,4.6-.11,1.18,0,1.94-.51,2-1.75.06-.83.48-1,1.19-1,1,0,2,0,3.11,0l-.59,5.66c2.41-.58,4.6-1.1,6.79-1.65a.67.67,0,0,0,.44-.44c.23-1.71,1.58-1.42,2.71-1.52.26,0,.52,0,.78-.05,1.75-.15,1.86-.32,1.29-2.16,2.14-.13,4.27-.23,6.38-.41a68.75,68.75,0,0,0,15.9-3.31c4.73-1.53,9.77-1.65,14.59-2.71,7-1.54,14.08-3,21-4.89,23.67-6.3,47.31-12.74,70.95-19.15,2.84-.77,5.63-1.68,8.45-2.52.28-.09.57-.12,1-.22.68,2.11,1.41,4.16,2,6.25.36,1.25.9,1.85,2.18,1.52,3.72-1,7.46-1.87,11.18-2.81,1-.26,1.19-1,.84-2-.59-1.72-1.13-3.45-1.69-5.18s-.32-2.45,1.23-3.07c3.75-1.52,7.53-3,11.32-4.41a1.23,1.23,0,0,1,.93.18c1.15.66,1.54.48,1.92-.68a2.58,2.58,0,0,1,1.07-1.28,48.1,48.1,0,0,0,5-2.92,14,14,0,0,0,3.52-4.05c1.49-2.68.47-5.76-2.26-7.53a13.08,13.08,0,0,0-9.17-1.72,111.25,111.25,0,0,0-13.66,2.61q-70.23,19.09-140.4,38.37a64.59,64.59,0,0,0-14.14,5.63c-.56.3-1,.74-1.73,0a1.27,1.27,0,0,0-1.11-.15c-1.59.54-3.17,1.11-4.71,1.77C1041,277.83,1040.75,278.37,1040.27,278.93Zm7.14-1.05c.39-.19.7-.32,1-.49a68.28,68.28,0,0,1,15.65-6.33q66.81-18.31,133.63-36.56c5.63-1.53,11.37-2.72,17.1-3.91a17.48,17.48,0,0,1,9.17.41c4.41,1.45,5.67,5.36,2.91,8.86-1.71,2.17-4.08,3.39-6.46,4.58-1.13.57-2.45.92-2.41,2.68-1.19-1-1.18-.93-2.37-.5-6.31,2.32-12.55,4.83-19,6.9-9,2.91-18.11,5.5-27.18,8.2a3.27,3.27,0,0,1-1.36,0c-.44-.06-.93-.46-1.29-.36q-14.11,3.81-28.18,7.69c-.31.09-.81.32-.79.48.08,1-.66.92-1.2,1.07-6.39,1.73-12.76,3.52-19.18,5.16q-13.21,3.38-26.49,6.56c-2.82.67-5.73,1-8.59,1.54a1.35,1.35,0,0,1,.8-.74c10.42-3.64,20.75-7.55,31.3-10.84,14.68-4.59,29.53-8.69,44.29-13q20.65-6.07,41.28-12.24c2.25-.66,4.47-1.41,6.71-2.11a5.8,5.8,0,0,0-2.37.3q-18.14,5.24-36.27,10.47c-17.36,5-34.74,10-52,15.19-8.28,2.49-16.43,5.33-24.58,8.17-4.68,1.63-9.16,3.8-13.89,5.3-8.86,2.79-17.88,5.13-27.46,5.07a4.19,4.19,0,0,0-1,.2l.88,1.89-3.44.21c.66-3,3.07-3.57,5.28-4.51a4.22,4.22,0,0,0-2.09-.42c-2.71.21-5.4.5-8.1.67-1.31.08-2.52.12-2.19,2-1.45,0-2.76.11-4.06.1-.85,0-1.31.28-1.26,1.25s-.43,1.52-1.5,1.48c-1.23-.05-2.46.07-3.68.12-1.75.08-2.16-.17-2.84-1.9a9.42,9.42,0,0,1-.51-1.87,1.65,1.65,0,0,1,.91-2c1.31-.65,2.54-1.45,3.87-2.06.4-.18,1.31-.11,1.48.17,1,1.59,2,1,3,.34.51-.35,1.07-.7,1.56.14.66,1.12,1.45,1,2.36.57.49-.26,1.05-.39,1.55-.64,2.24-1.08,4.49-2.16,6.69-3.32.34-.18.47-.76.7-1.15a6.18,6.18,0,0,0-1.32-.48c-1.36-.16-2.72-.21-4.08-.4a1.22,1.22,0,0,1-.82-.68,1.1,1.1,0,0,1,.57-.88c1-.5,2.14-.89,3.21-1.35C1046.25,276.6,1047,276.55,1047.41,277.88ZM1202,252.8c.82,2.52,1.56,4.86,2.33,7.18.21.64.3,1.08-.44,1.38A35.53,35.53,0,0,1,1193.1,264a1.31,1.31,0,0,1-1-.51c-.77-2.18-1.45-4.38-2.2-6.68Zm-168.42,27.93c1.1-.72,2.15-1.35,3.14-2.07a1.44,1.44,0,0,1,2,.15,9.09,9.09,0,0,0,6,2.39l1.26.06c0,.12,0,.2,0,.21-2.63,1.22-5.25,2.45-7.9,3.64a.91.91,0,0,1-.81-.24C1036.08,283.56,1034.9,282.21,1033.58,280.73Zm14.12,7.13a8.07,8.07,0,0,0-2.15,4.64,1.88,1.88,0,0,1-.93,1.38c-1.49.47-3.06.72-4.84,1.11.26-2.19.46-4.09.73-6,0-.23.44-.5.71-.53C1043.37,288.24,1045.54,288.06,1047.7,287.86Zm104.91-21.92.07.26-2.89.79-.08-.25Zm-6.56,2.08-.06-.22,2.86-.78.06.22Zm10.2-3.11.08.26-2.89.79-.07-.26Zm1,.07-.09-.26,2.89-.79.08.26Z"/><path class="cls-3" d="M990.51,226.52a4.45,4.45,0,0,1-4-1.88,11.7,11.7,0,0,1,0-10.68,4.47,4.47,0,0,1,4-1.88,5.23,5.23,0,0,1,1.77.27,4.05,4.05,0,0,1,1.29.73,4.42,4.42,0,0,1,.91,1.1,6.53,6.53,0,0,1,.61,1.34l-2,.68a9.37,9.37,0,0,0-.36-.9,2.5,2.5,0,0,0-.5-.72,2.34,2.34,0,0,0-.71-.48,2.5,2.5,0,0,0-1-.18,2.32,2.32,0,0,0-2.16,1.14,5.93,5.93,0,0,0-.68,3.06v2.37a6,6,0,0,0,.68,3.06,2.31,2.31,0,0,0,2.16,1.13,2.5,2.5,0,0,0,1-.18,2.34,2.34,0,0,0,.71-.48,2.5,2.5,0,0,0,.5-.72,9.37,9.37,0,0,0,.36-.9l2,.68a6.87,6.87,0,0,1-.61,1.35,4.6,4.6,0,0,1-.91,1.1,4.25,4.25,0,0,1-1.29.73A5.24,5.24,0,0,1,990.51,226.52Z"/><path class="cls-3" d="M1002.11,226.52a5.17,5.17,0,0,1-2.05-.38,4.13,4.13,0,0,1-1.54-1.08,4.79,4.79,0,0,1-1-1.7,6.8,6.8,0,0,1-.34-2.24,6.88,6.88,0,0,1,.34-2.24,5,5,0,0,1,1-1.7,4.37,4.37,0,0,1,1.54-1.08,5.72,5.72,0,0,1,4.1,0,4.37,4.37,0,0,1,1.54,1.08,5,5,0,0,1,1,1.7,6.88,6.88,0,0,1,.34,2.24,6.8,6.8,0,0,1-.34,2.24,4.79,4.79,0,0,1-1,1.7,4.13,4.13,0,0,1-1.54,1.08A5.17,5.17,0,0,1,1002.11,226.52Zm0-1.72a2.52,2.52,0,0,0,1.91-.73,3,3,0,0,0,.71-2.17v-1.56a3,3,0,0,0-.71-2.17,2.86,2.86,0,0,0-3.82,0,3,3,0,0,0-.71,2.17v1.56a3,3,0,0,0,.71,2.17A2.52,2.52,0,0,0,1002.11,224.8Z"/><path class="cls-3" d="M1009.63,224.5h2.74v-6.76h-2.74V216h4.92v2.74h.12a5.07,5.07,0,0,1,.4-1,3.13,3.13,0,0,1,.66-.87,3.38,3.38,0,0,1,1-.6,3.76,3.76,0,0,1,1.36-.23h1.24V218h-2a2.78,2.78,0,0,0-2,.71,2.47,2.47,0,0,0-.76,1.91v3.84h3.74v1.78h-8.66Z"/><path class="cls-3" d="M1021.63,224.5h2.74v-6.76h-2.74V216h4.92v2.74h.12a5.07,5.07,0,0,1,.4-1,3.13,3.13,0,0,1,.66-.87,3.38,3.38,0,0,1,1-.6,3.76,3.76,0,0,1,1.36-.23h1.24V218h-2a2.78,2.78,0,0,0-2,.71,2.47,2.47,0,0,0-.76,1.91v3.84h3.74v1.78h-8.66Z"/><path class="cls-3" d="M1038.33,226.52a5.49,5.49,0,0,1-2.12-.38,4.2,4.2,0,0,1-1.58-1.08,4.7,4.7,0,0,1-1-1.69,6.74,6.74,0,0,1-.34-2.23,6.88,6.88,0,0,1,.35-2.24,5.14,5.14,0,0,1,1-1.71,4.32,4.32,0,0,1,1.53-1.09,5.41,5.41,0,0,1,4,0,4.23,4.23,0,0,1,1.5,1,4.85,4.85,0,0,1,.95,1.62,6.26,6.26,0,0,1,.33,2.08v.82h-7.4V222a2.68,2.68,0,0,0,.76,2,2.84,2.84,0,0,0,2.1.76,3.28,3.28,0,0,0,1.71-.42,3.42,3.42,0,0,0,1.15-1.15l1.36,1.21a4.24,4.24,0,0,1-1.59,1.52A5.17,5.17,0,0,1,1038.33,226.52Zm-.16-9.14a2.87,2.87,0,0,0-1.07.2,2.5,2.5,0,0,0-.84.57,2.8,2.8,0,0,0-.55.87,3,3,0,0,0-.2,1.1v.14h5.18v-.2a2.73,2.73,0,0,0-.69-1.95A2.42,2.42,0,0,0,1038.17,217.38Z"/><path class="cls-3" d="M1050.49,226.52a5.23,5.23,0,0,1-2.07-.38,4.13,4.13,0,0,1-1.54-1.08,4.63,4.63,0,0,1-1-1.7,7.08,7.08,0,0,1-.33-2.24,7.17,7.17,0,0,1,.33-2.24,4.8,4.8,0,0,1,1-1.7,4.37,4.37,0,0,1,1.54-1.08,5.35,5.35,0,0,1,2-.38,4.42,4.42,0,0,1,2.57.68,4.09,4.09,0,0,1,1.45,1.74l-1.7.92a2.53,2.53,0,0,0-.85-1.14,2.42,2.42,0,0,0-1.47-.42,2.46,2.46,0,0,0-1.92.76,2.89,2.89,0,0,0-.68,2V222a2.89,2.89,0,0,0,.68,2,2.48,2.48,0,0,0,2,.76,2.58,2.58,0,0,0,1.57-.44,3,3,0,0,0,1-1.2l1.6,1a4.17,4.17,0,0,1-1.52,1.76A4.62,4.62,0,0,1,1050.49,226.52Z"/><path class="cls-3" d="M1062.73,226.28a2.54,2.54,0,0,1-2-.72,2.76,2.76,0,0,1-.64-1.89v-5.93h-3.18V216h2.26a.88.88,0,0,0,1.06-1.06v-2.58h2V216h4.4v1.78h-4.4v6.76h4.4v1.78Z"/><path class="cls-3" d="M1089.35,226.28l-1.06-3.74h-4.44l-1.06,3.74h-2.28l4.08-14h3.06l4.08,14Zm-3.2-11.7H1086l-1.72,6.12h3.6Z"/><path class="cls-3" d="M1098.49,226.52a5.23,5.23,0,0,1-2.07-.38,4.13,4.13,0,0,1-1.54-1.08,4.63,4.63,0,0,1-1-1.7,7.08,7.08,0,0,1-.33-2.24,7.17,7.17,0,0,1,.33-2.24,4.8,4.8,0,0,1,1-1.7,4.37,4.37,0,0,1,1.54-1.08,5.35,5.35,0,0,1,2-.38,4.42,4.42,0,0,1,2.57.68,4.09,4.09,0,0,1,1.45,1.74l-1.7.92a2.53,2.53,0,0,0-.85-1.14,2.42,2.42,0,0,0-1.47-.42,2.46,2.46,0,0,0-1.92.76,2.89,2.89,0,0,0-.68,2V222a2.89,2.89,0,0,0,.68,2,2.48,2.48,0,0,0,2,.76,2.58,2.58,0,0,0,1.57-.44,3,3,0,0,0,1-1.2l1.6,1a4.17,4.17,0,0,1-1.52,1.76A4.62,4.62,0,0,1,1098.49,226.52Z"/><path class="cls-3" d="M1110.73,226.28a2.54,2.54,0,0,1-2-.72,2.76,2.76,0,0,1-.64-1.89v-5.93h-3.18V216h2.26a.88.88,0,0,0,1.06-1.06v-2.58h2V216h4.4v1.78h-4.4v6.76h4.4v1.78Z"/><path class="cls-3" d="M1118.13,224.5h3.52v-6.76h-3.52V216h5.7v8.54h3.3v1.78h-9Zm4.62-10.42a1.59,1.59,0,0,1-1.17-.34,1.14,1.14,0,0,1-.33-.84v-.42a1.17,1.17,0,0,1,.33-.84,1.59,1.59,0,0,1,1.15-.34,1.63,1.63,0,0,1,1.17.34,1.17,1.17,0,0,1,.33.84v.42a1.14,1.14,0,0,1-.33.84A1.55,1.55,0,0,1,1122.75,214.08Z"/><path class="cls-3" d="M1134.11,226.52a5.17,5.17,0,0,1-2-.38,4.13,4.13,0,0,1-1.54-1.08,4.79,4.79,0,0,1-1-1.7,6.8,6.8,0,0,1-.34-2.24,6.88,6.88,0,0,1,.34-2.24,5,5,0,0,1,1-1.7,4.37,4.37,0,0,1,1.54-1.08,5.72,5.72,0,0,1,4.1,0,4.37,4.37,0,0,1,1.54,1.08,5,5,0,0,1,1,1.7,6.88,6.88,0,0,1,.34,2.24,6.8,6.8,0,0,1-.34,2.24,4.79,4.79,0,0,1-1,1.7,4.13,4.13,0,0,1-1.54,1.08A5.17,5.17,0,0,1,1134.11,226.52Zm0-1.72a2.52,2.52,0,0,0,1.91-.73,3,3,0,0,0,.71-2.17v-1.56a3,3,0,0,0-.71-2.17,2.86,2.86,0,0,0-3.82,0,3,3,0,0,0-.71,2.17v1.56a3,3,0,0,0,.71,2.17A2.52,2.52,0,0,0,1134.11,224.8Z"/><path class="cls-3" d="M1141.79,226.28V216H1144v1.76h.1a4.41,4.41,0,0,1,.41-.77,2.85,2.85,0,0,1,.61-.64,3,3,0,0,1,.84-.43,3.73,3.73,0,0,1,1.12-.16,3.3,3.3,0,0,1,2.52,1,4.08,4.08,0,0,1,1,2.9v6.64h-2.18V220c0-1.64-.71-2.46-2.14-2.46a3.24,3.24,0,0,0-.82.11,2.64,2.64,0,0,0-.72.33,1.82,1.82,0,0,0-.51.56,1.55,1.55,0,0,0-.19.78v7Z"/></g></svg>