<svg id="Layer_1" data-name="Layer 1" xmlns="http://www.w3.org/2000/svg" viewBox="0 0 385 227"><defs><style>.cls-1,.cls-2{fill:none;stroke-miterlimit:10;}.cls-1{stroke:#fff;}.cls-2{stroke:#c3793d;}.cls-3{fill:#fff;}</style></defs><polyline class="cls-1" points="239.57 44.66 215.27 102.42 185.35 173.5 293.61 172.92 239.39 44.08"/><polyline class="cls-2" points="0 165.41 58.93 183.77 152.15 197.29 229.68 197.29 269.52 214.68 307.2 202.6 344.87 198.74 384.48 165.41"/><polygon class="cls-2" points="252.86 39.59 256.09 39.59 259.62 49.25 255.76 49.73 252.86 39.59"/><polygon class="cls-2" points="223.39 38.14 226.78 39.1 223.88 48.76 220.01 47.8 223.39 38.14"/><polyline class="cls-2" points="229.68 197.29 229.68 171.46 229.68 164.69 245.13 167.59 229.68 171.46"/><polyline class="cls-2" points="152.15 197.29 152.15 171.11 152.15 164.7 167.85 167.59 152.15 171.11"/><rect class="cls-2" x="243.2" y="50.21" width="1.93" height="1.93" transform="translate(35.32 187.64) rotate(-45)"/><rect class="cls-2" x="244.93" y="56.92" width="2.5" height="2.5" transform="translate(-5.93 78.93) rotate(-18)"/><rect class="cls-2" x="236.34" y="59.28" width="3.62" height="3.62" transform="translate(45.25 213.52) rotate(-52.7)"/><polygon class="cls-2" points="228.22 43.93 250.93 44.42 249.48 27.03 231.12 26.55 228.22 43.93"/><line class="cls-1" x1="263.65" y1="101.73" x2="215.27" y2="101.73"/><path class="cls-3" d="M294.77,85a2.45,2.45,0,0,1-2.17-1,6.44,6.44,0,0,1,0-5.88,2.45,2.45,0,0,1,2.17-1,3.17,3.17,0,0,1,1,.14,2.36,2.36,0,0,1,.71.41,2.42,2.42,0,0,1,.5.6,3.79,3.79,0,0,1,.33.74l-1.11.37c-.06-.17-.12-.34-.19-.49a1.5,1.5,0,0,0-.28-.4,1.27,1.27,0,0,0-.95-.36,1.27,1.27,0,0,0-1.18.62,3.28,3.28,0,0,0-.38,1.69v1.3a3.22,3.22,0,0,0,.38,1.68,1.26,1.26,0,0,0,1.18.63,1.52,1.52,0,0,0,.56-.1,1.19,1.19,0,0,0,.39-.27,1.44,1.44,0,0,0,.28-.39c.07-.16.13-.32.19-.5l1.11.38a3.79,3.79,0,0,1-.33.74,2.42,2.42,0,0,1-.5.6,2.15,2.15,0,0,1-.71.4A2.88,2.88,0,0,1,294.77,85Z"/><path class="cls-3" d="M303.27,84.88a1,1,0,0,1-.78-.27,1.11,1.11,0,0,1-.31-.69h-.06a1.43,1.43,0,0,1-.6.8,2,2,0,0,1-1.1.29,2,2,0,0,1-1.39-.46,1.6,1.6,0,0,1-.52-1.26,1.47,1.47,0,0,1,.61-1.26A3.37,3.37,0,0,1,301,81.6h1.09v-.44c0-.77-.41-1.16-1.22-1.16a1.65,1.65,0,0,0-.89.22,1.85,1.85,0,0,0-.58.57l-.71-.59a2,2,0,0,1,.81-.79,2.87,2.87,0,0,1,1.48-.34,2.51,2.51,0,0,1,1.69.52,1.83,1.83,0,0,1,.62,1.49v2.85H304v.95Zm-2.51-.75a1.67,1.67,0,0,0,1-.26.82.82,0,0,0,.37-.68v-.82H301c-.86,0-1.3.26-1.3.78v.21a.67.67,0,0,0,.28.58A1.3,1.3,0,0,0,300.76,84.13Z"/><path class="cls-3" d="M304.94,84.88V79.2h1v.74H306a1.58,1.58,0,0,1,.38-.62.93.93,0,0,1,.71-.25.91.91,0,0,1,.69.25,1.17,1.17,0,0,1,.32.67h0a1.94,1.94,0,0,1,.43-.65,1.08,1.08,0,0,1,.79-.27,1,1,0,0,1,.92.46,2.86,2.86,0,0,1,.26,1.35v4h-1V81a1.58,1.58,0,0,0-.15-.82.5.5,0,0,0-.46-.23.66.66,0,0,0-.48.2.76.76,0,0,0-.19.57v4.12h-1V81a1.71,1.71,0,0,0-.14-.82.49.49,0,0,0-.46-.23.68.68,0,0,0-.49.2.8.8,0,0,0-.19.57v4.12Z"/><path class="cls-3" d="M314.47,85a3,3,0,0,1-1.16-.21,2.35,2.35,0,0,1-.87-.59,2.68,2.68,0,0,1-.54-.93,3.92,3.92,0,0,1-.19-1.23,3.69,3.69,0,0,1,.2-1.23,2.49,2.49,0,0,1,.54-.94,2.31,2.31,0,0,1,.84-.6,2.77,2.77,0,0,1,1.1-.21,2.83,2.83,0,0,1,1.07.2,2.35,2.35,0,0,1,.83.58,2.55,2.55,0,0,1,.52.89,3.51,3.51,0,0,1,.18,1.15v.45h-4.07v.18a1.47,1.47,0,0,0,.42,1.09,1.56,1.56,0,0,0,1.16.42,1.87,1.87,0,0,0,.94-.23,1.9,1.9,0,0,0,.63-.63l.75.66a2.38,2.38,0,0,1-.88.84A2.86,2.86,0,0,1,314.47,85Zm-.08-5a1.59,1.59,0,0,0-.59.11,1.27,1.27,0,0,0-.46.32,1.54,1.54,0,0,0-.31.47,1.74,1.74,0,0,0-.11.61v.08h2.85v-.11a1.49,1.49,0,0,0-.38-1.08A1.34,1.34,0,0,0,314.39,80Z"/><path class="cls-3" d="M318.49,83.9H320V80.18h-1.51v-1h2.71v1.51h.06a2.8,2.8,0,0,1,.22-.57,1.78,1.78,0,0,1,.36-.48,1.63,1.63,0,0,1,.54-.33,2,2,0,0,1,.75-.13h.68v1.15h-1.12a1.52,1.52,0,0,0-1.08.39,1.33,1.33,0,0,0-.41,1V83.9h2.05v1h-4.76Z"/><path class="cls-3" d="M329.66,84.88a1,1,0,0,1-.77-.27,1.11,1.11,0,0,1-.31-.69h-.06a1.43,1.43,0,0,1-.6.8,2.29,2.29,0,0,1-2.49-.17,1.57,1.57,0,0,1-.52-1.26,1.47,1.47,0,0,1,.61-1.26,3.37,3.37,0,0,1,1.88-.43h1.09v-.44c0-.77-.41-1.16-1.22-1.16a1.65,1.65,0,0,0-.89.22,1.85,1.85,0,0,0-.58.57l-.71-.59a2,2,0,0,1,.81-.79,2.85,2.85,0,0,1,1.48-.34,2.51,2.51,0,0,1,1.69.52,1.83,1.83,0,0,1,.62,1.49v2.85h.71v.95Zm-2.5-.75a1.64,1.64,0,0,0,.95-.26.81.81,0,0,0,.38-.68v-.82h-1.07c-.86,0-1.3.26-1.3.78v.21a.65.65,0,0,0,.28.58A1.28,1.28,0,0,0,327.16,84.13Z"/><path class="cls-3" d="M292.11,97.1h1.82V93.38H292v-1h1.93v-1a1.49,1.49,0,0,1,.35-1,1.37,1.37,0,0,1,1.1-.4h1.91v1h-2.16V92.4h2.16v1h-2.16V97.1H297v1h-4.93Z"/><path class="cls-3" d="M298.69,97.1h1.51V93.38h-1.51v-1h2.71v1.51h.06a2.8,2.8,0,0,1,.22-.57,1.62,1.62,0,0,1,.37-.48,1.49,1.49,0,0,1,.53-.33,2,2,0,0,1,.75-.13H304v1.15h-1.12a1.52,1.52,0,0,0-1.08.39,1.37,1.37,0,0,0-.41,1V97.1h2.05v1h-4.76Z"/><path class="cls-3" d="M308.93,97.11h-.05a2.13,2.13,0,0,1-.23.42,1.42,1.42,0,0,1-.33.36,2.06,2.06,0,0,1-.47.23,1.87,1.87,0,0,1-.61.09,1.82,1.82,0,0,1-1.39-.56,2.25,2.25,0,0,1-.53-1.6V92.4h1.2v3.48c0,.9.39,1.35,1.18,1.35a1.74,1.74,0,0,0,.45-.06,1.32,1.32,0,0,0,.4-.18,1,1,0,0,0,.28-.3.87.87,0,0,0,.1-.44V92.4h1.2v5.68h-1.2Z"/><path class="cls-3" d="M314.36,98.21a3.81,3.81,0,0,1-1.58-.3,2.86,2.86,0,0,1-1.08-.79l.74-.66a2.62,2.62,0,0,0,.84.62,2.53,2.53,0,0,0,1.11.22,2,2,0,0,0,.94-.2.73.73,0,0,0,.29-.91.61.61,0,0,0-.19-.2,1,1,0,0,0-.28-.12l-.33-.07-.91-.14a4.27,4.27,0,0,1-.67-.15,1.88,1.88,0,0,1-.61-.28,1.49,1.49,0,0,1-.44-.46A1.46,1.46,0,0,1,312,94a1.48,1.48,0,0,1,.67-1.32,3.07,3.07,0,0,1,1.75-.45,3.53,3.53,0,0,1,1.37.24,2.44,2.44,0,0,1,1,.65l-.67.71a2,2,0,0,0-.62-.47,2.28,2.28,0,0,0-1.08-.22c-.8,0-1.2.26-1.2.76a.5.5,0,0,0,.26.5,1.75,1.75,0,0,0,.61.18l.9.15a5.47,5.47,0,0,1,.68.14,2,2,0,0,1,.6.27,1.34,1.34,0,0,1,.61,1.19,1.58,1.58,0,0,1-.66,1.35A3,3,0,0,1,314.36,98.21Z"/><path class="cls-3" d="M321.29,98.08a1.44,1.44,0,0,1-1.1-.4,1.56,1.56,0,0,1-.35-1V93.38h-1.75v-1h1.25a.67.67,0,0,0,.45-.12.68.68,0,0,0,.13-.46V90.4H321v2h2.42v1H321V97.1h2.42v1Z"/><path class="cls-3" d="M325.09,97.1h1.51V93.38h-1.51v-1h2.7v1.51h.07a2.8,2.8,0,0,1,.22-.57,1.78,1.78,0,0,1,.36-.48,1.63,1.63,0,0,1,.54-.33,2,2,0,0,1,.75-.13h.68v1.15h-1.12a1.52,1.52,0,0,0-1.08.39,1.34,1.34,0,0,0-.42,1V97.1h2.06v1h-4.76Z"/><path class="cls-3" d="M335.33,97.11h-.06a1.68,1.68,0,0,1-.22.42,1.29,1.29,0,0,1-.34.36,1.8,1.8,0,0,1-.46.23,1.91,1.91,0,0,1-.61.09,1.82,1.82,0,0,1-1.39-.56,2.25,2.25,0,0,1-.53-1.6V92.4h1.2v3.48c0,.9.39,1.35,1.18,1.35a1.74,1.74,0,0,0,.45-.06,1.17,1.17,0,0,0,.39-.18.89.89,0,0,0,.28-.3.87.87,0,0,0,.11-.44V92.4h1.2v5.68h-1.2Z"/><path class="cls-3" d="M337.94,98.08V92.4h1v.74H339a1.85,1.85,0,0,1,.38-.62,1,1,0,0,1,.71-.25.92.92,0,0,1,.7.25,1.11,1.11,0,0,1,.31.67h.05a1.8,1.8,0,0,1,.43-.65,1.07,1.07,0,0,1,.79-.27,1,1,0,0,1,.92.46,2.86,2.86,0,0,1,.26,1.35v4h-1V94.24a1.6,1.6,0,0,0-.14-.82.5.5,0,0,0-.46-.23.66.66,0,0,0-.48.2.76.76,0,0,0-.19.57v4.12h-1V94.24a1.71,1.71,0,0,0-.14-.82.5.5,0,0,0-.46-.23.66.66,0,0,0-.49.2A.76.76,0,0,0,339,94v4.12Z"/></svg>