<svg id="Layer_1" data-name="Layer 1" xmlns="http://www.w3.org/2000/svg" viewBox="0 0 1181 493"><defs><style>.cls-1{fill:#0c0c0d;}.cls-2{fill:#c3793d;}.cls-3{fill:#fff;}.cls-4,.cls-5{fill:none;stroke-miterlimit:10;}.cls-4{stroke:#c3793d;}.cls-5{stroke:#fff;}</style></defs><rect class="cls-1" width="1181" height="493"/><path class="cls-2" d="M266.48,147.07c0-.06,0-.12,0-.18a6.2,6.2,0,0,1-.39-.91c-2-5.82-8.67-8.1-13.57-4.57-1.54,1.12-2.42.88-3.71-.11q-9.69-7.4-19.47-14.67a3,3,0,0,1-1.35-3.84,8.9,8.9,0,0,0-14.86-8.51c-.79.75-1.46,1.63-2.26,2.54-6.25-2.48-12.42-5-18.64-7.35a2.9,2.9,0,0,1-2.21-3.14,8.79,8.79,0,0,0-9.31-8.58c-4.77.16-9.26,4.2-8.33,8.78.85,4.26-1.54,5.59-4,7.43-1,.71-1.94,1.41-2.9,2.13L149.55,128c-6.18-3.9-9.29-3.53-14.25,1.32a3.35,3.35,0,0,1-2.69.39c-11.37-2.78-22.71-5.69-34.08-8.46-1.83-.45-2.84-1.07-3.33-3.11-1.11-4.58-5.27-7.1-10-6.48a9,9,0,0,0-.17,17.65c3.67.78,6.43-.93,9.08-3.47l19.28,15.25c-5.54,1.47-10.34,2.63-15.06,4.06-2.09.63-3.2.4-4.53-1.58a8.74,8.74,0,0,0-12.68-1.93A9.06,9.06,0,0,0,79.4,154c2.95,4,9.11,5.36,12.4,1.82,2.85-3.07,5.4-2.53,8.56-1.7s6.17,1.39,9.24,2.11a10.83,10.83,0,0,1,1.75.81L93.42,170.77c-.49-.3-.79-.46-1.06-.66-3.7-2.67-8.11-2.71-11.38-.09A9,9,0,0,0,87.39,186c4.39-.45,7.38-3.53,8.29-8.18a3.2,3.2,0,0,1,2-2c11.5-2.94,23-5.74,34.56-8.64a2.74,2.74,0,0,1,3.38,1.21c3.12,4.16,8,5,12.23,2.08a2.6,2.6,0,0,1,3.57.08q10.09,7.27,20.3,14.42c1.19.83,1.12,1.59.94,3a14.2,14.2,0,0,0,.44,6.72,8.46,8.46,0,0,0,9.69,4.95,8.77,8.77,0,0,0,7.25-8.73,2.47,2.47,0,0,1,2-2.72q8.58-3.06,17.1-6.24c1.42-.53,2.37-.61,3.55.74a9,9,0,0,0,11,2A8.88,8.88,0,0,0,228,174.64c-.39-1.6.06-2.26,1.25-3.12q10-7.22,19.86-14.58a3.36,3.36,0,0,1,4.3-.35A8.64,8.64,0,0,0,266,151.76a4.48,4.48,0,0,1,.58-1.22C266.6,149.39,266.49,148.23,266.48,147.07ZM86.54,127.72a7.3,7.3,0,0,1-7.26-7.13,7.48,7.48,0,0,1,7.31-7.44,7.25,7.25,0,0,1,7.28,7.36A7,7,0,0,1,86.54,127.72ZM86.42,156a7.33,7.33,0,0,1-7.13-7.53,7.58,7.58,0,0,1,7.42-7.07,7.31,7.31,0,0,1,7.17,7.48A7.07,7.07,0,0,1,86.42,156Zm141.84-28.17q9.72,7.32,19.43,14.65c1.31,1,2.08,1.75,1.39,3.75s-1.92,1.55-3.19,1.56c-5.8,0-11.59,0-17.22,0-2.67-6.35-5.55-8.43-10.56-7.87a4.15,4.15,0,0,0-2,.49c-2.54,1.94-4,.42-5.23-1.61a3,3,0,0,1-.19-2.43c1.15-2.56,2.52-5,3.73-7.36,2.29.19,4.44.74,6.45.4s3.68-1.54,5.89-2.55C227,127,227.67,127.37,228.26,127.82Zm-1.79,20.93a7.11,7.11,0,0,1-7.27,7.09,7,7,0,0,1-6.93-7.1,7.1,7.1,0,1,1,14.2,0ZM190.2,159c-.54.16-1.51-1.11-2.49-1.89l6.38-7,5,5.53C195.85,156.89,193.08,158.11,190.2,159Zm6.72-.25a50.55,50.55,0,0,1-3.56,6.62c-.44.59-2.17.23-3.4.31C190.28,160.38,190.83,159.85,196.92,158.72Zm-5.36-19.34c2.24,1,4.56,1.82,7.22,2.87l-4.72,5.39L188,141C188.64,138.65,189.86,138.61,191.56,139.38Zm-1.63-7.19c2-1.57,3.41-1.42,4.52,1,1,2.15,2.25,4.17,3.78,6.95-3-1.15-5.32-2-7.56-3-.41-.19-.45-1.3-.54-2C190,134.18,190,133.17,189.93,132.19Zm-1.74,3a7.18,7.18,0,0,1-7.37,6.65,7,7,0,0,1-6.72-7.49,7.07,7.07,0,0,1,7.43-6.79A7.25,7.25,0,0,1,188.19,135.21Zm-12.72,6.54a9.11,9.11,0,0,0,9.87.94,2.37,2.37,0,0,1,2.13.38c1.84,1.76,3.52,3.68,5.45,5.76-1.82,2-3.53,4-5.35,5.87a1.87,1.87,0,0,1-1.71.37c-4.25-2.24-8.06-1.54-11.74,1.83l-10.68-8.08c3.57-2.61,6.89-5.08,10.28-7.44C174.07,141.14,175,141.43,175.47,141.75Zm5.37,14A7.06,7.06,0,1,1,174,162.9,6.94,6.94,0,0,1,180.84,155.71Zm14.35-6.89,4.66-5c3.45,4.51,3.19,3.73-.32,9.62Zm8.34,1.09c.74,1.19,1.27,2,2,3.17l-3.72,1.54-.46-.48Zm1.31-1.95c-.22-.52,1-2.29,1.83-2.5,1.89-.48,3.66,1.44,3.69,3.7a2.06,2.06,0,0,1-2.42,2.87C206.56,151.52,205.52,149.53,204.84,148Zm2.08-4.42,1.92-3.72c3.16,1.91,3.55,2.87,2.06,5.26ZM206,141.4c-.68,1.67-1,1.58-4-.09l4.38-4.83C209,138.46,206.58,140,206,141.4Zm-5.54-.89-5.69-10a3.62,3.62,0,0,1,.6-.46c4-1.85,4-1.85,6.91,1.48,1,1.14,2,2.29,3.1,3.61Zm-8.29-14.68c-1.7-3-3.42-6.09-5.1-9.14-.42-.76-.74-1.57-1.11-2.35l.82-.59,11.36,12.93C194.49,129.22,194,129.13,192.17,125.83Zm-5.8-7c1.77,3.48,3.76,6.85,5.66,10.27-1.86,1.42-3,1.22-4.47-.42a8.62,8.62,0,0,0-14.34,2c-1.05,2.21-2.21,2.83-4.39,2.6-1.42-.15-2.87,0-4.57,0a7,7,0,0,1,.49-1.44c3.53-5.25,7.12-10.47,10.63-15.73a2.06,2.06,0,0,1,3-.93,4.45,4.45,0,0,0,2.73.44C184.15,114.66,185.22,116.54,186.37,118.79Zm-17.6,16c2.32-.22,3.49.57,4,3,.3,1.44.11,2.1-1.07,2.9a90.73,90.73,0,0,0-7.62,5.58c-1.56,1.29-2.72,1.33-4.13-.09a34.31,34.31,0,0,0-3.25-2.54c1.88-2.76,3.54-5.34,5.36-7.79a3.2,3.2,0,0,1,2.12-1C165.69,134.71,167.25,135,168.77,134.84Zm-13.44,7.76a17.29,17.29,0,0,0-2.64-1.86c-2.51-1.12-1.47-2.83-1.09-4.64.43-2.06,1.89-1.33,3-1.39,1.77-.1,3.56,0,6.14,0Zm-1,1.32c-.45.77-.68,1.22-1,1.64s-.52.65-1.06,1.31c-1.34-2-2.55-3.76-3.76-5.56l.75-.84Zm-2,6.13,2.24,3.15-5.31,3.65-.95-.84Zm3.69-4.68c1,.76,2.1,1.56,3.18,2.33.41.3.85.55,1.47,1-1.27,1-2.13,1.63-3,2.27-.47.34-1,.63-1.44.93C153,149.07,152.94,148.2,156,145.37Zm5.36,5a2.26,2.26,0,0,1,1.79.37c2.9,2.09,5.67,4.39,8.64,6.38,1.84,1.24.92,2.6.4,3.77-.29.63-1.43,1-2.26,1.21a18.1,18.1,0,0,1-3.5.05c-2.75.87-4.81-.79-6.23-3.72a8.91,8.91,0,0,0-.88-1.26C156.78,153.6,157.23,152,161.38,150.4ZM170.76,164a2.55,2.55,0,0,1,1.68,1.38c3.24,7.35,10.7,8.63,15.95,2.54,1.45-1.68,2.28-.47,3.69.12l-7.2,13.74c-2.69.24-4.95.49-7.23.61a1.89,1.89,0,0,1-1.42-.71c-4-5.72-7.95-11.49-12.27-17.75C166.68,164,168.73,163.84,170.76,164Zm16.5,16.83c1.7-3.23,3.58-6.39,5.07-9.71,1-2.31,2.23-2.94,4.39-1.57a13.29,13.29,0,0,0,1.95.87c-4,4.46-7.95,8.76-11.86,13.05l-.59-.33C186.57,182.39,186.87,181.6,187.26,180.85Zm10.47-12.76a16.59,16.59,0,0,1-3.16-1.19l5.52-10.3,5.58,6.05a53,53,0,0,1-4.77,5.21C200.24,168.42,198.78,168.24,197.73,168.09Zm4.56-11.66,3.76-1.68c3.11,3.69,3.17,4.28.59,6.4Zm7.44,4.38c1.43,2.52,2.74,4.84,4.06,7.15l-.47.38-5.26-5.67Zm-1.67-6.74c1.69-.67,3.26-2,3.93.12.29.89-.86,2.24-1.65,4.05C209.31,156.35,208.72,155.29,208.06,154.07Zm11.45-40.43a6.87,6.87,0,0,1,6.88,7.1,7.06,7.06,0,1,1-14.12-.08A6.91,6.91,0,0,1,219.51,113.64Zm-8.59,15.42c-1.46,1.38-2.75,3-4.38,4.74l-5.17-6,9.39-3.37C212.89,126.05,212.6,127.47,210.92,129.06ZM191.38,111c5.74,2.16,11.44,4.4,17.09,6.77,1,.41,1.61,1.57,2.41,2.38l-.62.47c.61,1.85-.41,2.54-1.91,2.92a12.36,12.36,0,0,0-1.45.49c-6.8,2.43-6.8,2.43-11.46-2.91-2.07-2.38-4.2-4.71-6.15-7.19-.48-.61-.35-1.71-.5-2.59C189.66,111.18,190.67,110.7,191.38,111ZM181,99.64a7,7,0,1,1,.15,14.08A7,7,0,0,1,181,99.64Zm-29.55,29c7.33-5.54,14.7-11,22.8-17.07,0,1.54.34,2.63-.06,3.24-3.8,5.76-7.72,11.45-11.65,17.14A2.49,2.49,0,0,1,161,133.1a53,53,0,0,1-8.17-.2c-.76-.1-1.44-1.6-1.9-2.58A1.79,1.79,0,0,1,151.48,128.67Zm-8.71-1.43a7,7,0,0,1,7.07,7.16,6.89,6.89,0,0,1-6.93,7,7.1,7.1,0,0,1-.14-14.19Zm-8.09,11.09c.15.2-.14,1-.45,1.24-3.08,2.42-6.19,4.8-9.37,7.1a1.9,1.9,0,0,1-1.74-.12c-1.85-1.34-3.6-2.81-6-4.71,5.86-1.53,11-2.91,16.19-4.19A1.74,1.74,0,0,1,134.68,138.33ZM96.61,125.59c-.7-.56-.89-1.75-1.31-2.65a9.29,9.29,0,0,1,2.51-.1c11.36,2.78,22.71,5.64,34.06,8.43,1.4.34,2.53.72,1.89,2.58l.51.5c-.77.62-1.45,1.55-2.32,1.8-5,1.42-10.06,2.72-15.12,3.94a3.34,3.34,0,0,1-2.5-.51Q105.39,132.7,96.61,125.59Zm2.07,26.49c-3.2-.73-3.2-.74-2.89-4.57,6.12-1.61,12.2-3.24,18.3-4.77a2.82,2.82,0,0,1,2,.53c2.12,1.57,4.14,3.26,6.52,5.17-3,2.26-5.73,4.46-8.62,6.48a3.49,3.49,0,0,1-2.4.05C107.31,154.05,103,153.06,98.68,152.08Zm-12,32.15A7.27,7.27,0,0,1,79.29,177a7.48,7.48,0,0,1,7.38-7.36,7.26,7.26,0,0,1,7.19,7.18A7,7,0,0,1,86.71,184.23Zm45.66-18.78q-17.64,4.44-35.33,8.71c-.61.15-1.9-.28-2-.67a2.61,2.61,0,0,1,.6-2.24Q104.22,164.52,113,158a3.2,3.2,0,0,1,2.34-.4c5.68,1.2,11.35,2.47,17,3.85.73.18,1.28,1.09,2.41,2.11C133.59,164.49,133.06,165.27,132.37,165.45Zm0-5.8c-5.31-1.12-10.6-2.36-16.65-3.73l8.37-6.4c3.4,2.69,6.45,5,9.41,7.49a7.5,7.5,0,0,1,1.3,2.17A6.58,6.58,0,0,1,132.34,159.65Zm-6.9-11.18c3.39-2.61,6.45-5,9.63-7.31a2.45,2.45,0,0,1,2.18.27,9.46,9.46,0,0,0,8.5,1.47,2.67,2.67,0,0,1,2.23.76c3.58,4.19,3.44,6.56-.49,10.47a2.16,2.16,0,0,1-1.51.56c-5.62-.58-5.62-.6-9.86,2.18ZM143,170.22A7.09,7.09,0,1,1,143,156a7,7,0,0,1,6.88,7.1A6.86,6.86,0,0,1,143,170.22Zm12.55-15.62,5.12,7.4c-3,0-5.54.35-7.86-.16-1-.21-1.62-2.18-2.49-3.48ZM150.67,168c1.58-4.39,1.6-4.09,5.8-4.36,4-.25,6.43,1.09,8.47,4.49,3,5,6.48,9.62,9.7,14.45.29.43.14,1.16.2,1.75a4.3,4.3,0,0,1-1.57-.33C165.74,178.7,158.24,173.36,150.67,168ZM181,197.92a7,7,0,0,1-7-7,7.2,7.2,0,0,1,7-7.28,7.14,7.14,0,1,1,0,14.27Zm26.42-17.1c-6,2-11.86,4.26-17.68,6.4-1.88-1.49-1.76-2.72-.23-4.3,3.26-3.38,6.4-6.89,9.46-10.45a2.65,2.65,0,0,1,3.55-.82,53.16,53.16,0,0,0,6,2.2c1.51.44,1.72,1.28,1.92,2.74C210.83,179.21,209.76,180.06,207.45,180.82Zm-5.67-11.23,5.06-5.73,6,6.51L211,173ZM219.28,184a7.34,7.34,0,0,1-7-7.07,7,7,0,0,1,7.06-7.23,7.25,7.25,0,0,1,7.23,7.13A7.42,7.42,0,0,1,219.28,184Zm29.4-28.71c-7.21,5.34-14.49,10.6-22,16.05-2.82-2.72-5.88-4.27-9.82-3.23-.44.12-1.32-.58-1.66-1.11-1.1-1.73-2-3.62-3.09-5.32a2.84,2.84,0,0,1,.3-4c1.16-1.31,2-1.17,3.5-.58A8.81,8.81,0,0,0,228,151c.42-1.55,1.08-1.85,2.45-1.81,5.47.16,10.94.37,16.42.34,2.73,0,1.87,2.43,2.77,3.64C249.88,153.45,249.25,154.83,248.68,155.25Zm8.86.58a7.18,7.18,0,0,1-7.12-7,7.29,7.29,0,0,1,7.1-7.27,7.18,7.18,0,0,1,7.19,7.12A7.07,7.07,0,0,1,257.54,155.83Z"/><path class="cls-3" d="M80.78,67.44V79.52H78.54V67.44H74.16V65.56h11v1.88Z"/><path class="cls-3" d="M87.18,77.74h2.74V71H87.18V69.2H92.1v2.74h.12a4.86,4.86,0,0,1,.4-1,2.86,2.86,0,0,1,.66-.87,3,3,0,0,1,1-.6,3.56,3.56,0,0,1,1.36-.23h1.24v2.08h-2a2.77,2.77,0,0,0-2,.7,2.49,2.49,0,0,0-.76,1.91v3.85h3.74v1.78H87.18Z"/><path class="cls-3" d="M107.5,79.52a1.88,1.88,0,0,1-1.41-.48,2.17,2.17,0,0,1-.57-1.26h-.1a2.68,2.68,0,0,1-1.09,1.46,3.66,3.66,0,0,1-2,.52,3.7,3.7,0,0,1-2.52-.83,2.9,2.9,0,0,1-.94-2.29A2.63,2.63,0,0,1,100,74.35a5.9,5.9,0,0,1,3.41-.79h2v-.8q0-2.1-2.22-2.1a3,3,0,0,0-1.62.39,3.4,3.4,0,0,0-1,1L99.18,71a3.69,3.69,0,0,1,1.48-1.45,5.21,5.21,0,0,1,2.68-.61,4.63,4.63,0,0,1,3.08.94,3.33,3.33,0,0,1,1.12,2.72V77.8h1.3v1.72Zm-4.56-1.36a2.93,2.93,0,0,0,1.74-.48,1.46,1.46,0,0,0,.68-1.23V75h-1.94c-1.57,0-2.36.47-2.36,1.41v.39a1.2,1.2,0,0,0,.5,1A2.39,2.39,0,0,0,102.94,78.16Z"/><path class="cls-3" d="M111.68,77.74h3.52V71h-3.52V69.2h5.7v8.54h3.3v1.78h-9Zm4.62-10.42a1.63,1.63,0,0,1-1.17-.34,1.17,1.17,0,0,1-.33-.84v-.42a1.14,1.14,0,0,1,.33-.84,1.55,1.55,0,0,1,1.15-.34,1.59,1.59,0,0,1,1.17.34,1.14,1.14,0,0,1,.33.84v.42a1.17,1.17,0,0,1-.33.84A1.59,1.59,0,0,1,116.3,67.32Z"/><path class="cls-3" d="M123.34,79.52V69.2h2.18V71h.1a3.8,3.8,0,0,1,.41-.77,2.65,2.65,0,0,1,.61-.64,2.78,2.78,0,0,1,.84-.43A3.44,3.44,0,0,1,128.6,69a3.3,3.3,0,0,1,2.52,1,4.06,4.06,0,0,1,1,2.9v6.64H129.9V73.2c0-1.64-.71-2.46-2.14-2.46a2.85,2.85,0,0,0-.82.11,2.16,2.16,0,0,0-.72.33,1.62,1.62,0,0,0-.51.56,1.5,1.5,0,0,0-.19.78v7Z"/><path class="cls-3" d="M139.88,79.76a5.68,5.68,0,0,1-2.12-.38,4.44,4.44,0,0,1-1.58-1.08,4.79,4.79,0,0,1-1-1.69,7.41,7.41,0,0,1,0-4.47,4.94,4.94,0,0,1,1-1.71,4.09,4.09,0,0,1,1.53-1.09,5.41,5.41,0,0,1,4,0,4,4,0,0,1,1.5,1,4.66,4.66,0,0,1,.95,1.62,6.22,6.22,0,0,1,.33,2.08v.82h-7.4v.33a2.68,2.68,0,0,0,.76,2,2.84,2.84,0,0,0,2.1.77,3.29,3.29,0,0,0,1.71-.43,3.48,3.48,0,0,0,1.15-1.14l1.36,1.2a4.24,4.24,0,0,1-1.59,1.52A5.17,5.17,0,0,1,139.88,79.76Zm-.16-9.14a2.68,2.68,0,0,0-1.07.2,2.24,2.24,0,0,0-.84.57,2.58,2.58,0,0,0-.55.87,3,3,0,0,0-.2,1.1v.14h5.18v-.2a2.7,2.7,0,0,0-.69-2A2.39,2.39,0,0,0,139.72,70.62Z"/><path class="cls-3" d="M153.9,77.76h-.12a3.86,3.86,0,0,1-1.22,1.47,3.27,3.27,0,0,1-1.9.53,3.53,3.53,0,0,1-2.9-1.36,6.42,6.42,0,0,1-1.08-4,6.39,6.39,0,0,1,1.08-4,3.51,3.51,0,0,1,2.9-1.36,3.2,3.2,0,0,1,1.9.53A3.71,3.71,0,0,1,153.78,71h.12V64.72h2.18v14.8H153.9Zm-2.34.22a3.26,3.26,0,0,0,.9-.12,2.22,2.22,0,0,0,.74-.36,1.93,1.93,0,0,0,.51-.59,1.7,1.7,0,0,0,.19-.83V72.64a1.67,1.67,0,0,0-.19-.83,1.82,1.82,0,0,0-.51-.59,2.22,2.22,0,0,0-.74-.36,3.26,3.26,0,0,0-.9-.12,2.4,2.4,0,0,0-1.91.76,2.92,2.92,0,0,0-.67,2V75.2a2.93,2.93,0,0,0,.67,2A2.43,2.43,0,0,0,151.56,78Z"/><path class="cls-3" d="M171.34,79.52v-14h5.22a4,4,0,0,1,3.05,1.11,5,5,0,0,1,0,6.15,4,4,0,0,1-3.05,1.12h-3v5.58Zm2.24-7.42h2.64c1.39,0,2.08-.65,2.08-1.93V69.3c0-1.27-.69-1.9-2.08-1.9h-2.64Z"/><path class="cls-3" d="M187.66,79.76a5.35,5.35,0,0,1-2-.38,4.37,4.37,0,0,1-1.54-1.08,5,5,0,0,1-1-1.7,6.88,6.88,0,0,1-.34-2.24,6.8,6.8,0,0,1,.34-2.24,4.79,4.79,0,0,1,1-1.7,4.13,4.13,0,0,1,1.54-1.08,5.72,5.72,0,0,1,4.1,0,4.13,4.13,0,0,1,1.54,1.08,4.79,4.79,0,0,1,1,1.7,6.8,6.8,0,0,1,.34,2.24,6.88,6.88,0,0,1-.34,2.24,5,5,0,0,1-1,1.7,4.37,4.37,0,0,1-1.54,1.08A5.35,5.35,0,0,1,187.66,79.76Zm0-1.72a2.56,2.56,0,0,0,1.91-.73,3,3,0,0,0,.71-2.17V73.58a3,3,0,0,0-.71-2.17,2.86,2.86,0,0,0-3.82,0,3,3,0,0,0-.71,2.17v1.56a3,3,0,0,0,.71,2.17A2.56,2.56,0,0,0,187.66,78Z"/><path class="cls-3" d="M195.16,77.74h3.42V66.5h-3.42V64.72h5.6v13h3.42v1.78h-9Z"/><path class="cls-3" d="M207.68,77.74h3.52V71h-3.52V69.2h5.7v8.54h3.3v1.78h-9Zm4.62-10.42a1.63,1.63,0,0,1-1.17-.34,1.17,1.17,0,0,1-.33-.84v-.42a1.14,1.14,0,0,1,.33-.84,1.55,1.55,0,0,1,1.15-.34,1.59,1.59,0,0,1,1.17.34,1.14,1.14,0,0,1,.33.84v.42a1.17,1.17,0,0,1-.33.84A1.59,1.59,0,0,1,212.3,67.32Z"/><path class="cls-3" d="M224,79.76a5.42,5.42,0,0,1-2.07-.38,4.37,4.37,0,0,1-1.54-1.08,4.8,4.8,0,0,1-1-1.7,7.17,7.17,0,0,1-.33-2.24,7.08,7.08,0,0,1,.33-2.24,4.63,4.63,0,0,1,1-1.7A4.13,4.13,0,0,1,222,69.34,5.17,5.17,0,0,1,224,69a4.42,4.42,0,0,1,2.57.67A4.12,4.12,0,0,1,228,71.38l-1.7.92a2.53,2.53,0,0,0-.85-1.14,2.42,2.42,0,0,0-1.47-.42,2.45,2.45,0,0,0-1.92.75,2.89,2.89,0,0,0-.68,2v1.73a2.89,2.89,0,0,0,.68,2,2.49,2.49,0,0,0,2,.77,2.65,2.65,0,0,0,1.57-.44,3.12,3.12,0,0,0,1-1.2l1.6,1a4.2,4.2,0,0,1-1.52,1.75A4.62,4.62,0,0,1,224,79.76Z"/><path class="cls-3" d="M238.68,69.2h2.2l-5,12.32a3.59,3.59,0,0,1-1,1.5,3,3,0,0,1-1.87.5h-1.74V81.74h2.44l.94-2.36L230.44,69.2h2.28l1.64,4.32,1.28,3.54h.12L237,73.52Z"/><polyline class="cls-4" points="81.91 353.42 117.84 364.61 174.67 372.86 221.93 372.86 246.22 383.46 269.19 376.1 292.16 373.74 316.3 353.42"/><polygon class="cls-4" points="179.9 306.59 192.7 301.31 187.64 291.96 177.27 296.17 179.9 306.59"/><polygon class="cls-4" points="192.6 298.14 194.4 297.36 198.74 301.89 196.69 303.1 192.6 298.14"/><polygon class="cls-4" points="175.79 304.53 177.91 304.25 178.65 310.35 176.26 310.75 175.79 304.53"/><polyline class="cls-4" points="221.93 372.86 221.93 357.11 221.93 352.98 231.35 354.75 221.93 357.11"/><polyline class="cls-4" points="174.67 372.86 174.67 356.9 174.67 352.99 184.24 354.75 174.67 356.9"/><rect class="cls-4" x="189.98" y="306.15" width="1.18" height="1.18" transform="translate(-164.54 372.37) rotate(-68.62)"/><rect class="cls-4" x="192.65" y="309.4" width="1.52" height="1.52" transform="translate(-157.18 206.75) rotate(-41.62)"/><rect class="cls-4" x="188.53" y="312.65" width="2.21" height="2.21" transform="translate(-160.06 423.81) rotate(-76.32)"/><path class="cls-2" d="M205.78,349.52c.95-1.6,2.47-1.68,4.11-1.4.57.1,1.13.25,1.69.35a3,3,0,0,0,.79,0c.88-.1,1.29-.53,1.4-1.49-.38.2-.73.4-1.09.55-.17.07-.44.12-.55,0s-.12-.37-.09-.55a15,15,0,0,1,.39-1.46.37.37,0,0,0-.19-.49c-.83-.51-1.64-1-2.47-1.55-.2-.13-.38-.27-.3-.54s.32-.26.54-.25l2.84.12c0-.61,0-1.19.1-1.78,0-.16.11-.41.23-.46a.6.6,0,0,1,.49.16c.43.4.83.83,1.17,1.17l2-1.89c.06-.06.11-.15.18-.18s.38-.16.47-.1a.57.57,0,0,1,.17.48c-.12.58-.29,1.16-.45,1.74s-.21.86-.34,1.29a.31.31,0,0,0,.17.43c.47.28.93.56,1.37.87.13.09.28.3.26.41a.62.62,0,0,1-.39.35c-.57.18-1.15.33-1.77.5l.27,2.07a8,8,0,0,1,.11,1c0,.15-.1.39-.2.42a.55.55,0,0,1-.48-.16c-.51-.59-1-1.21-1.48-1.83,0,0-.07.05-.07.08a2.43,2.43,0,0,1-2.89,2c-.78-.07-1.54-.29-2.3-.42a3,3,0,0,0-2.29.33,4.26,4.26,0,0,0-.63.65c.75.65,1.45,1.23,2.13,1.84.39.34.4.56.13,1s-.39.69-.61,1a.31.31,0,0,0,0,.44,11.4,11.4,0,0,1-.31,14.29,10.93,10.93,0,0,1-6.74,3.86A11.38,11.38,0,0,1,197,350.07a11.08,11.08,0,0,1,4-.07.32.32,0,0,0,.4-.18c.2-.37.43-.73.64-1.09s.44-.48.87-.32C203.89,348.76,204.81,349.14,205.78,349.52Zm2.26,2.92a.42.42,0,0,0-.07-.11,12.82,12.82,0,0,0-5-3,.41.41,0,0,0-.33.14c-.25.38-.47.78-.7,1.17a.52.52,0,0,1-.6.29,10.62,10.62,0,0,0-3.73,0A10.26,10.26,0,0,0,189,363.2a10,10,0,0,0,3.67,6.24,10.17,10.17,0,0,0,9.9,1.65,10.28,10.28,0,0,0,7-11.64,10.16,10.16,0,0,0-2.24-4.89.63.63,0,0,1-.06-.84C207.54,353.31,207.78,352.88,208,352.44Zm7.89-4.86.08,0c-.08-.56-.15-1.12-.23-1.68s0-.6.48-.73l1.16-.31c-.41-.26-.72-.48-1.06-.67a.55.55,0,0,1-.28-.72c.19-.64.35-1.29.51-1.89-.41.38-.83.76-1.25,1.16s-.47.31-.78,0l-.85-.84-.11.05c0,.34,0,.69,0,1,0,.58-.1.67-.67.65l-1.57-.08a14.54,14.54,0,0,0,1.66,1.15.48.48,0,0,1,.24.64c-.12.39-.21.79-.32,1.25L214,346c.41-.21.51-.19.79.17Z"/><path class="cls-3" d="M82.9,269.1l-1.06-3.74H77.4l-1.06,3.74H74.06l4.08-14H81.2l4.08,14Zm-3.2-11.7h-.16l-1.72,6.12h3.6Z"/><path class="cls-3" d="M93.9,267.34h-.12a3.71,3.71,0,0,1-1.22,1.47,3.2,3.2,0,0,1-1.9.53,3.51,3.51,0,0,1-2.9-1.36,8.1,8.1,0,0,1,0-8.08,3.53,3.53,0,0,1,2.9-1.36,3.27,3.27,0,0,1,1.9.53,3.86,3.86,0,0,1,1.22,1.47h.12V254.3h2.18v14.8H93.9Zm-2.34.22a3.26,3.26,0,0,0,.9-.12,2.22,2.22,0,0,0,.74-.36,1.82,1.82,0,0,0,.51-.59,1.67,1.67,0,0,0,.19-.83v-3.44a1.7,1.7,0,0,0-.19-.83,1.93,1.93,0,0,0-.51-.59,2.22,2.22,0,0,0-.74-.36,3.26,3.26,0,0,0-.9-.12,2.43,2.43,0,0,0-1.91.76,2.93,2.93,0,0,0-.67,2v1.68a2.92,2.92,0,0,0,.67,2A2.4,2.4,0,0,0,91.56,267.56Z"/><path class="cls-3" d="M102.32,269.1l-3.7-10.32h2.26l1.42,4.36,1.34,4.14h.12l1.34-4.14,1.42-4.36h2.18L105,269.1Z"/><path class="cls-3" d="M115.88,269.34a5.49,5.49,0,0,1-2.12-.38,4.2,4.2,0,0,1-1.58-1.08,4.7,4.7,0,0,1-1-1.69,6.74,6.74,0,0,1-.34-2.23,6.88,6.88,0,0,1,.35-2.24,5.14,5.14,0,0,1,1-1.71,4.32,4.32,0,0,1,1.53-1.09,5.41,5.41,0,0,1,4,0,4.23,4.23,0,0,1,1.5,1,4.85,4.85,0,0,1,.95,1.62,6.26,6.26,0,0,1,.33,2.08v.82h-7.4v.34a2.68,2.68,0,0,0,.76,2,2.84,2.84,0,0,0,2.1.76,3.28,3.28,0,0,0,1.71-.42,3.42,3.42,0,0,0,1.15-1.15l1.36,1.21a4.24,4.24,0,0,1-1.59,1.52A5.27,5.27,0,0,1,115.88,269.34Zm-.16-9.14a2.87,2.87,0,0,0-1.07.2,2.5,2.5,0,0,0-.84.57,2.8,2.8,0,0,0-.55.87,3,3,0,0,0-.2,1.1v.14h5.18v-.2a2.73,2.73,0,0,0-.69-1.95A2.42,2.42,0,0,0,115.72,260.2Z"/><path class="cls-3" d="M123.18,267.32h2.74v-6.76h-2.74v-1.78h4.92v2.74h.12a5.07,5.07,0,0,1,.4-1,3.13,3.13,0,0,1,.66-.87,3.38,3.38,0,0,1,1-.6,3.76,3.76,0,0,1,1.36-.23h1.24v2.08h-2a2.78,2.78,0,0,0-2,.71,2.46,2.46,0,0,0-.76,1.9v3.85h3.74v1.78h-8.66Z"/><path class="cls-3" d="M139.68,269.34a7.07,7.07,0,0,1-2.89-.54,5.18,5.18,0,0,1-1.95-1.44l1.34-1.2a4.61,4.61,0,0,0,1.53,1.13,4.81,4.81,0,0,0,2,.39,3.5,3.5,0,0,0,1.71-.36,1.2,1.2,0,0,0,.65-1.12,1.13,1.13,0,0,0-.12-.54,1.06,1.06,0,0,0-.34-.36,2.38,2.38,0,0,0-.51-.22,5.49,5.49,0,0,0-.61-.12l-1.64-.26a7.82,7.82,0,0,1-1.22-.26,4,4,0,0,1-1.11-.51,2.61,2.61,0,0,1-.8-.85,2.48,2.48,0,0,1-.31-1.32,2.72,2.72,0,0,1,1.21-2.4,5.65,5.65,0,0,1,3.19-.82,6.68,6.68,0,0,1,2.49.43,5,5,0,0,1,1.75,1.19l-1.22,1.28a4.13,4.13,0,0,0-1.14-.85,4.21,4.21,0,0,0-2-.39c-1.45,0-2.18.46-2.18,1.38a.94.94,0,0,0,.47.91,3,3,0,0,0,1.11.33l1.64.26c.41.07.82.16,1.23.26a3.66,3.66,0,0,1,1.1.49,2.71,2.71,0,0,1,.8.85,2.53,2.53,0,0,1,.31,1.32,2.86,2.86,0,0,1-1.21,2.45A5.49,5.49,0,0,1,139.68,269.34Z"/><path class="cls-3" d="M151.88,269.34a5.49,5.49,0,0,1-2.12-.38,4.2,4.2,0,0,1-1.58-1.08,4.7,4.7,0,0,1-1-1.69,6.74,6.74,0,0,1-.34-2.23,6.88,6.88,0,0,1,.35-2.24,5.14,5.14,0,0,1,1-1.71,4.32,4.32,0,0,1,1.53-1.09,5.41,5.41,0,0,1,4,0,4.23,4.23,0,0,1,1.5,1,4.85,4.85,0,0,1,.95,1.62,6.26,6.26,0,0,1,.33,2.08v.82h-7.4v.34a2.68,2.68,0,0,0,.76,2,2.84,2.84,0,0,0,2.1.76,3.28,3.28,0,0,0,1.71-.42,3.42,3.42,0,0,0,1.15-1.15l1.36,1.21a4.24,4.24,0,0,1-1.59,1.52A5.27,5.27,0,0,1,151.88,269.34Zm-.16-9.14a2.87,2.87,0,0,0-1.07.2,2.5,2.5,0,0,0-.84.57,2.8,2.8,0,0,0-.55.87,3,3,0,0,0-.2,1.1v.14h5.18v-.2a2.73,2.73,0,0,0-.69-1.95A2.42,2.42,0,0,0,151.72,260.2Z"/><path class="cls-3" d="M159.18,267.32h2.74v-6.76h-2.74v-1.78h4.92v2.74h.12a5.07,5.07,0,0,1,.4-1,3.13,3.13,0,0,1,.66-.87,3.38,3.38,0,0,1,1-.6,3.76,3.76,0,0,1,1.36-.23h1.24v2.08h-2a2.78,2.78,0,0,0-2,.71,2.46,2.46,0,0,0-.76,1.9v3.85h3.74v1.78h-8.66Z"/><path class="cls-3" d="M171.68,267.32h3.52v-6.76h-3.52v-1.78h5.7v8.54h3.3v1.78h-9Zm4.62-10.42a1.59,1.59,0,0,1-1.17-.34,1.14,1.14,0,0,1-.33-.84v-.42a1.17,1.17,0,0,1,.33-.84,1.59,1.59,0,0,1,1.15-.34,1.63,1.63,0,0,1,1.17.34,1.17,1.17,0,0,1,.33.84v.42a1.14,1.14,0,0,1-.33.84A1.55,1.55,0,0,1,176.3,256.9Z"/><path class="cls-3" d="M191.5,269.1a1.88,1.88,0,0,1-1.41-.48,2.17,2.17,0,0,1-.57-1.26h-.1a2.61,2.61,0,0,1-1.09,1.46,3.58,3.58,0,0,1-2,.52,3.65,3.65,0,0,1-2.52-.83,2.87,2.87,0,0,1-.94-2.29,2.64,2.64,0,0,1,1.11-2.29,6,6,0,0,1,3.41-.79h2v-.8q0-2.1-2.22-2.1a3,3,0,0,0-1.62.39,3.52,3.52,0,0,0-1,1l-1.3-1.06a3.75,3.75,0,0,1,1.48-1.45,5.31,5.31,0,0,1,2.68-.61,4.68,4.68,0,0,1,3.08.94,3.35,3.35,0,0,1,1.12,2.72v5.18h1.3v1.72Zm-4.56-1.36a3,3,0,0,0,1.74-.47,1.46,1.46,0,0,0,.68-1.24v-1.49h-1.94c-1.57,0-2.36.47-2.36,1.41v.4a1.18,1.18,0,0,0,.5,1A2.31,2.31,0,0,0,186.94,267.74Z"/><path class="cls-3" d="M195.16,267.32h3.42V256.08h-3.42V254.3h5.6v13h3.42v1.78h-9Z"/><path class="cls-3" d="M219.38,269.1v-14h8.74V257h-6.5v4.06h6.26V263h-6.26v4.26h6.5v1.88Z"/><path class="cls-3" d="M231.34,269.1V258.78h2.18v1.76h.1a4.41,4.41,0,0,1,.41-.77,2.85,2.85,0,0,1,.61-.64,3,3,0,0,1,.84-.43,3.73,3.73,0,0,1,1.12-.16,3.3,3.3,0,0,1,2.52,1,4.08,4.08,0,0,1,1,2.9v6.64H237.9v-6.32c0-1.64-.71-2.46-2.14-2.46a3.24,3.24,0,0,0-.82.11,2.64,2.64,0,0,0-.72.33,1.82,1.82,0,0,0-.51.56,1.55,1.55,0,0,0-.19.78v7Z"/><path class="cls-3" d="M246.32,269.1l-3.7-10.32h2.26l1.42,4.36,1.34,4.14h.12l1.34-4.14,1.42-4.36h2.18L249,269.1Z"/><rect class="cls-4" x="374.16" y="48.15" width="215" height="95.5"/><path class="cls-3" d="M446.06,81.21a4.45,4.45,0,0,1-3.95-1.88A9.36,9.36,0,0,1,440.82,74a9.41,9.41,0,0,1,1.29-5.34,4.47,4.47,0,0,1,3.95-1.88,5.23,5.23,0,0,1,1.77.27,4.05,4.05,0,0,1,1.29.73,4.21,4.21,0,0,1,.91,1.1,6.53,6.53,0,0,1,.61,1.34l-2,.68a6,6,0,0,0-.36-.9,2.5,2.5,0,0,0-.5-.72,2.22,2.22,0,0,0-.71-.48,2.5,2.5,0,0,0-1-.18,2.34,2.34,0,0,0-2.16,1.14,5.93,5.93,0,0,0-.68,3.06v2.37a6,6,0,0,0,.68,3.06A2.34,2.34,0,0,0,446,79.37a2.5,2.5,0,0,0,1-.18,2.22,2.22,0,0,0,.71-.48,2.5,2.5,0,0,0,.5-.72,6,6,0,0,0,.36-.9l2,.68a6.87,6.87,0,0,1-.61,1.35,4.16,4.16,0,0,1-.91,1.09,4.07,4.07,0,0,1-1.29.74A5.5,5.5,0,0,1,446.06,81.21Z"/><path class="cls-3" d="M457.66,81.21a5.17,5.17,0,0,1-2.05-.38,4.13,4.13,0,0,1-1.54-1.08,4.79,4.79,0,0,1-1-1.7,7.07,7.07,0,0,1-.34-2.24,7.16,7.16,0,0,1,.34-2.24,5,5,0,0,1,1-1.7,4.37,4.37,0,0,1,1.54-1.08,5.72,5.72,0,0,1,4.1,0,4.37,4.37,0,0,1,1.54,1.08,4.81,4.81,0,0,1,1,1.7,6.88,6.88,0,0,1,.34,2.24,6.8,6.8,0,0,1-.34,2.24,4.64,4.64,0,0,1-1,1.7,4.13,4.13,0,0,1-1.54,1.08A5.13,5.13,0,0,1,457.66,81.21Zm0-1.72a2.52,2.52,0,0,0,1.91-.73,3,3,0,0,0,.71-2.17V75a3,3,0,0,0-.71-2.17,2.86,2.86,0,0,0-3.82,0A3,3,0,0,0,455,75v1.56a3,3,0,0,0,.71,2.17A2.54,2.54,0,0,0,457.66,79.49Z"/><path class="cls-3" d="M465.34,81V70.65h2.18v1.76h.1a5.2,5.2,0,0,1,.41-.77,2.85,2.85,0,0,1,.61-.64,3,3,0,0,1,.84-.43,3.73,3.73,0,0,1,1.12-.16,3.3,3.3,0,0,1,2.52,1,4.08,4.08,0,0,1,1,2.9V81H471.9V74.65c0-1.64-.71-2.46-2.14-2.46a3.24,3.24,0,0,0-.82.11,2.79,2.79,0,0,0-.72.33,1.82,1.82,0,0,0-.51.56,1.67,1.67,0,0,0-.19.78v7Z"/><path class="cls-3" d="M477.22,79.19h3.3V72.43H477V70.65h3.5V68.79a2.81,2.81,0,0,1,.64-1.89,2.55,2.55,0,0,1,2-.73h3.48V68H482.7v2.7h3.94v1.78H482.7v6.76h3.48V81h-9Z"/><path class="cls-3" d="M489.68,79.19h3.52V72.43h-3.52V70.65h5.7v8.54h3.3V81h-9Zm4.62-10.42a1.59,1.59,0,0,1-1.17-.34,1.14,1.14,0,0,1-.33-.84v-.42a1.17,1.17,0,0,1,.33-.84,1.61,1.61,0,0,1,1.15-.34,1.63,1.63,0,0,1,1.17.34,1.17,1.17,0,0,1,.33.84v.42a1.14,1.14,0,0,1-.33.84A1.55,1.55,0,0,1,494.3,68.77Z"/><path class="cls-3" d="M511.06,82.09a2.51,2.51,0,0,1-1.34,2.36,8.46,8.46,0,0,1-4.08.76,12,12,0,0,1-2.25-.17,4.67,4.67,0,0,1-1.48-.49,2,2,0,0,1-.82-.78,2.08,2.08,0,0,1-.25-1,1.79,1.79,0,0,1,.47-1.31,2.94,2.94,0,0,1,1.33-.69v-.2a2.07,2.07,0,0,1-.83-.56,1.42,1.42,0,0,1-.31-.94,1.35,1.35,0,0,1,.52-1.15,3.85,3.85,0,0,1,1.34-.59v-.1A3.42,3.42,0,0,1,501.9,76a3.48,3.48,0,0,1-.52-1.92,3.64,3.64,0,0,1,.3-1.49,3.41,3.41,0,0,1,.85-1.14,4.21,4.21,0,0,1,1.32-.73,5.51,5.51,0,0,1,1.73-.26,5.37,5.37,0,0,1,1.94.34v-.34a1.48,1.48,0,0,1,.34-1,1.33,1.33,0,0,1,1-.4h1.88v1.72h-2.4v.48a3.07,3.07,0,0,1,1,1.17,3.64,3.64,0,0,1,.36,1.65,3.57,3.57,0,0,1-.3,1.49,3.11,3.11,0,0,1-.85,1.14,3.51,3.51,0,0,1-1.32.72,5.48,5.48,0,0,1-1.73.25,6.55,6.55,0,0,1-1.28-.12,2.61,2.61,0,0,0-.72.34.75.75,0,0,0-.36.66.57.57,0,0,0,.46.6,4.63,4.63,0,0,0,1.14.12h2.32a4.61,4.61,0,0,1,3,.79A2.62,2.62,0,0,1,511.06,82.09Zm-2,.13a1,1,0,0,0-.42-.84,2.73,2.73,0,0,0-1.52-.31H503.5a1.22,1.22,0,0,0-.76,1.17,1.31,1.31,0,0,0,.49,1,2.51,2.51,0,0,0,1.63.42h1.62a3.83,3.83,0,0,0,1.89-.37A1.17,1.17,0,0,0,509,82.22Zm-3.44-6.09a2.09,2.09,0,0,0,1.56-.5,1.78,1.78,0,0,0,.5-1.34v-.54a1.8,1.8,0,0,0-.5-1.34,2.13,2.13,0,0,0-1.56-.5,2.16,2.16,0,0,0-1.56.5,1.83,1.83,0,0,0-.5,1.34v.54a1.82,1.82,0,0,0,.5,1.34A2.12,2.12,0,0,0,505.58,76.13Z"/><path class="cls-3" d="M517.66,73.73a1.83,1.83,0,0,1-1.35-.4,1.33,1.33,0,0,1-.39-1v-.52a1.37,1.37,0,0,1,.39-1,2.48,2.48,0,0,1,2.7,0,1.37,1.37,0,0,1,.39,1v.52a1.33,1.33,0,0,1-.39,1A1.83,1.83,0,0,1,517.66,73.73Zm0,7.44a1.83,1.83,0,0,1-1.35-.4,1.33,1.33,0,0,1-.39-1v-.52a1.37,1.37,0,0,1,.39-1,2.48,2.48,0,0,1,2.7,0,1.37,1.37,0,0,1,.39,1v.52a1.33,1.33,0,0,1-.39,1A1.83,1.83,0,0,1,517.66,81.17Z"/><path class="cls-3" d="M421.65,96.17V94.43h4.83v1.74Z"/><path class="cls-3" d="M430.24,100.17V89h7v1.51H432v3.25h5v1.5h-5v3.41h5.2v1.5Z"/><path class="cls-3" d="M439.73,91.92h1.74v1.41h.1a2.93,2.93,0,0,1,1-1.18,2.62,2.62,0,0,1,1.52-.43,2.82,2.82,0,0,1,2.32,1.09,6.45,6.45,0,0,1,0,6.47,2.82,2.82,0,0,1-2.32,1.09,2.62,2.62,0,0,1-1.52-.43,2.93,2.93,0,0,1-1-1.18h-.1v4.61h-1.74Zm3.61,7a1.92,1.92,0,0,0,1.53-.61,2.32,2.32,0,0,0,.54-1.61V95.37a2.32,2.32,0,0,0-.54-1.61,1.92,1.92,0,0,0-1.53-.61,2.46,2.46,0,0,0-.72.1,1.89,1.89,0,0,0-.59.28,1.53,1.53,0,0,0-.41.47,1.41,1.41,0,0,0-.15.67v2.75a1.34,1.34,0,0,0,.15.66,1.46,1.46,0,0,0,.41.48,1.89,1.89,0,0,0,.59.28A2.46,2.46,0,0,0,443.34,98.94Z"/><path class="cls-3" d="M449.68,98.75h2.81V93.34h-2.81V91.92h4.56v6.83h2.64v1.42h-7.2Zm3.69-8.34a1.28,1.28,0,0,1-.93-.27.9.9,0,0,1-.27-.67v-.34a.92.92,0,0,1,.27-.67,1.72,1.72,0,0,1,1.85,0,.92.92,0,0,1,.27.67v.34a.9.9,0,0,1-.27.67A1.25,1.25,0,0,1,453.37,90.41Z"/><path class="cls-3" d="M462.48,100.37a5.57,5.57,0,0,1-2.31-.44,4.13,4.13,0,0,1-1.56-1.15l1.07-1a3.61,3.61,0,0,0,1.22.9,3.79,3.79,0,0,0,1.61.32,2.87,2.87,0,0,0,1.37-.29,1,1,0,0,0,.52-.9.83.83,0,0,0-.1-.43.75.75,0,0,0-.27-.29,1.53,1.53,0,0,0-.41-.17,2.5,2.5,0,0,0-.49-.1l-1.31-.21a7.42,7.42,0,0,1-1-.2A3.39,3.39,0,0,1,460,96a2.19,2.19,0,0,1-.64-.68,2,2,0,0,1-.25-1.06,2.17,2.17,0,0,1,1-1.92,4.42,4.42,0,0,1,2.55-.66,5.21,5.21,0,0,1,2,.35,3.9,3.9,0,0,1,1.4,1l-1,1a2.94,2.94,0,0,0-.91-.67,3.29,3.29,0,0,0-1.56-.32c-1.17,0-1.75.37-1.75,1.11a.74.74,0,0,0,.38.72,2.33,2.33,0,0,0,.89.27l1.31.21c.33,0,.66.12,1,.2a2.83,2.83,0,0,1,.88.4,2,2,0,0,1,.64.68,2,2,0,0,1,.25,1,2.29,2.29,0,0,1-1,2A4.36,4.36,0,0,1,462.48,100.37Z"/><path class="cls-3" d="M472.06,100.37a4.28,4.28,0,0,1-1.64-.31,3.37,3.37,0,0,1-1.23-.86,3.88,3.88,0,0,1-.78-1.36,6.1,6.1,0,0,1,0-3.59,3.88,3.88,0,0,1,.78-1.36,3.37,3.37,0,0,1,1.23-.86,4.49,4.49,0,0,1,3.28,0,3.29,3.29,0,0,1,1.23.86,3.88,3.88,0,0,1,.78,1.36,6.1,6.1,0,0,1,0,3.59,3.88,3.88,0,0,1-.78,1.36,3.29,3.29,0,0,1-1.23.86A4.28,4.28,0,0,1,472.06,100.37Zm0-1.38a2.07,2.07,0,0,0,1.53-.58,2.4,2.4,0,0,0,.57-1.74V95.42a2.4,2.4,0,0,0-.57-1.74,2.31,2.31,0,0,0-3.06,0,2.4,2.4,0,0,0-.57,1.74v1.25a2.4,2.4,0,0,0,.57,1.74A2.07,2.07,0,0,0,472.06,99Z"/><path class="cls-3" d="M483.45,98.76h-.09a3,3,0,0,1-1,1.18,2.62,2.62,0,0,1-1.52.43,2.83,2.83,0,0,1-2.32-1.09,6.51,6.51,0,0,1,0-6.47,2.83,2.83,0,0,1,2.32-1.09,2.62,2.62,0,0,1,1.52.43,3,3,0,0,1,1,1.18h.09v-5h1.75v11.84h-1.75Zm-1.87.18a2.37,2.37,0,0,0,.72-.1,1.89,1.89,0,0,0,.59-.28,1.46,1.46,0,0,0,.41-.48,1.34,1.34,0,0,0,.15-.66V94.67a1.41,1.41,0,0,0-.15-.67,1.53,1.53,0,0,0-.41-.47,1.89,1.89,0,0,0-.59-.28,2.37,2.37,0,0,0-.72-.1,1.92,1.92,0,0,0-1.53.61,2.37,2.37,0,0,0-.53,1.61v1.35a2.37,2.37,0,0,0,.53,1.61A1.92,1.92,0,0,0,481.58,98.94Z"/><path class="cls-3" d="M491.44,100.37a4.56,4.56,0,0,1-1.7-.31,3.41,3.41,0,0,1-1.26-.86,3.75,3.75,0,0,1-.79-1.36,5.46,5.46,0,0,1-.27-1.78,5.3,5.3,0,0,1,.28-1.79,4.26,4.26,0,0,1,.78-1.37,3.36,3.36,0,0,1,1.23-.87,4.11,4.11,0,0,1,1.6-.31,4,4,0,0,1,1.57.3,3.52,3.52,0,0,1,1.2.84,3.81,3.81,0,0,1,.76,1.3,5.12,5.12,0,0,1,.26,1.66v.66h-5.92v.27a2.14,2.14,0,0,0,.61,1.58,2.24,2.24,0,0,0,1.68.61,2.6,2.6,0,0,0,1.37-.34,2.86,2.86,0,0,0,.92-.91l1.08,1a3.32,3.32,0,0,1-1.27,1.22A4.2,4.2,0,0,1,491.44,100.37Zm-.13-7.32a2.39,2.39,0,0,0-.86.16,2,2,0,0,0-.67.46,2.19,2.19,0,0,0-.44.7,2.23,2.23,0,0,0-.16.88v.11h4.14V95.2a2.17,2.17,0,0,0-.55-1.56A1.91,1.91,0,0,0,491.31,93.05Z"/><path class="cls-3" d="M506.88,98.75h2.19V93.34h-2.19V91.92h3.93v2.19h.1a3.48,3.48,0,0,1,.32-.83,2.61,2.61,0,0,1,.52-.7,2.49,2.49,0,0,1,.79-.48,3,3,0,0,1,1.09-.18h1v1.66H513a2.2,2.2,0,0,0-1.57.57,2,2,0,0,0-.61,1.52v3.08h3v1.42h-6.92Z"/><path class="cls-3" d="M521.77,98.76h-.08a2.65,2.65,0,0,1-.33.62,1.94,1.94,0,0,1-.48.51,2.43,2.43,0,0,1-.68.35,2.93,2.93,0,0,1-.89.13,2.65,2.65,0,0,1-2-.82,3.28,3.28,0,0,1-.77-2.32V91.92h1.75v5c0,1.32.57,2,1.71,2a2.37,2.37,0,0,0,.65-.09,1.8,1.8,0,0,0,.58-.26,1.33,1.33,0,0,0,.41-.44,1.28,1.28,0,0,0,.15-.63v-5.6h1.74v8.25h-1.74Z"/><path class="cls-3" d="M526.2,100.17V91.92H528v1.41H528a3,3,0,0,1,.32-.62,2.16,2.16,0,0,1,.49-.51,2.37,2.37,0,0,1,.67-.35,3,3,0,0,1,.9-.13,2.68,2.68,0,0,1,2,.82,3.26,3.26,0,0,1,.76,2.32v5.31h-1.74v-5c0-1.32-.57-2-1.71-2a2.44,2.44,0,0,0-.66.09,1.85,1.85,0,0,0-.57.26,1.36,1.36,0,0,0-.41.45,1.26,1.26,0,0,0-.15.62v5.6Z"/><path class="cls-3" d="M539.27,100.37a5.63,5.63,0,0,1-2.31-.44,4.29,4.29,0,0,1-1.56-1.15l1.07-1a3.65,3.65,0,0,0,1.23.9,3.79,3.79,0,0,0,1.61.32,2.8,2.8,0,0,0,1.36-.29,1,1,0,0,0,.43-1.33.94.94,0,0,0-.27-.29,1.68,1.68,0,0,0-.41-.17,2.66,2.66,0,0,0-.49-.1l-1.31-.21a7.1,7.1,0,0,1-1-.2,3.62,3.62,0,0,1-.89-.41,2.31,2.31,0,0,1-.64-.68,2.11,2.11,0,0,1-.24-1.06,2.18,2.18,0,0,1,1-1.92,4.48,4.48,0,0,1,2.56-.66,5.24,5.24,0,0,1,2,.35,4,4,0,0,1,1.4,1l-1,1a3.07,3.07,0,0,0-.91-.67,3.34,3.34,0,0,0-1.57-.32q-1.74,0-1.74,1.11a.73.73,0,0,0,.37.72,2.38,2.38,0,0,0,.89.27l1.31.21c.33,0,.66.12,1,.2a2.94,2.94,0,0,1,.88.4,2.09,2.09,0,0,1,.64.68,2.06,2.06,0,0,1,.25,1,2.31,2.31,0,0,1-1,2A4.41,4.41,0,0,1,539.27,100.37Z"/><path class="cls-3" d="M392.85,115.37v-1.74h4.83v1.74Z"/><path class="cls-3" d="M401.44,119.37V108.21h7v1.5h-5.2V113h5v1.5h-5v3.41h5.2v1.5Z"/><path class="cls-3" d="M410.38,119.37l3.07-4.19-2.94-4.06h2l1.09,1.56.86,1.25h.1l.85-1.25,1.09-1.56h1.88l-3,4,3.11,4.25h-2.05l-1.23-1.77-.85-1.22h-.1l-.83,1.22-1.21,1.77Z"/><path class="cls-3" d="M420.53,111.12h1.74v1.41h.1a2.93,2.93,0,0,1,1-1.18,2.62,2.62,0,0,1,1.52-.43,2.82,2.82,0,0,1,2.32,1.09,6.45,6.45,0,0,1,0,6.47,2.82,2.82,0,0,1-2.32,1.09,2.62,2.62,0,0,1-1.52-.43,2.93,2.93,0,0,1-1-1.18h-.1v4.61h-1.74Zm3.61,7a1.92,1.92,0,0,0,1.53-.61,2.32,2.32,0,0,0,.54-1.61v-1.35a2.32,2.32,0,0,0-.54-1.61,1.92,1.92,0,0,0-1.53-.61,2.46,2.46,0,0,0-.72.1,1.89,1.89,0,0,0-.59.28,1.46,1.46,0,0,0-.41.48,1.34,1.34,0,0,0-.15.66v2.75a1.41,1.41,0,0,0,.15.67,1.53,1.53,0,0,0,.41.47,1.89,1.89,0,0,0,.59.28A2.46,2.46,0,0,0,424.14,118.14Z"/><path class="cls-3" d="M430.06,118h2.74v-9h-2.74v-1.43h4.48V118h2.74v1.42h-7.22Z"/><path class="cls-3" d="M443.26,119.57a4.28,4.28,0,0,1-1.64-.31,3.37,3.37,0,0,1-1.23-.86,3.88,3.88,0,0,1-.78-1.36,6.1,6.1,0,0,1,0-3.59,3.88,3.88,0,0,1,.78-1.36,3.37,3.37,0,0,1,1.23-.86,4.49,4.49,0,0,1,3.28,0,3.29,3.29,0,0,1,1.23.86,3.88,3.88,0,0,1,.78,1.36,6.1,6.1,0,0,1,0,3.59,3.88,3.88,0,0,1-.78,1.36,3.29,3.29,0,0,1-1.23.86A4.24,4.24,0,0,1,443.26,119.57Zm0-1.38a2.07,2.07,0,0,0,1.53-.58,2.4,2.4,0,0,0,.57-1.74v-1.25a2.4,2.4,0,0,0-.57-1.74,2.31,2.31,0,0,0-3.06,0,2.4,2.4,0,0,0-.56,1.74v1.25a2.4,2.4,0,0,0,.56,1.74A2.07,2.07,0,0,0,443.26,118.19Z"/><path class="cls-3" d="M449.28,118h2.19v-5.41h-2.19v-1.42h3.93v2.19h.1a3.48,3.48,0,0,1,.32-.83,2.44,2.44,0,0,1,.53-.7,2.34,2.34,0,0,1,.78-.48,3,3,0,0,1,1.09-.18h1v1.66h-1.63a2.21,2.21,0,0,0-1.57.57,2,2,0,0,0-.61,1.52V118h3v1.42h-6.92Z"/><path class="cls-3" d="M465.53,119.37a1.5,1.5,0,0,1-1.13-.38,1.69,1.69,0,0,1-.45-1h-.08a2.15,2.15,0,0,1-.87,1.17,2.88,2.88,0,0,1-1.61.42,3,3,0,0,1-2-.67,2.31,2.31,0,0,1-.75-1.83,2.11,2.11,0,0,1,.89-1.83,4.74,4.74,0,0,1,2.73-.63h1.58V114c0-1.12-.59-1.67-1.78-1.67a2.37,2.37,0,0,0-1.29.31,2.6,2.6,0,0,0-.83.82l-1-.85a3.06,3.06,0,0,1,1.18-1.16,4.24,4.24,0,0,1,2.14-.49,3.74,3.74,0,0,1,2.47.76,2.65,2.65,0,0,1,.89,2.17V118h1v1.37Zm-3.65-1.08a2.36,2.36,0,0,0,1.4-.39,1.15,1.15,0,0,0,.54-1v-1.2h-1.55c-1.26,0-1.89.38-1.89,1.13v.32a1,1,0,0,0,.4.84A2,2,0,0,0,461.88,118.29Z"/><path class="cls-3" d="M472.56,119.37a2,2,0,0,1-1.6-.58,2.17,2.17,0,0,1-.52-1.51v-4.74H467.9v-1.42h1.81a.87.87,0,0,0,.65-.19.88.88,0,0,0,.2-.66v-2.06h1.63v2.91h3.52v1.42h-3.52V118h3.52v1.42Z"/><path class="cls-3" d="M478.48,118h2.81v-5.41h-2.81v-1.42H483V118h2.64v1.42h-7.2Zm3.69-8.34a1.26,1.26,0,0,1-.93-.27.9.9,0,0,1-.27-.67v-.34a.92.92,0,0,1,.27-.67,1.25,1.25,0,0,1,.92-.27,1.28,1.28,0,0,1,.93.27.92.92,0,0,1,.27.67v.34a.9.9,0,0,1-.27.67A1.25,1.25,0,0,1,482.17,109.61Z"/><path class="cls-3" d="M491.26,119.57a4.24,4.24,0,0,1-1.64-.31,3.29,3.29,0,0,1-1.23-.86,3.88,3.88,0,0,1-.78-1.36,6.1,6.1,0,0,1,0-3.59,3.88,3.88,0,0,1,.78-1.36,3.29,3.29,0,0,1,1.23-.86,4.49,4.49,0,0,1,3.28,0,3.37,3.37,0,0,1,1.23.86,3.88,3.88,0,0,1,.78,1.36,6.1,6.1,0,0,1,0,3.59,3.88,3.88,0,0,1-.78,1.36,3.37,3.37,0,0,1-1.23.86A4.28,4.28,0,0,1,491.26,119.57Zm0-1.38a2.07,2.07,0,0,0,1.53-.58,2.4,2.4,0,0,0,.57-1.74v-1.25a2.4,2.4,0,0,0-.57-1.74,2.31,2.31,0,0,0-3.06,0,2.4,2.4,0,0,0-.57,1.74v1.25a2.4,2.4,0,0,0,.57,1.74A2.07,2.07,0,0,0,491.26,118.19Z"/><path class="cls-3" d="M497.4,119.37v-8.25h1.75v1.41h.08a3,3,0,0,1,.32-.62,2.16,2.16,0,0,1,.49-.51,2.37,2.37,0,0,1,.67-.35,3,3,0,0,1,.9-.13,2.68,2.68,0,0,1,2,.82,3.28,3.28,0,0,1,.76,2.32v5.31h-1.74v-5.05c0-1.32-.57-2-1.71-2a2.44,2.44,0,0,0-.66.09,1.85,1.85,0,0,0-.57.26,1.36,1.36,0,0,0-.41.45,1.26,1.26,0,0,0-.15.62v5.6Z"/><path class="cls-3" d="M516.6,119.37V108.21h4.18a3.18,3.18,0,0,1,2.44.89,4,4,0,0,1,0,4.92,3.22,3.22,0,0,1-2.44.89h-2.39v4.46Zm1.79-5.93h2.12c1.11,0,1.66-.52,1.66-1.55v-.69c0-1-.55-1.52-1.66-1.52h-2.12Z"/><path class="cls-3" d="M532.73,119.37a1.5,1.5,0,0,1-1.13-.38,1.69,1.69,0,0,1-.45-1h-.08a2.16,2.16,0,0,1-.88,1.17,2.82,2.82,0,0,1-1.6.42,3,3,0,0,1-2-.67,2.31,2.31,0,0,1-.75-1.83,2.09,2.09,0,0,1,.89-1.83,4.73,4.73,0,0,1,2.72-.63H531V114c0-1.12-.59-1.67-1.78-1.67a2.37,2.37,0,0,0-1.29.31,2.63,2.63,0,0,0-.84.82l-1-.85a3.09,3.09,0,0,1,1.19-1.16,4.24,4.24,0,0,1,2.14-.49,3.74,3.74,0,0,1,2.47.76,2.68,2.68,0,0,1,.89,2.17V118h1v1.37Zm-3.65-1.08a2.31,2.31,0,0,0,1.39-.39,1.14,1.14,0,0,0,.55-1v-1.2h-1.55c-1.26,0-1.89.38-1.89,1.13v.32a1,1,0,0,0,.4.84A1.92,1.92,0,0,0,529.08,118.29Z"/><path class="cls-3" d="M535.67,118h2.2v-5.41h-2.2v-1.42h3.94v2.19h.1a3.48,3.48,0,0,1,.32-.83,2.41,2.41,0,0,1,.52-.7,2.49,2.49,0,0,1,.79-.48,3,3,0,0,1,1.08-.18h1v1.66h-1.63a2.2,2.2,0,0,0-1.57.57,2,2,0,0,0-.61,1.52V118h3v1.42h-6.93Z"/><path class="cls-3" d="M551.93,119.37a1.5,1.5,0,0,1-1.13-.38,1.76,1.76,0,0,1-.46-1h-.08a2.15,2.15,0,0,1-.87,1.17,2.83,2.83,0,0,1-1.61.42,2.94,2.94,0,0,1-2-.67,2.31,2.31,0,0,1-.75-1.83,2.1,2.1,0,0,1,.88-1.83,4.79,4.79,0,0,1,2.73-.63h1.59V114c0-1.12-.59-1.67-1.78-1.67a2.43,2.43,0,0,0-1.3.31,2.7,2.7,0,0,0-.83.82l-1-.85a3.09,3.09,0,0,1,1.19-1.16,4.24,4.24,0,0,1,2.14-.49,3.69,3.69,0,0,1,2.46.76,2.66,2.66,0,0,1,.9,2.17V118h1v1.37Zm-3.65-1.08a2.31,2.31,0,0,0,1.39-.39,1.14,1.14,0,0,0,.55-1v-1.2h-1.55c-1.26,0-1.89.38-1.89,1.13v.32a1,1,0,0,0,.4.84A1.92,1.92,0,0,0,548.28,118.29Z"/><path class="cls-3" d="M554.36,119.37v-8.25h1.49v1.07h.08a2.57,2.57,0,0,1,.55-.9,1.39,1.39,0,0,1,1-.37,1.35,1.35,0,0,1,1,.37,1.66,1.66,0,0,1,.45,1h.07a2.85,2.85,0,0,1,.62-1,1.59,1.59,0,0,1,1.15-.4,1.41,1.41,0,0,1,1.34.68,4.09,4.09,0,0,1,.38,2v5.8h-1.49v-5.58a2.37,2.37,0,0,0-.21-1.19.73.73,0,0,0-.67-.33.94.94,0,0,0-.7.28,1.18,1.18,0,0,0-.28.84v6H557.7v-5.58a2.39,2.39,0,0,0-.2-1.19.7.7,0,0,0-.66-.33.93.93,0,0,0-.71.28,1.14,1.14,0,0,0-.28.84v6Z"/><path class="cls-3" d="M568.07,119.57a5.63,5.63,0,0,1-2.31-.44A4.13,4.13,0,0,1,564.2,118l1.07-1a3.55,3.55,0,0,0,1.23.9,3.77,3.77,0,0,0,1.6.32,2.82,2.82,0,0,0,1.37-.29,1,1,0,0,0,.43-1.33.86.86,0,0,0-.28-.29,1.46,1.46,0,0,0-.4-.17,2.66,2.66,0,0,0-.49-.1l-1.31-.21a7.1,7.1,0,0,1-1-.2,3.46,3.46,0,0,1-.89-.41,2.31,2.31,0,0,1-.64-.68,2.1,2.1,0,0,1-.25-1.06,2.19,2.19,0,0,1,1-1.92,4.47,4.47,0,0,1,2.55-.66,5.26,5.26,0,0,1,2,.35,4,4,0,0,1,1.4,1l-1,1a2.92,2.92,0,0,0-.91-.68,3.37,3.37,0,0,0-1.57-.32q-1.74,0-1.74,1.11a.73.73,0,0,0,.37.72,2.38,2.38,0,0,0,.89.27l1.31.21c.33,0,.66.12,1,.2a3.05,3.05,0,0,1,.88.4,2.09,2.09,0,0,1,.64.68,2.07,2.07,0,0,1,.24,1,2.3,2.3,0,0,1-1,2A4.41,4.41,0,0,1,568.07,119.57Z"/><rect class="cls-4" x="373.99" y="189.99" width="215" height="95.5"/><path class="cls-3" d="M396.6,233.6V221h4.7a3.57,3.57,0,0,1,2.74,1,4.5,4.5,0,0,1,0,5.53,3.58,3.58,0,0,1-2.74,1h-2.68v5Zm2-6.68H401c1.25,0,1.87-.57,1.87-1.73v-.78c0-1.14-.62-1.72-1.87-1.72h-2.37Z"/><path class="cls-3" d="M411.29,233.82a4.92,4.92,0,0,1-1.85-.34,3.82,3.82,0,0,1-1.38-1,4.42,4.42,0,0,1-.88-1.53,6.92,6.92,0,0,1,0-4,4.42,4.42,0,0,1,.88-1.53,3.79,3.79,0,0,1,1.38-1,4.73,4.73,0,0,1,1.85-.34,4.68,4.68,0,0,1,1.84.34,3.83,3.83,0,0,1,1.39,1,4.25,4.25,0,0,1,.87,1.53,6.7,6.7,0,0,1,0,4,4.25,4.25,0,0,1-.87,1.53,3.85,3.85,0,0,1-1.39,1A4.87,4.87,0,0,1,411.29,233.82Zm0-1.55a2.29,2.29,0,0,0,1.72-.66,2.72,2.72,0,0,0,.64-2v-1.4a2.73,2.73,0,0,0-.64-2,2.6,2.6,0,0,0-3.44,0,2.69,2.69,0,0,0-.64,2v1.4a2.68,2.68,0,0,0,.64,2A2.28,2.28,0,0,0,411.29,232.27Z"/><path class="cls-3" d="M418,232h3.08V221.88H418v-1.6h5V232h3.08v1.6H418Z"/><path class="cls-3" d="M429.31,232h3.16v-6.08h-3.16v-1.61h5.13V232h3v1.6h-8.1Zm4.15-9.38a1.46,1.46,0,0,1-1-.3,1.06,1.06,0,0,1-.3-.76v-.38a1,1,0,0,1,.3-.75,1.39,1.39,0,0,1,1-.31,1.42,1.42,0,0,1,1.05.31,1,1,0,0,1,.3.75v.38a1.06,1.06,0,0,1-.3.76A1.44,1.44,0,0,1,433.46,222.62Z"/><path class="cls-3" d="M444,233.82a4.9,4.9,0,0,1-1.86-.34,3.85,3.85,0,0,1-1.39-1,4.09,4.09,0,0,1-.86-1.53,6.92,6.92,0,0,1,0-4,4.09,4.09,0,0,1,.86-1.53,3.83,3.83,0,0,1,1.39-1,4.68,4.68,0,0,1,1.84-.34,4,4,0,0,1,2.31.6,3.73,3.73,0,0,1,1.31,1.58l-1.53.82a2.21,2.21,0,0,0-.77-1,2.17,2.17,0,0,0-1.32-.38,2.23,2.23,0,0,0-1.73.68,2.61,2.61,0,0,0-.61,1.8v1.56a2.64,2.64,0,0,0,.61,1.79,2.25,2.25,0,0,0,1.77.69,2.4,2.4,0,0,0,1.41-.4,2.61,2.61,0,0,0,.87-1.08l1.44.88a3.77,3.77,0,0,1-1.36,1.58A4.23,4.23,0,0,1,444,233.82Z"/><path class="cls-3" d="M457.21,224.31h2l-4.5,11.09a3.1,3.1,0,0,1-.94,1.35,2.71,2.71,0,0,1-1.68.45h-1.57v-1.6h2.2l.84-2.12-3.74-9.17h2l1.48,3.89,1.15,3.19h.11l1.15-3.19Z"/><path class="cls-3" d="M472.16,221h3.75a4.11,4.11,0,0,1,3.57,1.6,10,10,0,0,1,0,9.36,4.11,4.11,0,0,1-3.57,1.6h-3.75ZM475.78,232a2.38,2.38,0,0,0,2.06-.93,4.46,4.46,0,0,0,.68-2.66v-2.08a4.46,4.46,0,0,0-.68-2.66,2.38,2.38,0,0,0-2.06-.93h-1.62V232Z"/><path class="cls-3" d="M490.34,233.6a1.71,1.71,0,0,1-1.27-.43,1.94,1.94,0,0,1-.51-1.13h-.09a2.41,2.41,0,0,1-1,1.31,3.24,3.24,0,0,1-1.81.47,3.31,3.31,0,0,1-2.27-.75,2.61,2.61,0,0,1-.84-2.06,2.36,2.36,0,0,1,1-2.06,5.24,5.24,0,0,1,3.06-.71h1.79v-.72c0-1.26-.67-1.89-2-1.89A2.65,2.65,0,0,0,485,226a3.08,3.08,0,0,0-.94.93l-1.17-1a3.36,3.36,0,0,1,1.34-1.3,4.65,4.65,0,0,1,2.41-.55,4.2,4.2,0,0,1,2.77.84,3,3,0,0,1,1,2.45v4.66h1.17v1.55Zm-4.1-1.22a2.69,2.69,0,0,0,1.56-.43,1.32,1.32,0,0,0,.62-1.11V229.5h-1.75c-1.42,0-2.12.42-2.12,1.27v.36a1.05,1.05,0,0,0,.45.93A2.13,2.13,0,0,0,486.24,232.38Z"/><path class="cls-3" d="M498.24,233.6a2.31,2.31,0,0,1-1.8-.65,2.51,2.51,0,0,1-.57-1.7v-5.33H493v-1.61h2a.78.78,0,0,0,.95-.95V221h1.84v3.27h4v1.61h-4V232h4v1.6Z"/><path class="cls-3" d="M511.94,233.6a1.71,1.71,0,0,1-1.27-.43,1.94,1.94,0,0,1-.51-1.13h-.09a2.41,2.41,0,0,1-1,1.31,3.24,3.24,0,0,1-1.81.47,3.31,3.31,0,0,1-2.27-.75,2.61,2.61,0,0,1-.84-2.06,2.36,2.36,0,0,1,1-2.06,5.24,5.24,0,0,1,3.06-.71H510v-.72c0-1.26-.67-1.89-2-1.89a2.65,2.65,0,0,0-1.46.35,3.08,3.08,0,0,0-.94.93l-1.17-1a3.36,3.36,0,0,1,1.34-1.3,4.65,4.65,0,0,1,2.41-.55,4.2,4.2,0,0,1,2.77.84,3,3,0,0,1,1,2.45v4.66h1.17v1.55Zm-4.1-1.22a2.69,2.69,0,0,0,1.56-.43,1.32,1.32,0,0,0,.62-1.11V229.5h-1.75c-1.42,0-2.12.42-2.12,1.27v.36a1.05,1.05,0,0,0,.45.93A2.13,2.13,0,0,0,507.84,232.38Z"/><path class="cls-3" d="M515.31,224.31h2v1.59h.11a3.3,3.3,0,0,1,1.1-1.33,3,3,0,0,1,1.71-.47,3.18,3.18,0,0,1,2.61,1.22,7.3,7.3,0,0,1,0,7.27,3.16,3.16,0,0,1-2.61,1.23,2.88,2.88,0,0,1-1.71-.48,3.34,3.34,0,0,1-1.1-1.32h-.11v5.18h-2Zm4.07,7.91a2.14,2.14,0,0,0,1.71-.69,2.6,2.6,0,0,0,.61-1.82V228.2a2.64,2.64,0,0,0-.61-1.82,2.17,2.17,0,0,0-1.71-.68,3,3,0,0,0-.81.11,2,2,0,0,0-.67.32,1.66,1.66,0,0,0-.46.53,1.6,1.6,0,0,0-.17.75v3.1a1.58,1.58,0,0,0,.17.74,1.56,1.56,0,0,0,.46.53,1.83,1.83,0,0,0,.67.33A3,3,0,0,0,519.38,232.22Z"/><path class="cls-3" d="M530.09,233.82a4.92,4.92,0,0,1-1.85-.34,3.85,3.85,0,0,1-1.39-1A4.57,4.57,0,0,1,526,231a6.92,6.92,0,0,1,0-4,4.57,4.57,0,0,1,.87-1.53,3.83,3.83,0,0,1,1.39-1,5.18,5.18,0,0,1,3.69,0,3.83,3.83,0,0,1,1.39,1,4.4,4.4,0,0,1,.87,1.53,6.7,6.7,0,0,1,0,4,4.4,4.4,0,0,1-.87,1.53,3.85,3.85,0,0,1-1.39,1A4.9,4.9,0,0,1,530.09,233.82Zm0-1.55a2.25,2.25,0,0,0,1.71-.66,2.68,2.68,0,0,0,.64-2v-1.4a2.69,2.69,0,0,0-.64-2,2.25,2.25,0,0,0-1.71-.65,2.27,2.27,0,0,0-1.72.65,2.69,2.69,0,0,0-.64,2v1.4a2.68,2.68,0,0,0,.64,2A2.28,2.28,0,0,0,530.09,232.27Z"/><path class="cls-3" d="M537.3,232h3.17v-6.08H537.3v-1.61h5.13V232h3v1.6h-8.1Zm4.16-9.38a1.46,1.46,0,0,1-1.05-.3,1.06,1.06,0,0,1-.3-.76v-.38a1,1,0,0,1,.3-.75,1.38,1.38,0,0,1,1-.31,1.43,1.43,0,0,1,1.06.31,1.05,1.05,0,0,1,.29.75v.38a1.09,1.09,0,0,1-.29.76A1.45,1.45,0,0,1,541.46,222.62Z"/><path class="cls-3" d="M547.8,233.6v-9.29h2v1.59h.09a4.28,4.28,0,0,1,.37-.7,2.29,2.29,0,0,1,.55-.57,2.8,2.8,0,0,1,.75-.39,3.42,3.42,0,0,1,1-.14,3,3,0,0,1,2.27.92,3.64,3.64,0,0,1,.86,2.61v6h-2v-5.69c0-1.47-.64-2.21-1.92-2.21a2.59,2.59,0,0,0-.74.1,1.84,1.84,0,0,0-.65.3,1.47,1.47,0,0,0-.46.5,1.45,1.45,0,0,0-.17.7v6.3Z"/><path class="cls-3" d="M563,233.6a2.31,2.31,0,0,1-1.8-.65,2.51,2.51,0,0,1-.57-1.7v-5.33H557.8v-1.61h2a.78.78,0,0,0,.95-.95V221h1.84v3.27h4v1.61h-4V232h4v1.6Z"/><path class="cls-3" d="M433.25,255.42a4,4,0,0,1-3.56-1.69,10.55,10.55,0,0,1,0-9.62,4,4,0,0,1,3.56-1.69,4.75,4.75,0,0,1,1.59.24,3.55,3.55,0,0,1,1.16.66,3.86,3.86,0,0,1,.82,1,6.13,6.13,0,0,1,.55,1.22l-1.82.61a5.94,5.94,0,0,0-.32-.81,2.35,2.35,0,0,0-.45-.65,2.18,2.18,0,0,0-.64-.43,2.25,2.25,0,0,0-.91-.16,2.08,2.08,0,0,0-1.94,1,5.31,5.31,0,0,0-.62,2.75V250a5.31,5.31,0,0,0,.62,2.75,2.08,2.08,0,0,0,1.94,1,2.25,2.25,0,0,0,.91-.16,2.18,2.18,0,0,0,.64-.43,2.35,2.35,0,0,0,.45-.65,5.94,5.94,0,0,0,.32-.81l1.82.61a6,6,0,0,1-.55,1.21,3.74,3.74,0,0,1-.82,1,3.55,3.55,0,0,1-1.16.66A4.75,4.75,0,0,1,433.25,255.42Z"/><path class="cls-3" d="M443.69,255.42a4.92,4.92,0,0,1-1.85-.34,3.82,3.82,0,0,1-1.38-1,4.42,4.42,0,0,1-.88-1.53,6.92,6.92,0,0,1,0-4,4.42,4.42,0,0,1,.88-1.53,3.79,3.79,0,0,1,1.38-1,4.73,4.73,0,0,1,1.85-.34,4.68,4.68,0,0,1,1.84.34,3.83,3.83,0,0,1,1.39,1,4.25,4.25,0,0,1,.87,1.53,6.7,6.7,0,0,1,0,4,4.25,4.25,0,0,1-.87,1.53,3.85,3.85,0,0,1-1.39,1A4.87,4.87,0,0,1,443.69,255.42Zm0-1.55a2.29,2.29,0,0,0,1.72-.66,2.72,2.72,0,0,0,.64-2v-1.4a2.73,2.73,0,0,0-.64-2,2.6,2.6,0,0,0-3.44,0,2.69,2.69,0,0,0-.64,2v1.4a2.68,2.68,0,0,0,.64,2A2.28,2.28,0,0,0,443.69,253.87Z"/><path class="cls-3" d="M450.44,253.6h3.07V243.48h-3.07v-1.6h5V253.6h3.07v1.6h-8.11Z"/><path class="cls-3" d="M461.24,253.6h3.07V243.48h-3.07v-1.6h5V253.6h3.07v1.6h-8.11Z"/><path class="cls-3" d="M476.28,255.42a5.19,5.19,0,0,1-1.9-.34,3.92,3.92,0,0,1-1.43-1,4.37,4.37,0,0,1-.88-1.52,6.23,6.23,0,0,1-.3-2,6.08,6.08,0,0,1,.31-2A4.74,4.74,0,0,1,473,247a3.78,3.78,0,0,1,1.38-1,4.55,4.55,0,0,1,1.8-.34,4.49,4.49,0,0,1,1.76.33,3.72,3.72,0,0,1,1.35.95,4,4,0,0,1,.86,1.45,5.6,5.6,0,0,1,.3,1.87V251h-6.66v.31a2.41,2.41,0,0,0,.68,1.78,2.55,2.55,0,0,0,1.89.69,2.91,2.91,0,0,0,1.54-.39,3,3,0,0,0,1-1l1.23,1.09a3.86,3.86,0,0,1-1.43,1.37A4.77,4.77,0,0,1,476.28,255.42Zm-.14-8.23a2.49,2.49,0,0,0-1,.18,2.12,2.12,0,0,0-.76.51,2.56,2.56,0,0,0-.49.79,2.64,2.64,0,0,0-.18,1v.12h4.66v-.18a2.46,2.46,0,0,0-.62-1.75A2.18,2.18,0,0,0,476.14,247.19Z"/><path class="cls-3" d="M487.23,255.42a4.9,4.9,0,0,1-1.86-.34,3.85,3.85,0,0,1-1.39-1,4.09,4.09,0,0,1-.86-1.53,6.92,6.92,0,0,1,0-4A4.09,4.09,0,0,1,484,247a3.83,3.83,0,0,1,1.39-1,4.68,4.68,0,0,1,1.84-.34,4,4,0,0,1,2.31.6,3.73,3.73,0,0,1,1.31,1.58l-1.53.82a2.21,2.21,0,0,0-.77-1,2.11,2.11,0,0,0-1.32-.38,2.23,2.23,0,0,0-1.73.68,2.57,2.57,0,0,0-.61,1.8v1.55a2.6,2.6,0,0,0,.61,1.8,2.25,2.25,0,0,0,1.77.69,2.4,2.4,0,0,0,1.41-.4,2.67,2.67,0,0,0,.87-1.08l1.44.88a3.73,3.73,0,0,1-1.37,1.58A4.17,4.17,0,0,1,487.23,255.42Z"/><path class="cls-3" d="M498.24,255.2a2.31,2.31,0,0,1-1.8-.65,2.51,2.51,0,0,1-.57-1.7v-5.33H493v-1.61h2a1.11,1.11,0,0,0,.74-.2A1.05,1.05,0,0,0,496,245v-2.32h1.84v3.27h4v1.61h-4v6.08h4v1.6Z"/><path class="cls-3" d="M504.9,253.6h3.17v-6.08H504.9v-1.61H510v7.69h3v1.6h-8.1Zm4.16-9.38a1.46,1.46,0,0,1-1.05-.3,1.06,1.06,0,0,1-.3-.76v-.38a1,1,0,0,1,.3-.75,1.38,1.38,0,0,1,1-.31,1.43,1.43,0,0,1,1.06.31,1,1,0,0,1,.29.75v.38a1,1,0,0,1-.29.76A1.45,1.45,0,0,1,509.06,244.22Z"/><path class="cls-3" d="M519.29,255.42a4.92,4.92,0,0,1-1.85-.34,3.85,3.85,0,0,1-1.39-1,4.57,4.57,0,0,1-.87-1.53,6.92,6.92,0,0,1,0-4,4.57,4.57,0,0,1,.87-1.53,3.83,3.83,0,0,1,1.39-1,4.73,4.73,0,0,1,1.85-.34,4.68,4.68,0,0,1,1.84.34,3.83,3.83,0,0,1,1.39,1,4.4,4.4,0,0,1,.87,1.53,6.7,6.7,0,0,1,0,4,4.4,4.4,0,0,1-.87,1.53,3.85,3.85,0,0,1-1.39,1A4.87,4.87,0,0,1,519.29,255.42Zm0-1.55a2.25,2.25,0,0,0,1.71-.66,2.68,2.68,0,0,0,.64-2v-1.4a2.69,2.69,0,0,0-.64-2,2.25,2.25,0,0,0-1.71-.65,2.27,2.27,0,0,0-1.72.65,2.69,2.69,0,0,0-.64,2v1.4a2.68,2.68,0,0,0,.64,2A2.28,2.28,0,0,0,519.29,253.87Z"/><path class="cls-3" d="M526.2,255.2v-9.29h2v1.59h.09a4.28,4.28,0,0,1,.37-.7,2.29,2.29,0,0,1,.55-.57,2.8,2.8,0,0,1,.75-.39,3.42,3.42,0,0,1,1-.14,3,3,0,0,1,2.27.92,3.64,3.64,0,0,1,.86,2.61v6h-2v-5.69c0-1.47-.64-2.21-1.92-2.21a2.59,2.59,0,0,0-.74.1,1.84,1.84,0,0,0-.65.3,1.47,1.47,0,0,0-.46.5,1.45,1.45,0,0,0-.17.7v6.3Z"/><rect class="cls-4" x="616.56" y="189.98" width="148.51" height="95.5"/><path class="cls-3" d="M661.15,211.92v10.87h-2V211.92h-3.94v-1.69h9.9v1.69Z"/><path class="cls-3" d="M666.91,221.19h2.47v-6.08h-2.47V213.5h4.43V216h.11a4,4,0,0,1,.36-.94,2.68,2.68,0,0,1,.59-.78,2.85,2.85,0,0,1,.88-.54,3.3,3.3,0,0,1,1.23-.21h1.11v1.88h-1.83A2.52,2.52,0,0,0,672,216a2.27,2.27,0,0,0-.68,1.72v3.46h3.36v1.6h-7.79Z"/><path class="cls-3" d="M685.2,222.79a1.68,1.68,0,0,1-1.27-.43,1.94,1.94,0,0,1-.51-1.14h-.09a2.37,2.37,0,0,1-1,1.32,3.21,3.21,0,0,1-1.8.47,3.29,3.29,0,0,1-2.27-.75,2.59,2.59,0,0,1-.85-2.06,2.36,2.36,0,0,1,1-2.06,5.29,5.29,0,0,1,3.07-.71h1.78v-.72c0-1.26-.66-1.89-2-1.89a2.62,2.62,0,0,0-1.45.35,3,3,0,0,0-.94.92l-1.17-1a3.33,3.33,0,0,1,1.33-1.3,4.7,4.7,0,0,1,2.41-.55,4.23,4.23,0,0,1,2.78.84,3,3,0,0,1,1,2.45v4.66h1.17v1.55Zm-4.11-1.22a2.72,2.72,0,0,0,1.57-.43,1.31,1.31,0,0,0,.61-1.11v-1.34h-1.74c-1.42,0-2.13.42-2.13,1.27v.35a1.07,1.07,0,0,0,.45.94A2.15,2.15,0,0,0,681.09,221.57Z"/><path class="cls-3" d="M689,221.19h3.17v-6.08H689V213.5h5.13v7.69h3v1.6H689Zm4.16-9.38a1.43,1.43,0,0,1-1.06-.31,1.05,1.05,0,0,1-.29-.75v-.38a1.05,1.05,0,0,1,.29-.75,1.92,1.92,0,0,1,2.09,0,1,1,0,0,1,.3.75v.38a1,1,0,0,1-.3.75A1.36,1.36,0,0,1,693.12,211.81Z"/><path class="cls-3" d="M699.45,222.79V213.5h2v1.59h.09a3.57,3.57,0,0,1,.36-.7,2.48,2.48,0,0,1,.55-.57,2.86,2.86,0,0,1,.76-.39,3.08,3.08,0,0,1,1-.14,3,3,0,0,1,2.27.92,3.68,3.68,0,0,1,.86,2.61v6h-2V217.1c0-1.47-.65-2.21-1.93-2.21a2.64,2.64,0,0,0-.74.1,1.8,1.8,0,0,0-.64.3,1.3,1.3,0,0,0-.46.5,1.35,1.35,0,0,0-.17.7v6.3Z"/><path class="cls-3" d="M714.34,223a5.24,5.24,0,0,1-1.91-.34,3.88,3.88,0,0,1-1.42-1,4.22,4.22,0,0,1-.88-1.52,6,6,0,0,1-.31-2,6.07,6.07,0,0,1,.32-2,4.56,4.56,0,0,1,.88-1.54,3.78,3.78,0,0,1,1.38-1,4.9,4.9,0,0,1,3.56,0,3.72,3.72,0,0,1,1.35.95,4,4,0,0,1,.85,1.45,5.6,5.6,0,0,1,.3,1.87v.74H711.8v.31a2.42,2.42,0,0,0,.69,1.78,2.52,2.52,0,0,0,1.89.69,2.85,2.85,0,0,0,1.53-.39,3,3,0,0,0,1-1l1.22,1.09a3.86,3.86,0,0,1-1.43,1.37A4.73,4.73,0,0,1,714.34,223Zm-.14-8.23a2.58,2.58,0,0,0-1,.18,2.17,2.17,0,0,0-.75.51,2.59,2.59,0,0,0-.5.79,2.64,2.64,0,0,0-.18,1v.12h4.66v-.18a2.42,2.42,0,0,0-.62-1.75A2.14,2.14,0,0,0,714.2,214.78Z"/><path class="cls-3" d="M727,221.21h-.11a3.42,3.42,0,0,1-1.1,1.32A2.9,2.9,0,0,1,724,223a3.16,3.16,0,0,1-2.61-1.23,7.3,7.3,0,0,1,0-7.27,3.18,3.18,0,0,1,2.61-1.22,3,3,0,0,1,1.71.47,3.38,3.38,0,0,1,1.1,1.33H727v-5.62h2v13.32h-2Zm-2.11.2a3,3,0,0,0,.81-.11,2.21,2.21,0,0,0,.67-.33,1.68,1.68,0,0,0,.46-.53,1.58,1.58,0,0,0,.17-.74v-3.1a1.6,1.6,0,0,0-.17-.75,1.68,1.68,0,0,0-.46-.53,2.18,2.18,0,0,0-.67-.32,2.65,2.65,0,0,0-.81-.11,2.19,2.19,0,0,0-1.72.68,2.66,2.66,0,0,0-.6,1.82v1.51a2.66,2.66,0,0,0,.6,1.82A2.17,2.17,0,0,0,724.85,221.41Z"/><path class="cls-3" d="M661.65,244.39V231.83h4.7a3.6,3.6,0,0,1,2.75,1,4.54,4.54,0,0,1,0,5.53,3.6,3.6,0,0,1-2.75,1h-2.68v5Zm2-6.68h2.38c1.25,0,1.87-.58,1.87-1.73v-.78c0-1.14-.62-1.72-1.87-1.72h-2.38Z"/><path class="cls-3" d="M676.34,244.61a4.68,4.68,0,0,1-1.84-.35,3.71,3.71,0,0,1-1.39-1,4.25,4.25,0,0,1-.87-1.53,6.7,6.7,0,0,1,0-4,4.25,4.25,0,0,1,.87-1.53,3.83,3.83,0,0,1,1.39-1,4.68,4.68,0,0,1,1.84-.34,4.73,4.73,0,0,1,1.85.34,3.79,3.79,0,0,1,1.38,1,4.42,4.42,0,0,1,.88,1.53,6.92,6.92,0,0,1,0,4,4.42,4.42,0,0,1-.88,1.53,3.68,3.68,0,0,1-1.38,1A4.73,4.73,0,0,1,676.34,244.61Zm0-1.55a2.28,2.28,0,0,0,1.72-.66,2.68,2.68,0,0,0,.64-2V239a2.68,2.68,0,0,0-.64-1.95,2.57,2.57,0,0,0-3.44,0A2.72,2.72,0,0,0,674,239v1.41a2.72,2.72,0,0,0,.64,2A2.29,2.29,0,0,0,676.34,243.06Z"/><path class="cls-3" d="M683.09,242.79h3.08V232.67h-3.08v-1.6h5v11.72h3.08v1.6h-8.12Z"/><path class="cls-3" d="M694.36,242.79h3.17v-6.08h-3.17V235.1h5.13v7.69h3v1.6h-8.1Zm4.16-9.38a1.43,1.43,0,0,1-1.06-.31,1.05,1.05,0,0,1-.29-.75V232a1.09,1.09,0,0,1,.29-.76,2,2,0,0,1,2.09,0,1.06,1.06,0,0,1,.3.76v.38a1,1,0,0,1-.3.75A1.36,1.36,0,0,1,698.52,233.41Z"/><path class="cls-3" d="M709.08,244.61a4.78,4.78,0,0,1-1.86-.35,3.6,3.6,0,0,1-1.38-1,4.25,4.25,0,0,1-.87-1.53,6.92,6.92,0,0,1,0-4,4.25,4.25,0,0,1,.87-1.53,3.71,3.71,0,0,1,1.38-1,4.73,4.73,0,0,1,1.85-.34,4,4,0,0,1,2.31.6,3.74,3.74,0,0,1,1.3,1.57l-1.53.83a2.19,2.19,0,0,0-.76-1,2.11,2.11,0,0,0-1.32-.38,2.18,2.18,0,0,0-1.73.68,2.57,2.57,0,0,0-.61,1.8v1.55a2.6,2.6,0,0,0,.61,1.8,2.22,2.22,0,0,0,1.76.68,2.35,2.35,0,0,0,1.41-.39,2.85,2.85,0,0,0,.88-1.08l1.44.88a3.8,3.8,0,0,1-1.37,1.58A4.18,4.18,0,0,1,709.08,244.61Z"/><path class="cls-3" d="M722.26,235.1h2l-4.5,11.09a3.19,3.19,0,0,1-.94,1.35,2.76,2.76,0,0,1-1.69.45h-1.56v-1.6h2.19l.85-2.13-3.75-9.16h2.06l1.47,3.89,1.15,3.19h.11l1.15-3.19Z"/><path class="cls-3" d="M656.22,253.43H660a4.13,4.13,0,0,1,3.58,1.6,10,10,0,0,1,0,9.36A4.13,4.13,0,0,1,660,266h-3.74Zm3.62,10.9a2.37,2.37,0,0,0,2.06-.92,4.47,4.47,0,0,0,.67-2.66v-2.08a4.47,4.47,0,0,0-.67-2.66,2.38,2.38,0,0,0-2.06-.93h-1.62v9.25Z"/><path class="cls-3" d="M674.4,266a1.68,1.68,0,0,1-1.27-.43,1.94,1.94,0,0,1-.51-1.14h-.09a2.4,2.4,0,0,1-1,1.32,3.77,3.77,0,0,1-4.08-.28,2.59,2.59,0,0,1-.85-2.06,2.38,2.38,0,0,1,1-2.06,5.29,5.29,0,0,1,3.07-.71h1.78v-.72c0-1.26-.66-1.89-2-1.89a2.62,2.62,0,0,0-1.45.35,3,3,0,0,0-.94.92l-1.17-1a3.33,3.33,0,0,1,1.33-1.3,4.7,4.7,0,0,1,2.41-.55,4.23,4.23,0,0,1,2.78.84,3,3,0,0,1,1,2.45v4.66h1.17V266Zm-4.11-1.22a2.72,2.72,0,0,0,1.57-.43,1.31,1.31,0,0,0,.61-1.11v-1.34h-1.74c-1.42,0-2.13.42-2.13,1.27v.35a1.06,1.06,0,0,0,.45.94A2.15,2.15,0,0,0,670.29,264.77Z"/><path class="cls-3" d="M682.3,266a2.29,2.29,0,0,1-1.8-.65,2.52,2.52,0,0,1-.58-1.7v-5.33h-2.86V256.7h2a1.08,1.08,0,0,0,.73-.2,1,1,0,0,0,.22-.75v-2.32h1.84v3.27h4v1.61h-4v6.08h4V266Z"/><path class="cls-3" d="M696,266a1.68,1.68,0,0,1-1.27-.43,1.94,1.94,0,0,1-.51-1.14h-.09a2.37,2.37,0,0,1-1,1.32,3.21,3.21,0,0,1-1.8.47,3.29,3.29,0,0,1-2.27-.75,2.59,2.59,0,0,1-.85-2.06,2.36,2.36,0,0,1,1-2.06,5.29,5.29,0,0,1,3.07-.71h1.78v-.72c0-1.26-.66-1.89-2-1.89a2.62,2.62,0,0,0-1.45.35,3,3,0,0,0-.94.92l-1.17-1a3.33,3.33,0,0,1,1.33-1.3,4.7,4.7,0,0,1,2.41-.55,4.23,4.23,0,0,1,2.78.84,3,3,0,0,1,1,2.45v4.66h1.17V266Zm-4.11-1.22a2.72,2.72,0,0,0,1.57-.43,1.31,1.31,0,0,0,.61-1.11v-1.34h-1.74c-1.42,0-2.13.42-2.13,1.27v.35a1.06,1.06,0,0,0,.45.94A2.15,2.15,0,0,0,691.89,264.77Z"/><path class="cls-3" d="M703.36,266.21a6.38,6.38,0,0,1-2.6-.49,4.71,4.71,0,0,1-1.76-1.3l1.21-1.08a4,4,0,0,0,3.19,1.37,3.1,3.1,0,0,0,1.53-.32,1.08,1.08,0,0,0,.59-1,1,1,0,0,0-.11-.48.86.86,0,0,0-.3-.33,2.13,2.13,0,0,0-.46-.2,4.86,4.86,0,0,0-.55-.1l-1.48-.24a7.71,7.71,0,0,1-1.1-.23,3.66,3.66,0,0,1-1-.46,2.42,2.42,0,0,1-.72-.77,2.33,2.33,0,0,1-.27-1.19,2.44,2.44,0,0,1,1.08-2.15,5,5,0,0,1,2.88-.74,6.07,6.07,0,0,1,2.24.38A4.32,4.32,0,0,1,707.3,258l-1.1,1.15a3.58,3.58,0,0,0-1-.77,3.87,3.87,0,0,0-1.77-.35c-1.3,0-2,.42-2,1.24a.84.84,0,0,0,.42.82,3,3,0,0,0,1,.3l1.48.23a11,11,0,0,1,1.11.24,3.16,3.16,0,0,1,1,.44,2.49,2.49,0,0,1,.72.76,2.38,2.38,0,0,1,.28,1.19,2.61,2.61,0,0,1-1.09,2.21A5,5,0,0,1,703.36,266.21Z"/><path class="cls-3" d="M714.34,266.21a5.24,5.24,0,0,1-1.91-.34,3.88,3.88,0,0,1-1.42-1,4.22,4.22,0,0,1-.88-1.52,6,6,0,0,1-.31-2,6.07,6.07,0,0,1,.32-2,4.56,4.56,0,0,1,.88-1.54,3.78,3.78,0,0,1,1.38-1,4.9,4.9,0,0,1,3.56,0,3.72,3.72,0,0,1,1.35.95,4,4,0,0,1,.85,1.45,5.6,5.6,0,0,1,.3,1.87v.74H711.8v.31a2.42,2.42,0,0,0,.69,1.78,2.52,2.52,0,0,0,1.89.69,2.85,2.85,0,0,0,1.53-.39,3,3,0,0,0,1-1l1.22,1.09a3.86,3.86,0,0,1-1.43,1.37A4.73,4.73,0,0,1,714.34,266.21ZM714.2,258a2.58,2.58,0,0,0-1,.18,2.17,2.17,0,0,0-.75.51,2.59,2.59,0,0,0-.5.79,2.64,2.64,0,0,0-.18,1v.12h4.66v-.18a2.42,2.42,0,0,0-.62-1.75A2.14,2.14,0,0,0,714.2,258Z"/><path class="cls-3" d="M725.5,266a2.29,2.29,0,0,1-1.8-.65,2.47,2.47,0,0,1-.58-1.7v-5.33h-2.86V256.7h2a1.08,1.08,0,0,0,.73-.2,1,1,0,0,0,.22-.75v-2.32h1.84v3.27h4v1.61h-4v6.08h4V266Z"/><rect class="cls-4" x="789.8" y="189.98" width="148.51" height="95.5"/><path class="cls-3" d="M841.7,222.79l-1-3.37h-4l-1,3.37h-2l3.67-12.56h2.75l3.67,12.56Zm-2.88-10.53h-.14l-1.55,5.51h3.24Z"/><path class="cls-3" d="M850.14,222.79a2.31,2.31,0,0,1-1.8-.65,2.51,2.51,0,0,1-.57-1.7v-5.33h-2.86V213.5h2a1.11,1.11,0,0,0,.74-.2,1.05,1.05,0,0,0,.21-.75v-2.32h1.84v3.27h4v1.61h-4v6.08h4v1.6Z"/><path class="cls-3" d="M860.94,222.79a2.31,2.31,0,0,1-1.8-.65,2.51,2.51,0,0,1-.57-1.7v-5.33h-2.86V213.5h2a1.11,1.11,0,0,0,.74-.2,1.05,1.05,0,0,0,.21-.75v-2.32h1.84v3.27h4v1.61h-4v6.08h4v1.6Z"/><path class="cls-3" d="M874.64,222.79a1.71,1.71,0,0,1-1.27-.43,1.94,1.94,0,0,1-.51-1.14h-.09a2.4,2.4,0,0,1-1,1.32A3.24,3.24,0,0,1,870,223a3.31,3.31,0,0,1-2.27-.75,2.61,2.61,0,0,1-.84-2.06,2.36,2.36,0,0,1,1-2.06,5.24,5.24,0,0,1,3.06-.71h1.79v-.72c0-1.26-.67-1.89-2-1.89a2.65,2.65,0,0,0-1.46.35,3.17,3.17,0,0,0-.94.92l-1.17-1a3.36,3.36,0,0,1,1.34-1.3,4.65,4.65,0,0,1,2.41-.55,4.2,4.2,0,0,1,2.77.84,3,3,0,0,1,1,2.45v4.66h1.17v1.55Zm-4.1-1.22a2.69,2.69,0,0,0,1.56-.43,1.32,1.32,0,0,0,.62-1.11v-1.34H871c-1.42,0-2.12.42-2.12,1.27v.35a1.07,1.07,0,0,0,.45.94A2.13,2.13,0,0,0,870.54,221.57Z"/><path class="cls-3" d="M882.33,223a5,5,0,0,1-1.87-.34,3.9,3.9,0,0,1-1.38-1,4.25,4.25,0,0,1-.87-1.53,7.15,7.15,0,0,1,0-4,4.25,4.25,0,0,1,.87-1.53,3.88,3.88,0,0,1,1.38-1,4.76,4.76,0,0,1,1.85-.34,4,4,0,0,1,2.31.6,3.76,3.76,0,0,1,1.31,1.57l-1.53.83a2.27,2.27,0,0,0-.77-1,2.11,2.11,0,0,0-1.32-.38,2.23,2.23,0,0,0-1.73.68,2.57,2.57,0,0,0-.61,1.8v1.55a2.6,2.6,0,0,0,.61,1.8,2.25,2.25,0,0,0,1.77.69,2.4,2.4,0,0,0,1.41-.4,2.67,2.67,0,0,0,.87-1.08l1.44.88a3.73,3.73,0,0,1-1.37,1.58A4.17,4.17,0,0,1,882.33,223Z"/><path class="cls-3" d="M889,209.47h2v8.05H891l1.46-1.5,2.61-2.52h2.32l-3.76,3.66,4.18,5.63h-2.36l-3.24-4.52-1.3,1.21v3.31h-2Z"/><path class="cls-3" d="M818.66,231.83h3.75a4.11,4.11,0,0,1,3.57,1.6,10,10,0,0,1,0,9.36,4.11,4.11,0,0,1-3.57,1.6h-3.75Zm3.62,10.9a2.37,2.37,0,0,0,2.06-.92,4.49,4.49,0,0,0,.68-2.66v-2.09a4.45,4.45,0,0,0-.68-2.65,2.38,2.38,0,0,0-2.06-.93h-1.62v9.25Z"/><path class="cls-3" d="M836.84,244.39a1.71,1.71,0,0,1-1.27-.43,1.94,1.94,0,0,1-.51-1.14H835a2.4,2.4,0,0,1-1,1.32,3.24,3.24,0,0,1-1.81.47,3.31,3.31,0,0,1-2.27-.75,2.63,2.63,0,0,1-.84-2.06,2.36,2.36,0,0,1,1-2.06,5.24,5.24,0,0,1,3.06-.71h1.79v-.72c0-1.26-.67-1.89-2-1.89a2.65,2.65,0,0,0-1.46.35,3.17,3.17,0,0,0-.94.92l-1.17-.95a3.36,3.36,0,0,1,1.34-1.3,4.65,4.65,0,0,1,2.41-.55,4.2,4.2,0,0,1,2.77.84,3,3,0,0,1,1,2.45v4.66h1.17v1.55Zm-4.1-1.22a2.69,2.69,0,0,0,1.56-.43,1.32,1.32,0,0,0,.62-1.11v-1.34h-1.75c-1.42,0-2.12.42-2.12,1.27v.35a1.07,1.07,0,0,0,.45.94A2.13,2.13,0,0,0,832.74,243.17Z"/><path class="cls-3" d="M844.74,244.39a2.31,2.31,0,0,1-1.8-.65,2.51,2.51,0,0,1-.57-1.7v-5.33h-2.86V235.1h2a1.11,1.11,0,0,0,.74-.2,1.05,1.05,0,0,0,.21-.75v-2.32h1.84v3.27h4v1.61h-4v6.08h4v1.6Z"/><path class="cls-3" d="M858.44,244.39a1.71,1.71,0,0,1-1.27-.43,1.94,1.94,0,0,1-.51-1.14h-.09a2.4,2.4,0,0,1-1,1.32,3.24,3.24,0,0,1-1.81.47,3.31,3.31,0,0,1-2.27-.75,2.63,2.63,0,0,1-.84-2.06,2.36,2.36,0,0,1,1-2.06,5.24,5.24,0,0,1,3.06-.71h1.79v-.72c0-1.26-.67-1.89-2-1.89a2.65,2.65,0,0,0-1.46.35,3.17,3.17,0,0,0-.94.92l-1.17-.95a3.36,3.36,0,0,1,1.34-1.3,4.65,4.65,0,0,1,2.41-.55,4.2,4.2,0,0,1,2.77.84,3,3,0,0,1,1,2.45v4.66h1.17v1.55Zm-4.1-1.22a2.69,2.69,0,0,0,1.56-.43,1.32,1.32,0,0,0,.62-1.11v-1.34h-1.75c-1.42,0-2.12.42-2.12,1.27v.35a1.07,1.07,0,0,0,.45.94A2.13,2.13,0,0,0,854.34,243.17Z"/><path class="cls-3" d="M861.81,235.1h2v1.59h.11a3.3,3.3,0,0,1,1.1-1.33,3,3,0,0,1,1.71-.47,3.15,3.15,0,0,1,2.61,1.22,7.3,7.3,0,0,1,0,7.27,3.16,3.16,0,0,1-2.61,1.23,2.88,2.88,0,0,1-1.71-.48,3.34,3.34,0,0,1-1.1-1.32h-.11V248h-2Zm4.07,7.9a2.14,2.14,0,0,0,1.71-.68,2.62,2.62,0,0,0,.61-1.82V239a2.62,2.62,0,0,0-.61-1.82,2.17,2.17,0,0,0-1.71-.68,2.65,2.65,0,0,0-.81.11,2,2,0,0,0-.67.32,1.56,1.56,0,0,0-.46.53,1.6,1.6,0,0,0-.17.75v3.09a1.6,1.6,0,0,0,.17.75,1.56,1.56,0,0,0,.46.53,2,2,0,0,0,.67.33A3,3,0,0,0,865.88,243Z"/><path class="cls-3" d="M876.59,244.61a4.73,4.73,0,0,1-1.85-.35,3.71,3.71,0,0,1-1.39-1,4.57,4.57,0,0,1-.87-1.53,6.92,6.92,0,0,1,0-4,4.57,4.57,0,0,1,.87-1.53,3.83,3.83,0,0,1,1.39-1,5.18,5.18,0,0,1,3.69,0,3.83,3.83,0,0,1,1.39,1,4.4,4.4,0,0,1,.87,1.53,6.7,6.7,0,0,1,0,4,4.4,4.4,0,0,1-.87,1.53,3.71,3.71,0,0,1-1.39,1A4.71,4.71,0,0,1,876.59,244.61Zm0-1.55a2.25,2.25,0,0,0,1.71-.66,2.68,2.68,0,0,0,.64-2V239a2.68,2.68,0,0,0-.64-1.95,2.25,2.25,0,0,0-1.71-.66,2.28,2.28,0,0,0-1.72.66,2.68,2.68,0,0,0-.64,1.95v1.41a2.68,2.68,0,0,0,.64,2A2.28,2.28,0,0,0,876.59,243.06Z"/><path class="cls-3" d="M883.8,242.79H887v-6.08H883.8V235.1h5.13v7.69h3v1.6h-8.1Zm4.16-9.38a1.42,1.42,0,0,1-1.05-.31,1,1,0,0,1-.3-.75V232a1.06,1.06,0,0,1,.3-.76,1.42,1.42,0,0,1,1-.3,1.48,1.48,0,0,1,1.06.3,1.09,1.09,0,0,1,.29.76v.38a1.05,1.05,0,0,1-.29.75A1.41,1.41,0,0,1,888,233.41Z"/><path class="cls-3" d="M894.3,244.39V235.1h2v1.59h.09a4.28,4.28,0,0,1,.37-.7,2.29,2.29,0,0,1,.55-.57A2.8,2.8,0,0,1,898,235a3.12,3.12,0,0,1,1-.14,3,3,0,0,1,2.27.91,3.68,3.68,0,0,1,.86,2.62v6h-2V238.7c0-1.47-.64-2.21-1.92-2.21a2.59,2.59,0,0,0-.74.1,2,2,0,0,0-.65.29,1.5,1.5,0,0,0-.46.51,1.45,1.45,0,0,0-.17.7v6.3Z"/><path class="cls-3" d="M909.54,244.39a2.31,2.31,0,0,1-1.8-.65,2.51,2.51,0,0,1-.57-1.7v-5.33H904.3V235.1h2a1.11,1.11,0,0,0,.74-.2,1.05,1.05,0,0,0,.21-.75v-2.32h1.84v3.27h4v1.61h-4v6.08h4v1.6Z"/><path class="cls-3" d="M817.55,266.21a4,4,0,0,1-3.56-1.69,10.55,10.55,0,0,1,0-9.62,4,4,0,0,1,3.56-1.69,4.75,4.75,0,0,1,1.59.24,3.55,3.55,0,0,1,1.16.66,3.86,3.86,0,0,1,.82,1,6.4,6.4,0,0,1,.55,1.22l-1.82.61a7.59,7.59,0,0,0-.32-.81,2.35,2.35,0,0,0-.45-.65,2.18,2.18,0,0,0-.64-.43,2.25,2.25,0,0,0-.91-.16,2.08,2.08,0,0,0-1.94,1,5.31,5.31,0,0,0-.62,2.75v2.14a5.31,5.31,0,0,0,.62,2.75,2.08,2.08,0,0,0,1.94,1,2.25,2.25,0,0,0,.91-.16,2.18,2.18,0,0,0,.64-.43,2.35,2.35,0,0,0,.45-.65,7.59,7.59,0,0,0,.32-.81l1.82.61a6,6,0,0,1-.55,1.21,3.74,3.74,0,0,1-.82,1,3.55,3.55,0,0,1-1.16.66A4.75,4.75,0,0,1,817.55,266.21Z"/><path class="cls-3" d="M828,266.21a4.92,4.92,0,0,1-1.85-.34,3.82,3.82,0,0,1-1.38-1,4.42,4.42,0,0,1-.88-1.53,6.92,6.92,0,0,1,0-4,4.42,4.42,0,0,1,.88-1.53,3.79,3.79,0,0,1,1.38-1,4.73,4.73,0,0,1,1.85-.34,4.68,4.68,0,0,1,1.84.34,3.83,3.83,0,0,1,1.39,1,4.25,4.25,0,0,1,.87,1.53,6.7,6.7,0,0,1,0,4,4.25,4.25,0,0,1-.87,1.53,3.85,3.85,0,0,1-1.39,1A4.87,4.87,0,0,1,828,266.21Zm0-1.55a2.29,2.29,0,0,0,1.72-.66,2.72,2.72,0,0,0,.63-1.95v-1.4a2.73,2.73,0,0,0-.63-2,2.6,2.6,0,0,0-3.44,0,2.69,2.69,0,0,0-.64,2v1.4a2.68,2.68,0,0,0,.64,1.95A2.28,2.28,0,0,0,828,264.66Z"/><path class="cls-3" d="M834.74,264.39h3.07V254.27h-3.07v-1.6h5v11.72h3.07V266h-8.11Z"/><path class="cls-3" d="M845.54,264.39h3.07V254.27h-3.07v-1.6h5v11.72h3.07V266h-8.11Z"/><path class="cls-3" d="M860.58,266.21a5.19,5.19,0,0,1-1.9-.34,3.92,3.92,0,0,1-1.43-1,4.37,4.37,0,0,1-.88-1.52,6.23,6.23,0,0,1-.3-2,6.08,6.08,0,0,1,.31-2,4.74,4.74,0,0,1,.88-1.54,3.78,3.78,0,0,1,1.38-1,4.55,4.55,0,0,1,1.8-.34,4.49,4.49,0,0,1,1.76.33,3.72,3.72,0,0,1,1.35.95,4,4,0,0,1,.86,1.45,5.6,5.6,0,0,1,.3,1.87v.74h-6.66v.31a2.41,2.41,0,0,0,.68,1.78,2.55,2.55,0,0,0,1.89.69,2.91,2.91,0,0,0,1.54-.39,3,3,0,0,0,1-1l1.23,1.09a3.86,3.86,0,0,1-1.43,1.37A4.77,4.77,0,0,1,860.58,266.21Zm-.14-8.23a2.49,2.49,0,0,0-1,.18,2.12,2.12,0,0,0-.76.51,2.56,2.56,0,0,0-.49.79,2.64,2.64,0,0,0-.18,1v.12h4.66v-.18a2.46,2.46,0,0,0-.62-1.75A2.18,2.18,0,0,0,860.44,258Z"/><path class="cls-3" d="M871.53,266.21a4.9,4.9,0,0,1-1.86-.34,3.85,3.85,0,0,1-1.39-1,4.09,4.09,0,0,1-.86-1.53,6.92,6.92,0,0,1,0-4,4.09,4.09,0,0,1,.86-1.53,3.83,3.83,0,0,1,1.39-1,4.68,4.68,0,0,1,1.84-.34,4,4,0,0,1,2.31.6,3.73,3.73,0,0,1,1.31,1.58l-1.53.82a2.27,2.27,0,0,0-.77-1,2.11,2.11,0,0,0-1.32-.38,2.23,2.23,0,0,0-1.73.68,2.57,2.57,0,0,0-.61,1.8v1.56a2.59,2.59,0,0,0,.61,1.79,2.25,2.25,0,0,0,1.77.69,2.4,2.4,0,0,0,1.41-.4,2.67,2.67,0,0,0,.87-1.08l1.44.88a3.73,3.73,0,0,1-1.37,1.58A4.17,4.17,0,0,1,871.53,266.21Z"/><path class="cls-3" d="M882.54,266a2.31,2.31,0,0,1-1.8-.65,2.51,2.51,0,0,1-.57-1.7v-5.33h-2.86V256.7h2a1.11,1.11,0,0,0,.74-.2,1.05,1.05,0,0,0,.21-.75v-2.32h1.84v3.27h4v1.61h-4v6.08h4V266Z"/><path class="cls-3" d="M889.2,264.39h3.17v-6.08H889.2V256.7h5.13v7.69h3V266h-8.1Zm4.16-9.38a1.46,1.46,0,0,1-1.05-.3,1.06,1.06,0,0,1-.3-.76v-.38a1,1,0,0,1,.3-.75,1.38,1.38,0,0,1,1-.31,1.43,1.43,0,0,1,1.06.31,1.05,1.05,0,0,1,.29.75V254a1.09,1.09,0,0,1-.29.76A1.45,1.45,0,0,1,893.36,255Z"/><path class="cls-3" d="M903.59,266.21a4.92,4.92,0,0,1-1.85-.34,3.85,3.85,0,0,1-1.39-1,4.57,4.57,0,0,1-.87-1.53,6.92,6.92,0,0,1,0-4,4.57,4.57,0,0,1,.87-1.53,3.83,3.83,0,0,1,1.39-1,5.18,5.18,0,0,1,3.69,0,3.83,3.83,0,0,1,1.39,1,4.4,4.4,0,0,1,.87,1.53,6.7,6.7,0,0,1,0,4,4.4,4.4,0,0,1-.87,1.53,3.85,3.85,0,0,1-1.39,1A4.9,4.9,0,0,1,903.59,266.21Zm0-1.55a2.25,2.25,0,0,0,1.71-.66,2.68,2.68,0,0,0,.64-1.95v-1.4a2.69,2.69,0,0,0-.64-2,2.25,2.25,0,0,0-1.71-.65,2.27,2.27,0,0,0-1.72.65,2.69,2.69,0,0,0-.64,2v1.4a2.68,2.68,0,0,0,.64,1.95A2.28,2.28,0,0,0,903.59,264.66Z"/><path class="cls-3" d="M910.5,266V256.7h2v1.59h.09a4.28,4.28,0,0,1,.37-.7,2.29,2.29,0,0,1,.55-.57,2.8,2.8,0,0,1,.75-.39,3.42,3.42,0,0,1,1-.14,3,3,0,0,1,2.27.92,3.64,3.64,0,0,1,.86,2.61v6h-2V260.3c0-1.47-.64-2.21-1.92-2.21a2.59,2.59,0,0,0-.74.1,1.84,1.84,0,0,0-.65.3,1.47,1.47,0,0,0-.46.5,1.45,1.45,0,0,0-.17.7V266Z"/><rect class="cls-4" x="752.56" y="48.98" width="215" height="95.5"/><path class="cls-3" d="M796.51,76.58l-.9-3.18h-3.77l-.9,3.18H789l3.46-11.87h2.61l3.46,11.87Zm-2.72-10h-.13l-1.47,5.21h3.06Z"/><path class="cls-3" d="M804.48,76.58a2.17,2.17,0,0,1-1.7-.62,2.35,2.35,0,0,1-.54-1.6v-5h-2.7V67.81h1.92a1,1,0,0,0,.7-.2,1,1,0,0,0,.2-.7v-2.2h1.73v3.1h3.74v1.51h-3.74v5.75h3.74v1.51Z"/><path class="cls-3" d="M814.68,76.58A2.17,2.17,0,0,1,813,76a2.35,2.35,0,0,1-.54-1.6v-5h-2.7V67.81h1.92a1,1,0,0,0,.7-.2,1,1,0,0,0,.2-.7v-2.2h1.73v3.1H818v1.51h-3.74v5.75H818v1.51Z"/><path class="cls-3" d="M827.62,76.58a1.63,1.63,0,0,1-1.2-.41,1.86,1.86,0,0,1-.48-1.07h-.09a2.23,2.23,0,0,1-.92,1.24,3,3,0,0,1-1.71.44,3.1,3.1,0,0,1-2.14-.7,2.44,2.44,0,0,1-.8-2,2.24,2.24,0,0,1,.94-1.95,5.11,5.11,0,0,1,2.9-.67h1.68v-.68c0-1.19-.63-1.78-1.88-1.78a2.56,2.56,0,0,0-1.38.33,2.81,2.81,0,0,0-.88.87l-1.11-.9a3.24,3.24,0,0,1,1.26-1.23,4.53,4.53,0,0,1,2.28-.52,3.93,3.93,0,0,1,2.61.8,2.84,2.84,0,0,1,1,2.31v4.41h1.1v1.46Zm-3.87-1.16a2.48,2.48,0,0,0,1.47-.4,1.22,1.22,0,0,0,.58-1V72.7h-1.65c-1.33,0-2,.4-2,1.2v.34a1,1,0,0,0,.42.89A2.12,2.12,0,0,0,823.75,75.42Z"/><path class="cls-3" d="M834.88,76.78a4.64,4.64,0,0,1-1.76-.32,3.58,3.58,0,0,1-1.31-.92A4,4,0,0,1,831,74.1a6.62,6.62,0,0,1,0-3.81,4,4,0,0,1,.81-1.45,3.68,3.68,0,0,1,1.31-.91,4.42,4.42,0,0,1,1.74-.33,3.78,3.78,0,0,1,2.19.57,3.56,3.56,0,0,1,1.23,1.49l-1.44.78a2,2,0,0,0-2-1.32,2.08,2.08,0,0,0-1.63.64,2.45,2.45,0,0,0-.58,1.7v1.47a2.48,2.48,0,0,0,.58,1.69,2.13,2.13,0,0,0,1.67.65,2.2,2.2,0,0,0,1.33-.37,2.63,2.63,0,0,0,.83-1l1.36.83a3.64,3.64,0,0,1-1.29,1.49A4,4,0,0,1,834.88,76.78Z"/><path class="cls-3" d="M841.15,64H843v7.6h.08l1.38-1.41,2.46-2.38h2.2l-3.56,3.45,3.95,5.32h-2.23l-3.06-4.27L843,73.45v3.13h-1.86Z"/><path class="cls-3" d="M865.5,76.78a3.8,3.8,0,0,1-3.36-1.59,8,8,0,0,1-1.09-4.54,8,8,0,0,1,1.09-4.54,3.78,3.78,0,0,1,3.36-1.6,4.22,4.22,0,0,1,1.5.23,3.28,3.28,0,0,1,1.1.62,3.48,3.48,0,0,1,.77.93,5.61,5.61,0,0,1,.52,1.14l-1.72.58a6.69,6.69,0,0,0-.3-.76,2.36,2.36,0,0,0-.43-.62,1.91,1.91,0,0,0-.6-.4,2,2,0,0,0-.86-.16,2,2,0,0,0-1.83,1,5,5,0,0,0-.58,2.6v2a5,5,0,0,0,.58,2.6,2,2,0,0,0,1.83,1,2.17,2.17,0,0,0,.86-.15,2.13,2.13,0,0,0,.6-.41,2.47,2.47,0,0,0,.43-.61,7.71,7.71,0,0,0,.3-.77l1.72.58a5.37,5.37,0,0,1-.52,1.14,3.48,3.48,0,0,1-.77.93,3.3,3.3,0,0,1-1.1.63A4.48,4.48,0,0,1,865.5,76.78Z"/><path class="cls-3" d="M875.36,76.78a4.54,4.54,0,0,1-1.74-.32,3.42,3.42,0,0,1-1.31-.92,4.16,4.16,0,0,1-.83-1.44,6.4,6.4,0,0,1,0-3.81,4.2,4.2,0,0,1,.83-1.45,3.51,3.51,0,0,1,1.31-.91,4.75,4.75,0,0,1,3.48,0,3.59,3.59,0,0,1,1.31.91,4,4,0,0,1,.82,1.45,6.4,6.4,0,0,1,0,3.81,4,4,0,0,1-.82,1.44,3.5,3.5,0,0,1-1.31.92A4.57,4.57,0,0,1,875.36,76.78Zm0-1.46A2.16,2.16,0,0,0,877,74.7a2.55,2.55,0,0,0,.61-1.84V71.53a2.53,2.53,0,0,0-.61-1.84,2.43,2.43,0,0,0-3.24,0,2.49,2.49,0,0,0-.61,1.84v1.33a2.51,2.51,0,0,0,.61,1.84A2.16,2.16,0,0,0,875.36,75.32Z"/><path class="cls-3" d="M881.89,76.58V67.81h1.85V69.3h.09a3.67,3.67,0,0,1,.34-.65,2.71,2.71,0,0,1,.52-.55,2.56,2.56,0,0,1,.72-.36,3,3,0,0,1,1-.14,2.8,2.8,0,0,1,2.14.87,3.49,3.49,0,0,1,.82,2.47v5.64h-1.86V71.21c0-1.4-.6-2.09-1.82-2.09a2.67,2.67,0,0,0-.69.09,2,2,0,0,0-.61.28,1.35,1.35,0,0,0-.44.48,1.29,1.29,0,0,0-.16.66v6Z"/><path class="cls-3" d="M892,75.07h2.8V69.32h-3V67.81h3V66.23a2.36,2.36,0,0,1,.54-1.61A2.17,2.17,0,0,1,897,64h3v1.51h-3.35v2.3H900v1.51h-3.35v5.75h3v1.51H892Z"/><path class="cls-3" d="M902.58,75.07h3V69.32h-3V67.81h4.84v7.26h2.81v1.51h-7.65Zm3.92-8.86a1.38,1.38,0,0,1-1-.29,1,1,0,0,1-.28-.71v-.36a1,1,0,0,1,.28-.72,1.35,1.35,0,0,1,1-.28,1.38,1.38,0,0,1,1,.28,1,1,0,0,1,.28.72v.36a1,1,0,0,1-.28.71A1.35,1.35,0,0,1,906.5,66.21Z"/><path class="cls-3" d="M920.75,77.53a2.15,2.15,0,0,1-1.14,2,7.25,7.25,0,0,1-3.47.64,11.32,11.32,0,0,1-1.91-.14,4.32,4.32,0,0,1-1.26-.42,1.7,1.7,0,0,1-.69-.66,1.74,1.74,0,0,1-.22-.88,1.55,1.55,0,0,1,.4-1.12,2.47,2.47,0,0,1,1.13-.58v-.17a1.82,1.82,0,0,1-.7-.48,1.16,1.16,0,0,1-.27-.8,1.14,1.14,0,0,1,.45-1,3,3,0,0,1,1.13-.5v-.08a2.81,2.81,0,0,1-1.68-2.69,3.1,3.1,0,0,1,.26-1.27,2.77,2.77,0,0,1,.72-1,3.46,3.46,0,0,1,1.12-.62,4.83,4.83,0,0,1,1.47-.22,4.53,4.53,0,0,1,1.65.29V67.6a1.29,1.29,0,0,1,.29-.85,1.11,1.11,0,0,1,.88-.34h1.6v1.47h-2v.4a2.67,2.67,0,0,1,.89,1,3.39,3.39,0,0,1,0,2.67,2.68,2.68,0,0,1-.73,1,3.26,3.26,0,0,1-1.12.61,4.74,4.74,0,0,1-1.47.21,5.45,5.45,0,0,1-1.09-.1,2.25,2.25,0,0,0-.61.29.63.63,0,0,0-.3.56.48.48,0,0,0,.39.51,3.8,3.8,0,0,0,1,.1h2a3.88,3.88,0,0,1,2.55.67A2.22,2.22,0,0,1,920.75,77.53Zm-1.73.11a.84.84,0,0,0-.36-.71,2.25,2.25,0,0,0-1.29-.27h-3a1,1,0,0,0-.64,1,1.1,1.1,0,0,0,.41.85,2.13,2.13,0,0,0,1.39.36h1.38a3.29,3.29,0,0,0,1.6-.31A1,1,0,0,0,919,77.64Zm-2.93-5.18a1.85,1.85,0,0,0,1.33-.42,1.54,1.54,0,0,0,.42-1.14v-.46a1.57,1.57,0,0,0-.42-1.14,1.85,1.85,0,0,0-1.33-.42,1.8,1.8,0,0,0-1.32.42,1.54,1.54,0,0,0-.43,1.14v.46a1.51,1.51,0,0,0,.43,1.14A1.8,1.8,0,0,0,916.09,72.46Z"/><path class="cls-3" d="M926.36,70.42a1.57,1.57,0,0,1-1.15-.34,1.13,1.13,0,0,1-.33-.83v-.44a1.13,1.13,0,0,1,.33-.83,2.11,2.11,0,0,1,2.3,0,1.13,1.13,0,0,1,.33.83v.44a1.13,1.13,0,0,1-.33.83A1.57,1.57,0,0,1,926.36,70.42Zm0,6.33a1.57,1.57,0,0,1-1.15-.34,1.15,1.15,0,0,1-.33-.83v-.45a1.16,1.16,0,0,1,.33-.83,2.11,2.11,0,0,1,2.3,0,1.16,1.16,0,0,1,.33.83v.45a1.15,1.15,0,0,1-.33.83A1.57,1.57,0,0,1,926.36,76.75Z"/><path class="cls-3" d="M795.69,88.93V87.51h3.93v1.42Z"/><path class="cls-3" d="M807.56,92.18l-.69-2.43H804l-.69,2.43h-1.48l2.65-9.08h2l2.65,9.08Zm-2.08-7.61h-.1l-1.12,4h2.34Z"/><path class="cls-3" d="M813.66,92.18a1.66,1.66,0,0,1-1.3-.47,1.8,1.8,0,0,1-.42-1.23V86.63h-2.06V85.47h1.47a.57.57,0,0,0,.68-.69V83.1h1.33v2.37h2.86v1.16h-2.86V91h2.86v1.16Z"/><path class="cls-3" d="M821.46,92.18a1.66,1.66,0,0,1-1.3-.47,1.8,1.8,0,0,1-.42-1.23V86.63h-2.06V85.47h1.47a.57.57,0,0,0,.68-.69V83.1h1.33v2.37H824v1.16h-2.86V91H824v1.16Z"/><path class="cls-3" d="M831.35,92.18a1.19,1.19,0,0,1-.91-.31,1.33,1.33,0,0,1-.37-.82H830a1.75,1.75,0,0,1-.71,1,2.37,2.37,0,0,1-1.3.33,2.32,2.32,0,0,1-1.64-.54,1.85,1.85,0,0,1-.61-1.48,1.71,1.71,0,0,1,.72-1.49,3.85,3.85,0,0,1,2.21-.52H830v-.51c0-.91-.48-1.37-1.44-1.37a2,2,0,0,0-1.06.25,2.37,2.37,0,0,0-.67.67l-.85-.69a2.51,2.51,0,0,1,1-.94,3.45,3.45,0,0,1,1.74-.4,3,3,0,0,1,2,.62,2.14,2.14,0,0,1,.73,1.76v3.37h.84v1.12Zm-3-.89a1.91,1.91,0,0,0,1.13-.31.94.94,0,0,0,.44-.8v-1H828.7c-1,0-1.53.31-1.53.92v.26a.76.76,0,0,0,.32.68A1.58,1.58,0,0,0,828.39,91.29Z"/><path class="cls-3" d="M836.9,92.33a3.52,3.52,0,0,1-1.34-.24,2.78,2.78,0,0,1-1-.7,3.18,3.18,0,0,1-.63-1.11,5.15,5.15,0,0,1,0-2.91,3.18,3.18,0,0,1,.63-1.11,2.78,2.78,0,0,1,1-.7,3.5,3.5,0,0,1,1.33-.25,2.89,2.89,0,0,1,1.67.44,2.61,2.61,0,0,1,.94,1.14l-1.1.6a1.61,1.61,0,0,0-.55-.74,1.54,1.54,0,0,0-1-.28,1.59,1.59,0,0,0-1.25.49,1.89,1.89,0,0,0-.44,1.3v1.13a1.89,1.89,0,0,0,.44,1.29,1.63,1.63,0,0,0,1.28.5,1.73,1.73,0,0,0,1-.29,2.05,2.05,0,0,0,.63-.78l1,.64a2.79,2.79,0,0,1-1,1.14A3,3,0,0,1,836.9,92.33Z"/><path class="cls-3" d="M841.7,82.56h1.42v5.81h.06l1.05-1.08,1.89-1.82h1.68l-2.72,2.64,3,4.07h-1.71l-2.34-3.26-.93.87v2.39H841.7Z"/><path class="cls-3" d="M862.16,92.18l-.69-2.43h-2.88l-.69,2.43h-1.48l2.65-9.08h2l2.65,9.08Zm-2.08-7.61H860l-1.12,4h2.34Z"/><path class="cls-3" d="M864.93,91h2.22v-7.3h-2.22V82.56h3.64V91h2.22v1.16h-5.86Z"/><path class="cls-3" d="M879.17,92.91a1.65,1.65,0,0,1-.88,1.53,5.52,5.52,0,0,1-2.65.49,7.55,7.55,0,0,1-1.46-.11,3.28,3.28,0,0,1-1-.31,1.34,1.34,0,0,1-.54-.51,1.51,1.51,0,0,1-.16-.68,1.13,1.13,0,0,1,.31-.85,1.9,1.9,0,0,1,.86-.45v-.13a1.39,1.39,0,0,1-.54-.36.93.93,0,0,1-.2-.61.87.87,0,0,1,.34-.75,2.18,2.18,0,0,1,.87-.38v-.07a2.27,2.27,0,0,1-.95-.8,2.46,2.46,0,0,1-.14-2.22,2,2,0,0,1,.55-.74,2.56,2.56,0,0,1,.86-.48,3.56,3.56,0,0,1,1.12-.17,3.33,3.33,0,0,1,1.26.23v-.23a.93.93,0,0,1,.23-.64.8.8,0,0,1,.67-.27H879v1.12h-1.56v.31a2.06,2.06,0,0,1,.68.76,2.45,2.45,0,0,1,.23,1.08,2.37,2.37,0,0,1-.19,1,2.24,2.24,0,0,1-.55.74,2.45,2.45,0,0,1-.86.46,3.62,3.62,0,0,1-1.13.17,4.41,4.41,0,0,1-.83-.08,1.8,1.8,0,0,0-.47.22.5.5,0,0,0-.23.43.36.36,0,0,0,.3.39,3,3,0,0,0,.74.08h1.51a3,3,0,0,1,2,.51A1.68,1.68,0,0,1,879.17,92.91Zm-1.33.08a.63.63,0,0,0-.27-.54,1.73,1.73,0,0,0-1-.21h-2.33a.79.79,0,0,0-.49.76.83.83,0,0,0,.32.66,1.61,1.61,0,0,0,1,.27h1.06a2.55,2.55,0,0,0,1.23-.24A.76.76,0,0,0,877.84,93Zm-2.24-4a1.43,1.43,0,0,0,1-.32,1.21,1.21,0,0,0,.32-.87v-.35a1.22,1.22,0,0,0-.32-.88,1.43,1.43,0,0,0-1-.32,1.41,1.41,0,0,0-1,.32,1.18,1.18,0,0,0-.33.88v.35a1.18,1.18,0,0,0,.33.87A1.41,1.41,0,0,0,875.6,89Z"/><path class="cls-3" d="M883.46,92.33a3.56,3.56,0,0,1-1.34-.24,2.87,2.87,0,0,1-1-.7,3.35,3.35,0,0,1-.63-1.11,4.92,4.92,0,0,1,0-2.91,3.35,3.35,0,0,1,.63-1.11,2.87,2.87,0,0,1,1-.7,3.69,3.69,0,0,1,2.67,0,2.87,2.87,0,0,1,1,.7,3.35,3.35,0,0,1,.63,1.11,4.92,4.92,0,0,1,0,2.91,3.35,3.35,0,0,1-.63,1.11,2.87,2.87,0,0,1-1,.7A3.54,3.54,0,0,1,883.46,92.33Zm0-1.11a1.66,1.66,0,0,0,1.24-.48,2,2,0,0,0,.46-1.41v-1a2,2,0,0,0-.46-1.41,1.85,1.85,0,0,0-2.49,0,2,2,0,0,0-.46,1.41v1a2,2,0,0,0,.46,1.41A1.65,1.65,0,0,0,883.46,91.22Z"/><path class="cls-3" d="M888.34,91h1.78V86.63h-1.78V85.47h3.2v1.78h.08a3.21,3.21,0,0,1,.26-.67,1.86,1.86,0,0,1,.43-.57,2,2,0,0,1,.63-.39,2.44,2.44,0,0,1,.89-.15h.8v1.35h-1.32a1.84,1.84,0,0,0-1.28.46,1.65,1.65,0,0,0-.49,1.24V91H894v1.16h-5.63Z"/><path class="cls-3" d="M896.47,91h2.28V86.63h-2.28V85.47h3.7V91h2.15v1.16h-5.85Zm3-6.77a1.08,1.08,0,0,1-.76-.22.77.77,0,0,1-.21-.55v-.27a.77.77,0,0,1,.21-.55,1,1,0,0,1,.75-.22,1.08,1.08,0,0,1,.76.22.77.77,0,0,1,.21.55v.27a.77.77,0,0,1-.21.55A1,1,0,0,1,899.47,84.25Z"/><path class="cls-3" d="M907.26,92.18a1.65,1.65,0,0,1-1.3-.47,1.8,1.8,0,0,1-.42-1.23V86.63h-2.07V85.47h1.47a.79.79,0,0,0,.54-.15.76.76,0,0,0,.15-.54V83.1H907v2.37h2.86v1.16H907V91h2.86v1.16Z"/><path class="cls-3" d="M911.85,82.56h1.41v4h.07a3.4,3.4,0,0,1,.26-.5,1.94,1.94,0,0,1,.4-.41,1.9,1.9,0,0,1,.55-.28,2.27,2.27,0,0,1,.72-.11,2.15,2.15,0,0,1,1.64.67,2.62,2.62,0,0,1,.63,1.88v4.32h-1.42V88.07c0-1.07-.46-1.6-1.39-1.6a2.33,2.33,0,0,0-.53.07,1.45,1.45,0,0,0-.47.22,1,1,0,0,0-.33.36,1,1,0,0,0-.13.51v4.55h-1.41Z"/><path class="cls-3" d="M919.13,92.18V85.47h1.21v.87h.06a2,2,0,0,1,.45-.73,1.1,1.1,0,0,1,.84-.3,1.09,1.09,0,0,1,.82.3,1.33,1.33,0,0,1,.37.8h0a2.35,2.35,0,0,1,.51-.78,1.3,1.3,0,0,1,.94-.32,1.13,1.13,0,0,1,1.08.55,3.26,3.26,0,0,1,.31,1.6v4.72h-1.21V87.64a2,2,0,0,0-.17-1,.6.6,0,0,0-.55-.26.76.76,0,0,0-.56.22,1,1,0,0,0-.23.69v4.86h-1.21V87.64a2,2,0,0,0-.16-1,.6.6,0,0,0-.54-.26.79.79,0,0,0-.58.22,1,1,0,0,0-.22.69v4.86Z"/><path class="cls-3" d="M784,104.53v-1.42h3.93v1.42Z"/><path class="cls-3" d="M795.86,107.78l-.69-2.43h-2.88l-.69,2.43h-1.48l2.65-9.07h2l2.65,9.07Zm-2.08-7.61h-.1l-1.12,4h2.34Z"/><path class="cls-3" d="M802,107.78a1.66,1.66,0,0,1-1.3-.47,1.8,1.8,0,0,1-.42-1.23v-3.85h-2.06v-1.16h1.47a.57.57,0,0,0,.68-.69V98.71h1.33v2.36h2.86v1.16h-2.86v4.39h2.86v1.16Z"/><path class="cls-3" d="M811.85,107.78a1.19,1.19,0,0,1-.91-.31,1.33,1.33,0,0,1-.37-.82h-.07a1.75,1.75,0,0,1-.71.95,2.71,2.71,0,0,1-2.94-.2,1.88,1.88,0,0,1-.61-1.49,1.71,1.71,0,0,1,.72-1.49,3.86,3.86,0,0,1,2.21-.51h1.29v-.52c0-.91-.48-1.37-1.44-1.37a2,2,0,0,0-1.06.25,2.37,2.37,0,0,0-.67.67l-.85-.69a2.51,2.51,0,0,1,1-.94,3.45,3.45,0,0,1,1.74-.39,3,3,0,0,1,2,.61,2.14,2.14,0,0,1,.73,1.76v3.37h.84v1.12Zm-3-.88a1.91,1.91,0,0,0,1.13-.32.94.94,0,0,0,.44-.8v-1H809.2c-1,0-1.53.3-1.53.91V106a.76.76,0,0,0,.32.68A1.58,1.58,0,0,0,808.89,106.9Z"/><path class="cls-3" d="M817.4,107.94a3.52,3.52,0,0,1-1.34-.25,2.78,2.78,0,0,1-1-.7,3.18,3.18,0,0,1-.63-1.11,5.15,5.15,0,0,1,0-2.91,3.18,3.18,0,0,1,.63-1.11,2.78,2.78,0,0,1,1-.7,3.5,3.5,0,0,1,1.33-.24,2.89,2.89,0,0,1,1.67.43,2.61,2.61,0,0,1,.94,1.14l-1.1.6a1.61,1.61,0,0,0-.55-.74,1.54,1.54,0,0,0-1-.28,1.63,1.63,0,0,0-1.25.49,1.89,1.89,0,0,0-.44,1.3V105a1.89,1.89,0,0,0,.44,1.29,1.63,1.63,0,0,0,1.28.5,1.73,1.73,0,0,0,1-.29,2.05,2.05,0,0,0,.63-.78l1,.64a2.73,2.73,0,0,1-1,1.14A3,3,0,0,1,817.4,107.94Z"/><path class="cls-3" d="M822.2,98.16h1.42V104h.06l1.05-1.08,1.89-1.82h1.68l-2.72,2.64,3,4.07h-1.71l-2.34-3.26-.93.87v2.39H822.2Z"/><path class="cls-3" d="M842.66,107.78l-.69-2.43h-2.88l-.69,2.43h-1.48l2.65-9.07h2l2.65,9.07Zm-2.08-7.61h-.1l-1.12,4h2.34Z"/><path class="cls-3" d="M848.6,107.94a3.52,3.52,0,0,1-1.34-.25,2.78,2.78,0,0,1-1-.7,3,3,0,0,1-.63-1.11,5.15,5.15,0,0,1,0-2.91,3,3,0,0,1,.63-1.11,2.78,2.78,0,0,1,1-.7,3.47,3.47,0,0,1,1.33-.24,2.89,2.89,0,0,1,1.67.43,2.68,2.68,0,0,1,.94,1.14l-1.1.6a1.61,1.61,0,0,0-.55-.74,1.54,1.54,0,0,0-1-.28,1.63,1.63,0,0,0-1.25.49,1.89,1.89,0,0,0-.44,1.3V105a1.89,1.89,0,0,0,.44,1.29,1.63,1.63,0,0,0,1.28.5,1.73,1.73,0,0,0,1-.29,2.05,2.05,0,0,0,.63-.78l1,.64a2.73,2.73,0,0,1-1,1.14A3,3,0,0,1,848.6,107.94Z"/><path class="cls-3" d="M856.56,107.78a1.66,1.66,0,0,1-1.3-.47,1.8,1.8,0,0,1-.42-1.23v-3.85h-2.07v-1.16h1.47a.77.77,0,0,0,.54-.15.76.76,0,0,0,.15-.54V98.71h1.33v2.36h2.86v1.16h-2.86v4.39h2.86v1.16Z"/><path class="cls-3" d="M861.37,106.62h2.29v-4.39h-2.29v-1.16h3.7v5.55h2.15v1.16h-5.85Zm3-6.77a1,1,0,0,1-.76-.22.77.77,0,0,1-.21-.55v-.27a.77.77,0,0,1,.21-.55,1,1,0,0,1,.75-.22,1.08,1.08,0,0,1,.76.22.77.77,0,0,1,.21.55v.27a.77.77,0,0,1-.21.55A1,1,0,0,1,864.37,99.85Z"/><path class="cls-3" d="M871.75,107.94a3.54,3.54,0,0,1-1.33-.25,2.87,2.87,0,0,1-1-.7,3.35,3.35,0,0,1-.63-1.11,4.92,4.92,0,0,1,0-2.91,3.35,3.35,0,0,1,.63-1.11,2.87,2.87,0,0,1,1-.7,3.83,3.83,0,0,1,2.67,0,2.87,2.87,0,0,1,1,.7,3.35,3.35,0,0,1,.63,1.11,4.92,4.92,0,0,1,0,2.91,3.35,3.35,0,0,1-.63,1.11,2.87,2.87,0,0,1-1,.7A3.55,3.55,0,0,1,871.75,107.94Zm0-1.12a1.66,1.66,0,0,0,1.25-.48,2,2,0,0,0,.46-1.41v-1a2,2,0,0,0-.46-1.41,1.66,1.66,0,0,0-1.25-.48,1.64,1.64,0,0,0-1.24.48,2,2,0,0,0-.46,1.41v1a2,2,0,0,0,.46,1.41A1.64,1.64,0,0,0,871.75,106.82Z"/><path class="cls-3" d="M876.75,107.78v-6.71h1.41v1.14h.07a3.06,3.06,0,0,1,.27-.5,1.68,1.68,0,0,1,.39-.41,1.9,1.9,0,0,1,.55-.28,2.3,2.3,0,0,1,.73-.1,2.13,2.13,0,0,1,1.63.66,2.62,2.62,0,0,1,.63,1.88v4.32H881v-4.11c0-1.06-.46-1.6-1.39-1.6a2.33,2.33,0,0,0-.53.07,1.45,1.45,0,0,0-.47.22,1,1,0,0,0-.33.36,1,1,0,0,0-.13.51v4.55Z"/><path class="cls-3" d="M895.88,99.93v7.85h-1.45V99.93h-2.85V98.71h7.15v1.22Z"/><path class="cls-3" d="M905.45,107.78a1.23,1.23,0,0,1-.92-.31,1.45,1.45,0,0,1-.37-.82h-.06a1.75,1.75,0,0,1-.71.95,2.73,2.73,0,0,1-2.95-.2,1.91,1.91,0,0,1-.61-1.49,1.7,1.7,0,0,1,.73-1.49,3.86,3.86,0,0,1,2.21-.51h1.29v-.52c0-.91-.48-1.37-1.44-1.37a2,2,0,0,0-1.06.25,2.25,2.25,0,0,0-.67.67l-.85-.69a2.48,2.48,0,0,1,1-.94,3.49,3.49,0,0,1,1.75-.39,3,3,0,0,1,2,.61,2.17,2.17,0,0,1,.73,1.76v3.37h.84v1.12Zm-3-.88a1.91,1.91,0,0,0,1.13-.32.94.94,0,0,0,.44-.8v-1H902.8c-1,0-1.54.3-1.54.91V106a.77.77,0,0,0,.33.68A1.55,1.55,0,0,0,902.49,106.9Z"/><path class="cls-3" d="M907.84,106.62h1.78v-4.39h-1.78v-1.16H911v1.78h.08a2.74,2.74,0,0,1,.26-.67,1.86,1.86,0,0,1,.43-.57,2,2,0,0,1,.63-.39,2.4,2.4,0,0,1,.89-.15h.8v1.35h-1.32a1.84,1.84,0,0,0-1.28.46,1.61,1.61,0,0,0-.49,1.24v2.5h2.43v1.16h-5.63Z"/><path class="cls-3" d="M922.06,108.51a1.64,1.64,0,0,1-.87,1.53,5.5,5.5,0,0,1-2.65.5,7.46,7.46,0,0,1-1.46-.12,2.92,2.92,0,0,1-1-.31,1.34,1.34,0,0,1-.54-.51,1.39,1.39,0,0,1-.16-.68,1.14,1.14,0,0,1,.31-.85,1.9,1.9,0,0,1,.86-.45v-.13a1.29,1.29,0,0,1-.54-.36.93.93,0,0,1-.2-.61.87.87,0,0,1,.34-.75,2.18,2.18,0,0,1,.87-.38v-.07a2.27,2.27,0,0,1-.95-.8,2.23,2.23,0,0,1-.34-1.25,2.34,2.34,0,0,1,.2-1,2,2,0,0,1,.55-.74,2.75,2.75,0,0,1,.86-.48,3.57,3.57,0,0,1,1.12-.16,3.33,3.33,0,0,1,1.26.22v-.22a1,1,0,0,1,.22-.65.84.84,0,0,1,.68-.27h1.22v1.12h-1.56v.32a1.92,1.92,0,0,1,.68.76,2.59,2.59,0,0,1,0,2,2.14,2.14,0,0,1-.56.74,2.49,2.49,0,0,1-.85.47,4,4,0,0,1-1.13.16,4.41,4.41,0,0,1-.83-.08,1.66,1.66,0,0,0-.47.22.51.51,0,0,0-.23.43.36.36,0,0,0,.3.39,3,3,0,0,0,.74.08h1.51a3,3,0,0,1,1.94.51A1.68,1.68,0,0,1,922.06,108.51Zm-1.32.08a.61.61,0,0,0-.28-.54,1.67,1.67,0,0,0-1-.21h-2.33a.79.79,0,0,0-.49.76.83.83,0,0,0,.31.66,1.66,1.66,0,0,0,1.06.27h1.06a2.51,2.51,0,0,0,1.22-.24A.75.75,0,0,0,920.74,108.59Zm-2.24-4a1.39,1.39,0,0,0,1-.32,1.21,1.21,0,0,0,.32-.87v-.35a1.22,1.22,0,0,0-.32-.88,1.43,1.43,0,0,0-1-.32,1.39,1.39,0,0,0-1,.32,1.18,1.18,0,0,0-.33.88v.35a1.18,1.18,0,0,0,.33.87A1.35,1.35,0,0,0,918.5,104.63Z"/><path class="cls-3" d="M926.5,107.94a3.73,3.73,0,0,1-1.38-.25,2.9,2.9,0,0,1-1-.7,3.16,3.16,0,0,1-.64-1.1,4.65,4.65,0,0,1-.22-1.45,4.47,4.47,0,0,1,.23-1.46,3.2,3.2,0,0,1,.64-1.11,2.73,2.73,0,0,1,1-.71,3.42,3.42,0,0,1,1.3-.24,3.32,3.32,0,0,1,1.28.24,2.66,2.66,0,0,1,1,.68,2.9,2.9,0,0,1,.62,1,4.15,4.15,0,0,1,.21,1.35v.54h-4.81V105a1.74,1.74,0,0,0,.5,1.28,1.84,1.84,0,0,0,1.36.5,2,2,0,0,0,1.11-.28,2.13,2.13,0,0,0,.75-.74l.88.78a2.66,2.66,0,0,1-1,1A3.38,3.38,0,0,1,926.5,107.94Zm-.11-6a1.93,1.93,0,0,0-.69.13,1.43,1.43,0,0,0-.55.38,1.8,1.8,0,0,0-.36.56,2.09,2.09,0,0,0-.13.72v.09H928v-.13a1.78,1.78,0,0,0-.45-1.27A1.54,1.54,0,0,0,926.39,102Z"/><path class="cls-3" d="M934.56,107.78a1.65,1.65,0,0,1-1.3-.47,1.8,1.8,0,0,1-.42-1.23v-3.85h-2.07v-1.16h1.47a.79.79,0,0,0,.54-.15.76.76,0,0,0,.15-.54V98.71h1.33v2.36h2.86v1.16h-2.86v4.39h2.86v1.16Z"/><path class="cls-3" d="M815.19,120.13v-1.42h3.93v1.42Z"/><path class="cls-3" d="M822.15,123.38V114.3h3.39a2.59,2.59,0,0,1,2,.73,3.24,3.24,0,0,1,0,4,2.58,2.58,0,0,1-2,.72H823.6v3.63Zm1.45-4.82h1.72q1.35,0,1.35-1.26v-.56c0-.83-.45-1.24-1.35-1.24H823.6Z"/><path class="cls-3" d="M832.9,123.54a3.77,3.77,0,0,1-1.38-.25,2.9,2.9,0,0,1-1-.7,3.14,3.14,0,0,1-.63-1.1,4.37,4.37,0,0,1-.22-1.45,4.48,4.48,0,0,1,.22-1.46,3.55,3.55,0,0,1,.64-1.11,2.76,2.76,0,0,1,1-.71,3.38,3.38,0,0,1,1.3-.25,3.1,3.1,0,0,1,1.27.25,2.7,2.7,0,0,1,1,.68,3,3,0,0,1,.61,1,4.15,4.15,0,0,1,.22,1.35v.54h-4.81v.22a1.73,1.73,0,0,0,.49,1.28,1.84,1.84,0,0,0,1.37.5,2.08,2.08,0,0,0,1.11-.28,2.18,2.18,0,0,0,.74-.74l.89.78a2.76,2.76,0,0,1-1,1A3.38,3.38,0,0,1,832.9,123.54Zm-.1-6a1.94,1.94,0,0,0-.7.13,1.72,1.72,0,0,0-.55.37,1.65,1.65,0,0,0-.35.57,1.88,1.88,0,0,0-.13.72v.09h3.36v-.13a1.8,1.8,0,0,0-.44-1.27A1.56,1.56,0,0,0,832.8,117.59Z"/><path class="cls-3" d="M837.64,122.22h1.78v-4.39h-1.78v-1.16h3.2v1.78h.08a3.21,3.21,0,0,1,.26-.67,2,2,0,0,1,1.07-1,2.35,2.35,0,0,1,.88-.15h.81V118h-1.33a1.82,1.82,0,0,0-1.27.46,1.62,1.62,0,0,0-.5,1.24v2.5h2.43v1.16h-5.63Z"/><path class="cls-3" d="M848.76,123.38a1.66,1.66,0,0,1-1.3-.47,1.8,1.8,0,0,1-.42-1.23v-3.85H845v-1.16h1.47a.57.57,0,0,0,.68-.69V114.3h1.33v2.37h2.86v1.16h-2.86v4.39h2.86v1.16Z"/><path class="cls-3" d="M857.55,122.24h-.07a3.4,3.4,0,0,1-.26.5,1.94,1.94,0,0,1-.4.41,1.9,1.9,0,0,1-.55.28,2.27,2.27,0,0,1-.72.11,2.15,2.15,0,0,1-1.64-.67,2.62,2.62,0,0,1-.63-1.88v-4.32h1.42v4.11c0,1.06.46,1.6,1.39,1.6a2.33,2.33,0,0,0,.53-.07,1.45,1.45,0,0,0,.47-.22,1,1,0,0,0,.33-.36.92.92,0,0,0,.13-.51v-4.55H859v6.71h-1.41Z"/><path class="cls-3" d="M861.08,113.76h1.42v4h.08a2.48,2.48,0,0,1,.79-1,2.11,2.11,0,0,1,1.24-.35,2.29,2.29,0,0,1,1.88.89,5.27,5.27,0,0,1,0,5.25,2.29,2.29,0,0,1-1.88.89,2.11,2.11,0,0,1-1.24-.35,2.48,2.48,0,0,1-.79-1h-.08v1.14h-1.42Zm2.94,8.62a1.56,1.56,0,0,0,1.24-.5,1.9,1.9,0,0,0,.44-1.31v-1.09a1.9,1.9,0,0,0-.44-1.31,1.56,1.56,0,0,0-1.24-.5,2.14,2.14,0,0,0-.58.08,1.34,1.34,0,0,0-.48.23,1.41,1.41,0,0,0-.34.39,1.13,1.13,0,0,0-.12.54v2.23a1.13,1.13,0,0,0,.12.54,1.41,1.41,0,0,0,.34.39,1.34,1.34,0,0,0,.48.23A2.14,2.14,0,0,0,864,122.38Z"/><path class="cls-3" d="M874.25,123.38a1.19,1.19,0,0,1-.91-.31,1.4,1.4,0,0,1-.38-.82h-.06a1.75,1.75,0,0,1-.71,1,2.71,2.71,0,0,1-2.94-.2,1.88,1.88,0,0,1-.61-1.49,1.71,1.71,0,0,1,.72-1.49,3.85,3.85,0,0,1,2.21-.52h1.29V119c0-.91-.48-1.37-1.44-1.37a2,2,0,0,0-1.06.25,2.37,2.37,0,0,0-.67.67l-.85-.69a2.44,2.44,0,0,1,1-.94,3.45,3.45,0,0,1,1.74-.4,3,3,0,0,1,2,.62,2.14,2.14,0,0,1,.73,1.76v3.37h.84v1.12Zm-3-.88a1.91,1.91,0,0,0,1.13-.32.94.94,0,0,0,.44-.8v-1H871.6c-1,0-1.53.3-1.53.91v.26a.76.76,0,0,0,.32.68A1.58,1.58,0,0,0,871.29,122.5Z"/><path class="cls-3" d="M880,123.38a1.66,1.66,0,0,1-1.3-.47,1.8,1.8,0,0,1-.42-1.23v-3.85h-2.07v-1.16h1.47a.77.77,0,0,0,.54-.15.76.76,0,0,0,.15-.54V114.3h1.33v2.37h2.86v1.16h-2.86v4.39h2.86v1.16Z"/><path class="cls-3" d="M884.77,122.22h2.29v-4.39h-2.29v-1.16h3.7v5.55h2.15v1.16h-5.85Zm3-6.77a1,1,0,0,1-.76-.22.77.77,0,0,1-.21-.55v-.27a.77.77,0,0,1,.21-.55,1,1,0,0,1,.75-.22,1.08,1.08,0,0,1,.76.22.77.77,0,0,1,.21.55v.27a.77.77,0,0,1-.21.55A1,1,0,0,1,887.77,115.45Z"/><path class="cls-3" d="M895.16,123.54a3.55,3.55,0,0,1-1.34-.25,2.87,2.87,0,0,1-1-.7,3.35,3.35,0,0,1-.63-1.11,4.92,4.92,0,0,1,0-2.91,3.35,3.35,0,0,1,.63-1.11,2.87,2.87,0,0,1,1-.7,3.69,3.69,0,0,1,2.67,0,2.87,2.87,0,0,1,1,.7,3.35,3.35,0,0,1,.63,1.11,4.92,4.92,0,0,1,0,2.91,3.35,3.35,0,0,1-.63,1.11,2.87,2.87,0,0,1-1,.7A3.54,3.54,0,0,1,895.16,123.54Zm0-1.12a1.66,1.66,0,0,0,1.24-.48,2,2,0,0,0,.46-1.41v-1a2,2,0,0,0-.46-1.41,1.85,1.85,0,0,0-2.49,0,2,2,0,0,0-.46,1.41v1a2,2,0,0,0,.46,1.41A1.65,1.65,0,0,0,895.16,122.42Z"/><path class="cls-3" d="M900.15,123.38v-6.71h1.41v1.14h.07a2.7,2.7,0,0,1,.27-.5,1.68,1.68,0,0,1,.39-.41,1.9,1.9,0,0,1,.55-.28,2.29,2.29,0,0,1,.73-.11,2.14,2.14,0,0,1,1.63.67,2.62,2.62,0,0,1,.63,1.88v4.32h-1.42v-4.11c0-1.06-.46-1.6-1.39-1.6a2.33,2.33,0,0,0-.53.07,1.45,1.45,0,0,0-.47.22,1,1,0,0,0-.33.36,1,1,0,0,0-.13.51v4.55Z"/><rect class="cls-4" x="967.8" y="189.98" width="148.51" height="95.5"/><path class="cls-3" d="M983.54,234.51l-.75-2.62h-3.1l-.75,2.62h-1.59l2.85-9.77h2.15l2.85,9.77Zm-2.24-8.19h-.12L980,230.6h2.52Z"/><path class="cls-3" d="M990.1,234.51a1.78,1.78,0,0,1-1.4-.51,1.92,1.92,0,0,1-.45-1.32v-4.15H986v-1.24h1.58a.84.84,0,0,0,.57-.16.77.77,0,0,0,.17-.59v-1.8h1.43v2.55h3.08v1.24h-3.08v4.73h3.08v1.25Z"/><path class="cls-3" d="M998.5,234.51a1.78,1.78,0,0,1-1.4-.51,1.92,1.92,0,0,1-.45-1.32v-4.15h-2.22v-1.24H996a.84.84,0,0,0,.57-.16.77.77,0,0,0,.17-.59v-1.8h1.43v2.55h3.08v1.24h-3.08v4.73h3.08v1.25Z"/><path class="cls-3" d="M1009.15,234.51a1.3,1.3,0,0,1-1-.34,1.47,1.47,0,0,1-.4-.88h-.07a1.88,1.88,0,0,1-.76,1,2.47,2.47,0,0,1-1.41.37,2.57,2.57,0,0,1-1.77-.58,2.05,2.05,0,0,1-.65-1.6,1.86,1.86,0,0,1,.77-1.61,4.16,4.16,0,0,1,2.39-.55h1.39v-.56q0-1.47-1.56-1.47a2.12,2.12,0,0,0-1.13.27,2.39,2.39,0,0,0-.73.72l-.91-.74a2.6,2.6,0,0,1,1-1,3.6,3.6,0,0,1,1.87-.43,3.24,3.24,0,0,1,2.16.66,2.35,2.35,0,0,1,.78,1.9v3.63h.91v1.2Zm-3.19-.95a2,2,0,0,0,1.22-.34,1,1,0,0,0,.48-.86v-1h-1.36q-1.65,0-1.65,1v.27a.84.84,0,0,0,.35.74A1.66,1.66,0,0,0,1006,233.56Z"/><path class="cls-3" d="M1015.13,234.68a3.71,3.71,0,0,1-1.45-.27,2.92,2.92,0,0,1-1.07-.75,3.4,3.4,0,0,1-.68-1.19,5.47,5.47,0,0,1,0-3.14,3.31,3.31,0,0,1,.68-1.19,2.94,2.94,0,0,1,1.07-.76,3.89,3.89,0,0,1,1.44-.26,3.16,3.16,0,0,1,1.8.47,2.86,2.86,0,0,1,1,1.22l-1.19.65a1.74,1.74,0,0,0-.59-.8,1.68,1.68,0,0,0-1-.3,1.74,1.74,0,0,0-1.35.53,2.06,2.06,0,0,0-.47,1.4v1.21a2.06,2.06,0,0,0,.47,1.4,1.78,1.78,0,0,0,1.38.53,1.9,1.9,0,0,0,1.1-.3,2.16,2.16,0,0,0,.67-.84l1.12.68a2.92,2.92,0,0,1-1.06,1.23A3.26,3.26,0,0,1,1015.13,234.68Z"/><path class="cls-3" d="M1020.3,224.15h1.52v6.26h.07l1.14-1.16,2-2h1.8l-2.92,2.84,3.25,4.38h-1.84l-2.52-3.51-1,.93v2.58h-1.52Z"/><path class="cls-3" d="M1031.82,234.68a3.83,3.83,0,0,1-1.48-.27,3,3,0,0,1-1.11-.75,3.33,3.33,0,0,1-.69-1.19,4.73,4.73,0,0,1-.24-1.56,4.83,4.83,0,0,1,.25-1.57,3.42,3.42,0,0,1,.69-1.19,3,3,0,0,1,1.07-.77,3.68,3.68,0,0,1,1.4-.26,3.56,3.56,0,0,1,1.37.26,3,3,0,0,1,1.05.73,3.22,3.22,0,0,1,.66,1.14,4.2,4.2,0,0,1,.23,1.45v.58h-5.18v.23a1.88,1.88,0,0,0,.54,1.39,2,2,0,0,0,1.47.53,2.26,2.26,0,0,0,1.19-.3,2.3,2.3,0,0,0,.81-.8l1,.85a2.92,2.92,0,0,1-1.11,1.06A3.67,3.67,0,0,1,1031.82,234.68Zm-.11-6.4a2,2,0,0,0-.75.14,1.62,1.62,0,0,0-.59.4,1.95,1.95,0,0,0-.53,1.38v.1h3.63v-.14a1.92,1.92,0,0,0-.48-1.37A1.68,1.68,0,0,0,1031.71,228.28Z"/><path class="cls-3" d="M1041.63,233.28h-.08a2.66,2.66,0,0,1-.86,1,2.3,2.3,0,0,1-1.33.37,2.48,2.48,0,0,1-2-1,5.71,5.71,0,0,1,0-5.66,2.48,2.48,0,0,1,2-.95,2.22,2.22,0,0,1,1.33.37,2.66,2.66,0,0,1,.86,1h.08v-4.37h1.53v10.36h-1.53Zm-1.64.15a2.47,2.47,0,0,0,.63-.08,1.67,1.67,0,0,0,.52-.25,1.32,1.32,0,0,0,.36-.42,1.16,1.16,0,0,0,.13-.58v-2.41a1.21,1.21,0,0,0-.13-.58,1.29,1.29,0,0,0-.36-.41,1.48,1.48,0,0,0-.52-.25,2.08,2.08,0,0,0-.63-.09,1.67,1.67,0,0,0-1.33.54,2,2,0,0,0-.47,1.41v1.18a2,2,0,0,0,.47,1.41A1.66,1.66,0,0,0,1040,233.43Z"/><path class="cls-3" d="M1053.84,234.51v-9.77h3.65a2.8,2.8,0,0,1,2.14.78,3.53,3.53,0,0,1,0,4.3,2.8,2.8,0,0,1-2.14.78h-2.08v3.91Zm1.57-5.19h1.84c1,0,1.46-.45,1.46-1.35v-.61c0-.89-.48-1.33-1.46-1.33h-1.84Z"/><path class="cls-3" d="M1065.26,234.68a3.61,3.61,0,0,1-1.43-.27,2.88,2.88,0,0,1-1.08-.75,3.56,3.56,0,0,1-.68-1.19,5.26,5.26,0,0,1,0-3.14,3.47,3.47,0,0,1,.68-1.19,2.9,2.9,0,0,1,1.08-.76,3.8,3.8,0,0,1,1.43-.26,3.85,3.85,0,0,1,1.44.26,3.07,3.07,0,0,1,1.08.76,3.29,3.29,0,0,1,.67,1.19,5.26,5.26,0,0,1,0,3.14,3.38,3.38,0,0,1-.67,1.19,3,3,0,0,1-1.08.75A3.66,3.66,0,0,1,1065.26,234.68Zm0-1.21a1.79,1.79,0,0,0,1.34-.51,2.09,2.09,0,0,0,.5-1.52v-1.09a2.11,2.11,0,0,0-.5-1.52,1.79,1.79,0,0,0-1.34-.51,1.76,1.76,0,0,0-1.33.51,2.07,2.07,0,0,0-.5,1.52v1.09a2,2,0,0,0,.5,1.52A1.76,1.76,0,0,0,1065.26,233.47Z"/><path class="cls-3" d="M1070.51,233.26h2.4V225.4h-2.4v-1.25h3.92v9.11h2.4v1.25h-6.32Z"/><path class="cls-3" d="M1079.28,233.26h2.46v-4.73h-2.46v-1.24h4v6h2.31v1.25h-6.3Zm3.23-7.29a1.12,1.12,0,0,1-.82-.24.82.82,0,0,1-.23-.59v-.29a.84.84,0,0,1,.23-.59,1.49,1.49,0,0,1,1.62,0,.81.81,0,0,1,.24.59v.29a.79.79,0,0,1-.24.59A1.08,1.08,0,0,1,1082.51,226Z"/><path class="cls-3" d="M1090.73,234.68a3.68,3.68,0,0,1-1.45-.27,2.88,2.88,0,0,1-1.08-.75,3.38,3.38,0,0,1-.67-1.19,5.47,5.47,0,0,1,0-3.14,3.29,3.29,0,0,1,.67-1.19,2.9,2.9,0,0,1,1.08-.76,3.8,3.8,0,0,1,1.43-.26,3.12,3.12,0,0,1,1.8.47,3,3,0,0,1,1,1.22l-1.19.65a1.69,1.69,0,0,0-.6-.8,1.66,1.66,0,0,0-1-.3,1.72,1.72,0,0,0-1.34.53,2,2,0,0,0-.48,1.4v1.21a2,2,0,0,0,.48,1.4,1.76,1.76,0,0,0,1.37.53,1.88,1.88,0,0,0,1.1-.3,2.27,2.27,0,0,0,.68-.84l1.12.68a3,3,0,0,1-1.06,1.23A3.28,3.28,0,0,1,1090.73,234.68Z"/><path class="cls-3" d="M1101,227.29h1.54l-3.5,8.62a2.35,2.35,0,0,1-.73,1.05,2.13,2.13,0,0,1-1.31.35h-1.22v-1.25h1.71l.66-1.65-2.91-7.12h1.59l1.15,3,.9,2.48h.08l.9-2.48Z"/><path class="cls-3" d="M1011.82,241.54h2.91a3.2,3.2,0,0,1,2.78,1.24,7.81,7.81,0,0,1,0,7.28,3.18,3.18,0,0,1-2.78,1.25h-2.91Zm2.81,8.48a1.85,1.85,0,0,0,1.6-.72,3.46,3.46,0,0,0,.53-2.06v-1.63a3.46,3.46,0,0,0-.53-2.06,1.85,1.85,0,0,0-1.6-.72h-1.26V250Z"/><path class="cls-3" d="M1026,251.31a1.31,1.31,0,0,1-1-.34,1.47,1.47,0,0,1-.4-.88h-.07a1.88,1.88,0,0,1-.76,1,2.47,2.47,0,0,1-1.41.37,2.53,2.53,0,0,1-1.76-.58,2,2,0,0,1-.66-1.61,1.86,1.86,0,0,1,.77-1.6,4.16,4.16,0,0,1,2.39-.55h1.39v-.56q0-1.47-1.56-1.47a2.12,2.12,0,0,0-1.13.27,2.39,2.39,0,0,0-.73.72l-.91-.74a2.6,2.6,0,0,1,1-1,3.6,3.6,0,0,1,1.87-.43,3.24,3.24,0,0,1,2.16.66,2.35,2.35,0,0,1,.78,1.9v3.63h.91v1.2Zm-3.2-.95A2,2,0,0,0,1024,250a1,1,0,0,0,.48-.86v-1h-1.36q-1.65,0-1.65,1v.27a.84.84,0,0,0,.35.74A1.66,1.66,0,0,0,1022.76,250.36Z"/><path class="cls-3" d="M1032.1,251.31a1.78,1.78,0,0,1-1.4-.51,1.92,1.92,0,0,1-.45-1.32v-4.15H1028v-1.24h1.58a.84.84,0,0,0,.57-.16.77.77,0,0,0,.17-.59v-1.8h1.43v2.55h3.08v1.24h-3.08v4.73h3.08v1.25Z"/><path class="cls-3" d="M1042.75,251.31a1.3,1.3,0,0,1-1-.34,1.47,1.47,0,0,1-.4-.88h-.07a1.88,1.88,0,0,1-.76,1,2.47,2.47,0,0,1-1.41.37,2.57,2.57,0,0,1-1.77-.58,2.06,2.06,0,0,1-.65-1.61,1.83,1.83,0,0,1,.77-1.6,4.16,4.16,0,0,1,2.39-.55h1.39v-.56q0-1.47-1.56-1.47a2.12,2.12,0,0,0-1.13.27,2.39,2.39,0,0,0-.73.72l-.91-.74a2.6,2.6,0,0,1,1-1,3.6,3.6,0,0,1,1.87-.43,3.24,3.24,0,0,1,2.16.66,2.35,2.35,0,0,1,.78,1.9v3.63h.91v1.2Zm-3.19-.95a2,2,0,0,0,1.22-.34,1,1,0,0,0,.48-.86v-1h-1.36q-1.65,0-1.65,1v.27a.84.84,0,0,0,.35.74A1.66,1.66,0,0,0,1039.56,250.36Z"/><path class="cls-3" d="M1048.48,251.48a5,5,0,0,1-2-.38,3.66,3.66,0,0,1-1.37-1l.94-.84a3.17,3.17,0,0,0,2.48,1.07,2.48,2.48,0,0,0,1.2-.26.82.82,0,0,0,.45-.78.86.86,0,0,0-.08-.38.82.82,0,0,0-.24-.25,1.05,1.05,0,0,0-.36-.15,2.72,2.72,0,0,0-.43-.09l-1.14-.18a6.94,6.94,0,0,1-.86-.18,2.79,2.79,0,0,1-.78-.36,2,2,0,0,1-.56-.59,1.86,1.86,0,0,1-.21-.93,1.92,1.92,0,0,1,.84-1.68,4,4,0,0,1,2.24-.57,4.59,4.59,0,0,1,1.74.3,3.47,3.47,0,0,1,1.23.83l-.86.9a2.78,2.78,0,0,0-.8-.6,3,3,0,0,0-1.37-.27c-1,0-1.52.32-1.52,1a.66.66,0,0,0,.32.63,2,2,0,0,0,.78.23l1.15.19a6.25,6.25,0,0,1,.86.18,2.44,2.44,0,0,1,.77.34,1.79,1.79,0,0,1,.56.6,1.72,1.72,0,0,1,.22.92,2,2,0,0,1-.85,1.72A3.88,3.88,0,0,1,1048.48,251.48Z"/><path class="cls-3" d="M1057,251.48a3.83,3.83,0,0,1-1.48-.27,3,3,0,0,1-1.11-.75,3.33,3.33,0,0,1-.69-1.19,4.73,4.73,0,0,1-.24-1.56,4.83,4.83,0,0,1,.25-1.57,3.42,3.42,0,0,1,.69-1.19,3,3,0,0,1,1.07-.77,3.68,3.68,0,0,1,1.4-.26,3.38,3.38,0,0,1,1.37.26,3,3,0,0,1,1,.73,3.22,3.22,0,0,1,.66,1.14,4.2,4.2,0,0,1,.23,1.45v.58h-5.17v.23a1.87,1.87,0,0,0,.53,1.39,2,2,0,0,0,1.47.53,2.26,2.26,0,0,0,1.19-.3,2.3,2.3,0,0,0,.81-.8l1,.85a2.92,2.92,0,0,1-1.11,1.06A3.67,3.67,0,0,1,1057,251.48Zm-.11-6.4a2,2,0,0,0-.75.14,1.62,1.62,0,0,0-.59.4,1.89,1.89,0,0,0-.52,1.38v.1h3.62V247a1.92,1.92,0,0,0-.48-1.37A1.68,1.68,0,0,0,1056.91,245.08Z"/><path class="cls-3" d="M1065.7,251.31a1.76,1.76,0,0,1-1.4-.51,1.92,1.92,0,0,1-.45-1.32v-4.15h-2.23v-1.24h1.59a.84.84,0,0,0,.57-.16.81.81,0,0,0,.17-.59v-1.8h1.43v2.55h3.08v1.24h-3.08v4.73h3.08v1.25Z"/><rect class="cls-4" x="967.91" y="349.35" width="148.51" height="95.5"/><path class="cls-3" d="M981.9,392.5v-14h8.74v1.88h-6.5v4.06h6.26v1.88h-6.26v4.26h6.5v1.88Z"/><path class="cls-3" d="M996.84,392.5l-3.7-10.32h2.26l1.42,4.36,1.34,4.14h.12l1.34-4.14,1.42-4.36h2.18l-3.7,10.32Z"/><path class="cls-3" d="M1014,392.5a1.91,1.91,0,0,1-1.41-.48,2.17,2.17,0,0,1-.57-1.26h-.1a2.68,2.68,0,0,1-1.09,1.46,3.61,3.61,0,0,1-2,.52,3.7,3.7,0,0,1-2.52-.83,2.93,2.93,0,0,1-.94-2.29,2.63,2.63,0,0,1,1.11-2.29,5.9,5.9,0,0,1,3.41-.79h2v-.8q0-2.1-2.22-2.1a3,3,0,0,0-1.62.39,3.4,3.4,0,0,0-1,1l-1.3-1.06a3.76,3.76,0,0,1,1.48-1.45,5.24,5.24,0,0,1,2.68-.61,4.61,4.61,0,0,1,3.08.94,3.33,3.33,0,0,1,1.12,2.72v5.18h1.3v1.72Zm-4.56-1.36a2.93,2.93,0,0,0,1.74-.48,1.44,1.44,0,0,0,.68-1.23v-1.49h-1.94c-1.57,0-2.36.47-2.36,1.41v.4a1.19,1.19,0,0,0,.5,1A2.43,2.43,0,0,0,1009.46,391.14Z"/><path class="cls-3" d="M1017.68,390.72h3.42V379.48h-3.42V377.7h5.6v13h3.42v1.78h-9Z"/><path class="cls-3" d="M1036.32,390.74h-.1a3.83,3.83,0,0,1-.41.77,2.64,2.64,0,0,1-.61.64,3,3,0,0,1-.84.43,3.73,3.73,0,0,1-1.12.16,3.3,3.3,0,0,1-2.52-1,4.08,4.08,0,0,1-1-2.9v-6.64h2.18v6.32c0,1.64.72,2.46,2.14,2.46a3.18,3.18,0,0,0,.82-.11,2.64,2.64,0,0,0,.72-.33,1.57,1.57,0,0,0,.51-.55,1.54,1.54,0,0,0,.19-.79v-7h2.18V392.5h-2.18Z"/><path class="cls-3" d="M1050,392.5a1.91,1.91,0,0,1-1.41-.48,2.17,2.17,0,0,1-.57-1.26h-.1a2.68,2.68,0,0,1-1.09,1.46,3.61,3.61,0,0,1-2,.52,3.7,3.7,0,0,1-2.52-.83,2.93,2.93,0,0,1-.94-2.29,2.63,2.63,0,0,1,1.11-2.29,5.9,5.9,0,0,1,3.41-.79h2v-.8q0-2.1-2.22-2.1a3,3,0,0,0-1.62.39,3.4,3.4,0,0,0-1,1l-1.3-1.06a3.76,3.76,0,0,1,1.48-1.45,5.24,5.24,0,0,1,2.68-.61,4.61,4.61,0,0,1,3.08.94,3.33,3.33,0,0,1,1.12,2.72v5.18h1.3v1.72Zm-4.56-1.36a2.93,2.93,0,0,0,1.74-.48,1.44,1.44,0,0,0,.68-1.23v-1.49h-1.94c-1.57,0-2.36.47-2.36,1.41v.4a1.19,1.19,0,0,0,.5,1A2.43,2.43,0,0,0,1045.46,391.14Z"/><path class="cls-3" d="M1058.8,392.5a2.56,2.56,0,0,1-2-.73,2.81,2.81,0,0,1-.64-1.89V384H1053v-1.78h2.26a1.18,1.18,0,0,0,.82-.23,1.14,1.14,0,0,0,.24-.83v-2.58h2v3.64h4.4V384h-4.4v6.76h4.4v1.78Z"/><path class="cls-3" d="M1066.2,390.72h3.52V384h-3.52v-1.78h5.7v8.54h3.3v1.78h-9Zm4.62-10.42a1.63,1.63,0,0,1-1.17-.34,1.17,1.17,0,0,1-.33-.84v-.42a1.14,1.14,0,0,1,.33-.84,1.57,1.57,0,0,1,1.15-.34,1.59,1.59,0,0,1,1.17.34,1.14,1.14,0,0,1,.33.84v.42a1.17,1.17,0,0,1-.33.84A1.59,1.59,0,0,1,1070.82,380.3Z"/><path class="cls-3" d="M1082.18,392.74a5.35,5.35,0,0,1-2-.38,4.46,4.46,0,0,1-1.54-1.08,5,5,0,0,1-1-1.7,7.16,7.16,0,0,1-.34-2.24,7.07,7.07,0,0,1,.34-2.24,4.79,4.79,0,0,1,1-1.7,4.21,4.21,0,0,1,1.54-1.08,5.72,5.72,0,0,1,4.1,0,4.13,4.13,0,0,1,1.54,1.08,4.64,4.64,0,0,1,1,1.7,6.8,6.8,0,0,1,.34,2.24,6.88,6.88,0,0,1-.34,2.24,4.81,4.81,0,0,1-1,1.7,4.37,4.37,0,0,1-1.54,1.08A5.31,5.31,0,0,1,1082.18,392.74Zm0-1.72a2.56,2.56,0,0,0,1.91-.73,3,3,0,0,0,.71-2.17v-1.56a3,3,0,0,0-.71-2.17,2.86,2.86,0,0,0-3.82,0,3,3,0,0,0-.71,2.17v1.56a3,3,0,0,0,.71,2.17A2.58,2.58,0,0,0,1082.18,391Z"/><path class="cls-3" d="M1089.86,392.5V382.18H1092v1.76h.1a4.37,4.37,0,0,1,.41-.77,2.65,2.65,0,0,1,.61-.64,2.78,2.78,0,0,1,.84-.43,3.48,3.48,0,0,1,1.12-.16,3.3,3.3,0,0,1,2.52,1,4.06,4.06,0,0,1,1,2.9v6.64h-2.18v-6.32c0-1.64-.71-2.46-2.14-2.46a2.85,2.85,0,0,0-.82.11,2.36,2.36,0,0,0-.72.33,1.58,1.58,0,0,0-.7,1.34v7Z"/><path class="cls-3" d="M1005.3,404.42V416.5h-2.24V404.42h-4.38v-1.88h11v1.88Z"/><path class="cls-3" d="M1016.18,416.74a5.35,5.35,0,0,1-2-.38,4.46,4.46,0,0,1-1.54-1.08,5,5,0,0,1-1-1.7,7.16,7.16,0,0,1-.34-2.24,7.07,7.07,0,0,1,.34-2.24,4.79,4.79,0,0,1,1-1.7,4.21,4.21,0,0,1,1.54-1.08,5.72,5.72,0,0,1,4.1,0,4.13,4.13,0,0,1,1.54,1.08,4.64,4.64,0,0,1,1,1.7,6.8,6.8,0,0,1,.34,2.24,6.88,6.88,0,0,1-.34,2.24,4.81,4.81,0,0,1-1,1.7,4.37,4.37,0,0,1-1.54,1.08A5.31,5.31,0,0,1,1016.18,416.74Zm0-1.72a2.56,2.56,0,0,0,1.91-.73,3,3,0,0,0,.71-2.17v-1.56a3,3,0,0,0-.71-2.17,2.86,2.86,0,0,0-3.82,0,3,3,0,0,0-.71,2.17v1.56a3,3,0,0,0,.71,2.17A2.58,2.58,0,0,0,1016.18,415Z"/><path class="cls-3" d="M1028.18,416.74a5.35,5.35,0,0,1-2-.38,4.46,4.46,0,0,1-1.54-1.08,5,5,0,0,1-1-1.7,7.16,7.16,0,0,1-.34-2.24,7.07,7.07,0,0,1,.34-2.24,4.79,4.79,0,0,1,1-1.7,4.21,4.21,0,0,1,1.54-1.08,5.72,5.72,0,0,1,4.1,0,4.13,4.13,0,0,1,1.54,1.08,4.64,4.64,0,0,1,1,1.7,6.8,6.8,0,0,1,.34,2.24,6.88,6.88,0,0,1-.34,2.24,4.81,4.81,0,0,1-1,1.7,4.37,4.37,0,0,1-1.54,1.08A5.31,5.31,0,0,1,1028.18,416.74Zm0-1.72a2.56,2.56,0,0,0,1.91-.73,3,3,0,0,0,.71-2.17v-1.56a3,3,0,0,0-.71-2.17,2.86,2.86,0,0,0-3.82,0,3,3,0,0,0-.71,2.17v1.56a3,3,0,0,0,.71,2.17A2.58,2.58,0,0,0,1028.18,415Z"/><path class="cls-3" d="M1035.68,414.72h3.42V403.48h-3.42V401.7h5.6v13h3.42v1.78h-9Z"/><path class="cls-3" d="M1047.94,401.7h2.18v8.94h.1l1.62-1.66,2.9-2.8h2.58l-4.18,4.06,4.64,6.26h-2.62l-3.6-5-1.44,1.34v3.68h-2.18Z"/><path class="cls-3" d="M1060.2,414.72h3.52V408h-3.52v-1.78h5.7v8.54h3.3v1.78h-9Zm4.62-10.42a1.63,1.63,0,0,1-1.17-.34,1.17,1.17,0,0,1-.33-.84v-.42a1.14,1.14,0,0,1,.33-.84,1.57,1.57,0,0,1,1.15-.34,1.59,1.59,0,0,1,1.17.34,1.14,1.14,0,0,1,.33.84v.42a1.17,1.17,0,0,1-.33.84A1.59,1.59,0,0,1,1064.82,404.3Z"/><path class="cls-3" d="M1076.8,416.5a2.56,2.56,0,0,1-2-.73,2.81,2.81,0,0,1-.64-1.89V408H1071v-1.78h2.26a1.18,1.18,0,0,0,.82-.23,1.14,1.14,0,0,0,.24-.83v-2.58h2v3.64h4.4V408h-4.4v6.76h4.4v1.78Z"/><rect class="cls-4" x="64.57" y="48.35" width="265.49" height="348.55"/><polyline class="cls-5" points="481.49 148.83 481.49 185.06 492.46 174.09"/><polyline class="cls-5" points="333.58 237.74 367.73 237.74 355.98 225.99"/><polyline class="cls-5" points="692.54 301.48 692.54 397.1 951.6 397.1 929.15 374.65"/><polyline class="cls-5" points="184.58 408.26 184.58 431.92 865.79 431.92 865.79 306.59 889.9 330.7"/><polyline class="cls-5" points="1042.07 296.39 1042.07 332.62 1053.04 321.65"/><polyline class="cls-5" points="865.07 148.83 865.07 185.06 876.04 174.09"/><polyline class="cls-5" points="593.57 237.9 610.57 237.9 604.72 226.14"/><polyline class="cls-5" points="768.57 237.9 785.57 237.9 779.72 226.14"/><polyline class="cls-5" points="944.57 236.9 961.57 236.9 955.72 225.14"/></svg>