<svg id="Layer_1" data-name="Layer 1" xmlns="http://www.w3.org/2000/svg" viewBox="0 0 1466 539"><defs><style>.cls-1{fill:#646095;}.cls-2{fill:none;stroke:#fff;stroke-miterlimit:10;}.cls-3{fill:#fff;}</style></defs><rect class="cls-1" x="230.49" y="150.34" width="61.07" height="61.07"/><rect class="cls-2" x="52.07" y="30" width="478.99" height="478.99"/><line class="cls-2" x1="291.57" y1="30" x2="291.57" y2="508.99"/><line class="cls-2" x1="52.07" y1="269.49" x2="531.06" y2="269.49"/><rect class="cls-2" x="52.07" y="30.6" width="238.3" height="239.5"/><line class="cls-2" x1="171.22" y1="30" x2="171.22" y2="269.49"/><line class="cls-2" x1="52.07" y1="150.34" x2="291.57" y2="149.74"/><rect class="cls-2" x="52.32" y="269.51" width="238.3" height="239.5"/><line class="cls-2" x1="171.47" y1="268.91" x2="171.47" y2="508.4"/><line class="cls-2" x1="52.32" y1="389.26" x2="291.81" y2="388.66"/><line class="cls-2" x1="171.22" y1="211.84" x2="292.16" y2="211.84"/><line class="cls-2" x1="230.92" y1="150.34" x2="230.92" y2="268.91"/><circle class="cls-2" cx="959.07" cy="102.22" r="25.63"/><line class="cls-2" x1="959.07" y1="127.85" x2="684.61" y2="204.96"/><line class="cls-2" x1="959.39" y1="127.88" x2="1233.85" y2="204.99"/><line class="cls-2" x1="959.39" y1="127.87" x2="816.7" y2="204.98"/><line class="cls-2" x1="959.56" y1="127.89" x2="1102.26" y2="205"/><rect class="cls-2" x="667.82" y="205.2" width="33.59" height="33.59"/><circle class="cls-2" cx="816.84" cy="222.28" r="17.08"/><circle class="cls-2" cx="1102.53" cy="222" r="17.08"/><circle class="cls-2" cx="1234.23" cy="222" r="17.08"/><line class="cls-2" x1="817.04" y1="240" x2="702.56" y2="317.11"/><line class="cls-2" x1="817.18" y1="240.03" x2="931.66" y2="317.14"/><line class="cls-2" x1="817.18" y1="240.02" x2="757.66" y2="317.13"/><line class="cls-2" x1="817.25" y1="240.04" x2="835.32" y2="317.01"/><line class="cls-2" x1="1102.62" y1="239.12" x2="988.14" y2="316.23"/><line class="cls-2" x1="1102.76" y1="239.15" x2="1217.25" y2="316.26"/><line class="cls-2" x1="1102.76" y1="239.13" x2="1043.24" y2="316.24"/><line class="cls-2" x1="1102.83" y1="239.16" x2="1162.36" y2="316.27"/><circle class="cls-2" cx="933.6" cy="334.3" r="17.08"/><line class="cls-2" x1="933.8" y1="352.02" x2="819.31" y2="429.13"/><line class="cls-2" x1="933.93" y1="352.05" x2="1048.42" y2="429.16"/><line class="cls-2" x1="933.93" y1="352.04" x2="874.41" y2="429.15"/><line class="cls-2" x1="934" y1="352.06" x2="993.53" y2="429.17"/><rect class="cls-2" x="802.17" y="428.83" width="33.59" height="33.59"/><rect class="cls-1" x="857.86" y="428.83" width="33.59" height="33.59"/><rect class="cls-2" x="978.07" y="428.83" width="33.59" height="33.59"/><rect class="cls-2" x="1033.76" y="428.83" width="33.59" height="33.59"/><rect class="cls-2" x="969.23" y="316.57" width="33.59" height="33.59"/><rect class="cls-2" x="1024.92" y="316.57" width="33.59" height="33.59"/><rect class="cls-2" x="1145.13" y="316.57" width="33.59" height="33.59"/><rect class="cls-2" x="1200.82" y="316.57" width="33.59" height="33.59"/><rect class="cls-2" x="685.49" y="317.45" width="33.59" height="33.59"/><rect class="cls-2" x="741.18" y="317.45" width="33.59" height="33.59"/><rect class="cls-2" x="818.97" y="317.45" width="33.59" height="33.59"/><path class="cls-3" d="M625.79,215.84h-.27V232h-2.94V211h4.32l6.15,16.11h.27V211h2.94V232h-4.32Z"/><path class="cls-3" d="M641,232V211h13.11v2.82h-9.75v6.09h9.39v2.82h-9.39v6.39h9.75V232Z"/><path class="cls-3" d="M764,215.84h-.27V232h-2.94V211h4.32l6.15,16.11h.27V211h2.94V232h-4.32Z"/><path class="cls-3" d="M778.84,232,777.34,211h2.94l.75,12.18.33,5.37h.24L784,216.08h3.33l2.37,12.48h.24l.33-5.37L791,211h2.82L792.34,232h-4.5l-2.13-12.12h-.24L783.34,232Z"/><path class="cls-3" d="M1050.05,232.31a10.06,10.06,0,0,1-4.59-.95,8.81,8.81,0,0,1-3.06-2.53l2.16-2.07a8.23,8.23,0,0,0,2.55,2.12,6.75,6.75,0,0,0,3.06.67,4.52,4.52,0,0,0,3-.91,3.21,3.21,0,0,0,1.07-2.59,2.75,2.75,0,0,0-.78-2.1,5.14,5.14,0,0,0-2.67-1.07l-2.28-.37a7.63,7.63,0,0,1-2.52-.79,5.52,5.52,0,0,1-1.65-1.32,4.94,4.94,0,0,1-.92-1.7,6.91,6.91,0,0,1-.28-2,5.44,5.44,0,0,1,1.92-4.51,8.26,8.26,0,0,1,5.28-1.54,10.22,10.22,0,0,1,4.24.79,7.12,7.12,0,0,1,2.84,2.21l-2.1,2.1a7,7,0,0,0-2.06-1.69,6,6,0,0,0-2.92-.65,4.41,4.41,0,0,0-2.84.8,2.87,2.87,0,0,0-1,2.34,2.69,2.69,0,0,0,.76,2,5.23,5.23,0,0,0,2.72,1.08l2.22.38a6.7,6.7,0,0,1,4.11,2.06,5.67,5.67,0,0,1,1.29,3.76,6.77,6.77,0,0,1-.5,2.63,5.34,5.34,0,0,1-1.47,2,6.92,6.92,0,0,1-2.4,1.31A10.45,10.45,0,0,1,1050.05,232.31Z"/><path class="cls-3" d="M1061.48,232,1060,211h2.94l.75,12.18.33,5.37h.24l2.37-12.48h3.33l2.37,12.48h.24l.33-5.37.78-12.18h2.82L1075,232h-4.5l-2.13-12.12h-.24L1066,232Z"/><path class="cls-3" d="M1183.76,232.31a10.06,10.06,0,0,1-4.59-.95,8.81,8.81,0,0,1-3.06-2.53l2.16-2.07a8.23,8.23,0,0,0,2.55,2.12,6.75,6.75,0,0,0,3.06.67,4.52,4.52,0,0,0,3-.91,3.21,3.21,0,0,0,1.07-2.59,2.75,2.75,0,0,0-.78-2.1,5.14,5.14,0,0,0-2.67-1.07l-2.28-.37a7.63,7.63,0,0,1-2.52-.79,5.52,5.52,0,0,1-1.65-1.32,4.94,4.94,0,0,1-.92-1.7,6.91,6.91,0,0,1-.28-2,5.44,5.44,0,0,1,1.92-4.51,8.26,8.26,0,0,1,5.28-1.54,10.22,10.22,0,0,1,4.24.79,7.12,7.12,0,0,1,2.84,2.21l-2.1,2.1a7,7,0,0,0-2.06-1.69,6,6,0,0,0-2.92-.65,4.41,4.41,0,0,0-2.84.8,2.87,2.87,0,0,0-1,2.34,2.69,2.69,0,0,0,.76,2,5.23,5.23,0,0,0,2.72,1.08l2.22.38a6.7,6.7,0,0,1,4.11,2.06,5.67,5.67,0,0,1,1.29,3.76,6.77,6.77,0,0,1-.5,2.63,5.34,5.34,0,0,1-1.47,2,6.92,6.92,0,0,1-2.4,1.31A10.45,10.45,0,0,1,1183.76,232.31Z"/><path class="cls-3" d="M1195.52,232V211h13.11v2.82h-9.75v6.09h9.39v2.82h-9.39v6.39h9.75V232Z"/><path class="cls-3" d="M315.09,157.55V168.3c0,.71,0,1.37.06,1.95a4,4,0,0,0,.36,1.49,2.1,2.1,0,0,0,.9.94,4.41,4.41,0,0,0,3.3,0,2.1,2.1,0,0,0,.9-.94,4,4,0,0,0,.37-1.49c0-.58.06-1.24.06-1.95V157.55h2.8v10.23a22.64,22.64,0,0,1-.21,3.29,5.69,5.69,0,0,1-.84,2.35,3.88,3.88,0,0,1-1.76,1.41,9.59,9.59,0,0,1-5.93,0,3.88,3.88,0,0,1-1.76-1.41,5.69,5.69,0,0,1-.84-2.35,22.64,22.64,0,0,1-.21-3.29V157.55Z"/><path class="cls-3" d="M333.09,175.3a8.81,8.81,0,0,1-3.61-.67,6.56,6.56,0,0,1-2.44-1.8l1.67-1.5a5.65,5.65,0,0,0,4.43,1.9,4.42,4.42,0,0,0,2.14-.45,1.5,1.5,0,0,0,.81-1.4,1.42,1.42,0,0,0-.15-.68,1.23,1.23,0,0,0-.43-.45,2.6,2.6,0,0,0-.63-.27,4.57,4.57,0,0,0-.77-.15l-2.05-.33a9.59,9.59,0,0,1-1.52-.32,4.79,4.79,0,0,1-1.39-.64,3.27,3.27,0,0,1-1-1.06,3.15,3.15,0,0,1-.39-1.65,3.39,3.39,0,0,1,1.52-3,7,7,0,0,1,4-1,8.21,8.21,0,0,1,3.12.54,6.08,6.08,0,0,1,2.18,1.49l-1.52,1.6a4.79,4.79,0,0,0-1.43-1.06,5.18,5.18,0,0,0-2.45-.49c-1.81,0-2.72.57-2.72,1.72a1.18,1.18,0,0,0,.59,1.14,3.79,3.79,0,0,0,1.38.41l2,.33c.52.08,1,.19,1.54.32a4.55,4.55,0,0,1,1.38.62,3.27,3.27,0,0,1,1,1.06,3.15,3.15,0,0,1,.38,1.65,3.58,3.58,0,0,1-1.51,3.06A6.9,6.9,0,0,1,333.09,175.3Z"/><path class="cls-3" d="M348.34,175.3a7,7,0,0,1-2.65-.47,5.53,5.53,0,0,1-2-1.35,5.94,5.94,0,0,1-1.22-2.11,8.69,8.69,0,0,1-.43-2.79,8.48,8.48,0,0,1,.44-2.8,6.25,6.25,0,0,1,1.23-2.14,5.25,5.25,0,0,1,1.91-1.36,6.3,6.3,0,0,1,2.5-.48,6.22,6.22,0,0,1,2.45.47,5.19,5.19,0,0,1,1.87,1.31,5.75,5.75,0,0,1,1.19,2,7.71,7.71,0,0,1,.41,2.6v1h-9.25v.42a3.35,3.35,0,0,0,.95,2.47,3.54,3.54,0,0,0,2.63,1,4.14,4.14,0,0,0,2.14-.53,4.25,4.25,0,0,0,1.43-1.43l1.7,1.5a5.28,5.28,0,0,1-2,1.91A6.55,6.55,0,0,1,348.34,175.3Zm-.2-11.42a3.47,3.47,0,0,0-1.34.25,3,3,0,0,0-1.05.71,3.49,3.49,0,0,0-.69,1.09,3.79,3.79,0,0,0-.25,1.37v.18h6.48v-.25a3.43,3.43,0,0,0-.86-2.44A3,3,0,0,0,348.14,163.88Z"/><path class="cls-3" d="M357.46,172.78h3.43v-8.45h-3.43V162.1h6.15v3.43h.15a6.84,6.84,0,0,1,.5-1.3,4.09,4.09,0,0,1,.83-1.09,3.81,3.81,0,0,1,1.22-.75,4.65,4.65,0,0,1,1.7-.29h1.55v2.6H367a3.47,3.47,0,0,0-2.45.89,3.1,3.1,0,0,0-.95,2.38v4.81h4.68V175H357.46Z"/><path class="cls-3" d="M377.16,156.5H381L377.91,164h-2.1Z"/><path class="cls-3" d="M393.09,175.3a8.78,8.78,0,0,1-3.61-.67,6.56,6.56,0,0,1-2.44-1.8l1.67-1.5a5.65,5.65,0,0,0,4.43,1.9,4.44,4.44,0,0,0,2.14-.45,1.5,1.5,0,0,0,.81-1.4,1.42,1.42,0,0,0-.15-.68,1.23,1.23,0,0,0-.43-.45,2.6,2.6,0,0,0-.63-.27,4.77,4.77,0,0,0-.77-.15l-2.05-.33a9.59,9.59,0,0,1-1.52-.32,4.79,4.79,0,0,1-1.39-.64,3.27,3.27,0,0,1-1-1.06,3.15,3.15,0,0,1-.39-1.65,3.39,3.39,0,0,1,1.52-3,7,7,0,0,1,4-1,8.21,8.21,0,0,1,3.12.54,6.08,6.08,0,0,1,2.18,1.49l-1.52,1.6a4.79,4.79,0,0,0-1.43-1.06,5.18,5.18,0,0,0-2.45-.49c-1.81,0-2.72.57-2.72,1.72a1.17,1.17,0,0,0,.59,1.14,3.79,3.79,0,0,0,1.38.41l2,.33c.52.08,1,.19,1.54.32a4.55,4.55,0,0,1,1.38.62,3.38,3.38,0,0,1,1,1.06,3.25,3.25,0,0,1,.38,1.65,3.58,3.58,0,0,1-1.51,3.06A6.9,6.9,0,0,1,393.09,175.3Z"/><path class="cls-3" d="M312.44,202.78h4.27V188.73h-4.27V186.5h7v16.28h4.27V205H312.44Z"/><path class="cls-3" d="M333.06,205.3a6.53,6.53,0,0,1-2.56-.47,5.3,5.3,0,0,1-1.92-1.35,6,6,0,0,1-1.22-2.13,9.54,9.54,0,0,1,0-5.6,6.05,6.05,0,0,1,1.22-2.12,5.3,5.3,0,0,1,1.92-1.35,7.09,7.09,0,0,1,5.13,0,5.3,5.3,0,0,1,1.92,1.35,5.88,5.88,0,0,1,1.21,2.12,9.33,9.33,0,0,1,0,5.6,5.84,5.84,0,0,1-1.21,2.13,5.3,5.3,0,0,1-1.92,1.35A6.58,6.58,0,0,1,333.06,205.3Zm0-2.15a3.17,3.17,0,0,0,2.39-.91,3.75,3.75,0,0,0,.89-2.71v-1.95a3.73,3.73,0,0,0-.89-2.71,3.55,3.55,0,0,0-4.77,0,3.73,3.73,0,0,0-.89,2.71v1.95a3.75,3.75,0,0,0,.89,2.71A3.15,3.15,0,0,0,333.06,203.15Z"/><path class="cls-3" d="M348.54,205.3a6.61,6.61,0,0,1-2.59-.47,5.3,5.3,0,0,1-1.92-1.35,5.69,5.69,0,0,1-1.2-2.13,9.54,9.54,0,0,1,0-5.6,5.72,5.72,0,0,1,1.2-2.12,5.3,5.3,0,0,1,1.92-1.35,6.53,6.53,0,0,1,2.56-.48,5.55,5.55,0,0,1,3.22.84,5.21,5.21,0,0,1,1.81,2.19L351.41,196a3.08,3.08,0,0,0-1.06-1.43,3,3,0,0,0-1.84-.52,3.07,3.07,0,0,0-2.4.94,3.62,3.62,0,0,0-.85,2.5v2.16a3.61,3.61,0,0,0,.85,2.49,3.11,3.11,0,0,0,2.45,1,3.28,3.28,0,0,0,2-.55,3.85,3.85,0,0,0,1.21-1.5l2,1.22a5.31,5.31,0,0,1-1.9,2.2A5.82,5.82,0,0,1,348.54,205.3Z"/><path class="cls-3" d="M367.86,205a2.36,2.36,0,0,1-1.76-.6,2.64,2.64,0,0,1-.71-1.57h-.13a3.3,3.3,0,0,1-1.36,1.82,4.42,4.42,0,0,1-2.51.65,4.58,4.58,0,0,1-3.15-1,3.64,3.64,0,0,1-1.18-2.87,3.31,3.31,0,0,1,1.39-2.86,7.4,7.4,0,0,1,4.26-1h2.48v-1c0-1.75-.93-2.62-2.78-2.62a3.71,3.71,0,0,0-2,.49,4.18,4.18,0,0,0-1.3,1.28l-1.63-1.32a4.74,4.74,0,0,1,1.85-1.81,6.56,6.56,0,0,1,3.35-.77,5.81,5.81,0,0,1,3.85,1.18,4.17,4.17,0,0,1,1.4,3.4v6.47h1.63V205Zm-5.7-1.7a3.69,3.69,0,0,0,2.18-.59,1.8,1.8,0,0,0,.85-1.54V199.3h-2.43c-2,0-2.95.59-2.95,1.77v.49a1.49,1.49,0,0,0,.63,1.31A3,3,0,0,0,362.16,203.3Z"/><path class="cls-3" d="M378.84,205a3.15,3.15,0,0,1-2.5-.91,3.43,3.43,0,0,1-.8-2.35v-7.41h-4V192.1h2.83a1.46,1.46,0,0,0,1-.28,1.42,1.42,0,0,0,.3-1v-3.23h2.55v4.55h5.5v2.23h-5.5v8.45h5.5V205Z"/><path class="cls-3" d="M388.09,202.78h4.4v-8.45h-4.4V192.1h7.12v10.68h4.13V205H388.09Zm5.77-13a2,2,0,0,1-1.46-.42,1.46,1.46,0,0,1-.41-1.05v-.53a1.49,1.49,0,0,1,.41-1.05,2.71,2.71,0,0,1,2.9,0,1.45,1.45,0,0,1,.41,1.05v.53a1.42,1.42,0,0,1-.41,1.05A2,2,0,0,1,393.86,189.75Z"/><path class="cls-3" d="M408.06,205.3a6.53,6.53,0,0,1-2.56-.47,5.3,5.3,0,0,1-1.92-1.35,6,6,0,0,1-1.22-2.13,9.54,9.54,0,0,1,0-5.6,6.05,6.05,0,0,1,1.22-2.12,5.3,5.3,0,0,1,1.92-1.35,7.09,7.09,0,0,1,5.13,0,5.39,5.39,0,0,1,1.92,1.35,5.88,5.88,0,0,1,1.21,2.12,9.33,9.33,0,0,1,0,5.6,5.84,5.84,0,0,1-1.21,2.13,5.39,5.39,0,0,1-1.92,1.35A6.58,6.58,0,0,1,408.06,205.3Zm0-2.15a3.17,3.17,0,0,0,2.39-.91,3.75,3.75,0,0,0,.89-2.71v-1.95a3.73,3.73,0,0,0-.89-2.71,3.55,3.55,0,0,0-4.77,0,3.69,3.69,0,0,0-.89,2.71v1.95a3.71,3.71,0,0,0,.89,2.71A3.15,3.15,0,0,0,408.06,203.15Z"/><path class="cls-3" d="M417.66,205V192.1h2.73v2.2h.12a5.6,5.6,0,0,1,.52-1,3.2,3.2,0,0,1,.76-.8,4,4,0,0,1,1-.54,4.5,4.5,0,0,1,1.4-.2,4.13,4.13,0,0,1,3.15,1.28,5.09,5.09,0,0,1,1.2,3.62V205h-2.73v-7.9c0-2-.89-3.07-2.67-3.07a4,4,0,0,0-1,.14,3.07,3.07,0,0,0-.9.41,2,2,0,0,0-.63.7,1.94,1.94,0,0,0-.24,1V205Z"/><path class="cls-3" d="M1324.35,108.85v-14h2.24V107H1333v1.88Z"/><path class="cls-3" d="M1340.41,109.09a5.49,5.49,0,0,1-2.12-.38,4.2,4.2,0,0,1-1.58-1.08,4.85,4.85,0,0,1-1-1.69,7,7,0,0,1-.34-2.23,6.88,6.88,0,0,1,.35-2.24,5.31,5.31,0,0,1,1-1.71,4.32,4.32,0,0,1,1.53-1.09,5.55,5.55,0,0,1,4,0,4.23,4.23,0,0,1,1.5,1,4.8,4.8,0,0,1,1,1.63,6.16,6.16,0,0,1,.33,2.07v.82h-7.4v.34a2.68,2.68,0,0,0,.76,2,2.84,2.84,0,0,0,2.1.76,3.28,3.28,0,0,0,1.71-.42,3.48,3.48,0,0,0,1.15-1.14l1.36,1.2a4.1,4.1,0,0,1-1.59,1.52A5.17,5.17,0,0,1,1340.41,109.09Zm-.16-9.14a2.87,2.87,0,0,0-1.07.2,2.6,2.6,0,0,0-.84.57,2.8,2.8,0,0,0-.55.87,3.07,3.07,0,0,0-.2,1.1v.15h5.18v-.21a2.73,2.73,0,0,0-.69-1.95A2.42,2.42,0,0,0,1340.25,100Z"/><path class="cls-3" d="M1350.85,108.85l-3.7-10.32h2.26l1.42,4.36,1.34,4.14h.12l1.34-4.14,1.42-4.36h2.18l-3.7,10.32Z"/><path class="cls-3" d="M1364.41,109.09a5.49,5.49,0,0,1-2.12-.38,4.2,4.2,0,0,1-1.58-1.08,4.7,4.7,0,0,1-1-1.69,6.74,6.74,0,0,1-.34-2.23,6.88,6.88,0,0,1,.35-2.24,5.14,5.14,0,0,1,1-1.71,4.32,4.32,0,0,1,1.53-1.09,5.55,5.55,0,0,1,4,0,4.23,4.23,0,0,1,1.5,1,4.8,4.8,0,0,1,1,1.63,6.16,6.16,0,0,1,.33,2.07v.82h-7.4v.34a2.68,2.68,0,0,0,.76,2,2.84,2.84,0,0,0,2.1.76,3.28,3.28,0,0,0,1.71-.42,3.48,3.48,0,0,0,1.15-1.14l1.36,1.2a4.24,4.24,0,0,1-1.59,1.52A5.17,5.17,0,0,1,1364.41,109.09Zm-.16-9.14a2.87,2.87,0,0,0-1.07.2,2.5,2.5,0,0,0-.84.57,2.8,2.8,0,0,0-.55.87,3.07,3.07,0,0,0-.2,1.1v.15h5.18v-.21a2.73,2.73,0,0,0-.69-1.95A2.42,2.42,0,0,0,1364.25,100Z"/><path class="cls-3" d="M1371.69,107.07h3.42V95.84h-3.42V94.05h5.6v13h3.42v1.78h-9Z"/><path class="cls-3" d="M1396,108.85V107h3.92V96.53h-.16l-3.24,3.46-1.38-1.24,3.56-3.86h3.46V107h3.38v1.84Z"/><path class="cls-3" d="M1412.19,101.61a1.83,1.83,0,0,1-1.35-.4,1.33,1.33,0,0,1-.39-1v-.52a1.37,1.37,0,0,1,.39-1,2.53,2.53,0,0,1,2.7,0,1.37,1.37,0,0,1,.39,1v.52a1.33,1.33,0,0,1-.39,1A1.83,1.83,0,0,1,1412.19,101.61Zm0,7.44a1.83,1.83,0,0,1-1.35-.4,1.33,1.33,0,0,1-.39-1v-.52a1.37,1.37,0,0,1,.39-1,2.48,2.48,0,0,1,2.7,0,1.37,1.37,0,0,1,.39,1v.52a1.33,1.33,0,0,1-.39,1A1.83,1.83,0,0,1,1412.19,109.05Z"/><path class="cls-3" d="M1324.35,228.1v-14h2.24v12.08H1333v1.88Z"/><path class="cls-3" d="M1340.41,228.34a5.49,5.49,0,0,1-2.12-.38,4.2,4.2,0,0,1-1.58-1.08,4.85,4.85,0,0,1-1-1.69,7,7,0,0,1-.34-2.23,6.88,6.88,0,0,1,.35-2.24,5.31,5.31,0,0,1,1-1.71,4.32,4.32,0,0,1,1.53-1.09,5.41,5.41,0,0,1,4,0,4.23,4.23,0,0,1,1.5,1.05,4.85,4.85,0,0,1,1,1.62,6.26,6.26,0,0,1,.33,2.08v.82h-7.4v.34a2.68,2.68,0,0,0,.76,2,2.84,2.84,0,0,0,2.1.76,3.28,3.28,0,0,0,1.71-.42,3.42,3.42,0,0,0,1.15-1.15l1.36,1.21a4.1,4.1,0,0,1-1.59,1.52A5.27,5.27,0,0,1,1340.41,228.34Zm-.16-9.14a2.87,2.87,0,0,0-1.07.2,2.6,2.6,0,0,0-.84.57,2.8,2.8,0,0,0-.55.87,3,3,0,0,0-.2,1.1v.14h5.18v-.2a2.73,2.73,0,0,0-.69-1.95A2.42,2.42,0,0,0,1340.25,219.2Z"/><path class="cls-3" d="M1350.85,228.1l-3.7-10.32h2.26l1.42,4.36,1.34,4.14h.12l1.34-4.14,1.42-4.36h2.18l-3.7,10.32Z"/><path class="cls-3" d="M1364.41,228.34a5.49,5.49,0,0,1-2.12-.38,4.2,4.2,0,0,1-1.58-1.08,4.7,4.7,0,0,1-1-1.69,6.74,6.74,0,0,1-.34-2.23,6.88,6.88,0,0,1,.35-2.24,5.14,5.14,0,0,1,1-1.71,4.32,4.32,0,0,1,1.53-1.09,5.41,5.41,0,0,1,4,0,4.23,4.23,0,0,1,1.5,1.05,4.85,4.85,0,0,1,1,1.62,6.26,6.26,0,0,1,.33,2.08v.82h-7.4v.34a2.68,2.68,0,0,0,.76,2,2.84,2.84,0,0,0,2.1.76,3.28,3.28,0,0,0,1.71-.42,3.42,3.42,0,0,0,1.15-1.15l1.36,1.21a4.24,4.24,0,0,1-1.59,1.52A5.27,5.27,0,0,1,1364.41,228.34Zm-.16-9.14a2.87,2.87,0,0,0-1.07.2,2.5,2.5,0,0,0-.84.57,2.8,2.8,0,0,0-.55.87,3,3,0,0,0-.2,1.1v.14h5.18v-.2a2.73,2.73,0,0,0-.69-1.95A2.42,2.42,0,0,0,1364.25,219.2Z"/><path class="cls-3" d="M1371.69,226.32h3.42V215.08h-3.42V213.3h5.6v13h3.42v1.78h-9Z"/><path class="cls-3" d="M1405.09,228.1h-9.64V226l4.56-4a10,10,0,0,0,1.67-1.82,3.18,3.18,0,0,0,.59-1.82v-.22a2.28,2.28,0,0,0-.6-1.69,2.39,2.39,0,0,0-1.74-.59,2.46,2.46,0,0,0-1.79.62,3.64,3.64,0,0,0-.91,1.58l-2-.74a5.36,5.36,0,0,1,.58-1.27,4.53,4.53,0,0,1,1-1.09,4.58,4.58,0,0,1,1.4-.76,5.89,5.89,0,0,1,1.87-.28,5.79,5.79,0,0,1,1.93.31,4.21,4.21,0,0,1,1.43.85,3.49,3.49,0,0,1,.88,1.29,4.4,4.4,0,0,1,.3,1.65,4.54,4.54,0,0,1-.25,1.55,5.66,5.66,0,0,1-.7,1.36,8.25,8.25,0,0,1-1.07,1.25c-.41.4-.87.8-1.36,1.2l-3.38,2.84h7.22Z"/><path class="cls-3" d="M1412.19,220.86a1.83,1.83,0,0,1-1.35-.4,1.33,1.33,0,0,1-.39-1V219a1.37,1.37,0,0,1,.39-1,2.48,2.48,0,0,1,2.7,0,1.37,1.37,0,0,1,.39,1v.52a1.33,1.33,0,0,1-.39,1A1.83,1.83,0,0,1,1412.19,220.86Zm0,7.44a1.83,1.83,0,0,1-1.35-.4,1.33,1.33,0,0,1-.39-1v-.52a1.37,1.37,0,0,1,.39-1,2.48,2.48,0,0,1,2.7,0,1.37,1.37,0,0,1,.39,1v.52a1.33,1.33,0,0,1-.39,1A1.83,1.83,0,0,1,1412.19,228.3Z"/><path class="cls-3" d="M1324.35,338.7v-14h2.24v12.08H1333v1.88Z"/><path class="cls-3" d="M1340.41,338.94a5.68,5.68,0,0,1-2.12-.38,4.2,4.2,0,0,1-1.58-1.08,4.94,4.94,0,0,1-1-1.69,7,7,0,0,1-.34-2.23,6.84,6.84,0,0,1,.35-2.24,5.11,5.11,0,0,1,1-1.71,4.2,4.2,0,0,1,1.53-1.09,5.17,5.17,0,0,1,2-.38,5,5,0,0,1,2,.37,4.23,4.23,0,0,1,1.5,1.05,4.66,4.66,0,0,1,1,1.62,6.26,6.26,0,0,1,.33,2.08v.82h-7.4v.34a2.69,2.69,0,0,0,.76,2,2.84,2.84,0,0,0,2.1.76,3.19,3.19,0,0,0,1.71-.43,3.3,3.3,0,0,0,1.15-1.14l1.36,1.2a4.12,4.12,0,0,1-1.59,1.53A5.27,5.27,0,0,1,1340.41,338.94Zm-.16-9.14a2.87,2.87,0,0,0-1.07.2,2.32,2.32,0,0,0-.84.57,2.8,2.8,0,0,0-.55.87,3,3,0,0,0-.2,1.1v.14h5.18v-.2a2.73,2.73,0,0,0-.69-2A2.39,2.39,0,0,0,1340.25,329.8Z"/><path class="cls-3" d="M1350.85,338.7l-3.7-10.32h2.26l1.42,4.36,1.34,4.14h.12l1.34-4.14,1.42-4.36h2.18l-3.7,10.32Z"/><path class="cls-3" d="M1364.41,338.94a5.68,5.68,0,0,1-2.12-.38,4.2,4.2,0,0,1-1.58-1.08,4.79,4.79,0,0,1-1-1.69,6.74,6.74,0,0,1-.34-2.23,6.84,6.84,0,0,1,.35-2.24,4.94,4.94,0,0,1,1-1.71,4.2,4.2,0,0,1,1.53-1.09,5.17,5.17,0,0,1,2-.38,5,5,0,0,1,2,.37,4.23,4.23,0,0,1,1.5,1.05,4.66,4.66,0,0,1,1,1.62,6.26,6.26,0,0,1,.33,2.08v.82h-7.4v.34a2.69,2.69,0,0,0,.76,2,2.84,2.84,0,0,0,2.1.76,3.19,3.19,0,0,0,1.71-.43,3.3,3.3,0,0,0,1.15-1.14l1.36,1.2a4.26,4.26,0,0,1-1.59,1.53A5.27,5.27,0,0,1,1364.41,338.94Zm-.16-9.14a2.87,2.87,0,0,0-1.07.2,2.24,2.24,0,0,0-.84.57,2.8,2.8,0,0,0-.55.87,3,3,0,0,0-.2,1.1v.14h5.18v-.2a2.73,2.73,0,0,0-.69-2A2.39,2.39,0,0,0,1364.25,329.8Z"/><path class="cls-3" d="M1371.69,336.92h3.42V325.68h-3.42V323.9h5.6v13h3.42v1.78h-9Z"/><path class="cls-3" d="M1399.61,330.5a3,3,0,0,0,2-.57,1.84,1.84,0,0,0,.65-1.43v-.14a1.78,1.78,0,0,0-.63-1.47,2.6,2.6,0,0,0-1.69-.51,3.08,3.08,0,0,0-1.73.46,3.9,3.9,0,0,0-1.19,1.26l-1.52-1.3a6.06,6.06,0,0,1,.74-.88,4.67,4.67,0,0,1,1-.73,5.18,5.18,0,0,1,1.24-.5,5.9,5.9,0,0,1,1.58-.19,6.62,6.62,0,0,1,1.82.24,4.42,4.42,0,0,1,1.46.71,3.29,3.29,0,0,1,1,1.14,3.53,3.53,0,0,1,.13,2.71,3,3,0,0,1-.58.95,3.16,3.16,0,0,1-.87.67,4.32,4.32,0,0,1-1.06.38v.1a4.52,4.52,0,0,1,1.14.39,3.48,3.48,0,0,1,1,.7,3.2,3.2,0,0,1,.66,1,3.54,3.54,0,0,1,.24,1.35,3.82,3.82,0,0,1-.36,1.67,3.66,3.66,0,0,1-1,1.29,4.72,4.72,0,0,1-1.61.83,7.25,7.25,0,0,1-2.1.29,6.45,6.45,0,0,1-1.73-.21,5.54,5.54,0,0,1-1.33-.56,4.75,4.75,0,0,1-1-.8,6.37,6.37,0,0,1-.75-.93l1.66-1.28a5,5,0,0,0,1.23,1.37,3.2,3.2,0,0,0,2,.53,3,3,0,0,0,2-.61,2.12,2.12,0,0,0,.7-1.69v-.16a2,2,0,0,0-.73-1.65,3.38,3.38,0,0,0-2.11-.57h-1.5V330.5Z"/><path class="cls-3" d="M1412.19,331.46a1.83,1.83,0,0,1-1.35-.4,1.35,1.35,0,0,1-.39-1v-.52a1.35,1.35,0,0,1,.39-1,2.48,2.48,0,0,1,2.7,0,1.35,1.35,0,0,1,.39,1v.52a1.35,1.35,0,0,1-.39,1A1.83,1.83,0,0,1,1412.19,331.46Zm0,7.44a1.83,1.83,0,0,1-1.35-.4,1.35,1.35,0,0,1-.39-1V337a1.35,1.35,0,0,1,.39-1,2.48,2.48,0,0,1,2.7,0,1.35,1.35,0,0,1,.39,1v.52a1.35,1.35,0,0,1-.39,1A1.83,1.83,0,0,1,1412.19,338.9Z"/><path class="cls-3" d="M1324.35,450.7v-14h2.24v12.08H1333v1.88Z"/><path class="cls-3" d="M1340.41,450.94a5.68,5.68,0,0,1-2.12-.38,4.2,4.2,0,0,1-1.58-1.08,4.94,4.94,0,0,1-1-1.69,7,7,0,0,1-.34-2.23,6.84,6.84,0,0,1,.35-2.24,5.11,5.11,0,0,1,1-1.71,4.2,4.2,0,0,1,1.53-1.09,5.17,5.17,0,0,1,2-.38,5,5,0,0,1,2,.37,4.23,4.23,0,0,1,1.5,1.05,4.66,4.66,0,0,1,1,1.62,6.26,6.26,0,0,1,.33,2.08v.82h-7.4v.34a2.65,2.65,0,0,0,.76,2,2.84,2.84,0,0,0,2.1.77,3.19,3.19,0,0,0,1.71-.43,3.3,3.3,0,0,0,1.15-1.14l1.36,1.2a4.19,4.19,0,0,1-1.59,1.53A5.27,5.27,0,0,1,1340.41,450.94Zm-.16-9.14a2.87,2.87,0,0,0-1.07.2,2.32,2.32,0,0,0-.84.57,2.8,2.8,0,0,0-.55.87,3,3,0,0,0-.2,1.1v.14h5.18v-.2a2.73,2.73,0,0,0-.69-2A2.39,2.39,0,0,0,1340.25,441.8Z"/><path class="cls-3" d="M1350.85,450.7l-3.7-10.32h2.26l1.42,4.36,1.34,4.14h.12l1.34-4.14,1.42-4.36h2.18l-3.7,10.32Z"/><path class="cls-3" d="M1364.41,450.94a5.68,5.68,0,0,1-2.12-.38,4.2,4.2,0,0,1-1.58-1.08,4.79,4.79,0,0,1-1-1.69,6.74,6.74,0,0,1-.34-2.23,6.84,6.84,0,0,1,.35-2.24,4.94,4.94,0,0,1,1-1.71,4.2,4.2,0,0,1,1.53-1.09,5.17,5.17,0,0,1,2-.38,5,5,0,0,1,2,.37,4.23,4.23,0,0,1,1.5,1.05,4.66,4.66,0,0,1,1,1.62,6.26,6.26,0,0,1,.33,2.08v.82h-7.4v.34a2.65,2.65,0,0,0,.76,2,2.84,2.84,0,0,0,2.1.77,3.19,3.19,0,0,0,1.71-.43,3.3,3.3,0,0,0,1.15-1.14l1.36,1.2a4.34,4.34,0,0,1-1.59,1.53A5.27,5.27,0,0,1,1364.41,450.94Zm-.16-9.14a2.87,2.87,0,0,0-1.07.2,2.24,2.24,0,0,0-.84.57,2.8,2.8,0,0,0-.55.87,3,3,0,0,0-.2,1.1v.14h5.18v-.2a2.73,2.73,0,0,0-.69-2A2.39,2.39,0,0,0,1364.25,441.8Z"/><path class="cls-3" d="M1371.69,448.92h3.42V437.68h-3.42V435.9h5.6v13h3.42v1.78h-9Z"/><path class="cls-3" d="M1401.43,450.7V448h-6.64v-1.92l5.84-9.32h2.94v9.46h2V448h-2v2.72Zm-4.74-4.5h4.74v-7.4h-.12Z"/><path class="cls-3" d="M1412.19,443.46a1.83,1.83,0,0,1-1.35-.4,1.35,1.35,0,0,1-.39-1v-.52a1.35,1.35,0,0,1,.39-1,2.48,2.48,0,0,1,2.7,0,1.35,1.35,0,0,1,.39,1v.52a1.35,1.35,0,0,1-.39,1A1.83,1.83,0,0,1,1412.19,443.46Zm0,7.44a1.83,1.83,0,0,1-1.35-.4,1.35,1.35,0,0,1-.39-1V449a1.35,1.35,0,0,1,.39-1,2.48,2.48,0,0,1,2.7,0,1.35,1.35,0,0,1,.39,1v.52a1.35,1.35,0,0,1-.39,1A1.83,1.83,0,0,1,1412.19,450.9Z"/></svg>