<?xml version="1.0" encoding="UTF-8"?>
<svg id="Lines" xmlns="http://www.w3.org/2000/svg" viewBox="0 0 173 124">
  <defs>
    <style>
      .cls-1 {
        fill: #f8ad3b;
      }

      .cls-2 {
        fill: #f9eb21;
      }

      .cls-3 {
        fill: #0071b9;
      }

      .cls-4 {
        fill: #ea1c24;
      }

      .cls-5 {
        fill: #90278c;
      }

      .cls-6 {
        fill: #39b24a;
      }

      .cls-7 {
        stroke: #f9eb21;
      }

      .cls-7, .cls-8, .cls-9, .cls-10, .cls-11, .cls-12, .cls-13 {
        fill: #333;
      }

      .cls-7, .cls-8, .cls-9, .cls-10, .cls-11, .cls-12, .cls-13, .cls-14 {
        stroke-miterlimit: 10;
        stroke-width: .5px;
      }

      .cls-8 {
        stroke: #f8ad3b;
      }

      .cls-9, .cls-14 {
        stroke: #fff;
      }

      .cls-10 {
        stroke: #ea1c24;
      }

      .cls-11 {
        stroke: #0071b9;
      }

      .cls-12 {
        stroke: #90278c;
      }

      .cls-13 {
        stroke: #39b24a;
      }

      .cls-14 {
        fill: none;
      }
    </style>
  </defs>
  <rect class="cls-8" x="11.34" y="14.86" width="61" height="14" rx="1.35" ry="1.35"/>
  <g>
    <path class="cls-1" d="m23.05,23.45h-.79v-4.19h1.59c.41,0,.72.12.94.35.22.23.32.55.32.95,0,.31-.07.57-.21.78s-.34.34-.61.4l.89,1.72h-.86l-.8-1.63h-.47v1.63Zm.64-2.24c.21,0,.36-.04.46-.13.09-.09.14-.22.14-.41v-.23c0-.19-.05-.33-.14-.41-.09-.09-.24-.13-.46-.13h-.64v1.31h.64Z"/>
    <path class="cls-1" d="m28.33,23.45c-.19,0-.33-.05-.44-.14-.1-.09-.16-.23-.18-.39h-.03c-.06.19-.17.34-.33.45-.16.11-.37.16-.61.16-.31,0-.56-.08-.74-.25-.18-.16-.28-.39-.28-.68,0-.62.46-.94,1.37-.94h.55v-.2c0-.2-.05-.34-.14-.44-.1-.1-.25-.15-.47-.15-.2,0-.35.04-.47.11-.12.08-.22.17-.31.29l-.44-.37c.1-.17.25-.32.47-.44.21-.12.49-.18.83-.18.41,0,.73.09.96.29.23.19.34.47.34.85v1.46h.37v.58h-.45Zm-1.33-.46c.18,0,.34-.04.46-.13s.18-.2.18-.35v-.41h-.53c-.42,0-.63.13-.63.4v.12c0,.12.05.22.14.28.09.06.22.1.38.1Z"/>
    <path class="cls-1" d="m31.41,22.91h-.04c-.08.19-.2.34-.34.45-.15.11-.34.17-.58.17-.18,0-.34-.03-.48-.1-.15-.07-.27-.17-.38-.3s-.18-.3-.24-.51c-.06-.2-.08-.44-.08-.71,0-.54.11-.95.32-1.22.22-.27.5-.4.86-.4.24,0,.43.06.58.17s.26.26.34.45h.04v-1.89h.77v4.44h-.77v-.55Zm-.64,0c.09,0,.17-.01.25-.03.08-.02.15-.05.2-.1.06-.04.1-.1.14-.16s.05-.14.05-.23v-.97c0-.09-.02-.17-.05-.23-.03-.07-.08-.12-.14-.16-.06-.04-.13-.07-.2-.1-.08-.02-.16-.03-.25-.03-.22,0-.4.07-.52.2-.12.14-.18.32-.18.56v.49c0,.24.06.42.18.56.12.14.29.2.52.2Z"/>
    <path class="cls-1" d="m33.18,22.85h1.02v-1.9h-1.02v-.6h1.79v2.5h.95v.6h-2.74v-.6Zm1.4-2.98c-.18,0-.31-.04-.38-.11-.07-.08-.11-.17-.11-.28v-.14c0-.11.04-.2.11-.28.07-.08.2-.11.38-.11s.31.04.38.11c.07.08.11.17.11.28v.14c0,.11-.04.2-.11.28-.07.08-.2.11-.38.11Z"/>
    <path class="cls-1" d="m39.13,23.45c-.19,0-.33-.05-.44-.14-.1-.09-.16-.23-.18-.39h-.03c-.06.19-.17.34-.33.45-.16.11-.37.16-.61.16-.31,0-.56-.08-.74-.25-.18-.16-.28-.39-.28-.68,0-.62.46-.94,1.37-.94h.55v-.2c0-.2-.05-.34-.14-.44-.1-.1-.25-.15-.47-.15-.2,0-.35.04-.47.11-.12.08-.22.17-.31.29l-.44-.37c.1-.17.25-.32.47-.44.21-.12.49-.18.83-.18.41,0,.73.09.96.29.23.19.34.47.34.85v1.46h.37v.58h-.45Zm-1.33-.46c.18,0,.34-.04.46-.13s.18-.2.18-.35v-.41h-.53c-.42,0-.63.13-.63.4v.12c0,.12.05.22.14.28.09.06.22.1.38.1Z"/>
    <path class="cls-1" d="m40.22,22.85h.98v-3.24h-.98v-.6h1.75v3.84h.99v.6h-2.74v-.6Z"/>
    <path class="cls-1" d="m48.24,23.45l-1.15-4.19h.86l.52,2.12.31,1.32h.04l.31-1.32.53-2.12h.82l-1.15,4.19h-1.1Z"/>
    <path class="cls-1" d="m52.46,23.53c-.25,0-.47-.04-.66-.11-.19-.08-.35-.18-.48-.32-.13-.14-.23-.31-.3-.51-.07-.2-.1-.42-.1-.67s.03-.48.1-.68c.07-.2.17-.37.3-.51.13-.14.28-.25.47-.32.18-.08.39-.11.61-.11s.43.04.61.11.33.18.46.32c.13.14.22.3.29.49s.1.41.1.64v.25h-2.17v.08c0,.22.07.41.21.54.14.14.34.21.59.21.19,0,.36-.04.5-.12.14-.08.25-.18.34-.31l.44.44c-.11.16-.28.3-.49.42-.21.12-.49.17-.81.17Zm-.05-2.68c-.22,0-.39.07-.52.21-.13.14-.2.32-.2.54v.04h1.4v-.05c0-.23-.06-.41-.18-.54-.12-.13-.29-.2-.5-.2Z"/>
    <path class="cls-1" d="m54.62,22.85h.98v-3.24h-.98v-.6h1.75v3.84h.99v.6h-2.74v-.6Z"/>
    <path class="cls-1" d="m59.59,23.53c-.24,0-.45-.04-.63-.11s-.34-.18-.47-.32c-.13-.14-.23-.31-.3-.51-.07-.2-.1-.42-.1-.67s.03-.47.1-.67c.07-.2.17-.37.3-.51.13-.14.29-.25.47-.32s.4-.11.63-.11.44.04.63.11.35.18.48.32c.13.14.23.31.3.51.07.2.1.42.1.67s-.04.47-.1.67c-.07.2-.17.37-.3.51-.13.14-.29.25-.48.32s-.4.11-.63.11Zm0-.59c.22,0,.39-.07.52-.2.13-.13.19-.33.19-.59v-.48c0-.26-.06-.46-.19-.59-.13-.13-.3-.2-.52-.2s-.39.07-.52.2c-.13.13-.19.33-.19.59v.48c0,.26.06.46.19.59.13.13.3.2.52.2Z"/>
  </g>
  <rect class="cls-11" x="11" y="35.14" width="61" height="14" rx="1.35" ry="1.35"/>
  <g>
    <path class="cls-3" d="m25.8,44v-4.19h2.74v.65h-1.95v1.09h1.76v.65h-1.76v1.8h-.79Z"/>
    <path class="cls-3" d="m29.35,43.4h.77v-1.9h-.77v-.6h1.54v.85h.05c.03-.11.07-.21.12-.32.05-.1.11-.19.19-.27.08-.08.17-.14.28-.19s.25-.07.4-.07h.34v.72h-.64c-.23,0-.41.07-.55.21-.13.14-.2.31-.2.52v1.05h1.07v.6h-2.61v-.6Z"/>
    <path class="cls-3" d="m34.37,44.07c-.25,0-.47-.04-.66-.11-.19-.08-.35-.18-.48-.32-.13-.14-.23-.31-.3-.51-.07-.2-.1-.42-.1-.67s.03-.48.1-.68c.07-.2.17-.37.3-.51.13-.14.28-.25.47-.32.18-.08.39-.11.61-.11s.43.04.61.11.33.18.46.32c.13.14.22.3.29.49s.1.41.1.64v.25h-2.17v.08c0,.22.07.41.21.54.14.14.34.21.59.21.19,0,.36-.04.5-.12.14-.08.25-.18.34-.31l.44.44c-.11.16-.28.3-.49.42-.21.12-.49.17-.81.17Zm-.05-2.68c-.22,0-.39.07-.52.21-.13.14-.2.32-.2.54v.04h1.4v-.05c0-.23-.06-.41-.18-.54-.12-.13-.29-.2-.5-.2Z"/>
    <path class="cls-3" d="m38.52,43.45h-.04c-.08.19-.2.34-.34.45-.15.11-.34.17-.58.17-.18,0-.34-.03-.48-.1-.15-.07-.27-.17-.38-.3s-.18-.3-.24-.51c-.06-.2-.08-.44-.08-.71,0-.54.11-.95.32-1.22.22-.27.5-.4.86-.4.24,0,.43.06.58.17s.26.26.34.45h.04v-.55h.77v4.3h-.77v-1.75Zm-.64,0c.09,0,.17-.01.25-.03.08-.02.15-.05.2-.1.06-.04.1-.1.14-.16s.05-.14.05-.23v-.97c0-.09-.02-.17-.05-.23-.03-.07-.08-.12-.14-.16-.06-.04-.13-.07-.2-.1-.08-.02-.16-.03-.25-.03-.22,0-.4.07-.52.2-.12.14-.18.32-.18.56v.49c0,.24.06.42.18.56.12.14.29.2.52.2Z"/>
    <path class="cls-3" d="m42.08,43.45h-.03c-.07.17-.17.31-.31.43-.14.12-.34.18-.59.18-.3,0-.55-.1-.74-.3-.19-.2-.29-.49-.29-.87v-2h.77v1.89c0,.45.19.67.58.67.08,0,.15,0,.23-.03.07-.02.14-.05.2-.09.06-.04.1-.09.14-.15.03-.06.05-.13.05-.22v-2.07h.77v3.1h-.77v-.55Z"/>
    <path class="cls-3" d="m45.17,44.07c-.25,0-.47-.04-.66-.11-.19-.08-.35-.18-.48-.32-.13-.14-.23-.31-.3-.51-.07-.2-.1-.42-.1-.67s.03-.48.1-.68c.07-.2.17-.37.3-.51.13-.14.28-.25.47-.32.18-.08.39-.11.61-.11s.43.04.61.11.33.18.46.32c.13.14.22.3.29.49s.1.41.1.64v.25h-2.17v.08c0,.22.07.41.21.54.14.14.34.21.59.21.19,0,.36-.04.5-.12.14-.08.25-.18.34-.31l.44.44c-.11.16-.28.3-.49.42-.21.12-.49.17-.81.17Zm-.05-2.68c-.22,0-.39.07-.52.21-.13.14-.2.32-.2.54v.04h1.4v-.05c0-.23-.06-.41-.18-.54-.12-.13-.29-.2-.5-.2Z"/>
    <path class="cls-3" d="m47.35,44v-3.1h.77v.55h.03c.07-.17.17-.31.31-.44.14-.12.34-.18.59-.18.3,0,.55.1.74.3s.28.49.28.87v2h-.77v-1.89c0-.45-.19-.67-.58-.67-.08,0-.16.01-.23.03-.07.02-.14.05-.2.09-.06.04-.1.09-.14.15-.03.06-.05.13-.05.22v2.08h-.77Z"/>
    <path class="cls-3" d="m52.42,44.07c-.24,0-.45-.04-.64-.11s-.35-.18-.48-.32c-.13-.14-.23-.31-.3-.51-.07-.2-.1-.42-.1-.67s.03-.47.1-.67c.07-.2.17-.37.3-.51.13-.14.29-.25.47-.32s.4-.11.63-.11c.33,0,.59.07.79.2.2.14.35.32.46.54l-.59.32c-.06-.13-.14-.24-.24-.32s-.24-.12-.42-.12c-.23,0-.4.07-.53.2s-.18.31-.18.54v.52c0,.22.06.4.18.54s.3.2.54.2c.18,0,.33-.04.44-.13s.2-.2.27-.34l.58.34c-.1.22-.26.4-.47.54-.21.14-.48.21-.82.21Z"/>
    <path class="cls-3" d="m56.75,40.9h.78l-1.48,3.65c-.08.21-.2.37-.34.48-.14.11-.34.17-.59.17h-.56v-.6h.74l.23-.63-1.25-3.07h.82l.47,1.3.33.98h.04l.33-.98.48-1.3Z"/>
  </g>
  <rect class="cls-10" x="11" y="55.14" width="61" height="14" rx="1.35" ry="1.35"/>
  <g>
    <path class="cls-4" d="m40.09,60.46v3.54h-.78v-3.54h-1.26v-.65h3.3v.65h-1.26Z"/>
    <path class="cls-4" d="m45.02,64h-.89l-.46-.83-.37-.73h-.05l-.38.73-.47.83h-.83l1.23-2.16-1.15-2.03h.89l.38.71.37.73h.04l.37-.73.4-.71h.83l-1.16,2.04,1.22,2.15Z"/>
  </g>
  <rect class="cls-7" x="11" y="75.14" width="61" height="14" rx="1.35" ry="1.35"/>
  <g>
    <path class="cls-2" d="m25.3,83.61l-.2-.71h-.83l-.19.71h-.53l.78-2.79h.73l.79,2.79h-.56Zm-.59-2.28h-.03l-.31,1.14h.65l-.31-1.14Z"/>
    <path class="cls-2" d="m26.2,83.61v-2.06h.51v.36h.02c.05-.11.12-.21.21-.29.09-.08.23-.12.39-.12.2,0,.37.07.49.2s.19.33.19.58v1.33h-.51v-1.26c0-.3-.13-.45-.39-.45-.05,0-.1,0-.15.02-.05.01-.09.03-.13.06s-.07.06-.09.1-.03.09-.03.14v1.38h-.51Z"/>
    <path class="cls-2" d="m29.64,83.61c-.2,0-.34-.05-.44-.16-.09-.1-.14-.24-.14-.41v-1.1h-.6v-.4h.41c.08,0,.14-.02.18-.05s.05-.09.05-.18v-.5h.48v.73h.84v.4h-.84v1.26h.84v.4h-.78Z"/>
    <path class="cls-2" d="m31.95,83.66c-.17,0-.31-.03-.44-.08-.13-.05-.24-.12-.32-.22-.09-.09-.15-.21-.2-.34-.05-.13-.07-.28-.07-.45s.02-.32.07-.45c.05-.13.11-.25.2-.34.09-.09.19-.17.31-.22.12-.05.26-.08.41-.08s.28.03.4.07c.12.05.22.12.31.21s.15.2.19.33c.05.13.07.27.07.43v.17h-1.45v.05c0,.15.05.27.14.36.09.09.22.14.39.14.13,0,.24-.03.33-.08.09-.05.17-.12.23-.21l.29.29c-.07.11-.18.2-.33.28-.14.08-.32.12-.54.12Zm-.04-1.78c-.14,0-.26.05-.35.14-.09.09-.13.21-.13.36v.03h.94v-.04c0-.15-.04-.27-.12-.36-.08-.09-.19-.13-.33-.13Z"/>
    <path class="cls-2" d="m33.4,83.61v-2.06h.51v.36h.02c.05-.11.12-.21.21-.29.09-.08.23-.12.39-.12.2,0,.37.07.49.2s.19.33.19.58v1.33h-.51v-1.26c0-.3-.13-.45-.39-.45-.05,0-.1,0-.15.02-.05.01-.09.03-.13.06s-.07.06-.09.1-.03.09-.03.14v1.38h-.51Z"/>
    <path class="cls-2" d="m35.8,83.61v-2.06h.51v.36h.02c.05-.11.12-.21.21-.29.09-.08.23-.12.39-.12.2,0,.37.07.49.2s.19.33.19.58v1.33h-.51v-1.26c0-.3-.13-.45-.39-.45-.05,0-.1,0-.15.02-.05.01-.09.03-.13.06s-.07.06-.09.1-.03.09-.03.14v1.38h-.51Z"/>
    <path class="cls-2" d="m39.86,83.61c-.13,0-.22-.03-.29-.09-.07-.06-.11-.15-.12-.26h-.02c-.04.13-.11.23-.22.3-.11.07-.24.11-.4.11-.21,0-.37-.05-.5-.16s-.18-.26-.18-.46c0-.42.31-.62.92-.62h.36v-.14c0-.13-.03-.23-.1-.3s-.17-.1-.31-.1c-.13,0-.24.03-.32.08-.08.05-.15.12-.2.2l-.29-.25c.06-.11.17-.21.31-.29.14-.08.33-.12.55-.12.27,0,.48.06.64.19s.23.32.23.57v.97h.24v.38h-.3Zm-.88-.3c.12,0,.22-.03.31-.09.08-.06.12-.14.12-.23v-.28h-.35c-.28,0-.42.09-.42.26v.08c0,.08.03.15.09.19.06.04.15.06.25.06Z"/>
    <path class="cls-2" d="m43.02,83.61v-2.79h1.06c.27,0,.48.08.62.23.14.15.22.36.22.63s-.07.48-.22.63c-.14.15-.35.23-.62.23h-.54v1.07h-.52Zm.52-1.49h.43c.14,0,.24-.03.3-.09s.09-.15.09-.28v-.15c0-.12-.03-.22-.09-.27s-.16-.09-.3-.09h-.43v.88Z"/>
    <path class="cls-2" d="m47.06,83.61c-.13,0-.22-.03-.29-.09-.07-.06-.11-.15-.12-.26h-.02c-.04.13-.11.23-.22.3-.11.07-.24.11-.4.11-.21,0-.37-.05-.5-.16s-.18-.26-.18-.46c0-.42.31-.62.92-.62h.36v-.14c0-.13-.03-.23-.1-.3s-.17-.1-.31-.1c-.13,0-.24.03-.32.08-.08.05-.15.12-.2.2l-.29-.25c.06-.11.17-.21.31-.29.14-.08.33-.12.55-.12.27,0,.48.06.64.19s.23.32.23.57v.97h.24v.38h-.3Zm-.88-.3c.12,0,.22-.03.31-.09.08-.06.12-.14.12-.23v-.28h-.35c-.28,0-.42.09-.42.26v.08c0,.08.03.15.09.19.06.04.15.06.25.06Z"/>
    <path class="cls-2" d="m48.84,83.61c-.2,0-.34-.05-.44-.16-.09-.1-.14-.24-.14-.41v-1.1h-.6v-.4h.41c.08,0,.14-.02.18-.05s.05-.09.05-.18v-.5h.48v.73h.84v.4h-.84v1.26h.84v.4h-.78Z"/>
    <path class="cls-2" d="m51.24,83.61c-.2,0-.34-.05-.44-.16-.09-.1-.14-.24-.14-.41v-1.1h-.6v-.4h.41c.08,0,.14-.02.18-.05s.05-.09.05-.18v-.5h.48v.73h.84v.4h-.84v1.26h.84v.4h-.78Z"/>
    <path class="cls-2" d="m53.55,83.66c-.17,0-.31-.03-.44-.08-.13-.05-.24-.12-.32-.22-.09-.09-.15-.21-.2-.34-.05-.13-.07-.28-.07-.45s.02-.32.07-.45c.05-.13.11-.25.2-.34.09-.09.19-.17.31-.22.12-.05.26-.08.41-.08s.28.03.4.07c.12.05.22.12.31.21s.15.2.19.33c.05.13.07.27.07.43v.17h-1.45v.05c0,.15.05.27.14.36.09.09.22.14.39.14.13,0,.24-.03.33-.08.09-.05.17-.12.23-.21l.29.29c-.07.11-.18.2-.33.28-.14.08-.32.12-.54.12Zm-.04-1.78c-.14,0-.26.05-.35.14-.09.09-.13.21-.13.36v.03h.94v-.04c0-.15-.04-.27-.12-.36-.08-.09-.19-.13-.33-.13Z"/>
    <path class="cls-2" d="m55,83.21h.51v-1.26h-.51v-.4h1.02v.57h.03c.02-.07.04-.14.08-.21.03-.07.08-.13.13-.18s.12-.09.19-.13.16-.05.27-.05h.22v.48h-.42c-.15,0-.28.05-.36.14-.09.09-.13.21-.13.35v.7h.72v.4h-1.74v-.4Z"/>
    <path class="cls-2" d="m57.4,83.61v-2.06h.51v.36h.02c.05-.11.12-.21.21-.29.09-.08.23-.12.39-.12.2,0,.37.07.49.2s.19.33.19.58v1.33h-.51v-1.26c0-.3-.13-.45-.39-.45-.05,0-.1,0-.15.02-.05.01-.09.03-.13.06s-.07.06-.09.1-.03.09-.03.14v1.38h-.51Z"/>
  </g>
  <rect class="cls-12" x="11" y="95.14" width="61" height="14" rx="1.35" ry="1.35"/>
  <g>
    <path class="cls-5" d="m23.24,103.61v-1.02l-.91-1.77h.58l.32.67.25.57h.03l.26-.57.33-.67h.56l-.91,1.77v1.02h-.52Z"/>
    <path class="cls-5" d="m26.66,103.61c-.13,0-.22-.03-.29-.09-.07-.06-.11-.15-.12-.26h-.02c-.04.13-.11.23-.22.3-.11.07-.24.11-.4.11-.21,0-.37-.05-.5-.16s-.18-.26-.18-.46c0-.42.31-.62.92-.62h.36v-.14c0-.13-.03-.23-.1-.3s-.17-.1-.31-.1c-.13,0-.24.03-.32.08-.08.05-.15.12-.2.2l-.29-.25c.06-.11.17-.21.31-.29.14-.08.33-.12.55-.12.27,0,.48.06.64.19s.23.32.23.57v.97h.24v.38h-.3Zm-.88-.3c.12,0,.22-.03.31-.09.08-.06.12-.14.12-.23v-.28h-.35c-.28,0-.42.09-.42.26v.08c0,.08.03.15.09.19.06.04.15.06.25.06Z"/>
    <path class="cls-5" d="m27.16,101.55h.43l.18,1.7h.04l.28-1.7h.47l.28,1.7h.04l.18-1.7h.41l-.26,2.06h-.62l-.24-1.52h-.04l-.24,1.52h-.62l-.26-2.06Z"/>
    <path class="cls-5" d="m30.44,102.96h.69l-.52,1.24h-.39l.22-1.24Z"/>
    <path class="cls-5" d="m34.62,103.61v-2.79h1.06c.27,0,.48.08.62.23.14.15.22.36.22.63s-.07.48-.22.63c-.14.15-.35.23-.62.23h-.54v1.07h-.52Zm.52-1.49h.43c.14,0,.24-.03.3-.09s.09-.15.09-.28v-.15c0-.12-.03-.22-.09-.27s-.16-.09-.3-.09h-.43v.88Z"/>
    <path class="cls-5" d="m37.09,103.21h.68v-1.26h-.68v-.4h1.19v1.66h.63v.4h-1.82v-.4Zm.94-1.98c-.12,0-.2-.03-.25-.08s-.07-.11-.07-.18v-.1c0-.07.02-.13.07-.18s.13-.08.25-.08.2.03.25.08.07.11.07.18v.1c0,.07-.02.13-.07.18s-.13.08-.25.08Z"/>
    <path class="cls-5" d="m40.44,103.61c-.2,0-.34-.05-.44-.16-.09-.1-.14-.24-.14-.41v-1.1h-.6v-.4h.41c.08,0,.14-.02.18-.05s.05-.09.05-.18v-.5h.48v.73h.84v.4h-.84v1.26h.84v.4h-.78Z"/>
    <path class="cls-5" d="m42.78,103.66c-.16,0-.3-.03-.42-.08s-.23-.12-.32-.22c-.09-.09-.15-.21-.2-.34s-.07-.28-.07-.45.02-.31.07-.45c.05-.13.11-.25.2-.34.09-.09.19-.17.32-.22s.26-.08.42-.08c.22,0,.39.05.53.14.13.09.23.21.3.36l-.4.22c-.04-.09-.09-.16-.16-.21-.07-.05-.16-.08-.28-.08-.15,0-.27.04-.35.13-.08.09-.12.21-.12.36v.34c0,.15.04.27.12.36.08.09.2.13.36.13.12,0,.22-.03.29-.08.07-.06.13-.13.18-.22l.38.23c-.07.15-.17.27-.31.36-.14.09-.32.14-.55.14Z"/>
    <path class="cls-5" d="m44.2,100.65h.51v1.26h.02c.05-.11.12-.21.21-.29.09-.08.23-.12.39-.12.2,0,.37.07.49.2s.19.33.19.58v1.33h-.51v-1.26c0-.3-.13-.45-.39-.45-.05,0-.1,0-.15.02-.05.01-.09.03-.13.06s-.07.06-.09.1-.03.09-.03.14v1.38h-.51v-2.96Z"/>
    <path class="cls-5" d="m47.24,102.96h.69l-.52,1.24h-.39l.22-1.24Z"/>
    <path class="cls-5" d="m51.94,103.61h-.52v-2.79h1.06c.27,0,.48.08.62.23.14.15.22.37.22.63,0,.21-.05.38-.14.52-.09.14-.23.23-.41.27l.6,1.14h-.58l-.53-1.08h-.32v1.08Zm.43-1.49c.14,0,.24-.03.3-.09s.09-.15.09-.28v-.15c0-.12-.03-.22-.09-.27s-.16-.09-.3-.09h-.43v.88h.43Z"/>
    <path class="cls-5" d="m54.7,103.66c-.16,0-.3-.03-.42-.08s-.23-.12-.32-.22c-.09-.09-.15-.21-.2-.34s-.07-.28-.07-.45.02-.31.07-.45c.05-.13.11-.25.2-.34.09-.09.19-.17.32-.22s.26-.08.42-.08.29.03.42.08c.13.05.23.12.32.22.09.09.15.21.2.34.05.13.07.28.07.45s-.02.31-.07.45-.11.25-.2.34c-.09.09-.19.17-.32.22-.13.05-.27.08-.42.08Zm0-.39c.15,0,.26-.04.35-.13.09-.09.13-.22.13-.39v-.32c0-.17-.04-.3-.13-.39-.09-.09-.2-.13-.35-.13s-.26.04-.35.13c-.09.09-.13.22-.13.39v.32c0,.17.04.3.13.39.09.09.2.13.35.13Z"/>
    <path class="cls-5" d="m56.19,103.21h.66v-2.16h-.66v-.4h1.17v2.56h.66v.4h-1.83v-.4Z"/>
    <path class="cls-5" d="m58.59,103.21h.66v-2.16h-.66v-.4h1.17v2.56h.66v.4h-1.83v-.4Z"/>
  </g>
  <polyline class="cls-14" points="74.8 102.14 81.97 102.14 81.97 21.86 74.8 21.86"/>
  <line class="cls-9" x1="74.8" y1="42.14" x2="81.97" y2="42.14"/>
  <line class="cls-14" x1="74.8" y1="82.14" x2="81.97" y2="82.14"/>
  <rect class="cls-13" x="101" y="45.14" width="61" height="14" rx="1.35" ry="1.35"/>
  <g>
    <path class="cls-6" d="m108.33,53.61v-2.79h1.82v.43h-1.3v.73h1.17v.43h-1.17v1.2h-.52Z"/>
    <path class="cls-6" d="m110.7,53.21h.51v-1.26h-.51v-.4h1.02v.57h.03c.02-.07.04-.14.08-.21.03-.07.08-.13.13-.18s.12-.09.19-.13.16-.05.27-.05h.22v.48h-.42c-.15,0-.28.05-.36.14-.09.09-.13.21-.13.35v.7h.72v.4h-1.74v-.4Z"/>
    <path class="cls-6" d="m114.05,53.66c-.17,0-.31-.03-.44-.08-.13-.05-.24-.12-.32-.22-.09-.09-.15-.21-.2-.34-.05-.13-.07-.28-.07-.45s.02-.32.07-.45c.05-.13.11-.25.2-.34.09-.09.19-.17.31-.22.12-.05.26-.08.41-.08s.28.03.4.07c.12.05.22.12.31.21s.15.2.19.33c.05.13.07.27.07.43v.17h-1.45v.05c0,.15.05.27.14.36.09.09.22.14.39.14.13,0,.24-.03.33-.08.09-.05.17-.12.23-.21l.29.29c-.07.11-.18.2-.33.28-.14.08-.32.12-.54.12Zm-.04-1.78c-.14,0-.26.05-.35.14-.09.09-.13.21-.13.36v.03h.94v-.04c0-.15-.04-.27-.12-.36-.08-.09-.19-.13-.33-.13Z"/>
    <path class="cls-6" d="m116.45,53.66c-.17,0-.31-.03-.44-.08-.13-.05-.24-.12-.32-.22-.09-.09-.15-.21-.2-.34-.05-.13-.07-.28-.07-.45s.02-.32.07-.45c.05-.13.11-.25.2-.34.09-.09.19-.17.31-.22.12-.05.26-.08.41-.08s.28.03.4.07c.12.05.22.12.31.21s.15.2.19.33c.05.13.07.27.07.43v.17h-1.45v.05c0,.15.05.27.14.36.09.09.22.14.39.14.13,0,.24-.03.33-.08.09-.05.17-.12.23-.21l.29.29c-.07.11-.18.2-.33.28-.14.08-.32.12-.54.12Zm-.04-1.78c-.14,0-.26.05-.35.14-.09.09-.13.21-.13.36v.03h.94v-.04c0-.15-.04-.27-.12-.36-.08-.09-.19-.13-.33-.13Z"/>
    <path class="cls-6" d="m121.17,53.66c-.24,0-.44-.04-.61-.12-.17-.08-.31-.19-.41-.33l.32-.33c.1.12.22.21.34.27s.25.09.39.09c.16,0,.28-.04.37-.11.09-.07.13-.18.13-.31,0-.11-.03-.2-.1-.26-.06-.06-.17-.1-.32-.12l-.3-.05c-.26-.05-.44-.14-.55-.28-.11-.14-.16-.31-.16-.5,0-.27.09-.47.26-.61s.41-.21.72-.21c.22,0,.41.03.57.1.16.07.29.16.38.28l-.31.33c-.07-.09-.16-.16-.27-.21s-.23-.08-.37-.08c-.3,0-.46.13-.46.38,0,.11.03.19.1.25s.17.1.33.12l.29.05c.24.05.42.13.54.27.12.13.18.3.18.51,0,.13-.02.25-.07.36-.05.11-.11.2-.2.28-.09.08-.2.14-.33.18-.13.04-.28.06-.45.06Z"/>
    <path class="cls-6" d="m122.67,51.55h.51v.36h.03c.06-.12.13-.23.23-.3.1-.07.23-.11.39-.11.12,0,.22.02.32.07.1.04.18.11.25.2.07.09.12.2.16.34s.06.29.06.48-.02.34-.06.48c-.04.14-.09.25-.16.34-.07.09-.15.16-.25.2-.1.04-.2.07-.32.07-.16,0-.29-.04-.39-.11-.1-.07-.17-.17-.23-.3h-.03v1.16h-.51v-2.86Zm.94,1.7c.15,0,.26-.04.35-.14s.12-.21.12-.37v-.33c0-.16-.04-.28-.12-.37-.08-.09-.2-.14-.35-.14-.12,0-.22.03-.3.09s-.13.14-.13.26v.65c0,.12.04.21.13.26.08.06.18.09.3.09Z"/>
    <path class="cls-6" d="m126.76,53.61c-.13,0-.22-.03-.29-.09-.07-.06-.11-.15-.12-.26h-.02c-.04.13-.11.23-.22.3-.11.07-.24.11-.4.11-.21,0-.37-.05-.5-.16s-.18-.26-.18-.46c0-.42.31-.62.92-.62h.36v-.14c0-.13-.03-.23-.1-.3s-.17-.1-.31-.1c-.13,0-.24.03-.32.08-.08.05-.15.12-.2.2l-.29-.25c.06-.11.17-.21.31-.29.14-.08.33-.12.55-.12.27,0,.48.06.64.19s.23.32.23.57v.97h.24v.38h-.3Zm-.88-.3c.12,0,.22-.03.31-.09.08-.06.12-.14.12-.23v-.28h-.35c-.28,0-.42.09-.42.26v.08c0,.08.03.15.09.19.06.04.15.06.25.06Z"/>
    <path class="cls-6" d="m128.48,53.66c-.16,0-.3-.03-.42-.08s-.23-.12-.32-.22c-.09-.09-.15-.21-.2-.34s-.07-.28-.07-.45.02-.31.07-.45c.05-.13.11-.25.2-.34.09-.09.19-.17.32-.22s.26-.08.42-.08c.22,0,.39.05.53.14.13.09.23.21.3.36l-.4.22c-.04-.09-.09-.16-.16-.21-.07-.05-.16-.08-.28-.08-.15,0-.27.04-.35.13-.08.09-.12.21-.12.36v.34c0,.15.04.27.12.36.08.09.2.13.36.13.12,0,.22-.03.29-.08.07-.06.13-.13.18-.22l.38.23c-.07.15-.17.27-.31.36-.14.09-.32.14-.55.14Z"/>
    <path class="cls-6" d="m130.85,53.66c-.17,0-.31-.03-.44-.08-.13-.05-.24-.12-.32-.22-.09-.09-.15-.21-.2-.34-.05-.13-.07-.28-.07-.45s.02-.32.07-.45c.05-.13.11-.25.2-.34.09-.09.19-.17.31-.22.12-.05.26-.08.41-.08s.28.03.4.07c.12.05.22.12.31.21s.15.2.19.33c.05.13.07.27.07.43v.17h-1.45v.05c0,.15.05.27.14.36.09.09.22.14.39.14.13,0,.24-.03.33-.08.09-.05.17-.12.23-.21l.29.29c-.07.11-.18.2-.33.28-.14.08-.32.12-.54.12Zm-.04-1.78c-.14,0-.26.05-.35.14-.09.09-.13.21-.13.36v.03h.94v-.04c0-.15-.04-.27-.12-.36-.08-.09-.19-.13-.33-.13Z"/>
    <path class="cls-6" d="m134.72,53.61v-2.79h1.06c.27,0,.48.08.62.23.14.15.22.36.22.63s-.07.48-.22.63c-.14.15-.35.23-.62.23h-.54v1.07h-.52Zm.52-1.49h.43c.14,0,.24-.03.3-.09s.09-.15.09-.28v-.15c0-.12-.03-.22-.09-.27s-.16-.09-.3-.09h-.43v.88Z"/>
    <path class="cls-6" d="m138.76,53.61c-.13,0-.22-.03-.29-.09-.07-.06-.11-.15-.12-.26h-.02c-.04.13-.11.23-.22.3-.11.07-.24.11-.4.11-.21,0-.37-.05-.5-.16s-.18-.26-.18-.46c0-.42.31-.62.92-.62h.36v-.14c0-.13-.03-.23-.1-.3s-.17-.1-.31-.1c-.13,0-.24.03-.32.08-.08.05-.15.12-.2.2l-.29-.25c.06-.11.17-.21.31-.29.14-.08.33-.12.55-.12.27,0,.48.06.64.19s.23.32.23.57v.97h.24v.38h-.3Zm-.88-.3c.12,0,.22-.03.31-.09.08-.06.12-.14.12-.23v-.28h-.35c-.28,0-.42.09-.42.26v.08c0,.08.03.15.09.19.06.04.15.06.25.06Z"/>
    <path class="cls-6" d="m140.54,53.61c-.2,0-.34-.05-.44-.16-.09-.1-.14-.24-.14-.41v-1.1h-.6v-.4h.41c.08,0,.14-.02.18-.05s.05-.09.05-.18v-.5h.48v.73h.84v.4h-.84v1.26h.84v.4h-.78Z"/>
    <path class="cls-6" d="m141.9,50.65h.51v1.26h.02c.05-.11.12-.21.21-.29.09-.08.23-.12.39-.12.2,0,.37.07.49.2s.19.33.19.58v1.33h-.51v-1.26c0-.3-.13-.45-.39-.45-.05,0-.1,0-.15.02-.05.01-.09.03-.13.06s-.07.06-.09.1-.03.09-.03.14v1.38h-.51v-2.96Z"/>
    <path class="cls-6" d="m146.8,53.61v-2.79h.52v2.36h1.24v.43h-1.76Z"/>
    <path class="cls-6" d="m150,53.66c-.16,0-.3-.03-.42-.08s-.23-.12-.32-.22c-.09-.09-.15-.21-.2-.34s-.07-.28-.07-.45.02-.31.07-.45c.05-.13.11-.25.2-.34.09-.09.19-.17.32-.22s.26-.08.42-.08.29.03.42.08c.13.05.23.12.32.22.09.09.15.21.2.34.05.13.07.28.07.45s-.02.31-.07.45-.11.25-.2.34c-.09.09-.19.17-.32.22-.13.05-.27.08-.42.08Zm0-.39c.15,0,.26-.04.35-.13.09-.09.13-.22.13-.39v-.32c0-.17-.04-.3-.13-.39-.09-.09-.2-.13-.35-.13s-.26.04-.35.13c-.09.09-.13.22-.13.39v.32c0,.17.04.3.13.39.09.09.2.13.35.13Z"/>
    <path class="cls-6" d="m152.39,53.66c-.23,0-.42-.04-.59-.11-.17-.07-.29-.17-.39-.29l.3-.27c.09.09.18.17.29.22.11.05.24.08.39.08.13,0,.23-.02.31-.06.08-.04.12-.11.12-.2,0-.07-.03-.12-.08-.15-.05-.03-.12-.05-.21-.06l-.33-.05c-.09-.01-.17-.03-.25-.06s-.15-.06-.22-.11c-.06-.05-.11-.1-.15-.17-.04-.07-.06-.16-.06-.26,0-.22.08-.38.24-.5.16-.11.38-.17.67-.17.2,0,.37.03.51.08.14.06.26.13.35.24l-.27.3c-.06-.06-.14-.12-.23-.17-.1-.05-.22-.07-.37-.07-.26,0-.39.08-.39.24,0,.08.03.13.08.15.05.03.12.05.21.06l.33.05c.09.01.17.03.25.06s.15.06.22.11c.06.05.11.1.15.17.04.07.06.15.06.26,0,.21-.08.38-.25.5-.16.12-.39.18-.69.18Z"/>
    <path class="cls-6" d="m154.79,53.66c-.23,0-.42-.04-.59-.11-.17-.07-.29-.17-.39-.29l.3-.27c.09.09.18.17.29.22.11.05.24.08.39.08.13,0,.23-.02.31-.06.08-.04.12-.11.12-.2,0-.07-.03-.12-.08-.15-.05-.03-.12-.05-.21-.06l-.33-.05c-.09-.01-.17-.03-.25-.06s-.15-.06-.22-.11c-.06-.05-.11-.1-.15-.17-.04-.07-.06-.16-.06-.26,0-.22.08-.38.24-.5.16-.11.38-.17.67-.17.2,0,.37.03.51.08.14.06.26.13.35.24l-.27.3c-.06-.06-.14-.12-.23-.17-.1-.05-.22-.07-.37-.07-.26,0-.39.08-.39.24,0,.08.03.13.08.15.05.03.12.05.21.06l.33.05c.09.01.17.03.25.06s.15.06.22.11c.06.05.11.1.15.17.04.07.06.15.06.26,0,.21-.08.38-.25.5-.16.12-.39.18-.69.18Z"/>
  </g>
  <rect class="cls-13" x="101" y="65.14" width="61" height="14" rx="1.35" ry="1.35"/>
  <g>
    <path class="cls-6" d="m123.39,70.82h.87c.36,0,.63.12.81.36.18.24.27.58.27,1.04s-.09.8-.27,1.04c-.18.24-.45.36-.81.36h-.87v-2.79Zm.83,2.37c.19,0,.33-.06.43-.19s.14-.31.14-.55v-.48c0-.24-.05-.42-.14-.54s-.23-.19-.43-.19h-.32v1.94h.32Z"/>
    <path class="cls-6" d="m126.7,73.66c-.16,0-.3-.03-.42-.08s-.23-.12-.32-.22c-.09-.09-.15-.21-.2-.34s-.07-.28-.07-.45.02-.31.07-.45c.05-.13.11-.25.2-.34.09-.09.19-.17.32-.22s.26-.08.42-.08.29.03.42.08c.13.05.23.12.32.22.09.09.15.21.2.34.05.13.07.28.07.45s-.02.31-.07.45-.11.25-.2.34c-.09.09-.19.17-.32.22-.13.05-.27.08-.42.08Zm0-.39c.15,0,.26-.04.35-.13.09-.09.13-.22.13-.39v-.32c0-.17-.04-.3-.13-.39-.09-.09-.2-.13-.35-.13s-.26.04-.35.13c-.09.09-.13.22-.13.39v.32c0,.17.04.3.13.39.09.09.2.13.35.13Z"/>
    <path class="cls-6" d="m128.18,71.55h.51v.36h.03c.06-.12.13-.23.23-.3.1-.07.23-.11.39-.11.12,0,.22.02.32.07.1.04.18.11.25.2.07.09.12.2.16.34s.06.29.06.48-.02.34-.06.48c-.04.14-.09.25-.16.34-.07.09-.15.16-.25.2-.1.04-.2.07-.32.07-.16,0-.29-.04-.39-.11-.1-.07-.17-.17-.23-.3h-.03v1.16h-.51v-2.86Zm.94,1.7c.15,0,.26-.04.35-.14s.12-.21.12-.37v-.33c0-.16-.04-.28-.12-.37-.08-.09-.2-.14-.35-.14-.12,0-.22.03-.3.09s-.13.14-.13.26v.65c0,.12.04.21.13.26.08.06.18.09.3.09Z"/>
    <path class="cls-6" d="m130.58,71.55h.51v.36h.03c.06-.12.13-.23.23-.3.1-.07.23-.11.39-.11.12,0,.22.02.32.07.1.04.18.11.25.2.07.09.12.2.16.34s.06.29.06.48-.02.34-.06.48c-.04.14-.09.25-.16.34-.07.09-.15.16-.25.2-.1.04-.2.07-.32.07-.16,0-.29-.04-.39-.11-.1-.07-.17-.17-.23-.3h-.03v1.16h-.51v-2.86Zm.94,1.7c.15,0,.26-.04.35-.14s.12-.21.12-.37v-.33c0-.16-.04-.28-.12-.37-.08-.09-.2-.14-.35-.14-.12,0-.22.03-.3.09s-.13.14-.13.26v.65c0,.12.04.21.13.26.08.06.18.09.3.09Z"/>
    <path class="cls-6" d="m132.99,73.21h.66v-2.16h-.66v-.4h1.17v2.56h.66v.4h-1.83v-.4Z"/>
    <path class="cls-6" d="m136.35,73.66c-.17,0-.31-.03-.44-.08-.13-.05-.24-.12-.32-.22-.09-.09-.15-.21-.2-.34-.05-.13-.07-.28-.07-.45s.02-.32.07-.45c.05-.13.11-.25.2-.34.09-.09.19-.17.31-.22.12-.05.26-.08.41-.08s.28.03.4.07c.12.05.22.12.31.21s.15.2.19.33c.05.13.07.27.07.43v.17h-1.45v.05c0,.15.05.27.14.36.09.09.22.14.39.14.13,0,.24-.03.33-.08.09-.05.17-.12.23-.21l.29.29c-.07.11-.18.2-.33.28-.14.08-.32.12-.54.12Zm-.04-1.78c-.14,0-.26.05-.35.14-.09.09-.13.21-.13.36v.03h.94v-.04c0-.15-.04-.27-.12-.36-.08-.09-.19-.13-.33-.13Z"/>
    <path class="cls-6" d="m137.8,73.21h.51v-1.26h-.51v-.4h1.02v.57h.03c.02-.07.04-.14.08-.21.03-.07.08-.13.13-.18s.12-.09.19-.13.16-.05.27-.05h.22v.48h-.42c-.15,0-.28.05-.36.14-.09.09-.13.21-.13.35v.7h.72v.4h-1.74v-.4Z"/>
  </g>
  <polyline class="cls-14" points="96.68 52.14 93.5 52.14 93.5 62.14 81.97 62.14 74.8 62.14"/>
  <polyline class="cls-14" points="93.5 62.14 93.5 72.14 96.68 72.14"/>
</svg>