<?xml version="1.0" encoding="UTF-8"?>
<svg id="Layer_2" data-name="Layer 2" xmlns="http://www.w3.org/2000/svg" viewBox="0 0 732 937">
  <defs>
    <style>
      .cls-1, .cls-2 {
        fill: #ffbf00;
      }

      .cls-2 {
        stroke-width: .5px;
      }

      .cls-2, .cls-3, .cls-4, .cls-5 {
        stroke: #ffbf00;
        stroke-miterlimit: 10;
      }

      .cls-3, .cls-4, .cls-5 {
        fill: none;
        stroke-width: 4px;
      }

      .cls-4 {
        stroke-dasharray: 0 0 11.97 11.97;
      }

      .cls-5 {
        stroke-dasharray: 0 0 11.29 11.29;
      }
    </style>
  </defs>
  <g>
    <path class="cls-2" d="m494.06,700.34c.86,2.84-.89,5.24-1.38,7.85-.43,2.33-1.32,4.57-2.03,6.85-.26.82-.45,1.65.04,2.41.79,1.24.61,2.28-.74,2.82-1.32.52-2.75-.02-3.1-1.26-.67-2.37-1.57-1.72-2.61-.47-2.19,2.65-5.1,2.11-7.84,1.65-1.76-.29-1.87-2.15-2.12-3.61-.32-1.83.36-3.62.38-5.44-.23-.43-.27-.84.16-1.18.9-.2,1.02-.9,1.05-1.65.13-.29.26-.59.4-.88.69-.14,1.07-.51.95-1.26,0,0,.08-.21.08-.21.83-.25,1.41-.71,1.44-1.66,0,0,0,0,0,0,2.13-.62,3.6-2.15,5.05-3.7,1.79-.32,3.58-.3,5.37,0,.71.98,1.42.96,2.13-.01.93-.08,1.86-.16,2.79-.24Zm-4.77,5.04c-.05-1.12.11-2.38-1.02-2.93-.95-.47-2.26-.59-3.09.18-3.51,3.27-6,7.14-6.49,12.06-.15,1.47.31,2.75,1.66,3.33,1.24.53,2.51-.05,3.36-.99,3-3.32,4.82-7.24,5.58-11.64Z"/>
    <path class="cls-2" d="m577.54,700.37c.47,1.26,1.41.74,2.3.67,1.5-.13,2.13.25,2.09,2.16-.07,3.37-1.89,6.18-2.33,9.38-.04.32-.29.63-.29.94.01,1.2-.78,2.66.28,3.54,1.09.9,1.63-1.15,2.75-1.02-.16,2.05-3.58,5.36-5.4,5.15-1.83-.21-1.72-1.67-1.82-3.02-.04-.55.7-1.76-1.12-1.2-1.3.4-.73-.81-.37-1.4,1.63-2.77,3.02-5.64,3.82-8.78.41-1.62.6-3.5-.83-4.32-1.39-.8-3.02-.22-4.51,1.01-3.63,2.98-4.81,7-5.36,11.32-.32,2.51.87,3.32,3.26,3.06.82-.09,2.29-1.26,2.5.1.16,1.06-.98,2.59-2.4,2.68-2.18.14-4.88,1.09-6.44-.71-1.82-2.1-1.64-5.2-.62-7.61,1.84-4.38,3.79-8.89,8.7-10.94.3-.13.43-.67.64-1.03,1.72,0,3.45,0,5.17,0Z"/>
    <path class="cls-2" d="m406.47,708.05c-2.46,3.02-4.23,6.43-5.58,10.07-.11.3-.2.68-.42.85-3.15,2.32-4.92,5.88-7.71,8.52-1,.95-2.1,1.61-3.35,2.09-.88.34-1.65.06-2.24-.64-.66-.78-.67-1.72-.29-2.58.38-.87,1.29-.51,2-.58,1.15-.11,2.52,1.36,3.41-.17,1.35-2.33,4.71-3.59,3.94-7.04-1.05-4.67-1.43-9.51-3.63-13.88-.19-.37-.41-.73-.56-1.12-.33-.87-2.16-1.31-.91-2.6.82-.85,3.6-.15,4.42.88,1.36,1.72,1.02,3.96,1.93,5.85.95,1.98,1.54,4.14,2.4,6.53,1.71-2.47,3.9-4.32,4.18-7.43.09-.99.14-1.76-.55-2.51-.66-.72-1.67-1.4-1.11-2.53.37-.75,1.34-1.16,2.11-.86,1.13.43,2.19,1.16,2.48,2.48.12.55,0,1.16,0,1.74-.18.97-.36,1.95-.53,2.92Z"/>
    <path class="cls-2" d="m320.61,701.13c.82,1.96.25,2.91-1.79,2.99-3.05.12-5.26,2.86-4.82,5.88.27,1.89.52,3.76,1.2,5.58.65,1.75,1.42,2.51,2.97.91.41-.42.76-.69,1.19-.14.3.38.15.78-.16,1.11-1.22,1.3-2.33,2.72-3.69,3.86-1.35,1.13-4.34-1-4.57-3.26-.13-1.3-.02-2.62-.02-4.45-1.88,1.36-2.89,2.68-3.94,4-1.34,1.68-2.69,3.45-5.29,3.14-1.15-.14-1.92-.44-1.91-1.76,0-1.16.61-1.51,1.7-1.67,7.17-1.03,9.54-4.94,7.33-11.91-.42-1.32-.42-2.78-1.71-3.75-.45-.34.21-.88.27-1.36,1.15.04,2.29.07,3.44.11.29,1.09.54,2.2.87,3.28.22.73.69,1.41,1.5,1.42.8.01.82-.87,1.11-1.42.59-.68,1.18-1.36,1.76-2.04.77.15,1.12-.29,1.29-.95,1.09.14,2.18.28,3.27.41Z"/>
    <path class="cls-2" d="m329.32,699.27c-.83.03-1.23.44-1.06,1.28.15.75.78.8,1.36.77,1.8-.08,3.64.3,5.41-.35.54-.2,1.37-.39,1.6.11.23.49.11,1.37-.21,1.86-.63.96-1.49,1.79-2.8,1.79-2.9,0-5.79.02-8.69,0-.74,0-1.62-.09-1.9-.86-.25-.69.52-1.16.94-1.62.95-1.03,1.95-2.01,2.42-3.38.98-2.26,3.12-3.63,4.35-5.8,1.19-2.1,1.05-4.02.95-6.11-.92-2.25-3.39-2.88-5.7-1.55-.66.38-1.1,1.76-1.95,1.03-.86-.74.07-1.64.55-2.4.12-.19.11-.47.16-.71,0,0,0,0,0,0,3.09-1.84,6.25-1.89,9.49-.42.4.55,1.1.92,1.05,1.75.72,2.05,1.05,4.12.45,6.26-.49.94-.99,1.88-1.48,2.81-.84.44-1.59.95-1.55,2.05,0,0,0,0,0,0-1.03.04-1.52.58-1.49,1.6-.11.16-.21.32-.32.47-.76-.11-1.17.2-1.22.98-.12.15-.23.31-.35.46Z"/>
    <path class="cls-2" d="m409.44,705.12c-.65-2.07.53-3.51,1.83-4.76,1.2-1.16,2.37-2.29,3.18-3.76,0,0,.05-.19.05-.19.85-.21,1.27-.78,1.35-1.63.47-.79.94-1.58,1.41-2.37,1.73-1.06,1.92-2.73,1.66-4.48-.33-2.21-2.08-2.85-3.94-3.12-1.77-.26-3.38.23-4.18,1.96-.4.88-.89,1.09-1.71.94.02-.78.04-1.56.07-2.34.75-.26,1.14-.8,1.21-1.58,0,0,.18-.12.18-.12,1.29.26,1.73-1.15,2.8-1.39,2.38-.52,4.65-.46,6.49,1.31,1.68,1.62,2.16,5.72,1.09,7.85-1.27,2.52-2.63,4.92-5.05,6.62-.84.59-2.25,1.57-1.91,2.61.43,1.31,2.04.45,3.12.62.65.1,1.34-.06,1.99.03,1.32.2,2.83-1.35,3.77-.22,1.1,1.34-1.27,2.3-1.13,3.74-4.07.72-8.17.23-12.26.27Z"/>
    <path class="cls-2" d="m596.81,693.16c-1.66,2.2-3.41,4.31-5.77,5.82-.55.35-1.01.9-.73,1.68.26.74.94.97,1.58.99,1.57.06,3.14.01,4.71-.03.85-.02,2.17-1.17,2.36.36.15,1.21-.59,2.67-2.3,2.72-2.48.06-4.97.03-7.45.03-.99,0-1.99.02-2.97-.11-.78-.1-.94-.84-1.12-1.49,1.81-3.08,4.95-4.95,7.08-7.75.91-.25,1.62-.65,1.33-1.8.06-.39.12-.79.19-1.18,2.36-1.68,2.06-5.01-.6-6.62-.08-.04-.16-.06-.24-.06-1.41-1.51-2.8-1.88-4.14.07h0c-1.57-.49-1.55,1.44-2.54,1.86-.85-1.05-.15-1.7.26-2.5.57-1.12,2.02-1.53,2.21-2.9,0,0,.03-.04.03-.04,2.97-.64,5.8-.3,8.51,1.1,0,0,0,0,0,0-.03,1.17.36,2.1,1.49,2.62-.09,1.43-.18,2.86-.27,4.28-.81.51-1.14,1.28-1.17,2.2-.14.25-.28.5-.42.75Z"/>
    <path class="cls-2" d="m507.47,694.69c-1.16.39-1.82,1.39-2.61,2.2-.76.79-1.44,1.01-2.31.27.03-.11.07-.22.13-.32.72-.28,1.11-.79,1.09-1.58.16-.27.33-.54.49-.82.71-.13,1.07-.53.93-1.28.04-.23.08-.47.11-.7,2.04-1.94,1.99-4.72-.12-6.25-1.37-1-2.83-1.17-4.37-.42-.75-.14-1.15.19-1.29.91-.66.79-.55,2.78-2.15,2.05-1.15-.52-.7-2.12-.38-3.2.76-2.53,5.23-5.07,7.87-4.6,3.63.64,5.42,2.94,5.78,6.44.32,3.18-1.33,5.21-3.19,7.29Z"/>
    <path class="cls-2" d="m483.78,700.59c-1.45,1.55-2.92,3.07-5.05,3.7.39-2.12,2.83-3.91,5.05-3.7Z"/>
    <path class="cls-2" d="m598.66,685.93c-1.12-.52-1.51-1.45-1.49-2.62,1.81.13,1.56,1.42,1.49,2.62Z"/>
    <path class="cls-2" d="m332.7,695.75c-.03-1.1.72-1.61,1.55-2.05.02,1.09-.1,2.07-1.55,2.05Z"/>
    <path class="cls-2" d="m491.28,700.58c-.7.97-1.41.99-2.13.01.71-.51,1.42-.51,2.13-.01Z"/>
    <path class="cls-2" d="m593.53,693.58c.29,1.14-.42,1.54-1.33,1.8-.12-1.02.47-1.51,1.33-1.8Z"/>
    <path class="cls-2" d="m331.21,697.35c-.03-1.02.46-1.57,1.49-1.6.11,1.1-.57,1.46-1.49,1.6Z"/>
    <path class="cls-2" d="m478.72,704.29c-.02.95-.61,1.41-1.44,1.66-.1-1.05.28-1.69,1.44-1.66Z"/>
    <path class="cls-2" d="m317.34,700.71c-.18.66-.52,1.1-1.29.95.26-.55,0-1.8,1.29-.95Z"/>
    <path class="cls-2" d="m475.86,708.31c-.02.76-.15,1.45-1.05,1.65-.17-.88-.2-1.67,1.05-1.65Z"/>
    <path class="cls-2" d="m503.77,695.26c.02.79-.37,1.3-1.09,1.58-.01-.79,0-1.56,1.09-1.58Z"/>
    <path class="cls-2" d="m477.2,706.16c.12.75-.26,1.12-.95,1.26-.12-.75.26-1.13.95-1.26Z"/>
    <path class="cls-2" d="m329.67,698.81c.04-.78.46-1.09,1.22-.98-.14.65-.52,1.01-1.22.98Z"/>
    <path class="cls-2" d="m505.2,693.16c.13.75-.22,1.14-.93,1.28-.16-.77.24-1.13.93-1.28Z"/>
    <path class="cls-2" d="m499.54,686.71c.13-.72.54-1.05,1.29-.91-.13.72-.51,1.1-1.29.91Z"/>
    <path class="cls-2" d="m560,846.24c38.57,0,77.14,0,115.71,0,.75,0,1.5-.01,2.25,0,.91.03,2.07-.08,2.13,1.15.07,1.35-1,1.78-2.2,1.82-.58.02-1.17.01-1.75.01-77.81,0-155.62,0-233.43,0-.58,0-1.17-.01-1.75-.02-1.01-.01-1.21-.66-1.21-1.51,0-.89.32-1.44,1.28-1.45.67,0,1.33-.02,2-.02,38.99,0,77.98,0,116.96,0Z"/>
    <path class="cls-2" d="m452.48,738.28c49.14,0,98.28,0,147.43.01,1.27,0,3.4-.38,3.41,1.01.02,1.75-2.09,1.01-3.27,1.01-98.12.03-196.24.03-294.35.02-1.14,0-2.36.32-3.4-.4-.32-.22-.69-.64-.68-.96,0-.39.49-.63.95-.64,1-.03,2-.05,3-.05,48.98,0,97.95,0,146.93,0Z"/>
    <path class="cls-2" d="m373.32,857.27c-1.88,2.65-4.19,2.01-6.05,2.37-1.45.28-3.16.52-4.55-.64-.57-.47-1.1.07-1.63.22-2.06.58-4.07.78-5.9-.64-.67-.52-1.17-.08-1.81.14-2.09.75-4.28,1.68-6.44.39-1.63-.97-2.95-2.07-2.88-4.47.08-2.53.89-4.43,2.96-5.64,1.98-1.16,4.1-2.16,6.27-2.9,2.04-.69,1.51-2.12,1.34-3.44-.2-1.58-1.09-2.61-2.85-2.46-1.46.12-2.22.83-2.18,2.43.04,1.55-.61,2.79-2.35,2.95-1.07.1-2.09-.36-2.37-1.41-.4-1.5-.21-2.84,1.32-3.91,3.33-2.3,6.56-3.49,10.55-1.32,2.78,1.52,2.53,4.08,2.84,6.39.33,2.45.05,4.98.11,7.48.04,1.76,2.94,4.47,4.59,4.37,1.11-.07,1.31-.84,1.31-1.75,0-3.99.02-7.99.01-11.98,0-.4-.22-.8-.24-1.21-.06-.95-2.13-2.04-.56-2.59,1.41-.5,3.41-2.39,5.02.05.66,1,1.22.15,1.87-.14,1.72-.76,3.34-1.93,5.42-1.21,2.76.96,4.43,3.2,4.5,6.42.07,3.24.04,6.49.04,9.74,0,1.26-.12,2.42,1.57,2.92,1.19.35.99,1.22-.09,1.68-2.69,1.13-5.38.7-8-.24-1.14-.41-.89-1.2.08-1.46,1.4-.37,1.52-1.29,1.51-2.46-.03-3.41-.03-6.82,0-10.24.02-1.81-.65-3.35-2.51-3.35-1.85,0-3.81.9-3.94,3.08-.22,3.82-.1,7.65-.06,11.48.02,1.58,1.15,1.93,3.05,1.34Zm-18.12-6.38c-.26-1.15.66-3.7-2.02-2.87-2.16.67-3.84,2.57-4.3,5.06-.36,1.94.8,3.19,2.78,3.12,2.7-.1,3.53-1.3,3.54-5.3Z"/>
    <path class="cls-2" d="m64.5,869.13c-1.5,0-3,.06-4.49-.03-.64-.03-1.43-.26-1.54-1.03-.11-.82.56-1.09,1.28-1.21,1.98-.33,2.59-1.98,3.04-3.54.35-1.19.46-2.43,1.21-3.48.35-.5.57-1.17.14-1.62-.53-.55-1,.17-1.51.33-1.68.5-2.9,2.28-4.92,1.83-4.25-.94-4.92-2.62-4.77-7.58.15-4.94,2.84-8.82,6.58-11.65,2.39-1.8,5.61-2.51,8.7-1.76,1.14.28,1.99.74,3.18.08.98-.55,1.79.03,1.93,1.18.09.74.2,1.55-.02,2.23-1.4,4.39-1.59,9.02-3.16,13.44-.96,2.69-2.65,5.52-2.01,8.73.17.84.06,1.68,1.23,1.8.61.06,1.25.34,1.1,1.07-.14.68-.76,1.15-1.46,1.18-1.5.06-3,.02-4.49.02Zm4.33-24.83c-.18-1.65.27-2.86-1.11-3.4-1.53-.6-4.72.31-5.22,1.82-.47,1.41-1.62,2.3-2.11,3.59-.89,2.33-2.5,4.41-2.24,7.15.22,2.24,1.76,3.34,3.57,2.02,3.97-2.91,5.46-7.42,7.11-11.19Z"/>
    <path class="cls-2" d="m650.79,888.14c-1.97.37-2.79,1.92-4.47,2.25-4.46.87-7.54-1.45-6.96-5.9.84-6.43,4.11-11.37,9.97-14.4,1.01-.52,2.13-.25,3.19-.29,2.04-.07,4.06.23,6.13.08,2.11-.16,2.48,1.04,2.09,3.04-.54,2.71-1.58,5.27-2.31,7.89-1.13,4.03-1.68,8.34-3.97,12.02-.91,1.45-.31,4.07,1.18,5.02.43.28.94.49.77,1.09-.15.54-.66.73-1.18.73-2.91.01-5.82.02-8.73,0-.51,0-.99-.26-1.07-.85-.07-.49.3-.75.68-.92,4.27-1.91,4.43-5.74,4.66-9.76Zm-6.58-3.95c0,2.91,1.59,3.83,3.98,2.66,2.05-1.01,3.29-2.69,4.05-4.82.7-1.97,1.49-3.92,2.33-5.84.51-1.18,1.17-2.35-.04-3.4-1.14-.99-2.45-.88-3.67-.04-4.13,2.86-5.92,7.04-6.65,11.44Z"/>
    <path class="cls-2" d="m604.47,824.76c-1.21,1.32-2.34,2.72-3.63,3.95-2.85,2.72-7.72,1.22-8.67-2.53-1.18-4.64.28-8.24,3.45-11.73,2.26-2.49,4.66-4.37,7.83-5.32.39-.12.82-.43,1.17-.36,2.46.55,4.85,1.45,7.48.69.56-.16,1.48.55,1.21,1.71-.78,3.42-2.43,6.58-3.2,9.97-1,4.41-4.15,8.07-4.07,12.93.03,1.62.42,2.32,1.92,3.25-3.11,1.34-5.79,1.28-8.78.28,4.31-3.39,3.83-8.48,5.29-12.87Zm-7.4-1.95c.37,1.03-.57,2.69,1.12,3.35,1.61.63,2.84-.44,4.04-1.32.19-.14.32-.38.47-.57,2.4-3.12,4.36-6.45,5-10.42.26-1.6-.28-2.82-1.78-3.39-1.36-.51-2.42.22-3.14,1.33-.32.5-.79.84-1.1,1.29-2.06,2.93-4.6,5.64-4.61,9.73Z"/>
    <path class="cls-2" d="m457.14,886.06c1.19-.81,2.47-2.09,3.17-1.23.8.99-.04,2.44-1.15,3.39-1.06.91-2.08,1.86-3.33,2.55-1.32.73-2.51.59-3.26-.64-1.06-1.75-2-1.71-3.59-.57-3.74,2.68-7.41,2.21-9.07-1.25-1.18-2.45-1.02-5.25-.04-7.77,1.04-2.68,2-5.56,5.22-6.67.7-.24,1.29-1.02,1.77-1.67,2.28-3.07,5.45-2.8,8.53-2.06.92.22,1.35-.19,1.99-.33,2.04-.43,2.98.27,2.47,2.22-.96,3.7-.65,7.68-2.54,11.19-.35.66-.12,1.62-.18,2.82Zm-12.54-2.69c.17,1.45-.25,2.55.98,3.13,1.18.55,2.28.36,3.32-.27.42-.26.8-.61,1.12-.98,2.6-2.91,3.94-6.47,5.07-10.11.36-1.16.07-2.47-1.05-3.1-1.03-.58-2.17-.43-3.26.35-3.96,2.83-4.8,7.28-6.18,10.98Z"/>
    <path class="cls-2" d="m541.79,869.41c1.9-.3,3.77.51,5.69-.01.69-.19,1.65-.16,1.93.72.38,1.19.53,2.52-.19,3.62-1.48,2.26-1.46,4.98-2.41,7.41-.45,1.16-.28,2.6-.94,3.81-.24.43-.34,1,.04,1.41.45.49.91.03,1.34-.14.58-.22,1.26-.92,1.74-.11.49.82-.24,1.46-.86,1.83-1.68,1.02-3.23,2.43-5.46,1.94-.74-.16-1.62-.16-1.83-1.03-.57-2.33-1.43-.99-2.27-.23-2.42,2.19-5.69,2.63-7.99,1.07-1.77-1.2-2.31-4.74-1.44-7.5,1.44-4.56,3.37-8.68,7.48-11.57,1.68-1.19,3.34-1.28,5.17-1.21Zm1.85,4.52c-.11-.51-.06-1.6-.95-2.02-.8-.38-1.79-.33-2.62.21-4.46,2.9-5.92,7.37-6.34,12.33-.07.89.4,1.84,1.35,2.21.9.35,1.79.19,2.55-.49,3.56-3.17,5.79-7.01,6.01-12.24Z"/>
    <path class="cls-2" d="m68.17,760.27c-2.71.76-5.26.48-7.81.5-.28,0-.69-.18-.82-.4-.27-.48.16-.79.52-.94,1.46-.59,1.7-1.9,2.03-3.2.41-1.59.87-3.14,1.84-4.56.9-1.31,1.4-2.89.2-4.38-.56-.7-.16-1.08.2-1.71,1.59-2.78,3.54-5.41,3.79-8.78.1-1.33.5-2.92-.78-3.68-1.19-.7-2.7-.55-3.99.35-4.02,2.8-5.86,6.89-6.52,11.49-.48,3.38,1.4,4.52,4.59,3.17.53-.23,1.04-1.29,1.65-.48.57.74-.23,1.36-.78,1.85-2.15,1.9-4.59,2.68-7.31,1.45-2.53-1.14-3.99-4.59-2.53-7.38,1.58-3.02,3.02-6.16,5.41-8.79,2.55-2.8,5.61-3.43,8.98-2.9,1.6.25,3.09.41,4.61-.07,1.39-.44,2.04.19,1.71,1.43-1.08,4.04-1.87,8.18-3.52,12.04-1.69,3.97-2.47,8.16-3.36,12.32-.29,1.37.51,2.17,1.85,2.68Z"/>
    <path class="cls-2" d="m614.82,880.3c1.07,5.83-5.43,10.16-10.17,10.04-5.79-.14-9.4-4.65-9.56-11.57-.13-5.72,5.51-10.56,10.45-9.98,2.54.3,5.29.53,7.31,2.54,1.5,1.49,2.01,3.96,1.97,8.97Zm-4.57-.31c.7-2.3-1.16-4.27-1.91-6.44-.63-1.82-2.95-2.39-4.93-1.75-1.96.63-2.9,2.33-3.27,4.29-.6,3.24.42,6.35,1.84,9.04,1.9,3.58,5,3.84,7.04.37.98-1.66,1.32-3.35,1.23-5.5Z"/>
    <path class="cls-2" d="m564.27,810.68c4.27-3.16,5.67-3.18,6.84-.2,1.54-1.2,3.17-1.94,5.23-1.88,3.99.13,6.21,2.13,6.34,6.24.09,2.82.06,5.65.02,8.48-.02,1.6.03,3.18.92,4.56.64.99.33,1.35-.72,1.37-.83.02-1.66.03-2.49.01-1.24-.03-2.98.38-3.61-.26-1.05-1.09.92-1.97,1.11-3.04.29-1.62.23-3.3.25-4.96.03-2.16.08-4.33-.04-6.48-.1-1.96-1.14-2.92-3.25-2.83-2.07.1-3.99.32-4.09,2.88-.14,3.32-.05,6.65-.02,9.98,0,.47.21.96.41,1.4q1.54,3.33-2.05,3.32c-.17,0-.33,0-.5,0-1.16-.05-2.67.32-3.38-.27-1-.84.69-1.7.83-2.73.56-4.21.64-8.43.5-12.66-.05-1.37-.98-2.22-2.32-2.94Z"/>
    <path class="cls-2" d="m585.81,868.66c1.77.93,4.24.61,6.14,2.21,1.39,1.17,1.31,2.64,1.05,4.1-.19,1.08-1.29,1.11-2.21,1.22-1.51.17-2.66-.15-3.52-1.64-.56-.97-.15-2.54-1.92-2.89-1.96-.39-2.9,1.47-4.53,1.69-.16.02-.36.32-.42.52-1.21,3.76.87,9.6,4.03,11.78,1.37.94,2.64.87,3.91.12.99-.58,1.84-1.4,2.75-2.12.34-.27.69-.53,1.12-.3.46.25.31.67.19,1.08-1.16,4.01-5.07,6.92-8.98,6.69-4.16-.25-7.05-3.73-8.35-7.63-1.01-3.01-.23-5.58.41-8.06.59-2.3,1.92-4.89,5.02-5.33,1.71-.25,3.19-1.39,5.31-1.43Z"/>
    <path class="cls-2" d="m410.08,782.2c-2.5,0-4.99.02-7.49-.01-.72-.01-1.64.13-1.97-.72-.3-.77.54-1.12.96-1.59,2.92-3.21,6.26-5.99,9.22-9.13,2.91-3.1,4.69-6.92,3.81-11.38-.42-2.13-2.04-3.43-4.08-3.93-2.85-.69-5.3.4-6.64,2.74-.34.59-.32,1.82-1.32,1.32-.81-.41-.46-1.47-.11-2.25,1.46-3.3,4.03-5.36,7.55-5.79,3.55-.44,8.95,3.03,9.32,7.47.37,4.53-1.87,7.32-4.58,10.2-2.2,2.34-4.28,4.79-6.45,7.16-.38.41-.61.81-.44,1.32.23.72.89.64,1.46.64,2.75-.01,5.49-.06,8.24-.06,1.03,0,2.26-.32,2.23,1.46-.02,1.55-.44,2.6-2.22,2.58-2.5-.02-4.99,0-7.49,0,0,0,0,0,0-.01Z"/>
    <path class="cls-2" d="m190.77,858.21c-3.05,1.05-5.43.69-7.77.56-.81-.04-.91-.8-.27-1.21,1.17-.75.93-1.85.94-2.89.02-3.41.02-6.82.01-10.23,0-.74-.1-1.49-.13-2.23-.04-.93-1.74-2.1-.09-2.71,1.39-.52,3.23-1.92,4.56.46.69,1.24,1.33.17,1.96-.28,3.42-2.41,6.66-1.97,8.74,1.32,1,1.58.91,3.5.97,5.3.1,2.66.03,5.32.01,7.98,0,1.23-.26,2.55,1.61,2.75.63.07.89.7.8,1.36-.08.62-.54.8-1.07.8-2.08,0-4.17.11-6.23-.07-1.36-.11-2.12-.99-.69-2.05.89-.66,1.04-1.37,1.03-2.31-.02-3.33-.02-6.65,0-9.98,0-2.06-.64-3.68-2.96-3.83-2.16-.14-3.92,1.79-3.94,4.13-.02,3.16.05,6.32-.01,9.48-.03,1.54,0,2.96,2.52,3.65Z"/>
    <path class="cls-2" d="m504.99,826.08c1.29-.03,1.78-1.44,3.18-1.67-.65,2.39-2.23,3.83-4.11,4.78-1.29.65-2.82.14-3.28-1.37-.85-2.78-1.82-1.62-3.01-.32-1.76,1.93-3.82,2.66-6.49,1.87-2.51-.74-3.03-2.57-3.08-4.71-.13-5.17,2.72-9.13,5.88-12.68,2.43-2.73,5.59-4.64,9.56-2.39.7.4,1.61.12,2.44-.11,1.98-.56,2.39.25,1.85,2.08-1.05,3.53-1.99,7.1-3.01,10.65-.37,1.3-.36,2.57.06,3.88Zm-2.18-11.23c.02-3.91-.74-4.43-3.59-3.24-3.75,1.57-7.74,9.11-6.84,12.94.4,1.7,2.68,2.52,4.19,1.4,3.97-2.95,5.47-7.24,6.24-11.1Z"/>
    <path class="cls-2" d="m176.86,849.57c0,1.58,0,3.16,0,4.75,0,.88.13,1.72,1.22,1.85.75.09,1.31.31,1.23,1.2-.08.83-.57,1.48-1.3,1.69-1.44.41-2.97.74-4.23-.47-1.19-1.13-2.24-.94-3.56-.12-2.95,1.83-6.58,1.11-8.04-1.44-1.14-2-.59-4.75,1.32-6.82,2-2.16,4.69-3.02,7.33-3.94,2.43-.85,1.25-2.78,1.3-4.22.06-1.7-1.58-2.53-2.87-2.47-1.24.06-2.27,1.25-2.45,2.75,0,.08,0,.17,0,.25.05,1.3-.39,2.33-1.75,2.64-.82.19-1.84.22-2.14-.75-.39-1.25-.63-2.6.4-3.75,1.8-2.02,6.72-3.41,9.14-2.32,2.91,1.31,4.17,3.85,4.37,6.93.09,1.41.02,2.83.02,4.24h.01Zm-4.55,1.68c.01-3.53-.02-3.54-3.08-1.97-1,.51-1.52,1.44-2.23,2.22-1.67,1.84-.21,3.15.8,4.23,1.18,1.26,2.39.08,3.44-.64,1.43-.97,1.01-2.48,1.07-3.84Z"/>
    <path class="cls-2" d="m502.78,869.46c0-1.66-.01-3.33,0-4.99,0-.94.02-1.97,1.29-2.03,1.32-.06,2,.77,2.02,2.02.06,3.08.17,6.16,0,9.23-.12,2.37.64,3.32,3.1,3.15,2.65-.18,5.32-.04,7.98-.03,1.18,0,2.45-.08,2.47,1.66.03,1.72-1.17,1.74-2.4,1.74-3.08,0-6.16.08-9.23-.03-1.71-.06-2.39.44-2.31,2.23.13,2.74.03,5.49.03,8.23,0,1.06-.11,2.1-1.5,2.12-1.4.02-1.51-1.02-1.51-2.09,0-2.83-.06-5.66.02-8.48.05-1.53-.51-2.05-2.02-2.01-3.24.08-6.49.01-9.73.02-1.17,0-2.2-.12-2.21-1.67,0-1.52.97-1.73,2.17-1.73,3.16,0,6.32-.06,9.48.01,1.74.04,2.41-.66,2.32-2.36-.09-1.66-.02-3.33-.02-4.99h.04Z"/>
    <path class="cls-2" d="m483.74,778.79c-1.2,2.84-2.81,3.69-5.64,3.01-.51-.12-1.08-.28-1.18-.79-.62-3.11-1.8-1.27-2.85-.34-1.78,1.58-6.04,2.35-7.98,1.42-1.79-.86-3.02-4.91-2.17-7.22,1.81-4.92,5.1-8.63,9.3-11.68,1.62-1.17,3.31-.96,5.01-.88,1.56.07,3.07.58,4.68.38,1.31-.16,1.52.72,1.22,1.79-1.09,3.94-2.22,7.87-3.28,11.81-.56,2.08,0,2.54,2.83,2.44l.04.04Zm-14.97-2.6c-.08,1.41.1,2.77,1.62,3.04,1.63.29,3.4.15,4.49-1.34,2.35-3.22,4.39-6.57,4.67-10.73.08-1.24.13-2.61-.86-3.15-1.1-.6-2.58-.56-3.76.36-3.89,3.02-6.01,6.96-6.16,11.83Z"/>
    <path class="cls-2" d="m217.83,751.3c-5.73,1.24-9.81-5.25-10.01-10.22-.25-6.41,3.84-10.71,10-10.81,5.63-.09,9.96,4.13,9.99,9.83.03,6.17-2.98,12.04-9.99,11.2Zm5.84-9.33c.24-1.45-.22-3.06-.57-4.68-.6-2.79-3-4.62-5.86-4.59-2.09.02-3.48,1.73-4.18,4.65-.65,2.69.25,5.26.42,7.86.13,2.03,3.87,4.61,5.9,4.2,2.7-.55,4.09-2.04,4.28-5.21.04-.66,0-1.33,0-2.24Z"/>
    <path class="cls-2" d="m435.19,778.92c-1.96.93-2.65,2.8-4.62,3.08-2.25.32-4.39.85-6.21-1.14-1.92-2.1-1.44-4.53-.79-6.8,1.17-4.14,3.91-7.42,6.94-10.29.91-.86,2.68-1.41,4.3-1.54,2.27-.18,4.46,1.02,6.83.08,1.17-.47,1.6.82,1.53,1.94-.18,2.75-1.23,5.3-2.12,7.83-.63,1.8-.83,3.51-.86,5.32-.02.8.03,1.69,1.23.94.42-.26.87-.71,1.18,0,.14.32.08.95-.14,1.16-1.39,1.31-2.83,2.68-4.86,2.73-2.01.05-2.62-1.32-2.39-3.32Zm.3-15.15c-.84-.05-1.8.04-2.66.97-2.72,2.93-5.17,6.01-5.85,10.09-.26,1.54-.55,3.31,1.3,4.13,1.65.73,3.18.34,4.51-1.03,3.02-3.11,4.78-6.89,5.76-11.02.53-2.24-.39-3.13-3.06-3.14Z"/>
    <path class="cls-2" d="m630.7,872.24c0,.7.01,1.2,0,1.7-.01.5-.03,1.08-.62,1.23-.69.17-1.12-.27-1.28-.89-.36-1.43-1.52-2.07-2.57-2.89-1.56-1.21-2.73-.59-3.57.71-.85,1.32-.3,2.57.98,3.37,2.16,1.35,4.3,2.77,6.57,3.91,1.93.97,2.47,3.33,2.12,6.36-.29,2.48-1.77,3.92-4.44,4.59-2.82.71-5.42-.46-8.14-.18-1.12.11-1.88-.7-1.95-1.85-.09-1.33-.04-2.66-.02-4,.01-.73.34-1.3,1.13-1.42.85-.13,1.43.18,1.73,1.04.24.7.66,1.35.88,2.06.6,1.9,1.85,2.46,3.8,2.37,1.67-.08,2.85-.74,3.18-2.21.31-1.39-.7-2.49-1.87-3.22-1.46-.92-2.98-1.75-4.47-2.62-2.64-1.54-3.64-3.93-3.48-6.88.15-2.85,2.12-4.41,5.62-4.7,1.79-.15,3.45.47,5.17.67,1.82.21,1.07,1.92,1.25,2.85Z"/>
    <path class="cls-2" d="m269.89,822.5c1.65-2.26,3.36-4.33,3.94-7.12.25-1.21.26-2.05-.67-2.87-.8-.7-1.35-1.57-.67-2.62.42-.64,1.13-1.06,1.92-.96,1.25.15,1.33,1.25,1.65,2.2.99,2.85-1.02,5.07-1.65,7.55-.89,3.46-2.5,6.73-4.82,9.49-2.95,3.51-5.53,7.44-9.76,9.66-.83.44-1.71.82-2.56.15-.68-.54-.97-1.44-.71-2.21.33-.98,1.26-1.28,2.26-1.07,2.14.45,3.76-.05,4.48-2.32.02-.08.06-.18.12-.22,3.85-2.35,2.37-5.59,1.87-8.98-.53-3.6-2.22-6.62-3.49-9.86-.4-1.02-1.26-1.46-2.27-1.74-.46-.13-.94-.49-.96-1.03,0-.21.35-.56.61-.64,1.35-.41,2.7-.8,4.08-1.1.77-.17,1.48.05,1.91.83,1.29,2.36,2.74,4.61,3.07,7.44.21,1.83,1.06,3.58,1.65,5.43Z"/>
    <path class="cls-2" d="m205.65,744.44c-2.01,6.47-6.6,9.04-12.52,6.98-2.51-.87-3.97-2.91-4.6-5.69-1.22-5.35.29-10.75,4.2-13.68,3.03-2.27,7.9-2.4,11.01-.31,1.68,1.12,1.72,2.78,1.3,4.45-.32,1.29-1.54,1.02-2.51,1.02-1.24,0-1.72-.87-2.04-1.86-1.29-4.07-3.51-4.61-6.42-1.55-3.09,3.25-2.21,11.31,1.49,13.73,1.48.96,5.95.08,7.62-1.65.66-.68,1.24-1.25,2.47-1.44Z"/>
    <path class="cls-2" d="m265.23,869.33c1.66.08,2.78.17,3.01,1.93.29,2.16,1.56,1.98,2.68.62,1.41-1.7,3.07-2.41,5.24-2.09.97.14,1.51.57,1.55,1.58.04,1.08-.42,2.02-1.51,1.82-3.21-.61-4.3,1.61-5.65,3.74-.75,1.18-1.1,2.1-.19,3.37.76,1.07.08,2.48.46,3.64.43,1.32.31,3.5,2.94,2.17,1.34-.68,1.15.81.87,1.23-.96,1.4-1.86,2.99-3.96,2.98-2.01,0-2.33-1.44-2.78-2.91-.42-1.4-.53-3.42-2-3.72-.93-.19-1.7,1.73-2.47,2.75-1.27,1.68-2.54,3.27-4.83,3.47-1.02.09-2.19.11-2.32-1.23-.12-1.24.61-2.23,1.94-1.95,3.19.67,4.13-1.63,5.66-3.62,1.66-2.15,2.18-4.1,1.21-6.64-.72-1.89-.75-4.07-3.22-4.86-.9-.28-.29-.98.22-1.26,1.09-.6,2.22-1.16,3.17-1.04Z"/>
    <path class="cls-2" d="m517.61,836.3c-1,0-2,.01-3,0-1.08-.02-2.41.11-2.77-1.13-.35-1.2.22-2.43,1.17-3.28,2.19-1.96,4.34-3.94,5.66-6.63.62-1.26,1.44-2.44,1.9-3.75.65-1.86-.11-3.59-1.65-4.52-1.7-1.03-3.58-1.05-5.27.53-.61.57-.88,2.42-2.06,1.44-1.08-.89.34-1.82.81-2.74.85-1.69,2.51-2.42,3.89-3.43,1.35-.99,3-.43,4.17.54,4.61,3.84,5.48,7.4,1.21,12.65-1.36,1.67-3.02,3.1-4.53,4.65-.45.46-1.09.91-.7,1.69.33.66,1.02.47,1.57.46,1.82-.03,3.66.23,5.44-.42.52-.19,1.22-.3,1.6.29.4.63.18,1.29-.27,1.85-.87,1.09-1.94,1.82-3.4,1.81-1.25,0-2.5,0-3.75,0h0Z"/>
    <path class="cls-2" d="m543.22,808.66c.5,0,1,0,1.5,0,3.07.04,3.53.59,3.11,3.73-.06.48.01,1.1-.6,1.22-.6.12-.81-.42-1-.88-.69-1.66-1.45-3.23-3.71-2.93-1.09.14-2.28-.28-2.87,1.31-.6,1.62-.2,2.83,1.05,3.71,1.76,1.24,3.68,2.24,5.48,3.43,1.77,1.17,3.28,2.59,3.46,4.89.29,3.71-1.63,5.75-5.67,6.22-2.27.26-4.44-.39-6.66-.64-.98-.11-1.59-.91-1.59-1.96,0-1.17.08-2.46,1.09-3.16.86-.59,1.11.47,1.27,1.01.43,1.48,1.46,2.44,2.7,3.12,2.13,1.17,3.59.11,4.81-1.64,1.28-1.84-.07-2.75-1.25-3.66-2.04-1.56-4.66-2.12-6.61-3.89-1.51-1.37-2.81-4.61-1.86-6.21,1.12-1.86,2.3-3.98,5.11-3.68.74.08,1.5.01,2.24.01h0Z"/>
    <path class="cls-2" d="m558.25,897.19c-1.66,0-3.33.11-4.98-.03-1.49-.13-2.52-.66-1.01-2.31,1.61-1.75,3.73-2.9,5.12-4.96,1.53-2.27,2.62-4.74,3.67-7.19.82-1.9-.25-3.88-1.99-4.91-1.78-1.06-3.64-.78-5.13.97-.4.47-.58,1.79-1.52,1.12-.72-.51-.32-1.51.14-2.26,1.34-2.2,3.45-3.01,5.84-2.91,1.45.06,2.92.57,4.29,1.1,2.09.8,2.81,4.47,1.77,7.55-.96,2.83-2.77,4.99-4.89,6.98-.57.53-1.46,1.22-1.15,2.04.34.93,1.43.99,2.36.96.74-.03,1.49-.07,2.22-.19,1.04-.17,2.5-1.21,2.7.7.16,1.56-.34,3.24-2.45,3.35-1.66.09-3.32.02-4.99.02h0Z"/>
    <path class="cls-2" d="m615.62,819.08c-.62-.26-.51-.82-.39-1.27.63-2.28,3.34-4.33,5.97-4.57,1.9-.17,5.32,1.77,6.19,3.51,1.09,2.19.03,7.28-1.8,9-1.76,1.65-3.45,3.38-5.16,5.08-.41.41-.89.85-.5,1.51.3.52.88.45,1.34.4,2.18-.25,4.46.66,6.57-.7.79-.51,1.39.25,1.13.97-.58,1.61-1.1,3.37-3.46,3.29-2.83-.1-5.66-.01-8.49-.03-.63,0-1.42.19-1.7-.66-.25-.75-.15-1.48.43-2.09,1.42-1.49,2.35-3.35,3.96-4.7,2.46-2.06,3.39-5.12,4.26-7.98.42-1.39-.76-3.29-2.39-4.11-2.11-1.07-3.84-.24-5.22,1.49-.15.18-.16.47-.3.67-.07.11-.27.12-.43.19Z"/>
    <path class="cls-2" d="m333.16,849.74c0-2,0-4,0-6,0-1.03-.11-2.16-1.05-2.67-1.71-.94-1.21-1.73-.2-2.84,1.05-1.15,2.66-1.87,2.83-3.77.07-.78,1.01-.71,1.68-.65.65.06,1.2.45,1.17,1.08-.08,2.07.36,3.55,2.87,3.61.56.01,1.23.7,1.04,1.47-.16.64-.83.81-1.43.75-2.16-.19-2.43,1.06-2.39,2.81.08,3.33-.02,6.66.05,9.99.03,1.79,0,3.83,2.88,2.79.25-.09.73,0,.9.19.33.38.02.75-.24,1.08-1.57,2.03-3.76,2-5.93,1.59-1.97-.38-2.17-2.01-2.14-3.69.03-1.91,0-3.83,0-5.75h-.04Z"/>
    <path class="cls-2" d="m356.67,710.29c-1.5,0-2.99,0-4.49,0-.86,0-1.82-.08-1.86-1.18-.05-1.3,1.02-1.31,1.96-1.32,2.49-.02,4.99-.01,7.48-.02,3.31,0,3.43-.13,3.44-3.31,0-2.24-.05-4.49.03-6.73.03-.86-.59-2.28.97-2.37,1.82-.1,1.47,1.43,1.49,2.53.04,2.58.08,5.16,0,7.73-.06,1.61.5,2.24,2.14,2.19,2.91-.09,5.82-.04,8.73-.03.92,0,2.03-.03,2.05,1.23.02,1.26-1.07,1.28-2.01,1.28-2.83,0-5.66.09-8.48-.04-1.82-.08-2.54.45-2.44,2.37.15,2.82.04,5.65.04,8.48,0,1.04-.04,2.16-1.46,2.11-1.43-.05-1.04-1.27-1.05-2.09-.04-2.83-.07-5.65,0-8.48.05-1.69-.56-2.48-2.31-2.37-1.41.08-2.83.02-4.24.02h0Z"/>
    <path class="cls-2" d="m243.74,737.19c-1.41-1.54-2.15-2.5-2.82-3.56-1.58-2.49-3.92-2.51-5.57-.25-.67.91-.59,1.65-.06,2.5,1.17,1.88,2.65,3.27,4.89,3.89,4.36,1.22,6.07,6.87,3.16,10.29-.45.53-1.23,1.08-1.88,1.1-2.91.12-5.82.06-8.73.04-.69,0-1.08-.45-1.08-1.12,0-1.38-.28-2.78.2-4.16,1.27-.03,1.29,1.04,1.64,1.67.97,1.74,2.65,2.37,4.35,2.47,1.12.06,2.91.2,3.28-1.52.36-1.65.34-3.31-1.56-4.29-1.69-.88-3.3-1.92-4.93-2.9-2.19-1.32-3.46-4.3-2.85-6.6.71-2.67,3.02-4.49,5.89-4.43,1.48.03,2.96.33,4.42.61.99.19,1.63.83,1.65,1.9.03,1.21,0,2.42,0,4.37Z"/>
    <path class="cls-2" d="m159.64,856.73c-1.36,1.5-2.61,2.79-4.85,2.63-2.8-.2-4.5-1.64-4.55-4.48-.07-3.66-.02-7.32-.05-10.97-.01-1.28.35-2.61-1.07-3.59-.8-.56-.13-1.49.35-1.94,1.16-1.08,2.33-2.1,2.91-3.65.2-.54.81-.91,1.42-.83.85.11.99.89.92,1.54-.24,2.07.39,3.16,2.69,2.9.78-.09,1.16.67,1.19,1.35.05.88-.7,1.14-1.37,1.05-2.29-.31-2.56.91-2.49,2.79.12,3.32.15,6.66,0,9.97-.1,2.19.63,3.08,2.84,2.74.61-.09,1.32-.23,2.08.49Z"/>
    <path class="cls-2" d="m307.28,855.75c0,1.75.03,3.5-.02,5.24-.02.68.19,1.71-.94,1.67-.94-.04-1.11-.91-1.12-1.68-.03-3.16-.14-6.33.02-9.49.1-2.07-.55-2.8-2.65-2.68-2.99.16-5.99.06-8.99.04-.79,0-1.8.21-1.86-1.06-.06-1.25.78-1.53,1.8-1.53,3.08-.01,6.16-.07,9.24.01,1.84.05,2.53-.66,2.46-2.5-.11-2.74-.04-5.49-.01-8.24,0-.71-.2-1.71.86-1.76,1.15-.06,1.21.95,1.21,1.79.03,2.58.18,5.18-.03,7.74-.21,2.49.75,3.16,3.1,2.99,2.65-.19,5.33-.06,7.99-.03.87,0,2.03-.2,1.94,1.23-.08,1.18-1.01,1.38-2,1.38-2.75,0-5.5.1-8.24-.03-2.01-.09-2.97.51-2.76,2.67.14,1.4.03,2.83.03,4.24h-.03Z"/>
    <path class="cls-2" d="m562.24,829.13h-9.67c2.02-1.06,1.7-2.85,1.76-4.54.13-3.47-.33-6.97.4-10.42.39-1.82-.47-2.98-2.67-3.51,1.85-.9,3.22-1.73,4.7-2.24,1.99-.69,2.92.09,2.94,2.29.03,4.07.03,8.14,0,12.21-.02,2.25.78,4.15,2.55,6.21Z"/>
    <path class="cls-2" d="m499.42,714.19c.09-.25.1-.48.21-.54,1.9-1.06,3.81-3.32,5.94-2.22,1.88.98.87,3.66.93,5.59.1,3.57.08,7.14.02,10.71-.04,1.98.12,3.82,1.82,5.16.32.25.69.59.51,1.04-.22.56-.69.53-1.24.44-1.86-.33-3.72.67-5.63-.1-.99-.4-1.61-.5-.61-1.56.64-.67.99-1.57,1-2.49.04-4.57,0-9.13.03-13.7.01-2.06-2.09-1.47-2.97-2.34Z"/>
    <path class="cls-2" d="m488.14,772.01c-.48-2.64,1.4-5.19,3.83-5.75,3.28-.75,5.93-.05,7.21,1.9,1.71,2.6,1.44,6.15-.65,9.11-1.55,2.19-3.58,3.92-5.4,5.86-.44.47-1.11.88-.73,1.68.32.67,1.02.49,1.56.47,2.05-.11,4.18.48,6.12-.64.49-.28.97-.26,1.32.23.26.36.33.79.09,1.17-.87,1.39-1.51,2.92-3.69,2.77-2.57-.18-5.16-.03-7.74-.04-.82,0-1.74.15-2.19-.79-.46-.97,0-1.87.6-2.53,1.35-1.46,2.78-2.86,4.29-4.15,2.09-1.78,3.33-4.14,4.24-6.59.9-2.46-.45-4.82-2.86-5.88-2.47-1.09-3.87.42-5.21,2.1-.2.25-.38.51-.81,1.1Z"/>
    <path class="cls-2" d="m669.26,896.85c-1.33,0-2.67.05-3.99-.02-.86-.04-2.08.44-2.47-.61-.41-1.12.64-2.29,1.3-2.71,1.95-1.25,3.11-3.19,4.67-4.75,1.91-1.92,2.71-4.47,2.97-7.19.19-1.94-.74-3.35-2.34-4-1.54-.63-3.22-.52-4.66.74-.53.46-.85,1.98-1.78,1.13-.93-.85.46-1.5.84-2.24,2.26-4.33,8.73-4.07,10.98.27,1.07,2.06.45,5.94-1.13,7.91-1.84,2.31-3.56,4.73-5.75,6.74-.3.28-.71.56-.58,1.02.17.61.76.6,1.24.55,2.27-.23,4.65.67,6.8-.75.61-.41,1.13-.18,1.25.6.19,1.28-1.53,3.28-2.87,3.31-1.5.03-3,0-4.49,0Z"/>
    <path class="cls-2" d="m75.74,740.26c.19-3.98,3.07-5.89,7.2-4.77,4.62,1.26,5.71,3.6,4.63,8.29-.82,3.58-3.67,5.32-5.84,7.69-.84.92-1.71,1.72-2.01,3.17,2.48.06,4.92.31,7.36-.14.57-.1,1.17-.49,1.53.19.34.63.19,1.32-.31,1.85-.71.75-1.61,1.2-2.65,1.22-2.66.04-5.32.02-7.98.02-.77,0-1.53-.08-1.81-.98-.28-.88.3-1.22.9-1.77,3.17-2.9,5.74-6.26,7.46-10.25.76-1.76.43-4.91-.73-5.86-1.97-1.61-3.83-1.44-6.19.61-.45.39-.9.73-1.52.78l-.05-.05Z"/>
    <path class="cls-2" d="m83.17,866.22c-.5,0-1.01.06-1.49-.01-1.03-.14-2.51.49-2.96-.66-.52-1.31,1.15-1.28,1.85-1.82.79-.62.73-1.43.73-2.26.01-4.07,0-8.15.02-12.22,0-1.03.08-2.05-1.4-2.12-.53-.03-1.02-.45-.95-.98.29-2.36,2.72-1.73,4.03-2.69.84-.61,1.74.06,1.89,1.22.11.82.25,1.64.26,2.46.03,4.74.06,9.48.03,14.21,0,1.32-.02,2.49,1.64,2.83.53.11,1.22.4,1.14,1.12-.09.88-.88.87-1.54.89-1.08.03-2.16,0-3.24,0,0,.01,0,.02,0,.04Z"/>
    <path class="cls-2" d="m591.97,733.82c-1.5,0-3-.03-4.49,0-1.99.04-2.05-.94-1.31-2.38.51-.99,1.28-1.79,2.18-2.36,3.38-2.15,5.31-5.35,6.59-8.98.78-2.2.09-4.11-1.92-5.39-2.09-1.33-3.9-1-5.73.99-.37.4-.54,1.22-1.28.77-.45-.28-.33-.88-.11-1.37,1.26-2.74,4.53-4.39,7.48-3.69,1.92.46,3.89,1.27,4.22,3.38.44,2.74.83,5.63-1.4,8.01-1.8,1.92-3.52,3.92-5.26,5.89-1.14,1.29-.58,2.07.89,2.03,2.11-.06,4.32.65,6.33-.61.56-.35,1.16-.08.98.5-.43,1.41-.37,3.32-2.7,3.21-1.49-.07-2.99-.01-4.49-.01h0Z"/>
    <path class="cls-2" d="m474.39,895.8c-2.33,1.47-4.34,1.05-6.3.93-.87-.05-1.2-.91-.72-1.45,1.28-1.47.76-3.17.79-4.77.08-3.33.04-6.66.02-9.98,0-.74-.05-1.51-.26-2.21-.7-2.28.07-3.64,2.42-3.99,1.7-.25,1.88.88,1.88,2.18,0,5.07,0,10.15.02,15.22,0,1.62-.49,3.46,2.14,4.06Z"/>
    <path class="cls-2" d="m284.53,732.43c-2.36.27-4.4.47-6.76.06,1.7-2.11,1.56-4.41,1.53-6.71-.04-3.32,0-6.65,0-9.97,0-.66.18-1.61-.18-1.93-1.67-1.5-.11-2.09.67-2.91.71-.74,1.62-.87,2.53-.54,1,.36.88,1.29.88,2.11,0,5.07,0,10.14,0,15.21,0,1.63-.26,3.34,1.32,4.68Z"/>
    <path class="cls-2" d="m119.76,745.7c-3.99,0-7.98.04-11.97-.03-.84-.02-2.3.66-2.37-.93-.07-1.63,1.23-1.93,2.6-1.93,3.82.01,7.65,0,11.47,0,4.32,0,8.64.01,12.96,0,1.13,0,2.32,0,2.25,1.58-.06,1.45-1.25,1.31-2.24,1.31-4.24.01-8.48,0-12.72,0Z"/>
    <path class="cls-2" d="m240.18,839.87c-1.07.86-1.89.92-2.73.96-3.44.18-3.12.21-2.9-3.21.31-4.8.11-9.64.1-14.47,0-.39-.12-.91-.38-1.16-1.66-1.64,0-2.37.89-3.25.66-.64,1.58-.51,2.38-.31,1.01.26.71,1.21.71,1.89.04,5.16.05,10.32.02,15.47-.01,1.63,0,3.19,1.9,4.07Z"/>
    <path class="cls-2" d="m420.74,828.97c0,2.49,0,4.99,0,7.48,0,.75-.1,1.58.44,2.15,2.29,2.42.13,2.13-1.34,2.22-.74.05-1.51.08-2.24-.04-1.17-.18-2.83-.26-.83-1.9.58-.47.52-1.21.49-1.86-.3-5.37.58-10.76-.47-16.13-.34-1.72,1.54-1.76,2.55-2.1,1.33-.45,1.37.77,1.38,1.7.01,2.83,0,5.65,0,8.48h.02Z"/>
    <path class="cls-2" d="m164.83,741.25c-3.73,0-7.47,0-11.2,0-.96,0-1.88.02-1.84-1.36.04-1.21.76-1.53,1.81-1.53,7.63,0,15.27-.02,22.9,0,1.11,0,2.08.47,2.08,1.67,0,1.28-1.14,1.22-2.05,1.22-3.9.02-7.8,0-11.7.01Z"/>
    <path class="cls-2" d="m455.27,777.39c0,2.91-.04,5.81.02,8.71.02,1.09-.19,1.99-1.21,2.5-.88.43-1.63-.04-2.3-.53-.92-.67-.44-1.55-.37-2.47.41-5.28.5-10.58-.07-15.86-.11-1.03-.48-2.01.47-2.71.78-.57,1.79-.49,2.64-.22,1.21.38.75,1.52.76,2.36.05,2.74.02,5.48.02,8.22h.03Z"/>
    <path class="cls-2" d="m120.08,736.8c-3.98,0-7.97,0-11.95,0-.98,0-2.26.14-2.27-1.26,0-1.44,1.31-1.23,2.27-1.24,8.13-.02,16.27-.02,24.4,0,.89,0,2.05-.18,2.12,1.11.09,1.46-1.12,1.39-2.12,1.39-4.15,0-8.3,0-12.45,0Z"/>
    <path class="cls-2" d="m120.61,853.31c-3.9,0-7.81.02-11.71-.01-1.01,0-2.52.34-2.53-1.21-.01-1.72,1.58-1.35,2.67-1.36,7.81-.02,15.62-.02,23.43,0,1,0,2.38-.37,2.34,1.37-.03,1.6-1.32,1.19-2.23,1.2-3.99.04-7.98.02-11.96.01Z"/>
    <path class="cls-2" d="m120.69,844.79c-3.82,0-7.64,0-11.46,0-.75,0-1.5.05-2.18-.35-.37-.22-.7-.47-.71-.93-.01-.55.28-1.01.79-1.13.63-.15,1.31-.19,1.96-.19,7.64-.01,15.28,0,22.92,0,.17,0,.33,0,.5,0,1.07.02,2.52-.04,2.47,1.31-.04,1.29-1.47,1.3-2.58,1.3-3.9-.01-7.81,0-11.71,0Z"/>
    <path class="cls-2" d="m538.8,707.8c3.58,0,7.16-.02,10.74.01.92,0,2.18-.34,2.16,1.28-.02,1.43-1.14,1.19-2,1.19-7.41.02-14.82.02-22.22.01-.91,0-2.06.09-2.1-1.18-.04-1.48,1.22-1.31,2.2-1.32,3.75-.02,7.49,0,11.24,0Z"/>
    <path class="cls-2" d="m449.94,710.29c-3.65,0-7.31,0-10.96,0-.91,0-2.06.1-2.13-1.14-.09-1.48,1.17-1.35,2.15-1.35,7.14-.01,14.28,0,21.42,0,.25,0,.5,0,.75,0,.92.05,1.77.45,1.82,1.36.06,1.16-1.01,1.12-1.83,1.12-3.74.02-7.47,0-11.21,0Z"/>
    <path class="cls-2" d="m267.47,848.86c-2.5,0-4.99,0-7.49,0-.92,0-2.06.07-2.13-1.16-.08-1.41,1.2-1.42,2.16-1.43,5.16-.04,10.32-.03,15.48-.02.89,0,1.77.19,1.75,1.3-.02,1.08-.88,1.3-1.78,1.3-2.66,0-5.33,0-7.99,0h0Z"/>
    <path class="cls-2" d="m397.69,831.26c2.49,0,4.98,0,7.47,0,1.07,0,2.23.23,2.26,1.4.02.97-1.27,1.02-1.99,1.01-5.22-.06-10.45.5-15.65-.33-.61-.1-1.5.12-1.45-.89.05-.95.83-1.14,1.63-1.15,2.57,0,5.15,0,7.72,0v-.03Z"/>
    <path class="cls-2" d="m215.43,833.32c-2.58,0-5.16,0-7.74,0-.47,0-1.11.07-1.2-.58-.08-.57.43-.88.9-1.03.62-.2,1.28-.41,1.92-.41,4.41-.04,8.82-.03,13.23-.01.9,0,2.08-.1,2.07,1.18,0,1.27-1.21.86-1.95.87-2.41.05-4.83.02-7.24.02,0,0,0-.01,0-.02Z"/>
    <path class="cls-2" d="m260.71,724.73c-2.33,0-4.66.01-6.99,0-.72,0-1.71.1-1.77-.88-.05-.82.95-.92,1.51-.93,4.91-.07,9.82-.06,14.73-.05.6,0,1.24.16,1.25.92,0,.75-.64.92-1.24.93-2.5.02-4.99,0-7.49,0h0Z"/>
    <path class="cls-2" d="m504.07,704.33c-1.49,0-2.99,0-4.48,0-.78,0-1.53-.11-1.81-.99-.29-.88.47-1.2,1.01-1.48,1.07-.57,1.65-1.91,3.56-.47,1.39,1.05,4.16.22,6.31.33.67.04,1.92-.52,1.84.88-.06,1.05-.63,1.82-1.95,1.75-1.49-.09-2.99-.02-4.48-.02Z"/>
    <path class="cls-2" d="m556.86,803.16c-2.34.38-2.53-1.01-2.58-2.83-.06-1.9,1.13-2.73,2.51-3.18,1.14-.37,3.98,2.38,3.64,3.47-.51,1.65-1.47,3.02-3.57,2.55Z"/>
    <path class="cls-2" d="m502.57,698.75c-.1.11-.19.29-.3.3-.3.03-.43-.18-.34-.44.03-.1.26-.2.39-.18.09.01.17.2.25.32Z"/>
    <path class="cls-2" d="m483.69,778.75c.05-.32.05-.68.47-.73.09-.01.29.18.29.27-.03.42-.39.45-.71.5,0,0-.04-.04-.04-.04Z"/>
    <path class="cls-2" d="m75.79,740.31c-.09.07-.17.14-.26.2.07-.09.14-.17.21-.26,0,0,.05.05.05.05Z"/>
  </g>
  <g>
    <circle class="cls-2" cx="106.44" cy="570.31" r="12.5"/>
    <g>
      <polyline class="cls-3" points="106.44 388.05 106.44 570.31 297.7 570.31"/>
      <polygon class="cls-1" points="106.44 359.81 90.18 399.61 106.44 390.16 122.7 399.61 106.44 359.81"/>
      <polygon class="cls-1" points="325.94 570.31 286.15 586.57 295.59 570.31 286.15 554.05 325.94 570.31"/>
    </g>
    <g>
      <line class="cls-3" x1="106.44" y1="570.31" x2="109.61" y2="565.22"/>
      <polyline class="cls-4" points="115.93 555.06 330.44 210.31 618.17 106.38"/>
      <line class="cls-3" x1="623.8" y1="104.35" x2="629.44" y2="102.31"/>
    </g>
    <g>
      <line class="cls-3" x1="330.44" y1="210.31" x2="333.62" y2="205.22"/>
      <line class="cls-5" x1="339.6" y1="195.64" x2="432.28" y2="47.19"/>
      <line class="cls-3" x1="435.27" y1="42.4" x2="438.44" y2="37.31"/>
    </g>
    <circle class="cls-2" cx="330.44" cy="210.31" r="12.5"/>
    <rect class="cls-3" x="189.51" y="159.62" width="54.95" height="470.97" rx="23.99" ry="23.99" transform="translate(248.14 -54.58) rotate(32.74)"/>
    <rect class="cls-3" x="458.4" y="-23.95" width="49.42" height="363.99" rx="23.99" ry="23.99" transform="translate(471.06 -350.12) rotate(70.53)"/>
    <g>
      <path class="cls-3" d="m265.71,570.31s23.76-72.79-53.93-110.79"/>
      <polygon class="cls-1" points="185.44 449.31 228.43 449.04 213.61 460.62 216.32 479.22 185.44 449.31"/>
    </g>
    <g>
      <path class="cls-3" d="m424.21,109.07c17.58,5.66,38.4,18.77,46.37,48.97"/>
      <polygon class="cls-1" points="396.28 104.85 432.75 127.61 426.2 109.99 438.26 95.56 396.28 104.85"/>
    </g>
    <path class="cls-2" d="m360.87,580.72h-5.08l-3.16-5.52-2.96-5.28h-.24l-3.04,5.28-3.28,5.52h-4.76l8.56-14.32-8.04-13.6h5.08l2.84,5,2.88,5.16h.2l2.88-5.16,2.96-5h4.76l-8.08,13.6,8.48,14.32Z"/>
    <g>
      <path class="cls-2" d="m272.31,490.74h-.24c-.61,1.25-1.43,2.23-2.44,2.94-1.01.71-2.28,1.06-3.8,1.06-2.43,0-4.36-.91-5.8-2.72-1.44-1.81-2.16-4.51-2.16-8.08s.72-6.27,2.16-8.08c1.44-1.81,3.37-2.72,5.8-2.72,1.52,0,2.79.35,3.8,1.06,1.01.71,1.83,1.69,2.44,2.94h.24v-3.52h4.36v28.64h-4.36v-11.52Zm-4.68.44c.64,0,1.24-.08,1.8-.24.56-.16,1.05-.4,1.48-.72.43-.32.77-.71,1.02-1.18.25-.47.38-1.02.38-1.66v-6.88c0-.64-.13-1.19-.38-1.66-.25-.47-.59-.86-1.02-1.18-.43-.32-.92-.56-1.48-.72-.56-.16-1.16-.24-1.8-.24-1.65,0-2.93.51-3.82,1.52-.89,1.01-1.34,2.36-1.34,4.04v3.36c0,1.68.45,3.03,1.34,4.04.89,1.01,2.17,1.52,3.82,1.52Z"/>
      <path class="cls-2" d="m283.35,494.26v-3.68h7.84v-20.96h-.32l-6.48,6.92-2.76-2.48,7.12-7.72h6.92v24.24h6.76v3.68h-19.08Z"/>
    </g>
    <path class="cls-2" d="m105.87,307.62h4.4l-10,24.64c-.53,1.33-1.23,2.33-2.1,3-.87.67-2.11,1-3.74,1h-3.48v-3.56h4.88l1.88-4.72-8.32-20.36h4.56l3.28,8.64,2.56,7.08h.24l2.56-7.08,3.28-8.64Z"/>
    <g>
      <path class="cls-2" d="m172.51,358.26c-1.25,0-2.19-.32-2.82-.96-.63-.64-1.01-1.48-1.14-2.52h-.2c-.4,1.25-1.13,2.23-2.18,2.92-1.05.69-2.39,1.04-4.02,1.04-2.11,0-3.79-.55-5.04-1.66-1.25-1.11-1.88-2.63-1.88-4.58s.74-3.53,2.22-4.58c1.48-1.05,3.75-1.58,6.82-1.58h3.96v-1.6c0-2.8-1.48-4.2-4.44-4.2-1.33,0-2.41.26-3.24.78-.83.52-1.52,1.21-2.08,2.06l-2.6-2.12c.59-1.12,1.57-2.09,2.96-2.9,1.39-.81,3.17-1.22,5.36-1.22,2.61,0,4.67.63,6.16,1.88,1.49,1.25,2.24,3.07,2.24,5.44v10.36h2.6v3.44h-2.68Zm-9.12-2.72c1.41,0,2.57-.32,3.48-.95.91-.64,1.36-1.46,1.36-2.46v-2.98h-3.88c-3.15,0-4.72.94-4.72,2.82v.79c0,.93.33,1.62,1,2.09s1.59.7,2.76.7Z"/>
      <path class="cls-2" d="m180.35,358.26v-3.68h7.84v-20.96h-.32l-6.48,6.92-2.76-2.48,7.12-7.72h6.92v24.24h6.76v3.68h-19.08Z"/>
    </g>
    <g>
      <path class="cls-2" d="m467.31,103.74h-.24c-.61,1.25-1.43,2.23-2.44,2.94-1.01.71-2.28,1.06-3.8,1.06-2.43,0-4.36-.91-5.8-2.72-1.44-1.81-2.16-4.51-2.16-8.08s.72-6.27,2.16-8.08c1.44-1.81,3.37-2.72,5.8-2.72,1.52,0,2.79.35,3.8,1.06,1.01.71,1.83,1.69,2.44,2.94h.24v-3.52h4.36v28.64h-4.36v-11.52Zm-4.68.44c.64,0,1.24-.08,1.8-.24.56-.16,1.05-.4,1.48-.72.43-.32.77-.71,1.02-1.18.25-.47.38-1.02.38-1.66v-6.88c0-.64-.13-1.19-.38-1.66-.25-.47-.59-.86-1.02-1.18-.43-.32-.92-.56-1.48-.72-.56-.16-1.16-.24-1.8-.24-1.65,0-2.93.51-3.82,1.52-.89,1.01-1.34,2.36-1.34,4.04v3.36c0,1.68.45,3.03,1.34,4.04.89,1.01,2.17,1.52,3.82,1.52Z"/>
      <path class="cls-2" d="m496.63,107.26h-19.28v-4.28l9.12-7.96c1.44-1.28,2.55-2.49,3.34-3.64.79-1.15,1.18-2.36,1.18-3.64v-.44c0-1.47-.4-2.59-1.2-3.38-.8-.79-1.96-1.18-3.48-1.18s-2.74.41-3.58,1.24c-.84.83-1.45,1.88-1.82,3.16l-3.92-1.48c.27-.88.65-1.73,1.16-2.54.51-.81,1.15-1.54,1.94-2.18s1.72-1.15,2.8-1.52c1.08-.37,2.33-.56,3.74-.56s2.73.21,3.86.62c1.13.41,2.09.98,2.86,1.7.77.72,1.36,1.58,1.76,2.58.4,1,.6,2.1.6,3.3,0,1.12-.17,2.15-.5,3.1-.33.95-.8,1.85-1.4,2.72-.6.87-1.31,1.7-2.14,2.5-.83.8-1.73,1.6-2.72,2.4l-6.76,5.68h14.44v3.8Z"/>
    </g>
  </g>
</svg>