<?xml version="1.0" encoding="UTF-8"?>
<svg id="Lines" xmlns="http://www.w3.org/2000/svg" viewBox="0 0 513 281">
  <defs>
    <style>
      .cls-1 {
        fill: #f8ad3b;
      }

      .cls-2 {
        fill: #fff;
      }

      .cls-3 {
        fill: red;
      }

      .cls-4 {
        fill: none;
        stroke: red;
        stroke-miterlimit: 10;
      }
    </style>
  </defs>
  <g>
    <g>
      <circle class="cls-3" cx="32.96" cy="187.01" r="5.73"/>
      <circle class="cls-3" cx="52.84" cy="157.32" r="5.73"/>
      <circle class="cls-3" cx="27.41" cy="115.07" r="5.73"/>
      <circle class="cls-3" cx="50.25" cy="77.32" r="5.73"/>
      <circle class="cls-3" cx="63.17" cy="39.42" r="5.73"/>
      <polyline class="cls-4" points="63.17 39.42 50.25 77.32 27.69 114.73 52.84 157.32 32.96 187.01"/>
    </g>
    <g>
      <circle class="cls-3" cx="125.54" cy="19.38" r="5.44"/>
      <circle class="cls-3" cx="136.41" cy="111.38" r="5.44"/>
      <circle class="cls-3" cx="114.67" cy="144.84" r="5.44"/>
      <circle class="cls-3" cx="125.54" cy="219.27" r="5.44"/>
      <polyline class="cls-4" points="125.54 219.27 114.67 144.84 136.41 111.38 125.54 19.38"/>
    </g>
    <path class="cls-2" d="m118.23,203.73c.11-.46.21-.91.34-1.36.04-.14.14-.27.24-.37,2.1-2.11,2.42-4.54,1.49-7.31-.48-1.43-.65-2.95-1-4.57-3.94,1.75-7.76,3.45-11.64,5.18-.49-1.07-.6-1.85.37-2.69,3.01-2.59,5.92-5.3,8.93-7.9.79-.69,1.08-1.32.88-2.38-.27-1.41-.35-2.87-.42-4.31-.03-.61.13-1.26.33-1.85.6-1.71,2.02-1.98,3.07-.51.61.85,1.02,1.89,1.33,2.9.33,1.06.49,2.18.61,3.28.09.8.45,1.23,1.18,1.54,3.69,1.58,7.34,3.25,11.05,4.78,1.17.48,1.62,1.15,1.43,2.55-4.16-.42-8.34-.85-12.67-1.28.15,1.4.41,2.67.39,3.95-.05,3.23,1.08,5.71,4.04,7.24.46.24.72.86,1.07,1.31-.09.12-.18.23-.27.35-1.52-.37-3.05-.74-4.4-1.06-.39.59-.71,1.05-1.02,1.52-.41-.33-.83-.65-1.36-1.07-1.13.71-2.38,1.48-3.63,2.26-.12-.06-.25-.11-.37-.17Z"/>
    <path class="cls-2" d="m29.18,104.12c.3-.22.59-.44.89-.64.09-.06.22-.09.33-.1,2.32-.2,3.74-1.5,4.58-3.63.43-1.09,1.1-2.1,1.71-3.24-3.24-.94-6.38-1.84-9.58-2.77.25-.88.57-1.41,1.58-1.42,3.11-.03,6.22-.19,9.32-.23.82-.01,1.31-.25,1.73-.98.55-.98,1.23-1.9,1.92-2.79.29-.38.71-.69,1.13-.94,1.22-.72,2.21-.17,2.1,1.24-.07.82-.34,1.65-.67,2.41-.34.8-.81,1.55-1.29,2.27-.35.53-.35.96-.07,1.52,1.41,2.8,2.75,5.64,4.2,8.42.46.88.39,1.5-.43,2.24-2.28-2.35-4.57-4.71-6.94-7.15-.62.91-1.1,1.81-1.75,2.56-1.66,1.91-2.23,3.96-1.23,6.37.15.37,0,.88-.02,1.32-.11.02-.23.05-.34.07-.73-.99-1.45-1.98-2.1-2.85-.53.15-.95.27-1.37.4-.08-.4-.17-.81-.27-1.33-1.03-.15-2.17-.31-3.31-.48-.05-.1-.09-.19-.14-.29Z"/>
    <g>
      <path class="cls-2" d="m36.36,236.61v4.31c0,.29,0,.55.03.78.02.23.07.43.15.6.08.16.2.29.36.38s.38.13.66.13.5-.04.66-.13.28-.21.36-.38c.08-.16.13-.36.15-.6.02-.23.03-.5.03-.78v-4.31h1.12v4.1c0,.5-.03.94-.09,1.32-.06.38-.17.69-.34.94-.17.25-.4.44-.71.57-.3.13-.7.19-1.19.19s-.88-.06-1.19-.19c-.3-.13-.54-.32-.71-.57-.17-.25-.28-.57-.34-.94-.06-.38-.09-.82-.09-1.32v-4.1h1.12Z"/>
      <path class="cls-2" d="m43.58,243.74c-.56,0-1.05-.09-1.45-.27-.4-.18-.73-.42-.98-.72l.67-.6c.23.25.48.44.77.57.28.13.62.2,1.01.2.35,0,.64-.06.86-.18.22-.12.33-.31.33-.56,0-.11-.02-.2-.06-.27-.04-.07-.1-.13-.17-.18-.07-.05-.16-.08-.26-.11-.1-.03-.2-.05-.31-.06l-.82-.13c-.2-.03-.4-.07-.61-.13-.21-.06-.39-.15-.56-.26-.16-.11-.3-.25-.4-.43s-.16-.39-.16-.66c0-.53.2-.93.61-1.2.4-.27.94-.41,1.6-.41.48,0,.9.07,1.25.22.35.14.64.34.88.6l-.61.64c-.13-.15-.32-.3-.57-.43-.25-.13-.58-.2-.98-.2-.73,0-1.09.23-1.09.69,0,.22.08.37.24.46.16.08.34.14.56.17l.82.13c.21.03.41.08.62.13.2.05.39.14.55.25.16.11.3.25.4.43.1.17.16.4.16.66,0,.52-.2.93-.61,1.23-.4.3-.96.45-1.67.45Z"/>
      <path class="cls-2" d="m49.71,243.74c-.39,0-.75-.06-1.06-.19-.31-.13-.58-.31-.79-.54-.21-.23-.38-.52-.49-.85-.11-.33-.17-.7-.17-1.12s.06-.79.18-1.12c.12-.33.28-.62.49-.86.21-.24.47-.42.77-.55.3-.13.64-.19,1-.19s.69.06.98.19c.29.12.55.3.75.53.21.23.37.5.48.81s.17.66.17,1.04v.41h-3.71v.17c0,.41.13.74.38.99.25.26.61.38,1.05.38.33,0,.62-.07.86-.21.24-.14.43-.33.58-.57l.68.6c-.17.3-.44.56-.8.76-.36.21-.8.31-1.34.31Zm-.08-4.59c-.19,0-.37.03-.54.1-.16.07-.3.16-.42.29-.12.12-.21.27-.28.44-.07.17-.1.35-.1.55v.07h2.6v-.1c0-.41-.12-.73-.35-.98s-.54-.37-.92-.37Z"/>
      <path class="cls-2" d="m53.37,242.72h1.37v-3.39h-1.37v-.89h2.47v1.38h.06c.05-.18.11-.35.2-.52.09-.17.2-.31.33-.44.13-.12.3-.22.49-.3.19-.08.42-.12.68-.12h.62v1.04h-1.02c-.4,0-.73.12-.98.36-.25.24-.38.56-.38.96v1.93h1.88v.89h-4.35v-.89Z"/>
      <path class="cls-2" d="m65.4,242.72h1.72v-5.64h-1.72v-.89h2.81v6.53h1.72v.89h-4.53v-.89Z"/>
      <path class="cls-2" d="m75.61,243.62c-.31,0-.55-.08-.71-.24-.16-.16-.25-.37-.29-.63h-.05c-.1.31-.28.56-.55.73s-.6.26-1.01.26c-.53,0-.95-.14-1.26-.42-.31-.28-.47-.66-.47-1.15s.19-.89.56-1.15c.37-.26.94-.4,1.71-.4h.99v-.4c0-.7-.37-1.05-1.11-1.05-.33,0-.61.07-.81.2-.21.13-.38.3-.52.52l-.65-.53c.15-.28.39-.52.74-.73.35-.2.8-.31,1.34-.31.66,0,1.17.16,1.55.47.37.32.56.77.56,1.37v2.6h.65v.86h-.67Zm-2.29-.68c.35,0,.65-.08.87-.24.23-.16.34-.37.34-.62v-.75h-.97c-.79,0-1.18.24-1.18.71v.2c0,.23.08.41.25.52.17.12.4.17.69.17Z"/>
      <path class="cls-2" d="m81.22,238.44h1.1l-2.51,6.18c-.13.33-.31.59-.53.75-.22.17-.53.25-.94.25h-.87v-.89h1.22l.47-1.18-2.09-5.11h1.14l.82,2.17.64,1.78h.06l.64-1.78.82-2.17Z"/>
      <path class="cls-2" d="m85.74,243.74c-.56,0-1.05-.09-1.45-.27-.4-.18-.73-.42-.98-.72l.67-.6c.23.25.48.44.77.57.28.13.62.2,1.01.2.35,0,.64-.06.86-.18.22-.12.33-.31.33-.56,0-.11-.02-.2-.06-.27-.04-.07-.1-.13-.17-.18-.07-.05-.16-.08-.26-.11-.1-.03-.2-.05-.31-.06l-.82-.13c-.2-.03-.4-.07-.61-.13-.21-.06-.39-.15-.56-.26-.16-.11-.3-.25-.4-.43s-.16-.39-.16-.66c0-.53.2-.93.61-1.2.4-.27.94-.41,1.6-.41.48,0,.9.07,1.25.22.35.14.64.34.88.6l-.61.64c-.13-.15-.32-.3-.57-.43-.25-.13-.58-.2-.98-.2-.73,0-1.09.23-1.09.69,0,.22.08.37.24.46.16.08.34.14.56.17l.82.13c.21.03.41.08.62.13.2.05.39.14.55.25.16.11.3.25.4.43.1.17.16.4.16.66,0,.52-.2.93-.61,1.23-.4.3-.96.45-1.67.45Z"/>
      <path class="cls-2" d="m98.89,242.73h-.06c-.15.31-.36.56-.61.74-.25.18-.57.27-.95.27-.61,0-1.09-.23-1.46-.68s-.54-1.13-.54-2.03.18-1.57.54-2.03.85-.68,1.46-.68c.38,0,.7.09.95.27.25.18.46.42.61.74h.06v-3.13h1.09v7.43h-1.09v-.88Zm-1.17.11c.16,0,.31-.02.45-.06.14-.04.26-.1.37-.18.11-.08.19-.18.26-.3.06-.12.1-.26.1-.42v-1.73c0-.16-.03-.3-.1-.42-.06-.12-.15-.22-.26-.3-.11-.08-.23-.14-.37-.18-.14-.04-.29-.06-.45-.06-.42,0-.73.13-.96.38-.22.25-.34.59-.34,1.01v.84c0,.42.11.76.34,1.01.22.25.54.38.96.38Z"/>
      <path class="cls-2" d="m103.79,243.74c-.38,0-.72-.06-1.03-.19-.3-.13-.56-.31-.77-.54-.21-.23-.37-.52-.49-.85-.11-.33-.17-.71-.17-1.12s.06-.79.17-1.12c.11-.33.28-.62.49-.85.21-.23.47-.41.77-.54.3-.13.65-.19,1.03-.19s.72.06,1.03.19c.3.13.56.31.77.54.21.23.37.52.49.85.11.33.17.71.17,1.12s-.06.79-.17,1.12c-.11.33-.28.62-.49.85-.21.23-.47.41-.77.54-.3.13-.65.19-1.03.19Zm0-.86c.4,0,.72-.12.96-.37.24-.24.36-.61.36-1.09v-.78c0-.48-.12-.84-.36-1.09-.24-.24-.56-.37-.96-.37s-.72.12-.96.37c-.24.24-.36.61-.36,1.09v.78c0,.48.12.84.36,1.09.24.24.56.37.96.37Z"/>
      <path class="cls-2" d="m107,238.44h.93l.5,4.36h.09l.77-4.36h1.06l.76,4.36h.09l.51-4.36h.89l-.72,5.18h-1.34l-.69-4.01h-.09l-.7,4.01h-1.34l-.72-5.18Z"/>
      <path class="cls-2" d="m113.67,243.62v-5.18h1.09v.88h.05c.05-.13.12-.26.21-.39.08-.12.19-.23.31-.32.12-.09.26-.16.42-.22.16-.05.35-.08.56-.08.52,0,.94.17,1.26.51.32.34.48.83.48,1.45v3.33h-1.09v-3.17c0-.82-.36-1.23-1.07-1.23-.14,0-.28.02-.41.05-.13.04-.25.09-.36.17-.11.07-.19.17-.26.28-.06.11-.1.24-.1.39v3.51h-1.09Z"/>
      <path class="cls-2" d="m49.8,250.48h.93l.5,4.36h.09l.77-4.36h1.06l.76,4.36h.09l.51-4.36h.89l-.72,5.18h-1.34l-.69-4.01h-.09l-.7,4.01h-1.34l-.72-5.18Z"/>
      <path class="cls-2" d="m60.55,255.66c-.31,0-.55-.08-.71-.24-.16-.16-.25-.37-.29-.63h-.05c-.1.31-.28.56-.55.73s-.6.26-1.01.26c-.53,0-.95-.14-1.26-.42-.31-.28-.47-.66-.47-1.15s.19-.89.56-1.15c.37-.26.94-.4,1.71-.4h.99v-.4c0-.7-.37-1.05-1.11-1.05-.33,0-.61.07-.81.2-.21.13-.38.3-.52.52l-.65-.53c.15-.28.39-.52.74-.73.35-.2.8-.31,1.34-.31.66,0,1.17.16,1.55.47.37.32.56.77.56,1.37v2.6h.65v.86h-.67Zm-2.29-.68c.35,0,.65-.08.87-.24.23-.16.34-.37.34-.62v-.75h-.97c-.79,0-1.18.24-1.18.71v.2c0,.23.08.41.25.52.17.12.4.17.69.17Z"/>
      <path class="cls-2" d="m66.17,250.48h1.1l-2.51,6.18c-.13.33-.31.59-.53.75-.22.17-.53.25-.94.25h-.87v-.89h1.22l.47-1.18-2.09-5.11h1.14l.82,2.17.64,1.78h.06l.64-1.78.82-2.17Z"/>
      <path class="cls-2" d="m68.45,250.48h1.09v.88h.06c.15-.31.36-.56.61-.74.25-.18.57-.27.95-.27.61,0,1.09.23,1.46.68.36.45.54,1.13.54,2.03s-.18,1.57-.54,2.03c-.36.45-.85.68-1.46.68-.38,0-.7-.09-.95-.27-.25-.18-.46-.42-.61-.74h-.06v2.89h-1.09v-7.19Zm2.27,4.41c.41,0,.73-.13.96-.38.22-.25.34-.59.34-1.01v-.84c0-.42-.11-.76-.34-1.01-.22-.25-.54-.38-.96-.38-.16,0-.31.02-.45.06s-.26.1-.37.18c-.11.08-.19.18-.26.3-.06.12-.1.26-.1.42v1.73c0,.16.03.3.1.42.06.12.15.22.26.3.11.08.23.14.37.18s.29.06.45.06Z"/>
      <path class="cls-2" d="m76.69,255.78c-.38,0-.72-.06-1.03-.19-.3-.13-.56-.31-.77-.54-.21-.23-.37-.52-.49-.85-.11-.33-.17-.71-.17-1.12s.06-.79.17-1.12c.11-.33.28-.62.49-.85.21-.23.47-.41.77-.54.3-.13.65-.19,1.03-.19s.72.06,1.03.19c.3.13.56.31.77.54.21.23.37.52.49.85.11.33.17.71.17,1.12s-.06.79-.17,1.12c-.11.33-.28.62-.49.85-.21.23-.47.41-.77.54-.3.13-.65.19-1.03.19Zm0-.86c.4,0,.72-.12.96-.37.24-.24.36-.61.36-1.09v-.78c0-.48-.12-.84-.36-1.09-.24-.24-.56-.37-.96-.37s-.72.12-.96.37c-.24.24-.36.61-.36,1.09v.78c0,.48.12.84.36,1.09.24.24.56.37.96.37Z"/>
      <path class="cls-2" d="m80.72,254.77h1.77v-3.39h-1.77v-.89h2.86v4.29h1.66v.89h-4.52v-.89Zm2.32-5.23c-.28,0-.48-.06-.59-.17-.11-.11-.17-.25-.17-.42v-.21c0-.17.06-.31.17-.42.11-.11.3-.17.58-.17s.48.06.59.17c.11.11.17.25.17.42v.21c0,.17-.06.31-.17.42-.11.11-.3.17-.58.17Z"/>
      <path class="cls-2" d="m86.57,255.66v-5.18h1.09v.88h.05c.05-.13.12-.26.21-.39.08-.12.19-.23.31-.32.12-.09.26-.16.42-.22.16-.05.35-.08.56-.08.52,0,.94.17,1.26.51.32.34.48.83.48,1.45v3.33h-1.09v-3.17c0-.82-.36-1.23-1.07-1.23-.14,0-.28.02-.41.05-.13.04-.25.09-.36.17-.11.07-.19.17-.26.28-.06.11-.1.24-.1.39v3.51h-1.09Z"/>
      <path class="cls-2" d="m95.07,255.66c-.46,0-.79-.12-1-.37-.21-.24-.32-.56-.32-.95v-2.97h-1.6v-.89h1.13c.19,0,.33-.04.41-.12s.12-.22.12-.42v-1.29h1.02v1.83h2.21v.89h-2.21v3.39h2.21v.89h-1.98Z"/>
      <path class="cls-2" d="m100.79,255.78c-.56,0-1.05-.09-1.45-.27-.4-.18-.73-.42-.98-.72l.67-.6c.23.25.48.44.77.57.28.13.62.2,1.01.2.35,0,.64-.06.86-.18.22-.12.33-.31.33-.56,0-.11-.02-.2-.06-.27-.04-.07-.1-.13-.17-.18-.07-.05-.16-.08-.26-.11-.1-.03-.2-.05-.31-.06l-.82-.13c-.2-.03-.4-.07-.61-.13-.21-.06-.39-.15-.56-.26-.16-.11-.3-.25-.4-.43s-.16-.39-.16-.66c0-.53.2-.93.61-1.2.4-.27.94-.41,1.6-.41.48,0,.9.07,1.25.22.35.14.64.34.88.6l-.61.64c-.13-.15-.32-.3-.57-.43-.25-.13-.58-.2-.98-.2-.73,0-1.09.23-1.09.69,0,.22.08.37.24.46.16.08.34.14.56.17l.82.13c.21.03.41.08.62.13.2.05.39.14.55.25.16.11.3.25.4.43.1.17.16.4.16.66,0,.52-.2.93-.61,1.23-.4.3-.96.45-1.67.45Z"/>
    </g>
  </g>
  <g>
    <g>
      <g>
        <g>
          <circle class="cls-3" cx="207.7" cy="184.27" r="5.73"/>
          <circle class="cls-3" cx="227.58" cy="154.57" r="5.73"/>
          <circle class="cls-3" cx="202.15" cy="112.32" r="5.73"/>
          <circle class="cls-3" cx="224.99" cy="74.57" r="5.73"/>
          <circle class="cls-3" cx="237.91" cy="36.67" r="5.73"/>
          <polyline class="cls-4" points="237.91 36.67 224.99 74.57 202.42 111.98 227.58 154.57 207.7 184.27"/>
        </g>
        <circle class="cls-1" cx="208.81" cy="123.9" r="2.93"/>
        <circle class="cls-1" cx="209.65" cy="100.47" r="2.93"/>
        <circle class="cls-1" cx="214.67" cy="92.11" r="2.93"/>
        <circle class="cls-1" cx="219.68" cy="82.91" r="2.93"/>
        <circle class="cls-1" cx="228.89" cy="61.98" r="2.93"/>
        <circle class="cls-1" cx="233.07" cy="50.28" r="2.93"/>
        <g>
          <g>
            <circle class="cls-3" cx="300.28" cy="16.64" r="5.44"/>
            <circle class="cls-3" cx="311.15" cy="108.63" r="5.44"/>
            <circle class="cls-3" cx="289.4" cy="142.09" r="5.44"/>
            <circle class="cls-3" cx="300.28" cy="216.52" r="5.44"/>
            <polyline class="cls-4" points="300.28 216.52 289.4 142.09 311.15 108.63 300.28 16.64"/>
          </g>
          <circle class="cls-1" cx="301.66" cy="28.53" r="2.93"/>
          <circle class="cls-1" cx="303.33" cy="40.24" r="2.93"/>
          <circle class="cls-1" cx="304.16" cy="51.95" r="2.93"/>
          <circle class="cls-1" cx="305.84" cy="63.66" r="2.93"/>
          <circle class="cls-1" cx="307.51" cy="76.2" r="2.93"/>
          <circle class="cls-1" cx="309.18" cy="90.42" r="2.93"/>
          <circle class="cls-1" cx="304.42" cy="120.24" r="2.93"/>
          <circle class="cls-1" cx="295.7" cy="131.59" r="2.93"/>
          <circle class="cls-1" cx="291.68" cy="157.28" r="2.93"/>
          <circle class="cls-1" cx="293.36" cy="169.83" r="2.93"/>
          <circle class="cls-1" cx="295.03" cy="183.21" r="2.93"/>
          <circle class="cls-1" cx="297.54" cy="199.1" r="2.93"/>
        </g>
      </g>
      <circle class="cls-1" cx="215" cy="173.27" r="2.93"/>
      <circle class="cls-1" cx="220.85" cy="164.91" r="2.93"/>
      <circle class="cls-1" cx="221.34" cy="143.67" r="2.93"/>
      <circle class="cls-1" cx="215.5" cy="133.93" r="2.93"/>
    </g>
    <g>
      <path class="cls-2" d="m219.34,243.71h-1.11v-7.01h2.62c.67,0,1.18.19,1.53.56.35.37.53.89.53,1.54,0,.53-.13.97-.39,1.32s-.64.56-1.12.64l1.62,2.94h-1.24l-1.49-2.84h-.93v2.84Zm1.34-3.73c.7,0,1.04-.32,1.04-.96v-.43c0-.64-.35-.96-1.04-.96h-1.34v2.35h1.34Z"/>
      <path class="cls-2" d="m224.27,243.71v-7.01h4.51v.94h-3.38v2.04h3.07v.94h-3.07v3.08h-1.12Z"/>
      <path class="cls-2" d="m238.2,240.49l-.84,1.05v2.17h-1.12v-7.01h1.12v3.35h.05l.85-1.16,1.72-2.19h1.29l-2.31,2.95,2.4,4.05h-1.28l-1.88-3.22Z"/>
      <path class="cls-2" d="m242.48,242.81h1.77v-3.39h-1.77v-.89h2.86v4.29h1.66v.89h-4.52v-.89Zm2.32-5.23c-.28,0-.48-.06-.59-.17-.11-.11-.17-.25-.17-.42v-.21c0-.17.06-.31.17-.42.11-.11.3-.17.58-.17s.48.06.59.17c.11.11.17.25.17.42v.21c0,.17-.06.31-.17.42-.11.11-.3.17-.58.17Z"/>
      <path class="cls-2" d="m248.34,243.71v-5.18h1.09v.88h.05c.05-.13.12-.26.21-.39.08-.12.19-.23.31-.32.12-.09.26-.16.42-.22.16-.05.35-.08.56-.08.52,0,.94.17,1.26.51.32.34.48.83.48,1.45v3.33h-1.09v-3.17c0-.82-.36-1.23-1.07-1.23-.14,0-.28.02-.41.05s-.25.09-.36.17c-.11.07-.19.17-.26.28-.06.11-.1.24-.1.39v3.51h-1.09Z"/>
      <path class="cls-2" d="m256.64,243.83c-.39,0-.75-.06-1.06-.19s-.58-.31-.79-.54c-.21-.23-.38-.52-.49-.85-.11-.33-.17-.7-.17-1.12s.06-.79.18-1.12c.12-.33.28-.62.49-.86s.47-.42.77-.55c.3-.13.64-.19,1-.19s.69.06.98.19c.29.12.55.3.75.53.21.23.37.5.48.81.11.31.17.66.17,1.04v.41h-3.71v.17c0,.41.13.74.38.99.25.26.61.38,1.05.38.33,0,.62-.07.86-.21s.43-.33.58-.57l.68.6c-.17.3-.44.56-.8.76-.36.21-.8.31-1.34.31Zm-.08-4.59c-.19,0-.37.03-.54.1-.16.07-.3.16-.42.29s-.21.27-.28.44c-.07.17-.1.35-.1.55v.07h2.6v-.1c0-.41-.12-.73-.35-.98-.23-.24-.54-.37-.92-.37Z"/>
      <path class="cls-2" d="m259.98,243.71v-5.18h.93v.67h.05c.08-.22.2-.41.35-.56.15-.15.37-.23.65-.23s.49.08.64.23c.15.15.25.36.29.62h.04c.09-.23.22-.43.39-.6s.41-.25.72-.25c.4,0,.68.14.84.42.16.28.24.69.24,1.23v3.64h-.93v-3.5c0-.36-.04-.61-.13-.75s-.23-.21-.42-.21c-.17,0-.32.06-.44.18-.12.12-.18.29-.18.53v3.75h-.93v-3.5c0-.36-.04-.61-.13-.75s-.22-.21-.42-.21c-.18,0-.33.06-.45.18-.12.12-.18.29-.18.53v3.75h-.93Z"/>
      <path class="cls-2" d="m270.5,243.71c-.31,0-.55-.08-.71-.24-.16-.16-.25-.37-.29-.63h-.05c-.1.31-.28.56-.55.73-.26.17-.6.26-1.01.26-.53,0-.95-.14-1.26-.42-.31-.28-.47-.66-.47-1.15s.19-.89.56-1.15c.37-.26.94-.4,1.71-.4h.99v-.4c0-.7-.37-1.05-1.11-1.05-.33,0-.61.07-.81.2-.21.13-.38.3-.52.52l-.65-.53c.15-.28.39-.52.74-.73.35-.2.8-.31,1.34-.31.66,0,1.17.16,1.55.47.37.32.56.77.56,1.37v2.6h.65v.86h-.67Zm-2.29-.68c.35,0,.65-.08.87-.24.23-.16.34-.37.34-.62v-.75h-.97c-.79,0-1.18.24-1.18.71v.2c0,.23.08.41.25.52.17.12.4.17.69.17Z"/>
      <path class="cls-2" d="m274.9,243.71c-.46,0-.79-.12-1-.37-.21-.24-.32-.56-.32-.95v-2.97h-1.6v-.89h1.13c.19,0,.33-.04.41-.12s.12-.22.12-.42v-1.29h1.02v1.83h2.21v.89h-2.21v3.39h2.21v.89h-1.98Z"/>
      <path class="cls-2" d="m278.61,242.81h1.77v-3.39h-1.77v-.89h2.86v4.29h1.66v.89h-4.52v-.89Zm2.32-5.23c-.28,0-.48-.06-.59-.17-.11-.11-.17-.25-.17-.42v-.21c0-.17.06-.31.17-.42.11-.11.3-.17.58-.17s.48.06.59.17c.11.11.17.25.17.42v.21c0,.17-.06.31-.17.42-.11.11-.3.17-.58.17Z"/>
      <path class="cls-2" d="m286.82,243.83c-.39,0-.73-.06-1.04-.19-.3-.13-.56-.31-.77-.54-.21-.23-.37-.52-.48-.85-.11-.33-.17-.71-.17-1.12s.06-.79.17-1.12c.11-.33.27-.62.48-.85s.47-.41.77-.54c.3-.13.65-.19,1.03-.19.54,0,.96.11,1.29.34.32.23.57.52.73.88l-.85.46c-.09-.24-.24-.43-.43-.57s-.44-.21-.74-.21c-.42,0-.74.13-.96.38s-.34.59-.34,1v.87c0,.41.11.74.34,1s.56.38.98.38c.32,0,.58-.07.79-.22.2-.15.37-.35.49-.6l.8.49c-.17.36-.42.65-.76.88-.34.23-.78.34-1.32.34Z"/>
      <path class="cls-2" d="m292.67,243.83c-.56,0-1.05-.09-1.45-.27-.4-.18-.73-.42-.98-.72l.67-.6c.23.25.48.44.77.57.28.13.62.2,1.01.2.35,0,.64-.06.86-.18.22-.12.33-.31.33-.56,0-.11-.02-.2-.06-.27-.04-.07-.1-.13-.17-.18-.07-.05-.16-.08-.26-.11s-.2-.05-.31-.06l-.82-.13c-.2-.03-.4-.07-.61-.13s-.39-.15-.56-.26c-.16-.11-.3-.25-.4-.43s-.16-.39-.16-.66c0-.53.2-.93.61-1.2s.94-.41,1.6-.41c.48,0,.9.07,1.25.22.35.14.64.34.88.6l-.61.64c-.13-.15-.32-.3-.57-.43-.25-.13-.58-.2-.98-.2-.73,0-1.09.23-1.09.69,0,.22.08.37.24.46.16.08.34.14.56.17l.82.13c.21.03.41.08.62.13.2.05.39.14.55.25.16.11.3.25.4.43.1.17.16.4.16.66,0,.52-.2.93-.61,1.23-.4.3-.96.45-1.67.45Z"/>
      <path class="cls-2" d="m205.53,255.87c-.39,0-.73-.06-1.04-.19-.3-.13-.56-.31-.77-.54-.21-.23-.37-.52-.48-.85-.11-.33-.17-.71-.17-1.12s.06-.79.17-1.12c.11-.33.27-.62.48-.85s.47-.41.77-.54c.3-.13.65-.19,1.03-.19.54,0,.96.11,1.29.34.32.23.57.52.73.88l-.85.46c-.09-.24-.24-.43-.43-.57s-.44-.21-.74-.21c-.42,0-.74.13-.96.38s-.34.59-.34,1v.87c0,.41.11.74.34,1s.56.38.98.38c.32,0,.58-.07.79-.22.2-.15.37-.35.49-.6l.8.49c-.17.36-.42.65-.76.88-.34.23-.78.34-1.32.34Z"/>
      <path class="cls-2" d="m213.29,255.75c-.31,0-.55-.08-.71-.24-.16-.16-.25-.37-.29-.63h-.05c-.1.31-.28.56-.55.73-.26.17-.6.26-1.01.26-.53,0-.95-.14-1.26-.42-.31-.28-.47-.66-.47-1.15s.19-.89.56-1.15c.37-.26.94-.4,1.71-.4h.99v-.4c0-.7-.37-1.05-1.11-1.05-.33,0-.61.07-.81.2-.21.13-.38.3-.52.52l-.65-.53c.15-.28.39-.52.74-.73.35-.2.8-.31,1.34-.31.66,0,1.17.16,1.55.47.37.32.56.77.56,1.37v2.6h.65v.86h-.67Zm-2.29-.68c.35,0,.65-.08.87-.24.23-.16.34-.37.34-.62v-.75h-.97c-.79,0-1.18.24-1.18.71v.2c0,.23.08.41.25.52.17.12.4.17.69.17Z"/>
      <path class="cls-2" d="m215.13,254.86h1.72v-5.64h-1.72v-.89h2.81v6.53h1.72v.89h-4.53v-.89Z"/>
      <path class="cls-2" d="m223.6,255.87c-.39,0-.73-.06-1.04-.19-.3-.13-.56-.31-.77-.54-.21-.23-.37-.52-.48-.85-.11-.33-.17-.71-.17-1.12s.06-.79.17-1.12c.11-.33.27-.62.48-.85s.47-.41.77-.54c.3-.13.65-.19,1.03-.19.54,0,.96.11,1.29.34.32.23.57.52.73.88l-.85.46c-.09-.24-.24-.43-.43-.57s-.44-.21-.74-.21c-.42,0-.74.13-.96.38s-.34.59-.34,1v.87c0,.41.11.74.34,1s.56.38.98.38c.32,0,.58-.07.79-.22.2-.15.37-.35.49-.6l.8.49c-.17.36-.42.65-.76.88-.34.23-.78.34-1.32.34Z"/>
      <path class="cls-2" d="m230.5,254.87h-.05c-.05.13-.12.26-.21.39-.08.12-.19.23-.31.32-.12.09-.26.16-.42.22-.16.05-.35.08-.56.08-.52,0-.94-.17-1.26-.51-.32-.34-.48-.83-.48-1.46v-3.33h1.09v3.17c0,.82.36,1.23,1.07,1.23.14,0,.28-.02.41-.06.13-.04.25-.09.36-.17.11-.07.19-.16.26-.28.06-.11.1-.24.1-.4v-3.51h1.09v5.18h-1.09v-.88Z"/>
      <path class="cls-2" d="m233.19,254.86h1.72v-5.64h-1.72v-.89h2.81v6.53h1.72v.89h-4.53v-.89Z"/>
      <path class="cls-2" d="m243.4,255.75c-.31,0-.55-.08-.71-.24-.16-.16-.25-.37-.29-.63h-.05c-.1.31-.28.56-.55.73-.26.17-.6.26-1.01.26-.53,0-.95-.14-1.26-.42-.31-.28-.47-.66-.47-1.15s.19-.89.56-1.15c.37-.26.94-.4,1.71-.4h.99v-.4c0-.7-.37-1.05-1.11-1.05-.33,0-.61.07-.81.2-.21.13-.38.3-.52.52l-.65-.53c.15-.28.39-.52.74-.73.35-.2.8-.31,1.34-.31.66,0,1.17.16,1.55.47.37.32.56.77.56,1.37v2.6h.65v.86h-.67Zm-2.29-.68c.35,0,.65-.08.87-.24.23-.16.34-.37.34-.62v-.75h-.97c-.79,0-1.18.24-1.18.71v.2c0,.23.08.41.25.52.17.12.4.17.69.17Z"/>
      <path class="cls-2" d="m247.8,255.75c-.46,0-.79-.12-1-.37-.21-.24-.32-.56-.32-.95v-2.97h-1.6v-.89h1.13c.19,0,.33-.04.41-.12s.12-.22.12-.42v-1.29h1.02v1.83h2.21v.89h-2.21v3.39h2.21v.89h-1.98Z"/>
      <path class="cls-2" d="m253.62,255.87c-.39,0-.75-.06-1.06-.19s-.58-.31-.79-.54c-.21-.23-.38-.52-.49-.85-.11-.33-.17-.7-.17-1.12s.06-.79.18-1.12c.12-.33.28-.62.49-.86s.47-.42.77-.55c.3-.13.64-.19,1-.19s.69.06.98.19c.29.12.55.3.75.53.21.23.37.5.48.81.11.31.17.66.17,1.04v.41h-3.71v.17c0,.41.13.74.38.99.25.26.61.38,1.05.38.33,0,.62-.07.86-.21s.43-.33.58-.57l.68.6c-.17.3-.44.56-.8.76-.36.21-.8.31-1.34.31Zm-.08-4.59c-.19,0-.37.03-.54.1-.16.07-.3.16-.42.29s-.21.27-.28.44c-.07.17-.1.35-.1.55v.07h2.6v-.1c0-.41-.12-.73-.35-.98-.23-.24-.54-.37-.92-.37Z"/>
      <path class="cls-2" d="m260.66,254.87h-.06c-.15.31-.36.56-.61.74-.25.18-.57.27-.95.27-.61,0-1.09-.23-1.46-.68-.36-.45-.54-1.13-.54-2.03s.18-1.57.54-2.03c.36-.45.85-.68,1.46-.68.38,0,.7.09.95.27.25.18.46.42.61.74h.06v-3.13h1.09v7.43h-1.09v-.88Zm-1.17.11c.16,0,.31-.02.45-.06s.26-.1.37-.18c.11-.08.19-.18.26-.3.06-.12.1-.26.1-.42v-1.73c0-.16-.03-.3-.1-.42-.06-.12-.15-.22-.26-.3-.11-.08-.23-.14-.37-.18s-.29-.06-.45-.06c-.41,0-.73.13-.96.38-.22.25-.34.59-.34,1.01v.84c0,.42.11.76.34,1.01s.54.38.96.38Z"/>
      <path class="cls-2" d="m273.51,255.75c-.31,0-.55-.08-.71-.24-.16-.16-.25-.37-.29-.63h-.05c-.1.31-.28.56-.55.73-.26.17-.6.26-1.01.26-.53,0-.95-.14-1.26-.42-.31-.28-.47-.66-.47-1.15s.19-.89.56-1.15c.37-.26.94-.4,1.71-.4h.99v-.4c0-.7-.37-1.05-1.11-1.05-.33,0-.61.07-.81.2-.21.13-.38.3-.52.52l-.65-.53c.15-.28.39-.52.74-.73.35-.2.8-.31,1.34-.31.66,0,1.17.16,1.55.47.37.32.56.77.56,1.37v2.6h.65v.86h-.67Zm-2.29-.68c.35,0,.65-.08.87-.24.23-.16.34-.37.34-.62v-.75h-.97c-.79,0-1.18.24-1.18.71v.2c0,.23.08.41.25.52.17.12.4.17.69.17Z"/>
      <path class="cls-2" d="m277.91,255.75c-.46,0-.79-.12-1-.37-.21-.24-.32-.56-.32-.95v-2.97h-1.6v-.89h1.13c.19,0,.33-.04.41-.12s.12-.22.12-.42v-1.29h1.02v1.83h2.21v.89h-2.21v3.39h2.21v.89h-1.98Z"/>
      <path class="cls-2" d="m289.75,255.87c-.39,0-.75-.06-1.06-.19s-.58-.31-.79-.54c-.21-.23-.38-.52-.49-.85-.11-.33-.17-.7-.17-1.12s.06-.79.18-1.12c.12-.33.28-.62.49-.86s.47-.42.77-.55c.3-.13.64-.19,1-.19s.69.06.98.19c.29.12.55.3.75.53.21.23.37.5.48.81.11.31.17.66.17,1.04v.41h-3.71v.17c0,.41.13.74.38.99.25.26.61.38,1.05.38.33,0,.62-.07.86-.21s.43-.33.58-.57l.68.6c-.17.3-.44.56-.8.76-.36.21-.8.31-1.34.31Zm-.08-4.59c-.19,0-.37.03-.54.1-.16.07-.3.16-.42.29s-.21.27-.28.44c-.07.17-.1.35-.1.55v.07h2.6v-.1c0-.41-.12-.73-.35-.98-.23-.24-.54-.37-.92-.37Z"/>
      <path class="cls-2" d="m297.59,255.75c-.31,0-.55-.08-.71-.24-.16-.16-.25-.37-.29-.63h-.05c-.1.31-.28.56-.55.73-.26.17-.6.26-1.01.26-.53,0-.95-.14-1.26-.42-.31-.28-.47-.66-.47-1.15s.19-.89.56-1.15c.37-.26.94-.4,1.71-.4h.99v-.4c0-.7-.37-1.05-1.11-1.05-.33,0-.61.07-.81.2-.21.13-.38.3-.52.52l-.65-.53c.15-.28.39-.52.74-.73.35-.2.8-.31,1.34-.31.66,0,1.17.16,1.55.47.37.32.56.77.56,1.37v2.6h.65v.86h-.67Zm-2.29-.68c.35,0,.65-.08.87-.24.23-.16.34-.37.34-.62v-.75h-.97c-.79,0-1.18.24-1.18.71v.2c0,.23.08.41.25.52.17.12.4.17.69.17Z"/>
      <path class="cls-2" d="m301.88,255.87c-.39,0-.73-.06-1.04-.19-.3-.13-.56-.31-.77-.54-.21-.23-.37-.52-.48-.85-.11-.33-.17-.71-.17-1.12s.06-.79.17-1.12c.11-.33.27-.62.48-.85s.47-.41.77-.54c.3-.13.65-.19,1.03-.19.54,0,.96.11,1.29.34.32.23.57.52.73.88l-.85.46c-.09-.24-.24-.43-.43-.57s-.44-.21-.74-.21c-.42,0-.74.13-.96.38s-.34.59-.34,1v.87c0,.41.11.74.34,1s.56.38.98.38c.32,0,.58-.07.79-.22.2-.15.37-.35.49-.6l.8.49c-.17.36-.42.65-.76.88-.34.23-.78.34-1.32.34Z"/>
      <path class="cls-2" d="m305.54,248.32h1.09v3.13h.05c.05-.13.12-.26.21-.39.08-.12.19-.23.31-.32.12-.09.26-.16.42-.22.16-.05.35-.08.56-.08.52,0,.94.17,1.26.51.32.34.48.83.48,1.45v3.33h-1.09v-3.17c0-.82-.36-1.23-1.07-1.23-.14,0-.28.02-.41.05s-.25.09-.36.17c-.11.07-.19.17-.26.28-.06.11-.1.24-.1.39v3.51h-1.09v-7.43Z"/>
      <path class="cls-2" d="m235.76,267.79c-.46,0-.79-.12-1-.37-.21-.24-.32-.56-.32-.95v-2.97h-1.6v-.89h1.13c.19,0,.33-.04.41-.12s.12-.22.12-.42v-1.29h1.02v1.83h2.21v.89h-2.21v3.39h2.21v.89h-1.98Z"/>
      <path class="cls-2" d="m239.47,266.9h1.77v-3.39h-1.77v-.89h2.86v4.29h1.66v.89h-4.52v-.89Zm2.32-5.23c-.28,0-.48-.06-.59-.17-.11-.11-.17-.25-.17-.42v-.21c0-.17.06-.31.17-.42.11-.11.3-.17.58-.17s.48.06.59.17c.11.11.17.25.17.42v.21c0,.17-.06.31-.17.42-.11.11-.3.17-.58.17Z"/>
      <path class="cls-2" d="m244.92,267.79v-5.18h.93v.67h.05c.08-.22.2-.41.35-.56.15-.15.37-.23.65-.23s.49.08.64.23c.15.15.25.36.29.62h.04c.09-.23.22-.43.39-.6s.41-.25.72-.25c.4,0,.68.14.84.42.16.28.24.69.24,1.23v3.64h-.93v-3.5c0-.36-.04-.61-.13-.75s-.23-.21-.42-.21c-.17,0-.32.06-.44.18-.12.12-.18.29-.18.53v3.75h-.93v-3.5c0-.36-.04-.61-.13-.75s-.22-.21-.42-.21c-.18,0-.33.06-.45.18-.12.12-.18.29-.18.53v3.75h-.93Z"/>
      <path class="cls-2" d="m253.62,267.91c-.39,0-.75-.06-1.06-.19s-.58-.31-.79-.54c-.21-.23-.38-.52-.49-.85-.11-.33-.17-.7-.17-1.12s.06-.79.18-1.12c.12-.33.28-.62.49-.86s.47-.42.77-.55c.3-.13.64-.19,1-.19s.69.06.98.19c.29.12.55.3.75.53.21.23.37.5.48.81.11.31.17.66.17,1.04v.41h-3.71v.17c0,.41.13.74.38.99.25.26.61.38,1.05.38.33,0,.62-.07.86-.21s.43-.33.58-.57l.68.6c-.17.3-.44.56-.8.76-.36.21-.8.31-1.34.31Zm-.08-4.59c-.19,0-.37.03-.54.1-.16.07-.3.16-.42.29s-.21.27-.28.44c-.07.17-.1.35-.1.55v.07h2.6v-.1c0-.41-.12-.73-.35-.98-.23-.24-.54-.37-.92-.37Z"/>
      <path class="cls-2" d="m259.55,267.91c-.56,0-1.05-.09-1.45-.27-.4-.18-.73-.42-.98-.72l.67-.6c.23.25.48.44.77.57.28.13.62.2,1.01.2.35,0,.64-.06.86-.18.22-.12.33-.31.33-.56,0-.11-.02-.2-.06-.27-.04-.07-.1-.13-.17-.18-.07-.05-.16-.08-.26-.11s-.2-.05-.31-.06l-.82-.13c-.2-.03-.4-.07-.61-.13s-.39-.15-.56-.26c-.16-.11-.3-.25-.4-.43s-.16-.39-.16-.66c0-.53.2-.93.61-1.2s.94-.41,1.6-.41c.48,0,.9.07,1.25.22.35.14.64.34.88.6l-.61.64c-.13-.15-.32-.3-.57-.43-.25-.13-.58-.2-.98-.2-.73,0-1.09.23-1.09.69,0,.22.08.37.24.46.16.08.34.14.56.17l.82.13c.21.03.41.08.62.13.2.05.39.14.55.25.16.11.3.25.4.43.1.17.16.4.16.66,0,.52-.2.93-.61,1.23-.4.3-.96.45-1.67.45Z"/>
      <path class="cls-2" d="m265.87,267.79c-.46,0-.79-.12-1-.37-.21-.24-.32-.56-.32-.95v-2.97h-1.6v-.89h1.13c.19,0,.33-.04.41-.12s.12-.22.12-.42v-1.29h1.02v1.83h2.21v.89h-2.21v3.39h2.21v.89h-1.98Z"/>
      <path class="cls-2" d="m271.69,267.91c-.39,0-.75-.06-1.06-.19s-.58-.31-.79-.54c-.21-.23-.38-.52-.49-.85-.11-.33-.17-.7-.17-1.12s.06-.79.18-1.12c.12-.33.28-.62.49-.86s.47-.42.77-.55c.3-.13.64-.19,1-.19s.69.06.98.19c.29.12.55.3.75.53.21.23.37.5.48.81.11.31.17.66.17,1.04v.41h-3.71v.17c0,.41.13.74.38.99.25.26.61.38,1.05.38.33,0,.62-.07.86-.21s.43-.33.58-.57l.68.6c-.17.3-.44.56-.8.76-.36.21-.8.31-1.34.31Zm-.08-4.59c-.19,0-.37.03-.54.1-.16.07-.3.16-.42.29s-.21.27-.28.44c-.07.17-.1.35-.1.55v.07h2.6v-.1c0-.41-.12-.73-.35-.98-.23-.24-.54-.37-.92-.37Z"/>
      <path class="cls-2" d="m275.38,262.61h1.09v.88h.06c.15-.31.36-.56.61-.74.25-.18.57-.27.95-.27.61,0,1.09.23,1.46.68.36.45.54,1.13.54,2.03s-.18,1.57-.54,2.03c-.36.45-.85.68-1.46.68-.38,0-.7-.09-.95-.27-.25-.18-.46-.42-.61-.74h-.06v2.89h-1.09v-7.19Zm2.27,4.41c.41,0,.73-.13.96-.38.22-.25.34-.59.34-1.01v-.84c0-.42-.11-.76-.34-1.01-.22-.25-.54-.38-.96-.38-.16,0-.31.02-.45.06s-.26.1-.37.18c-.11.08-.19.18-.26.3-.06.12-.1.26-.1.42v1.73c0,.16.03.3.1.42.06.12.15.22.26.3s.23.14.37.18.29.06.45.06Z"/>
    </g>
  </g>
  <g>
    <g>
      <path class="cls-2" d="m369.99,243.62h-1.11v-7.01h2.62c.67,0,1.18.19,1.53.56.35.37.53.89.53,1.54,0,.53-.13.97-.39,1.32s-.64.56-1.12.64l1.62,2.94h-1.24l-1.49-2.84h-.93v2.84Zm1.34-3.73c.7,0,1.04-.32,1.04-.96v-.43c0-.64-.35-.96-1.04-.96h-1.34v2.35h1.34Z"/>
      <path class="cls-2" d="m377.18,243.74c-.39,0-.75-.06-1.06-.19s-.58-.31-.79-.54c-.21-.23-.38-.52-.49-.85-.11-.33-.17-.7-.17-1.12s.06-.79.18-1.12c.12-.33.28-.62.49-.86s.47-.42.77-.55c.3-.13.64-.19,1-.19s.69.06.98.19c.29.12.55.3.75.53.21.23.37.5.48.81.11.31.17.66.17,1.04v.41h-3.71v.17c0,.41.13.74.38.99.25.26.61.38,1.05.38.33,0,.62-.07.86-.21s.43-.33.58-.57l.68.6c-.17.3-.44.56-.8.76-.36.21-.8.31-1.34.31Zm-.08-4.59c-.19,0-.37.03-.54.1-.16.07-.3.16-.42.29s-.21.27-.28.44c-.07.17-.1.35-.1.55v.07h2.6v-.1c0-.41-.12-.73-.35-.98-.23-.24-.54-.37-.92-.37Z"/>
      <path class="cls-2" d="m383.1,243.74c-.56,0-1.05-.09-1.45-.27-.4-.18-.73-.42-.98-.72l.67-.6c.23.25.48.44.77.57.28.13.62.2,1.01.2.35,0,.64-.06.86-.18.22-.12.33-.31.33-.56,0-.11-.02-.2-.06-.27-.04-.07-.1-.13-.17-.18-.07-.05-.16-.08-.26-.11s-.2-.05-.31-.06l-.82-.13c-.2-.03-.4-.07-.61-.13s-.39-.15-.56-.26c-.16-.11-.3-.25-.4-.43s-.16-.39-.16-.66c0-.53.2-.93.61-1.2s.94-.41,1.6-.41c.48,0,.9.07,1.25.22.35.14.64.34.88.6l-.61.64c-.13-.15-.32-.3-.57-.43-.25-.13-.58-.2-.98-.2-.73,0-1.09.23-1.09.69,0,.22.08.37.24.46.16.08.34.14.56.17l.82.13c.21.03.41.08.62.13.2.05.39.14.55.25.16.11.3.25.4.43.1.17.16.4.16.66,0,.52-.2.93-.61,1.23-.4.3-.96.45-1.67.45Z"/>
      <path class="cls-2" d="m390.18,242.73h-.05c-.05.13-.12.26-.21.39-.08.12-.19.23-.31.32-.12.09-.26.16-.42.22-.16.05-.35.08-.56.08-.52,0-.94-.17-1.26-.51-.32-.34-.48-.83-.48-1.46v-3.33h1.09v3.17c0,.82.36,1.23,1.07,1.23.14,0,.28-.02.41-.06.13-.04.25-.09.36-.17.11-.07.19-.16.26-.28.06-.11.1-.24.1-.4v-3.51h1.09v5.18h-1.09v-.88Z"/>
      <path class="cls-2" d="m392.87,242.72h1.72v-5.64h-1.72v-.89h2.81v6.53h1.72v.89h-4.53v-.89Z"/>
      <path class="cls-2" d="m401.46,243.62c-.46,0-.79-.12-1-.37-.21-.24-.32-.56-.32-.95v-2.97h-1.6v-.89h1.13c.19,0,.33-.04.41-.12s.12-.22.12-.42v-1.29h1.02v1.83h2.21v.89h-2.21v3.39h2.21v.89h-1.98Z"/>
      <path class="cls-2" d="m407.18,243.74c-.56,0-1.05-.09-1.45-.27-.4-.18-.73-.42-.98-.72l.67-.6c.23.25.48.44.77.57.28.13.62.2,1.01.2.35,0,.64-.06.86-.18.22-.12.33-.31.33-.56,0-.11-.02-.2-.06-.27-.04-.07-.1-.13-.17-.18-.07-.05-.16-.08-.26-.11s-.2-.05-.31-.06l-.82-.13c-.2-.03-.4-.07-.61-.13s-.39-.15-.56-.26c-.16-.11-.3-.25-.4-.43s-.16-.39-.16-.66c0-.53.2-.93.61-1.2s.94-.41,1.6-.41c.48,0,.9.07,1.25.22.35.14.64.34.88.6l-.61.64c-.13-.15-.32-.3-.57-.43-.25-.13-.58-.2-.98-.2-.73,0-1.09.23-1.09.69,0,.22.08.37.24.46.16.08.34.14.56.17l.82.13c.21.03.41.08.62.13.2.05.39.14.55.25.16.11.3.25.4.43.1.17.16.4.16.66,0,.52-.2.93-.61,1.23-.4.3-.96.45-1.67.45Z"/>
      <path class="cls-2" d="m416.97,242.72h1.37v-3.39h-1.37v-.89h2.47v1.38h.06c.05-.18.11-.35.2-.52s.2-.31.33-.44c.13-.12.3-.22.49-.3.19-.08.42-.12.68-.12h.62v1.04h-1.02c-.4,0-.73.12-.98.36-.25.24-.38.56-.38.96v1.93h1.88v.89h-4.35v-.89Z"/>
      <path class="cls-2" d="m425.35,243.74c-.39,0-.75-.06-1.06-.19s-.58-.31-.79-.54c-.21-.23-.38-.52-.49-.85-.11-.33-.17-.7-.17-1.12s.06-.79.18-1.12c.12-.33.28-.62.49-.86s.47-.42.77-.55c.3-.13.64-.19,1-.19s.69.06.98.19c.29.12.55.3.75.53.21.23.37.5.48.81.11.31.17.66.17,1.04v.41h-3.71v.17c0,.41.13.74.38.99.25.26.61.38,1.05.38.33,0,.62-.07.86-.21s.43-.33.58-.57l.68.6c-.17.3-.44.56-.8.76-.36.21-.8.31-1.34.31Zm-.08-4.59c-.19,0-.37.03-.54.1-.16.07-.3.16-.42.29s-.21.27-.28.44c-.07.17-.1.35-.1.55v.07h2.6v-.1c0-.41-.12-.73-.35-.98-.23-.24-.54-.37-.92-.37Z"/>
      <path class="cls-2" d="m431.45,243.74c-.39,0-.73-.06-1.04-.19-.3-.13-.56-.31-.77-.54-.21-.23-.37-.52-.48-.85-.11-.33-.17-.71-.17-1.12s.06-.79.17-1.12c.11-.33.27-.62.48-.85s.47-.41.77-.54c.3-.13.65-.19,1.03-.19.54,0,.96.11,1.29.34.32.23.57.52.73.88l-.85.46c-.09-.24-.24-.43-.43-.57s-.44-.21-.74-.21c-.42,0-.74.13-.96.38s-.34.59-.34,1v.87c0,.41.11.74.34,1s.56.38.98.38c.32,0,.58-.07.79-.22.2-.15.37-.35.49-.6l.8.49c-.17.36-.42.65-.76.88-.34.23-.78.34-1.32.34Z"/>
      <path class="cls-2" d="m437.28,243.74c-.38,0-.72-.06-1.03-.19-.3-.13-.56-.31-.77-.54-.21-.23-.37-.52-.49-.85s-.17-.71-.17-1.12.06-.79.17-1.12c.11-.33.28-.62.49-.85s.47-.41.77-.54c.3-.13.65-.19,1.03-.19s.72.06,1.03.19c.3.13.56.31.77.54.21.23.37.52.49.85.11.33.17.71.17,1.12s-.06.79-.17,1.12c-.11.33-.28.62-.49.85-.21.23-.47.41-.77.54-.3.13-.65.19-1.03.19Zm0-.86c.4,0,.72-.12.96-.37.24-.24.36-.61.36-1.09v-.78c0-.48-.12-.84-.36-1.09-.24-.24-.56-.37-.96-.37s-.72.12-.96.37c-.24.24-.36.61-.36,1.09v.78c0,.48.12.84.36,1.09.24.24.56.37.96.37Z"/>
      <path class="cls-2" d="m441.06,242.72h1.37v-3.39h-1.37v-.89h2.47v1.38h.06c.05-.18.11-.35.2-.52s.2-.31.33-.44c.13-.12.3-.22.49-.3.19-.08.42-.12.68-.12h.62v1.04h-1.02c-.4,0-.73.12-.98.36-.25.24-.38.56-.38.96v1.93h1.88v.89h-4.35v-.89Z"/>
      <path class="cls-2" d="m450.45,242.73h-.06c-.15.31-.36.56-.61.74-.25.18-.57.27-.95.27-.61,0-1.09-.23-1.46-.68-.36-.45-.54-1.13-.54-2.03s.18-1.57.54-2.03c.36-.45.85-.68,1.46-.68.38,0,.7.09.95.27.25.18.46.42.61.74h.06v-3.13h1.09v7.43h-1.09v-.88Zm-1.17.11c.16,0,.31-.02.45-.06s.26-.1.37-.18c.11-.08.19-.18.26-.3.06-.12.1-.26.1-.42v-1.73c0-.16-.03-.3-.1-.42-.06-.12-.15-.22-.26-.3-.11-.08-.23-.14-.37-.18s-.29-.06-.45-.06c-.41,0-.73.13-.96.38-.22.25-.34.59-.34,1.01v.84c0,.42.11.76.34,1.01s.54.38.96.38Z"/>
      <path class="cls-2" d="m455.46,243.74c-.39,0-.75-.06-1.06-.19s-.58-.31-.79-.54c-.21-.23-.38-.52-.49-.85-.11-.33-.17-.7-.17-1.12s.06-.79.18-1.12c.12-.33.28-.62.49-.86s.47-.42.77-.55c.3-.13.64-.19,1-.19s.69.06.98.19c.29.12.55.3.75.53.21.23.37.5.48.81.11.31.17.66.17,1.04v.41h-3.71v.17c0,.41.13.74.38.99.25.26.61.38,1.05.38.33,0,.62-.07.86-.21s.43-.33.58-.57l.68.6c-.17.3-.44.56-.8.76-.36.21-.8.31-1.34.31Zm-.08-4.59c-.19,0-.37.03-.54.1-.16.07-.3.16-.42.29s-.21.27-.28.44c-.07.17-.1.35-.1.55v.07h2.6v-.1c0-.41-.12-.73-.35-.98-.23-.24-.54-.37-.92-.37Z"/>
      <path class="cls-2" d="m462.49,242.73h-.06c-.15.31-.36.56-.61.74-.25.18-.57.27-.95.27-.61,0-1.09-.23-1.46-.68-.36-.45-.54-1.13-.54-2.03s.18-1.57.54-2.03c.36-.45.85-.68,1.46-.68.38,0,.7.09.95.27.25.18.46.42.61.74h.06v-3.13h1.09v7.43h-1.09v-.88Zm-1.17.11c.16,0,.31-.02.45-.06s.26-.1.37-.18c.11-.08.19-.18.26-.3.06-.12.1-.26.1-.42v-1.73c0-.16-.03-.3-.1-.42-.06-.12-.15-.22-.26-.3-.11-.08-.23-.14-.37-.18s-.29-.06-.45-.06c-.41,0-.73.13-.96.38-.22.25-.34.59-.34,1.01v.84c0,.42.11.76.34,1.01s.54.38.96.38Z"/>
      <path class="cls-2" d="m475.34,243.62c-.31,0-.55-.08-.71-.24-.16-.16-.25-.37-.29-.63h-.05c-.1.31-.28.56-.55.73-.26.17-.6.26-1.01.26-.53,0-.95-.14-1.26-.42-.31-.28-.47-.66-.47-1.15s.19-.89.56-1.15c.37-.26.94-.4,1.71-.4h.99v-.4c0-.7-.37-1.05-1.11-1.05-.33,0-.61.07-.81.2-.21.13-.38.3-.52.52l-.65-.53c.15-.28.39-.52.74-.73.35-.2.8-.31,1.34-.31.66,0,1.17.16,1.55.47.37.32.56.77.56,1.37v2.6h.65v.86h-.67Zm-2.29-.68c.35,0,.65-.08.87-.24.23-.16.34-.37.34-.62v-.75h-.97c-.79,0-1.18.24-1.18.71v.2c0,.23.08.41.25.52.17.12.4.17.69.17Z"/>
      <path class="cls-2" d="m477.27,243.62v-5.18h1.09v.88h.05c.05-.13.12-.26.21-.39.08-.12.19-.23.31-.32.12-.09.26-.16.42-.22.16-.05.35-.08.56-.08.52,0,.94.17,1.26.51.32.34.48.83.48,1.45v3.33h-1.09v-3.17c0-.82-.36-1.23-1.07-1.23-.14,0-.28.02-.41.05s-.25.09-.36.17c-.11.07-.19.17-.26.28-.06.11-.1.24-.1.39v3.51h-1.09Z"/>
      <path class="cls-2" d="m486.58,242.73h-.06c-.15.31-.36.56-.61.74-.25.18-.57.27-.95.27-.61,0-1.09-.23-1.46-.68-.36-.45-.54-1.13-.54-2.03s.18-1.57.54-2.03c.36-.45.85-.68,1.46-.68.38,0,.7.09.95.27.25.18.46.42.61.74h.06v-3.13h1.09v7.43h-1.09v-.88Zm-1.17.11c.16,0,.31-.02.45-.06s.26-.1.37-.18c.11-.08.19-.18.26-.3.06-.12.1-.26.1-.42v-1.73c0-.16-.03-.3-.1-.42-.06-.12-.15-.22-.26-.3-.11-.08-.23-.14-.37-.18s-.29-.06-.45-.06c-.41,0-.73.13-.96.38-.22.25-.34.59-.34,1.01v.84c0,.42.11.76.34,1.01s.54.38.96.38Z"/>
      <path class="cls-2" d="m383.2,255.78c-.39,0-.75-.06-1.06-.19s-.58-.31-.79-.54c-.21-.23-.38-.52-.49-.85-.11-.33-.17-.7-.17-1.12s.06-.79.18-1.12c.12-.33.28-.62.49-.86s.47-.42.77-.55c.3-.13.64-.19,1-.19s.69.06.98.19c.29.12.55.3.75.53.21.23.37.5.48.81.11.31.17.66.17,1.04v.41h-3.71v.17c0,.41.13.74.38.99.25.26.61.38,1.05.38.33,0,.62-.07.86-.21s.43-.33.58-.57l.68.6c-.17.3-.44.56-.8.76-.36.21-.8.31-1.34.31Zm-.08-4.59c-.19,0-.37.03-.54.1-.16.07-.3.16-.42.29s-.21.27-.28.44c-.07.17-.1.35-.1.55v.07h2.6v-.1c0-.41-.12-.73-.35-.98-.23-.24-.54-.37-.92-.37Z"/>
      <path class="cls-2" d="m386.55,255.66l1.93-2.63-1.85-2.55h1.27l.68.98.54.78h.06l.53-.78.68-.98h1.18l-1.86,2.51,1.95,2.67h-1.28l-.77-1.11-.53-.76h-.06l-.52.76-.76,1.11h-1.19Z"/>
      <path class="cls-2" d="m392.91,250.48h1.09v.88h.06c.15-.31.36-.56.61-.74.25-.18.57-.27.95-.27.61,0,1.09.23,1.46.68.36.45.54,1.13.54,2.03s-.18,1.57-.54,2.03c-.36.45-.85.68-1.46.68-.38,0-.7-.09-.95-.27-.25-.18-.46-.42-.61-.74h-.06v2.89h-1.09v-7.19Zm2.27,4.41c.41,0,.73-.13.96-.38.22-.25.34-.59.34-1.01v-.84c0-.42-.11-.76-.34-1.01-.22-.25-.54-.38-.96-.38-.16,0-.31.02-.45.06s-.26.1-.37.18c-.11.08-.19.18-.26.3-.06.12-.1.26-.1.42v1.73c0,.16.03.3.1.42.06.12.15.22.26.3s.23.14.37.18.29.06.45.06Z"/>
      <path class="cls-2" d="m401.15,255.78c-.38,0-.72-.06-1.03-.19-.3-.13-.56-.31-.77-.54-.21-.23-.37-.52-.49-.85s-.17-.71-.17-1.12.06-.79.17-1.12c.11-.33.28-.62.49-.85s.47-.41.77-.54c.3-.13.65-.19,1.03-.19s.72.06,1.03.19c.3.13.56.31.77.54.21.23.37.52.49.85.11.33.17.71.17,1.12s-.06.79-.17,1.12c-.11.33-.28.62-.49.85-.21.23-.47.41-.77.54-.3.13-.65.19-1.03.19Zm0-.86c.4,0,.72-.12.96-.37.24-.24.36-.61.36-1.09v-.78c0-.48-.12-.84-.36-1.09-.24-.24-.56-.37-.96-.37s-.72.12-.96.37c-.24.24-.36.61-.36,1.09v.78c0,.48.12.84.36,1.09.24.24.56.37.96.37Z"/>
      <path class="cls-2" d="m404.93,254.77h1.37v-3.39h-1.37v-.89h2.47v1.38h.06c.05-.18.11-.35.2-.52s.2-.31.33-.44c.13-.12.3-.22.49-.3.19-.08.42-.12.68-.12h.62v1.04h-1.02c-.4,0-.73.12-.98.36-.25.24-.38.56-.38.96v1.93h1.88v.89h-4.35v-.89Z"/>
      <path class="cls-2" d="m413.51,255.66c-.46,0-.79-.12-1-.37-.21-.24-.32-.56-.32-.95v-2.97h-1.6v-.89h1.13c.19,0,.33-.04.41-.12s.12-.22.12-.42v-1.29h1.02v1.83h2.21v.89h-2.21v3.39h2.21v.89h-1.98Z"/>
      <path class="cls-2" d="m419.33,255.78c-.39,0-.75-.06-1.06-.19s-.58-.31-.79-.54c-.21-.23-.38-.52-.49-.85-.11-.33-.17-.7-.17-1.12s.06-.79.18-1.12c.12-.33.28-.62.49-.86s.47-.42.77-.55c.3-.13.64-.19,1-.19s.69.06.98.19c.29.12.55.3.75.53.21.23.37.5.48.81.11.31.17.66.17,1.04v.41h-3.71v.17c0,.41.13.74.38.99.25.26.61.38,1.05.38.33,0,.62-.07.86-.21s.43-.33.58-.57l.68.6c-.17.3-.44.56-.8.76-.36.21-.8.31-1.34.31Zm-.08-4.59c-.19,0-.37.03-.54.1-.16.07-.3.16-.42.29s-.21.27-.28.44c-.07.17-.1.35-.1.55v.07h2.6v-.1c0-.41-.12-.73-.35-.98-.23-.24-.54-.37-.92-.37Z"/>
      <path class="cls-2" d="m426.36,254.78h-.06c-.15.31-.36.56-.61.74-.25.18-.57.27-.95.27-.61,0-1.09-.23-1.46-.68-.36-.45-.54-1.13-.54-2.03s.18-1.57.54-2.03c.36-.45.85-.68,1.46-.68.38,0,.7.09.95.27.25.18.46.42.61.74h.06v-3.13h1.09v7.43h-1.09v-.88Zm-1.17.11c.16,0,.31-.02.45-.06s.26-.1.37-.18c.11-.08.19-.18.26-.3.06-.12.1-.26.1-.42v-1.73c0-.16-.03-.3-.1-.42-.06-.12-.15-.22-.26-.3-.11-.08-.23-.14-.37-.18s-.29-.06-.45-.06c-.41,0-.73.13-.96.38-.22.25-.34.59-.34,1.01v.84c0,.42.11.76.34,1.01s.54.38.96.38Z"/>
      <path class="cls-2" d="m437.59,255.66c-.46,0-.79-.12-1-.37-.21-.24-.32-.56-.32-.95v-2.97h-1.6v-.89h1.13c.19,0,.33-.04.41-.12s.12-.22.12-.42v-1.29h1.02v1.83h2.21v.89h-2.21v3.39h2.21v.89h-1.98Z"/>
      <path class="cls-2" d="m443.3,255.78c-.38,0-.72-.06-1.03-.19-.3-.13-.56-.31-.77-.54-.21-.23-.37-.52-.49-.85s-.17-.71-.17-1.12.06-.79.17-1.12c.11-.33.28-.62.49-.85s.47-.41.77-.54c.3-.13.65-.19,1.03-.19s.72.06,1.03.19c.3.13.56.31.77.54.21.23.37.52.49.85.11.33.17.71.17,1.12s-.06.79-.17,1.12c-.11.33-.28.62-.49.85-.21.23-.47.41-.77.54-.3.13-.65.19-1.03.19Zm0-.86c.4,0,.72-.12.96-.37.24-.24.36-.61.36-1.09v-.78c0-.48-.12-.84-.36-1.09-.24-.24-.56-.37-.96-.37s-.72.12-.96.37c-.24.24-.36.61-.36,1.09v.78c0,.48.12.84.36,1.09.24.24.56.37.96.37Z"/>
      <path class="cls-2" d="m457.28,248.65v5.13c0,.3-.05.58-.16.82s-.25.46-.44.63-.42.31-.69.4c-.27.09-.57.14-.89.14-.62,0-1.11-.15-1.47-.46-.36-.31-.6-.73-.71-1.27l1.06-.22c.06.29.17.53.34.72.17.19.43.29.78.29.33,0,.58-.1.77-.3s.28-.5.28-.91v-4.03h-2.44v-.94h3.56Z"/>
      <path class="cls-2" d="m461.31,255.78c-.61,0-1.12-.11-1.54-.32-.41-.21-.76-.49-1.02-.85l.72-.69c.27.32.55.56.85.71.3.15.64.23,1.02.23.44,0,.78-.1,1.02-.3s.36-.49.36-.87c0-.3-.09-.54-.26-.7s-.47-.28-.89-.36l-.76-.12c-.33-.05-.62-.14-.84-.27-.23-.12-.41-.27-.55-.44-.14-.17-.24-.36-.31-.57-.06-.21-.1-.43-.1-.67,0-.66.21-1.16.64-1.51.43-.34,1.02-.52,1.77-.52.56,0,1.03.09,1.42.26s.71.42.95.74l-.7.7c-.19-.23-.42-.42-.69-.57-.26-.14-.59-.22-.98-.22-.42,0-.73.09-.95.27-.22.18-.33.44-.33.78,0,.29.09.52.26.68.17.16.47.28.91.36l.74.13c.63.11,1.09.34,1.37.69.29.34.43.76.43,1.26,0,.32-.06.62-.17.88-.11.27-.27.49-.49.68s-.49.33-.8.44c-.32.1-.68.16-1.09.16Z"/>
      <path class="cls-2" d="m467.39,255.78c-.44,0-.82-.08-1.15-.25-.32-.16-.59-.4-.8-.71s-.37-.69-.47-1.13c-.1-.45-.15-.96-.15-1.54s.05-1.08.15-1.53c.1-.45.26-.83.47-1.14s.48-.54.8-.71c.32-.16.71-.25,1.15-.25s.82.08,1.15.25c.32.16.59.4.8.71s.37.69.47,1.14c.1.45.15.96.15,1.53s-.05,1.09-.15,1.54c-.1.45-.26.83-.47,1.13s-.48.54-.8.71c-.32.16-.71.25-1.15.25Zm0-.92c.5,0,.86-.19,1.06-.57.21-.38.31-.9.31-1.55v-1.18c0-.65-.1-1.16-.31-1.54-.21-.38-.56-.57-1.06-.57s-.86.19-1.06.57c-.21.38-.31.89-.31,1.54v1.19c0,.65.1,1.16.31,1.54.21.38.56.57,1.06.57Z"/>
      <path class="cls-2" d="m472.2,250.27h-.09v5.39h-.98v-7.01h1.45l2.06,5.39h.09v-5.39h.98v7.01h-1.45l-2.06-5.39Z"/>
      <path class="cls-2" d="m416.99,266.81h1.66v-3.39h-1.76v-.89h1.76v-.93c0-.39.11-.7.32-.95.21-.24.55-.37,1-.37h1.75v.89h-1.98v1.35h1.98v.89h-1.98v3.39h1.75v.89h-4.5v-.89Z"/>
      <path class="cls-2" d="m423.24,266.81h1.77v-3.39h-1.77v-.89h2.86v4.29h1.66v.89h-4.52v-.89Zm2.32-5.23c-.28,0-.48-.06-.59-.17-.11-.11-.17-.25-.17-.42v-.21c0-.17.06-.31.17-.42.11-.11.3-.17.58-.17s.48.06.59.17c.11.11.17.25.17.42v.21c0,.17-.06.31-.17.42-.11.11-.3.17-.58.17Z"/>
      <path class="cls-2" d="m429,266.81h1.72v-5.64h-1.72v-.89h2.81v6.53h1.72v.89h-4.53v-.89Z"/>
      <path class="cls-2" d="m437.39,267.82c-.39,0-.75-.06-1.06-.19s-.58-.31-.79-.54c-.21-.23-.38-.52-.49-.85-.11-.33-.17-.7-.17-1.12s.06-.79.18-1.12c.12-.33.28-.62.49-.86s.47-.42.77-.55c.3-.13.64-.19,1-.19s.69.06.98.19c.29.12.55.3.75.53.21.23.37.5.48.81.11.31.17.66.17,1.04v.41h-3.71v.17c0,.41.13.74.38.99.25.26.61.38,1.05.38.33,0,.62-.07.86-.21s.43-.33.58-.57l.68.6c-.17.3-.44.56-.8.76-.36.21-.8.31-1.34.31Zm-.08-4.59c-.19,0-.37.03-.54.1-.16.07-.3.16-.42.29s-.21.27-.28.44c-.07.17-.1.35-.1.55v.07h2.6v-.1c0-.41-.12-.73-.35-.98-.23-.24-.54-.37-.92-.37Z"/>
    </g>
    <g>
      <path class="cls-3" d="m457.34,139.77c0,.59,0,1.02,0,1.45,0,3.39.01,6.79,0,10.18-.02,3.58-2.4,5.99-5.99,6.09-.6.02-1.2,0-1.8,0-14.58,0-29.15-.06-43.73.04-3.92.02-6.8-2.62-6.63-6.6.14-3.23.03-6.47.03-9.7,0-.43,0-.86,0-1.46-.71,0-1.3.03-1.88,0-1.85-.11-3.05-1.31-3.05-3.17-.02-7.11-.03-14.22,0-21.32,0-1.96,1.28-3.15,3.27-3.2.51-.01,1.02,0,1.67,0,0-.59,0-1.06,0-1.52,0-8.31,0-16.61,0-24.92,0-4.26,2.32-6.55,6.62-6.55,11.42,0,22.84,0,34.26-.02.92,0,1.56.28,2.2.93,4.72,4.77,9.46,9.51,14.23,14.23.63.62.84,1.26.84,2.11-.03,4.75-.02,9.5-.02,14.26,0,.43,0,.87,0,1.5.66,0,1.24-.02,1.82,0,1.86.06,3.11,1.25,3.11,3.08.02,7.15.02,14.3,0,21.44,0,1.86-1.19,3.05-3.06,3.17-.55.03-1.11,0-1.88,0Zm-17.01-59.19c-.57,0-.99,0-1.42,0-11.06,0-22.11,0-33.17,0-3.43,0-5.05,1.62-5.05,5.06,0,8.38,0,16.76,0,25.14,0,.39.03.77.05,1.17h55.02v-15.85c-.52,0-.95,0-1.38,0-4.07,0-8.14,0-12.21,0-1.82,0-1.84-.03-1.85-1.9,0-4.07,0-8.14,0-12.21,0-.43,0-.85,0-1.42Zm-12.19,57.68c6.99,0,13.97,0,20.96,0,3.23,0,6.47.02,9.7,0,1.53-.01,2-.51,2.02-2.02,0-.76,0-1.52,0-2.28,0-6.07,0-12.14,0-18.21,0-1.72-.48-2.19-2.21-2.21-.24,0-.48,0-.72,0-19.88,0-39.76,0-59.65,0-2.12,0-2.5.38-2.5,2.52,0,6.59,0,13.17,0,19.76,0,2.07.37,2.44,2.45,2.44,9.98,0,19.96,0,29.94,0Zm-27.4,1.56c-.02.41-.05.72-.05,1.03,0,3.51-.01,7.02,0,10.54.02,2.8,1.75,4.57,4.56,4.58,15.33.02,30.65.02,45.98,0,2.88,0,4.6-1.77,4.61-4.64.02-3.51,0-7.02,0-10.54,0-.31-.05-.61-.09-.97h-55.02Zm41.15-57.82v12.51h12.54c-4.2-4.19-8.36-8.34-12.54-12.51Z"/>
      <path class="cls-3" d="m422.19,99.85c-1.25-.85-.96-2.11-.99-3.28-.03-1.06.08-2.17-1.54-2.09-.16,0-.35-.43-.58-.73,2.43-.53,3.36.19,3.38,2.43,0,.52.01,1.04,0,1.55-.01.93.34,1.52,1.35,1.63.24.03.45.29.68.44-.24.18-.46.47-.72.51-.93.13-1.29.68-1.3,1.55-.02.87.03,1.76-.08,2.62-.16,1.26-1.61,2.08-2.79,1.65-.16-.06-.36-.34-.34-.5.02-.16.28-.42.43-.42,1.49.06,1.49-.91,1.51-1.98.02-1.18-.32-2.5.99-3.38Z"/>
      <path class="cls-3" d="m412.12,93.95c-.26.19-.52.54-.8.55-1.03.03-1.28.63-1.27,1.5,0,.8.06,1.61-.07,2.39-.08.51-.45.97-.75,1.57,1.08.75.81,2.04.8,3.24,0,1.07,0,2.05,1.49,2.03.15,0,.31.34.46.52-.19.14-.37.39-.57.41-1.75.2-2.55-.51-2.6-2.25-.02-.6,0-1.2-.01-1.8-.02-.98-.32-1.7-1.47-1.81-.26-.02-.49-.38-.93-.74,2.26-.42,2.39-.58,2.41-2.48,0-.24,0-.48,0-.72,0-2.43.53-2.91,3.02-2.73.09.11.18.22.28.32Z"/>
      <path class="cls-3" d="m415.1,96.49h1.1v7.35c-.34.02-.67.04-1.1.07v-7.42Z"/>
      <path class="cls-3" d="m415.09,93.56c.41.02.74.04,1.12.06v1.38h-1.12v-1.44Z"/>
      <path class="cls-3" d="m439.72,120.85c1.28-.35,2.12-.09,2.81,1.12,1.27,2.26,2.73,4.4,4.11,6.59.16.25.34.49.73,1.04v-8.72c1.1-.36,1.49-.11,1.47.99-.06,3.02-.02,6.04-.02,9.06-1.34.32-2.23.22-2.95-1.11-1.21-2.24-2.67-4.34-4.03-6.5-.18-.28-.4-.54-.78-1.05v8.72c-.47.03-.84.06-1.33.1v-10.23Z"/>
      <path class="cls-3" d="m436.92,125.96c-.06.87-.07,1.79-.21,2.7-.26,1.67-1.02,2.39-2.68,2.5-1.19.08-2.4.09-3.58,0-1.54-.12-2.48-.96-2.59-2.49-.13-1.78-.14-3.59-.01-5.37.12-1.7,1.12-2.55,2.83-2.64,1.03-.05,2.07-.06,3.11,0,1.85.09,2.67.81,2.96,2.64.13.86.12,1.74.18,2.66Zm-1.48.02s0,0-.01,0c0-.72.04-1.43,0-2.15-.08-1.41-.51-1.86-1.9-1.92-.95-.04-1.91-.01-2.86.04-.89.05-1.42.56-1.44,1.44-.04,1.71-.06,3.42.04,5.12.02.42.5,1.14.8,1.15,1.56.08,3.27.34,4.66-.17,1.2-.44.61-2.12.71-3.27,0-.08,0-.16,0-.24Z"/>
      <path class="cls-3" d="m417.36,127.72h1.2c.05.26.13.52.14.78.03.99.55,1.45,1.51,1.45.68,0,1.36.02,2.03,0,1.49-.07,1.75-.39,1.76-1.91.01-.92-.3-1.43-1.29-1.45-1-.02-1.99-.09-2.98-.18-1.61-.14-2.39-1.04-2.4-2.7-.01-1.98.71-2.92,2.43-3.03.99-.07,1.99-.06,2.99,0,1.87.1,2.56.98,2.37,3.03-.36.02-.73.05-.86.06-.51-.7-.83-1.62-1.3-1.7-1.14-.19-2.38-.13-3.52.12-.33.07-.65,1.12-.61,1.7.03.41.62,1.03,1.05,1.12,1.04.22,2.14.16,3.21.25,1.71.16,2.31.9,2.31,2.82,0,2.13-.58,2.95-2.31,3.1-.91.08-1.83.06-2.75.04-2.39-.05-3.19-.95-3-3.49Z"/>
      <path class="cls-3" d="m413.22,120.78h1.37c0,1.62,0,3.19,0,4.77,0,1.07.04,2.15-.04,3.22-.11,1.55-.88,2.29-2.42,2.41-.32.03-.64.02-.95.02-2.98-.01-3.71-.88-3.27-4.02.35-.02.72-.05,1.16-.08.04.3.09.52.11.74.12,1.96,1.37,2.79,3.17,1.93.44-.21.75-1.08.78-1.66.09-2.07.03-4.14.04-6.21,0-.38.04-.76.06-1.13Z"/>
    </g>
  </g>
</svg>