<svg id="Layer_1" data-name="Layer 1" xmlns="http://www.w3.org/2000/svg" viewBox="0 0 722 609"><defs><style>.cls-1{fill:#c4793d;}.cls-2{fill:#fff;}.cls-3{fill:#ae6c37;stroke:#000;stroke-miterlimit:10;stroke-width:4px;}</style></defs><path class="cls-1" d="M203.53,314.84q-40.5,10.1-81.08,19.88c-2,.47-6-.89-6.36-2.12-.55-2.12.28-5.82,1.91-7.1q27.24-21.4,55-42.09c1.82-1.36,5.11-1.77,7.43-1.27l2,.43A95.8,95.8,0,0,1,178,272.51l-1.51,1.09c-1.75,1.22-5.16.69-7.63.17-13.76-2.93-27.47-6.07-41.19-9.19-10.16-2.32-10.15-2.36-9.15-14.54,17.76-4.67,35.44-9.4,53.17-13.89q0-2.94.17-5.84c-16.49,4.36-31,7.91-45.24,12.21-6.63,2-10.14,1.27-14.38-5-9.22-13.71-27.7-15.9-40.28-6.1a28.75,28.75,0,0,0-5.53,39.41c9.37,12.72,28.94,17,39.39,5.78,9.07-9.76,17.17-8,27.21-5.41,9.71,2.53,19.58,4.42,29.36,6.71,1.63.39,3.1,1.43,5.54,2.59l-57,43.47c-1.54-.95-2.49-1.45-3.35-2.07-11.76-8.49-25.77-8.62-36.17-.31A28.39,28.39,0,0,0,62.91,354c4.85,12.12,16.58,19.54,28.88,18.28,13.93-1.43,23.43-11.21,26.32-26,.48-2.46,3.81-5.59,6.38-6.25,27.21-7,54.47-13.68,81.73-20.45Q204.81,317.24,203.53,314.84ZM88.7,277c-13-.43-23.34-11.36-22.67-23.91.64-12.27,11.67-22.78,23.57-22.46a23.22,23.22,0,0,1,22.8,23.77C112.09,267.73,101.92,277.43,88.7,277Zm.93,89.72A23.09,23.09,0,0,1,66,343.8c-.1-12.54,10.8-23.42,23.46-23.41a23.08,23.08,0,0,1,22.86,22.81C112.43,356.76,103,366.49,89.63,366.71Z"/><path class="cls-1" d="M660.81,248.66a5.17,5.17,0,0,1,0-.57,18.8,18.8,0,0,1-1.25-2.88c-6.49-18.5-27.55-25.75-43.11-14.54-4.92,3.54-7.69,2.8-11.8-.34q-30.78-23.51-61.86-46.63c-4.47-3.32-5.94-6.31-4.29-12.19,3.49-12.46-2.44-25.1-13.38-31.4s-24.07-4.78-33.82,4.36c-2.53,2.37-4.64,5.18-7.18,8.06-12.14-4.8-24.19-9.61-36.24-14.37,1.08,2.25,2.08,4.54,3,6.89q12.84,5.08,25.58,10.42c3.07,1.29,5.13,5,7.65,7.56l-1.95,1.5c1.92,5.87-1.33,8.06-6.09,9.26-1.57.4-3.09,1-4.61,1.55l-2.4.85c.78,1.67,1.5,3.35,2.19,5.07l12.47-4.48c6.77,5.1,5.85,9.61.53,14.64-2.88,2.72-5.54,5.68-8.38,8.88q1.11,8.19,2.21,16.4a80.45,80.45,0,0,1-.19,9.08c9.78,5.95,11,9,6.28,16.54L475.6,239c-.42,1.5-.88,3-1.39,4.47,4.55,1,8.21,6.05,8.28,11.84,2.16,6.55-3.51,10.65-7.69,9.11-2.36-.87-4.4-3.1-6.12-5.76a70.63,70.63,0,0,1-1.82,8.72l.23.36-.37.16a71.46,71.46,0,0,1-2.45,7.18l4.51-2c9.88,11.71,10.09,13.59,1.87,20.34l-9.81-10.66q-1,2.92-2.21,5.72l8.95,9.7c-5.29,5.95-9.69,11.89-15.16,16.56-2.09,1.78-6.72,1.19-10.06.71a15.16,15.16,0,0,1-3-.8c-1,1-2,1.93-3,2.84-.13.35-.26.71-.4,1.06a18.26,18.26,0,0,1,3.14,1.63c1.55,1,3.39,1.53,6.2,2.76l-37.66,41.47-1.88-1.08.21-.48a73.82,73.82,0,0,1-6.2,4.62,22.74,22.74,0,1,1-31.92,14.12c-1.85.51-3.71.94-5.6,1.3-.42,5.79-.13,11.86,1.84,16.95,4.77,12.32,18.3,18.33,30.8,15.72,13.56-2.82,22.85-13.39,23-27.72.06-5.22,2-7.11,6.27-8.64q27.24-9.74,54.34-19.84c4.49-1.68,7.5-1.92,11.25,2.36a28.56,28.56,0,0,0,34.84,6.53,28.23,28.23,0,0,0,13.92-32c-1.26-5.07.2-7.19,4-9.91q31.74-22.9,63.11-46.32c4.56-3.4,8-4.28,13.66-1.12a27.44,27.44,0,0,0,39.89-15.34,14.33,14.33,0,0,1,1.85-3.88C661.16,256,660.83,252.34,660.81,248.66ZM511.55,142.43c12.52.14,22,9.88,21.87,22.57a22.43,22.43,0,1,1-44.86-.24C488.66,151.76,498.42,142.28,511.55,142.43Zm-27.28,80a9.68,9.68,0,0,1-.62-7.74c3.66-8.12,8-15.93,11.86-23.36,7.28.57,14.12,2.32,20.49,1.27,6.08-1,11.69-4.92,18.71-8.11.7.45,2.76,1.62,4.64,3q30.89,23.27,61.74,46.54c4.16,3.12,6.6,5.59,4.41,11.92s-6.08,4.94-10.12,5c-18.42.06-36.84,0-54.71,0-8.48-20.15-17.64-26.76-33.57-25-2.13.23-4.64.38-6.21,1.57C492.8,233.64,488.08,228.83,484.27,222.39ZM533.68,254a22.57,22.57,0,0,1-23.11,22.52,22.09,22.09,0,0,1-22-22.56,22.47,22.47,0,0,1,23-22.56C523.93,231.71,533.92,241.9,533.68,254ZM475.17,270.9c5.39-2.13,10.35-6.41,12.51.36.9,2.85-2.75,7.15-5.25,12.9C479.14,278.14,477.28,274.76,475.17,270.9Zm5.3,21.4L493.37,315l-1.49,1.2-16.7-18Zm-7.22,63.58c-19,6.24-37.69,13.56-56.18,20.33-6-4.72-5.59-8.61-.74-13.64,10.36-10.74,20.33-21.89,30.07-33.2,3.46-4,6.57-4.65,11.26-2.62a164.32,164.32,0,0,0,19.08,7c4.81,1.4,5.46,4.08,6.1,8.73C484,350.77,480.57,353.47,473.25,355.88Zm-18-35.66L471.3,302l19.23,20.66c-2.37,3.2-4.1,5.54-6.17,8.32Zm55.6,45.64c-11.69,0-22.18-10.56-22.32-22.47a22.33,22.33,0,0,1,22.41-22.95,23,23,0,0,1,23,22.63C533.9,355.18,523.09,365.86,510.82,365.86Zm93.42-91.2c-22.91,17-46,33.66-69.86,51-9-8.65-18.69-13.56-31.21-10.26-1.39.37-4.19-1.85-5.27-3.54-3.51-5.49-6.19-11.5-9.81-16.9-3.25-4.84-3.08-8.37.93-12.87,3.69-4.15,6.47-3.7,11.13-1.83,16.59,6.63,33.68-1.85,38.41-19.19,1.34-4.91,3.45-5.88,7.78-5.76,17.38.51,34.78,1.18,52.16,1.1,8.69-.05,6,7.72,8.81,11.55C608.05,268.92,606.06,273.31,604.24,274.66Zm28.16,1.82c-12.2-.06-22.58-10.17-22.65-22.09-.07-12.41,10.41-23.11,22.59-23.07a22.81,22.81,0,0,1,22.84,22.61A22.45,22.45,0,0,1,632.4,276.48Z"/><path class="cls-1" d="M84.33,192.19c11.65,2.47,20.43-3,28.86-11l58.86,46.55q.31-3.18.92-6.28-26.17-20.23-51.91-41c-2.21-1.8-2.82-5.56-4.16-8.42,2.67-.13,5.5-.92,8-.31q28,6.85,56,13.83.32-2.73.82-5.4-27.24-6.83-54.5-13.53c-5.81-1.42-9-3.41-10.6-9.88-3.52-14.54-16.73-22.54-31.68-20.57a27.76,27.76,0,0,0-23.74,26.12C60.47,177.52,69.44,189.05,84.33,192.19Zm4.9-51.31a23.07,23.07,0,0,1,23.14,23.38c-.15,13.46-9.86,23-23.31,22.92C76.51,187.1,65.94,176.71,66,164.51A23.78,23.78,0,0,1,89.23,140.88Z"/><path class="cls-2" d="M88.7,277c-13-.43-23.34-11.36-22.67-23.91.64-12.27,11.67-22.78,23.57-22.46a23.22,23.22,0,0,1,22.8,23.77C112.09,267.73,101.92,277.43,88.7,277Z"/><path class="cls-2" d="M89.06,187.18C76.51,187.1,65.94,176.71,66,164.51a23.78,23.78,0,0,1,23.23-23.63,23.07,23.07,0,0,1,23.14,23.38C112.22,177.72,102.51,187.26,89.06,187.18Z"/><path class="cls-2" d="M112.34,343.2c.09,13.56-9.3,23.29-22.71,23.51A23.09,23.09,0,0,1,66,343.8c-.1-12.54,10.8-23.42,23.46-23.41A23.08,23.08,0,0,1,112.34,343.2Z"/><path class="cls-2" d="M510.91,320.44a23,23,0,0,1,23,22.63c0,12.11-10.79,22.79-23.06,22.79-11.69,0-22.18-10.56-22.32-22.47A22.33,22.33,0,0,1,510.91,320.44Z"/><path class="cls-2" d="M399.8,367.45a71.4,71.4,0,0,1-17.43,8.4,71.59,71.59,0,0,1-14.49,5.72A22.68,22.68,0,0,0,367,388a22.4,22.4,0,0,0,22.28,22.2,22.66,22.66,0,0,0,10.52-42.77Z"/><path class="cls-2" d="M510.57,276.51a22.09,22.09,0,0,1-22-22.56,22.48,22.48,0,0,1,23-22.56c12.4.32,22.39,10.51,22.15,22.6A22.57,22.57,0,0,1,510.57,276.51Z"/><path class="cls-2" d="M488.56,164.76c.1-13,9.86-22.48,23-22.33,12.52.14,22,9.88,21.87,22.57a22.43,22.43,0,1,1-44.86-.24Z"/><path class="cls-2" d="M610.36,253.65c.1-13,9.86-22.48,23-22.33,12.52.14,22,9.88,21.88,22.57a22.44,22.44,0,1,1-44.87-.24Z"/><path class="cls-1" d="M381.46,340.41c2.63,1.68,5.75,2.6,10.54,4.69l-27.68,30.48c1.76.32,3.5.7,5.22,1.12a74.12,74.12,0,0,1,11-12.81,71.6,71.6,0,0,1,30.72-19.73c1-.55,2.1-1.06,3.16-1.56l-5.63-2.08,27.34-30.94,13.29,14.28a71.34,71.34,0,0,1,7.56-5.35l-14.27-15.36,9-10.08,10.94,19.25c1.27-1.37,2.6-2.71,4-4,.77-.83,1.55-1.63,2.35-2.41l-.24-1.78c-1.31-2.23-2.65-4.44-4.09-6.58-5.44-8.12-5.22-14.06,1.33-21.57a71.13,71.13,0,0,1,6.3-25.77,38.84,38.84,0,0,1-6.83-22.34A38.4,38.4,0,0,1,487,193.32c-.87-3-1.77-6-2.69-8.92-12.48,8.1-20,.22-26.15-10.15-2.06-3.49-2.69-9.58-1.07-13.17,2.92-6.47,6.11-12.81,9.33-19q-5.15-9.09-11-17.74c-6.82,6.82-13.14,14.44-20.89,22.92L406.6,114.93l29.55-10.62-1.06-1q-4-2.78-7.61-5.89c-26.79,9.33-29.78,7.57-50.18-15.76a71.42,71.42,0,0,1-10.09,2.1l22,25c-19.72,13.72-22.26,13.27-32.24-4.58l-11-19.66c-3.45.09-6.89.25-10.33.45,6.76,12.26,13.78,24.39,20.59,36.66-10,7.69-16.19,6.58-24.15-2.26-22.76-25.27-62.94-19.87-77.46,11-5.63,12-11.91,15.32-23.7,14.07a100.59,100.59,0,0,0-12.49-.37c-2.7,2.83-5.37,5.7-8,8.61,6.7,0,13.49.81,20.14.17,12.57-1.21,18.88,3.1,21.56,16.09,1.61,7.78.61,11.36-5.78,15.65a505.51,505.51,0,0,0-41.16,30.15c-8.41,7-14.65,7.16-22.27-.49A83,83,0,0,0,172.71,206c-1,1.7-2,3.42-3,5.14v4.51c3,2.23,6.07,4.47,9.15,6.69,2.22,1.59,4.6,3,8,5.09-6.89,5.21-11.51,8.81-16.25,12.26l-.86.59V275l17,24.57c-6,0-11.67.25-17,.43v8.2c18.17.18,30.13,7.67,40.16,24.4,6.12,10.2,12.64,20.15,19.33,30,2.26,1.31,4.54,2.6,6.86,3.83q4.59,1.5,9.26,2.76c-13.18-19.08-26.59-38.59-40.72-59.1,14.68,0,25.76-.58,36.71.35,3.28.28,7.62,4.16,9.07,7.45,17.52,39.71,57.78,46.6,86.1,13.76,7.86-9.11,12.35-2.54,19.93.63-7.5,14.3-14.86,28.34-22,41.92,3.56,0,7.13-.06,10.69-.07,4.47-8.31,8.8-16.67,12.65-25.25C363.35,336.38,369.79,333,381.46,340.41ZM404,331.17c-3.55,3-11.43,2-17.09,1.2-5.25-.75-10.19-3.71-17.11-6.42l29.84-55.6L429.8,303C420.82,313.14,413.34,323.23,404,331.17ZM429,251.33l-20.09,8.3-2.47-2.57c3.45-6.68,6.9-13.35,11.82-22.85Zm6.23-41.15c10.19-2.6,19.79,7.78,20,20,3.65,11.14-6,18.1-13.09,15.49-7.47-2.75-13.07-13.54-16.72-22C424.15,220.88,430.79,211.31,435.21,210.18Zm-38.57,43-23.45-24.83,25.18-27.16C417,225.54,415.59,221.32,396.64,253.14ZM435,294.94l-23.45-25.49,20.26-9.1C448.63,280.27,449,283.47,435,294.94Zm20-15.72L442.7,256.7c9.17-3.63,17.6-10.9,21.27.61C465.51,262.15,459.3,269.45,455.05,279.22Zm3-71.1-21.5-8.31c3.87-7.46,7.11-13.72,10.39-20.06C464,190,466.13,195.24,458,208.12ZM431.6,188.26c-3.68,9-5.54,8.56-21.5-.5l23.67-26.07C447.67,172.39,434.73,180.59,431.6,188.26Zm-57.41-61.47c21.74-10,21.75-10,37.31,8,5.35,6.17,10.65,12.4,16.74,19.49l-26.59,29.21c-10.89-19.23-20.84-36.77-30.7-54.18A25.65,25.65,0,0,1,374.19,126.79Zm-5,17.3c5.24,11.63,12.15,22.5,20.43,37.54-16-6.2-28.71-10.6-40.82-16.23-2.19-1-2.44-7-2.92-10.75-.69-5.39-.77-10.85-1.1-16.14C355.58,130,363.24,130.86,369.2,144.09Zm-15.56,33.26c12.05,5.44,24.57,9.85,38.94,15.5l-25.45,29.08-33-35.75C337.83,173.4,344.44,173.2,353.64,177.35Zm-94.31-27a38.17,38.17,0,0,1,40.1-36.69c20.74,1.17,37.17,20,36,41.22-1.12,20.28-19.55,36.89-39.81,35.89C273.82,189.68,258.39,172.49,259.33,150.33Zm-2,37.82c1.85-1.29,6.9.25,9.4,2,16.93,11.83,34.32,14.24,53.35,5.09,2.93-1.41,9.06-.28,11.46,2,9.94,9.51,19,19.92,29.45,31.1-9.84,10.94-19,21.64-28.87,31.73-1.9,2-7,3.17-9.27,2C299.87,250,279.3,253.76,259.44,272c-19.25-14.56-37.54-28.39-57.68-43.64C221,214.24,239,200.89,257.3,188.15Zm-8.2,105.53c-1.53,3.4-7.71,5.53-12.18,6.55-4.82,1.11-10.08.25-18.91.25-14.85,4.72-26-4.29-33.62-20.09-1.19-2.46-3.15-4.54-4.75-6.79-13.85-19.45-11.39-28.16,11-36.74,2.63-1,7.15.2,9.63,2,15.69,11.31,30.63,23.7,46.68,34.47C256.91,280,252,287.36,249.1,293.68Zm48.14,48.05A37.56,37.56,0,0,1,259,304.37c-.38-21.23,15.86-38.39,36.77-38.84,22.26-.47,39.4,15.64,39.68,37.31C335.7,324.69,319.26,341.44,297.24,341.73ZM332.85,273c12.7-14,23.12-25.43,34.41-37.83L394.48,265c-17.68,6.9-32.65,13.48-48.19,18.12C343.36,284,338.12,277.12,332.85,273ZM345,319.24c1.74-28.48,4.67-31.33,37.59-37.43-6.94,13.46-11.79,25.54-19.25,35.71C361,320.73,351.61,318.79,345,319.24Z"/><path class="cls-2" d="M474.15,246.4a71.46,71.46,0,0,1,19-30c-1.9-7.73-3.92-15.43-6.13-23.07a38.4,38.4,0,0,0-21.56,34.55,38.84,38.84,0,0,0,6.83,22.34C472.88,248.93,473.49,247.66,474.15,246.4Z"/><path class="cls-2" d="M297,110c21.28-.33,38.08,16.77,38.66,39.35.59,23.26-15.95,41.45-37.82,41.6-22.34.15-38.29-16.75-38.44-40.73C259.21,127.46,275.25,110.31,297,110Z"/><path class="cls-2" d="M336,303.86a38.52,38.52,0,0,1-38.66,38.46,38.07,38.07,0,0,1-37.88-37.73c-.21-21.34,17.39-39.57,38-39.31C319.08,265.54,335.86,282.33,336,303.86Z"/><path class="cls-3" d="M463.91,334.56c7.67,10.56,14.74,16.88,29.07,15.37,8.74-.93,20.53,5.31,27.42,12,41.59,40.29,82.33,81.49,123,122.72,18,18.19,17.93,39.83,1,57.08-19,19.37-40.22,20.19-59.41,1.26-40.83-40.3-81.66-80.63-121.52-121.88-7.05-7.28-13.58-19.35-13-28.74.9-14.09-4.8-21.42-16-29.23-47.21,34.22-99.81,46.28-157.13,29.59-41.25-12-73.56-36.73-97.08-72.86-45.52-69.9-33-166.67,28.84-221.94C275,39,370.57,37.05,437.92,92.49,494.48,139.06,531.71,237,463.91,334.56ZM328,91.52c-74.88-.61-135.3,58.41-135.94,132.78-.64,74.91,58.2,135.63,132.39,136.62,75.14,1,136.54-59,137-133.9A134.23,134.23,0,0,0,328,91.52Z"/></svg>