<svg id="Layer_1" data-name="Layer 1" xmlns="http://www.w3.org/2000/svg" viewBox="0 0 796 398"><defs><style>.cls-1{fill:none;stroke:#c4793d;stroke-miterlimit:10;}</style></defs><polyline class="cls-1" points="0 295.99 122 334 315 362 475.51 362 558 398 636 373 714 365 796 295.99"/><polygon class="cls-1" points="472.5 44.5 519.5 45.5 516.5 9.5 478.5 8.5 472.5 44.5"/><polygon class="cls-1" points="523.5 35.5 530.18 35.5 537.5 55.5 529.5 56.5 523.5 35.5"/><polygon class="cls-1" points="462.5 32.5 469.5 34.5 463.5 54.5 455.5 52.5 462.5 32.5"/><polyline class="cls-1" points="475.51 362 475.51 308.52 475.51 294.5 507.5 300.5 475.51 308.52"/><polyline class="cls-1" points="315 362 315 307.79 315 294.53 347.5 300.5 315 307.79"/><rect class="cls-1" x="503.5" y="57.5" width="4" height="4" transform="translate(105.98 374.87) rotate(-45)"/><rect class="cls-1" x="507.09" y="71.39" width="5.17" height="5.17" transform="translate(2.09 161.14) rotate(-18)"/><rect class="cls-1" x="489.31" y="76.28" width="7.49" height="7.49" transform="translate(130.63 423.76) rotate(-52.7)"/></svg>