<svg id="Layer_1" data-name="Layer 1" xmlns="http://www.w3.org/2000/svg" viewBox="0 0 796 240"><defs><style>.cls-1{fill:none;stroke:#c3793d;stroke-miterlimit:10;}.cls-2{fill:#c3793d;}</style></defs><polyline class="cls-1" points="0 165.41 58.93 183.77 152.15 197.29 229.68 197.29 269.52 214.68 307.2 202.6 344.87 198.74 384.48 165.41"/><polygon class="cls-1" points="228.22 43.93 250.93 44.42 249.48 27.03 231.12 26.55 228.22 43.93"/><polygon class="cls-1" points="252.86 39.59 256.09 39.59 259.62 49.25 255.76 49.73 252.86 39.59"/><polygon class="cls-1" points="223.39 38.14 226.78 39.1 223.88 48.76 220.01 47.8 223.39 38.14"/><polyline class="cls-1" points="229.68 197.29 229.68 171.46 229.68 164.69 245.13 167.59 229.68 171.46"/><polyline class="cls-1" points="152.15 197.29 152.15 171.11 152.15 164.7 167.85 167.59 152.15 171.11"/><rect class="cls-1" x="243.2" y="50.21" width="1.93" height="1.93" transform="translate(35.32 187.64) rotate(-45)"/><rect class="cls-1" x="244.93" y="56.92" width="2.5" height="2.5" transform="translate(-5.93 78.93) rotate(-18)"/><rect class="cls-1" x="236.34" y="59.28" width="3.62" height="3.62" transform="translate(45.25 213.52) rotate(-52.7)"/><polyline class="cls-1" points="411.37 165.41 470.3 183.77 563.52 197.29 641.05 197.29 680.89 214.68 718.57 202.6 756.24 198.74 795.85 165.41"/><polygon class="cls-1" points="572.11 88.59 593.1 79.94 584.8 64.58 567.79 71.5 572.11 88.59"/><polygon class="cls-1" points="592.93 74.74 595.89 73.44 603 80.88 599.65 82.87 592.93 74.74"/><polygon class="cls-1" points="565.36 85.21 568.84 84.74 570.06 94.75 566.13 95.42 565.36 85.21"/><polyline class="cls-1" points="641.05 197.29 641.05 171.46 641.05 164.69 656.5 167.59 641.05 171.46"/><polyline class="cls-1" points="563.52 197.29 563.52 171.11 563.52 164.7 579.22 167.59 563.52 171.11"/><rect class="cls-1" x="588.65" y="87.87" width="1.93" height="1.93" transform="matrix(0.36, -0.93, 0.93, 0.36, 291.93, 605.48)"/><rect class="cls-1" x="593.02" y="93.19" width="2.5" height="2.5" transform="translate(87.29 418.54) rotate(-41.62)"/><rect class="cls-1" x="586.27" y="98.52" width="3.62" height="3.62" transform="translate(351.53 648) rotate(-76.32)"/><path class="cls-2" d="M614.55,159c1.57-2.61,4.06-2.75,6.75-2.29.93.16,1.85.41,2.78.58a4.65,4.65,0,0,0,1.29,0,2.34,2.34,0,0,0,2.29-2.43c-.62.32-1.19.65-1.79.9-.27.11-.72.19-.9,0a1.13,1.13,0,0,1-.14-.89c.17-.81.39-1.61.63-2.4a.59.59,0,0,0-.3-.8c-1.36-.83-2.7-1.7-4-2.55-.34-.21-.64-.44-.5-.89s.52-.42.88-.4l4.66.19c.05-1,.07-2,.16-2.91,0-.27.18-.68.38-.76a1,1,0,0,1,.81.26c.71.65,1.37,1.36,1.92,1.93l3.33-3.12c.1-.09.18-.24.3-.28s.62-.27.76-.17a1,1,0,0,1,.29.78c-.2,1-.49,1.91-.74,2.86-.19.7-.34,1.42-.57,2.11a.52.52,0,0,0,.29.71c.76.45,1.52.92,2.24,1.43.21.15.47.5.42.68a1.05,1.05,0,0,1-.63.57c-.94.3-1.89.53-2.9.81.15,1.15.3,2.28.44,3.41a13.9,13.9,0,0,1,.19,1.58c0,.24-.17.65-.34.7a.94.94,0,0,1-.79-.26c-.83-1-1.61-2-2.43-3,0,0-.1.09-.11.13-.49,2.51-2.35,3.52-4.75,3.31-1.26-.11-2.51-.47-3.77-.68a4.83,4.83,0,0,0-3.75.54,6.84,6.84,0,0,0-1,1.06c1.24,1.07,2.38,2,3.5,3,.63.56.64.91.21,1.66-.33.56-.64,1.13-1,1.67a.52.52,0,0,0,0,.72,18.7,18.7,0,0,1-.52,23.44A17.89,17.89,0,0,1,607,196.61a18.67,18.67,0,0,1-6.84-36.7,18,18,0,0,1,6.59-.11.53.53,0,0,0,.66-.31c.34-.6.7-1.18,1.06-1.78s.71-.79,1.42-.52C611.46,157.76,613,158.38,614.55,159Zm3.72,4.79c-.06-.08-.08-.14-.12-.18a20.93,20.93,0,0,0-8.15-4.86.64.64,0,0,0-.54.23c-.41.62-.78,1.27-1.15,1.92a.86.86,0,0,1-1,.47,17.18,17.18,0,0,0-6.11-.08,16.82,16.82,0,0,0-14.13,20.16,16.4,16.4,0,0,0,6,10.23,17.21,17.21,0,0,0,24-24.4,1,1,0,0,1-.1-1.38C617.45,165.23,617.84,164.52,618.27,163.79Zm12.94-8,.12-.06c-.12-.91-.23-1.83-.37-2.74s0-1,.79-1.21l1.89-.51c-.66-.43-1.18-.79-1.72-1.1a.87.87,0,0,1-.46-1.17c.31-1,.56-2.11.82-3.11-.67.62-1.36,1.26-2,1.91-.52.49-.77.5-1.28,0l-1.4-1.37-.17.07v1.71c0,1-.17,1.1-1.11,1.06s-1.71-.08-2.57-.12a25.18,25.18,0,0,0,2.73,1.89.79.79,0,0,1,.39,1c-.2.64-.34,1.3-.53,2.05l1.78-.93c.68-.35.84-.31,1.3.27Z"/></svg>