<?xml version="1.0" encoding="UTF-8"?>
<svg id="Lines" xmlns="http://www.w3.org/2000/svg" viewBox="0 0 1433.5 512">
  <defs>
    <style>
      .cls-1 {
        fill: #fff;
      }

      .cls-2 {
        fill: red;
      }

      .cls-2, .cls-3 {
        stroke: #fff;
        stroke-miterlimit: 10;
      }

      .cls-3 {
        fill: none;
      }
    </style>
  </defs>
  <g>
    <rect class="cls-2" x="214.24" y="134.55" width="61.07" height="61.07"/>
    <rect class="cls-3" x="35.82" y="14.2" width="478.99" height="478.99"/>
    <line class="cls-3" x1="275.32" y1="14.2" x2="275.32" y2="493.19"/>
    <line class="cls-3" x1="35.82" y1="253.7" x2="514.81" y2="253.7"/>
    <rect class="cls-3" x="35.82" y="14.8" width="238.3" height="239.5"/>
    <line class="cls-3" x1="154.97" y1="14.2" x2="154.97" y2="253.7"/>
    <line class="cls-3" x1="35.82" y1="134.55" x2="275.32" y2="133.95"/>
    <rect class="cls-3" x="36.07" y="253.71" width="238.3" height="239.5"/>
    <line class="cls-3" x1="155.22" y1="253.11" x2="155.22" y2="492.61"/>
    <line class="cls-3" x1="36.07" y1="373.46" x2="275.56" y2="372.86"/>
    <line class="cls-3" x1="154.97" y1="196.04" x2="275.91" y2="196.04"/>
    <line class="cls-3" x1="214.67" y1="134.55" x2="214.67" y2="253.11"/>
  </g>
  <g>
    <circle class="cls-3" cx="942.82" cy="86.42" r="25.63"/>
    <line class="cls-3" x1="942.82" y1="112.06" x2="668.36" y2="189.17"/>
    <line class="cls-3" x1="943.14" y1="112.09" x2="1217.6" y2="189.19"/>
    <line class="cls-3" x1="943.14" y1="112.07" x2="800.45" y2="189.18"/>
    <line class="cls-3" x1="943.31" y1="112.1" x2="1086.01" y2="189.21"/>
    <rect class="cls-3" x="651.57" y="189.4" width="33.59" height="33.59"/>
    <circle class="cls-3" cx="800.59" cy="206.48" r="17.08"/>
    <circle class="cls-3" cx="1086.28" cy="206.21" r="17.08"/>
    <circle class="cls-3" cx="1217.98" cy="206.21" r="17.08"/>
    <line class="cls-3" x1="800.79" y1="224.21" x2="686.31" y2="301.32"/>
    <line class="cls-3" x1="800.93" y1="224.24" x2="915.41" y2="301.35"/>
    <line class="cls-3" x1="800.93" y1="224.22" x2="741.41" y2="301.33"/>
    <line class="cls-3" x1="801" y1="224.25" x2="819.07" y2="301.22"/>
    <line class="cls-3" x1="1086.37" y1="223.32" x2="971.89" y2="300.43"/>
    <line class="cls-3" x1="1086.51" y1="223.35" x2="1201" y2="300.46"/>
    <line class="cls-3" x1="1086.51" y1="223.34" x2="1026.99" y2="300.45"/>
    <line class="cls-3" x1="1086.58" y1="223.37" x2="1146.11" y2="300.48"/>
    <circle class="cls-3" cx="917.35" cy="318.5" r="17.08"/>
    <line class="cls-3" x1="917.55" y1="336.23" x2="803.06" y2="413.34"/>
    <line class="cls-3" x1="917.68" y1="336.26" x2="1032.17" y2="413.37"/>
    <line class="cls-3" x1="917.68" y1="336.24" x2="858.16" y2="413.35"/>
    <line class="cls-3" x1="917.75" y1="336.27" x2="977.28" y2="413.38"/>
    <rect class="cls-3" x="785.92" y="413.03" width="33.59" height="33.59"/>
    <rect class="cls-2" x="841.61" y="413.03" width="33.59" height="33.59"/>
    <rect class="cls-3" x="961.82" y="413.03" width="33.59" height="33.59"/>
    <rect class="cls-3" x="1017.51" y="413.03" width="33.59" height="33.59"/>
    <rect class="cls-3" x="952.98" y="300.77" width="33.59" height="33.59"/>
    <rect class="cls-3" x="1008.67" y="300.77" width="33.59" height="33.59"/>
    <rect class="cls-3" x="1128.88" y="300.77" width="33.59" height="33.59"/>
    <rect class="cls-3" x="1184.57" y="300.77" width="33.59" height="33.59"/>
    <rect class="cls-3" x="669.24" y="301.66" width="33.59" height="33.59"/>
    <rect class="cls-3" x="724.93" y="301.66" width="33.59" height="33.59"/>
    <rect class="cls-3" x="802.72" y="301.66" width="33.59" height="33.59"/>
  </g>
  <g>
    <path class="cls-1" d="m609.54,200.05h-.27v16.11h-2.94v-20.94h4.32l6.15,16.11h.27v-16.11h2.94v20.94h-4.32l-6.15-16.11Z"/>
    <path class="cls-1" d="m624.75,216.16v-20.94h13.11v2.82h-9.75v6.09h9.39v2.82h-9.39v6.39h9.75v2.82h-13.11Z"/>
  </g>
  <g>
    <path class="cls-1" d="m747.71,200.05h-.27v16.11h-2.94v-20.94h4.32l6.15,16.11h.27v-16.11h2.94v20.94h-4.32l-6.15-16.11Z"/>
    <path class="cls-1" d="m762.59,216.16l-1.5-20.94h2.94l.75,12.18.33,5.37h.24l2.37-12.48h3.33l2.37,12.48h.24l.33-5.37.78-12.18h2.82l-1.5,20.94h-4.5l-2.13-12.12h-.24l-2.13,12.12h-4.5Z"/>
  </g>
  <g>
    <path class="cls-1" d="m1033.8,216.52c-1.82,0-3.35-.32-4.59-.95-1.24-.63-2.26-1.48-3.06-2.53l2.16-2.07c.8.96,1.65,1.67,2.55,2.12.9.45,1.92.67,3.06.67,1.32,0,2.33-.3,3.05-.91.71-.6,1.06-1.47,1.06-2.6,0-.91-.26-1.61-.78-2.1-.52-.49-1.41-.85-2.67-1.07l-2.28-.36c-1-.16-1.84-.42-2.52-.79-.68-.37-1.23-.81-1.65-1.32-.42-.51-.73-1.08-.91-1.71-.19-.63-.29-1.29-.29-1.99,0-1.98.64-3.48,1.92-4.51,1.28-1.03,3.04-1.54,5.28-1.54,1.66,0,3.08.26,4.25.79,1.17.52,2.11,1.26,2.83,2.21l-2.1,2.1c-.58-.7-1.27-1.26-2.05-1.69-.79-.43-1.77-.65-2.93-.65-1.24,0-2.19.27-2.83.8-.65.53-.97,1.31-.97,2.34,0,.87.25,1.55.76,2.04.51.49,1.41.85,2.72,1.07l2.22.39c1.88.34,3.25,1.02,4.11,2.05.86,1.03,1.29,2.28,1.29,3.76,0,.96-.17,1.84-.49,2.64-.33.8-.82,1.48-1.47,2.04-.65.56-1.45.99-2.4,1.3-.95.31-2.04.46-3.25.46Z"/>
    <path class="cls-1" d="m1045.23,216.16l-1.5-20.94h2.94l.75,12.18.33,5.37h.24l2.37-12.48h3.33l2.37,12.48h.24l.33-5.37.78-12.18h2.82l-1.5,20.94h-4.5l-2.13-12.12h-.24l-2.13,12.12h-4.5Z"/>
  </g>
  <g>
    <path class="cls-1" d="m1167.51,216.52c-1.82,0-3.35-.32-4.59-.95-1.24-.63-2.26-1.48-3.06-2.53l2.16-2.07c.8.96,1.65,1.67,2.55,2.12.9.45,1.92.67,3.06.67,1.32,0,2.33-.3,3.05-.91.71-.6,1.06-1.47,1.06-2.6,0-.91-.26-1.61-.78-2.1-.52-.49-1.41-.85-2.67-1.07l-2.28-.36c-1-.16-1.84-.42-2.52-.79-.68-.37-1.23-.81-1.65-1.32-.42-.51-.73-1.08-.91-1.71-.19-.63-.29-1.29-.29-1.99,0-1.98.64-3.48,1.92-4.51,1.28-1.03,3.04-1.54,5.28-1.54,1.66,0,3.08.26,4.25.79,1.17.52,2.11,1.26,2.83,2.21l-2.1,2.1c-.58-.7-1.27-1.26-2.05-1.69-.79-.43-1.77-.65-2.93-.65-1.24,0-2.19.27-2.83.8-.65.53-.97,1.31-.97,2.34,0,.87.25,1.55.76,2.04.51.49,1.41.85,2.72,1.07l2.22.39c1.88.34,3.25,1.02,4.11,2.05.86,1.03,1.29,2.28,1.29,3.76,0,.96-.17,1.84-.49,2.64-.33.8-.82,1.48-1.47,2.04-.65.56-1.45.99-2.4,1.3-.95.31-2.04.46-3.25.46Z"/>
    <path class="cls-1" d="m1179.27,216.16v-20.94h13.11v2.82h-9.75v6.09h9.39v2.82h-9.39v6.39h9.75v2.82h-13.11Z"/>
  </g>
  <g>
    <path class="cls-1" d="m298.84,141.76v10.74c0,.72.02,1.37.06,1.95.04.58.16,1.08.36,1.49.2.41.5.72.9.94.4.22.95.33,1.65.33s1.25-.11,1.65-.33c.4-.22.7-.53.9-.94.2-.41.32-.91.36-1.49.04-.58.06-1.24.06-1.95v-10.74h2.8v10.23c0,1.25-.07,2.35-.21,3.29-.14.94-.42,1.72-.84,2.35-.42.62-1,1.1-1.76,1.41-.76.32-1.75.47-2.96.47s-2.2-.16-2.96-.47c-.76-.32-1.35-.79-1.76-1.41-.42-.62-.7-1.41-.84-2.35-.14-.94-.21-2.04-.21-3.29v-10.23h2.8Z"/>
    <path class="cls-1" d="m316.84,159.51c-1.4,0-2.6-.22-3.61-.67-1.01-.45-1.82-1.05-2.44-1.8l1.68-1.5c.57.62,1.2,1.09,1.91,1.41.71.33,1.55.49,2.51.49.88,0,1.6-.15,2.14-.45.54-.3.81-.77.81-1.4,0-.27-.05-.49-.15-.67s-.24-.33-.43-.45c-.18-.12-.4-.21-.64-.28-.24-.07-.5-.12-.76-.15l-2.05-.33c-.5-.07-1.01-.17-1.53-.33-.52-.15-.98-.36-1.39-.64-.41-.27-.74-.63-1-1.06-.26-.43-.39-.98-.39-1.65,0-1.32.5-2.32,1.51-3,1.01-.68,2.34-1.03,3.99-1.03,1.2,0,2.24.18,3.11.54s1.6.85,2.19,1.49l-1.53,1.6c-.33-.38-.81-.74-1.42-1.06-.62-.33-1.43-.49-2.45-.49-1.82,0-2.72.58-2.72,1.72,0,.55.2.93.59,1.14.39.21.85.35,1.39.41l2.05.32c.52.08,1.03.19,1.54.33.51.13.97.34,1.38.61.41.28.74.63,1,1.06.26.43.39.98.39,1.65,0,1.3-.5,2.32-1.51,3.06-1.01.74-2.4,1.11-4.16,1.11Z"/>
    <path class="cls-1" d="m332.09,159.51c-.98,0-1.87-.16-2.65-.47-.78-.32-1.44-.77-1.97-1.35-.53-.58-.94-1.29-1.22-2.11-.28-.83-.43-1.75-.43-2.79s.15-1.97.44-2.8c.29-.83.7-1.55,1.22-2.14s1.16-1.05,1.91-1.36,1.58-.48,2.5-.48,1.72.15,2.45.46c.73.31,1.36.75,1.88,1.31.52.57.91,1.24,1.19,2.02.28.78.41,1.65.41,2.6v1.02h-9.25v.42c0,1.01.32,1.83.95,2.47.63.64,1.51.96,2.62.96.83,0,1.55-.18,2.14-.53.59-.36,1.07-.83,1.44-1.43l1.7,1.5c-.43.75-1.1,1.39-1.99,1.91-.89.52-2,.78-3.34.78Zm-.2-11.42c-.48,0-.93.08-1.34.25-.41.17-.76.4-1.05.71-.29.31-.52.67-.69,1.09-.17.42-.25.88-.25,1.38v.17h6.47v-.25c0-1.02-.29-1.83-.86-2.44-.58-.61-1.34-.91-2.29-.91Z"/>
    <path class="cls-1" d="m341.21,156.99h3.42v-8.45h-3.42v-2.23h6.15v3.43h.15c.12-.45.28-.88.5-1.3.22-.42.49-.78.83-1.09.33-.31.74-.56,1.22-.75.48-.19,1.05-.29,1.7-.29h1.55v2.6h-2.55c-1,0-1.82.29-2.45.88-.63.59-.95,1.38-.95,2.38v4.81h4.67v2.22h-10.82v-2.22Z"/>
    <path class="cls-1" d="m360.91,140.71h3.88l-3.12,7.45h-2.1l1.35-7.45Z"/>
    <path class="cls-1" d="m376.84,159.51c-1.4,0-2.6-.22-3.61-.67-1.01-.45-1.82-1.05-2.44-1.8l1.68-1.5c.57.62,1.2,1.09,1.91,1.41.71.33,1.55.49,2.51.49.88,0,1.6-.15,2.14-.45.54-.3.81-.77.81-1.4,0-.27-.05-.49-.15-.67s-.24-.33-.43-.45c-.18-.12-.4-.21-.64-.28-.24-.07-.5-.12-.76-.15l-2.05-.33c-.5-.07-1.01-.17-1.53-.33-.52-.15-.98-.36-1.39-.64-.41-.27-.74-.63-1-1.06-.26-.43-.39-.98-.39-1.65,0-1.32.5-2.32,1.51-3,1.01-.68,2.34-1.03,3.99-1.03,1.2,0,2.24.18,3.11.54s1.6.85,2.19,1.49l-1.53,1.6c-.33-.38-.81-.74-1.42-1.06-.62-.33-1.43-.49-2.45-.49-1.82,0-2.72.58-2.72,1.72,0,.55.2.93.59,1.14.39.21.85.35,1.39.41l2.05.32c.52.08,1.03.19,1.54.33.51.13.97.34,1.38.61.41.28.74.63,1,1.06.26.43.39.98.39,1.65,0,1.3-.5,2.32-1.51,3.06-1.01.74-2.4,1.11-4.16,1.11Z"/>
    <path class="cls-1" d="m296.19,186.99h4.28v-14.05h-4.28v-2.22h7v16.28h4.28v2.22h-11.28v-2.22Z"/>
    <path class="cls-1" d="m316.81,189.51c-.95,0-1.8-.16-2.56-.47-.76-.32-1.4-.77-1.93-1.35-.52-.58-.93-1.29-1.21-2.12-.28-.83-.43-1.77-.43-2.8s.14-1.97.43-2.8c.28-.83.69-1.54,1.21-2.12.53-.58,1.17-1.03,1.93-1.35.76-.32,1.61-.48,2.56-.48s1.8.16,2.56.48c.76.32,1.4.77,1.93,1.35.52.58.93,1.29,1.21,2.12.28.83.43,1.77.43,2.8s-.14,1.97-.43,2.8c-.28.83-.69,1.54-1.21,2.12-.53.58-1.17,1.03-1.93,1.35-.76.32-1.61.47-2.56.47Zm0-2.15c1,0,1.8-.3,2.39-.91.59-.61.89-1.51.89-2.71v-1.95c0-1.2-.3-2.1-.89-2.71-.59-.61-1.39-.91-2.39-.91s-1.8.3-2.39.91c-.59.61-.89,1.51-.89,2.71v1.95c0,1.2.3,2.1.89,2.71.59.61,1.39.91,2.39.91Z"/>
    <path class="cls-1" d="m332.29,189.51c-.97,0-1.83-.16-2.59-.47-.76-.32-1.4-.77-1.92-1.35-.53-.58-.93-1.29-1.2-2.12-.27-.83-.41-1.77-.41-2.8s.14-1.97.41-2.8c.28-.83.68-1.54,1.2-2.12.53-.58,1.17-1.03,1.92-1.35.76-.32,1.61-.48,2.56-.48,1.33,0,2.4.28,3.21.84.81.56,1.41,1.29,1.81,2.18l-2.12,1.15c-.23-.6-.59-1.07-1.06-1.42-.47-.35-1.09-.52-1.84-.52-1.03,0-1.83.31-2.4.94-.57.63-.85,1.46-.85,2.5v2.16c0,1.02.28,1.85.85,2.49.57.64,1.38.96,2.45.96.8,0,1.45-.18,1.96-.55.51-.37.91-.87,1.21-1.5l2,1.22c-.42.9-1.05,1.63-1.9,2.2s-1.95.85-3.3.85Z"/>
    <path class="cls-1" d="m351.61,189.21c-.78,0-1.37-.2-1.76-.6-.39-.4-.63-.93-.71-1.58h-.12c-.25.78-.7,1.39-1.36,1.83-.66.43-1.5.65-2.51.65-1.32,0-2.37-.35-3.15-1.04-.78-.69-1.18-1.65-1.18-2.86s.46-2.2,1.39-2.86c.93-.66,2.35-.99,4.26-.99h2.47v-1c0-1.75-.93-2.62-2.78-2.62-.83,0-1.51.16-2.03.49-.52.33-.95.75-1.3,1.29l-1.62-1.33c.37-.7.98-1.3,1.85-1.81.87-.51,1.98-.76,3.35-.76,1.63,0,2.92.39,3.85,1.17.93.78,1.4,1.92,1.4,3.4v6.47h1.62v2.15h-1.67Zm-5.7-1.7c.88,0,1.61-.2,2.18-.6.57-.4.85-.91.85-1.54v-1.86h-2.43c-1.97,0-2.95.59-2.95,1.76v.5c0,.58.21,1.01.62,1.3.42.29.99.43,1.72.43Z"/>
    <path class="cls-1" d="m362.59,189.21c-1.13,0-1.97-.3-2.5-.91-.53-.61-.8-1.39-.8-2.36v-7.41h-3.97v-2.23h2.82c.48,0,.83-.1,1.03-.29.2-.19.3-.54.3-1.04v-3.23h2.55v4.55h5.5v2.23h-5.5v8.45h5.5v2.22h-4.92Z"/>
    <path class="cls-1" d="m371.84,186.99h4.4v-8.45h-4.4v-2.23h7.12v10.68h4.12v2.22h-11.25v-2.22Zm5.78-13.03c-.7,0-1.19-.14-1.46-.42s-.41-.63-.41-1.05v-.53c0-.42.14-.77.41-1.05s.75-.42,1.44-.42,1.19.14,1.46.42c.27.28.41.63.41,1.05v.53c0,.42-.14.77-.41,1.05-.28.28-.75.42-1.44.42Z"/>
    <path class="cls-1" d="m391.81,189.51c-.95,0-1.8-.16-2.56-.47-.76-.32-1.4-.77-1.93-1.35-.52-.58-.93-1.29-1.21-2.12-.28-.83-.43-1.77-.43-2.8s.14-1.97.43-2.8c.28-.83.69-1.54,1.21-2.12.53-.58,1.17-1.03,1.93-1.35.76-.32,1.61-.48,2.56-.48s1.8.16,2.56.48c.76.32,1.4.77,1.93,1.35.52.58.93,1.29,1.21,2.12.28.83.43,1.77.43,2.8s-.14,1.97-.43,2.8c-.28.83-.69,1.54-1.21,2.12-.53.58-1.17,1.03-1.93,1.35-.76.32-1.61.47-2.56.47Zm0-2.15c1,0,1.8-.3,2.39-.91.59-.61.89-1.51.89-2.71v-1.95c0-1.2-.3-2.1-.89-2.71-.59-.61-1.39-.91-2.39-.91s-1.8.3-2.39.91c-.59.61-.89,1.51-.89,2.71v1.95c0,1.2.3,2.1.89,2.71.59.61,1.39.91,2.39.91Z"/>
    <path class="cls-1" d="m401.41,189.21v-12.9h2.72v2.2h.12c.13-.33.3-.65.51-.96.21-.31.46-.58.76-.8.3-.22.65-.4,1.05-.54.4-.13.87-.2,1.4-.2,1.3,0,2.35.42,3.15,1.28.8.85,1.2,2.06,1.2,3.62v8.3h-2.72v-7.9c0-2.05-.89-3.07-2.68-3.07-.35,0-.69.05-1.03.14-.33.09-.63.23-.9.41-.27.18-.48.42-.64.7-.16.28-.24.61-.24.97v8.75h-2.72Z"/>
  </g>
  <g>
    <path class="cls-1" d="m1308.1,93.06v-13.96h2.24v12.08h6.36v1.88h-8.6Z"/>
    <path class="cls-1" d="m1324.16,93.3c-.79,0-1.49-.13-2.12-.38-.63-.25-1.15-.61-1.58-1.08-.43-.47-.75-1.03-.98-1.69-.23-.66-.34-1.4-.34-2.23s.12-1.57.35-2.24c.23-.67.56-1.24.98-1.71s.93-.84,1.53-1.09c.6-.25,1.27-.38,2-.38s1.37.12,1.96.37c.59.25,1.09.6,1.5,1.05.41.45.73.99.95,1.62.22.63.33,1.32.33,2.08v.82h-7.4v.34c0,.81.25,1.47.76,1.98.51.51,1.21.76,2.1.76.67,0,1.24-.14,1.71-.43.47-.29.86-.67,1.15-1.14l1.36,1.2c-.35.6-.88,1.11-1.59,1.52-.71.41-1.6.62-2.67.62Zm-.16-9.14c-.39,0-.74.07-1.07.2-.33.13-.61.32-.84.57-.23.25-.42.54-.55.87-.13.33-.2.7-.2,1.1v.14h5.18v-.2c0-.81-.23-1.46-.69-1.95s-1.07-.73-1.83-.73Z"/>
    <path class="cls-1" d="m1334.6,93.06l-3.7-10.32h2.26l1.42,4.36,1.34,4.14h.12l1.34-4.14,1.42-4.36h2.18l-3.7,10.32h-2.68Z"/>
    <path class="cls-1" d="m1348.16,93.3c-.79,0-1.49-.13-2.12-.38-.63-.25-1.15-.61-1.58-1.08-.43-.47-.75-1.03-.98-1.69-.23-.66-.34-1.4-.34-2.23s.12-1.57.35-2.24c.23-.67.56-1.24.98-1.71s.93-.84,1.53-1.09c.6-.25,1.27-.38,2-.38s1.37.12,1.96.37c.59.25,1.09.6,1.5,1.05.41.45.73.99.95,1.62.22.63.33,1.32.33,2.08v.82h-7.4v.34c0,.81.25,1.47.76,1.98.51.51,1.21.76,2.1.76.67,0,1.24-.14,1.71-.43.47-.29.86-.67,1.15-1.14l1.36,1.2c-.35.6-.88,1.11-1.59,1.52-.71.41-1.6.62-2.67.62Zm-.16-9.14c-.39,0-.74.07-1.07.2-.33.13-.61.32-.84.57-.23.25-.42.54-.55.87-.13.33-.2.7-.2,1.1v.14h5.18v-.2c0-.81-.23-1.46-.69-1.95-.46-.49-1.07-.73-1.83-.73Z"/>
    <path class="cls-1" d="m1355.44,91.28h3.42v-11.24h-3.42v-1.78h5.6v13.02h3.42v1.78h-9.02v-1.78Z"/>
    <path class="cls-1" d="m1379.7,93.06v-1.84h3.92v-10.48h-.16l-3.24,3.46-1.38-1.24,3.56-3.86h3.46v12.12h3.38v1.84h-9.54Z"/>
    <path class="cls-1" d="m1395.94,85.82c-.64,0-1.09-.13-1.35-.4s-.39-.59-.39-.98v-.52c0-.39.13-.71.39-.98s.71-.4,1.35-.4,1.09.13,1.35.4.39.59.39.98v.52c0,.39-.13.71-.39.98s-.71.4-1.35.4Zm0,7.44c-.64,0-1.09-.13-1.35-.4s-.39-.59-.39-.98v-.52c0-.39.13-.71.39-.98s.71-.4,1.35-.4,1.09.13,1.35.4.39.59.39.98v.52c0,.39-.13.71-.39.98s-.71.4-1.35.4Z"/>
  </g>
  <g>
    <path class="cls-1" d="m1308.1,212.31v-13.96h2.24v12.08h6.36v1.88h-8.6Z"/>
    <path class="cls-1" d="m1324.16,212.55c-.79,0-1.49-.13-2.12-.38-.63-.25-1.15-.61-1.58-1.08-.43-.47-.75-1.03-.98-1.69-.23-.66-.34-1.4-.34-2.23s.12-1.57.35-2.24c.23-.67.56-1.24.98-1.71s.93-.84,1.53-1.09c.6-.25,1.27-.38,2-.38s1.37.12,1.96.37c.59.25,1.09.6,1.5,1.05.41.45.73.99.95,1.62.22.63.33,1.32.33,2.08v.82h-7.4v.34c0,.81.25,1.47.76,1.98.51.51,1.21.76,2.1.76.67,0,1.24-.14,1.71-.43.47-.29.86-.67,1.15-1.14l1.36,1.2c-.35.6-.88,1.11-1.59,1.52-.71.41-1.6.62-2.67.62Zm-.16-9.14c-.39,0-.74.07-1.07.2-.33.13-.61.32-.84.57-.23.25-.42.54-.55.87-.13.33-.2.7-.2,1.1v.14h5.18v-.2c0-.81-.23-1.46-.69-1.95s-1.07-.73-1.83-.73Z"/>
    <path class="cls-1" d="m1334.6,212.31l-3.7-10.32h2.26l1.42,4.36,1.34,4.14h.12l1.34-4.14,1.42-4.36h2.18l-3.7,10.32h-2.68Z"/>
    <path class="cls-1" d="m1348.16,212.55c-.79,0-1.49-.13-2.12-.38-.63-.25-1.15-.61-1.58-1.08-.43-.47-.75-1.03-.98-1.69-.23-.66-.34-1.4-.34-2.23s.12-1.57.35-2.24c.23-.67.56-1.24.98-1.71s.93-.84,1.53-1.09c.6-.25,1.27-.38,2-.38s1.37.12,1.96.37c.59.25,1.09.6,1.5,1.05.41.45.73.99.95,1.62.22.63.33,1.32.33,2.08v.82h-7.4v.34c0,.81.25,1.47.76,1.98.51.51,1.21.76,2.1.76.67,0,1.24-.14,1.71-.43.47-.29.86-.67,1.15-1.14l1.36,1.2c-.35.6-.88,1.11-1.59,1.52-.71.41-1.6.62-2.67.62Zm-.16-9.14c-.39,0-.74.07-1.07.2-.33.13-.61.32-.84.57-.23.25-.42.54-.55.87-.13.33-.2.7-.2,1.1v.14h5.18v-.2c0-.81-.23-1.46-.69-1.95-.46-.49-1.07-.73-1.83-.73Z"/>
    <path class="cls-1" d="m1355.44,210.53h3.42v-11.24h-3.42v-1.78h5.6v13.02h3.42v1.78h-9.02v-1.78Z"/>
    <path class="cls-1" d="m1388.84,212.31h-9.64v-2.14l4.56-3.98c.72-.64,1.28-1.25,1.67-1.82.39-.57.59-1.18.59-1.82v-.22c0-.73-.2-1.3-.6-1.69s-.98-.59-1.74-.59-1.37.21-1.79.62c-.42.41-.72.94-.91,1.58l-1.96-.74c.13-.44.33-.86.58-1.27.25-.41.58-.77.97-1.09s.86-.57,1.4-.76,1.16-.28,1.87-.28,1.36.1,1.93.31c.57.21,1.04.49,1.43.85.39.36.68.79.88,1.29.2.5.3,1.05.3,1.65,0,.56-.08,1.08-.25,1.55-.17.47-.4.93-.7,1.36-.3.43-.66.85-1.07,1.25-.41.4-.87.8-1.36,1.2l-3.38,2.84h7.22v1.9Z"/>
    <path class="cls-1" d="m1395.94,205.07c-.64,0-1.09-.13-1.35-.4s-.39-.59-.39-.98v-.52c0-.39.13-.71.39-.98s.71-.4,1.35-.4,1.09.13,1.35.4.39.59.39.98v.52c0,.39-.13.71-.39.98s-.71.4-1.35.4Zm0,7.44c-.64,0-1.09-.13-1.35-.4s-.39-.59-.39-.98v-.52c0-.39.13-.71.39-.98s.71-.4,1.35-.4,1.09.13,1.35.4.39.59.39.98v.52c0,.39-.13.71-.39.98s-.71.4-1.35.4Z"/>
  </g>
  <g>
    <path class="cls-1" d="m1308.1,322.91v-13.96h2.24v12.08h6.36v1.88h-8.6Z"/>
    <path class="cls-1" d="m1324.16,323.15c-.79,0-1.49-.13-2.12-.38-.63-.25-1.15-.61-1.58-1.08-.43-.47-.75-1.03-.98-1.69-.23-.66-.34-1.4-.34-2.23s.12-1.57.35-2.24c.23-.67.56-1.24.98-1.71s.93-.84,1.53-1.09c.6-.25,1.27-.38,2-.38s1.37.12,1.96.37c.59.25,1.09.6,1.5,1.05.41.45.73.99.95,1.62.22.63.33,1.32.33,2.08v.82h-7.4v.34c0,.81.25,1.47.76,1.98.51.51,1.21.76,2.1.76.67,0,1.24-.14,1.71-.43.47-.29.86-.67,1.15-1.14l1.36,1.2c-.35.6-.88,1.11-1.59,1.52-.71.41-1.6.62-2.67.62Zm-.16-9.14c-.39,0-.74.07-1.07.2-.33.13-.61.32-.84.57-.23.25-.42.54-.55.87-.13.33-.2.7-.2,1.1v.14h5.18v-.2c0-.81-.23-1.46-.69-1.95s-1.07-.73-1.83-.73Z"/>
    <path class="cls-1" d="m1334.6,322.91l-3.7-10.32h2.26l1.42,4.36,1.34,4.14h.12l1.34-4.14,1.42-4.36h2.18l-3.7,10.32h-2.68Z"/>
    <path class="cls-1" d="m1348.16,323.15c-.79,0-1.49-.13-2.12-.38-.63-.25-1.15-.61-1.58-1.08-.43-.47-.75-1.03-.98-1.69-.23-.66-.34-1.4-.34-2.23s.12-1.57.35-2.24c.23-.67.56-1.24.98-1.71s.93-.84,1.53-1.09c.6-.25,1.27-.38,2-.38s1.37.12,1.96.37c.59.25,1.09.6,1.5,1.05.41.45.73.99.95,1.62.22.63.33,1.32.33,2.08v.82h-7.4v.34c0,.81.25,1.47.76,1.98.51.51,1.21.76,2.1.76.67,0,1.24-.14,1.71-.43.47-.29.86-.67,1.15-1.14l1.36,1.2c-.35.6-.88,1.11-1.59,1.52-.71.41-1.6.62-2.67.62Zm-.16-9.14c-.39,0-.74.07-1.07.2-.33.13-.61.32-.84.57-.23.25-.42.54-.55.87-.13.33-.2.7-.2,1.1v.14h5.18v-.2c0-.81-.23-1.46-.69-1.95-.46-.49-1.07-.73-1.83-.73Z"/>
    <path class="cls-1" d="m1355.44,321.13h3.42v-11.24h-3.42v-1.78h5.6v13.02h3.42v1.78h-9.02v-1.78Z"/>
    <path class="cls-1" d="m1383.36,314.71c.89,0,1.56-.19,1.99-.57.43-.38.65-.86.65-1.43v-.14c0-.64-.21-1.13-.63-1.47-.42-.34-.98-.51-1.69-.51s-1.26.15-1.73.46c-.47.31-.87.73-1.19,1.26l-1.52-1.3c.21-.31.46-.6.74-.88.28-.28.6-.52.96-.73s.77-.37,1.24-.5c.47-.13.99-.19,1.58-.19.65,0,1.26.08,1.82.24.56.16,1.05.4,1.46.71.41.31.73.69.96,1.14.23.45.34.95.34,1.51,0,.44-.07.84-.21,1.2-.14.36-.33.68-.58.95-.25.27-.54.5-.87.67-.33.17-.69.3-1.06.38v.1c.4.08.78.21,1.14.39.36.18.68.41.96.7.28.29.5.63.66,1.02.16.39.24.84.24,1.35,0,.61-.12,1.17-.36,1.67s-.58.93-1.03,1.29c-.45.36-.98.64-1.61.83s-1.33.29-2.1.29c-.65,0-1.23-.07-1.73-.21-.5-.14-.94-.33-1.33-.56-.39-.23-.72-.5-1.01-.8-.29-.3-.54-.61-.75-.93l1.66-1.28c.35.56.76,1.02,1.23,1.37.47.35,1.12.53,1.95.53.88,0,1.55-.2,2.02-.61.47-.41.7-.97.7-1.69v-.16c0-.72-.24-1.27-.73-1.65-.49-.38-1.19-.57-2.11-.57h-1.5v-1.88h1.44Z"/>
    <path class="cls-1" d="m1395.94,315.67c-.64,0-1.09-.13-1.35-.4s-.39-.59-.39-.98v-.52c0-.39.13-.71.39-.98s.71-.4,1.35-.4,1.09.13,1.35.4.39.59.39.98v.52c0,.39-.13.71-.39.98s-.71.4-1.35.4Zm0,7.44c-.64,0-1.09-.13-1.35-.4s-.39-.59-.39-.98v-.52c0-.39.13-.71.39-.98s.71-.4,1.35-.4,1.09.13,1.35.4.39.59.39.98v.52c0,.39-.13.71-.39.98s-.71.4-1.35.4Z"/>
  </g>
  <g>
    <path class="cls-1" d="m1308.1,434.91v-13.96h2.24v12.08h6.36v1.88h-8.6Z"/>
    <path class="cls-1" d="m1324.16,435.15c-.79,0-1.49-.13-2.12-.38-.63-.25-1.15-.61-1.58-1.08-.43-.47-.75-1.03-.98-1.69-.23-.66-.34-1.4-.34-2.23s.12-1.57.35-2.24c.23-.67.56-1.24.98-1.71s.93-.84,1.53-1.09c.6-.25,1.27-.38,2-.38s1.37.12,1.96.37c.59.25,1.09.6,1.5,1.05.41.45.73.99.95,1.62.22.63.33,1.32.33,2.08v.82h-7.4v.34c0,.81.25,1.47.76,1.98.51.51,1.21.76,2.1.76.67,0,1.24-.14,1.71-.43.47-.29.86-.67,1.15-1.14l1.36,1.2c-.35.6-.88,1.11-1.59,1.52-.71.41-1.6.62-2.67.62Zm-.16-9.14c-.39,0-.74.07-1.07.2-.33.13-.61.32-.84.57-.23.25-.42.54-.55.87-.13.33-.2.7-.2,1.1v.14h5.18v-.2c0-.81-.23-1.46-.69-1.95s-1.07-.73-1.83-.73Z"/>
    <path class="cls-1" d="m1334.6,434.91l-3.7-10.32h2.26l1.42,4.36,1.34,4.14h.12l1.34-4.14,1.42-4.36h2.18l-3.7,10.32h-2.68Z"/>
    <path class="cls-1" d="m1348.16,435.15c-.79,0-1.49-.13-2.12-.38-.63-.25-1.15-.61-1.58-1.08-.43-.47-.75-1.03-.98-1.69-.23-.66-.34-1.4-.34-2.23s.12-1.57.35-2.24c.23-.67.56-1.24.98-1.71s.93-.84,1.53-1.09c.6-.25,1.27-.38,2-.38s1.37.12,1.96.37c.59.25,1.09.6,1.5,1.05.41.45.73.99.95,1.62.22.63.33,1.32.33,2.08v.82h-7.4v.34c0,.81.25,1.47.76,1.98.51.51,1.21.76,2.1.76.67,0,1.24-.14,1.71-.43.47-.29.86-.67,1.15-1.14l1.36,1.2c-.35.6-.88,1.11-1.59,1.52-.71.41-1.6.62-2.67.62Zm-.16-9.14c-.39,0-.74.07-1.07.2-.33.13-.61.32-.84.57-.23.25-.42.54-.55.87-.13.33-.2.7-.2,1.1v.14h5.18v-.2c0-.81-.23-1.46-.69-1.95-.46-.49-1.07-.73-1.83-.73Z"/>
    <path class="cls-1" d="m1355.44,433.12h3.42v-11.24h-3.42v-1.78h5.6v13.02h3.42v1.78h-9.02v-1.78Z"/>
    <path class="cls-1" d="m1385.18,434.91v-2.72h-6.64v-1.92l5.84-9.32h2.94v9.46h1.96v1.78h-1.96v2.72h-2.14Zm-4.74-4.5h4.74v-7.4h-.12l-4.62,7.4Z"/>
    <path class="cls-1" d="m1395.94,427.67c-.64,0-1.09-.13-1.35-.4s-.39-.59-.39-.98v-.52c0-.39.13-.71.39-.98s.71-.4,1.35-.4,1.09.13,1.35.4.39.59.39.98v.52c0,.39-.13.71-.39.98s-.71.4-1.35.4Zm0,7.44c-.64,0-1.09-.13-1.35-.4s-.39-.59-.39-.98v-.52c0-.39.13-.71.39-.98s.71-.4,1.35-.4,1.09.13,1.35.4.39.59.39.98v.52c0,.39-.13.71-.39.98s-.71.4-1.35.4Z"/>
  </g>
</svg>