<svg id="Layer_1" data-name="Layer 1" xmlns="http://www.w3.org/2000/svg" viewBox="0 0 1263 608"><defs><style>.cls-1{fill:#c3793d;}</style></defs><path class="cls-1" d="M1183,46.44c-11.82-.49-23.64-.86-35.46-1.2a9.34,9.34,0,0,0-2.62.75l-.15.74c1.36,1,2.8,2,4.06,3.09.72.65,1.66,1.67,1.56,2.4a3.21,3.21,0,0,1-2.08,2c-7.63,2-15.3,3.95-23,5.86-12.6,3.13-25.22,6.18-37.81,9.36-2.91.73-5.32.43-7.53-1.78a36,36,0,0,0-12.53-8,135.87,135.87,0,0,0-31.65-7.88,454.7,454.7,0,0,0-49-3.89,895.24,895.24,0,0,0-99.06,3.67c-20.36,1.79-40.6,4.25-60.55,8.58-20.33,4.41-40.5,9.59-60.73,14.49-9.37,2.27-18.69,4.75-28.05,7-5.09,1.24-10.26,2.19-15.35,3.41Q700,90.58,677,96.21q-13.47,3.27-26.93,6.56c-14.88,3.64-29.74,7.33-44.63,10.92-12.06,2.91-24.16,5.63-36.22,8.56s-24,6.07-36.09,9c-14.87,3.64-29.78,7.17-44.66,10.77S459,149.26,444.25,152.8c-12.3,2.95-24.65,5.71-36.95,8.7-13.74,3.35-27.45,6.87-41.17,10.3-2.2.55-3.9-.29-4.45-2.49q-2-8.12-3.65-16.32a3.39,3.39,0,0,1,1-2.78c.43-.36,1.86.1,2.62.56,3.2,1.94,6.28,4.06,9.45,6a67.18,67.18,0,0,0,6.05,3.48c.61.3,1.56-.09,2.35-.16a7.1,7.1,0,0,0-.31-2c-1.95-3.86-3.9-7.71-6-11.5q-9.39-17.18-18.86-34.31-7.15-13-14.28-26c-.68-1.24-1-2.67-1.82-3.82A3.49,3.49,0,0,0,336,81.18c-.3,0-1,1.17-1.11,1.88a33.17,33.17,0,0,0-.44,4.47q-1.42,24.93-2.81,49.85-.85,15.21-1.66,30.42a41.21,41.21,0,0,0,.21,4.29l.82.29A28.56,28.56,0,0,0,334,169c3.17-4.78,6.1-9.72,9.38-14.43,1.62-2.31,3-2,3.7.65,1.41,5.22,2.7,10.48,3.78,15.77.67,3.28,0,4.2-3.25,5.06q-8,2.13-16,4.05c-11.33,2.71-22.7,5.3-34,8-5.29,1.29-5.82,2.45-4.53,7.82q2.72,11.42,5.29,22.86c.63,2.82-.69,4.32-3.56,4.16-1.41-.08-2.82-.3-4.23-.41l-47.05-3.85c-17.18-1.41-34.35-2.86-51.53-4.21-4.27-.34-5.05.78-4,5,1.92,8,3.81,16,5.76,24q4.44,18.2,9,36.36c1.16,4.63.33,5.9-4.38,5.72-8-.3-16-.79-24-1.07-16.15-.59-32.3-1.09-48.45-1.62a56.2,56.2,0,0,0-6.22-.13c-.83.06-1.59,1-2.39,1.49a9.09,9.09,0,0,0,1.57,1.74c5,3.21,10,6.34,14.93,9.55.63.41,1.6,1.35,1.47,1.71a4.36,4.36,0,0,1-1.85,2.13,13.63,13.63,0,0,1-3.35,1c-5.58,1.34-11.18,2.63-16.76,4-17.64,4.26-35.26,8.57-52.9,12.82-13.35,3.22-26.73,6.34-40.07,9.6-5,1.22-5.49,2.26-4,7.23.1.32.22.63.3.95a3.21,3.21,0,0,0,3.91,2.63,62.21,62.21,0,0,0,6.63-1.19c17.29-4.27,34.56-8.64,51.87-12.87,16.41-4,32.85-7.92,49.29-11.82a55.06,55.06,0,0,1,7.62-1.36c2.54-.24,3.28.82,2.08,3-2.1,3.86-4.48,7.57-6.71,11.37-1,1.79-2.07,3.6-3,5.47a2.1,2.1,0,0,0,.2,1.79c.19.27,1.07.23,1.58.09a9.52,9.52,0,0,0,2-.95q10.34-5.79,20.66-11.59c6.1-3.41,12.24-6.76,18.33-10.19,10-5.64,20-11.33,30-17,2.55-1.44,4-.82,4.78,2,1.61,6.12,3.25,12.23,4.69,18.38,2.78,11.83,5.38,23.69,8.15,35.52.85,3.63,1.94,7.22,3,10.79.86,2.78,2.41,3.26,4.89,1.71,1.76-1.11,3.48-2.26,5.24-3.37l41-25.76q16.27-10.21,32.54-20.41c3.17-2,6.35-4,9.6-5.81,2.87-1.62,4-1.11,5,2q1,3.34,1.84,6.74c1.51,6.23,2.9,12.48,4.5,18.68.71,2.8,1.82,3.4,4.61,2.77,3.32-.76,6.6-1.74,9.91-2.54q26.83-6.5,53.66-12.94,23.91-5.78,47.82-11.57c10.19-2.49,20.34-5.14,30.53-7.61,9.06-2.2,18.16-4.23,27.22-6.4,8.91-2.13,17.79-4.37,26.7-6.54,11.16-2.71,22.34-5.35,33.49-8.1,14.3-3.54,28.58-7.21,42.89-10.72,10.43-2.56,20.9-4.93,31.35-7.42,3.6-.86,5,.15,5.08,3.88,0,3.08.06,6.15.06,9.23q0,23.85,0,47.71c0,5.33,0,10.66-.14,16,0,1.18-.92,2.33-1.42,3.5a15.1,15.1,0,0,1-3.12-1.79c-3.66-3.52-7.17-7.19-10.8-10.73a35.11,35.11,0,0,0-3.41-2.63l-1,.42a31.75,31.75,0,0,0,.5,5.38c1.37,5.15,3,10.22,4.43,15.36.72,2.63,1,5.39,1.79,8,2.49,8.27,5.22,16.47,7.69,24.74,3,10.21,5.89,20.48,8.91,30.69A14,14,0,0,0,645,414.7l.77-.2c.87-2.58,1.83-5.14,2.59-7.75q7.23-25,14.39-50.08c2.49-8.63,5-17.25,7.45-25.9.32-1.15,0-2.45,0-4.36a39.58,39.58,0,0,0-4.16,3c-4,3.82-8,7.75-12,11.59-.54.51-1.63,1.16-2,.95a3.64,3.64,0,0,1-1.38-2.12,12,12,0,0,1-.33-3.22q0-36.35,0-72.68c0-5.83,1.87-7.51,7.76-7.53,1.9,0,2.94.69,3.23,2.64s.7,3.76,1.15,5.62q5.67,23.28,11.38,46.55c2.4,9.78,4.86,19.55,7.27,29.32,2.15,8.73,4.29,17.45,6.36,26.19a28.28,28.28,0,0,1,.74,5.42c.05,1.5-.89,2.1-2.35,1.47a22.1,22.1,0,0,0-2.9-1.41,10.33,10.33,0,0,0-2.78,0,6.74,6.74,0,0,0,.28,2.28c1.61,3.09,3.28,6.16,5,9.17q6.3,10.9,12.73,21.73c.32.54,1.18,1.24,1.62,1.14s1.07-.95,1.38-1.58a5.08,5.08,0,0,0,.36-2c.41-11.15.83-22.29,1.18-33.44a21.39,21.39,0,0,0-.55-3.68l-.79-.11c-1.17,1.58-2.36,3.15-3.49,4.75s-2.57,1.59-3.56,0a8.35,8.35,0,0,1-.93-2.56Q686.23,338.4,679,308.82q-6-24.24-11.89-48.49c-1.22-5-.67-6,4.3-7.27q26.05-6.42,52.15-12.77,18.19-4.46,36.39-8.89c7.28-1.75,14.61-3.34,21.88-5.15,14.46-3.6,28.88-7.34,43.34-11,13.72-3.44,27.59-6.35,41.15-10.35,14-4.11,27.66-9.1,41.37-14,8-2.84,15.81-6.18,23.69-9.33,2.18-.87,3.87-.79,5.43,1.35a5.13,5.13,0,0,0,3.56,1.65c4.32.18,8.66,0,13,0,1.92,0,3.47-.6,3.5-2.66s-1.71-2.38-3.38-2.42c-2.75-.07-5.5,0-8.24-.21-.82-.06-1.59-.84-2.38-1.29.64-.75,1.12-1.83,1.93-2.2,12.14-5.67,24.52-10.85,36.45-16.93,14.81-7.55,29.39-15.59,43.82-23.87,9.14-5.24,18-11,26.63-17.06,9.92-7,19.45-14.54,26.88-24.36,3.22-4.27,5.7-8.8,6.13-14.23a4.87,4.87,0,0,1,4-4.74c9.44-2.41,18.86-4.85,28.31-7.21s19.07-4.68,28.62-7a36.55,36.55,0,0,1,5.4-1c1.89-.15,2.58.94,1.82,2.68-.57,1.29-1.4,2.47-1.88,3.79-.22.6.12,1.4.21,2.12a7.2,7.2,0,0,0,1.82-.26,40.5,40.5,0,0,0,4.73-2.18q12-6.9,24-13.9c1.61-.95,3.14-2,5.46-3.53C1185.27,47.41,1184.16,46.48,1183,46.44ZM510.34,147.76c0-2.23.84-3.61,3.1-4.15,7-1.68,13.9-3.42,20.86-5.11q17.84-4.33,35.68-8.63c15.7-3.78,31.42-7.48,47.11-11.33,15-3.7,30-7.6,45-11.3,11.4-2.8,22.85-5.38,34.26-8.11,12.47-3,24.91-6,37.38-9,11.33-2.72,22.68-5.35,34-8.07,8.09-2,16.17-3.9,24.23-6,22.82-5.91,45.74-11.44,69.2-14.07,19.11-2.14,38.26-4,57.45-5.19C938,55.6,957.42,55,976.81,54.94A376.72,376.72,0,0,1,1042,60.18a110.15,110.15,0,0,1,25.57,7.53,10.65,10.65,0,0,1,3,1.79,3.27,3.27,0,0,1,1.15,2.4,3.13,3.13,0,0,1-2,1.81c-3.6,1-7.25,1.87-10.89,2.75-10.59,2.56-21.2,5-31.77,7.66-11.8,2.94-23.54,6.06-35.34,9-15,3.74-30.08,7.35-45.11,11.07-14.86,3.67-29.69,7.46-44.56,11.12-8.72,2.15-17.5,4.1-26.22,6.26-10.35,2.55-20.65,5.27-31,7.84-9.2,2.29-18.44,4.42-27.65,6.71-11,2.73-21.94,5.59-32.92,8.34-8.23,2.07-16.49,4-24.72,6.1-11.63,2.92-23.23,5.93-34.86,8.84-10.57,2.64-21.17,5.2-31.75,7.82-8.41,2.08-16.79,4.22-25.21,6.27-3.56.88-4.56.2-6.37-3a13.11,13.11,0,0,0-3.18-3.35,20,20,0,0,0-13.24-5c-1.87,0-3.51-.24-4.12-2.4-.09-.31-.72-.46-1.1-.69-.19.34-.6.73-.53,1,.43,1.7-.71,2.4-1.84,3.16-.76.51-1.47,1.1-2.23,1.61-4.6,3.06-8,7.06-9.35,12.5a6.34,6.34,0,0,1-5.24,5q-21.78,5.06-43.5,10.32c-11.41,2.76-22.79,5.65-34.2,8.42q-16.62,4-33.28,7.88a12.58,12.58,0,0,1-3.59-.22c.19-1.25,0-2.7.62-3.73,2.76-4.83,5.73-9.54,8.61-14.31a4.45,4.45,0,0,0,.9-2c-.07-3.72,2.59-5.09,5.38-5.81,16.1-4.12,32.25-8.07,48.38-12.08q17.67-4.4,35.33-8.81c2.53-.63,3.19-.17,3.27,2.41,0,.65,0,1.3,0,2.95a212.74,212.74,0,0,0,23.26-13.1c-1.88-.75-3.08-1.59-4.33-1.67-6.39-.4-12.8-.63-19.2-.89-2.18-.09-2.49,1.1-2,2.91.76,2.87.5,3.19-2.32,3.89q-28.07,7-56.14,14c-7.42,1.84-14.89,3.48-22.31,5.32-8.72,2.16-17.41,4.45-26.12,6.68-.72.18-1.44.43-2.17.57-3.22.58-4-.15-3.47-3.33a6.44,6.44,0,0,0-.2-1.54l-3,1.21c-1.67-1.51-1.42-3.22-.14-4.75,3.95-4.7,8.18-9.18,12-14A125.17,125.17,0,0,0,510,150.91,6.25,6.25,0,0,0,510.34,147.76Zm-4.68,3.72c-.36,6-4.6,9.31-7.73,13.58C495.75,161.82,500.24,154,505.66,151.48Zm124.78,103.9c-15.35,3.82-30.78,7.32-46.14,11.07-21.51,5.26-43,10.67-64.48,15.92-12.29,3-24.63,5.79-36.94,8.74-15.29,3.67-30.56,7.44-45.85,11.12-12.3,2.95-24.63,5.79-36.92,8.78-11.89,2.88-23.74,5.94-35.63,8.82-7.84,1.91-15.73,3.64-23.58,5.48-1.22.29-2.39.71-3.58,1.1-3.27,1.06-4.84.2-5.68-3.17q-3.28-13.07-6.55-26.15c-1.16-4.67-2.41-5.09-6.51-2.51-9.71,6.1-19.52,12.05-29.23,18.15-12.39,7.79-24.71,15.68-37.08,23.49q-10.34,6.52-20.75,12.93c-2.5,1.55-4.32.8-5-2.06-1.77-7.1-3.46-14.22-5.21-21.33q-8.17-33.31-16.35-66.64c-2.09-8.57-4-17.18-6-25.77-.51-2.18-1.23-4.32-1.73-6.51-.78-3.44.07-4.58,3.59-4.33,6.89.49,13.76,1.24,20.65,1.79q36.59,3,73.19,5.88c3.32.26,6.62.77,9.94.95s4.3-1.09,3.55-4.26c-2.05-8.75-4.2-17.47-6.29-26.22-1.07-4.5-.62-5.41,3.89-6.53,12.51-3.12,25.06-6.12,37.6-9.18,1.61-.39,3.24-.75,4.84-1.21,3.95-1.12,5.07-.54,6,3.53,1.75,7.36,3.43,14.75,5.11,22.13,2.09,9.25,4.13,18.51,6.24,27.75.77,3.4-.15,4.89-3.93,5.86-4.1,1.05-8.3,1.82-12.32,3.12-5.45,1.77-10.78,3.92-16.14,5.94a5.54,5.54,0,0,0-1.67,1.09c-3,2.65-6.09,5.24-8.94,8.07-1.56,1.54-2.73,2.17-4.57.06.1.68-.06,1.67.33,2,1.52,1.26.77,2.29-.06,3.42-2.47,3.33-4.87,6.72-7.4,10-2,2.53-3.9,2.33-4.8-.73-.64-2.14-.38-4.56-.44-6.86a19.18,19.18,0,0,1,.36-2.21c.11-1.39-.29-2.74-1.85-2.65-.71,0-1.79,1.2-2,2-1.12,5.06-1.1,10,1.59,14.76.83,1.49.33,3.78.24,5.7,0,.67-.86,1.29-1,2a21.88,21.88,0,0,0,0,3.34c1-.2,2.27-.07,2.89-.65,3.83-3.55,7.73-7.08,11.18-11,4.24-4.79,7.95-10,12.14-14.86a7,7,0,0,1,4.64-2.24c11.14.1,21.89-2.16,32.35-5.57,10.9-3.56,21.62-7.7,32.36-11.71a45.81,45.81,0,0,0,7.07-3.63c.67-.4,1.51-1.76,1.31-2.1a4.15,4.15,0,0,0-2.41-1.87,16.1,16.1,0,0,0-4.21.08c-6,.45-11.95.9-17.92,1.41-3.21.28-4.53-.41-5.28-3.57-1.4-5.91-2.53-11.88-3.91-17.79-1.82-7.77-3.76-15.52-5.67-23.27-.91-3.72-1.89-7.42-2.8-11.13-.7-2.83.14-4.35,3.39-5.31,3.83-1.14,7.74-2,11.62-2.92,8.75-2.08,17.52-4.08,26.26-6.18q25.37-6.11,50.71-12.3c11-2.7,22-5.54,32.94-8.24,3.15-.77,6.35-1.36,9.55-1.88.77-.13,2.14.12,2.36.59a3.42,3.42,0,0,1-.16,2.78c-2.69,4.26-5.81,8.28-8.28,12.66a142.33,142.33,0,0,0-6.42,13.7c-1.21,2.81-2.22,5.7-1.81,8.93.08.59-1.26,1.72-2.14,2-4.26,1.37-8.56,2.67-12.9,3.76-12,3-24.08,5.94-36.11,8.92q-15.37,3.79-30.72,7.66c-2,.5-2.85-.3-3.07-2.14-.1-.88-.13-1.77-.25-3.39-8,3.72-14.93,8.31-22,12.63,0,.35,0,.7,0,1.05A13,13,0,0,0,381,217.6c6.4.4,12.8.69,19.21.94,2.47.09,3.15-.7,2.27-3s0-3.09,2-3.57q10-2.52,20.06-5l35.54-9c3.63-.92,7.24-1.88,10.88-2.76q19-4.61,38.06-9.14a25.46,25.46,0,0,1,4.21-.29c.08.32.17.65.26,1-8.58,5-17.14,10-25.74,15-6.42,3.69-12.88,7.3-19.33,10.93-6.81,3.83-13.64,7.62-20.46,11.45-3.4,1.91-6.84,3.78-10.16,5.84-.91.57-1.33,1.87-2.17,2.62-.26.22-.52.46-.79.71,7.48.58,14.95,1.21,22.46,1.22a1.67,1.67,0,0,1,.81.2c6.63.13,13.25.28,19.87.54,7.9.31,15.79.89,23.69,1.22,7.24.3,14.48.46,21.73.58a23.3,23.3,0,0,0,4.17-.65c.1-.39.21-.78.32-1.17-2.77-1.86-5.51-3.75-8.31-5.55-3-1.93-6.1-3.72-9.06-5.73a2.1,2.1,0,0,1,.77-3.9c5.94-1.62,11.9-3.18,17.89-4.62q25.61-6.16,51.25-12.23c12.06-2.86,24.14-5.66,36.21-8.5,2.43-.57,4.83-1.26,7.26-1.84a6.08,6.08,0,0,1,6.13,1.73,73.63,73.63,0,0,0,7.13,5.77c1.88,1.42,2.25,3.35,2.25,5.52q0,19.11,0,38.21C639.41,254.35,639.54,253.12,630.44,255.38Zm14.44-60.75c-.29,2.47-1.57,3.22-4,2.93-5-.59-11.18-7.52-11.33-12.55a2.43,2.43,0,0,1,2.57-2.73c1.9-.16,3.82,0,5.73,0v-.11h2.74c4.18,0,4.47.2,4.58,4.28A59.19,59.19,0,0,1,644.88,194.63Zm2.87-12.52c-1.62,0-2.53-.69-2.53-2.36,0-3.4-.12-6.81.07-10.21.17-3,2-3.75,4.84-2.85,4.77,1.53,7.71,5.09,10.29,9,2.18,3.27.42,6.31-3.46,6.4-1.41,0-2.82,0-4.23,0v0C651.07,182.1,649.41,182.09,647.75,182.11Zm6.17,67.29c-2.08.26-3.12-.85-3.15-3.69,0-4.9-.07-9.8.08-14.69a22,22,0,0,1,1-4.43l1,.06c.9,3.25,1.83,6.5,2.69,9.76.71,2.72,1.37,5.47,2,8.21S656.86,249,653.92,249.4ZM1076.67,81.26a13.7,13.7,0,0,1-1.5,4.17c-4.25,7.44-10.59,13-17.06,18.38-13,10.81-27.3,19.91-42,28.21-13.46,7.59-27.23,14.68-41.12,21.47-14.88,7.25-30,14-45.11,20.75-6.92,3.11-14,5.91-21.89,4.93-2.49-.3-3.78,1.14-4.79,3.45a7.38,7.38,0,0,1-3.88,3.72c-15.55,5.17-31,10.58-46.82,15-16.83,4.69-34,8.34-50.93,12.47-20.3,4.93-40.59,9.91-60.89,14.81-8,1.94-16.06,3.7-24.07,5.63-8.33,2-16.63,4.14-25,6.18-7.6,1.87-15.19,3.75-22.81,5.51-3.71.87-4.84.18-5.88-3.43-.57-2-.74-4.08-1.25-6.1-1.27-5.06-2.65-10.1-3.94-15.16-1.38-5.4-2.66-10.83-4.06-16.23-.74-2.86-.13-5.21,2.54-6.59,4.14-2.11,5.85-5.92,7.49-9.88a38.08,38.08,0,0,1,3.41-7.17,8.09,8.09,0,0,1,4.36-2.95c17.66-4.47,35.37-8.72,53-13.12,21.32-5.32,42.61-10.76,63.94-16.06,12.11-3,24.28-5.82,36.4-8.8,7-1.73,14.11-3.35,21-5.53,5.27-1.66,9.14.2,12.12,4a36.24,36.24,0,0,1,7.89,27.3,33.74,33.74,0,0,1-2.69,9.22c-1.16,2.71-3.54,4-6.69,3.78-2-.15-4,0-6,0v0c-2.58,0-5.17-.11-7.74,0-1.69.1-3.51.57-3.47,2.77s1.63,2.88,3.43,2.9c4.91.07,9.87.43,14.72-.17,5.13-.64,8.38-4.5,10.08-9.06,5.3-14.22,2.68-27.28-6.68-39.07-2.45-3.09-2-4.81,2-5.72,7.54-1.75,15.11-3.37,22.62-5.24,10.09-2.5,20.12-5.2,30.19-7.79,11.77-3,23.53-6.08,35.33-9,14-3.47,28-6.81,42-10.23q25.11-6.15,50.2-12.35c9.6-2.37,19.19-4.78,28.8-7.16a12.8,12.8,0,0,1,2.46-.35C1076.09,78.7,1077,79.68,1076.67,81.26Z"/><path class="cls-1" d="M457.11,239.06a21.23,21.23,0,0,0-2.11-1.13c-11.28-.2-22.5-1.62-33.76-2-.51.26-1,.6-1.52.85a10.27,10.27,0,0,0,1.54,2.18c2.16,1.74,1.82,4.08,1.36,6.22-.82,3.81-2,7.55-3.06,11.32-2.29,8.16-4.56,16.33-6.89,24.49-.87,3-1.77,6.08-2.87,9-1.16,3.11-3,5.74-6.37,7l-.06.72c1.4.43,2.81,1.23,4.22,1.22,9.4-.07,18.84.13,28.2-.6,17.75-1.37,31.07-16.29,33.74-29.68,1.66-8.34,1-16.57-4.7-23.44A31,31,0,0,0,457.11,239.06ZM444.3,287.79a22,22,0,0,1-12.69,7.42c-5,1-7.58-1.3-6.64-6.25.76-4,2-7.89,3.17-11.8q4.82-16.79,9.71-33.54c1-3.46,3.15-4.35,6.48-3.11,6,2.23,8.33,7.08,9.54,12.75a51.38,51.38,0,0,1,.67,6.19C453.92,270.28,451.14,279.79,444.3,287.79Z"/><path class="cls-1" d="M545.11,355.34a78.84,78.84,0,0,1,19.54,0c-6.29,7.21-3.94,15.5-5.32,23a80.22,80.22,0,0,0-.8,9.19c-.1,1.61,0,3.22,0,5,4-.35,5-3.45,6.6-5.53,3.08-3.91,5.7-8.17,8.66-12.17,4.44-6,5.39-12.15,1.48-18.76,2.1-1.95,15.92-2.1,19.24-.12-4.84,7-3.55,15.29-4.52,23.11-.39,3.13-.45,6.31-.61,9.46a6.72,6.72,0,0,0,.22,2.46c.59,1.72,1.79,1.88,2.86.4q8.67-12,17.29-24c.2-.27.35-.57.53-.84,3.29-5,3.3-5,1.23-10.89,4-1.35,7.83-1.06,12.16-.07-2.62,3.2-5,6-7.28,8.94-3.24,4.21-6.37,8.49-9.53,12.76-4.45,6-9,12-13.32,18-4.7,6.54-9.26,13.18-13.89,19.77-.48.68-1,1.29-1.52,2-.78,1.13-1.86,2.08-3.08,1.15a4.07,4.07,0,0,1-1.42-3c.57-9.21,1.33-18.42,2-27.63a25.83,25.83,0,0,0,.12-4.48,2.9,2.9,0,0,0-1.31-1.88c-.32-.18-1.36.45-1.74,1q-6,8.06-12,16.22c-4.44,6.12-8.75,12.34-13.26,18.4-.67.91-2.16,1.22-3.28,1.8-.43-1.09-1.3-2.2-1.23-3.26.61-9.05,1.41-18.08,2.11-27.12.61-8,1.35-15.92,1.64-23.9C546.81,361.56,545.75,358.74,545.11,355.34Z"/><path class="cls-1" d="M42.17,357.17c-.16-1.1-.66-2.29-.42-3.3a67.27,67.27,0,0,1,2.59-8.58c.86-2.26,3-2.65,5.19-2.64q18.74.11,37.45.17c1.67,0,3.34-.2,5-.07,2.5.18,3.49,1.38,3,3.82A81,81,0,0,1,92.55,355a1.7,1.7,0,0,1-3.35-.16c-.71-3.53-3.21-5.28-6.16-6.69-3.5-1.68-6.07-.68-7.16,3-3.39,11.4-6.72,22.81-10.08,34.22-.82,2.79-1.58,5.6-2.51,8.36-1.37,4-2,7.94,1.91,11.88a88.35,88.35,0,0,1-23.46-.19c6.48-4.33,7.2-11.49,9.22-17.87,3.35-10.53,6.33-21.19,9.44-31.8a33.16,33.16,0,0,0,1.12-4.6c.42-2.92-.87-4.24-3.72-3.52-4,1-8,2.3-10.9,5.65-1.23,1.43-2.63,2.71-4,4.06Z"/><path class="cls-1" d="M276.49,127.12c.58-1.17,1-2.17,1.55-3.1,1.41-2.41,3.43-4.62,4.22-7.21,4.18-13.76,8.08-27.62,12-41.45.43-1.5.94-3.23.58-4.64-.45-1.83-1.74-3.46-2.73-5.3,2.18-1.77,19.66-1.88,23.33.4-4.25,2.07-5.84,6-7,10-4,13.82-8,27.63-11.85,41.5-1.31,4.77.31,6.55,5.24,6.33,9-.4,16.44-4.24,22.76-10.51a7.92,7.92,0,0,1,2-1.06c.12.76.53,1.6.32,2.25-1.12,3.48-2.26,7-3.66,10.33a4.74,4.74,0,0,1-4.62,2.88q-20.1,0-40.22,0A10.85,10.85,0,0,1,276.49,127.12Z"/><path class="cls-1" d="M1152.72,170.13l11.16,3.21c7.82,2.25,15.65,4.48,23.46,6.79a11.64,11.64,0,0,1,2.59,1.6c-.85.8-1.57,2.05-2.57,2.34-11.4,3.34-22.84,6.54-34.28,9.73-.58.17-1.65.18-1.81-.11a2.36,2.36,0,0,1-.07-2,22.54,22.54,0,0,1,2.81-3.45c.79-.85,1.76-1.52,2.58-2.34,2.83-2.85,2.81-4.76,0-7.66-1.68-1.73-3.4-3.41-5-5.22a2.34,2.34,0,0,1-.45-1.94C1151.26,170.62,1152.15,170.43,1152.72,170.13Z"/><path class="cls-1" d="M645.29,512.47a27.12,27.12,0,0,1-2.33-4.14c-1.19-3.63-2.21-7.32-3.26-11-1.86-6.55-3.8-13.08-5.47-19.68-.39-1.52.18-3.28.31-4.94a38.45,38.45,0,0,1,3.92,2.51c1.29,1,2.33,2.37,3.54,3.52,2.21,2.09,3.57,2.07,5.78,0s4.08-3.91,6.2-5.78c.46-.4,1.5-.77,1.86-.53a2.45,2.45,0,0,1,.78,1.9,13.9,13.9,0,0,1-.62,3.43q-4.62,15.8-9.32,31.57C646.43,510.14,646,510.9,645.29,512.47Z"/><path class="cls-1" d="M647.39,429.62a57.61,57.61,0,0,1-.1,7.44c-.15,1.15-1.17,2.91-2.08,3.11-1.7.37-2.68-1.28-2.72-2.85-.13-5.05-.08-10.1,0-15.15a2.18,2.18,0,0,1,.51-1.37,30.56,30.56,0,0,1,2.35-2c.61.81,1.64,1.57,1.76,2.45.4,2.77.46,5.59.65,8.4Z"/><path class="cls-1" d="M642.35,461.81c0-2-.06-4,0-6a5.27,5.27,0,0,1,.69-2.57,3.1,3.1,0,0,1,2.12-1.42c.66.05,1.26,1.1,1.86,1.72a.72.72,0,0,1,.18.46c0,5.47,0,10.94-.18,16.4,0,.73-1.53,2.12-1.95,2-.94-.31-2.18-1.3-2.32-2.17a83.85,83.85,0,0,1-.65-8.41Z"/><path class="cls-1" d="M978.92,184.63h-7.45a2.36,2.36,0,0,1-2.55-2.46,2.19,2.19,0,0,1,2.36-2.58c5.22-.06,10.44-.07,15.64.18.84,0,1.61,1.49,2.41,2.29-.9.85-1.72,2.28-2.71,2.42a56.43,56.43,0,0,1-7.7.12Z"/><path class="cls-1" d="M1011.62,179.58c2.33,0,4.66-.11,7,0,1.47.09,3.25.37,3.23,2.35s-1.58,2.63-3.31,2.65q-7,.07-13.94,0c-1.72,0-3.25-.61-3.29-2.63,0-2.23,1.82-2.32,3.37-2.4,2.32-.12,4.65,0,7,0Z"/><path class="cls-1" d="M1043.45,184.72c-2.08,0-4.16,0-6.24,0s-3.8-.85-3.53-2.89c.13-1,2.21-2.28,3.45-2.34,4.48-.23,9,0,13.48.08,1.54,0,3.25.42,3.3,2.31s-1.48,2.7-3.22,2.76c-2.41.08-4.83,0-7.24,0Z"/><path class="cls-1" d="M1076.08,184.67c-2.23,0-4.47,0-6.71,0-1.87,0-3.58-.87-3.36-2.77.1-.89,2.06-2.17,3.23-2.23,4.63-.25,9.28-.13,13.92,0,1.5,0,3.22.28,3.16,2.33s-1.54,2.62-3.27,2.67c-2.32.06-4.65,0-7,0Z"/><path class="cls-1" d="M1140.71,184.66c-2.32,0-4.64,0-7,0-2,.05-3.13-1.16-2.86-2.87a3.55,3.55,0,0,1,2.67-2.13c4.8-.21,9.61-.11,14.42-.06,1.52,0,3,.58,2.92,2.34s-1.18,2.66-3,2.66c-2.4,0-4.81,0-7.21,0Z"/><path class="cls-1" d="M1108.13,184.71c-2.17,0-4.33-.05-6.5,0-1.92.05-3.16-.9-3.26-2.69s1.45-2.46,3.08-2.48c4.49,0,9-.05,13.49,0,1.58,0,3.45.26,3.45,2.39s-1.68,2.67-3.52,2.69c-2.24,0-4.49,0-6.74,0Z"/><path class="cls-1" d="M904.83,151.3c.12,6.44-.93,12.64-4.76,18a12.34,12.34,0,0,1-13.1,5.2,9.79,9.79,0,0,1-4.34-2.71c-6.61-6.2-7.78-14.25-7.19-22.7a62.1,62.1,0,0,1,2-10.24c1-4,3.9-6.71,6.88-9.26a5.51,5.51,0,0,1,2.78-.88,26.94,26.94,0,0,1,3.24,0c6.37-.1,10.43,2.69,12.2,8.94,1.25,4.44,2,9,3,13.53Zm-14.8-.14c1.08,0,2.16,0,3.23,0,2.5-.1,4.77-1.8,4.7-4.23-.15-5-.15-10.17-3.36-14.54a5.55,5.55,0,0,0-9.1,0c-2.4,3.27-2.66,7.09-2.87,10.91C882.18,151.36,884.68,151.45,890,151.16Zm.24,1v.08a18.94,18.94,0,0,0-4.71.1c-1.08.29-2.67,1.44-2.73,2.3-.42,6.3-.2,12.51,4.93,17.3,1.65,1.53,3.11,1.52,4.83.12,4.15-3.42,4.79-8.19,5.11-13.05.43-6.39-.1-6.89-6.43-6.85Z"/><path class="cls-1" d="M753,179.2c2.24,0,4.48,0,6.72,0,1.82,0,3.43.69,3.52,2.73.1,2.22-1.53,3-3.48,3-4.48.05-9,0-13.44,0-.5,0-1-.13-1.49-.18-1.69-.18-2.8-1.26-2.45-2.79a3.84,3.84,0,0,1,2.43-2.53,63.83,63.83,0,0,1,8.19-.12Z"/><path class="cls-1" d="M688.27,179.21c2.41,0,4.82,0,7.24,0,1.69,0,3,.72,3.12,2.51a2.71,2.71,0,0,1-2.85,3.09c-5.07.07-10.14.13-15.21.07a2.72,2.72,0,0,1-2.74-3c0-1.82,1.28-2.64,3-2.7,2.49-.08,5,0,7.48,0Z"/><path class="cls-1" d="M882,179.38c2.57,0,5.16-.11,7.72,0,1.48.08,2.84.75,2.78,2.58a2.64,2.64,0,0,1-2.88,2.78c-5,.08-10,.17-15,.15a2.77,2.77,0,0,1-2.93-3.05c.12-1,1.72-2.33,2.81-2.5a48.89,48.89,0,0,1,7.47-.12Z"/><path class="cls-1" d="M817.53,179.29c2.41,0,4.83-.15,7.22.05,1.55.13,3.23.63,3.16,2.79s-1.51,2.72-3.2,2.75c-4.81.08-9.63.11-14.45,0-1.84,0-3.5-1.15-3.08-3.07.23-1,2-2.27,3.15-2.47a44.27,44.27,0,0,1,7.2-.12Z"/><path class="cls-1" d="M720.67,179.24a42.24,42.24,0,0,1,7.21.12,4.3,4.3,0,0,1,2.93,2.61c.32,1.55-1,2.79-2.78,2.82q-7.59.11-15.19,0a2.48,2.48,0,0,1-2.64-2.94,4,4,0,0,1,2.76-2.53,52.11,52.11,0,0,1,7.71-.12Z"/><path class="cls-1" d="M785.17,184.92c-2.4,0-4.81.09-7.21,0-1.67-.08-3.12-.7-3.2-2.75s1.46-2.79,3.08-2.84q7.21-.21,14.42-.06c1.63,0,3.22.85,3.25,2.77s-1.57,2.81-3.38,2.89c-2.31.1-4.64,0-7,0Z"/><path class="cls-1" d="M337.36,251q-29.81,7-59.25,15.32c-4.32,1.23-2.48,8,1.86,6.75q29.44-8.35,59.25-15.32c4.38-1,2.53-7.77-1.86-6.75Z"/><path class="cls-1" d="M657.63,563.16l-26.64.08,0-5.23,19.31-26.75-18.65,0,0-5,25.16-.08,0,5.24-19.32,26.75,20.14-.06Z"/><path class="cls-1" d="M1222.52,61h-5.89l-3.67-6.4-3.43-6.12h-.28l-3.52,6.12-3.81,6.4h-5.52l9.93-16.61L1197,28.6h5.89l3.29,5.8,3.34,6h.23l3.34-6,3.43-5.8h5.52l-9.37,15.77Z"/><path class="cls-1" d="M672.81,555.7h-.39v23.7h-4.33V548.6h6.35l9,23.7h.4V548.6h4.32v30.8h-6.35Z"/><path class="cls-1" d="M730.23,440h11.4a9.84,9.84,0,0,1,7,2.32,8.22,8.22,0,0,1,2.48,6.33,6.9,6.9,0,0,1-1.42,4.59,7.57,7.57,0,0,1-3.82,2.41v.24a8.86,8.86,0,0,1,4.63,2.53,7.39,7.39,0,0,1,1.75,5.27,10.22,10.22,0,0,1-.66,3.73,8.8,8.8,0,0,1-1.9,3,8.56,8.56,0,0,1-2.95,1.94,10.15,10.15,0,0,1-3.8.68H730.23Zm10.31,14.19a6.37,6.37,0,0,0,3.81-1,3.81,3.81,0,0,0,1.3-3.24v-1.7a3.8,3.8,0,0,0-1.3-3.24,6.3,6.3,0,0,0-3.81-1h-5.11v10.12Zm.76,14.75a6.59,6.59,0,0,0,4.06-1.09,4.11,4.11,0,0,0,1.42-3.5v-1.7a4.12,4.12,0,0,0-1.42-3.5A6.59,6.59,0,0,0,741.3,458h-5.87v10.88Z"/><path class="cls-1" d="M1222.45,195.67h-5.89l-3.67-6.4-3.43-6.12h-.28l-3.52,6.12-3.81,6.4h-5.52l9.93-16.61-9.33-15.77h5.9l3.29,5.8,3.34,6h.23l3.34-6,3.43-5.8H1222l-9.37,15.77Z"/><path class="cls-1" d="M1231.37,52.94h8.3a7.2,7.2,0,0,1,5.08,1.69,6,6,0,0,1,1.81,4.62,5.06,5.06,0,0,1-1,3.34,5.54,5.54,0,0,1-2.79,1.75v.18a6.46,6.46,0,0,1,3.38,1.84,5.41,5.41,0,0,1,1.27,3.84,7.47,7.47,0,0,1-.48,2.72,6.2,6.2,0,0,1-1.38,2.15,6,6,0,0,1-2.15,1.41,7.3,7.3,0,0,1-2.77.5h-9.23Zm7.51,10.34a4.6,4.6,0,0,0,2.77-.71,2.76,2.76,0,0,0,.95-2.36V59a2.76,2.76,0,0,0-.95-2.36,4.6,4.6,0,0,0-2.77-.7h-3.72v7.37Zm.55,10.74a4.78,4.78,0,0,0,3-.79,3,3,0,0,0,1-2.55V69.44a3,3,0,0,0-1-2.55,4.85,4.85,0,0,0-3-.79h-4.27V74Z"/><path class="cls-1" d="M1232.19,191.49h-.31V210h-3.37v-24h5l7.06,18.5h.31v-18.5h3.37v24h-5Z"/><path class="cls-1" d="M721.88,455.45l-26.64.08,0-5.23,19.32-26.75-18.66.06,0-5,25.16-.08,0,5.23-19.32,26.75,20.14-.06Z"/></svg>