<svg xmlns="http://www.w3.org/2000/svg" viewBox="0 0 2543 969"><defs><style>.cls-1{fill:#ccc;}.cls-2,.cls-3,.cls-4{fill:none;stroke-miterlimit:10;}.cls-2,.cls-3{stroke:red;}.cls-2{stroke-width:0.5px;}.cls-4{stroke:#ccc;}.cls-5{fill:#662d91;}.cls-6{fill:#93278f;}.cls-7{fill:#0071bc;}.cls-8{fill:#29abe2;}.cls-9{fill:#39b54a;}.cls-10{fill:#ff0;}.cls-11{fill:#fff;}</style></defs><g id="Lines"><path class="cls-1" d="M595,414.12h-13.8l-.08.18,13.67,1.6Z"/><polyline class="cls-2" points="798.75 508.05 674.26 383.55 756.53 596.43"/><polyline class="cls-2" points="815.04 429.83 674.26 383.55 808.43 465.66"/><polyline class="cls-2" points="786.16 564.76 674.26 383.55 767.71 574.3"/><polyline class="cls-2" points="790.98 530.4 674.26 383.55 805.23 487.12"/><line class="cls-2" x1="674.26" y1="383.55" x2="811.62" y2="444.36"/><path class="cls-1" d="M517.93,613.27l4.62,3.38H530l-6.62-4.7a2.73,2.73,0,0,1-.44-.34,1.79,1.79,0,0,1,0-2.21,2.28,2.28,0,0,1,.67-.42q17.57-8,34.94-17.15a26.71,26.71,0,0,1,9.94-2.84c2.93-.29,5.87-.37,8.81-.62a22.3,22.3,0,0,0,2.86-.66c.3-.06.59-.09.88-.13l0,.17-1.2,1.83c-1,1.47-1.93,2.94-2.91,4.39a32.63,32.63,0,0,0-4.89,12.65c-.61,3.34-1.2,6.69-1.79,10h1.88l1.68-9a27.86,27.86,0,0,1,3.64-9.74c2.06-3.3,4.19-6.47,6.26-9.74a4.16,4.16,0,0,1,2.77-2.11c5.88-1.18,11.76-2.41,17.64-3.63.78-.17,1.55-.38,2.33-.55a1,1,0,0,1,.49,0c.62.16.83,1.1.44,1.93l-6.39,13.57-1.89,4.05a7.77,7.77,0,0,1-1.9,2.64l-14.61,12.57h5.06q4.71-3.95,9.37-8.07a19.76,19.76,0,0,0,4.65-6.58c2-4.25,4-8.44,6-12.68.49-1,.92-2.13,1.4-3.18.71-1.57,1.24-1.79,2.17-.59,1.49,1.92,2.94,4,4.39,6l9.3,12.86c.26.37.54.7.81,1a1.09,1.09,0,0,1,.17,1.1,7.32,7.32,0,0,1-.71,1.59c-.27.36-.7.7-1,.59a5.55,5.55,0,0,0-4.94.88,80.43,80.43,0,0,0-9.78,7.07H615a31.49,31.49,0,0,0,4.41-3.35,5.41,5.41,0,0,1,2.1-1.16,4,4,0,0,1,3.12.37,4.65,4.65,0,0,1,1.22,1.3c.69.86,1.34,1.79,2,2.69l0,0,.1.12h15.67l1.31-.34a2.81,2.81,0,0,1,1.54.14,1.2,1.2,0,0,1,.37.2h3.34c0-2.51.06-5,.18-7.53a131.32,131.32,0,0,0,.11-15.24,78.21,78.21,0,0,0-1.27-10.25c-.55-2.71-1.36-3.37-3-2.48-.93.51-1.84,1.12-2.76,1.71a17.53,17.53,0,0,0-6,6.28,11.1,11.1,0,0,1-1,1.35c-.08-2-.16-3.71-.23-5.46a16.13,16.13,0,0,0-1-6q-4.56-10-9.11-20.13c-.82-1.83-1.91-2.67-3.27-2.66-3.49,0-7,.07-10.47,0a9.88,9.88,0,0,0-6.24,2l-2,1.43-9,6.5c-.55.4-1.1.62-1.68.15-1.61-1.32-3.23-2.61-4.83-4a4.68,4.68,0,0,0-3.5-1.44c-3.9.43-7.79.89-11.68,1.41-4.25.58-8.49,1.26-12.74,1.86a7.31,7.31,0,0,0-5.32,3.57c-1.34,2.09-2.6,4.35-3.84,6.62s-2.21,2.7-3.85,1.68a3.23,3.23,0,0,0-4.11.3,14,14,0,0,0-2,2.06q-3.43,4.31-6.84,8.71c-5.79,7.53-11.56,15.1-18,21.15a2.86,2.86,0,0,0-.26,3.44A5.4,5.4,0,0,0,517.93,613.27Zm121.6-20.38c.68-.93,1.32-1.93,2-2.9a5.16,5.16,0,0,1,3.35-2.39c1-.19,1.59.43,2.06,1.9.3.94.65,1.84,1,2.76a11.16,11.16,0,0,1,.61,3.74c-.5,3.22-.13,6.79-.29,10.32-.12,2.65-.91,4.11-2.47,4.64-3.73,1.27-7.46,2.49-11.17,3.81-1.93.68-3.66.06-5.24-1.82a25.64,25.64,0,0,1-1.61-2.24,1.28,1.28,0,0,1,0-1.75Q633.67,600.92,639.53,592.89Zm-15.94-30.23c.53-.81.85-.74,1.28.23l7.26,16.48a26.12,26.12,0,0,1,1.92,9.23c.06,1.08.09,2.17.14,3.61a6.69,6.69,0,0,1-.67,2.66,11.82,11.82,0,0,1-.88,1.57c-1.43,2.2-2.88,4.36-4.32,6.56-.73,1.11-1.14,1.15-1.82,0-4.23-7.25-8.72-14.06-13.27-20.75-.15-.23-.3-.48-.44-.74a4.18,4.18,0,0,1,0-4,13.09,13.09,0,0,1,1.07-1.57q4.14-5.54,8.28-11.07C622.66,564.21,623.11,563.39,623.59,562.66Zm-25.08,10.26a47.28,47.28,0,0,1,8-9.55c1-.93,1.92-2.08,2.9-3.07a1.31,1.31,0,0,1,.9-.48c3.72.31,7.44.67,11.21,1l-1.26,1.68c-2.38,3.18-4.76,6.34-7.12,9.56a22.43,22.43,0,0,0-1.76,2.84,6.52,6.52,0,0,1-4.88,3.77c-4.26.75-8.51,1.53-12.76,2.3a1.56,1.56,0,0,1-.48,0c-.42,0-.71-.4-.78-1.12a1,1,0,0,1,.57-1.14A18,18,0,0,0,598.51,572.92Zm-46,5.17c.26-.48.55-.91.83-1.36q2.33-3.75,4.64-7.49a1.71,1.71,0,0,1,1.4-1c4.93-.08,9.81-1,14.7-1.88,3.1-.53,6.21-.94,9.31-1.4.79-.12,1.57-.28,2.35-.32a1.79,1.79,0,0,1,1.16.29c2,1.46,3.92,3,5.88,4.48l.19.17a2.69,2.69,0,0,1,0,3.63c-.87.8-1.77,1.52-2.65,2.27q-4.95,4.18-9.9,8.34a2.19,2.19,0,0,1-1.1.52c-4.94.51-9.87,1-14.81,1.46a7.09,7.09,0,0,1-.8,0,7.39,7.39,0,0,1-4.84-1.68c-2-1.48-3.92-3-5.87-4.47a2,2,0,0,1-.36-.31A1,1,0,0,1,552.46,578.09Zm-26,24.83q7.64-9.36,15.26-18.72c.84-1,1.71-2,2.55-3,1.5-1.8,3.07-2.09,4.74-.74,2,1.62,4,3.19,6,4.79a1.87,1.87,0,0,1,.78,1.65,2,2,0,0,1-.78,1.75c-1.11.68-2.23,1.33-3.37,1.91q-12.43,6.41-24.89,12.78c-.26.13-.53.23-.8.35l0-.13C526.08,603.34,526.26,603.13,526.43,602.92Z"/><path class="cls-1" d="M510.9,621.21a71.12,71.12,0,0,0,18.49-.52c6.6-1.08,12.74-3.82,19.29-5,7.49-1.34,13.23,2.09,20.21,3.83,6.36,1.57,12.31.26,18.62-.85,13.94-2.45,28.66,1.87,42.7,2.35a218.79,218.79,0,0,0,41.46-2.65c3.48-.54,2-5.84-1.46-5.3a211.9,211.9,0,0,1-42.85,2.34c-13-.63-26.46-4.42-39.46-2.36-7.33,1.16-13.5,2.61-20.76.18-5.85-2-11.13-4-17.41-3.24s-12.15,3.37-18.3,4.72a65.52,65.52,0,0,1-20.53,1c-3.52-.35-3.49,5.15,0,5.5Z"/><line class="cls-3" x1="583.49" y1="426.24" x2="583.49" y2="561.31"/><path class="cls-1" d="M208.1,365.35c-2.66-6.48-7.47-5.19-12.54-3.52-7.22,2.36-7.24,2.27-3.76,9,.32.62.55,1.29.91,2.14-2.68,1.09-4.93,2.27-6.64-1.44-.48-1-2.83-1.9-4.17-1.72a89.43,89.43,0,0,0-12.52,2.68,6,6,0,0,0-3.28,3,12.17,12.17,0,0,0,0,10.89,7.49,7.49,0,0,0,4.1,3.27c3.46,1.12,7.11,1.61,10.65,2.49,2.72.67,4.83,0,5.94-2.59.75-1.77,1.85-1.93,3.46-1.47,2.29.65,4.61,1.17,7.16,1.81-1.79,3.85-3.46,7.41-5.57,11.91,6,.17,11.4.34,16.82.45a1.72,1.72,0,0,0,1.35-.68c1.79-3.57,4.67-2.13,7.34-1.69.62.1,1.23.26,1.84.36,4.12.72,4.51.41,4.57-3.91,5,1,10,2,14.94,2.89a178.64,178.64,0,0,0,39,2.27c12-.53,23.65,2.2,35.51,2.77,17.29.83,34.59,1.76,51.89,1.88,59.05.38,118.11.45,177.16.58,7.09,0,14.18-.31,21.27-.46.71,0,1.42.09,2.56.16,0,5,.14,9.84-.05,14.7-.11,2.94.7,4.55,3.88,4.59,9.25.14,18.5.39,27.76.55,2.53.05,3.44-1.37,3.39-3.79-.09-4.07,0-8.14,0-12.21s1.08-5.5,5.1-5.93c9.74-1.05,19.5-2,29.26-2.84a3.07,3.07,0,0,1,2,.94c2.16,2.13,3.18,2,4.91-.32a6.59,6.59,0,0,1,3.4-2.14c4.53-1.21,9.31-1.68,13.63-3.37a36.43,36.43,0,0,0,11.09-6.69c5.41-4.92,5.35-12.19.39-17.63-5.26-5.79-12.38-8.28-19.76-9.17a286.27,286.27,0,0,0-33.33-2.45q-175.44-.28-350.9-.15a169.08,169.08,0,0,0-36.65,3.81c-1.5.33-2.95,1-3.93-1.08a3,3,0,0,0-2.45-1c-4.05.22-8.11.52-12.13,1C210.6,363.41,209.63,364.43,208.1,365.35Zm17.17,2c1-.17,1.87-.27,2.67-.46a180,180,0,0,1,40.66-4.44q167,0,334,.06c14.06,0,28.12.84,42.16,1.68a42.76,42.76,0,0,1,20.76,6.31c9,5.76,9,15,.09,20.92-5.54,3.69-11.88,4.92-18.25,6.09-3,.55-6.3.52-7.52,4.36-2-2.78-2-2.71-5.06-2.47-16.22,1.28-32.41,3-48.65,3.69-22.82,1-45.67,1.17-68.5,1.66a8.32,8.32,0,0,1-3.15-.73c-1-.39-1.81-1.54-2.7-1.54q-35.22-.13-70.44-.05c-.75,0-2.07.21-2.16.57-.54,2.18-2.2,1.59-3.54,1.59-16,0-31.93.06-47.89-.19q-32.85-.53-65.69-1.51c-7-.21-13.92-1.14-20.88-1.74a3.53,3.53,0,0,1,2.4-1.14c26.64-1.7,53.26-4,79.93-4.91,37.11-1.23,74.26-1.32,111.38-2q51.95-.93,103.88-2c5.66-.11,11.32-.4,17-.6a14.26,14.26,0,0,0-5.67-.74q-45.52.57-91.06,1.15c-43.6.62-87.2,1.08-130.79,2.06-20.85.47-41.68,1.8-62.5,3.11-12,.74-23.86,2.81-35.82,3.23-22.44.81-44.88.52-66.83-5.29a12,12,0,0,0-2.38-.14l.6,4.61-8-1.57c3.77-6.18,9.7-5.93,15.46-6.65a9.72,9.72,0,0,0-4.49-2.14c-6.36-1.16-12.76-2.12-19.1-3.36-3.05-.59-5.85-1.23-6.55,3.15-3.35-.77-6.4-1.41-9.4-2.19-1.94-.5-3.2-.17-3.81,1.95-.66,2.29-2.12,3-4.56,2.32-2.79-.83-5.68-1.3-8.54-1.92-4.06-.87-4.81-1.66-5.09-5.79a20.58,20.58,0,0,1,.22-4.36,4,4,0,0,1,3.56-3.75c3.49-.63,6.91-1.64,10.41-2.16,1.06-.16,3.09.54,3.28,1.24,1.13,4,3.71,3.41,6.57,2.49,1.43-.45,3-.88,3.48,1.23.67,2.83,2.56,3.12,5,2.63,1.32-.27,2.71-.22,4-.45,5.95-1,11.9-2,17.82-3.23.92-.19,1.65-1.36,2.47-2.08a14,14,0,0,0-2.68-1.81c-3-1.17-6.09-2.08-9.07-3.28-.66-.27-1.5-1.43-1.37-2a2.77,2.77,0,0,1,1.94-1.57c2.77-.47,5.59-.66,8.38-1C223.58,363.88,225.41,364.23,225.27,367.32Zm373.62,37.33c0,6,0,11.45,0,17,0,1.5-.12,2.52-2,2.72a92,92,0,0,1-26.72-.72c-.77-.14-1.95-1.11-2-1.73-.16-5.16-.09-10.33-.09-15.77ZM191.41,365.3c3.05-.9,5.94-1.66,8.76-2.62a3.43,3.43,0,0,1,4.5,1.52A20.54,20.54,0,0,0,216.75,373c1,.25,1.9.57,2.86.87-.1.26-.12.44-.17.44-6.95,1.09-13.9,2.2-20.86,3.2a2.17,2.17,0,0,1-1.69-1C195.06,372.91,193.34,369.27,191.41,365.3Zm27.12,23.8a20,20,0,0,0-8.38,8.77,4.77,4.77,0,0,1-3.17,2.44c-3.77.14-7.56-.24-11.93-.45,2.21-4.59,4.09-8.6,6.12-12.53a2.43,2.43,0,0,1,2-.73C208.32,387.37,213.42,388.25,218.53,389.1Zm257.19,14.74,0,.6h-7.23v-.6Zm-16.61.61,0-.51h7.14l0,.51Zm25.73-.69v.6h-7.21v-.6Zm2.14.71,0-.61h7.24v.61Z"/><path class="cls-1" d="M850.44,613.4a14.28,14.28,0,0,0,1.43,1.84,28.12,28.12,0,0,1,6.64,10.58c.62,1.62,1.27,3.22,1.81,4.87.94,2.87.24,4.31-2.62,5.27a52.06,52.06,0,0,1-10.85,2.25,84.19,84.19,0,0,1-16.11-.19c-3.45-.3-6.92-.22-10.38-.43-5.37-.34-10.73-.8-16.09-1.19-3.9-.28-7.81-.73-11.71-.74a78.84,78.84,0,0,0-8.75.89c-3.65.39-7.3.8-11,1.16A8.92,8.92,0,0,1,767,636.1c-2.93-1.94-5.78-4-8.65-6-1-.75-2-1.58-3.1-2.3a4.14,4.14,0,0,1-1.9-3.12c-.23-2.22-.36-4.45-.57-6.67-.32-3.57-.62-7.15-1-10.72A31.1,31.1,0,0,1,753.86,592c1.63-4.06,3.52-8,5.44-12a5.71,5.71,0,0,1,2.19-2c6.66-4.1,13.55-7.79,20.57-11.24,2.43-1.19,4.87-2.35,7.31-3.51,1.85-.88,2.25-1.61,2.1-3.66-.59-7.83-.63-15.68-.55-23.53,0-3.28,0-6.56.17-9.84a8.67,8.67,0,0,1,.72-3c3.67-8.17,6.66-16.6,9.73-25,.89-2.41,1.81-4.81,2.71-7.22,1.14-3.06,1.27-6.3,1.73-9.49.76-5.28,1.66-10.53,2.45-15.79,1.38-9.08,2.71-18.17,4.07-27.25a34.59,34.59,0,0,1,2.54-8.58q5.61-13,11.31-26a8.62,8.62,0,0,1,1.59-2.41,2.15,2.15,0,0,1,3.63.46c6.4,11.33,14.41,21.53,22.37,31.77q4.66,6,9.21,12.08a23.88,23.88,0,0,1,2.18,3.54,8.8,8.8,0,0,1,.31,7.26c-1.07,2.89-.52,4.71,1.78,6.8s4.79,4.41,7,6.79a15.18,15.18,0,0,1,3.77,9.4c.64,7.5,1.36,15,2,22.51.56,6.87,1,13.76,1.49,20.64a11.64,11.64,0,0,1-1.52,6.19c-1.45,2.82-2.82,5.69-4.21,8.54a3.32,3.32,0,0,0,.16,3L883,556.28c.5,1.15,1,2.31,1.52,3.46a26.24,26.24,0,0,1,2.13,11c0,6.17,0,12.34,0,18.51a6.75,6.75,0,0,1-2.81,5.77q-10.65,8-21.29,16.1c-1.88,1.42-4.08,1.68-6.32,1.83ZM807.81,496.45a12.58,12.58,0,0,0-.68,1.21c-.64,1.57-1.23,3.17-1.88,4.75-2.93,7-5.83,14.1-8.82,21.12a11,11,0,0,0-.91,3.94c-.11,3.06-.28,6.13-.44,9.2a125.8,125.8,0,0,0-.19,16.36,33.38,33.38,0,0,0,.8,5.35,4.32,4.32,0,0,0,3.72,3.3,17.43,17.43,0,0,0,3,.21q7-.09,13.92-.25c3.09-.07,5.08,1.41,6.45,4.13a162.72,162.72,0,0,1,7.49,17.32,15.29,15.29,0,0,1,.93,8.72,2.53,2.53,0,0,0,.62,1.75,6.9,6.9,0,0,0,1.69,1.26.81.81,0,0,0,1.16-.3c.37-.48.72-1,1.11-1.43l13.6-16.43c2.12-2.57,4.27-5.12,6.3-7.76,1.27-1.65,1-2.59-.62-3.84-1.12-.84-2.28-1.61-3.37-2.47-4.47-3.52-8.91-7.09-13.41-10.58a25.36,25.36,0,0,1-7-8.22c-7.56-14.26-14.63-28.75-21.6-43.3C809.09,499.2,808.49,497.9,807.81,496.45Zm45.53,19.1.18-.08c0-.52-.08-1-.15-1.56-.23-1.69-.6-3.37-.69-5.06-.27-5.19-.35-10.39-.66-15.57a72.73,72.73,0,0,0-3-17.57Q839.36,445,830.88,414a4.7,4.7,0,0,0-.44-1.17,1.34,1.34,0,0,0-2.34,0,5,5,0,0,0-.36.78c-2.33,5.48-4.63,11-7,16.43a47.08,47.08,0,0,0-3.59,10.88c-.36,2.25-.45,4.54-.81,6.79q-3.4,21.22-6.87,42.42c-.33,2,0,2.49,1.94,3.06,7.33,2.15,14.65,4.28,22,6.48a28.58,28.58,0,0,1,13.38,8.65c1.53,1.73,3.09,3.43,4.64,5.14C852,514.14,852.69,514.84,853.34,515.55ZM804.6,565.66c-3.12,0-6.25,0-9.37,0a7.67,7.67,0,0,0-2.85.71c-2.36,1.09-4.64,2.33-7,3.47q-10.6,5.18-21.61,9.49a3.68,3.68,0,0,0-2.31,2.47c-1.08,3.35-2.22,6.67-3.35,10-.53,1.54-1.11,3.06-1.61,4.6-.37,1.12-.06,1.68,1.05,2.05l.53.14a216.69,216.69,0,0,1,22.16,6.87,3.61,3.61,0,0,0,3.15-.29c2.91-1.57,5.81-3.17,8.8-4.57,4.74-2.23,9.56-4.31,14.35-6.46a9.25,9.25,0,0,0,5.62-7.68c.49-3.34,1.09-6.67,1.73-10,.59-3.09,1.32-6.16,2-9.24.21-1-.14-1.42-1.14-1.55-.31,0-.63,0-.94-.05Zm12.9-67.3,0,.09a11.62,11.62,0,0,0-1.32.17,2.22,2.22,0,0,0-1.84,3,8.83,8.83,0,0,0,.67,1.67c.64,1.23,1.34,2.44,2,3.67q9.57,18.57,19.12,37.15a10,10,0,0,0,2.8,3.35l4.28,3.35,14.35,11.29a1.19,1.19,0,0,0,2-.78,3.12,3.12,0,0,0,0-.86c-.18-1.37-.4-2.75-.58-4.13-1.29-10.38-2.59-20.77-3.83-31.16a8.18,8.18,0,0,0-2.24-4.89c-3.46-3.66-6.81-7.43-10.3-11.07a24,24,0,0,0-10.3-6.44c-3.93-1.22-7.85-2.47-11.79-3.67C819.49,498.79,818.49,498.6,817.5,498.36Zm37.87-13.7c0,.47,0,.94,0,1.41.51,8.72,1,17.45,1.55,26.17a5.14,5.14,0,0,0,.55,1.94q4.38,8.76,8.82,17.49c.79,1.57,1.56,3.15,2.4,4.69a2.11,2.11,0,0,0,3.84,0l.18-.35c1.58-3.46,3.2-6.9,4.73-10.38a4.88,4.88,0,0,0,.31-2c0-1.39-.21-2.77-.34-4.16-.48-5.48-.92-11-1.48-16.46-.88-8.64-1.9-17.26-2-26a3.46,3.46,0,0,0-1-2.48c-2.65-2.72-5.28-5.47-7.92-8.21-.47-.49-.93-1-1.44-1.46s-.95-.4-1.36.22a3.64,3.64,0,0,0-.32.62q-2.37,5.19-4.73,10.39A19.09,19.09,0,0,0,855.37,484.66ZM785.87,613a20.48,20.48,0,0,0,1.74,7.91,18.57,18.57,0,0,0,7,8.85,6.3,6.3,0,0,0,2.56.88c5.81.67,11.63,1.26,17.45,1.85,2,.2,3.92.4,5.88.5a2.15,2.15,0,0,0,2.44-1.87,8.31,8.31,0,0,0,.14-2.72c-.88-5.92-1.84-11.82-2.75-17.73a19.42,19.42,0,0,0-7-12.64,4.27,4.27,0,0,0-4.84-.58c-6,2.74-12.07,5.5-18.17,8.11a6.58,6.58,0,0,0-4.45,6.07C785.91,612.13,785.89,612.6,785.87,613Zm62.75-3.71c1.52-.09,2.67-.14,3.82-.24a18.82,18.82,0,0,0,9.76-3.4l17.43-12.83c1-.76,1.09-1.33.24-2.26s-1.64-1.64-2.36-2.53c-3.92-4.87-7.8-9.76-11.7-14.63a16.61,16.61,0,0,0-1.67-1.88,2.89,2.89,0,0,0-4.18,0,7.18,7.18,0,0,0-.78.78c-7.08,8-14.28,16-21.95,23.45-1.23,1.2-1.2,1.92,0,3.21,2.32,2.54,4.61,5.1,6.94,7.63a14.3,14.3,0,0,0,1.65,1.56A5,5,0,0,0,848.62,609.31Zm-4,25.29a7.51,7.51,0,0,0,3.95-1.09c1-.56,1.93-1.17,2.92-1.7a3.29,3.29,0,0,0,2-3.65,10.49,10.49,0,0,0-2.52-5.91c-1-1.16-2.08-2.3-3.07-3.5q-8.5-10.37-17-20.78c-.67-.83-1.11-.89-1.85-.09a32.12,32.12,0,0,0-2.37,2.84,11.23,11.23,0,0,0-1.92,9.25c1.39,6.57,2.68,13.16,4,19.74.57,2.76,2.1,4.16,4.91,4.38C837.43,634.37,841.2,633.71,844.61,634.6Zm-89.56-33.47c.12,1.27.19,2.45.35,3.6.94,6.54,1.92,13.08,2.84,19.62a2.49,2.49,0,0,0,1.4,2c3.53,2,7.05,3.94,10.57,5.91a1.75,1.75,0,0,0,2.53-.37q3.93-4,7.85-7.94a5.81,5.81,0,0,0,1.9-4.35,26.1,26.1,0,0,0-1.87-8.8,4.19,4.19,0,0,0-3-2.38q-9.42-2.93-18.82-5.94C757.61,602.11,756.4,601.62,755.05,601.13ZM881.79,587c.37-6.65.75-13.22,1.07-19.8a3,3,0,0,0-.5-1.6c-1.05-1.72-2.26-3.35-3.24-5.12A69.31,69.31,0,0,0,869,546.26a28.35,28.35,0,0,1-6.19-9.6c-.21-.56-.45-1.12-1.21-1a1.35,1.35,0,0,0-1.18,1.37,4.18,4.18,0,0,0,0,.86q1.21,11.26,2.43,22.53c.35,3.34,1.37,6.33,4,8.64a26.7,26.7,0,0,1,3,3.1c3.4,4.17,6.74,8.39,10.11,12.59ZM836.62,418l-.14.07c.13.47.23,1,.38,1.42q6.74,22,13.5,44,.93,3,2,5.95a1.92,1.92,0,0,0,1.84,1.37c.94,0,1.39-.63,1.75-1.37,1.69-3.55,3.35-7.11,5.06-10.65a7.68,7.68,0,0,0-.78-8.38c-1.07-1.49-2.09-3-3.17-4.5q-9.89-13.5-19.79-27ZM820.09,569.3l-.25.1a1.76,1.76,0,0,0-.09.2q-2.36,9.75-4.7,19.5a6.42,6.42,0,0,0,2.32,7,10.35,10.35,0,0,1,2,2.12c1.32,1.83,2.33,1.85,3.58,0a.21.21,0,0,1,0-.06c.95-1.18,1.93-2.34,2.84-3.54a7.69,7.69,0,0,0,1.38-2.16,11.37,11.37,0,0,0,.38-5.52,12.54,12.54,0,0,0-1.22-3.71c-2.21-3.93-3.63-8.19-5.37-12.32A17.82,17.82,0,0,0,820.09,569.3Zm-31,60.72c-1.07-1.51-2-2.93-3.07-4.33-.44-.6-.9-.42-1.37,0q-3.12,3.18-6.25,6.32a6.42,6.42,0,0,0-.45.6Z"/><path class="cls-1" d="M876.34,629.3a52,52,0,0,1-10.78-1.06,6.42,6.42,0,0,1-5.18-5.87,5.73,5.73,0,0,1,1.37-4.67c1.84-2.12,3.65-4.27,5.48-6.39a7.5,7.5,0,0,1,3.84-2.35c3.28-.85,6.57-1.64,9.86-2.42a6.15,6.15,0,0,1,4.77.74c2.35,1.39,4.66,2.83,7,4.25a18.4,18.4,0,0,0,1.84,1,4.8,4.8,0,0,1,3.09,4.13,17.06,17.06,0,0,1-.16,3.91,4,4,0,0,1-2.6,3.13c-2.59,1.06-5.21,2.06-7.81,3.13-1.7.69-3.35,1.49-5.06,2.17a6.17,6.17,0,0,1-2.13.43C878.7,629.49,877.52,629.36,876.34,629.3Zm5.34-9.39v.23c.25-.06.51-.11.76-.18,1.26-.37,2.52-.72,3.77-1.11,2.13-.67,4.25-1.35,6.36-2.06a4,4,0,0,0,.91-.65c-.25-.28-.5-.57-.76-.85a.74.74,0,0,0-.13-.08c-3.18-1.94-6.35-3.89-9.55-5.79a2,2,0,0,0-1.4-.29c-2.87.83-5.76,1.61-8.56,2.65a13.13,13.13,0,0,0-7.29,6.4c-.6,1.15-.42,1.45.86,1.47Zm-5.88,5.84v-.15c.87,0,1.73,0,2.59,0s1.42-.59,1.33-1.31c-.11-.88-.77-.84-1.42-.85-3.51,0-7-.09-10.53-.19-.86,0-1.71-.22-2.57-.32-.47-.06-.91,0-1,.58a.92.92,0,0,0,.63,1.18,3.92,3.92,0,0,0,1.06.26C869.17,625.22,872.49,625.49,875.8,625.75Z"/><rect class="cls-4" x="53.25" y="239.5" width="936" height="490" rx="13.43"/><path class="cls-1" d="M2122.05,440.21h-13.8l-.08.17,13.67,1.61Z"/><path class="cls-1" d="M1735.19,391.44c-2.66-6.49-7.47-5.19-12.54-3.53-7.22,2.37-7.24,2.28-3.76,9,.32.63.55,1.3.91,2.15-2.68,1.08-4.93,2.26-6.64-1.44-.48-1-2.83-1.9-4.17-1.72a89.4,89.4,0,0,0-12.52,2.67,6,6,0,0,0-3.28,3,12.17,12.17,0,0,0,0,10.89,7.49,7.49,0,0,0,4.1,3.27c3.46,1.11,7.11,1.6,10.65,2.48,2.72.67,4.83,0,5.94-2.59.75-1.77,1.85-1.92,3.46-1.47,2.29.65,4.61,1.18,7.16,1.81-1.79,3.85-3.46,7.41-5.57,11.91,6,.17,11.4.35,16.82.45a1.71,1.71,0,0,0,1.35-.67c1.79-3.57,4.67-2.14,7.34-1.69.62.1,1.23.25,1.84.36,4.12.71,4.51.41,4.57-3.92,5,1,10,2,14.94,2.9a178.64,178.64,0,0,0,39,2.26c12-.53,23.65,2.21,35.51,2.78,17.29.82,34.59,1.76,51.89,1.87,59,.39,118.11.45,177.16.59,7.09,0,14.18-.31,21.27-.46.71,0,1.42.08,2.56.15,0,5,.14,9.85-.05,14.71-.11,2.94.7,4.54,3.88,4.59,9.25.13,18.5.38,27.76.55,2.53,0,3.44-1.37,3.39-3.8-.09-4.06,0-8.14,0-12.2s1.08-5.5,5.1-5.94c9.74-1.05,19.5-1.95,29.26-2.83a3,3,0,0,1,2,.94c2.16,2.12,3.18,2,4.91-.32a6.6,6.6,0,0,1,3.4-2.15c4.53-1.2,9.31-1.68,13.63-3.37a36.24,36.24,0,0,0,11.09-6.69c5.41-4.91,5.35-12.18.39-17.63-5.26-5.78-12.38-8.28-19.76-9.16a284.11,284.11,0,0,0-33.33-2.46q-175.44-.27-350.9-.14a169.7,169.7,0,0,0-36.65,3.8c-1.5.33-3,1-3.93-1.08a3.05,3.05,0,0,0-2.45-1c-4.05.22-8.11.52-12.13,1C1737.69,389.5,1736.72,390.52,1735.19,391.44Zm17.17,2c1.05-.18,1.87-.28,2.67-.46a179.46,179.46,0,0,1,40.66-4.44q167-.06,334,.06c14.06,0,28.12.84,42.16,1.67a42.87,42.87,0,0,1,20.76,6.32c9,5.76,9,15,.09,20.92-5.54,3.68-11.88,4.91-18.25,6.09-3,.55-6.3.52-7.52,4.35-2-2.77-2-2.71-5.06-2.47-16.22,1.29-32.41,3-48.65,3.69-22.82,1-45.67,1.18-68.5,1.66a8.32,8.32,0,0,1-3.15-.73c-1-.38-1.81-1.53-2.7-1.54q-35.22-.13-70.44,0c-.75,0-2.07.22-2.16.58-.54,2.17-2.2,1.59-3.54,1.58-16,0-31.93.06-47.89-.19q-32.85-.51-65.69-1.5c-7-.21-13.92-1.15-20.88-1.75a3.59,3.59,0,0,1,2.4-1.14c26.64-1.7,53.26-4,79.93-4.91,37.11-1.22,74.26-1.32,111.38-2q51.94-.92,103.88-2c5.66-.12,11.32-.4,17-.61a14.63,14.63,0,0,0-5.67-.74q-45.53.57-91.06,1.15c-43.6.62-87.2,1.08-130.79,2.06-20.85.47-41.68,1.81-62.5,3.11-12,.75-23.86,2.81-35.82,3.24-22.44.8-44.88.52-66.83-5.3a12,12,0,0,0-2.38-.13l.6,4.6-8-1.57c3.77-6.18,9.7-5.92,15.46-6.65a9.7,9.7,0,0,0-4.49-2.13c-6.36-1.16-12.76-2.13-19.1-3.36-3-.6-5.85-1.24-6.55,3.14-3.35-.77-6.4-1.4-9.4-2.18-1.94-.51-3.2-.18-3.81,1.94-.66,2.3-2.12,3-4.56,2.32-2.79-.83-5.68-1.3-8.54-1.91-4.06-.88-4.81-1.66-5.09-5.8a20.45,20.45,0,0,1,.22-4.35,4,4,0,0,1,3.56-3.76c3.49-.63,6.91-1.63,10.41-2.15,1.06-.16,3.09.54,3.28,1.23,1.13,4.05,3.71,3.42,6.57,2.5,1.43-.46,3-.89,3.48,1.22.67,2.83,2.56,3.12,5,2.63,1.32-.26,2.71-.22,4-.45,6-1,11.9-2,17.82-3.22.92-.19,1.65-1.36,2.47-2.08a14.09,14.09,0,0,0-2.68-1.82c-3-1.16-6.09-2.08-9.07-3.28-.66-.27-1.5-1.43-1.37-2a2.79,2.79,0,0,1,1.94-1.56c2.77-.47,5.59-.66,8.38-1C1750.67,390,1752.5,390.31,1752.36,393.41ZM2126,430.74c0,5.95,0,11.45,0,16.94,0,1.51-.12,2.52-2.05,2.73a91.7,91.7,0,0,1-26.72-.73c-.77-.14-1.95-1.11-2-1.72-.16-5.17-.09-10.34-.09-15.77ZM1718.5,391.38c3-.9,5.94-1.65,8.76-2.62a3.44,3.44,0,0,1,4.5,1.53,20.52,20.52,0,0,0,12.08,8.75c1,.26,1.9.58,2.86.87-.1.27-.12.44-.17.45-7,1.09-13.9,2.19-20.86,3.19a2.12,2.12,0,0,1-1.69-1C1722.15,399,1720.43,395.36,1718.5,391.38Zm27.12,23.8a20.1,20.1,0,0,0-8.38,8.78,4.76,4.76,0,0,1-3.17,2.43c-3.77.14-7.56-.24-11.93-.45,2.21-4.59,4.09-8.6,6.12-12.53a2.39,2.39,0,0,1,2-.72C1735.41,413.45,1740.51,414.33,1745.62,415.18Zm257.19,14.74,0,.6h-7.23v-.6Zm-16.61.61,0-.51h7.14l0,.51Zm25.73-.68v.6h-7.21v-.6Zm2.14.7,0-.6h7.24v.6Z"/><rect class="cls-5" x="2062.25" y="607" width="39" height="39"/><rect class="cls-5" x="2103.25" y="607" width="39" height="39"/><rect class="cls-5" x="2144.25" y="607" width="39" height="39"/><rect class="cls-6" x="2103.25" y="564" width="39" height="39"/><rect class="cls-5" x="2267.25" y="607" width="39" height="39"/><rect class="cls-5" x="2309.25" y="607" width="39" height="39"/><rect class="cls-5" x="2352.25" y="607" width="39" height="39"/><rect class="cls-6" x="2352.25" y="566" width="39" height="39"/><rect class="cls-6" x="2309.25" y="566" width="39" height="39"/><rect class="cls-6" x="2267.25" y="566" width="39" height="39"/><rect class="cls-7" x="2309.25" y="525" width="39" height="39"/><rect class="cls-7" x="2352.25" y="525" width="39" height="39"/><rect class="cls-8" x="2352.25" y="484" width="39" height="39"/><rect class="cls-9" x="2352.25" y="443" width="39" height="39"/><rect class="cls-10" x="2352.25" y="402" width="39" height="39"/><rect class="cls-8" x="2309.25" y="484" width="39" height="39"/><rect class="cls-5" x="2185.25" y="607" width="39" height="39"/><rect class="cls-5" x="2226.25" y="607" width="39" height="39"/><rect class="cls-4" x="1553.75" y="239.5" width="936" height="490" rx="13.43"/><path class="cls-11" d="M96.49,309.76v-3h5.74V288.31H96.49v-3h15.4v3h-5.74v18.48h5.74v3Z"/><path class="cls-11" d="M125.23,310.18a12.35,12.35,0,0,1-5.06-.94,9.13,9.13,0,0,1-3.41-2.52l2.34-2.1a7.91,7.91,0,0,0,6.2,2.66,6.17,6.17,0,0,0,3-.63,2.1,2.1,0,0,0,1.14-2,2,2,0,0,0-.21-.95,1.8,1.8,0,0,0-.6-.63,3.27,3.27,0,0,0-.89-.38,6.14,6.14,0,0,0-1.07-.21l-2.87-.46a14,14,0,0,1-2.13-.45,6.83,6.83,0,0,1-2-.9,4.72,4.72,0,0,1-1.4-1.48,4.49,4.49,0,0,1-.54-2.31,4.74,4.74,0,0,1,2.12-4.2,9.74,9.74,0,0,1,5.58-1.44,11.53,11.53,0,0,1,4.36.75,8.58,8.58,0,0,1,3.06,2.09l-2.13,2.24a6.81,6.81,0,0,0-2-1.49,7.31,7.31,0,0,0-3.43-.68q-3.81,0-3.81,2.41a1.63,1.63,0,0,0,.82,1.59,5.32,5.32,0,0,0,1.94.58l2.87.46c.72.11,1.44.27,2.15.45a6.15,6.15,0,0,1,1.93.86,4.54,4.54,0,0,1,1.4,1.49,4.44,4.44,0,0,1,.54,2.31,5,5,0,0,1-2.12,4.28A9.62,9.62,0,0,1,125.23,310.18Z"/><path class="cls-11" d="M152.91,309.76a3.31,3.31,0,0,1-2.47-.84,3.71,3.71,0,0,1-1-2.2h-.18a4.65,4.65,0,0,1-1.91,2.55,6.23,6.23,0,0,1-3.51.91,6.39,6.39,0,0,1-4.41-1.45,5.07,5.07,0,0,1-1.65-4,4.64,4.64,0,0,1,1.94-4q2-1.38,6-1.38h3.47v-1.4q0-3.68-3.89-3.67a5.18,5.18,0,0,0-2.83.68,5.89,5.89,0,0,0-1.82,1.8l-2.28-1.85a6.53,6.53,0,0,1,2.59-2.54,9.2,9.2,0,0,1,4.69-1.07,8.11,8.11,0,0,1,5.39,1.65,5.84,5.84,0,0,1,2,4.76v9.06h2.28v3Zm-8-2.38a5.25,5.25,0,0,0,3-.83,2.55,2.55,0,0,0,1.19-2.16v-2.61h-3.4c-2.75,0-4.13.83-4.13,2.47v.7a2,2,0,0,0,.88,1.82A4.11,4.11,0,0,0,144.93,307.38Z"/><path class="cls-11" d="M173.91,309.76a3.31,3.31,0,0,1-2.47-.84,3.66,3.66,0,0,1-1-2.2h-.18a4.65,4.65,0,0,1-1.91,2.55,6.23,6.23,0,0,1-3.51.91,6.39,6.39,0,0,1-4.41-1.45,5.07,5.07,0,0,1-1.65-4,4.64,4.64,0,0,1,1.94-4q2-1.38,6-1.38h3.47v-1.4q0-3.68-3.89-3.67a5.18,5.18,0,0,0-2.83.68,5.89,5.89,0,0,0-1.82,1.8l-2.28-1.85a6.53,6.53,0,0,1,2.59-2.54,9.2,9.2,0,0,1,4.69-1.07,8.11,8.11,0,0,1,5.39,1.65,5.84,5.84,0,0,1,2,4.76v9.06h2.28v3Zm-8-2.38a5.25,5.25,0,0,0,3-.83,2.55,2.55,0,0,0,1.19-2.16v-2.61h-3.4c-2.75,0-4.13.83-4.13,2.47v.7a2,2,0,0,0,.88,1.82A4.11,4.11,0,0,0,165.93,307.38Z"/><path class="cls-11" d="M188.85,310.18a9.38,9.38,0,0,1-3.62-.66,7.53,7.53,0,0,1-2.69-1.89,8.12,8.12,0,0,1-1.68-3,13.54,13.54,0,0,1,0-7.84,8.08,8.08,0,0,1,1.68-3,7.29,7.29,0,0,1,2.69-1.89,9.12,9.12,0,0,1,3.59-.67,7.71,7.71,0,0,1,4.5,1.18,7.19,7.19,0,0,1,2.53,3.06l-3,1.61a4.39,4.39,0,0,0-1.49-2,4.21,4.21,0,0,0-2.57-.73,4.28,4.28,0,0,0-3.36,1.32,5,5,0,0,0-1.19,3.5v3a5,5,0,0,0,1.19,3.48,4.36,4.36,0,0,0,3.43,1.34,4.61,4.61,0,0,0,2.75-.77,5.35,5.35,0,0,0,1.69-2.1l2.8,1.71a7.36,7.36,0,0,1-2.65,3.08A8.22,8.22,0,0,1,188.85,310.18Z"/><path class="cls-11" d="M230,310.18a11.71,11.71,0,0,1-5.36-1.11,10.29,10.29,0,0,1-3.57-2.95l2.52-2.41a9.41,9.41,0,0,0,3,2.46,7.81,7.81,0,0,0,3.57.79,5.3,5.3,0,0,0,3.55-1.06,3.74,3.74,0,0,0,1.24-3,3.22,3.22,0,0,0-.91-2.45,6.09,6.09,0,0,0-3.11-1.25l-2.66-.42a9,9,0,0,1-2.94-.92,6.56,6.56,0,0,1-1.93-1.54,5.63,5.63,0,0,1-1.06-2A7.77,7.77,0,0,1,222,292a6.37,6.37,0,0,1,2.24-5.26,9.59,9.59,0,0,1,6.16-1.8,12.13,12.13,0,0,1,5,.92,8.32,8.32,0,0,1,3.3,2.58l-2.45,2.45a8.14,8.14,0,0,0-2.39-2,7.12,7.12,0,0,0-3.42-.75,5,5,0,0,0-3.3.94,3.32,3.32,0,0,0-1.14,2.73,3.18,3.18,0,0,0,.89,2.38,6.14,6.14,0,0,0,3.17,1.25l2.59.45a7.83,7.83,0,0,1,4.79,2.4,6.58,6.58,0,0,1,1.51,4.39,7.88,7.88,0,0,1-.58,3.07,6.26,6.26,0,0,1-1.71,2.38,8.18,8.18,0,0,1-2.8,1.52A12.32,12.32,0,0,1,230,310.18Z"/><path class="cls-11" d="M244.22,306.65h6.16V294.82h-6.16V291.7h10v14.95H260v3.11H244.22Zm8.09-18.24a2.85,2.85,0,0,1-2.05-.59,2.06,2.06,0,0,1-.58-1.47v-.74a2.06,2.06,0,0,1,.58-1.47,2.79,2.79,0,0,1,2-.59,2.84,2.84,0,0,1,2,.59,2,2,0,0,1,.58,1.47v.74a2,2,0,0,1-.58,1.47A2.76,2.76,0,0,1,252.31,288.41Z"/><path class="cls-11" d="M263.23,309.76V291.7h3.25v2.35h.18a5.28,5.28,0,0,1,1.21-2,3.54,3.54,0,0,1,4.48,0,3.76,3.76,0,0,1,1,2.15h.14a6,6,0,0,1,1.37-2.08,3.45,3.45,0,0,1,2.52-.86,3.06,3.06,0,0,1,2.92,1.47,9,9,0,0,1,.82,4.31v12.7h-3.25V297.55a5.19,5.19,0,0,0-.46-2.61,1.6,1.6,0,0,0-1.47-.72,2.11,2.11,0,0,0-1.52.61,2.51,2.51,0,0,0-.61,1.84v13.09h-3.26V297.55a5.5,5.5,0,0,0-.43-2.61,1.58,1.58,0,0,0-1.46-.72,2.11,2.11,0,0,0-1.55.61,2.51,2.51,0,0,0-.62,1.84v13.09Z"/><path class="cls-11" d="M314,310.18a11.68,11.68,0,0,1-5.36-1.11,10.11,10.11,0,0,1-3.57-2.95l2.52-2.41a9.31,9.31,0,0,0,3,2.46,7.81,7.81,0,0,0,3.57.79,5.3,5.3,0,0,0,3.55-1.06,3.74,3.74,0,0,0,1.24-3,3.22,3.22,0,0,0-.91-2.45,6.09,6.09,0,0,0-3.11-1.25l-2.66-.42a9,9,0,0,1-2.94-.92,6.43,6.43,0,0,1-1.93-1.54,5.82,5.82,0,0,1-1.07-2A8.1,8.1,0,0,1,306,292a6.37,6.37,0,0,1,2.24-5.26,9.57,9.57,0,0,1,6.16-1.8,12.05,12.05,0,0,1,4.95.92,8.28,8.28,0,0,1,3.31,2.58l-2.45,2.45a8.05,8.05,0,0,0-2.4-2,7.08,7.08,0,0,0-3.41-.75,5.08,5.08,0,0,0-3.31.94,3.34,3.34,0,0,0-1.13,2.73,3.14,3.14,0,0,0,.89,2.38,6.1,6.1,0,0,0,3.17,1.25l2.59.45a7.83,7.83,0,0,1,4.79,2.4,6.63,6.63,0,0,1,1.51,4.39,8.07,8.07,0,0,1-.58,3.07,6.28,6.28,0,0,1-1.72,2.38,8,8,0,0,1-2.8,1.52A12.21,12.21,0,0,1,314,310.18Z"/><path class="cls-11" d="M328.22,306.65h6.16V294.82h-6.16V291.7h10v14.95H344v3.11H328.22Zm8.09-18.24a2.84,2.84,0,0,1-2.05-.59,2,2,0,0,1-.58-1.47v-.74a2,2,0,0,1,.58-1.47,2.76,2.76,0,0,1,2-.59,2.85,2.85,0,0,1,2.05.59,2.06,2.06,0,0,1,.58,1.47v.74a2.06,2.06,0,0,1-.58,1.47A2.79,2.79,0,0,1,336.31,288.41Z"/><path class="cls-11" d="M347.23,309.76V291.7h3.25v2.35h.18a5.39,5.39,0,0,1,1.2-2,3,3,0,0,1,2.26-.81,3,3,0,0,1,2.22.79,3.7,3.7,0,0,1,1,2.15h.14a6,6,0,0,1,1.37-2.08,3.45,3.45,0,0,1,2.52-.86,3.06,3.06,0,0,1,2.92,1.47,9,9,0,0,1,.82,4.31v12.7h-3.25V297.55a5.3,5.3,0,0,0-.46-2.61,1.6,1.6,0,0,0-1.47-.72,2.09,2.09,0,0,0-1.52.61,2.51,2.51,0,0,0-.61,1.84v13.09h-3.26V297.55a5.35,5.35,0,0,0-.44-2.61,1.56,1.56,0,0,0-1.45-.72,2.15,2.15,0,0,0-1.56.61,2.55,2.55,0,0,0-.61,1.84v13.09Z"/><path class="cls-11" d="M380.93,306.68h-.17A7.31,7.31,0,0,1,380,308a4.74,4.74,0,0,1-1.07,1.12,5.35,5.35,0,0,1-1.47.75,6.1,6.1,0,0,1-2,.28,5.77,5.77,0,0,1-4.41-1.78,7.13,7.13,0,0,1-1.68-5.08V291.7h3.82v11.06c0,2.87,1.24,4.31,3.74,4.31a5.38,5.38,0,0,0,1.44-.2,4.24,4.24,0,0,0,1.26-.57,3,3,0,0,0,.89-1,2.71,2.71,0,0,0,.33-1.38V291.7h3.82v18.06h-3.82Z"/><path class="cls-11" d="M390.31,306.65h6V287h-6v-3.12h9.8v22.79h6v3.11H390.31Z"/><path class="cls-11" d="M425.9,309.76a3.29,3.29,0,0,1-2.46-.84,3.72,3.72,0,0,1-1-2.2h-.18a4.64,4.64,0,0,1-1.9,2.55,6.26,6.26,0,0,1-3.52.91,6.42,6.42,0,0,1-4.41-1.45,5.07,5.07,0,0,1-1.65-4,4.62,4.62,0,0,1,2-4q1.93-1.38,6-1.38h3.47v-1.4q0-3.68-3.89-3.67a5.2,5.2,0,0,0-2.83.68,6,6,0,0,0-1.82,1.8l-2.28-1.85a6.59,6.59,0,0,1,2.59-2.54,9.22,9.22,0,0,1,4.69-1.07,8.1,8.1,0,0,1,5.39,1.65,5.84,5.84,0,0,1,2,4.76v9.06h2.28v3Zm-8-2.38a5.23,5.23,0,0,0,3.05-.83,2.55,2.55,0,0,0,1.19-2.16v-2.61h-3.4c-2.75,0-4.13.83-4.13,2.47v.7a2.07,2.07,0,0,0,.88,1.82A4.13,4.13,0,0,0,417.92,307.38Z"/><path class="cls-11" d="M441.27,309.76a4.42,4.42,0,0,1-3.5-1.27,4.8,4.8,0,0,1-1.12-3.3V294.82h-5.57V291.7h4a2,2,0,0,0,1.43-.4,2,2,0,0,0,.42-1.45v-4.52h3.57v6.37h7.7v3.12h-7.7v11.83h7.7v3.11Z"/><path class="cls-11" d="M454.22,306.65h6.16V294.82h-6.16V291.7h10v14.95H470v3.11H454.22Zm8.08-18.24a2.81,2.81,0,0,1-2-.59,2,2,0,0,1-.58-1.47v-.74a2,2,0,0,1,.58-1.47,2.76,2.76,0,0,1,2-.59,2.85,2.85,0,0,1,2.05.59,2.05,2.05,0,0,1,.57,1.47v.74a2.05,2.05,0,0,1-.57,1.47A2.8,2.8,0,0,1,462.3,288.41Z"/><path class="cls-11" d="M482.18,310.18a9.25,9.25,0,0,1-3.58-.66,7.57,7.57,0,0,1-2.7-1.89,8.61,8.61,0,0,1-1.7-3,13.32,13.32,0,0,1,0-7.84,8.56,8.56,0,0,1,1.7-3,7.33,7.33,0,0,1,2.7-1.89,9.93,9.93,0,0,1,7.17,0,7.41,7.41,0,0,1,2.7,1.89,8.39,8.39,0,0,1,1.69,3,13.11,13.11,0,0,1,0,7.84,8.43,8.43,0,0,1-1.69,3,7.66,7.66,0,0,1-2.7,1.89A9.3,9.3,0,0,1,482.18,310.18Zm0-3a4.44,4.44,0,0,0,3.35-1.28,5.26,5.26,0,0,0,1.24-3.79v-2.73a5.28,5.28,0,0,0-1.24-3.8,5,5,0,0,0-6.69,0,5.24,5.24,0,0,0-1.24,3.8v2.73a5.21,5.21,0,0,0,1.24,3.79A4.42,4.42,0,0,0,482.18,307.17Z"/><path class="cls-11" d="M495.62,309.76V291.7h3.82v3.08h.17a8,8,0,0,1,.72-1.35,4.74,4.74,0,0,1,1.07-1.12,5.35,5.35,0,0,1,1.47-.75,6.39,6.39,0,0,1,2-.28,5.78,5.78,0,0,1,4.41,1.79,7.12,7.12,0,0,1,1.68,5.07v11.62H507.1V298.7q0-4.31-3.74-4.3a5.37,5.37,0,0,0-1.44.19,4.26,4.26,0,0,0-1.26.58,2.8,2.8,0,0,0-.89,1,2.74,2.74,0,0,0-.33,1.36v12.25Z"/><path class="cls-11" d="M1602.22,297.84h-3.89V273.42h9.14a7,7,0,0,1,5.33,1.95,8.65,8.65,0,0,1,.48,10,5.87,5.87,0,0,1-3.92,2.23l5.63,10.25h-4.34l-5.18-9.9h-3.25Zm4.69-13c2.42,0,3.64-1.12,3.64-3.34V280c0-2.22-1.22-3.34-3.64-3.34h-4.69v8.2Z"/><path class="cls-11" d="M1626.89,298.26a8.84,8.84,0,0,1-4-.85,7.46,7.46,0,0,1-2.8-2.47,11.35,11.35,0,0,1-1.62-4,27.22,27.22,0,0,1,0-10.69,11.4,11.4,0,0,1,1.62-4,7.46,7.46,0,0,1,2.8-2.47,9.88,9.88,0,0,1,8,0,7.46,7.46,0,0,1,2.8,2.47,11.41,11.41,0,0,1,1.63,4,27.73,27.73,0,0,1,0,10.69,11.35,11.35,0,0,1-1.63,4,7.46,7.46,0,0,1-2.8,2.47A8.81,8.81,0,0,1,1626.89,298.26Zm0-3.22a3.88,3.88,0,0,0,3.71-2,11.32,11.32,0,0,0,1.09-5.39v-4.11a11.24,11.24,0,0,0-1.09-5.36,4.45,4.45,0,0,0-7.42,0,11.25,11.25,0,0,0-1.08,5.36v4.14a11.25,11.25,0,0,0,1.08,5.36A3.88,3.88,0,0,0,1626.89,295Z"/><path class="cls-11" d="M1647.68,298.26a11.64,11.64,0,0,1-5.35-1.1,10.32,10.32,0,0,1-3.57-3l2.52-2.42a9.45,9.45,0,0,0,3,2.47,7.94,7.94,0,0,0,3.57.78,5.35,5.35,0,0,0,3.55-1.05,3.77,3.77,0,0,0,1.25-3,3.23,3.23,0,0,0-.91-2.45,6.09,6.09,0,0,0-3.12-1.25l-2.66-.42a9.25,9.25,0,0,1-2.94-.93,6.35,6.35,0,0,1-1.92-1.54,5.65,5.65,0,0,1-1.07-2,8,8,0,0,1-.33-2.32,6.36,6.36,0,0,1,2.24-5.27,9.55,9.55,0,0,1,6.16-1.79,12.12,12.12,0,0,1,5,.91,8.29,8.29,0,0,1,3.31,2.59l-2.45,2.44a8.27,8.27,0,0,0-2.4-2,7.07,7.07,0,0,0-3.41-.76,5.12,5.12,0,0,0-3.31.94,3.32,3.32,0,0,0-1.14,2.73,3.18,3.18,0,0,0,.89,2.38,6.06,6.06,0,0,0,3.17,1.25l2.59.46a7.83,7.83,0,0,1,4.8,2.39,6.62,6.62,0,0,1,1.5,4.39,7.93,7.93,0,0,1-.58,3.08,6.12,6.12,0,0,1-1.71,2.37,8.09,8.09,0,0,1-2.8,1.52A12.32,12.32,0,0,1,1647.68,298.26Z"/><path class="cls-11" d="M1698.46,297.84h-16.87V294.1l8-7a18.69,18.69,0,0,0,2.92-3.18,5.53,5.53,0,0,0,1-3.19v-.38a4,4,0,0,0-1-3,4.17,4.17,0,0,0-3-1,4.3,4.3,0,0,0-3.13,1.08,6.38,6.38,0,0,0-1.59,2.77l-3.43-1.3a9.22,9.22,0,0,1,1-2.22,7.76,7.76,0,0,1,4.15-3.24,10.23,10.23,0,0,1,3.27-.48,9.86,9.86,0,0,1,3.38.54,7.18,7.18,0,0,1,2.5,1.48,6.07,6.07,0,0,1,1.54,2.26,7.55,7.55,0,0,1,.53,2.89,8.15,8.15,0,0,1-.44,2.71,10.12,10.12,0,0,1-1.22,2.38,14.58,14.58,0,0,1-1.88,2.19q-1.08,1.05-2.37,2.1l-5.92,5h12.63Z"/><path class="cls-11" d="M1731.89,298.26a8.81,8.81,0,0,1-4-.85,7.46,7.46,0,0,1-2.8-2.47,11.35,11.35,0,0,1-1.63-4,27.73,27.73,0,0,1,0-10.69,11.41,11.41,0,0,1,1.63-4,7.46,7.46,0,0,1,2.8-2.47,9.88,9.88,0,0,1,8,0,7.46,7.46,0,0,1,2.8,2.47,11.4,11.4,0,0,1,1.62,4,27.22,27.22,0,0,1,0,10.69,11.35,11.35,0,0,1-1.62,4,7.46,7.46,0,0,1-2.8,2.47A8.84,8.84,0,0,1,1731.89,298.26Zm0-3.22a3.88,3.88,0,0,0,3.71-2,11.32,11.32,0,0,0,1.08-5.39v-4.11a11.25,11.25,0,0,0-1.08-5.36,4.45,4.45,0,0,0-7.42,0,11.24,11.24,0,0,0-1.09,5.36v4.14a11.24,11.24,0,0,0,1.09,5.36A3.88,3.88,0,0,0,1731.89,295Z"/><path class="cls-11" d="M1753.55,298.26a9.38,9.38,0,0,1-3.62-.66,7.29,7.29,0,0,1-2.69-1.89,8.12,8.12,0,0,1-1.68-3,13.54,13.54,0,0,1,0-7.84,8.16,8.16,0,0,1,1.68-3,7.29,7.29,0,0,1,2.69-1.89,9.3,9.3,0,0,1,3.59-.67,7.83,7.83,0,0,1,4.5,1.18,7.31,7.31,0,0,1,2.53,3.06l-3,1.61a4.45,4.45,0,0,0-1.49-2,4.21,4.21,0,0,0-2.57-.73,4.28,4.28,0,0,0-3.36,1.32,5.05,5.05,0,0,0-1.19,3.5v3a5,5,0,0,0,1.19,3.48,4.34,4.34,0,0,0,3.43,1.34,4.63,4.63,0,0,0,2.75-.77,5.3,5.3,0,0,0,1.69-2.1l2.8,1.72a7.42,7.42,0,0,1-2.66,3.07A8.13,8.13,0,0,1,1753.55,298.26Z"/><path class="cls-11" d="M1775,297.84a4.44,4.44,0,0,1-3.5-1.27,4.85,4.85,0,0,1-1.12-3.3V282.9h-5.56v-3.11h4a2,2,0,0,0,1.44-.41,2,2,0,0,0,.42-1.45v-4.51h3.57v6.37h7.7v3.11h-7.7v11.83h7.7v3.11Z"/><path class="cls-11" d="M1794.89,298.26a9.3,9.3,0,0,1-3.59-.66,7.41,7.41,0,0,1-2.7-1.89,8.43,8.43,0,0,1-1.69-3,13.11,13.11,0,0,1,0-7.84,8.48,8.48,0,0,1,1.69-3,7.41,7.41,0,0,1,2.7-1.89,9.93,9.93,0,0,1,7.17,0,7.33,7.33,0,0,1,2.7,1.89,8.49,8.49,0,0,1,1.7,3,13.32,13.32,0,0,1,0,7.84,8.45,8.45,0,0,1-1.7,3,7.33,7.33,0,0,1-2.7,1.89A9.25,9.25,0,0,1,1794.89,298.26Zm0-3a4.45,4.45,0,0,0,3.34-1.27,5.24,5.24,0,0,0,1.24-3.8v-2.73a5.24,5.24,0,0,0-1.24-3.8,5,5,0,0,0-6.69,0,5.28,5.28,0,0,0-1.24,3.8v2.73a5.28,5.28,0,0,0,1.24,3.8A4.47,4.47,0,0,0,1794.89,295.25Z"/><path class="cls-11" d="M1806.93,297.84v-18h3.25v2.34h.18a5.48,5.48,0,0,1,1.2-2,3.54,3.54,0,0,1,4.48,0,3.73,3.73,0,0,1,1,2.15h.14a6,6,0,0,1,1.37-2.08,3.45,3.45,0,0,1,2.52-.86,3.06,3.06,0,0,1,2.92,1.47,9,9,0,0,1,.82,4.31v12.7h-3.25V285.63a5.19,5.19,0,0,0-.46-2.61,1.6,1.6,0,0,0-1.47-.72,2.07,2.07,0,0,0-1.52.62,2.48,2.48,0,0,0-.61,1.83v13.09h-3.26V285.63a5.35,5.35,0,0,0-.44-2.61,1.56,1.56,0,0,0-1.45-.72,2.12,2.12,0,0,0-1.56.62,2.52,2.52,0,0,0-.61,1.83v13.09Z"/><path class="cls-11" d="M1843.61,297.84a3.31,3.31,0,0,1-2.47-.84,3.72,3.72,0,0,1-1-2.2H1840a4.62,4.62,0,0,1-1.91,2.55,6.26,6.26,0,0,1-3.52.91,6.42,6.42,0,0,1-4.41-1.45,5.05,5.05,0,0,1-1.64-4,4.58,4.58,0,0,1,1.94-4q1.93-1.38,6-1.38h3.46V286q0-3.67-3.88-3.67a5.31,5.31,0,0,0-2.84.68,6,6,0,0,0-1.82,1.81l-2.27-1.86a6.46,6.46,0,0,1,2.59-2.54,9.17,9.17,0,0,1,4.69-1.07,8.13,8.13,0,0,1,5.39,1.65,5.88,5.88,0,0,1,2,4.76v9.06H1846v3Zm-8-2.38a5.15,5.15,0,0,0,3-.83,2.55,2.55,0,0,0,1.19-2.16v-2.61h-3.39c-2.76,0-4.13.83-4.13,2.47v.7a2.1,2.1,0,0,0,.87,1.83A4.22,4.22,0,0,0,1835.63,295.46Z"/><path class="cls-11" d="M1850.15,279.79H1854v3.07h.21a6.54,6.54,0,0,1,2.13-2.57,5.69,5.69,0,0,1,3.33-.93,6.14,6.14,0,0,1,5.07,2.39c1.26,1.58,1.89,3.94,1.89,7.06s-.63,5.49-1.89,7.07a6.13,6.13,0,0,1-5.07,2.38,5.68,5.68,0,0,1-3.33-.92,6.5,6.5,0,0,1-2.13-2.58H1854v10.08h-3.82Zm7.91,15.36a4.2,4.2,0,0,0,3.34-1.33,5.17,5.17,0,0,0,1.18-3.53v-3a5.17,5.17,0,0,0-1.18-3.53,4.2,4.2,0,0,0-3.34-1.33,5.67,5.67,0,0,0-1.57.21,3.93,3.93,0,0,0-1.3.63,3.15,3.15,0,0,0-.89,1,3,3,0,0,0-.33,1.45v6a3,3,0,0,0,.33,1.45,3.15,3.15,0,0,0,.89,1,3.93,3.93,0,0,0,1.3.63A5.67,5.67,0,0,0,1858.06,295.15Z"/><rect class="cls-4" x="1069.5" y="81" width="404" height="807" rx="14.99"/><path class="cls-11" d="M1109.77,158h-3.89V133.58H1115a7,7,0,0,1,5.34,2,7.55,7.55,0,0,1,1.83,5.38,7.43,7.43,0,0,1-1.36,4.6,5.84,5.84,0,0,1-3.92,2.24l5.63,10.25h-4.34l-5.18-9.9h-3.25Zm4.69-13q3.64,0,3.64-3.34v-1.51q0-3.34-3.64-3.34h-4.69V145Z"/><path class="cls-11" d="M1134.44,158.43a8.77,8.77,0,0,1-4-.86,7.29,7.29,0,0,1-2.8-2.46,11.32,11.32,0,0,1-1.63-4,27.22,27.22,0,0,1,0-10.69,11.14,11.14,0,0,1,1.63-4,7.23,7.23,0,0,1,2.8-2.47,9.76,9.76,0,0,1,8,0,7.3,7.3,0,0,1,2.8,2.47,11.14,11.14,0,0,1,1.63,4,27.73,27.73,0,0,1,0,10.69,11.32,11.32,0,0,1-1.63,4,7.36,7.36,0,0,1-2.8,2.46A8.81,8.81,0,0,1,1134.44,158.43Zm0-3.22a3.88,3.88,0,0,0,3.71-2,11.24,11.24,0,0,0,1.09-5.4v-4.11a11.08,11.08,0,0,0-1.09-5.35,4.45,4.45,0,0,0-7.42,0,11.21,11.21,0,0,0-1.08,5.35v4.15a11.28,11.28,0,0,0,1.08,5.36A3.88,3.88,0,0,0,1134.44,155.21Z"/><path class="cls-11" d="M1155.23,158.43a11.64,11.64,0,0,1-5.35-1.11,10.21,10.21,0,0,1-3.57-2.95l2.52-2.41a9.28,9.28,0,0,0,3,2.46,7.81,7.81,0,0,0,3.57.79,5.33,5.33,0,0,0,3.56-1.06,3.77,3.77,0,0,0,1.24-3,3.26,3.26,0,0,0-.91-2.45,6.17,6.17,0,0,0-3.12-1.25l-2.66-.42a9.17,9.17,0,0,1-2.94-.92,6.51,6.51,0,0,1-1.92-1.54,5.74,5.74,0,0,1-1.07-2,8.1,8.1,0,0,1-.33-2.33,6.34,6.34,0,0,1,2.24-5.26,9.56,9.56,0,0,1,6.16-1.8,12.08,12.08,0,0,1,5,.92,8.28,8.28,0,0,1,3.31,2.58l-2.45,2.45a8.31,8.31,0,0,0-2.4-2,7.08,7.08,0,0,0-3.41-.75,5.12,5.12,0,0,0-3.31.93,3.35,3.35,0,0,0-1.14,2.74,3.18,3.18,0,0,0,.89,2.38,6.18,6.18,0,0,0,3.17,1.25l2.59.45a7.86,7.86,0,0,1,4.8,2.4,6.62,6.62,0,0,1,1.5,4.38,8.08,8.08,0,0,1-.57,3.08,6.28,6.28,0,0,1-1.72,2.38,8.09,8.09,0,0,1-2.8,1.52A12.27,12.27,0,0,1,1155.23,158.43Z"/><path class="cls-11" d="M1206,158h-16.87v-3.74l8-7a18.28,18.28,0,0,0,2.92-3.18,5.55,5.55,0,0,0,1-3.19v-.38a4,4,0,0,0-1-3,4.15,4.15,0,0,0-3-1,4.31,4.31,0,0,0-3.14,1.08,6.32,6.32,0,0,0-1.59,2.77l-3.43-1.3a8.89,8.89,0,0,1,1-2.22,7.82,7.82,0,0,1,1.69-1.91,8.11,8.11,0,0,1,2.45-1.33,10,10,0,0,1,3.28-.49,9.81,9.81,0,0,1,3.37.54,7.4,7.4,0,0,1,2.51,1.49,6.23,6.23,0,0,1,1.54,2.26,7.7,7.7,0,0,1,.52,2.89,7.9,7.9,0,0,1-.44,2.71,10.12,10.12,0,0,1-1.22,2.38,15.1,15.1,0,0,1-1.87,2.19c-.73.7-1.52,1.4-2.38,2.1l-5.92,5H1206Z"/><path class="cls-11" d="M1239.23,158.43a11.64,11.64,0,0,1-5.35-1.11,10.21,10.21,0,0,1-3.57-2.95l2.52-2.41a9.28,9.28,0,0,0,3,2.46,7.81,7.81,0,0,0,3.57.79,5.3,5.3,0,0,0,3.55-1.06,3.74,3.74,0,0,0,1.25-3,3.26,3.26,0,0,0-.91-2.45,6.17,6.17,0,0,0-3.12-1.25l-2.66-.42a9,9,0,0,1-2.94-.92,6.51,6.51,0,0,1-1.92-1.54,5.74,5.74,0,0,1-1.07-2,8.1,8.1,0,0,1-.33-2.33,6.34,6.34,0,0,1,2.24-5.26,9.56,9.56,0,0,1,6.16-1.8,12.12,12.12,0,0,1,5,.92,8.35,8.35,0,0,1,3.31,2.58l-2.45,2.45a8.31,8.31,0,0,0-2.4-2,7.08,7.08,0,0,0-3.41-.75,5.12,5.12,0,0,0-3.31.93,3.35,3.35,0,0,0-1.14,2.74,3.18,3.18,0,0,0,.89,2.38,6.14,6.14,0,0,0,3.17,1.25l2.59.45a7.89,7.89,0,0,1,4.8,2.4,6.62,6.62,0,0,1,1.5,4.38,7.9,7.9,0,0,1-.58,3.08,6.15,6.15,0,0,1-1.71,2.38,8.09,8.09,0,0,1-2.8,1.52A12.32,12.32,0,0,1,1239.23,158.43Z"/><path class="cls-11" d="M1264.19,154.93H1264a7.31,7.31,0,0,1-.72,1.35,4.69,4.69,0,0,1-1.06,1.12,5.5,5.5,0,0,1-1.47.75,6.18,6.18,0,0,1-2,.28,5.77,5.77,0,0,1-4.41-1.78,7.14,7.14,0,0,1-1.68-5.08V140h3.81V151q0,4.31,3.75,4.31a5.31,5.31,0,0,0,1.43-.2,4,4,0,0,0,1.26-.57,3,3,0,0,0,.89-1,2.71,2.71,0,0,0,.34-1.38V140H1268V158h-3.81Z"/><path class="cls-11" d="M1273.7,132.11h3.82V143h.21a6.64,6.64,0,0,1,2.13-2.57,5.69,5.69,0,0,1,3.33-.93,6.16,6.16,0,0,1,5.08,2.38c1.25,1.59,1.88,3.94,1.88,7.07s-.63,5.48-1.88,7.07a6.16,6.16,0,0,1-5.08,2.38,5.69,5.69,0,0,1-3.33-.93,6.56,6.56,0,0,1-2.13-2.57h-.21V158h-3.82Zm7.91,23.21A4.25,4.25,0,0,0,1285,154a5.18,5.18,0,0,0,1.17-3.54v-2.94A5.13,5.13,0,0,0,1285,144a4.22,4.22,0,0,0-3.35-1.33,5.73,5.73,0,0,0-1.57.21,4,4,0,0,0-1.3.63,3.15,3.15,0,0,0-.89,1,3,3,0,0,0-.33,1.45v6a3,3,0,0,0,.33,1.45,3.18,3.18,0,0,0,.89,1,4,4,0,0,0,1.3.63A5.73,5.73,0,0,0,1281.61,155.32Z"/><path class="cls-11" d="M1302.47,158.43a12.3,12.3,0,0,1-5-.94A9.17,9.17,0,0,1,1294,155l2.35-2.1a7.91,7.91,0,0,0,6.19,2.66,6.19,6.19,0,0,0,3-.63,2.1,2.1,0,0,0,1.13-2,2,2,0,0,0-.21-.95,1.62,1.62,0,0,0-.59-.63,3.41,3.41,0,0,0-.89-.38,6.14,6.14,0,0,0-1.07-.21l-2.87-.46a14.34,14.34,0,0,1-2.14-.45,6.77,6.77,0,0,1-1.94-.9,4.61,4.61,0,0,1-1.4-1.48,4.49,4.49,0,0,1-.54-2.31,4.74,4.74,0,0,1,2.12-4.2,9.74,9.74,0,0,1,5.58-1.44,11.53,11.53,0,0,1,4.36.75,8.58,8.58,0,0,1,3.06,2.09l-2.14,2.24a6.62,6.62,0,0,0-2-1.49,7.31,7.31,0,0,0-3.43-.68c-2.54,0-3.82.8-3.82,2.41a1.64,1.64,0,0,0,.83,1.59,5.26,5.26,0,0,0,1.94.58l2.87.46a20,20,0,0,1,2.15.45,6.36,6.36,0,0,1,1.93.86,4.54,4.54,0,0,1,1.4,1.49,4.44,4.44,0,0,1,.54,2.31,5,5,0,0,1-2.12,4.28A9.63,9.63,0,0,1,1302.47,158.43Z"/><path class="cls-11" d="M1324.1,158.43a9.38,9.38,0,0,1-3.62-.66,7.53,7.53,0,0,1-2.69-1.89,8.12,8.12,0,0,1-1.68-3,13.54,13.54,0,0,1,0-7.84,8,8,0,0,1,1.68-3,7.29,7.29,0,0,1,2.69-1.89,9.12,9.12,0,0,1,3.59-.67,7.73,7.73,0,0,1,4.5,1.18,7.19,7.19,0,0,1,2.53,3.06l-3,1.61a4.39,4.39,0,0,0-1.49-2,4.21,4.21,0,0,0-2.57-.73,4.28,4.28,0,0,0-3.36,1.32,5,5,0,0,0-1.19,3.5v3a5.06,5.06,0,0,0,1.19,3.49,4.36,4.36,0,0,0,3.43,1.34,4.63,4.63,0,0,0,2.75-.77,5.44,5.44,0,0,0,1.69-2.1l2.8,1.71a7.38,7.38,0,0,1-2.66,3.08A8.21,8.21,0,0,1,1324.1,158.43Z"/><path class="cls-11" d="M1336.6,154.9h4.79V143.07h-4.79V140h8.61v4.8h.21a8.05,8.05,0,0,1,.7-1.82,5.23,5.23,0,0,1,2.87-2.58,6.38,6.38,0,0,1,2.38-.4h2.17v3.64H1350a4.8,4.8,0,0,0-3.43,1.24,4.33,4.33,0,0,0-1.33,3.33v6.74h6.54V158H1336.6Z"/><path class="cls-11" d="M1358.47,154.9h6.16V143.07h-6.16V140h10v15h5.77V158h-15.75Zm8.09-18.24a2.85,2.85,0,0,1-2-.59,2.06,2.06,0,0,1-.58-1.47v-.74a2.06,2.06,0,0,1,.58-1.47,2.74,2.74,0,0,1,2-.59,2.79,2.79,0,0,1,2,.59,2,2,0,0,1,.58,1.47v.74a2,2,0,0,1-.58,1.47A2.77,2.77,0,0,1,1366.56,136.66Z"/><path class="cls-11" d="M1378.7,132.11h3.82V143h.21a6.55,6.55,0,0,1,2.13-2.57,5.69,5.69,0,0,1,3.33-.93,6.13,6.13,0,0,1,5.07,2.38c1.26,1.59,1.89,3.94,1.89,7.07s-.63,5.48-1.89,7.07a6.13,6.13,0,0,1-5.07,2.38,5.69,5.69,0,0,1-3.33-.93,6.48,6.48,0,0,1-2.13-2.57h-.21V158h-3.82Zm7.91,23.21A4.23,4.23,0,0,0,1390,154a5.13,5.13,0,0,0,1.18-3.54v-2.94A5.09,5.09,0,0,0,1390,144a4.2,4.2,0,0,0-3.34-1.33,5.67,5.67,0,0,0-1.57.21,3.93,3.93,0,0,0-1.3.63,3.15,3.15,0,0,0-.89,1,3,3,0,0,0-.33,1.45v6a3,3,0,0,0,.33,1.45,3.18,3.18,0,0,0,.89,1,3.93,3.93,0,0,0,1.3.63A5.67,5.67,0,0,0,1386.61,155.32Z"/><path class="cls-11" d="M1407.82,158.43a9.89,9.89,0,0,1-3.71-.66,7.63,7.63,0,0,1-2.76-1.89,8.42,8.42,0,0,1-1.72-3,11.92,11.92,0,0,1-.59-3.9,11.73,11.73,0,0,1,.61-3.92,9,9,0,0,1,1.71-3,7.44,7.44,0,0,1,2.68-1.9,9.43,9.43,0,0,1,6.93,0,7.32,7.32,0,0,1,2.63,1.84,8.21,8.21,0,0,1,1.66,2.83,11.07,11.07,0,0,1,.58,3.64v1.44h-12.95v.59a4.7,4.7,0,0,0,1.33,3.46,4.94,4.94,0,0,0,3.67,1.34,5.65,5.65,0,0,0,3-.75,6,6,0,0,0,2-2l2.38,2.1a7.34,7.34,0,0,1-2.79,2.67A9.09,9.09,0,0,1,1407.82,158.43Zm-.28-16a4.76,4.76,0,0,0-1.87.35,4.15,4.15,0,0,0-1.47,1,4.62,4.62,0,0,0-1,1.53,5,5,0,0,0-.35,1.92v.25H1412v-.35a4.77,4.77,0,0,0-1.21-3.42A4.19,4.19,0,0,0,1407.54,142.44Z"/><path class="cls-11" d="M1420.6,154.9h4.79V143.07h-4.79V140h8.61v4.8h.21a8.05,8.05,0,0,1,.7-1.82,5.31,5.31,0,0,1,1.15-1.53,5.54,5.54,0,0,1,1.72-1.05,6.38,6.38,0,0,1,2.38-.4h2.17v3.64H1434a4.8,4.8,0,0,0-3.43,1.24,4.33,4.33,0,0,0-1.33,3.33v6.74h6.54V158H1420.6Z"/><path class="cls-11" d="M1109.21,181.22h-.32V200h-3.43V175.58h5l7.18,18.8h.31v-18.8h3.43V200h-5Z"/><path class="cls-11" d="M1134.44,200.43a9.25,9.25,0,0,1-3.58-.66,7.57,7.57,0,0,1-2.7-1.89,8.61,8.61,0,0,1-1.7-3,13.32,13.32,0,0,1,0-7.84,8.47,8.47,0,0,1,1.7-3,7.33,7.33,0,0,1,2.7-1.89,9.93,9.93,0,0,1,7.17,0,7.41,7.41,0,0,1,2.7,1.89,8.3,8.3,0,0,1,1.69,3,13.11,13.11,0,0,1,0,7.84,8.43,8.43,0,0,1-1.69,3,7.66,7.66,0,0,1-2.7,1.89A9.3,9.3,0,0,1,1134.44,200.43Zm0-3a4.44,4.44,0,0,0,3.35-1.28,5.26,5.26,0,0,0,1.24-3.79v-2.73a5.28,5.28,0,0,0-1.24-3.8,5,5,0,0,0-6.69,0,5.24,5.24,0,0,0-1.24,3.8v2.73a5.21,5.21,0,0,0,1.24,3.79A4.42,4.42,0,0,0,1134.44,197.42Z"/><path class="cls-11" d="M1159.36,196.93h-.21a6.48,6.48,0,0,1-2.13,2.57,5.69,5.69,0,0,1-3.33.93,6.13,6.13,0,0,1-5.07-2.38c-1.26-1.59-1.89-3.94-1.89-7.07s.63-5.48,1.89-7.07a6.13,6.13,0,0,1,5.07-2.38,5.69,5.69,0,0,1,3.33.93,6.55,6.55,0,0,1,2.13,2.57h.21V174.11h3.82V200h-3.82Zm-4.09.39a5.67,5.67,0,0,0,1.57-.21,4,4,0,0,0,1.3-.63,3.18,3.18,0,0,0,.89-1,3,3,0,0,0,.33-1.45v-6a3,3,0,0,0-.33-1.45,3.15,3.15,0,0,0-.89-1,4,4,0,0,0-1.3-.63,5.67,5.67,0,0,0-1.57-.21,4.2,4.2,0,0,0-3.34,1.33,5.09,5.09,0,0,0-1.18,3.53v2.94a5.13,5.13,0,0,0,1.18,3.54A4.23,4.23,0,0,0,1155.27,197.32Z"/><path class="cls-11" d="M1176.83,200.43a9.85,9.85,0,0,1-3.71-.66,7.67,7.67,0,0,1-2.77-1.89,8.25,8.25,0,0,1-1.71-3,12.94,12.94,0,0,1,0-7.82,8.83,8.83,0,0,1,1.72-3,7.36,7.36,0,0,1,2.68-1.9,9.43,9.43,0,0,1,6.93,0,7.28,7.28,0,0,1,2.62,1.84,8.05,8.05,0,0,1,1.66,2.83,10.82,10.82,0,0,1,.58,3.64v1.44h-12.95v.59a4.74,4.74,0,0,0,1.33,3.46,5,5,0,0,0,3.68,1.34,5.7,5.7,0,0,0,3-.75,5.92,5.92,0,0,0,2-2l2.38,2.1a7.24,7.24,0,0,1-2.78,2.67A9.14,9.14,0,0,1,1176.83,200.43Zm-.28-16a4.84,4.84,0,0,0-1.88.35,4.15,4.15,0,0,0-1.47,1,5,5,0,0,0-1,1.53,5.17,5.17,0,0,0-.35,1.92v.25H1181v-.35a4.81,4.81,0,0,0-1.21-3.42A4.2,4.2,0,0,0,1176.55,184.44Z"/><path class="cls-11" d="M1118,434.4V410h3.92v21.14H1133v3.29Z"/><path class="cls-11" d="M1138.71,431.28h6.16V419.45h-6.16v-3.11h10v14.94h5.77v3.12h-15.75Zm8.09-18.23a2.8,2.8,0,0,1-2-.6,2,2,0,0,1-.58-1.47v-.73a2,2,0,0,1,.58-1.47,2.74,2.74,0,0,1,2-.6,2.79,2.79,0,0,1,2,.6,2,2,0,0,1,.58,1.47V411a2,2,0,0,1-.58,1.47A2.73,2.73,0,0,1,1146.8,413.05Z"/><path class="cls-11" d="M1166.71,434.82a12.38,12.38,0,0,1-5.06-.95,9.13,9.13,0,0,1-3.41-2.52l2.35-2.1a8.08,8.08,0,0,0,2.68,2,8.42,8.42,0,0,0,3.51.68,6.12,6.12,0,0,0,3-.63,2.09,2.09,0,0,0,1.14-2,1.92,1.92,0,0,0-.21-.94,1.7,1.7,0,0,0-.59-.63,3.43,3.43,0,0,0-.89-.39,8.81,8.81,0,0,0-1.07-.21l-2.87-.45a15.79,15.79,0,0,1-2.14-.46,6.75,6.75,0,0,1-1.94-.89,4.64,4.64,0,0,1-1.4-1.49,4.44,4.44,0,0,1-.54-2.31,4.76,4.76,0,0,1,2.11-4.2,9.88,9.88,0,0,1,5.59-1.43,11.44,11.44,0,0,1,4.35.75,8.51,8.51,0,0,1,3.07,2.08l-2.14,2.24a7,7,0,0,0-2-1.49,7.47,7.47,0,0,0-3.43-.68q-3.83,0-3.82,2.42a1.65,1.65,0,0,0,.82,1.59,5.8,5.8,0,0,0,2,.58l2.87.45c.72.12,1.44.27,2.15.46a6.34,6.34,0,0,1,1.93.85,4.72,4.72,0,0,1,1.39,1.49,4.39,4.39,0,0,1,.55,2.31,5,5,0,0,1-2.12,4.29A9.63,9.63,0,0,1,1166.71,434.82Z"/><path class="cls-11" d="M1188.76,434.4a4.44,4.44,0,0,1-3.5-1.28,4.85,4.85,0,0,1-1.12-3.3V419.45h-5.56v-3.11h4a2,2,0,0,0,1.44-.41,2,2,0,0,0,.42-1.45V410H1188v6.37h7.7v3.11H1188v11.83h7.7v3.12Z"/><path class="cls-11" d="M1209.06,434.82a9.7,9.7,0,0,1-3.71-.67,7.31,7.31,0,0,1-2.76-1.89,8.25,8.25,0,0,1-1.72-3,13,13,0,0,1,0-7.82,9,9,0,0,1,1.71-3,7.47,7.47,0,0,1,2.68-1.91,9,9,0,0,1,3.5-.66,8.63,8.63,0,0,1,3.43.65,7.42,7.42,0,0,1,2.63,1.83,8.35,8.35,0,0,1,1.66,2.84,11,11,0,0,1,.58,3.64v1.43h-12.95v.59a4.67,4.67,0,0,0,1.33,3.46,4.9,4.9,0,0,0,3.67,1.34,5.74,5.74,0,0,0,3-.74,6,6,0,0,0,2-2l2.38,2.1a7.41,7.41,0,0,1-2.79,2.67A9.19,9.19,0,0,1,1209.06,434.82Zm-.28-16a4.94,4.94,0,0,0-1.87.35,4.31,4.31,0,0,0-1.47,1,4.68,4.68,0,0,0-1,1.52,5.06,5.06,0,0,0-.35,1.93v.24h9.06v-.35a4.74,4.74,0,0,0-1.21-3.41A4.2,4.2,0,0,0,1208.78,418.82Z"/><path class="cls-11" d="M1222.12,434.4V416.34h3.81v3.08h.18a6.71,6.71,0,0,1,.71-1.35,4.55,4.55,0,0,1,1.07-1.12,4.85,4.85,0,0,1,1.47-.75,6.1,6.1,0,0,1,2-.28,5.77,5.77,0,0,1,4.41,1.78,7.13,7.13,0,0,1,1.68,5.08V434.4h-3.81V423.34q0-4.3-3.75-4.31a5.67,5.67,0,0,0-1.43.19,4.28,4.28,0,0,0-1.26.58,2.91,2.91,0,0,0-.9,1,2.78,2.78,0,0,0-.33,1.37V434.4Z"/><path class="cls-11" d="M1250.71,434.82a12.35,12.35,0,0,1-5.06-.95,9.13,9.13,0,0,1-3.41-2.52l2.35-2.1a8.15,8.15,0,0,0,2.67,2,8.47,8.47,0,0,0,3.52.68,6.15,6.15,0,0,0,3-.63,2.09,2.09,0,0,0,1.14-2,1.92,1.92,0,0,0-.21-.94,1.7,1.7,0,0,0-.59-.63,3.35,3.35,0,0,0-.9-.39,8.64,8.64,0,0,0-1.06-.21l-2.87-.45a15.47,15.47,0,0,1-2.14-.46,6.75,6.75,0,0,1-1.94-.89,4.64,4.64,0,0,1-1.4-1.49,4.44,4.44,0,0,1-.54-2.31,4.76,4.76,0,0,1,2.11-4.2,9.86,9.86,0,0,1,5.59-1.43,11.44,11.44,0,0,1,4.35.75,8.51,8.51,0,0,1,3.07,2.08l-2.14,2.24a7.12,7.12,0,0,0-2-1.49,7.47,7.47,0,0,0-3.43-.68q-3.83,0-3.82,2.42a1.63,1.63,0,0,0,.82,1.59,5.8,5.8,0,0,0,2,.58l2.87.45c.72.12,1.44.27,2.15.46a6.18,6.18,0,0,1,1.92.85,4.75,4.75,0,0,1,1.4,1.49,4.49,4.49,0,0,1,.55,2.31,5,5,0,0,1-2.12,4.29A9.66,9.66,0,0,1,1250.71,434.82Z"/><path class="cls-11" d="M1284.9,431.28h5.78V419.45h-6.13v-3.11h6.13v-3.26a4.8,4.8,0,0,1,1.12-3.3,4.39,4.39,0,0,1,3.5-1.28h6.09v3.11h-6.9v4.73h6.9v3.11h-6.9v11.83h6.09v3.12H1284.9Z"/><path class="cls-11" d="M1313.67,434.82a9.07,9.07,0,0,1-3.58-.67,7.33,7.33,0,0,1-2.7-1.89,8.56,8.56,0,0,1-1.7-3,13.32,13.32,0,0,1,0-7.84,8.61,8.61,0,0,1,1.7-3,7.57,7.57,0,0,1,2.7-1.89,10.07,10.07,0,0,1,7.17,0,7.66,7.66,0,0,1,2.7,1.89,8.43,8.43,0,0,1,1.69,3,13.11,13.11,0,0,1,0,7.84,8.39,8.39,0,0,1-1.69,3,7.41,7.41,0,0,1-2.7,1.89A9.12,9.12,0,0,1,1313.67,434.82Zm0-3a4.48,4.48,0,0,0,3.35-1.28,5.28,5.28,0,0,0,1.24-3.8V424a5.26,5.26,0,0,0-1.24-3.79,5,5,0,0,0-6.69,0,5.21,5.21,0,0,0-1.24,3.79v2.73a5.24,5.24,0,0,0,1.24,3.8A4.45,4.45,0,0,0,1313.67,431.81Z"/><path class="cls-11" d="M1326.83,431.28h4.8V419.45h-4.8v-3.11h8.61v4.79h.21a9.37,9.37,0,0,1,.7-1.82,5.35,5.35,0,0,1,2.87-2.57,6.42,6.42,0,0,1,2.38-.4h2.17V420h-3.57a4.82,4.82,0,0,0-3.43,1.24,4.34,4.34,0,0,0-1.33,3.33v6.73H1342v3.12h-15.16Z"/><path class="cls-11" d="M1355.67,421.73a3.26,3.26,0,0,1-2.36-.7,2.39,2.39,0,0,1-.68-1.72v-.91a2.37,2.37,0,0,1,.68-1.71,4.35,4.35,0,0,1,4.73,0,2.37,2.37,0,0,1,.68,1.71v.91A2.39,2.39,0,0,1,1358,421,3.29,3.29,0,0,1,1355.67,421.73Zm0,13a3.26,3.26,0,0,1-2.36-.7,2.39,2.39,0,0,1-.68-1.72v-.91a2.37,2.37,0,0,1,.68-1.71,4.35,4.35,0,0,1,4.73,0,2.37,2.37,0,0,1,.68,1.71v.91a2.39,2.39,0,0,1-.68,1.72A3.29,3.29,0,0,1,1355.67,434.75Z"/><path class="cls-11" d="M1120.51,452v15q0,1.5.09,2.73a5.73,5.73,0,0,0,.51,2.09,2.9,2.9,0,0,0,1.26,1.31,6,6,0,0,0,4.62,0,2.9,2.9,0,0,0,1.26-1.31,5.73,5.73,0,0,0,.51-2.09c0-.82.08-1.73.08-2.73V452h3.92v14.31a32.47,32.47,0,0,1-.29,4.6,7.91,7.91,0,0,1-1.18,3.29,5.28,5.28,0,0,1-2.46,2,13.19,13.19,0,0,1-8.3,0,5.36,5.36,0,0,1-2.47-2,8.05,8.05,0,0,1-1.17-3.29,30.93,30.93,0,0,1-.3-4.6V452Z"/><path class="cls-11" d="M1141.51,452v15q0,1.5.09,2.73a5.73,5.73,0,0,0,.51,2.09,2.9,2.9,0,0,0,1.26,1.31,6,6,0,0,0,4.62,0,2.9,2.9,0,0,0,1.26-1.31,5.73,5.73,0,0,0,.51-2.09c0-.82.08-1.73.08-2.73V452h3.92v14.31a32.47,32.47,0,0,1-.29,4.6,7.91,7.91,0,0,1-1.18,3.29,5.28,5.28,0,0,1-2.46,2,13.19,13.19,0,0,1-8.3,0,5.36,5.36,0,0,1-2.47-2,8.05,8.05,0,0,1-1.17-3.29,30.93,30.93,0,0,1-.3-4.6V452Z"/><path class="cls-11" d="M1164,476.4l-6.9-24.43h4.24l3.22,12.32,2.13,8.29h.21l2.14-8.29,3.25-12.32h4.06l-6.89,24.43Z"/><path class="cls-11" d="M1200.94,458.34h3.82v3.08h.21a6.5,6.5,0,0,1,2.13-2.58,5.76,5.76,0,0,1,3.33-.92,6.13,6.13,0,0,1,5.07,2.38q1.89,2.37,1.89,7.07t-1.89,7.07a6.16,6.16,0,0,1-5.07,2.38,5.69,5.69,0,0,1-3.33-.93,6.54,6.54,0,0,1-2.13-2.57h-.21V483.4h-3.82Zm7.91,15.36a4.2,4.2,0,0,0,3.34-1.33,5.09,5.09,0,0,0,1.18-3.53V465.9a5.13,5.13,0,0,0-1.18-3.54,4.23,4.23,0,0,0-3.34-1.33,5.67,5.67,0,0,0-1.57.21,3.93,3.93,0,0,0-1.3.63,3.18,3.18,0,0,0-.89,1,3,3,0,0,0-.33,1.45v6a3,3,0,0,0,.33,1.45,3.15,3.15,0,0,0,.89,1,3.93,3.93,0,0,0,1.3.63A5.67,5.67,0,0,0,1208.85,473.7Z"/><path class="cls-11" d="M1229.68,476.82a9.12,9.12,0,0,1-3.59-.67,7.41,7.41,0,0,1-2.7-1.89,8.39,8.39,0,0,1-1.69-3,13.11,13.11,0,0,1,0-7.84,8.43,8.43,0,0,1,1.69-3,7.66,7.66,0,0,1,2.7-1.89,10.07,10.07,0,0,1,7.17,0,7.66,7.66,0,0,1,2.7,1.89,8.61,8.61,0,0,1,1.7,3,13.32,13.32,0,0,1,0,7.84,8.56,8.56,0,0,1-1.7,3,7.41,7.41,0,0,1-2.7,1.89A9.07,9.07,0,0,1,1229.68,476.82Zm0-3a4.45,4.45,0,0,0,3.34-1.28,5.24,5.24,0,0,0,1.24-3.8V466a5.21,5.21,0,0,0-1.24-3.79,5,5,0,0,0-6.69,0,5.26,5.26,0,0,0-1.24,3.79v2.73a5.28,5.28,0,0,0,1.24,3.8A4.48,4.48,0,0,0,1229.68,473.81Z"/><path class="cls-11" d="M1250.71,476.82a12.35,12.35,0,0,1-5.06-.95,9.13,9.13,0,0,1-3.41-2.52l2.35-2.1a8.15,8.15,0,0,0,2.67,2,8.47,8.47,0,0,0,3.52.68,6.15,6.15,0,0,0,3-.63,2.09,2.09,0,0,0,1.14-2,1.92,1.92,0,0,0-.21-.94,1.7,1.7,0,0,0-.59-.63,3.35,3.35,0,0,0-.9-.39,8.64,8.64,0,0,0-1.06-.21l-2.87-.45a15.47,15.47,0,0,1-2.14-.46,6.75,6.75,0,0,1-1.94-.89,4.64,4.64,0,0,1-1.4-1.49,4.44,4.44,0,0,1-.54-2.31,4.76,4.76,0,0,1,2.11-4.2,9.86,9.86,0,0,1,5.59-1.43,11.44,11.44,0,0,1,4.35.75,8.51,8.51,0,0,1,3.07,2.08l-2.14,2.24a7.12,7.12,0,0,0-2-1.49,7.47,7.47,0,0,0-3.43-.68q-3.83,0-3.82,2.42a1.63,1.63,0,0,0,.82,1.59,5.8,5.8,0,0,0,2,.58l2.87.45c.72.12,1.44.27,2.15.46a6.18,6.18,0,0,1,1.92.85,4.75,4.75,0,0,1,1.4,1.49,4.49,4.49,0,0,1,.55,2.31,5,5,0,0,1-2.12,4.29A9.66,9.66,0,0,1,1250.71,476.82Z"/><path class="cls-11" d="M1264.71,473.28h6.16V461.45h-6.16v-3.11h10v14.94h5.77v3.12h-15.75Zm8.09-18.23a2.77,2.77,0,0,1-2-.6,2,2,0,0,1-.58-1.47v-.73a2,2,0,0,1,.58-1.47,2.71,2.71,0,0,1,2-.6,2.8,2.8,0,0,1,2,.6,2,2,0,0,1,.58,1.47V453a2,2,0,0,1-.58,1.47A2.74,2.74,0,0,1,1272.8,455.05Z"/><path class="cls-11" d="M1293.76,476.4a4.42,4.42,0,0,1-3.5-1.28,4.8,4.8,0,0,1-1.12-3.3V461.45h-5.57v-3.11h4a2,2,0,0,0,1.43-.41,2,2,0,0,0,.42-1.45V452H1293v6.37h7.7v3.11H1293v11.83h7.7v3.12Z"/><path class="cls-11" d="M1306.71,473.28h6.16V461.45h-6.16v-3.11h10v14.94h5.78v3.12h-15.75Zm8.08-18.23a2.76,2.76,0,0,1-2-.6,2,2,0,0,1-.58-1.47v-.73a2,2,0,0,1,.58-1.47,2.71,2.71,0,0,1,2-.6,2.8,2.8,0,0,1,2,.6,2,2,0,0,1,.57,1.47V453a2,2,0,0,1-.57,1.47A2.75,2.75,0,0,1,1314.79,455.05Z"/><path class="cls-11" d="M1334.67,476.82a9.07,9.07,0,0,1-3.58-.67,7.33,7.33,0,0,1-2.7-1.89,8.56,8.56,0,0,1-1.7-3,13.32,13.32,0,0,1,0-7.84,8.61,8.61,0,0,1,1.7-3,7.57,7.57,0,0,1,2.7-1.89,10.07,10.07,0,0,1,7.17,0,7.66,7.66,0,0,1,2.7,1.89,8.43,8.43,0,0,1,1.69,3,13.11,13.11,0,0,1,0,7.84,8.39,8.39,0,0,1-1.69,3,7.41,7.41,0,0,1-2.7,1.89A9.12,9.12,0,0,1,1334.67,476.82Zm0-3a4.48,4.48,0,0,0,3.35-1.28,5.28,5.28,0,0,0,1.24-3.8V466a5.26,5.26,0,0,0-1.24-3.79,5,5,0,0,0-6.69,0,5.21,5.21,0,0,0-1.24,3.79v2.73a5.24,5.24,0,0,0,1.24,3.8A4.45,4.45,0,0,0,1334.67,473.81Z"/><path class="cls-11" d="M1348.11,476.4V458.34h3.82v3.08h.17a7.31,7.31,0,0,1,.72-1.35,4.55,4.55,0,0,1,1.07-1.12,4.85,4.85,0,0,1,1.47-.75,6.1,6.1,0,0,1,2-.28,5.77,5.77,0,0,1,4.41,1.78,7.13,7.13,0,0,1,1.68,5.08V476.4h-3.82V465.34q0-4.3-3.74-4.31a5.81,5.81,0,0,0-1.44.19,4.53,4.53,0,0,0-1.26.58,3,3,0,0,0-.89,1,2.78,2.78,0,0,0-.33,1.37V476.4Z"/><path class="cls-11" d="M1120.51,494v15q0,1.5.09,2.73a5.73,5.73,0,0,0,.51,2.09,2.9,2.9,0,0,0,1.26,1.31,6,6,0,0,0,4.62,0,2.9,2.9,0,0,0,1.26-1.31,5.73,5.73,0,0,0,.51-2.09c0-.82.08-1.73.08-2.73V494h3.92v14.31a32.47,32.47,0,0,1-.29,4.6,7.91,7.91,0,0,1-1.18,3.29,5.28,5.28,0,0,1-2.46,2,13.19,13.19,0,0,1-8.3,0,5.36,5.36,0,0,1-2.47-2,8.05,8.05,0,0,1-1.17-3.29,30.93,30.93,0,0,1-.3-4.6V494Z"/><path class="cls-11" d="M1141.51,494v15q0,1.5.09,2.73a5.73,5.73,0,0,0,.51,2.09,2.9,2.9,0,0,0,1.26,1.31,6,6,0,0,0,4.62,0,2.9,2.9,0,0,0,1.26-1.31,5.73,5.73,0,0,0,.51-2.09c0-.82.08-1.73.08-2.73V494h3.92v14.31a32.47,32.47,0,0,1-.29,4.6,7.91,7.91,0,0,1-1.18,3.29,5.28,5.28,0,0,1-2.46,2,13.19,13.19,0,0,1-8.3,0,5.36,5.36,0,0,1-2.47-2,8.05,8.05,0,0,1-1.17-3.29,30.93,30.93,0,0,1-.3-4.6V494Z"/><path class="cls-11" d="M1164,518.4l-6.9-24.43h4.24l3.22,12.32,2.13,8.29h.21l2.14-8.29,3.25-12.32h4.06l-6.89,24.43Z"/><path class="cls-11" d="M1208.68,518.82a8.81,8.81,0,0,1-4-.86,7.3,7.3,0,0,1-2.8-2.47,11.19,11.19,0,0,1-1.63-3.95,27.78,27.78,0,0,1,0-10.7,11.3,11.3,0,0,1,1.63-4,7.36,7.36,0,0,1,2.8-2.46,9.76,9.76,0,0,1,8,0,7.29,7.29,0,0,1,2.8,2.46,11.3,11.3,0,0,1,1.63,4,27.27,27.27,0,0,1,0,10.7,11.19,11.19,0,0,1-1.63,3.95,7.23,7.23,0,0,1-2.8,2.47A8.77,8.77,0,0,1,1208.68,518.82Zm0-3.22a3.87,3.87,0,0,0,3.71-2,11.32,11.32,0,0,0,1.08-5.39v-4.11a11.28,11.28,0,0,0-1.08-5.36,4.47,4.47,0,0,0-7.42,0,11.15,11.15,0,0,0-1.09,5.36v4.14a11.12,11.12,0,0,0,1.09,5.36A3.87,3.87,0,0,0,1208.68,515.6Z"/><path class="cls-11" d="M1221.84,515.28h4.79V503.45h-4.79v-3.11h8.61v4.79h.21a8.24,8.24,0,0,1,.7-1.82,5.4,5.4,0,0,1,1.15-1.52,5.54,5.54,0,0,1,1.72-1.05,6.38,6.38,0,0,1,2.38-.4h2.17V504h-3.57a4.8,4.8,0,0,0-3.43,1.24,4.3,4.3,0,0,0-1.33,3.33v6.73H1237v3.12h-15.15Z"/><path class="cls-11" d="M1243.71,515.28h6.16V503.45h-6.16v-3.11h10v14.94h5.77v3.12h-15.75Zm8.09-18.23a2.79,2.79,0,0,1-2-.6,2,2,0,0,1-.58-1.47v-.73a2,2,0,0,1,.58-1.47,2.71,2.71,0,0,1,2-.6,2.8,2.8,0,0,1,2,.6,2,2,0,0,1,.58,1.47V495a2,2,0,0,1-.58,1.47A2.74,2.74,0,0,1,1251.8,497.05Z"/><path class="cls-11" d="M1272.06,518.82a9.7,9.7,0,0,1-3.71-.67,7.31,7.31,0,0,1-2.76-1.89,8.25,8.25,0,0,1-1.72-3,12.84,12.84,0,0,1,0-7.82,9,9,0,0,1,1.71-3,7.47,7.47,0,0,1,2.68-1.91,9,9,0,0,1,3.5-.66,8.63,8.63,0,0,1,3.43.65,7.42,7.42,0,0,1,2.63,1.83,8.35,8.35,0,0,1,1.66,2.84,11,11,0,0,1,.57,3.64v1.43h-12.94v.59a4.71,4.71,0,0,0,1.32,3.46,4.94,4.94,0,0,0,3.68,1.34,5.76,5.76,0,0,0,3-.74,6,6,0,0,0,2-2l2.38,2.1a7.41,7.41,0,0,1-2.79,2.67A9.22,9.22,0,0,1,1272.06,518.82Zm-.28-16a4.94,4.94,0,0,0-1.87.35,4.31,4.31,0,0,0-1.47,1,4.68,4.68,0,0,0-1,1.52,5.06,5.06,0,0,0-.35,1.93v.24h9.06v-.35a4.74,4.74,0,0,0-1.21-3.41A4.2,4.2,0,0,0,1271.78,502.82Z"/><path class="cls-11" d="M1285.11,518.4V500.34h3.82v3.08h.17a7.31,7.31,0,0,1,.72-1.35,4.55,4.55,0,0,1,1.07-1.12,4.85,4.85,0,0,1,1.47-.75,6.1,6.1,0,0,1,2-.28,5.77,5.77,0,0,1,4.41,1.78,7.13,7.13,0,0,1,1.68,5.08V518.4h-3.82V507.34c0-2.87-1.24-4.31-3.74-4.31a5.81,5.81,0,0,0-1.44.19,4.53,4.53,0,0,0-1.26.58,3,3,0,0,0-.89,1,2.78,2.78,0,0,0-.33,1.37V518.4Z"/><path class="cls-11" d="M1314.76,518.4a4.42,4.42,0,0,1-3.5-1.28,4.8,4.8,0,0,1-1.12-3.3V503.45h-5.57v-3.11h4a2,2,0,0,0,1.43-.41,2,2,0,0,0,.42-1.45V494H1314v6.37h7.7v3.11H1314v11.83h7.7v3.12Z"/><path class="cls-11" d="M1341.39,518.4a3.29,3.29,0,0,1-2.46-.84,3.75,3.75,0,0,1-1-2.21h-.18a4.66,4.66,0,0,1-1.9,2.56,6.37,6.37,0,0,1-3.52.91,6.46,6.46,0,0,1-4.41-1.45,5.07,5.07,0,0,1-1.65-4,4.61,4.61,0,0,1,2-4q1.93-1.38,6-1.38h3.47v-1.4q0-3.68-3.89-3.68a5.2,5.2,0,0,0-2.83.69,5.79,5.79,0,0,0-1.82,1.8l-2.28-1.86a6.57,6.57,0,0,1,2.59-2.53,9.12,9.12,0,0,1,4.69-1.07,8.15,8.15,0,0,1,5.39,1.64,5.87,5.87,0,0,1,2,4.76v9.07h2.28v3Zm-8-2.38a5.16,5.16,0,0,0,3-.84,2.52,2.52,0,0,0,1.19-2.15v-2.61h-3.4q-4.12,0-4.13,2.47v.69a2.1,2.1,0,0,0,.88,1.83A4.21,4.21,0,0,0,1333.41,516Z"/><path class="cls-11" d="M1356.76,518.4a4.41,4.41,0,0,1-3.5-1.28,4.8,4.8,0,0,1-1.12-3.3V503.45h-5.57v-3.11h4a2,2,0,0,0,1.43-.41,2,2,0,0,0,.42-1.45V494H1356v6.37h7.7v3.11H1356v11.83h7.7v3.12Z"/><path class="cls-11" d="M1369.71,515.28h6.16V503.45h-6.16v-3.11h10v14.94h5.78v3.12h-15.75Zm8.08-18.23a2.8,2.8,0,0,1-2-.6,2,2,0,0,1-.57-1.47v-.73a2,2,0,0,1,.57-1.47,2.75,2.75,0,0,1,2-.6,2.8,2.8,0,0,1,2,.6,2,2,0,0,1,.57,1.47V495a2,2,0,0,1-.57,1.47A2.75,2.75,0,0,1,1377.79,497.05Z"/><path class="cls-11" d="M1397.67,518.82a9.15,9.15,0,0,1-3.59-.67,7.29,7.29,0,0,1-2.69-1.89,8.41,8.41,0,0,1-1.7-3,13.32,13.32,0,0,1,0-7.84,8.45,8.45,0,0,1,1.7-3,7.53,7.53,0,0,1,2.69-1.89,10.09,10.09,0,0,1,7.18,0,7.53,7.53,0,0,1,2.69,1.89,8.3,8.3,0,0,1,1.7,3,13.11,13.11,0,0,1,0,7.84,8.26,8.26,0,0,1-1.7,3,7.29,7.29,0,0,1-2.69,1.89A9.12,9.12,0,0,1,1397.67,518.82Zm0-3a4.44,4.44,0,0,0,3.34-1.28,5.24,5.24,0,0,0,1.25-3.8V508a5.22,5.22,0,0,0-1.25-3.79,5,5,0,0,0-6.68,0,5.21,5.21,0,0,0-1.24,3.79v2.73a5.24,5.24,0,0,0,1.24,3.8A4.45,4.45,0,0,0,1397.67,515.81Z"/><path class="cls-11" d="M1411.11,518.4V500.34h3.82v3.08h.17a7.31,7.31,0,0,1,.72-1.35,4.55,4.55,0,0,1,1.07-1.12,4.85,4.85,0,0,1,1.47-.75,6.1,6.1,0,0,1,2-.28,5.77,5.77,0,0,1,4.41,1.78,7.13,7.13,0,0,1,1.68,5.08V518.4h-3.82V507.34q0-4.3-3.74-4.31a5.81,5.81,0,0,0-1.44.19,4.28,4.28,0,0,0-1.26.58,3,3,0,0,0-.89,1,2.78,2.78,0,0,0-.33,1.37V518.4Z"/><path class="cls-11" d="M1118,560.4V536h3.92v21.14H1133v3.29Z"/><path class="cls-11" d="M1138.71,557.28h6.16V545.45h-6.16v-3.11h10v14.94h5.77v3.12h-15.75Zm8.09-18.23a2.8,2.8,0,0,1-2-.6,2,2,0,0,1-.58-1.47v-.73a2,2,0,0,1,.58-1.47,2.74,2.74,0,0,1,2-.6,2.79,2.79,0,0,1,2,.6,2,2,0,0,1,.58,1.47V537a2,2,0,0,1-.58,1.47A2.73,2.73,0,0,1,1146.8,539.05Z"/><path class="cls-11" d="M1159.05,536h7.28c3.12,0,5.44,1,6.94,3.11s2.26,5.11,2.26,9.1-.75,7-2.26,9.1-3.82,3.12-6.94,3.12h-7.28Zm7,21.21a4.63,4.63,0,0,0,4-1.8,8.68,8.68,0,0,0,1.31-5.17v-4.06a8.63,8.63,0,0,0-1.31-5.16,4.63,4.63,0,0,0-4-1.8h-3.15v18Z"/><path class="cls-11" d="M1193.35,560.4l-1.86-6.55h-7.77l-1.85,6.55h-4L1185,536h5.35l7.14,24.43Zm-5.6-20.48h-.28l-3,10.71h6.3Z"/><path class="cls-11" d="M1205,560.4h-3.88V536h9.13a7,7,0,0,1,5.34,1.95,7.58,7.58,0,0,1,1.84,5.38,7.47,7.47,0,0,1-1.37,4.61,5.88,5.88,0,0,1-3.92,2.24l5.64,10.25h-4.34l-5.18-9.91H1205Zm4.69-13c2.43,0,3.64-1.12,3.64-3.34v-1.51q0-3.35-3.64-3.34H1205v8.19Z"/><path class="cls-11" d="M1251.38,560.82c-3.11,0-5.41-1.1-6.92-3.29s-2.25-5.31-2.25-9.35.75-7.15,2.25-9.34,3.81-3.29,6.92-3.29a9.22,9.22,0,0,1,3.09.46,7,7,0,0,1,2.26,1.29,7.53,7.53,0,0,1,1.59,1.91,12.33,12.33,0,0,1,1.07,2.36l-3.53,1.19a15.29,15.29,0,0,0-.63-1.58,4.65,4.65,0,0,0-.88-1.26,4,4,0,0,0-1.24-.84,4.42,4.42,0,0,0-1.77-.31,4.08,4.08,0,0,0-3.78,2,10.44,10.44,0,0,0-1.19,5.36v4.14a10.41,10.41,0,0,0,1.19,5.36,4.07,4.07,0,0,0,3.78,2,4.41,4.41,0,0,0,1.77-.32,4,4,0,0,0,1.24-.84,4.65,4.65,0,0,0,.88-1.26,15.1,15.1,0,0,0,.63-1.57l3.53,1.19a12.61,12.61,0,0,1-1.07,2.36,7.53,7.53,0,0,1-1.59,1.91,7,7,0,0,1-2.26,1.28A9.21,9.21,0,0,1,1251.38,560.82Z"/><path class="cls-11" d="M1271.68,560.82a9.12,9.12,0,0,1-3.59-.67,7.41,7.41,0,0,1-2.7-1.89,8.56,8.56,0,0,1-1.7-3,13.32,13.32,0,0,1,0-7.84,8.61,8.61,0,0,1,1.7-3,7.66,7.66,0,0,1,2.7-1.89,10.07,10.07,0,0,1,7.17,0,7.66,7.66,0,0,1,2.7,1.89,8.43,8.43,0,0,1,1.69,3,13.11,13.11,0,0,1,0,7.84,8.39,8.39,0,0,1-1.69,3,7.41,7.41,0,0,1-2.7,1.89A9.07,9.07,0,0,1,1271.68,560.82Zm0-3a4.47,4.47,0,0,0,3.34-1.28,5.24,5.24,0,0,0,1.24-3.8V550a5.21,5.21,0,0,0-1.24-3.79,5,5,0,0,0-6.69,0,5.21,5.21,0,0,0-1.24,3.79v2.73a5.24,5.24,0,0,0,1.24,3.8A4.46,4.46,0,0,0,1271.68,557.81Z"/><path class="cls-11" d="M1284.8,557.28h6V537.61h-6V534.5h9.8v22.78h6v3.12H1284.8Z"/><path class="cls-11" d="M1305.8,557.28h6V537.61h-6V534.5h9.8v22.78h6v3.12H1305.8Z"/><path class="cls-11" d="M1327.71,557.28h6.16V545.45h-6.16v-3.11h10v14.94h5.78v3.12h-15.75Zm8.08-18.23a2.76,2.76,0,0,1-2-.6,2,2,0,0,1-.58-1.47v-.73a2,2,0,0,1,.58-1.47,2.71,2.71,0,0,1,2-.6,2.8,2.8,0,0,1,2,.6,2,2,0,0,1,.57,1.47V537a2,2,0,0,1-.57,1.47A2.75,2.75,0,0,1,1335.79,539.05Z"/><path class="cls-11" d="M1355.71,560.82a12.35,12.35,0,0,1-5.06-1,9.13,9.13,0,0,1-3.41-2.52l2.34-2.1a8.29,8.29,0,0,0,2.68,2,8.44,8.44,0,0,0,3.52.68,6.17,6.17,0,0,0,3-.63,2.09,2.09,0,0,0,1.14-2,1.92,1.92,0,0,0-.21-.94,1.65,1.65,0,0,0-.6-.63,3.15,3.15,0,0,0-.89-.39,8.45,8.45,0,0,0-1.07-.21l-2.87-.45a15.34,15.34,0,0,1-2.13-.46,6.63,6.63,0,0,1-1.94-.89,4.54,4.54,0,0,1-1.4-1.49,4.34,4.34,0,0,1-.55-2.31,4.77,4.77,0,0,1,2.12-4.2,9.82,9.82,0,0,1,5.58-1.43,11.49,11.49,0,0,1,4.36.75,8.39,8.39,0,0,1,3.06,2.08l-2.13,2.24a7,7,0,0,0-2-1.49,7.41,7.41,0,0,0-3.43-.68q-3.81,0-3.81,2.42a1.63,1.63,0,0,0,.82,1.59,5.81,5.81,0,0,0,1.94.58l2.87.45c.73.12,1.44.27,2.16.46a6.18,6.18,0,0,1,1.92.85,4.75,4.75,0,0,1,1.4,1.49,4.49,4.49,0,0,1,.54,2.31,5,5,0,0,1-2.11,4.29A9.68,9.68,0,0,1,1355.71,560.82Z"/><path class="cls-11" d="M1369.71,557.28h6.16V545.45h-6.16v-3.11h10v14.94h5.78v3.12h-15.75Zm8.08-18.23a2.8,2.8,0,0,1-2-.6,2,2,0,0,1-.57-1.47v-.73a2,2,0,0,1,.57-1.47,2.75,2.75,0,0,1,2-.6,2.8,2.8,0,0,1,2,.6,2,2,0,0,1,.57,1.47V537a2,2,0,0,1-.57,1.47A2.75,2.75,0,0,1,1377.79,539.05Z"/><path class="cls-11" d="M1397.67,560.82a9.15,9.15,0,0,1-3.59-.67,7.29,7.29,0,0,1-2.69-1.89,8.41,8.41,0,0,1-1.7-3,13.32,13.32,0,0,1,0-7.84,8.45,8.45,0,0,1,1.7-3,7.53,7.53,0,0,1,2.69-1.89,10.09,10.09,0,0,1,7.18,0,7.53,7.53,0,0,1,2.69,1.89,8.3,8.3,0,0,1,1.7,3,13.11,13.11,0,0,1,0,7.84,8.26,8.26,0,0,1-1.7,3,7.29,7.29,0,0,1-2.69,1.89A9.12,9.12,0,0,1,1397.67,560.82Zm0-3a4.44,4.44,0,0,0,3.34-1.28,5.24,5.24,0,0,0,1.25-3.8V550a5.22,5.22,0,0,0-1.25-3.79,5,5,0,0,0-6.68,0,5.21,5.21,0,0,0-1.24,3.79v2.73a5.24,5.24,0,0,0,1.24,3.8A4.45,4.45,0,0,0,1397.67,557.81Z"/><path class="cls-11" d="M1411.11,560.4V542.34h3.82v3.08h.17a7.31,7.31,0,0,1,.72-1.35,4.55,4.55,0,0,1,1.07-1.12,4.85,4.85,0,0,1,1.47-.75,6.1,6.1,0,0,1,2-.28,5.77,5.77,0,0,1,4.41,1.78,7.13,7.13,0,0,1,1.68,5.08V560.4h-3.82V549.34q0-4.3-3.74-4.31a5.81,5.81,0,0,0-1.44.19,4.28,4.28,0,0,0-1.26.58,3,3,0,0,0-.89,1,2.78,2.78,0,0,0-.33,1.37V560.4Z"/><polyline class="cls-4" points="1002.17 473.81 1053.38 473.81 1038.07 489.13"/><polyline class="cls-4" points="1484 473.5 1535.22 473.5 1519.9 488.82"/></g></svg>