<svg id="Layer_1" data-name="Layer 1" xmlns="http://www.w3.org/2000/svg" viewBox="0 0 796 719"><defs><style>.cls-1,.cls-2{fill:none;}.cls-1,.cls-2,.cls-4{stroke:#c3793d;stroke-miterlimit:10;}.cls-1{stroke-width:2px;}.cls-3{fill:#c3793d;}.cls-4{fill:#0c0c0d;}.cls-5{fill:#c4793d;}</style></defs><path class="cls-1" d="M766.42,466.39H389.12a10.89,10.89,0,0,1-10.89-10.89V263.4a10.89,10.89,0,0,1,10.89-10.9h377.3a10.89,10.89,0,0,1,10.89,10.9V455.5A10.89,10.89,0,0,1,766.42,466.39Z"/><circle class="cls-2" cx="506.21" cy="309.88" r="13.07"/><circle class="cls-2" cx="506.21" cy="386.38" r="13.07"/><circle class="cls-2" cx="506.21" cy="348.77" r="13.07"/><circle class="cls-2" cx="553.38" cy="365.98" r="13.07"/><circle class="cls-2" cx="553.38" cy="328.37" r="13.07"/><circle class="cls-2" cx="553.38" cy="290.75" r="13.07"/><circle class="cls-2" cx="553.38" cy="403.59" r="13.07"/><circle class="cls-2" cx="601.84" cy="365.98" r="13.07"/><circle class="cls-2" cx="601.84" cy="328.37" r="13.07"/><circle class="cls-2" cx="601.84" cy="290.75" r="13.07"/><circle class="cls-2" cx="601.84" cy="403.59" r="13.07"/><polygon class="cls-2" points="519.28 348.77 540.32 328.37 518.59 314.06 540.32 290.75 519.28 348.77"/><polyline class="cls-2" points="540.32 290.75 519.28 386.38 540.32 328.37"/><path class="cls-2" d="M540.32,366l-21.73-51.92Z"/><polyline class="cls-2" points="540.32 403.59 519.28 386.38 540.32 365.98 519.28 348.77 540.32 403.59 518.59 314.06"/><polyline class="cls-2" points="566.45 290.75 588.77 365.98 566.45 365.98 588.77 403.59 566.45 403.59 588.77 290.75 566.45 365.98 588.77 328.37 566.45 403.59 588.77 365.98 566.45 328.37 588.77 290.75 566.45 290.75 588.77 403.59 566.45 328.37 588.77 328.37 566.45 290.75 588.77 403.59"/><circle class="cls-2" cx="649.33" cy="311.15" r="13.07"/><circle class="cls-2" cx="649.33" cy="387.66" r="13.07"/><circle class="cls-2" cx="649.33" cy="350.04" r="13.07"/><polygon class="cls-2" points="636.26 350.04 615.22 329.64 636.95 315.33 615.22 292.03 636.26 350.04"/><polyline class="cls-2" points="615.22 292.03 636.26 387.66 615.22 329.64"/><path class="cls-2" d="M615.22,367.26,637,315.33Z"/><polyline class="cls-2" points="615.22 404.87 636.26 387.66 615.22 367.25 636.26 350.04 615.22 404.87 636.95 315.33"/><path class="cls-3" d="M398.12,284l-1-3.58h-4.25l-1,3.58h-2.18l3.9-13.35h2.92L400.4,284Zm-3.06-11.19h-.15l-1.65,5.85h3.45Z"/><path class="cls-3" d="M411.66,285a2.43,2.43,0,0,1-1.28,2.26,8.21,8.21,0,0,1-3.9.72,11.79,11.79,0,0,1-2.15-.16,4.81,4.81,0,0,1-1.42-.47,1.93,1.93,0,0,1-.78-.74,2.08,2.08,0,0,1-.24-1,1.69,1.69,0,0,1,.45-1.25,2.69,2.69,0,0,1,1.27-.66v-.19a1.92,1.92,0,0,1-.79-.54,1.32,1.32,0,0,1-.3-.9,1.28,1.28,0,0,1,.5-1.1,3.44,3.44,0,0,1,1.28-.56v-.1a3.26,3.26,0,0,1-1.4-1.18,3.31,3.31,0,0,1-.5-1.84,3.43,3.43,0,0,1,.29-1.42,3,3,0,0,1,.81-1.09,3.72,3.72,0,0,1,1.27-.7,5,5,0,0,1,1.65-.25,5.18,5.18,0,0,1,1.86.32v-.32a1.43,1.43,0,0,1,.32-1,1.26,1.26,0,0,1,1-.38h1.79v1.65H409.1v.45a3,3,0,0,1,1,1.12,3.47,3.47,0,0,1,.35,1.58,3.51,3.51,0,0,1-.29,1.43,3.11,3.11,0,0,1-.81,1.09,3.48,3.48,0,0,1-1.26.68,5.41,5.41,0,0,1-1.66.24,6,6,0,0,1-1.22-.11,2.37,2.37,0,0,0-.69.32.74.74,0,0,0-.35.64.54.54,0,0,0,.44.57,4.31,4.31,0,0,0,1.09.11h2.22a4.4,4.4,0,0,1,2.87.76A2.46,2.46,0,0,1,411.66,285Zm-2,.12a1,1,0,0,0-.4-.8,2.54,2.54,0,0,0-1.45-.3h-3.43a1.17,1.17,0,0,0-.72,1.12,1.23,1.23,0,0,0,.46,1,2.41,2.41,0,0,0,1.56.41h1.55a3.69,3.69,0,0,0,1.81-.36A1.12,1.12,0,0,0,409.71,285.16Zm-3.29-5.82a2,2,0,0,0,1.49-.48,1.72,1.72,0,0,0,.48-1.28v-.52a1.74,1.74,0,0,0-.48-1.28,2.55,2.55,0,0,0-3,0,1.74,1.74,0,0,0-.48,1.28v.52a1.72,1.72,0,0,0,.48,1.28A2,2,0,0,0,406.42,279.34Z"/><path class="cls-3" d="M418.18,284.2a5.16,5.16,0,0,1-2-.37,4.06,4.06,0,0,1-1.52-1,4.53,4.53,0,0,1-.93-1.62,6.44,6.44,0,0,1-.33-2.13,6.28,6.28,0,0,1,.34-2.14,4.73,4.73,0,0,1,.93-1.63,4.08,4.08,0,0,1,1.47-1,5.21,5.21,0,0,1,3.78,0,4.08,4.08,0,0,1,1.44,1,4.51,4.51,0,0,1,.91,1.55,6,6,0,0,1,.31,2v.78h-7.07v.32a2.56,2.56,0,0,0,.72,1.89,2.72,2.72,0,0,0,2,.74,3.17,3.17,0,0,0,1.64-.41A3.31,3.31,0,0,0,421,281l1.3,1.15a4,4,0,0,1-1.52,1.46A5,5,0,0,1,418.18,284.2Zm-.15-8.74a2.61,2.61,0,0,0-1,.19,2.4,2.4,0,0,0-.81.54,2.58,2.58,0,0,0-.52.84,2.69,2.69,0,0,0-.19,1.05v.13h4.95V278a2.58,2.58,0,0,0-.66-1.86A2.28,2.28,0,0,0,418,275.46Z"/><path class="cls-3" d="M425.32,284V274.1h2.08v1.68h.1a3.67,3.67,0,0,1,.39-.73,2.63,2.63,0,0,1,.58-.62,2.8,2.8,0,0,1,.81-.41,3.41,3.41,0,0,1,1.07-.15,3.14,3.14,0,0,1,2.41,1,3.89,3.89,0,0,1,.91,2.77V284h-2.08v-6.05c0-1.56-.68-2.35-2-2.35a2.94,2.94,0,0,0-.78.11,2.17,2.17,0,0,0-.69.31,1.59,1.59,0,0,0-.49.54,1.47,1.47,0,0,0-.18.74V284Z"/><path class="cls-3" d="M441.52,284a2.42,2.42,0,0,1-1.92-.7,2.6,2.6,0,0,1-.61-1.8V275.8h-3v-1.7h2.16a1.13,1.13,0,0,0,.79-.22,1.1,1.1,0,0,0,.22-.79v-2.47h2v3.48h4.2v1.7h-4.2v6.47h4.2V284Z"/><path class="cls-3" d="M391.07,434.36h4a4.39,4.39,0,0,1,3.8,1.7,10.68,10.68,0,0,1,0,9.95,4.39,4.39,0,0,1-3.8,1.7h-4ZM394.92,446a2.55,2.55,0,0,0,2.19-1,4.74,4.74,0,0,0,.72-2.82v-2.22a4.7,4.7,0,0,0-.72-2.82,2.53,2.53,0,0,0-2.19-1H393.2V446Z"/><path class="cls-3" d="M406.93,447.94a5.44,5.44,0,0,1-2-.36,4.16,4.16,0,0,1-1.51-1,4.5,4.5,0,0,1-.94-1.61,6.71,6.71,0,0,1-.32-2.13,6.56,6.56,0,0,1,.33-2.15,5,5,0,0,1,.94-1.63,4,4,0,0,1,1.46-1,5.1,5.1,0,0,1,3.79,0,3.93,3.93,0,0,1,1.43,1,4.35,4.35,0,0,1,.91,1.55,6,6,0,0,1,.32,2v.78h-7.08v.33a2.55,2.55,0,0,0,.73,1.89,2.72,2.72,0,0,0,2,.73,3.13,3.13,0,0,0,1.63-.41,3.19,3.19,0,0,0,1.1-1.09l1.3,1.15a4.12,4.12,0,0,1-1.52,1.46A5.06,5.06,0,0,1,406.93,447.94Zm-.15-8.74a2.66,2.66,0,0,0-1,.19,2.24,2.24,0,0,0-.8.55,2.62,2.62,0,0,0-.53.83,3,3,0,0,0-.19,1.05V442h5v-.19a2.6,2.6,0,0,0-.66-1.86A2.29,2.29,0,0,0,406.78,439.2Z"/><path class="cls-3" d="M418.4,447.94a5.39,5.39,0,0,1-2-.36,4.08,4.08,0,0,1-1.51-1,4.5,4.5,0,0,1-.94-1.61,6.44,6.44,0,0,1-.33-2.13,6.55,6.55,0,0,1,.34-2.15,4.68,4.68,0,0,1,.94-1.63,3.94,3.94,0,0,1,1.46-1,4.72,4.72,0,0,1,1.91-.37,4.77,4.77,0,0,1,1.88.36,4,4,0,0,1,1.43,1,4.35,4.35,0,0,1,.91,1.55,6,6,0,0,1,.31,2v.78h-7.07v.33a2.59,2.59,0,0,0,.72,1.89,2.75,2.75,0,0,0,2,.73,3.17,3.17,0,0,0,1.64-.41,3.28,3.28,0,0,0,1.1-1.09l1.3,1.15a4.12,4.12,0,0,1-1.52,1.46A5.1,5.1,0,0,1,418.4,447.94Zm-.15-8.74a2.61,2.61,0,0,0-1,.19,2.38,2.38,0,0,0-.81.55,2.6,2.6,0,0,0-.52.83,2.76,2.76,0,0,0-.19,1.05V442h5v-.19a2.6,2.6,0,0,0-.66-1.86A2.28,2.28,0,0,0,418.25,439.2Z"/><path class="cls-3" d="M425.44,437.84h2.09v1.69h.11a3.55,3.55,0,0,1,1.17-1.41,3.08,3.08,0,0,1,1.82-.51,3.37,3.37,0,0,1,2.77,1.3,7.77,7.77,0,0,1,0,7.73,3.35,3.35,0,0,1-2.77,1.3,3.08,3.08,0,0,1-1.82-.51,3.46,3.46,0,0,1-1.17-1.4h-.11v5.51h-2.09Zm4.32,8.4a2.3,2.3,0,0,0,1.83-.73,2.79,2.79,0,0,0,.64-1.93V442a2.81,2.81,0,0,0-.64-1.93,2.34,2.34,0,0,0-1.83-.73,3,3,0,0,0-.86.12,2.28,2.28,0,0,0-.7.34,1.68,1.68,0,0,0-.49.57,1.65,1.65,0,0,0-.18.79v3.29a1.69,1.69,0,0,0,.18.8,1.64,1.64,0,0,0,.49.56,2.07,2.07,0,0,0,.7.34A3,3,0,0,0,429.76,446.24Z"/><path class="cls-3" d="M450.3,437.44h-.17v10.27h-1.87V434.36H451l3.92,10.27h.18V434.36H457v13.35h-2.75Z"/><path class="cls-3" d="M464.3,447.94a5.39,5.39,0,0,1-2-.36,4.08,4.08,0,0,1-1.51-1,4.5,4.5,0,0,1-.94-1.61,6.44,6.44,0,0,1-.33-2.13,6.55,6.55,0,0,1,.34-2.15,4.68,4.68,0,0,1,.94-1.63,4,4,0,0,1,1.46-1,4.72,4.72,0,0,1,1.91-.37A4.77,4.77,0,0,1,466,438a4,4,0,0,1,1.43,1,4.35,4.35,0,0,1,.91,1.55,6,6,0,0,1,.31,2v.78h-7.07v.33a2.55,2.55,0,0,0,.73,1.89,2.71,2.71,0,0,0,2,.73,3.14,3.14,0,0,0,1.64-.41,3.28,3.28,0,0,0,1.1-1.09l1.3,1.15a4.12,4.12,0,0,1-1.52,1.46A5.1,5.1,0,0,1,464.3,447.94Zm-.15-8.74a2.61,2.61,0,0,0-1,.19,2.24,2.24,0,0,0-.8.55,2.46,2.46,0,0,0-.53.83,2.76,2.76,0,0,0-.19,1.05V442h4.95v-.19a2.6,2.6,0,0,0-.66-1.86A2.28,2.28,0,0,0,464.15,439.2Z"/><path class="cls-3" d="M477.62,446h-.1a3.67,3.67,0,0,1-.39.73,2.67,2.67,0,0,1-.59.62,2.62,2.62,0,0,1-.8.41,3.41,3.41,0,0,1-1.07.15,3.16,3.16,0,0,1-2.41-1,3.93,3.93,0,0,1-.92-2.78v-6.35h2.09v6.05c0,1.56.68,2.35,2,2.35a3,3,0,0,0,.79-.11,2.39,2.39,0,0,0,.69-.31,1.62,1.62,0,0,0,.48-.53,1.39,1.39,0,0,0,.19-.75v-6.7h2.08v9.87h-2.08Z"/><path class="cls-3" d="M482.76,446h2.62v-6.47h-2.62v-1.7h4.71v2.62h.11a5.18,5.18,0,0,1,.38-1,3.08,3.08,0,0,1,.63-.83,3,3,0,0,1,.94-.58,3.65,3.65,0,0,1,1.3-.22H492v2h-1.95a2.66,2.66,0,0,0-1.88.68,2.38,2.38,0,0,0-.72,1.82V446H491v1.7h-8.28Z"/><path class="cls-3" d="M502.19,447.71a1.8,1.8,0,0,1-1.35-.46,2,2,0,0,1-.54-1.2h-.1a2.53,2.53,0,0,1-1,1.39,3.42,3.42,0,0,1-1.92.5,3.5,3.5,0,0,1-2.41-.79,2.77,2.77,0,0,1-.9-2.19,2.51,2.51,0,0,1,1.06-2.19,5.62,5.62,0,0,1,3.26-.76h1.89v-.76c0-1.34-.7-2-2.12-2a2.87,2.87,0,0,0-1.55.37,3.34,3.34,0,0,0-1,1l-1.24-1a3.6,3.6,0,0,1,1.41-1.38,5,5,0,0,1,2.56-.59,4.46,4.46,0,0,1,3,.9,3.22,3.22,0,0,1,1.07,2.6v5h1.24v1.64Zm-4.36-1.3a2.76,2.76,0,0,0,1.66-.46,1.35,1.35,0,0,0,.65-1.17v-1.43h-1.85c-1.5,0-2.26.45-2.26,1.35v.38a1.14,1.14,0,0,0,.48,1A2.3,2.3,0,0,0,497.83,446.41Z"/><path class="cls-3" d="M505.69,446H509V435.26h-3.27v-1.7h5.36V446h3.27v1.7h-8.63Z"/><path class="cls-3" d="M530.63,437.44h-.17v10.27h-1.88V434.36h2.76l3.92,10.27h.17V434.36h1.88v13.35h-2.76Z"/><path class="cls-3" d="M544.63,447.94a5.44,5.44,0,0,1-2-.36,4.16,4.16,0,0,1-1.51-1,4.34,4.34,0,0,1-.93-1.61,6.44,6.44,0,0,1-.33-2.13,6.56,6.56,0,0,1,.33-2.15,5,5,0,0,1,.94-1.63,4,4,0,0,1,1.46-1,4.8,4.8,0,0,1,1.92-.37,4.69,4.69,0,0,1,1.87.36,4.06,4.06,0,0,1,1.44,1,4.49,4.49,0,0,1,.9,1.55,6,6,0,0,1,.32,2v.78h-7.08v.33a2.59,2.59,0,0,0,.73,1.89,2.72,2.72,0,0,0,2,.73,3.11,3.11,0,0,0,1.63-.41,3.19,3.19,0,0,0,1.1-1.09l1.3,1.15a4,4,0,0,1-1.52,1.46A5.06,5.06,0,0,1,544.63,447.94Zm-.15-8.74a2.7,2.7,0,0,0-1,.19,2.24,2.24,0,0,0-.8.55,2.62,2.62,0,0,0-.53.83,3,3,0,0,0-.19,1.05V442h5v-.19a2.6,2.6,0,0,0-.66-1.86A2.29,2.29,0,0,0,544.48,439.2Z"/><path class="cls-3" d="M556.49,447.71a2.38,2.38,0,0,1-1.91-.7,2.61,2.61,0,0,1-.62-1.8v-5.67h-3v-1.7h2.16a1.13,1.13,0,0,0,.79-.22,1.08,1.08,0,0,0,.23-.79v-2.47h1.95v3.48h4.21v1.7h-4.21V446h4.21v1.7Z"/><path class="cls-3" d="M576.78,441.76a10.75,10.75,0,0,1,.32-2.68,11.37,11.37,0,0,1,.86-2.4,9.87,9.87,0,0,1,1.27-2,8.31,8.31,0,0,1,1.53-1.5h2.08a10.25,10.25,0,0,0-1.62,1.43,9.72,9.72,0,0,0-1.34,1.82,10.21,10.21,0,0,0-.92,2.11,7.93,7.93,0,0,0-.34,2.34v1.76A8,8,0,0,0,579,445a10.45,10.45,0,0,0,.92,2.11,10.05,10.05,0,0,0,1.34,1.82,11.37,11.37,0,0,0,1.62,1.43h-2.08a8.24,8.24,0,0,1-1.53-1.49,10.24,10.24,0,0,1-1.27-2,11.37,11.37,0,0,1-.86-2.4A10.83,10.83,0,0,1,576.78,441.76Z"/><path class="cls-3" d="M593.09,441.32l.06-4H593l-2.68,6.86-2.68-6.86h-.15l.06,4v6.39h-1.9V434.36h2.62l2.05,5.3h.13l2.07-5.3H595v13.35h-1.9Z"/><path class="cls-3" d="M598.12,447.71V434.36h2.15v11.55h6.08v1.8Z"/><path class="cls-3" d="M609.14,447.71V434.36h5a3.82,3.82,0,0,1,2.92,1.07,4.82,4.82,0,0,1,0,5.88,3.82,3.82,0,0,1-2.92,1.06h-2.85v5.34Zm2.14-7.09h2.53c1.32,0,2-.62,2-1.85V438q0-1.83-2-1.83h-2.53Z"/><path class="cls-3" d="M626.81,441.76a11.31,11.31,0,0,1-1.18,5.09,10.24,10.24,0,0,1-1.27,2,8.24,8.24,0,0,1-1.53,1.49h-2.08a11.37,11.37,0,0,0,1.62-1.43,10.05,10.05,0,0,0,1.34-1.82,9.92,9.92,0,0,0,.92-2.11,8,8,0,0,0,.34-2.35v-1.76a7.93,7.93,0,0,0-.34-2.34,10.23,10.23,0,0,0-2.26-3.93,10.25,10.25,0,0,0-1.62-1.43h2.08a8.31,8.31,0,0,1,1.53,1.5,9.87,9.87,0,0,1,1.27,2,11.39,11.39,0,0,1,.87,2.4A11.24,11.24,0,0,1,626.81,441.76Z"/><rect class="cls-1" x="399.74" y="484.88" width="356.06" height="213.89" rx="17.09"/><path class="cls-3" d="M413.8,503.64h4a4.36,4.36,0,0,1,3.8,1.7,10.66,10.66,0,0,1,0,9.94,4.37,4.37,0,0,1-3.8,1.71h-4Zm3.85,11.59a2.53,2.53,0,0,0,2.19-1,4.74,4.74,0,0,0,.71-2.82V509.2a4.74,4.74,0,0,0-.71-2.82,2.52,2.52,0,0,0-2.19-1h-1.72v9.83Z"/><path class="cls-3" d="M425.64,515.28H429v-6.46h-3.37v-1.7h5.45v8.16h3.16V517h-8.61Zm4.42-10a1.51,1.51,0,0,1-1.12-.33,1.09,1.09,0,0,1-.31-.8v-.4a1.09,1.09,0,0,1,.31-.8,1.49,1.49,0,0,1,1.1-.33,1.51,1.51,0,0,1,1.12.33,1.09,1.09,0,0,1,.32.8v.4a1.09,1.09,0,0,1-.32.8A1.49,1.49,0,0,1,430.06,505.32Z"/><path class="cls-3" d="M446.09,518.06a2.41,2.41,0,0,1-1.28,2.25,8.12,8.12,0,0,1-3.91.73,11.87,11.87,0,0,1-2.15-.16,4.74,4.74,0,0,1-1.41-.47,1.92,1.92,0,0,1-.79-.75,2,2,0,0,1-.24-1,1.68,1.68,0,0,1,.45-1.25,2.72,2.72,0,0,1,1.28-.66v-.19a2,2,0,0,1-.8-.54,1.32,1.32,0,0,1-.3-.9,1.3,1.3,0,0,1,.5-1.1,3.36,3.36,0,0,1,1.28-.56v-.1a3.18,3.18,0,0,1-1.39-1.19,3.27,3.27,0,0,1-.5-1.83,3.51,3.51,0,0,1,.29-1.43,3.11,3.11,0,0,1,.81-1.09,3.83,3.83,0,0,1,1.26-.69,5,5,0,0,1,1.66-.25,5.13,5.13,0,0,1,1.85.32v-.32a1.42,1.42,0,0,1,.33-1,1.22,1.22,0,0,1,1-.38h1.8v1.64h-2.3v.46a3,3,0,0,1,1,1.12,3.79,3.79,0,0,1,.06,3,3.17,3.17,0,0,1-.82,1.09,3.65,3.65,0,0,1-1.26.69,5.3,5.3,0,0,1-1.65.24,6.78,6.78,0,0,1-1.23-.11,2.37,2.37,0,0,0-.69.32.72.72,0,0,0-.34.63.55.55,0,0,0,.44.58,4.76,4.76,0,0,0,1.09.11h2.22a4.36,4.36,0,0,1,2.87.76A2.49,2.49,0,0,1,446.09,518.06Zm-1.95.12a1,1,0,0,0-.41-.8,2.52,2.52,0,0,0-1.45-.3h-3.42a1.16,1.16,0,0,0-.73,1.12,1.24,1.24,0,0,0,.47,1,2.37,2.37,0,0,0,1.56.41h1.55a3.62,3.62,0,0,0,1.8-.36A1.13,1.13,0,0,0,444.14,518.18Zm-3.29-5.82a2,2,0,0,0,1.49-.48,1.74,1.74,0,0,0,.48-1.28v-.52a1.74,1.74,0,0,0-.48-1.28,2.57,2.57,0,0,0-3,0,1.77,1.77,0,0,0-.47,1.28v.52a1.77,1.77,0,0,0,.47,1.28A2,2,0,0,0,440.85,512.36Z"/><path class="cls-3" d="M448.59,515.28H452v-6.46h-3.37v-1.7H454v8.16h3.16V517h-8.61Zm4.42-10a1.51,1.51,0,0,1-1.12-.33,1.09,1.09,0,0,1-.31-.8v-.4a1.09,1.09,0,0,1,.31-.8,1.49,1.49,0,0,1,1.1-.33,1.51,1.51,0,0,1,1.12.33,1.09,1.09,0,0,1,.32.8v.4a1.09,1.09,0,0,1-.32.8A1.49,1.49,0,0,1,453,505.32Z"/><path class="cls-3" d="M464.47,517a2.45,2.45,0,0,1-1.92-.7,2.67,2.67,0,0,1-.61-1.8v-5.67h-3v-1.7h2.16a1.18,1.18,0,0,0,.79-.22,1.11,1.11,0,0,0,.23-.8v-2.46H464v3.48h4.2v1.7H464v6.46h4.2V517Z"/><path class="cls-3" d="M479,517a1.84,1.84,0,0,1-1.35-.46,2,2,0,0,1-.54-1.21H477a2.55,2.55,0,0,1-1,1.4,3.45,3.45,0,0,1-1.92.5,3.5,3.5,0,0,1-2.41-.8,2.77,2.77,0,0,1-.9-2.19,2.53,2.53,0,0,1,1.06-2.19,5.69,5.69,0,0,1,3.26-.75H477v-.77c0-1.34-.7-2-2.12-2a2.87,2.87,0,0,0-1.55.38,3.19,3.19,0,0,0-1,1l-1.25-1a3.59,3.59,0,0,1,1.42-1.39,5,5,0,0,1,2.56-.58,4.46,4.46,0,0,1,2.95.9,3.21,3.21,0,0,1,1.07,2.6v5h1.24V517Zm-4.36-1.31a2.83,2.83,0,0,0,1.66-.45,1.37,1.37,0,0,0,.65-1.18v-1.42h-1.85c-1.51,0-2.26.45-2.26,1.35v.38a1.12,1.12,0,0,0,.48,1A2.3,2.3,0,0,0,474.66,515.68Z"/><path class="cls-3" d="M482.52,515.28h3.27V504.53h-3.27v-1.7h5.36v12.45h3.27V517h-8.63Z"/><path class="cls-3" d="M510.84,505.43V517H508.7V505.43h-4.19v-1.79H515v1.79Z"/><path class="cls-3" d="M515.89,507.12h1.78l1,8.3h.17l1.47-8.3h2l1.45,8.3h.18l1-8.3h1.7L525.23,517h-2.57l-1.32-7.65h-.17L519.83,517h-2.56Z"/><path class="cls-3" d="M528.92,515.28h3.36v-6.46h-3.36v-1.7h5.45v8.16h3.15V517h-8.6Zm4.42-10a1.51,1.51,0,0,1-1.12-.33,1.09,1.09,0,0,1-.32-.8v-.4a1.09,1.09,0,0,1,.32-.8,1.48,1.48,0,0,1,1.1-.33,1.53,1.53,0,0,1,1.12.33,1.09,1.09,0,0,1,.31.8v.4a1.09,1.09,0,0,1-.31.8A1.49,1.49,0,0,1,533.34,505.32Z"/><path class="cls-3" d="M540.07,517v-9.87h2.08v1.68h.1a4,4,0,0,1,.39-.74,2.58,2.58,0,0,1,.58-.61A2.8,2.8,0,0,1,544,507a3.41,3.41,0,0,1,1.07-.15,3.16,3.16,0,0,1,2.41,1,3.92,3.92,0,0,1,.92,2.78V517h-2.09v-6.05c0-1.57-.68-2.35-2.05-2.35a3,3,0,0,0-.78.1,2.57,2.57,0,0,0-.69.32,1.59,1.59,0,0,0-.49.54,1.47,1.47,0,0,0-.18.74V517Z"/><path class="cls-3" d="M563.06,517V503.64h8.35v1.79H565.2v3.89h6v1.79h-6v4.08h6.21V517Z"/><path class="cls-3" d="M574.49,517v-9.87h2.09v1.68h.09a4.85,4.85,0,0,1,.4-.74,2.4,2.4,0,0,1,.58-.61,2.87,2.87,0,0,1,.8-.41,3.46,3.46,0,0,1,1.07-.15,3.14,3.14,0,0,1,2.41,1,3.92,3.92,0,0,1,.92,2.78V517h-2.08v-6.05c0-1.57-.69-2.35-2-2.35a2.88,2.88,0,0,0-.78.1,2.43,2.43,0,0,0-.69.32,1.49,1.49,0,0,0-.49.54,1.47,1.47,0,0,0-.18.74V517Z"/><path class="cls-3" d="M588.82,517l-3.54-9.87h2.16l1.36,4.17,1.28,4h.12l1.28-4,1.35-4.17h2.09L591.38,517Z"/><path class="cls-3" d="M597.77,515.28h3.36v-6.46h-3.36v-1.7h5.45v8.16h3.15V517h-8.6Zm4.42-10a1.51,1.51,0,0,1-1.12-.33,1.09,1.09,0,0,1-.32-.8v-.4a1.09,1.09,0,0,1,.32-.8,1.48,1.48,0,0,1,1.1-.33,1.53,1.53,0,0,1,1.12.33,1.09,1.09,0,0,1,.31.8v.4a1.09,1.09,0,0,1-.31.8A1.49,1.49,0,0,1,602.19,505.32Z"/><path class="cls-3" d="M608.77,515.28h2.62v-6.46h-2.62v-1.7h4.7v2.62h.11a4.51,4.51,0,0,1,.39-1,2.85,2.85,0,0,1,.63-.83,2.75,2.75,0,0,1,.94-.57,3.44,3.44,0,0,1,1.3-.22H618v2h-1.95a2.63,2.63,0,0,0-1.87.67,2.35,2.35,0,0,0-.73,1.82v3.68h3.58V517h-8.28Z"/><path class="cls-3" d="M624.52,517.22a5.11,5.11,0,0,1-2-.37,4,4,0,0,1-1.47-1,4.73,4.73,0,0,1-.93-1.63,7.32,7.32,0,0,1,0-4.28,4.73,4.73,0,0,1,.93-1.63,4.07,4.07,0,0,1,1.47-1,5.11,5.11,0,0,1,2-.36,5.16,5.16,0,0,1,2,.36,4.16,4.16,0,0,1,1.47,1,4.73,4.73,0,0,1,.93,1.63,7.32,7.32,0,0,1,0,4.28,4.73,4.73,0,0,1-.93,1.63,4,4,0,0,1-1.47,1A5.16,5.16,0,0,1,624.52,517.22Zm0-1.65a2.41,2.41,0,0,0,1.83-.7,2.85,2.85,0,0,0,.68-2.07v-1.49a2.89,2.89,0,0,0-.68-2.08,2.73,2.73,0,0,0-3.65,0,2.89,2.89,0,0,0-.68,2.08v1.49a2.85,2.85,0,0,0,.68,2.07A2.4,2.4,0,0,0,624.52,515.57Z"/><path class="cls-3" d="M631.87,517v-9.87H634v1.68h.1a4,4,0,0,1,.39-.74,2.58,2.58,0,0,1,.58-.61,2.8,2.8,0,0,1,.81-.41,3.41,3.41,0,0,1,1.07-.15,3.16,3.16,0,0,1,2.41,1,3.92,3.92,0,0,1,.92,2.78V517h-2.09v-6.05c0-1.57-.68-2.35-2-2.35a3,3,0,0,0-.79.1,2.72,2.72,0,0,0-.69.32,1.7,1.7,0,0,0-.49.54,1.47,1.47,0,0,0-.18.74V517Z"/><path class="cls-3" d="M642.58,517v-9.87h1.78v1.28h.09a3.12,3.12,0,0,1,.66-1.07,1.94,1.94,0,0,1,2.45,0,2.07,2.07,0,0,1,.55,1.17h.07a3.29,3.29,0,0,1,.75-1.13,1.86,1.86,0,0,1,1.38-.47,1.67,1.67,0,0,1,1.59.8,4.92,4.92,0,0,1,.45,2.35V517h-1.78v-6.68a2.79,2.79,0,0,0-.25-1.42.86.86,0,0,0-.8-.4,1.14,1.14,0,0,0-.83.34,1.37,1.37,0,0,0-.34,1V517h-1.77v-6.68a2.93,2.93,0,0,0-.24-1.42.86.86,0,0,0-.8-.4,1.17,1.17,0,0,0-.85.34,1.37,1.37,0,0,0-.33,1V517Z"/><path class="cls-3" d="M659.16,517.22a5.44,5.44,0,0,1-2-.37,4,4,0,0,1-1.51-1,4.47,4.47,0,0,1-.93-1.62,6.44,6.44,0,0,1-.33-2.13,6.54,6.54,0,0,1,.33-2.14,5.07,5.07,0,0,1,.94-1.64,4,4,0,0,1,1.46-1,5,5,0,0,1,1.92-.36,4.69,4.69,0,0,1,1.87.35,4.08,4.08,0,0,1,1.44,1,4.53,4.53,0,0,1,.9,1.54,6,6,0,0,1,.32,2v.79h-7.08v.32a2.59,2.59,0,0,0,.73,1.89,2.68,2.68,0,0,0,2,.73,3,3,0,0,0,1.63-.41,3.1,3.1,0,0,0,1.1-1.09l1.3,1.15a4,4,0,0,1-1.52,1.46A5,5,0,0,1,659.16,517.22Zm-.15-8.74a2.7,2.7,0,0,0-1,.19,2.22,2.22,0,0,0-.8.54,2.74,2.74,0,0,0-.53.83,3,3,0,0,0-.19,1.06v.13h5V511a2.62,2.62,0,0,0-.66-1.87A2.32,2.32,0,0,0,659,508.48Z"/><path class="cls-3" d="M666.29,517v-9.87h2.09v1.68h.09a4.85,4.85,0,0,1,.4-.74,2.58,2.58,0,0,1,.58-.61,2.87,2.87,0,0,1,.8-.41,3.5,3.5,0,0,1,1.07-.15,3.14,3.14,0,0,1,2.41,1,3.87,3.87,0,0,1,.92,2.78V517h-2.08v-6.05c0-1.57-.68-2.35-2.05-2.35a2.88,2.88,0,0,0-.78.1,2.43,2.43,0,0,0-.69.32,1.49,1.49,0,0,0-.49.54,1.47,1.47,0,0,0-.18.74V517Z"/><path class="cls-3" d="M682.49,517a2.44,2.44,0,0,1-1.91-.7,2.62,2.62,0,0,1-.61-1.8v-5.67h-3v-1.7h2.16a1.14,1.14,0,0,0,.78-.22,1.06,1.06,0,0,0,.23-.8v-2.46h1.95v3.48h4.21v1.7h-4.21v6.46h4.21V517Z"/><path class="cls-3" d="M415.66,669.82h-.17v10.27h-1.88V666.74h2.76L420.29,677h.17V666.74h1.87v13.35h-2.75Z"/><path class="cls-3" d="M428,680.09l-3.77-13.35h2.31l1.76,6.74,1.17,4.53h.11l1.17-4.53,1.78-6.74h2.22l-3.77,13.35Z"/><path class="cls-3" d="M436.72,680.09v-1.62h3.13v-10.1h-3.13v-1.63h8.41v1.63H442v10.1h3.14v1.62Z"/><path class="cls-3" d="M448.23,666.74h4a4.35,4.35,0,0,1,3.79,1.71,10.58,10.58,0,0,1,0,9.94,4.34,4.34,0,0,1-3.79,1.7h-4Zm3.84,11.59a2.52,2.52,0,0,0,2.19-1,4.74,4.74,0,0,0,.72-2.82v-2.22a4.7,4.7,0,0,0-.72-2.82,2.53,2.53,0,0,0-2.19-1h-1.72v9.83Z"/><path class="cls-3" d="M459.67,680.09v-1.62h3.13v-10.1h-3.13v-1.63h8.41v1.63h-3.14v10.1h3.14v1.62Z"/><path class="cls-3" d="M478.45,680.09l-1-3.57h-4.24l-1,3.57H470l3.9-13.35h2.93l3.9,13.35Zm-3.06-11.19h-.16l-1.64,5.86H477Z"/><path class="cls-3" d="M494.09,680.09v-1.62h3.14v-10.1h-3.14v-1.63h8.42v1.63h-3.14v10.1h3.14v1.62Z"/><path class="cls-3" d="M509.79,680.32a6.8,6.8,0,0,1-2.76-.51,5.22,5.22,0,0,1-1.87-1.38l1.29-1.15a4.58,4.58,0,0,0,1.46,1.08,4.53,4.53,0,0,0,1.92.38,3.38,3.38,0,0,0,1.64-.35,1.15,1.15,0,0,0,.62-1.07,1.05,1.05,0,0,0-.12-.52.87.87,0,0,0-.32-.34,1.81,1.81,0,0,0-.49-.21,5.41,5.41,0,0,0-.58-.12l-1.57-.24a10.67,10.67,0,0,1-1.17-.25,4,4,0,0,1-1.06-.49,2.34,2.34,0,0,1-1.06-2.08,2.58,2.58,0,0,1,1.16-2.29,5.34,5.34,0,0,1,3.05-.79,6.17,6.17,0,0,1,2.38.42,4.61,4.61,0,0,1,1.67,1.13l-1.17,1.23a3.33,3.33,0,0,0-1.09-.81,4,4,0,0,0-1.87-.38c-1.39,0-2.08.44-2.08,1.32a.89.89,0,0,0,.44.87,3.06,3.06,0,0,0,1.07.32l1.56.25a9.52,9.52,0,0,1,1.18.25,3.32,3.32,0,0,1,1.05.46,2.63,2.63,0,0,1,.77.82,2.4,2.4,0,0,1,.29,1.26,2.75,2.75,0,0,1-1.15,2.34A5.3,5.3,0,0,1,509.79,680.32Z"/><path class="cls-3" d="M524.92,680.09a1.8,1.8,0,0,1-1.35-.46,2,2,0,0,1-.54-1.2h-.1a2.59,2.59,0,0,1-1,1.4,3.44,3.44,0,0,1-1.92.49,3.5,3.5,0,0,1-2.41-.79,2.77,2.77,0,0,1-.9-2.19,2.51,2.51,0,0,1,1.06-2.19,5.68,5.68,0,0,1,3.26-.76h1.89v-.76c0-1.34-.7-2-2.12-2a2.87,2.87,0,0,0-1.55.37,3.22,3.22,0,0,0-1,1L517,672a3.63,3.63,0,0,1,1.42-1.38,5,5,0,0,1,2.56-.59,4.46,4.46,0,0,1,2.95.9,3.22,3.22,0,0,1,1.07,2.6v5h1.24v1.64Zm-4.36-1.3a2.83,2.83,0,0,0,1.66-.45,1.38,1.38,0,0,0,.65-1.18v-1.43H521c-1.51,0-2.26.45-2.26,1.35v.38a1.13,1.13,0,0,0,.48,1A2.3,2.3,0,0,0,520.56,678.79Z"/><path class="cls-3" d="M536.4,680.09a1.8,1.8,0,0,1-1.35-.46,2,2,0,0,1-.55-1.2h-.09a2.55,2.55,0,0,1-1,1.4,3.42,3.42,0,0,1-1.92.49,3.5,3.5,0,0,1-2.41-.79,2.77,2.77,0,0,1-.9-2.19,2.53,2.53,0,0,1,1.06-2.19,5.72,5.72,0,0,1,3.27-.76h1.89v-.76c0-1.34-.71-2-2.12-2a2.85,2.85,0,0,0-1.55.37,3.26,3.26,0,0,0-1,1l-1.24-1a3.6,3.6,0,0,1,1.41-1.38,5,5,0,0,1,2.57-.59,4.42,4.42,0,0,1,2.94.9,3.19,3.19,0,0,1,1.07,2.6v5h1.25v1.64Zm-4.37-1.3a2.86,2.86,0,0,0,1.67-.45,1.4,1.4,0,0,0,.65-1.18v-1.43h-1.86q-2.25,0-2.25,1.35v.38a1.13,1.13,0,0,0,.48,1A2.25,2.25,0,0,0,532,678.79Z"/><path class="cls-3" d="M544.56,680.32a5.14,5.14,0,0,1-2-.36,4.07,4.07,0,0,1-1.47-1,4.56,4.56,0,0,1-.92-1.63,7.54,7.54,0,0,1,0-4.28,4.56,4.56,0,0,1,.92-1.63,4,4,0,0,1,1.47-1,5.11,5.11,0,0,1,2-.37,4.24,4.24,0,0,1,2.46.65,4,4,0,0,1,1.39,1.67l-1.63.88a2.43,2.43,0,0,0-.81-1.09,2.29,2.29,0,0,0-1.41-.4,2.33,2.33,0,0,0-1.83.72,2.72,2.72,0,0,0-.65,1.91V676a2.72,2.72,0,0,0,.65,1.9,2.35,2.35,0,0,0,1.87.73,2.51,2.51,0,0,0,1.5-.42,2.89,2.89,0,0,0,.93-1.15l1.53.94a4.05,4.05,0,0,1-1.45,1.68A4.52,4.52,0,0,1,544.56,680.32Z"/><path class="cls-3" d="M567,680.32a6.41,6.41,0,0,1-2.92-.6,5.61,5.61,0,0,1-2-1.62l1.37-1.32a5,5,0,0,0,1.63,1.35,4.24,4.24,0,0,0,2,.43,2.93,2.93,0,0,0,1.94-.57,2.08,2.08,0,0,0,.68-1.66,1.74,1.74,0,0,0-.5-1.34,3.35,3.35,0,0,0-1.7-.68l-1.45-.23a4.84,4.84,0,0,1-1.61-.51,3.41,3.41,0,0,1-1.05-.84,3,3,0,0,1-.58-1.09,4.07,4.07,0,0,1-.19-1.27,3.45,3.45,0,0,1,1.23-2.87,5.19,5.19,0,0,1,3.36-1A6.52,6.52,0,0,1,570,667a4.47,4.47,0,0,1,1.81,1.41l-1.34,1.33a4.7,4.7,0,0,0-1.31-1.08,3.92,3.92,0,0,0-1.87-.41,2.76,2.76,0,0,0-1.8.51,1.81,1.81,0,0,0-.62,1.5,1.75,1.75,0,0,0,.48,1.3,3.39,3.39,0,0,0,1.73.68l1.42.25a4.27,4.27,0,0,1,2.62,1.31,3.59,3.59,0,0,1,.82,2.4,4.37,4.37,0,0,1-.31,1.68,3.48,3.48,0,0,1-.94,1.3,4.67,4.67,0,0,1-1.53.83A7,7,0,0,1,567,680.32Z"/><path class="cls-3" d="M574.82,678.39h3.36v-6.46h-3.36v-1.71h5.45v8.17h3.15v1.7h-8.6Zm4.42-10a1.51,1.51,0,0,1-1.12-.33,1.11,1.11,0,0,1-.32-.8v-.4a1.13,1.13,0,0,1,.32-.81,1.52,1.52,0,0,1,1.1-.32,1.58,1.58,0,0,1,1.12.32,1.12,1.12,0,0,1,.31.81v.4a1.1,1.1,0,0,1-.31.8A1.49,1.49,0,0,1,579.24,668.43Z"/><path class="cls-3" d="M585.2,680.09v-9.87H587v1.29h.1a2.89,2.89,0,0,1,.66-1.08A1.65,1.65,0,0,1,589,670a1.69,1.69,0,0,1,1.22.43,2.13,2.13,0,0,1,.54,1.18h.08a3.4,3.4,0,0,1,.74-1.14,1.91,1.91,0,0,1,1.38-.47,1.68,1.68,0,0,1,1.6.81,4.89,4.89,0,0,1,.45,2.35v6.94H593.2v-6.67A3,3,0,0,0,593,672a.88.88,0,0,0-.8-.39,1.12,1.12,0,0,0-.84.34,1.35,1.35,0,0,0-.33,1v7.15H589.2v-6.67A3,3,0,0,0,589,672a.85.85,0,0,0-.79-.39,1.12,1.12,0,0,0-.85.34,1.32,1.32,0,0,0-.34,1v7.15Z"/><rect class="cls-1" x="399.74" y="20.23" width="356.06" height="213.89" rx="17.09"/><path class="cls-3" d="M415.33,52.33H413.2V39h5a3.81,3.81,0,0,1,2.91,1.07,4.11,4.11,0,0,1,1,2.94,4.06,4.06,0,0,1-.75,2.52,3.2,3.2,0,0,1-2.14,1.22l3.08,5.6h-2.37l-2.83-5.41h-1.78Zm2.56-7.11c1.33,0,2-.61,2-1.83v-.82c0-1.22-.66-1.83-2-1.83h-2.56v4.48Z"/><path class="cls-3" d="M429,52.56a5.44,5.44,0,0,1-2-.36,4.16,4.16,0,0,1-1.51-1,4.34,4.34,0,0,1-.93-1.61,6.44,6.44,0,0,1-.33-2.13,6.34,6.34,0,0,1,.34-2.15,4.82,4.82,0,0,1,.93-1.63,4,4,0,0,1,1.47-1,5.08,5.08,0,0,1,3.78,0,4.06,4.06,0,0,1,1.44,1,4.49,4.49,0,0,1,.9,1.55,5.73,5.73,0,0,1,.32,2v.78h-7.08v.33a2.59,2.59,0,0,0,.73,1.89,2.74,2.74,0,0,0,2,.73,3.11,3.11,0,0,0,1.63-.41,3.19,3.19,0,0,0,1.1-1.09l1.3,1.15A4,4,0,0,1,431.57,52,5.06,5.06,0,0,1,429,52.56Zm-.15-8.74a2.7,2.7,0,0,0-1,.19,2.24,2.24,0,0,0-.8.55,2.44,2.44,0,0,0-.52.83,2.77,2.77,0,0,0-.2,1v.13h5v-.19a2.6,2.6,0,0,0-.66-1.86A2.29,2.29,0,0,0,428.87,43.82Z"/><path class="cls-3" d="M436.48,50.63h3.37V44.16h-3.37v-1.7h5.45v8.17h3.16v1.7h-8.61Zm4.42-10a1.52,1.52,0,0,1-1.12-.32,1.13,1.13,0,0,1-.32-.8v-.41a1.13,1.13,0,0,1,.32-.8,1.49,1.49,0,0,1,1.1-.32,1.53,1.53,0,0,1,1.12.32,1.12,1.12,0,0,1,.31.8v.41a1.12,1.12,0,0,1-.31.8A1.49,1.49,0,0,1,440.9,40.66Z"/><path class="cls-3" d="M447.63,52.33V42.46h2.08v1.69h.1a3.49,3.49,0,0,1,.39-.74,2.44,2.44,0,0,1,.59-.61,2.42,2.42,0,0,1,.8-.41,3.13,3.13,0,0,1,1.07-.16,3.16,3.16,0,0,1,2.41,1A3.89,3.89,0,0,1,456,46v6.35H453.9v-6c0-1.57-.68-2.36-2-2.36a3,3,0,0,0-.79.11,2.42,2.42,0,0,0-.69.32,1.53,1.53,0,0,0-.48.53,1.44,1.44,0,0,0-.19.75v6.69Z"/><path class="cls-3" d="M459,50.63h3.16V44.16H458.8v-1.7h3.35V40.68a2.6,2.6,0,0,1,.61-1.8,2.39,2.39,0,0,1,1.91-.7H468v1.7h-3.77v2.58H468v1.7h-3.77v6.47h3.33v1.7H459Z"/><path class="cls-3" d="M474.71,52.56a5.07,5.07,0,0,1-2-.36,4.09,4.09,0,0,1-1.47-1,4.59,4.59,0,0,1-.93-1.62,7.35,7.35,0,0,1,0-4.29,4.78,4.78,0,0,1,.93-1.62,4,4,0,0,1,1.47-1,5.38,5.38,0,0,1,3.92,0,4,4,0,0,1,1.47,1,4.62,4.62,0,0,1,.93,1.62,7.14,7.14,0,0,1,0,4.29,4.45,4.45,0,0,1-.93,1.62,4.09,4.09,0,0,1-1.47,1A5.07,5.07,0,0,1,474.71,52.56Zm0-1.64a2.46,2.46,0,0,0,1.83-.7,2.89,2.89,0,0,0,.68-2.08V46.65a2.85,2.85,0,0,0-.68-2.07,2.74,2.74,0,0,0-3.66,0,2.85,2.85,0,0,0-.67,2.07v1.49a2.89,2.89,0,0,0,.67,2.08A2.48,2.48,0,0,0,474.71,50.92Z"/><path class="cls-3" d="M481.9,50.63h2.62V44.16H481.9v-1.7h4.71v2.62h.11a5.18,5.18,0,0,1,.38-1,2.92,2.92,0,0,1,.64-.83,2.89,2.89,0,0,1,.93-.58,3.69,3.69,0,0,1,1.3-.22h1.19v2h-2a2.66,2.66,0,0,0-1.88.68,2.38,2.38,0,0,0-.72,1.82v3.68h3.57v1.7H481.9Z"/><path class="cls-3" d="M498,52.56a5.14,5.14,0,0,1-2-.36,4.09,4.09,0,0,1-1.47-1,4.43,4.43,0,0,1-.92-1.62,7.58,7.58,0,0,1,0-4.29,4.6,4.6,0,0,1,.92-1.62,4,4,0,0,1,1.47-1,4.94,4.94,0,0,1,2-.37,4.23,4.23,0,0,1,2.45.65,3.91,3.91,0,0,1,1.39,1.67l-1.63.88a2.31,2.31,0,0,0-.81-1.09,2.28,2.28,0,0,0-1.4-.41,2.34,2.34,0,0,0-1.84.73,2.75,2.75,0,0,0-.65,1.91v1.65a2.78,2.78,0,0,0,.65,1.91,2.4,2.4,0,0,0,1.87.73,2.47,2.47,0,0,0,1.5-.42,3,3,0,0,0,.93-1.15l1.53.94a4.11,4.11,0,0,1-1.45,1.68A4.5,4.5,0,0,1,498,52.56Z"/><path class="cls-3" d="M509.35,52.56a5.4,5.4,0,0,1-2-.36,4.16,4.16,0,0,1-1.51-1,4.5,4.5,0,0,1-.94-1.61,6.44,6.44,0,0,1-.32-2.13,6.6,6.6,0,0,1,.33-2.15,4.84,4.84,0,0,1,.94-1.63,4,4,0,0,1,1.46-1,5.1,5.1,0,0,1,3.79,0,3.93,3.93,0,0,1,1.43,1,4.35,4.35,0,0,1,.91,1.55,6,6,0,0,1,.32,2v.78h-7.08v.33a2.55,2.55,0,0,0,.73,1.89,2.71,2.71,0,0,0,2,.73,3.14,3.14,0,0,0,1.64-.41,3.28,3.28,0,0,0,1.1-1.09l1.3,1.15A4.12,4.12,0,0,1,511.9,52,5.06,5.06,0,0,1,509.35,52.56Zm-.16-8.74a2.61,2.61,0,0,0-1,.19,2.24,2.24,0,0,0-.8.55,2.46,2.46,0,0,0-.53.83,2.76,2.76,0,0,0-.19,1v.13h5v-.19a2.6,2.6,0,0,0-.66-1.86A2.28,2.28,0,0,0,509.19,43.82Z"/><path class="cls-3" d="M515.72,52.33V42.46h1.77v1.28h.1a2.93,2.93,0,0,1,.66-1.07,1.94,1.94,0,0,1,2.45,0,2.06,2.06,0,0,1,.54,1.18h.08a3.36,3.36,0,0,1,.74-1.14,1.91,1.91,0,0,1,1.38-.47A1.67,1.67,0,0,1,525,43a4.89,4.89,0,0,1,.45,2.35v6.94h-1.78V45.66a2.84,2.84,0,0,0-.25-1.43.87.87,0,0,0-.8-.39,1.13,1.13,0,0,0-.83.33,1.36,1.36,0,0,0-.34,1v7.15h-1.78V45.66a3,3,0,0,0-.24-1.43.85.85,0,0,0-.79-.39,1.16,1.16,0,0,0-.85.33,1.4,1.4,0,0,0-.34,1v7.15Z"/><path class="cls-3" d="M532.3,52.56a5.4,5.4,0,0,1-2-.36,4.16,4.16,0,0,1-1.51-1,4.5,4.5,0,0,1-.94-1.61,6.44,6.44,0,0,1-.32-2.13,6.6,6.6,0,0,1,.33-2.15,4.84,4.84,0,0,1,.94-1.63,4,4,0,0,1,1.46-1,5.1,5.1,0,0,1,3.79,0,3.93,3.93,0,0,1,1.43,1,4.35,4.35,0,0,1,.91,1.55,6,6,0,0,1,.32,2v.78H529.6v.33a2.55,2.55,0,0,0,.73,1.89,2.71,2.71,0,0,0,2,.73,3.14,3.14,0,0,0,1.64-.41,3.28,3.28,0,0,0,1.1-1.09l1.3,1.15A4.12,4.12,0,0,1,534.85,52,5.06,5.06,0,0,1,532.3,52.56Zm-.16-8.74a2.61,2.61,0,0,0-1,.19,2.24,2.24,0,0,0-.8.55,2.46,2.46,0,0,0-.53.83,2.76,2.76,0,0,0-.19,1v.13h4.95v-.19a2.6,2.6,0,0,0-.66-1.86A2.28,2.28,0,0,0,532.14,43.82Z"/><path class="cls-3" d="M539.43,52.33V42.46h2.08v1.69h.1a3.49,3.49,0,0,1,.39-.74,2.44,2.44,0,0,1,.59-.61,2.52,2.52,0,0,1,.8-.41,3.51,3.51,0,0,1,3.48.82,3.89,3.89,0,0,1,.92,2.77v6.35H545.7v-6c0-1.57-.68-2.36-2-2.36a3,3,0,0,0-.79.11,2.42,2.42,0,0,0-.69.32,1.53,1.53,0,0,0-.48.53,1.55,1.55,0,0,0-.19.75v6.69Z"/><path class="cls-3" d="M555.63,52.33a2.38,2.38,0,0,1-1.91-.7,2.61,2.61,0,0,1-.62-1.8V44.16h-3v-1.7h2.17a1.1,1.1,0,0,0,.78-.22,1.08,1.08,0,0,0,.23-.79V39h2v3.48h4.21v1.7h-4.21v6.47h4.21v1.7Z"/><path class="cls-3" d="M574.31,52.33V39h2.15V50.53h6.08v1.8Z"/><path class="cls-3" d="M589.67,52.56a5.44,5.44,0,0,1-2-.36,4.25,4.25,0,0,1-1.51-1,4.48,4.48,0,0,1-.93-1.61,6.44,6.44,0,0,1-.33-2.13,6.34,6.34,0,0,1,.34-2.15,4.82,4.82,0,0,1,.93-1.63,4,4,0,0,1,1.47-1,5.08,5.08,0,0,1,3.78,0,4.06,4.06,0,0,1,1.44,1,4.51,4.51,0,0,1,.91,1.55,6,6,0,0,1,.31,2v.78H587v.33a2.59,2.59,0,0,0,.72,1.89,2.75,2.75,0,0,0,2,.73,3.17,3.17,0,0,0,1.64-.41,3.37,3.37,0,0,0,1.1-1.09l1.3,1.15A4.19,4.19,0,0,1,592.23,52,5.13,5.13,0,0,1,589.67,52.56Zm-.15-8.74a2.61,2.61,0,0,0-1,.19,2.28,2.28,0,0,0-.81.55,2.44,2.44,0,0,0-.52.83,2.76,2.76,0,0,0-.19,1v.13h4.95v-.19a2.6,2.6,0,0,0-.66-1.86A2.28,2.28,0,0,0,589.52,43.82Z"/><path class="cls-3" d="M604.61,52.33a1.8,1.8,0,0,1-1.35-.46,2,2,0,0,1-.54-1.2h-.1a2.53,2.53,0,0,1-1,1.39,4,4,0,0,1-4.33-.29,2.77,2.77,0,0,1-.9-2.19,2.51,2.51,0,0,1,1.06-2.19,5.6,5.6,0,0,1,3.26-.76h1.89v-.76c0-1.34-.71-2-2.12-2a2.87,2.87,0,0,0-1.55.37,3.22,3.22,0,0,0-1,1l-1.25-1a3.63,3.63,0,0,1,1.42-1.38,5,5,0,0,1,2.56-.59,4.46,4.46,0,0,1,3,.9,3.22,3.22,0,0,1,1.07,2.6v5h1.24v1.64ZM600.25,51a2.78,2.78,0,0,0,1.66-.46,1.35,1.35,0,0,0,.65-1.17V48h-1.85c-1.51,0-2.26.45-2.26,1.35v.38a1.14,1.14,0,0,0,.48,1A2.3,2.3,0,0,0,600.25,51Z"/><path class="cls-3" d="M608.13,50.63h2.62V44.16h-2.62v-1.7h4.7v2.62H613a4.59,4.59,0,0,1,.38-1,3.08,3.08,0,0,1,.63-.83,3,3,0,0,1,.94-.58,3.65,3.65,0,0,1,1.3-.22h1.18v2h-2a2.64,2.64,0,0,0-1.87.68,2.35,2.35,0,0,0-.73,1.82v3.68h3.58v1.7h-8.28Z"/><path class="cls-3" d="M619.76,52.33V42.46h2.08v1.69h.1a3.49,3.49,0,0,1,.39-.74,2.4,2.4,0,0,1,.58-.61,2.63,2.63,0,0,1,.8-.41,3.23,3.23,0,0,1,1.08-.16,3.18,3.18,0,0,1,2.41,1,3.89,3.89,0,0,1,.91,2.77v6.35H626v-6c0-1.57-.68-2.36-2-2.36a2.88,2.88,0,0,0-.78.11,2.19,2.19,0,0,0-.69.32,1.56,1.56,0,0,0-.49.53,1.54,1.54,0,0,0-.18.75v6.69Z"/><path class="cls-3" d="M631.56,50.63h3.36V44.16h-3.36v-1.7H637v8.17h3.15v1.7h-8.6Zm4.41-10a1.5,1.5,0,0,1-1.11-.32,1.09,1.09,0,0,1-.32-.8v-.41a1.09,1.09,0,0,1,.32-.8A1.48,1.48,0,0,1,636,38a1.5,1.5,0,0,1,1.11.32,1.13,1.13,0,0,1,.32.8v.41a1.13,1.13,0,0,1-.32.8A1.48,1.48,0,0,1,636,40.66Z"/><path class="cls-3" d="M642.71,52.33V42.46h2.08v1.69h.1a3.49,3.49,0,0,1,.39-.74,2.4,2.4,0,0,1,.58-.61,2.57,2.57,0,0,1,.81-.41,3.13,3.13,0,0,1,1.07-.16,3.18,3.18,0,0,1,2.41,1,3.89,3.89,0,0,1,.91,2.77v6.35H649v-6c0-1.57-.68-2.36-2.05-2.36a2.94,2.94,0,0,0-.78.11,2.19,2.19,0,0,0-.69.32,1.56,1.56,0,0,0-.49.53,1.54,1.54,0,0,0-.18.75v6.69Z"/><path class="cls-3" d="M663.48,53.4a2.42,2.42,0,0,1-1.29,2.26,8.17,8.17,0,0,1-3.9.73,11.77,11.77,0,0,1-2.15-.17,4.47,4.47,0,0,1-1.41-.47,1.9,1.9,0,0,1-.79-.74,2.08,2.08,0,0,1-.24-1,1.69,1.69,0,0,1,.45-1.25,2.74,2.74,0,0,1,1.27-.66v-.19a2,2,0,0,1-.79-.54,1.3,1.3,0,0,1-.3-.89,1.28,1.28,0,0,1,.5-1.1,3.52,3.52,0,0,1,1.28-.57v-.09a3.25,3.25,0,0,1-1.39-1.19,3.31,3.31,0,0,1-.5-1.84,3.47,3.47,0,0,1,.29-1.42,3,3,0,0,1,.81-1.09,3.84,3.84,0,0,1,1.26-.7,5.31,5.31,0,0,1,1.66-.25,5,5,0,0,1,1.85.33v-.33a1.39,1.39,0,0,1,.33-.95,1.2,1.2,0,0,1,1-.39h1.8v1.65h-2.3V43a2.84,2.84,0,0,1,1,1.12,3.42,3.42,0,0,1,.34,1.57,3.48,3.48,0,0,1-.28,1.43,3.17,3.17,0,0,1-.82,1.09,3.65,3.65,0,0,1-1.26.69,5.3,5.3,0,0,1-1.65.24A6,6,0,0,1,657,49a2.41,2.41,0,0,0-.69.33A.71.71,0,0,0,656,50a.54.54,0,0,0,.44.57,4.21,4.21,0,0,0,1.09.12h2.22a4.43,4.43,0,0,1,2.87.75A2.52,2.52,0,0,1,663.48,53.4Zm-2,.13a.93.93,0,0,0-.41-.8,2.52,2.52,0,0,0-1.45-.3h-3.42a1.15,1.15,0,0,0-.73,1.11,1.25,1.25,0,0,0,.47,1,2.38,2.38,0,0,0,1.56.4h1.55a3.75,3.75,0,0,0,1.8-.35A1.14,1.14,0,0,0,661.53,53.53Zm-3.29-5.83a2,2,0,0,0,1.49-.48,1.7,1.7,0,0,0,.48-1.28v-.51a1.7,1.7,0,0,0-.48-1.28,2.57,2.57,0,0,0-3,0,1.74,1.74,0,0,0-.47,1.28v.51a1.74,1.74,0,0,0,.47,1.28A2,2,0,0,0,658.24,47.7Z"/><path class="cls-3" d="M417.22,215.67a6.32,6.32,0,0,1-2.93-.61,5.59,5.59,0,0,1-2-1.61l1.38-1.32a5.17,5.17,0,0,0,1.63,1.35,4.37,4.37,0,0,0,1.95.43,2.88,2.88,0,0,0,1.94-.58,2.06,2.06,0,0,0,.68-1.66,1.75,1.75,0,0,0-.5-1.33,3.26,3.26,0,0,0-1.7-.69l-1.46-.23a5.11,5.11,0,0,1-1.6-.5,3.47,3.47,0,0,1-1.05-.84A3.13,3.13,0,0,1,413,207a4.43,4.43,0,0,1-.18-1.27,3.5,3.5,0,0,1,1.22-2.88,5.28,5.28,0,0,1,3.37-1,6.69,6.69,0,0,1,2.71.5,4.44,4.44,0,0,1,1.8,1.41l-1.33,1.34A4.38,4.38,0,0,0,419.3,204a4,4,0,0,0-1.87-.41,2.81,2.81,0,0,0-1.81.51,1.83,1.83,0,0,0-.62,1.49,1.7,1.7,0,0,0,.49,1.3,3.31,3.31,0,0,0,1.73.69l1.42.24a4.35,4.35,0,0,1,2.62,1.31,3.67,3.67,0,0,1,.82,2.4,4.37,4.37,0,0,1-.32,1.68,3.45,3.45,0,0,1-.93,1.3,4.5,4.5,0,0,1-1.53.83A6.65,6.65,0,0,1,417.22,215.67Z"/><path class="cls-3" d="M429.4,215.44a2.41,2.41,0,0,1-1.91-.7,2.6,2.6,0,0,1-.61-1.8v-5.67h-3v-1.7H426a1.09,1.09,0,0,0,.78-.22,1.05,1.05,0,0,0,.23-.79v-2.47H429v3.48h4.21v1.7H429v6.47h4.21v1.7Z"/><path class="cls-3" d="M444,215.44a1.84,1.84,0,0,1-1.35-.46,2.09,2.09,0,0,1-.55-1.21H442a2.55,2.55,0,0,1-1,1.4,3.48,3.48,0,0,1-1.93.5,3.52,3.52,0,0,1-2.41-.8,2.77,2.77,0,0,1-.9-2.19,2.54,2.54,0,0,1,1.07-2.19,5.67,5.67,0,0,1,3.26-.75h1.89V209c0-1.34-.71-2-2.12-2a2.85,2.85,0,0,0-1.55.37,3.34,3.34,0,0,0-1,1l-1.24-1a3.52,3.52,0,0,1,1.42-1.39,5,5,0,0,1,2.56-.58,4.42,4.42,0,0,1,2.94.9,3.18,3.18,0,0,1,1.08,2.6v4.95h1.24v1.65Zm-4.36-1.3a2.78,2.78,0,0,0,1.66-.46,1.39,1.39,0,0,0,.65-1.18v-1.42h-1.85c-1.51,0-2.26.45-2.26,1.35v.38a1.12,1.12,0,0,0,.48,1A2.23,2.23,0,0,0,439.6,214.14Z"/><path class="cls-3" d="M447.53,201.28h2.09v6h.11a3.62,3.62,0,0,1,1.17-1.4,3.08,3.08,0,0,1,1.82-.51,3.35,3.35,0,0,1,2.77,1.3,7.77,7.77,0,0,1,0,7.73,3.37,3.37,0,0,1-2.77,1.3,3.08,3.08,0,0,1-1.82-.51,3.77,3.77,0,0,1-1.17-1.4h-.11v1.68h-2.09ZM451.86,214a2.3,2.3,0,0,0,1.82-.73,2.81,2.81,0,0,0,.64-1.93V209.7a2.79,2.79,0,0,0-.64-1.93,2.27,2.27,0,0,0-1.82-.73,2.93,2.93,0,0,0-.86.12,2,2,0,0,0-.71.34,1.64,1.64,0,0,0-.49.56,1.69,1.69,0,0,0-.18.8v3.29a1.65,1.65,0,0,0,.18.79,1.68,1.68,0,0,0,.49.57,2.23,2.23,0,0,0,.71.34A2.93,2.93,0,0,0,451.86,214Z"/><path class="cls-3" d="M458.93,213.74h3.27V203h-3.27v-1.71h5.36v12.46h3.27v1.7h-8.63Z"/><path class="cls-3" d="M474.92,215.67a5.25,5.25,0,0,1-2-.37,4,4,0,0,1-1.51-1,4.39,4.39,0,0,1-.93-1.62,6.44,6.44,0,0,1-.33-2.13,6.28,6.28,0,0,1,.34-2.14,4.73,4.73,0,0,1,.93-1.63,4,4,0,0,1,1.47-1.05,5.21,5.21,0,0,1,3.78,0,4.08,4.08,0,0,1,1.44,1,4.67,4.67,0,0,1,.91,1.55,6,6,0,0,1,.31,2V211h-7.08v.32a2.56,2.56,0,0,0,.73,1.89,2.7,2.7,0,0,0,2,.74,3.11,3.11,0,0,0,1.63-.41,3.22,3.22,0,0,0,1.1-1.1l1.3,1.15a3.9,3.9,0,0,1-1.52,1.46A5,5,0,0,1,474.92,215.67Zm-.15-8.74a2.7,2.7,0,0,0-1,.19,2.36,2.36,0,0,0-.8.54,2.58,2.58,0,0,0-.52.84,2.69,2.69,0,0,0-.2,1.05v.13h5v-.19a2.58,2.58,0,0,0-.66-1.86A2.29,2.29,0,0,0,474.77,206.93Z"/><path class="cls-3" d="M493.51,202.09h4.61a4,4,0,0,1,2.82.94,3.31,3.31,0,0,1,1,2.56,2.8,2.8,0,0,1-.57,1.85,3.08,3.08,0,0,1-1.55,1v.09a3.61,3.61,0,0,1,1.88,1,3,3,0,0,1,.7,2.13,4.31,4.31,0,0,1-.26,1.51,3.58,3.58,0,0,1-.77,1.2,3.47,3.47,0,0,1-1.19.78,4.06,4.06,0,0,1-1.54.28h-5.13Zm4.17,5.74a2.48,2.48,0,0,0,1.54-.4,1.52,1.52,0,0,0,.53-1.31v-.69a1.55,1.55,0,0,0-.53-1.31,2.55,2.55,0,0,0-1.54-.39h-2.07v4.1Zm.31,6a2.6,2.6,0,0,0,1.64-.44,1.66,1.66,0,0,0,.57-1.41v-.69a1.69,1.69,0,0,0-.57-1.42,2.67,2.67,0,0,0-1.64-.44h-2.38v4.4Z"/><path class="cls-3" d="M512.81,215.44a1.84,1.84,0,0,1-1.35-.46,2.09,2.09,0,0,1-.55-1.21h-.09a2.55,2.55,0,0,1-1,1.4,3.48,3.48,0,0,1-1.93.5,3.52,3.52,0,0,1-2.41-.8,2.76,2.76,0,0,1-.89-2.19,2.53,2.53,0,0,1,1.06-2.19,5.67,5.67,0,0,1,3.26-.75h1.89V209c0-1.34-.71-2-2.12-2a2.85,2.85,0,0,0-1.55.37,3.34,3.34,0,0,0-1,1l-1.24-1a3.52,3.52,0,0,1,1.42-1.39,5,5,0,0,1,2.56-.58,4.46,4.46,0,0,1,2.95.9,3.21,3.21,0,0,1,1.07,2.6v4.95h1.24v1.65Zm-4.36-1.3a2.78,2.78,0,0,0,1.66-.46,1.39,1.39,0,0,0,.65-1.18v-1.42h-1.85c-1.51,0-2.26.45-2.26,1.35v.38a1.12,1.12,0,0,0,.48,1A2.23,2.23,0,0,0,508.45,214.14Z"/><path class="cls-3" d="M520.63,215.67a6.63,6.63,0,0,1-2.76-.52,4.84,4.84,0,0,1-1.87-1.38l1.28-1.14a4.62,4.62,0,0,0,1.47,1.08,4.54,4.54,0,0,0,1.92.37,3.35,3.35,0,0,0,1.63-.34,1.15,1.15,0,0,0,.63-1.08,1,1,0,0,0-.12-.51,1,1,0,0,0-.32-.35,2,2,0,0,0-.49-.21,3.63,3.63,0,0,0-.59-.11l-1.56-.25a7,7,0,0,1-1.17-.25,3.56,3.56,0,0,1-1.06-.49,2.59,2.59,0,0,1-.77-.81,2.5,2.5,0,0,1-.29-1.26,2.61,2.61,0,0,1,1.15-2.3,5.37,5.37,0,0,1,3-.78,6.3,6.3,0,0,1,2.38.41,4.67,4.67,0,0,1,1.68,1.14l-1.17,1.22a3.77,3.77,0,0,0-1.09-.81,4,4,0,0,0-1.87-.37c-1.39,0-2.09.44-2.09,1.32a.9.9,0,0,0,.45.87,3.06,3.06,0,0,0,1.06.31l1.57.25a11.78,11.78,0,0,1,1.18.25,3.34,3.34,0,0,1,1,.47,2.59,2.59,0,0,1,.77.81,2.5,2.5,0,0,1,.29,1.26,2.74,2.74,0,0,1-1.16,2.35A5.31,5.31,0,0,1,520.63,215.67Z"/><path class="cls-3" d="M532.3,215.67a5.21,5.21,0,0,1-2-.37,4,4,0,0,1-1.51-1,4.55,4.55,0,0,1-.94-1.62,6.44,6.44,0,0,1-.32-2.13,6.54,6.54,0,0,1,.33-2.14,4.75,4.75,0,0,1,.94-1.63,4,4,0,0,1,1.46-1.05,5.24,5.24,0,0,1,3.79,0,4,4,0,0,1,1.43,1,4.35,4.35,0,0,1,.91,1.55,6,6,0,0,1,.32,2V211H529.6v.32a2.52,2.52,0,0,0,.73,1.89,2.68,2.68,0,0,0,2,.74,3.14,3.14,0,0,0,1.64-.41,3.31,3.31,0,0,0,1.1-1.1l1.3,1.15a4,4,0,0,1-1.52,1.46A5,5,0,0,1,532.3,215.67Zm-.16-8.74a2.61,2.61,0,0,0-1,.19,2.36,2.36,0,0,0-.8.54,2.61,2.61,0,0,0-.53.84,2.69,2.69,0,0,0-.19,1.05v.13h4.95v-.19a2.58,2.58,0,0,0-.66-1.86A2.28,2.28,0,0,0,532.14,206.93Z"/><path class="cls-3" d="M539.26,213.74h3.27V203h-3.27v-1.71h5.35v12.46h3.27v1.7h-8.62Z"/><path class="cls-3" d="M551.23,213.74h3.37v-6.47h-3.37v-1.7h5.45v8.17h3.16v1.7h-8.61Zm4.42-10a1.56,1.56,0,0,1-1.12-.32,1.13,1.13,0,0,1-.32-.81v-.4a1.09,1.09,0,0,1,.32-.8,1.49,1.49,0,0,1,1.1-.33,1.53,1.53,0,0,1,1.12.33,1.09,1.09,0,0,1,.31.8v.4a1.12,1.12,0,0,1-.31.81A1.54,1.54,0,0,1,555.65,203.77Z"/><path class="cls-3" d="M562.38,215.44v-9.87h2.09v1.68h.09a3.67,3.67,0,0,1,.39-.73,2.67,2.67,0,0,1,.59-.62,2.74,2.74,0,0,1,.8-.41,3.46,3.46,0,0,1,1.07-.15,3.13,3.13,0,0,1,2.41,1,3.89,3.89,0,0,1,.92,2.77v6.35h-2.09v-6.05c0-1.56-.68-2.35-2-2.35a3,3,0,0,0-.79.11,2.39,2.39,0,0,0-.69.31,1.56,1.56,0,0,0-.48.54,1.47,1.47,0,0,0-.18.74v6.7Z"/><path class="cls-3" d="M578.2,215.67a5.21,5.21,0,0,1-2-.37,4,4,0,0,1-1.51-1,4.55,4.55,0,0,1-.94-1.62,6.44,6.44,0,0,1-.32-2.13,6.54,6.54,0,0,1,.33-2.14,4.75,4.75,0,0,1,.94-1.63,4,4,0,0,1,1.46-1.05,5.24,5.24,0,0,1,3.79,0,4,4,0,0,1,1.43,1,4.35,4.35,0,0,1,.91,1.55,6,6,0,0,1,.32,2V211H575.5v.32a2.52,2.52,0,0,0,.73,1.89,2.69,2.69,0,0,0,2,.74,3.13,3.13,0,0,0,1.63-.41,3.31,3.31,0,0,0,1.1-1.1l1.3,1.15a4,4,0,0,1-1.52,1.46A5,5,0,0,1,578.2,215.67Zm-.16-8.74a2.61,2.61,0,0,0-1,.19,2.36,2.36,0,0,0-.8.54,2.61,2.61,0,0,0-.53.84,2.69,2.69,0,0,0-.19,1.05v.13h5v-.19a2.58,2.58,0,0,0-.66-1.86A2.28,2.28,0,0,0,578,206.93Z"/><path class="cls-3" d="M589.48,215.67a6.63,6.63,0,0,1-2.76-.52,4.91,4.91,0,0,1-1.87-1.38l1.28-1.14a4.62,4.62,0,0,0,1.47,1.08,4.54,4.54,0,0,0,1.92.37,3.35,3.35,0,0,0,1.63-.34,1.15,1.15,0,0,0,.63-1.08,1,1,0,0,0-.12-.51,1,1,0,0,0-.32-.35,1.81,1.81,0,0,0-.49-.21,3.63,3.63,0,0,0-.59-.11l-1.56-.25a7.2,7.2,0,0,1-1.17-.25,3.56,3.56,0,0,1-1.06-.49,2.59,2.59,0,0,1-.77-.81,2.5,2.5,0,0,1-.29-1.26,2.61,2.61,0,0,1,1.15-2.3,5.39,5.39,0,0,1,3.05-.78,6.39,6.39,0,0,1,2.39.41,4.72,4.72,0,0,1,1.67,1.14l-1.17,1.22a3.77,3.77,0,0,0-1.09-.81,4,4,0,0,0-1.87-.37c-1.39,0-2.09.44-2.09,1.32a.9.9,0,0,0,.45.87,3.06,3.06,0,0,0,1.06.31l1.57.25a11.78,11.78,0,0,1,1.18.25,3.34,3.34,0,0,1,1,.47,2.59,2.59,0,0,1,.77.81,2.5,2.5,0,0,1,.29,1.26,2.74,2.74,0,0,1-1.16,2.35A5.31,5.31,0,0,1,589.48,215.67Z"/><path class="cls-3" d="M608.28,215.44V202.09h5a3.78,3.78,0,0,1,2.92,1.07,4.81,4.81,0,0,1,0,5.87,3.78,3.78,0,0,1-2.92,1.07h-2.85v5.34Zm2.14-7.1H613c1.32,0,2-.61,2-1.84v-.83c0-1.21-.67-1.82-2-1.82h-2.53Z"/><path class="cls-3" d="M619.76,215.44V202.09h5a3.78,3.78,0,0,1,2.91,1.07,4.77,4.77,0,0,1,0,5.87,3.78,3.78,0,0,1-2.91,1.07H621.9v5.34Zm2.14-7.1h2.52c1.33,0,2-.61,2-1.84v-.83c0-1.21-.66-1.82-2-1.82H621.9Z"/><path class="cls-3" d="M635.36,215.67a4.84,4.84,0,0,1-2.19-.47,4,4,0,0,1-1.53-1.35,6.24,6.24,0,0,1-.89-2.16,15.37,15.37,0,0,1,0-5.84,6.14,6.14,0,0,1,.89-2.17,4,4,0,0,1,1.53-1.35,5.34,5.34,0,0,1,4.38,0,4,4,0,0,1,1.53,1.35,6.14,6.14,0,0,1,.89,2.17,14.85,14.85,0,0,1,0,5.84,6.24,6.24,0,0,1-.89,2.16,4,4,0,0,1-1.53,1.35A4.84,4.84,0,0,1,635.36,215.67Zm0-1.76a2.12,2.12,0,0,0,2-1.09,6.2,6.2,0,0,0,.59-2.94v-2.25a6.22,6.22,0,0,0-.59-2.93,2.45,2.45,0,0,0-4.06,0,6.22,6.22,0,0,0-.59,2.93v2.27a6.17,6.17,0,0,0,.59,2.92A2.13,2.13,0,0,0,635.36,213.91Z"/><path class="cls-3" d="M532.22,113.5a4.66,4.66,0,0,1,1-.21q5.47,0,10.95,0c1.12,0,1.28.21,1.15,1.31s-.27,2-.43,3.08a4.24,4.24,0,0,1-.32.81c-.09-1-.1-1.66-.22-2.32-.23-1.35-.68-1.88-2-2a48.83,48.83,0,0,0-5.41-.07,1.52,1.52,0,0,0-1,1c-.49,1.59-.83,3.22-1.24,4.83-.19.72.05,1.07.8,1.06s1.25,0,1.87,0a2.41,2.41,0,0,0,2.44-1.89,1.08,1.08,0,0,1,.21-.33s.06,0,.26,0a14.69,14.69,0,0,1-1.41,5.39,4.52,4.52,0,0,1-.12-.64c0-1.33-.34-1.77-1.69-1.78-2.84,0-2.77-.56-3.41,2.43-.3,1.43-.69,2.83-1.05,4.24-.14.56,0,1,.64,1,1.94-.05,3.88-.07,5.81-.27s2.9-1.6,3.69-3.18c.28-.57.59-1.13,1-2,.1.41.18.55.14.64-.66,1.63-1.31,3.27-2,4.88a1.19,1.19,0,0,1-.91.53c-4.06,0-8.13,0-12.19,0-.15,0-.3-.09-.48-.4a6.45,6.45,0,0,1,1-.25,1.5,1.5,0,0,0,1.45-1.26l2.61-10.4c.18-.73.35-1.48.57-2.21.27-.89.1-1.43-1-1.43a2.43,2.43,0,0,1-.64-.22Z"/><path class="cls-3" d="M483.07,117.66a16.21,16.21,0,0,1-4,10.44,6.7,6.7,0,0,1-1.79,1.38,2.48,2.48,0,0,1-3.72-1.63,12.24,12.24,0,0,1,.81-8.71,24.79,24.79,0,0,1,3.07-5,3.23,3.23,0,0,1,3.46-1.42c1.62.44,1.83,1.94,2.14,3.28A7.66,7.66,0,0,1,483.07,117.66Zm-1.32-1.41-.13,0v-.31c0-1,.1-2.34-1-2.72s-2.05.73-2.54,1.7c-.83,1.66-1.48,3.42-2.18,5.14-.26.66.09.9.7.91,1.15,0,2.3.06,3.44,0a1.39,1.39,0,0,0,1-.79C481.34,118.85,481.51,117.55,481.75,116.25ZM478,121.62a7.37,7.37,0,0,0-1.76,0c-.39.09-1,.47-1,.79a33.15,33.15,0,0,0-.53,5,2.38,2.38,0,0,0,1,1.76c.74.44,1.42-.23,1.95-.81a2.19,2.19,0,0,0,.43-.58c.8-1.8,1.6-3.6,2.36-5.41.24-.56,0-.85-.64-.84Z"/><path class="cls-3" d="M724.35,129.9h-5.6l-.07-.29a5.22,5.22,0,0,1,.84-.29c.73-.13,1.13-.5,1.05-1.28-.1-1-.2-2-.29-3-.07-.7-.46-.94-1.12-.93-1.46,0-2.93-.06-4.38,0a2.19,2.19,0,0,0-1.4.8c-.58.77-1,1.69-1.47,2.51s-.55,1.49.47,1.93c.1,0,.14.21.31.5h-4.41l-.07-.21a1.79,1.79,0,0,1,.53-.33,4.25,4.25,0,0,0,2.75-2.24c2.72-4.51,5.41-9,8.12-13.55a1.18,1.18,0,0,1,.23-.35c.25-.2.52-.38.78-.57a2.84,2.84,0,0,1,.46.92c.52,4.84,1,9.67,1.47,14.51.08.81.4,1.21,1.19,1.29a3.51,3.51,0,0,1,.63.19Zm-9.89-6.47c1.69,0,3.16,0,4.63,0,.79,0,1-.3,1-1-.19-1.86-.36-3.72-.57-5.58a2.21,2.21,0,0,0-.42-.76,2.55,2.55,0,0,0-.58.5q-1.8,2.85-3.55,5.72A9.9,9.9,0,0,0,714.46,123.43Z"/><path class="cls-3" d="M584.47,135.11a7.27,7.27,0,0,1-4.3-1.16c-1.5-1.12-1.53-2.72,0-3.78.66-.45.65-.75.4-1.49a7.19,7.19,0,0,1,0-2.49c0-.39.16-.87,0-1.15a3.43,3.43,0,0,1,0-4.25,3.59,3.59,0,0,1,4.32-1.19c1.34.5,2.42,0,3.61-.11a2.15,2.15,0,0,1,.91,0,1.43,1.43,0,0,1,.57.66c0,.08-.19.43-.31.43a1.86,1.86,0,0,1-.73-.22c-.32-.14-.63-.44-.94-.44-1,0-1.22.38-.83,1.3a3.46,3.46,0,0,1-.49,4,4.09,4.09,0,0,1-4.21,1.11c-.6-.13-1.27-.78-1.58.31a1.58,1.58,0,0,0,1.36,1.87c.9.07,1.82,0,2.71.13a13.67,13.67,0,0,1,3.3.77,2.54,2.54,0,0,1,1.5,2.84,2.64,2.64,0,0,1-2.1,2.2C586.63,134.71,585.54,134.88,584.47,135.11Zm-.39-5.33,0,.18a5.19,5.19,0,0,0-1.85,0,3.91,3.91,0,0,0-1.78,1.36,1.71,1.71,0,0,0,.56,2.14c1.55,1.44,5.46,1.39,7-.1a1.74,1.74,0,0,0-.63-3A28.78,28.78,0,0,0,584.08,129.78Zm2-6.71-.22-.11c0-.41,0-.83-.11-1.24a2.13,2.13,0,0,0-2-1.93,2,2,0,0,0-2,1.74,8.49,8.49,0,0,0,.11,3.06,1.86,1.86,0,0,0,3.14.83A8.89,8.89,0,0,0,586.11,123.07Z"/><path class="cls-3" d="M419,129.58a7.26,7.26,0,0,1,1-.22,1.54,1.54,0,0,0,1.43-1.29c1.05-4.24,2.06-8.49,3.15-12.72.27-1,.11-1.52-1-1.65-.21,0-.4-.2-.56-.53h6.73l0,.34c-.52.07-1,.18-1.56.22a1.67,1.67,0,0,0-1.68,1.3Q425,121.48,423.44,128c-.31,1.25-.17,1.41,1.1,1.41a22.52,22.52,0,0,0,2.6-.06,5.49,5.49,0,0,0,4.9-3.76c.18-.45.41-.87.62-1.3l.3.08c-.16.6-.28,1.22-.47,1.81-.33,1-.7,2-1.06,2.93a1.27,1.27,0,0,1-1.3,1H419.72a3.29,3.29,0,0,1-.68-.14Z"/><path class="cls-3" d="M640,126.57a14,14,0,0,1-1.35,2.68,1.69,1.69,0,0,1-2.84-.16c-.63-.85-1.06-.56-1.67-.1-2.52,1.86-4.31.58-5-1.41a4,4,0,0,1-.19-1.84c.37-2.94,1.7-5.24,4.56-6.45a2.49,2.49,0,0,1,2.73.36c.45.38.81.64,1.33.11a.76.76,0,0,1,.73,0,1,1,0,0,1,.23.83c-.25,1.25-.57,2.5-.86,3.74a34.13,34.13,0,0,0-.78,3.55c-.06.47.36,1,.56,1.49a5,5,0,0,0,1.3-1,9.75,9.75,0,0,0,.85-2Zm-9.51.2c0,2.06,1.17,3.16,2.54,2.5a4.19,4.19,0,0,0,2.41-2.82c.35-1.41.73-2.81,1.09-4.22a2.38,2.38,0,0,0-1-2.52,1.75,1.75,0,0,0-2.11.34,4.86,4.86,0,0,0-1.08,1.09A13.86,13.86,0,0,0,630.52,126.77Z"/><path class="cls-3" d="M461,108.1a7.63,7.63,0,0,1-.86,3.87l-.3,0a1.88,1.88,0,0,1-.14-.46c-.19-3.34-2.81-3.43-4.77-2.66a7.51,7.51,0,0,0-4.36,7.52,2.93,2.93,0,0,0,2.71,2.7,8,8,0,0,0,3.19-.54c1.08-.44,1.18-1.64,1.24-2.69,0-.2-.4-.48-.67-.64a3.11,3.11,0,0,0-.82-.23l0-.26h4a18.63,18.63,0,0,0-1.1,2.13c-.29.8-.43,1.66-.69,2.7-.75-1.16-1.43-.57-2.21-.3-2.7.94-5.76.65-6.91-2.27a5.68,5.68,0,0,1,.8-5.34c1.61-2.5,4.89-4.06,7.5-3.54a1.77,1.77,0,0,1,.59.16C459.12,108.89,460,109.45,461,108.1Z"/><path class="cls-3" d="M595.47,122.7a3.79,3.79,0,0,1,3.24-3.17c2.78,0,5.55,0,8.33,0,.31,0,.61.31.91.49-.26.26-.49.68-.81.75a7.67,7.67,0,0,1-1.86.09A1.13,1.13,0,0,0,604,122a12.85,12.85,0,0,0,.31,6.28,1.2,1.2,0,0,1,.09.8,1.31,1.31,0,0,1-.69.75c-.18.06-.67-.29-.73-.53a7.66,7.66,0,0,1-.36-2.45c.12-1.44.48-2.86.67-4.3.07-.55.67-1.35-.4-1.63-1.3-.33-2.09,0-2.37,1-.56,2-1.09,4-1.65,6a3.78,3.78,0,0,1-.54,1.34c-.23.28-.7.35-1.07.52-.05-.37-.25-.8-.13-1.11.8-2,1.7-3.94,2.5-5.93.7-1.74.36-2.15-1.5-1.76a5.62,5.62,0,0,0-1.7.91A7.5,7.5,0,0,0,595.47,122.7Z"/><path class="cls-3" d="M571.61,119.69a6.28,6.28,0,0,0-2.15,8,3,3,0,0,0,3,1.92,3.09,3.09,0,0,0,3-2.09,8.86,8.86,0,0,0,.24-5,3.45,3.45,0,0,0-2.66-2.72c1.3-.48,2.92.47,4,2.2a5.37,5.37,0,0,1-1,6.84,5.36,5.36,0,0,1-8.44-6.2C568.4,120.61,570.21,119.33,571.61,119.69Z"/><path class="cls-3" d="M438,108.2a8.08,8.08,0,0,1,.86-.1c1.6,0,3.2-.06,4.79,0a6.21,6.21,0,0,1,2.2.56,2.16,2.16,0,0,1,.79,3.34,5.16,5.16,0,0,1-4,2c-.86.07-1.73,0-2.6,0a1,1,0,0,0-1.06.91,20.47,20.47,0,0,1-.55,2.44c-.24.85-.36,1.6.82,1.94h-4.08c2.28-.46,1.74-2.53,2.22-3.89.6-1.69.86-3.49,1.35-5.23.24-.86.39-1.58-.9-1.75Zm3.43,5.54a17.78,17.78,0,0,0,2.64-.75,3,3,0,0,0,1.4-3c-.21-.86-1-1.3-2.45-1.32-.41,0-.83,0-1.24,0a1.18,1.18,0,0,0-1.4,1.07c-.12.61-.32,1.2-.49,1.8C439.31,113.57,439.31,113.57,441.45,113.74Z"/><path class="cls-3" d="M565.11,129.78h-4.79c.08-.22.1-.34.13-.34,1.55-.23,1.53-1.35,1.51-2.55,0-3.33,0-6.66,0-10,0-2.13,0-2.13-1.61-3.15.44-.54,2.63-1,3-.48a2,2,0,0,1,.26,1.17c0,4,0,7.91,0,11.87,0,1.31-.5,2.9,1.75,3.18Z"/><path class="cls-3" d="M616.4,124.9a12,12,0,0,1-2.65,7c-.78.89-1.72,1.66-3,1.31s-1.41-1.5-1.58-2.58c-.51-3.11,1.47-7.55,3.93-8.85a1.75,1.75,0,0,1,2.7.94A16.48,16.48,0,0,1,616.4,124.9Zm-6,5.66h0a3.82,3.82,0,0,0,.09,1.13c.16.42.42,1,.77,1.1a1.32,1.32,0,0,0,1.15-.56c.71-1.28,1.33-2.62,1.91-4a.87.87,0,0,0-.41-.74c-2.37-.68-3.36.06-3.48,2.51C610.35,130.21,610.36,130.38,610.36,130.56Zm2.59-3.35c.61-.28,1.64-.44,1.74-.85a10.2,10.2,0,0,0,.21-3.49c-.1-1-1-1.24-1.64-.46a11.66,11.66,0,0,0-1.69,2.7C610.81,126.79,611,127,613,127.21Z"/><path class="cls-3" d="M694.89,122.62c0-.57-.11-1.15-.16-1.72a5.13,5.13,0,0,1-.09-1.45c.05-.32.41-.6.63-.89.19.28.52.56.55.86a10.47,10.47,0,0,1-.12,1.66c0,.54-.07,1.08-.12,2l1.83-1.17a8.51,8.51,0,0,1,1.21-.81c.25-.11.62,0,.93.06-.11.32-.13.78-.35.91-.76.48-1.59.84-2.39,1.25-.18.09-.34.22-.7.45.53.31.91.56,1.32.77a13.7,13.7,0,0,1,1.66.86c.25.18.33.63.48,1-.37,0-.82.19-1.09,0-.91-.52-1.76-1.16-2.9-1.94,0,.9.07,1.47.12,2a6.49,6.49,0,0,1,.13,1.44,3,3,0,0,1-.59,1c-.21-.32-.59-.64-.61-1a13.26,13.26,0,0,1,.18-2.07c0-.33,0-.67.06-1.38-.92.6-1.57,1.07-2.26,1.46s-1.24,1.21-1.73.29.69-.92,1.19-1.23c.67-.43,1.41-.75,2.12-1.12l0-.34c-.85-.43-1.74-.8-2.55-1.3-.33-.2-.78-.83-.69-1,.36-.64.87-.27,1.31,0l2.36,1.58Z"/><path class="cls-3" d="M675.69,135.6c3-3.45,3.94-7.51,3.94-11.91s-.87-8.47-4-11.84l.18-.2a4,4,0,0,1,.66.41,13.41,13.41,0,0,1,3.93,6.84,18.74,18.74,0,0,1-.42,10.77A11.29,11.29,0,0,1,675.69,135.6Z"/><path class="cls-3" d="M626,135.67c-4.53-3.72-5.58-8.79-5.07-14.3a13.17,13.17,0,0,1,5-9.71C620.74,119.71,620.81,127.68,626,135.67Z"/><path class="cls-3" d="M486.59,134.83c4.44-8,4.5-15.6-.73-23.29a10.77,10.77,0,0,1,1.15.85,14.67,14.67,0,0,1,4.06,9.25,17.09,17.09,0,0,1-2.44,11.17,11.58,11.58,0,0,1-1.13,1.48A4.18,4.18,0,0,1,486.59,134.83Z"/><path class="cls-3" d="M470.14,111.81c-5.05,7.46-4.91,15.06-.52,23.12a9,9,0,0,1-1.09-.84,14.11,14.11,0,0,1-3.33-7.83c-.49-4.26,0-8.4,2.5-12.06a32.76,32.76,0,0,1,2.24-2.63Z"/><path class="cls-3" d="M657,128.24c1.1,1.45,2.53,1.3,3.87,1a2.84,2.84,0,0,0,2.35-2.24c.2-.91-.42-1.71-1.54-2-.43-.12-.88-.17-1.31-.3-1-.3-1.94-.7-2-1.92a3,3,0,0,1,1.39-3,3.44,3.44,0,0,1,3.69-.37h-1.28a2.43,2.43,0,0,0-2.33,1.44,1.27,1.27,0,0,0,.73,2,9.08,9.08,0,0,0,1.49.45,2.67,2.67,0,0,1,2.46,1.93,3.39,3.39,0,0,1-1.33,3.51,5.23,5.23,0,0,1-6,.35,1.79,1.79,0,0,1-.75-2.25,1.91,1.91,0,0,1,1-.82c.17-.06.74.37.72.54a2.72,2.72,0,0,1-.51,1.14C657.57,128,657.31,128,657,128.24Z"/><path class="cls-3" d="M650.93,123.51c0-3.68,0-7.36,0-11a4.17,4.17,0,0,1,.44-1.22,3.68,3.68,0,0,1,.52,1.2c0,7.36,0,14.72,0,22.08,0,.1,0,.23,0,.31-.17.32-.37.64-.56.95a2.65,2.65,0,0,1-.39-.93c0-3.78,0-7.57,0-11.35Z"/><path class="cls-3" d="M733.23,135.87c-.11-1,.5-1,1-.92,1,.1,1.36-.31,1.36-1.37q-.08-9.84,0-19.7c0-1-.26-1.52-1.34-1.38a1,1,0,0,1-.61-.06c-.18-.1-.29-.32-.43-.49.14-.12.29-.34.44-.34a11.12,11.12,0,0,1,2.38.06c.23,0,.49.67.49,1,0,3.55,0,7.09,0,10.64,0,3.82,0,7.64,0,11.46,0,.82-.25,1.13-1.07,1.08S734,135.87,733.23,135.87Z"/><path class="cls-3" d="M558.39,135.85c-.92,0-1.84,0-2.75,0-.15,0-.35-.29-.42-.48a2.46,2.46,0,0,1,0-.72c0-7.26,0-14.52,0-21.77,0-1,.32-1.4,1.31-1.29.45,0,.91,0,1.35,0,.2,0,.37.23.56.35l-.55.52a.2.2,0,0,1-.11,0c-1.6.29-1.6.29-1.6,2q0,9.47,0,19c0,1.43,0,1.4,1.38,1.55a4,4,0,0,1,1,.45Z"/><path class="cls-3" d="M510.14,122h-6.45a3.61,3.61,0,0,1-.93,0c-.19-.05-.34-.27-.51-.41.18-.16.37-.45.56-.45q7.32,0,14.66,0c.2,0,.4.27.61.41-.26.17-.51.48-.77.48-2.39,0-4.78,0-7.17,0Z"/><path class="cls-3" d="M726,126.11c.45-.1.59-.17.72-.14,1.25.21,1.66-.54,1.82-1.58,0-.2,0-.47.12-.6a11.38,11.38,0,0,1,1-.85,9.58,9.58,0,0,1,.17,1.18,2.51,2.51,0,0,1-.19.7c-.2.77,0,1.23.89,1.15a2.3,2.3,0,0,1,.62.11c-.18.16-.28.31-.37.3-1.3-.13-1.74.6-1.93,1.75s-.56,2.49-.78,3.74c-.05.29.11.83.3.89a1.28,1.28,0,0,0,1-.19,18.3,18.3,0,0,0,1.47-1.57c0,1.3-2,2.76-3.09,2.24a1.55,1.55,0,0,1-.94-1.88c.25-1.18.49-2.38.8-3.55.25-.89.15-1.44-.94-1.39C726.58,126.43,726.44,126.3,726,126.11Z"/><path class="cls-3" d="M641.46,125.89c2,.55,2.28-.73,2.58-2,.08-.35.6-.6.91-.9a9.56,9.56,0,0,1,.24,1.16,1.73,1.73,0,0,1-.16.6c-.27.85-.08,1.36.94,1.27a1.29,1.29,0,0,1,.42.12c-.08.12-.15.27-.2.26-1.4-.13-1.81.72-2,1.9s-.56,2.28-.75,3.44c-.06.34.15,1,.36,1.05a1.55,1.55,0,0,0,1.2-.31,8.86,8.86,0,0,0,1.16-1.47c0,1.48-1.92,2.86-3.07,2.26a1.61,1.61,0,0,1-.85-1.94c.25-1.18.47-2.38.79-3.55.25-.89.07-1.34-.92-1.31a1.33,1.33,0,0,1-.45-.15Z"/><path class="cls-3" d="M545.14,126.13c.46-.11.59-.16.72-.17,1.48-.1,1.57-.18,1.87-1.64,0-.17,0-.39.1-.5a11.65,11.65,0,0,1,1-.88c.07.39.18.77.21,1.15a1.68,1.68,0,0,1-.16.6c-.24.83-.12,1.39.94,1.28a1.5,1.5,0,0,1,.43.11c-.08.12-.14.27-.18.26-1.45-.12-1.87.79-2.08,2s-.55,2.22-.73,3.34c-.06.35.18,1.07.31,1.08a2.13,2.13,0,0,0,1.31-.36c.43-.34.72-.87,1.15-1.25a2.94,2.94,0,0,1-1.85,2.1,1.68,1.68,0,0,1-1.51-.27,2.2,2.2,0,0,1-.58-1.62,22.91,22.91,0,0,1,.76-3.55c.25-.9.14-1.43-1-1.38C545.73,126.43,545.58,126.31,545.14,126.13Z"/><path class="cls-3" d="M667,126.17c2-.48,2-.49,2.64-2.36.12-.36.62-.59.94-.88a9.58,9.58,0,0,1,.21,1.17,2,2,0,0,1-.18.59c-.22.81-.14,1.4.93,1.28a1.73,1.73,0,0,1,.43.1c-.07.12-.13.28-.16.28-1.48-.14-1.86.8-2.07,2s-.55,2.08-.71,3.14a3.92,3.92,0,0,0,.28,1.34l1.25-.35.41-.1a1.71,1.71,0,0,1-2.17.89,1.54,1.54,0,0,1-1-1.94c.26-1.19.49-2.38.8-3.55.23-.85.12-1.37-.9-1.34A3.4,3.4,0,0,1,667,126.17Z"/><path class="cls-3" d="M510.1,126.43c-2.33,0-4.65,0-7,0a2.84,2.84,0,0,1-.88-.35c.28-.18.56-.51.85-.51q7.08,0,14.15,0c.28,0,.55.29.82.44-.3.15-.6.42-.9.43C514.82,126.45,512.46,126.43,510.1,126.43Z"/><path class="cls-3" d="M664,119.65c1.08.33,1.34,1,1,1.81a1,1,0,0,1-.67.51c-.22,0-.66-.12-.7-.27a1.19,1.19,0,0,1,.22-.82C664.13,120.5,664.82,120.26,664,119.65Z"/><path class="cls-1" d="M378.23,585.53H290.29c-6.71,0-12.16-4-12.16-8.88V142.24c0-4.91,5.45-8.88,12.16-8.88h87.94"/><path class="cls-1" d="M378.23,88.48H111.62c-5.22,0-9.44,3.83-9.44,8.55V619.71c0,4.73,4.22,8.56,9.44,8.56H378.23"/><path class="cls-4" d="M351.55,381.76H210.77a10.9,10.9,0,0,1-10.9-10.9V348a10.9,10.9,0,0,1,10.9-10.9H351.55A10.9,10.9,0,0,1,362.44,348v22.83A10.9,10.9,0,0,1,351.55,381.76Z"/><path class="cls-5" d="M224.12,366.72a4.71,4.71,0,0,1-2.19-.47,4,4,0,0,1-1.53-1.34,6.22,6.22,0,0,1-.89-2.17,13.42,13.42,0,0,1-.29-2.92,13.62,13.62,0,0,1,.29-2.92,6.22,6.22,0,0,1,.89-2.17,4.05,4.05,0,0,1,1.53-1.35,5.34,5.34,0,0,1,4.38,0,4.13,4.13,0,0,1,1.53,1.35,6.41,6.41,0,0,1,.89,2.17,13.65,13.65,0,0,1,.28,2.92,13.46,13.46,0,0,1-.28,2.92,6.41,6.41,0,0,1-.89,2.17,4.1,4.1,0,0,1-1.53,1.34A4.71,4.71,0,0,1,224.12,366.72Zm0-1.76a2.11,2.11,0,0,0,2-1.08,6.12,6.12,0,0,0,.6-2.95v-2.24a6.06,6.06,0,0,0-.6-2.93,2.43,2.43,0,0,0-4,0,6.07,6.07,0,0,0-.59,2.93V361a6.07,6.07,0,0,0,.59,2.93A2.12,2.12,0,0,0,224.12,365Z"/><path class="cls-5" d="M231.37,352.34h2.08v6h.11a3.73,3.73,0,0,1,1.17-1.41,3.17,3.17,0,0,1,1.82-.5,3.35,3.35,0,0,1,2.77,1.3,7.75,7.75,0,0,1,0,7.72,3.35,3.35,0,0,1-2.77,1.3,3.17,3.17,0,0,1-1.82-.5,3.73,3.73,0,0,1-1.17-1.41h-.11v1.68h-2.08ZM235.69,365a2.27,2.27,0,0,0,1.82-.73,2.78,2.78,0,0,0,.64-1.93v-1.6a2.82,2.82,0,0,0-.64-1.94,2.29,2.29,0,0,0-1.82-.72,3.32,3.32,0,0,0-.86.11,2.05,2.05,0,0,0-.71.35,1.59,1.59,0,0,0-.67,1.35v3.29a1.69,1.69,0,0,0,.18.8,1.64,1.64,0,0,0,.49.56,2.24,2.24,0,0,0,.71.35A3.32,3.32,0,0,0,235.69,365Z"/><path class="cls-5" d="M247.09,366.72a6.85,6.85,0,0,1-2.77-.51,5.09,5.09,0,0,1-1.86-1.38l1.28-1.15a4.58,4.58,0,0,0,1.46,1.08,4.53,4.53,0,0,0,1.92.38,3.36,3.36,0,0,0,1.64-.35,1.14,1.14,0,0,0,.62-1.07,1.21,1.21,0,0,0-.11-.52,1,1,0,0,0-.33-.34,1.69,1.69,0,0,0-.49-.21,5,5,0,0,0-.58-.12l-1.57-.24a8.31,8.31,0,0,1-1.16-.25,4,4,0,0,1-1.07-.49,2.56,2.56,0,0,1-.76-.81,2.42,2.42,0,0,1-.3-1.26,2.6,2.6,0,0,1,1.16-2.3,5.37,5.37,0,0,1,3.05-.78,6.14,6.14,0,0,1,2.38.41,4.53,4.53,0,0,1,1.67,1.13l-1.16,1.23a3.56,3.56,0,0,0-1.09-.81,4,4,0,0,0-1.88-.38c-1.39,0-2.08.44-2.08,1.32a.9.9,0,0,0,.45.87,3,3,0,0,0,1.06.32l1.57.25a9.37,9.37,0,0,1,1.17.25,3.48,3.48,0,0,1,1.06.46,2.6,2.6,0,0,1,.76.82,2.4,2.4,0,0,1,.3,1.26,2.76,2.76,0,0,1-1.16,2.34A5.24,5.24,0,0,1,247.09,366.72Z"/><path class="cls-5" d="M258.75,366.72a5.35,5.35,0,0,1-2-.36,4.18,4.18,0,0,1-1.52-1,4.62,4.62,0,0,1-.93-1.62,6.44,6.44,0,0,1-.33-2.13,6.24,6.24,0,0,1,.34-2.14,4.78,4.78,0,0,1,.93-1.64,4.06,4.06,0,0,1,1.47-1,4.89,4.89,0,0,1,1.91-.36,4.69,4.69,0,0,1,1.87.35,4.06,4.06,0,0,1,1.44,1,4.6,4.6,0,0,1,.91,1.55,6,6,0,0,1,.31,2v.79h-7.07v.32a2.59,2.59,0,0,0,.72,1.89,2.71,2.71,0,0,0,2,.73,3.07,3.07,0,0,0,1.64-.41,3.27,3.27,0,0,0,1.1-1.09l1.3,1.15a4.11,4.11,0,0,1-1.52,1.46A5,5,0,0,1,258.75,366.72ZM258.6,358a2.8,2.8,0,0,0-1,.19,2.28,2.28,0,0,0-.81.55,2.54,2.54,0,0,0-.52.83,2.76,2.76,0,0,0-.19,1.05v.14H261v-.19a2.62,2.62,0,0,0-.66-1.87A2.31,2.31,0,0,0,258.6,358Z"/><path class="cls-5" d="M265.73,364.79h2.62v-6.46h-2.62v-1.71h4.71v2.62h.11a4.63,4.63,0,0,1,.39-1,2.89,2.89,0,0,1,1.56-1.4,3.47,3.47,0,0,1,1.3-.23H275v2H273a2.66,2.66,0,0,0-1.88.68,2.38,2.38,0,0,0-.72,1.82v3.68H274v1.7h-8.28Z"/><path class="cls-5" d="M280.21,366.49l-3.54-9.87h2.16l1.36,4.17,1.28,4h.12l1.28-4,1.36-4.17h2.08l-3.54,9.87Z"/><path class="cls-5" d="M296.64,366.49a1.8,1.8,0,0,1-1.35-.46,2,2,0,0,1-.54-1.2h-.1a2.55,2.55,0,0,1-1,1.4,4,4,0,0,1-4.33-.3,2.77,2.77,0,0,1-.9-2.19,2.51,2.51,0,0,1,1.06-2.19,5.68,5.68,0,0,1,3.26-.76h1.89V360c0-1.34-.7-2-2.12-2a3,3,0,0,0-1.55.37,3.22,3.22,0,0,0-1,1l-1.25-1A3.59,3.59,0,0,1,290.1,357a5,5,0,0,1,2.56-.58,4.46,4.46,0,0,1,2.95.89,3.23,3.23,0,0,1,1.07,2.61v5h1.24v1.64Zm-4.36-1.3a2.85,2.85,0,0,0,1.66-.45,1.38,1.38,0,0,0,.65-1.18v-1.43h-1.85c-1.51,0-2.26.45-2.26,1.35v.38a1.13,1.13,0,0,0,.48,1A2.3,2.3,0,0,0,292.28,365.19Z"/><path class="cls-5" d="M305,366.49a2.45,2.45,0,0,1-1.92-.69,2.64,2.64,0,0,1-.61-1.81v-5.66h-3v-1.71h2.16a1.13,1.13,0,0,0,.79-.22,1.08,1.08,0,0,0,.22-.79v-2.47h2v3.48h4.2v1.71h-4.2v6.46h4.2v1.7Z"/><path class="cls-5" d="M312.11,364.79h3.37v-6.46h-3.37v-1.71h5.45v8.17h3.16v1.7h-8.61Zm4.42-10a1.51,1.51,0,0,1-1.12-.33,1.09,1.09,0,0,1-.31-.8v-.4a1.12,1.12,0,0,1,.31-.81,1.54,1.54,0,0,1,1.1-.32,1.56,1.56,0,0,1,1.12.32,1.12,1.12,0,0,1,.31.81v.4a1.09,1.09,0,0,1-.31.8A1.49,1.49,0,0,1,316.53,354.83Z"/><path class="cls-5" d="M327.39,366.72a5.11,5.11,0,0,1-2-.36,4.07,4.07,0,0,1-1.47-1,4.73,4.73,0,0,1-.93-1.63,7.32,7.32,0,0,1,0-4.28,4.73,4.73,0,0,1,.93-1.63,4.07,4.07,0,0,1,1.47-1,5.52,5.52,0,0,1,3.92,0,4.2,4.2,0,0,1,1.48,1,4.56,4.56,0,0,1,.92,1.63,7.1,7.1,0,0,1,0,4.28,4.56,4.56,0,0,1-.92,1.63,4.2,4.2,0,0,1-1.48,1A5.07,5.07,0,0,1,327.39,366.72Zm0-1.64a2.41,2.41,0,0,0,1.83-.7,2.87,2.87,0,0,0,.68-2.07v-1.5a2.87,2.87,0,0,0-.68-2.07,2.73,2.73,0,0,0-3.65,0,2.82,2.82,0,0,0-.68,2.07v1.5a2.82,2.82,0,0,0,.68,2.07A2.4,2.4,0,0,0,327.39,365.08Z"/><path class="cls-5" d="M334.74,366.49v-9.87h2.08v1.69h.1a3.75,3.75,0,0,1,.39-.74,2.58,2.58,0,0,1,.58-.61,2.8,2.8,0,0,1,.81-.41,3.41,3.41,0,0,1,1.07-.15,3.17,3.17,0,0,1,2.41,1,3.9,3.9,0,0,1,.91,2.77v6.35H341v-6c0-1.57-.68-2.35-2.05-2.35a2.93,2.93,0,0,0-.78.1,2.19,2.19,0,0,0-.69.32,1.65,1.65,0,0,0-.49.53,1.54,1.54,0,0,0-.18.75v6.69Z"/><rect class="cls-4" x="18.69" y="337.13" width="162.57" height="44.63" rx="17.09"/><path class="cls-3" d="M69.23,366.41H67.1V353.06h5A3.78,3.78,0,0,1,75,354.13a4.11,4.11,0,0,1,1,2.94,4,4,0,0,1-.75,2.51,3.21,3.21,0,0,1-2.14,1.23l3.08,5.6H73.84L71,361H69.23Zm2.56-7.12c1.32,0,2-.61,2-1.82v-.83c0-1.21-.67-1.82-2-1.82H69.23v4.47Z"/><path class="cls-3" d="M82.92,366.64a5.25,5.25,0,0,1-2-.37,4,4,0,0,1-1.51-1,4.55,4.55,0,0,1-.94-1.62,6.71,6.71,0,0,1-.32-2.13,6.54,6.54,0,0,1,.33-2.14,4.91,4.91,0,0,1,.94-1.63,3.93,3.93,0,0,1,1.46-1.05,5,5,0,0,1,1.92-.36,4.87,4.87,0,0,1,1.87.35,4.08,4.08,0,0,1,1.44,1,4.49,4.49,0,0,1,.9,1.55,6,6,0,0,1,.32,2V362H80.22v.32A2.52,2.52,0,0,0,81,364.2a2.69,2.69,0,0,0,2,.74,3.11,3.11,0,0,0,1.63-.41,3.22,3.22,0,0,0,1.1-1.1l1.3,1.15A4,4,0,0,1,85.47,366,5,5,0,0,1,82.92,366.64Zm-.15-8.74a2.7,2.7,0,0,0-1,.19,2.36,2.36,0,0,0-.8.54,2.79,2.79,0,0,0-.53.84,2.89,2.89,0,0,0-.19,1v.13h5v-.19a2.62,2.62,0,0,0-.66-1.87A2.32,2.32,0,0,0,82.77,357.9Z"/><path class="cls-3" d="M88.83,356.54h1.78l1,8.3h.18l1.47-8.3h2l1.45,8.3h.17l1-8.3h1.7l-1.38,9.87H95.6l-1.32-7.65h-.17l-1.34,7.65H90.21Z"/><path class="cls-3" d="M109.33,366.41A1.84,1.84,0,0,1,108,366a2,2,0,0,1-.54-1.21h-.1a2.55,2.55,0,0,1-1,1.4,3.42,3.42,0,0,1-1.92.5,3.5,3.5,0,0,1-2.41-.8,2.77,2.77,0,0,1-.9-2.19,2.53,2.53,0,0,1,1.06-2.19,5.71,5.71,0,0,1,3.26-.75h1.9v-.77q0-2-2.13-2a2.87,2.87,0,0,0-1.55.38,3.3,3.3,0,0,0-1,1l-1.24-1a3.55,3.55,0,0,1,1.41-1.39,5,5,0,0,1,2.56-.58,4.46,4.46,0,0,1,3,.9,3.21,3.21,0,0,1,1.07,2.6v4.95h1.24v1.65Zm-4.36-1.3a2.76,2.76,0,0,0,1.66-.46,1.38,1.38,0,0,0,.66-1.18v-1.42h-1.86c-1.5,0-2.26.45-2.26,1.35v.38a1.12,1.12,0,0,0,.48,1A2.23,2.23,0,0,0,105,365.11Z"/><path class="cls-3" d="M112.85,364.71h2.62v-6.47h-2.62v-1.7h4.71v2.62h.11a5,5,0,0,1,.38-1,3.43,3.43,0,0,1,.63-.83,3.23,3.23,0,0,1,.94-.57,3.44,3.44,0,0,1,1.3-.22h1.19v2h-2a2.66,2.66,0,0,0-1.88.67,2.4,2.4,0,0,0-.72,1.83v3.68h3.57v1.7h-8.28Z"/><path class="cls-3" d="M130.75,364.72h-.11a3.73,3.73,0,0,1-1.17,1.41,3.08,3.08,0,0,1-1.82.51,3.37,3.37,0,0,1-2.77-1.3,7.77,7.77,0,0,1,0-7.73,3.35,3.35,0,0,1,2.77-1.3,3.08,3.08,0,0,1,1.82.51,3.62,3.62,0,0,1,1.17,1.4h.11v-6h2.09v14.16h-2.09Zm-2.24.22a2.93,2.93,0,0,0,.86-.12,2.23,2.23,0,0,0,.71-.34,1.68,1.68,0,0,0,.49-.57,1.65,1.65,0,0,0,.18-.79v-3.29a1.69,1.69,0,0,0-.18-.8,1.64,1.64,0,0,0-.49-.56,2,2,0,0,0-.71-.34,2.93,2.93,0,0,0-.86-.12,2.27,2.27,0,0,0-1.82.73,2.79,2.79,0,0,0-.64,1.93v1.61a2.81,2.81,0,0,0,.64,1.93A2.3,2.3,0,0,0,128.51,364.94Z"/><line class="cls-1" x1="362.44" y1="360.65" x2="378.23" y2="360.74"/><polyline class="cls-2" points="437.21 601.86 474.77 613.56 534.21 622.18 583.63 622.18 609.03 633.27 633.05 625.57 657.07 623.11 682.32 601.86"/><polygon class="cls-2" points="539.68 552.88 553.06 547.37 547.77 537.58 536.93 541.98 539.68 552.88"/><polygon class="cls-2" points="552.96 544.05 554.84 543.23 559.37 547.97 557.24 549.24 552.96 544.05"/><polygon class="cls-2" points="535.38 550.73 537.6 550.43 538.37 556.81 535.87 557.24 535.38 550.73"/><polyline class="cls-2" points="583.63 622.18 583.63 605.71 583.63 601.4 593.48 603.24 583.63 605.71"/><polyline class="cls-2" points="534.21 622.18 534.21 605.49 534.21 601.41 544.21 603.24 534.21 605.49"/><rect class="cls-2" x="550.22" y="552.43" width="1.23" height="1.23" transform="translate(-164.96 864.34) rotate(-68.62)"/><rect class="cls-2" x="553.01" y="555.82" width="1.59" height="1.59" transform="translate(-229.9 508.34) rotate(-41.62)"/><rect class="cls-2" x="548.71" y="559.21" width="2.31" height="2.31" transform="translate(-124.64 962.12) rotate(-76.32)"/><path class="cls-3" d="M566.74,597.77c1-1.67,2.59-1.76,4.3-1.46.59.1,1.18.26,1.77.37a2.88,2.88,0,0,0,.83,0c.91-.1,1.34-.55,1.46-1.55-.4.21-.76.42-1.14.58-.18.07-.47.12-.58,0a.7.7,0,0,1-.09-.57c.11-.51.25-1,.4-1.52a.37.37,0,0,0-.19-.51l-2.58-1.63c-.22-.14-.41-.28-.32-.57s.33-.26.56-.26l3,.13c0-.64,0-1.25.1-1.86,0-.17.12-.43.25-.48a.67.67,0,0,1,.52.16c.45.42.86.87,1.22,1.23l2.12-2c.07-.06.11-.16.19-.18s.4-.18.48-.11a.58.58,0,0,1,.19.5c-.13.61-.31,1.21-.47,1.82-.12.45-.22.9-.36,1.35-.08.23,0,.33.18.45.49.29,1,.59,1.43.91.13.09.3.32.27.43a.65.65,0,0,1-.41.36c-.59.2-1.2.35-1.85.52.1.74.19,1.46.29,2.17,0,.34.11.68.12,1,0,.16-.11.42-.22.45a.6.6,0,0,1-.5-.17c-.53-.62-1-1.26-1.55-1.91,0,0-.07,0-.07.08a2.54,2.54,0,0,1-3,2.11c-.81-.07-1.6-.3-2.4-.43a3.06,3.06,0,0,0-2.4.34,4.59,4.59,0,0,0-.65.68c.79.68,1.52,1.28,2.23,1.92.4.36.41.58.13,1.06s-.4.72-.64,1.06a.33.33,0,0,0,0,.46,11.94,11.94,0,0,1-.33,15,11.47,11.47,0,0,1-7,4,11.9,11.9,0,0,1-4.36-23.4,11.41,11.41,0,0,1,4.2-.07.33.33,0,0,0,.42-.19c.22-.39.45-.76.68-1.14s.45-.5.9-.33C564.77,597,565.73,597.38,566.74,597.77Zm2.37,3.05c0-.05-.05-.08-.08-.11a13.42,13.42,0,0,0-5.19-3.1.42.42,0,0,0-.35.15c-.26.39-.49.81-.73,1.22a.54.54,0,0,1-.63.3,11.11,11.11,0,0,0-3.9,0,10.72,10.72,0,0,0-9,12.85,10.42,10.42,0,0,0,3.83,6.52,11,11,0,0,0,15.31-15.55.65.65,0,0,1-.07-.88C568.58,601.74,568.83,601.29,569.11,600.82Zm8.25-5.07.08,0c-.08-.58-.15-1.16-.24-1.75s0-.63.5-.77l1.21-.32c-.43-.27-.75-.51-1.1-.7a.56.56,0,0,1-.29-.75c.19-.67.36-1.35.52-2l-1.3,1.21c-.33.32-.49.33-.82,0l-.89-.87-.11,0c0,.37,0,.73,0,1.09,0,.61-.11.71-.71.68l-1.63-.08a15.5,15.5,0,0,0,1.74,1.21.49.49,0,0,1,.24.66c-.12.41-.21.83-.33,1.31l1.14-.59c.43-.23.53-.2.82.17Z"/></svg>