<svg id="Layer_1" data-name="Layer 1" xmlns="http://www.w3.org/2000/svg" viewBox="0 0 977 976"><defs><style>.cls-1{fill:#f9ae3b;}.cls-2{fill:#0f0f0f;}.cls-3{fill:#1a1a1a;}.cls-4{fill:#fff;}.cls-5{fill:#ebe93f;}.cls-6{fill:#0b0d0c;}.cls-7{fill:#14150c;}.cls-8{fill:#fdf8f8;}</style></defs><path class="cls-1" d="M286.16,931.7c-1.74,1.43-3.15,0-4.57-.63A490,490,0,0,1,58.91,720.86,482.27,482.27,0,0,1,12.83,599.3,503.15,503.15,0,0,1,3.1,541.77,488.85,488.85,0,0,1,258.6,57.6,480,480,0,0,1,395,9.14c16.52-3.18,33.14-5.41,49.88-7A460,460,0,0,1,511.82.64,488.77,488.77,0,0,1,965.17,381.47a501.17,501.17,0,0,1,9.53,60.6,513.27,513.27,0,0,1,1.39,75.41,461.15,461.15,0,0,1-11.68,81.42A489.07,489.07,0,0,1,707.57,925.13c-1.92,1-3.72,2.27-6,2.42-2.54-1.2-3.22-3.73-4.17-6-17.18-40.91-32.73-82.4-44.76-125.14-2.22-7.88-4.13-15.78-3.82-24.09.15-4.19,1-7.89,4-10.93,4.23-4.26,4.45-8.93,1.77-14.16-5.61-11-12.07-21.51-17.35-32.67-12.29-25.93-23.66-52.21-31.27-80-1.93-7.05-1.79-13.71,3.81-19,22.2-21.1,33.91-47.6,41.39-76.77,5.27-20.56,4.8-40.7,1.52-61.38-3.35-21.12-2.21-42.52-1.11-63.83.33-6.32.59-12.64,1.3-18.93.25-2.16.16-4.58,2.59-5.53s4,1,5.58,2.45c9.21,8.26,13.76,19,16.49,30.77.49,2.1.75,4.25,1.47,6.69,1.51-.76,1.7-2.12,2.15-3.2,5.09-12.24,8.75-24.93,9.47-38.17,1.12-21-5-39.13-22.11-52.59-2.09-1.65-4.24-3.24-6.28-4.95-4.22-3.54-4.84-6.22-3-11.48,6.84-19.1,22.46-24.87,40-23.54.83.07,1.64.25,2.47.35,5.16.61,6,0,6-5.11a80.36,80.36,0,0,0-10.25-39.74c-9.55-17.15-24-29.21-41-38.47a147.94,147.94,0,0,0-38.73-14.49c-6.52-1.45-9.73-4.87-11.35-11.44a153.94,153.94,0,0,0-17.17-42c-13.55-22.72-43.12-39.42-74.24-33A94,94,0,0,0,478.22,127c9.21,1.16,16.25,5,22.54,10.35,7.77,6.64,8.49,10.5,3.46,19.48-2.69,4.8-6.75,8.18-11.45,10.88-9.74,5.6-20.41,7.85-31.44,9.13-22.42,2.61-44.54-.5-66.69-3.14a35.6,35.6,0,0,1-13.25-4.26c-4.65-2.6-6.17-6.14-4.9-11.31,1.2-4.88,4.37-8.57,7.67-12.11,7.9-8.45,17-15.48,26.5-22,3.7-2.53,7.48-5,11.08-7.87-7.59.37-15.12.71-22.62,1.68-19.91,2.57-38.89,7.88-55.57,19.53-17.46,12.2-27.8,28.58-30,50.17-.82,8.09.84,15.93.34,23.92-.45,7.32-3.89,9.87-10.8,7.06-6.09-2.46-11.31-6.46-16-11-5.88-5.65-11.84-11.23-17-17.59-3.58-4.41-4.75-4.21-7.27.81-7.12,14.2-5.93,28.09,2,41.48,7.24,12.22,18.11,20.72,29.95,28.13,2.12,1.32,4.37,2.45,6.38,3.94,3.43,2.55,3.59,4.25.62,7.28-2.8,2.85-5.61,5.7-8.51,8.45-12.83,12.12-17.56,26.92-13.79,44a32.13,32.13,0,0,1-4,24.83,67.37,67.37,0,0,0-9.32,29.85c-1.06,14.31,5.21,25.62,19.12,30.47,10.59,3.7,19.34,9.57,24.63,19.87,5.71,11.12,4.89,18.19-3.85,27.13-6.91,7.08-11.1,15.35-12,25.18-.71,7.36,2.9,12.91,9.57,15.12,4.65,1.54,6.6.45,7.19-4.46A62.53,62.53,0,0,1,313.81,478a34,34,0,0,1,3.69-7.63c4.35-6.41,9.3-6.44,12.92.3,5.76,10.71,11.47,21.45,14.92,33.23,5.32,18.16,7.59,36.22-1.3,55,5.46-1.64,9.2-4.53,12.73-7.6a83.34,83.34,0,0,0,10-10.46c2.82-3.49,4.75-3.37,6.5.84,7.07,17,17.9,31.43,29.76,45.34,10.9,12.79,9.18,34.77-2.91,47.29a386.37,386.37,0,0,0-39.71,48.15,379.83,379.83,0,0,0-43.93,83.94c-2.28,6.09-4.46,12.21-7,18.21a16,16,0,0,0-.59,11.19,45.45,45.45,0,0,1,.88,22.73c-6.11,28.35-13.13,56.5-17.87,85.13-1.14,6.91-2.17,13.83-3.28,20.74C288.27,926.92,288.49,929.78,286.16,931.7Z"/><path class="cls-2" d="M286.16,931.7c2.89-22.3,6.94-44.41,11.76-66.38,3.32-15.12,6.77-30.21,10.17-45.31,1.63-7.27,1.13-14.58.34-21.89a3.69,3.69,0,0,0-.54-1.87c-3-3.53-1.87-7.11-.37-10.8,5.52-13.57,10.31-27.43,16.27-40.83,18.41-41.36,43.12-78.46,74.86-110.83a35.86,35.86,0,0,0,6.68-40.71,31.24,31.24,0,0,0-5.35-7.8,139.24,139.24,0,0,1-28.67-44.76,10.66,10.66,0,0,0-1.05-1.58c-1.46,1-2.16,2.46-3.08,3.7-5.92,7.9-13.53,13.71-22.24,18.21-.91.47-1.79,1-2.74.29s-.48-1.8,0-2.67c7.91-13.73,7.41-28.31,4.51-43.2-3.23-16.61-10.54-31.52-18.79-46-1.91-3.35-3.77-3.54-6.82-1a14.78,14.78,0,0,0-3.89,5.13,51.91,51.91,0,0,0-4.93,18.23c-.67,7.74-2.7,9.06-9.91,6.38-6.85-2.54-10.16-7.09-10-14.48a39.45,39.45,0,0,1,10.34-25.89c1-1.11,2.12-2.12,3.16-3.2,6.7-6.92,7.88-13.69,3.84-22.35a37.86,37.86,0,0,0-20-19.4c-1.68-.72-3.4-1.35-5.13-2C268.8,405,263,392,264.81,377.14a74.23,74.23,0,0,1,10.74-31.43,22,22,0,0,0,3-17.24c-1.84-8.2-2.68-16.44-.84-24.77,2.34-10.65,8.12-19.24,16-26.51,2.33-2.14,4.72-4.22,7.06-6.36,1-.87,2.1-1.64,2.44-3-1-1.79-2.84-2.35-4.4-3.23a111.54,111.54,0,0,1-27.63-21.24c-7.78-8.41-13.09-18-14.38-29.59-1.24-11.16,2.25-20.94,8.71-30.48,4.26,4.5,8.26,8.65,12.19,12.87,6.15,6.59,12.49,13,20,18a22.38,22.38,0,0,0,9.08,4c4,.62,5.68-.76,5.62-4.77-.09-5.16-.56-10.32-.71-15.48-.62-20.27,5.31-38.09,19.84-52.65,10.34-10.37,22.89-17.07,36.57-21.87a156.74,156.74,0,0,1,39.57-7.9c5.93-.48,11.87-1.32,17.95-1,.09,2.14-1.63,2.48-2.77,3.23-9.62,6.31-19.17,12.72-27.95,20.18a98.76,98.76,0,0,0-12.45,12.26,26.21,26.21,0,0,0-4.57,7.7c-1.74,4.82-.6,8,3.85,10.48a32.6,32.6,0,0,0,11.83,3.82c18.18,2.27,36.35,4.88,54.74,4.09,10-.42,20-1,29.67-3.81,7.89-2.3,15.41-5.35,21.35-11.4a27.49,27.49,0,0,0,6.05-10.22,7.67,7.67,0,0,0-2.15-9c-10.15-9.48-16.36-12.5-28.38-13.43.77-1.9,2.47-2.69,3.9-3.64C494.92,114,512.46,108,532,108.46a60.49,60.49,0,0,1,21.45,4.3c16.88,6.9,30.49,17.74,39.2,34,7.1,13.26,12.81,27.12,16,41.85.92,4.21,3.07,6.14,7.19,7a149.35,149.35,0,0,1,49,19.47c13.28,8.39,24.67,18.7,32.75,32.36a86.55,86.55,0,0,1,12,44.81c0,5-.9,5.86-6,5a46.7,46.7,0,0,0-22.71,1.25c-11.81,3.78-17.93,12.64-21.12,24-.7,2.49.58,4.19,2.35,5.6,2.61,2.08,5.34,4,7.91,6.12,17.72,14.63,24,33.73,21.94,56.12A126.73,126.73,0,0,1,682.43,427c-.91,2.23-1.55,4.68-4.28,6.63-2.52-17.53-7.3-33.53-22.16-44.45-1.7,1.94-1.47,4-1.66,5.94-2.08,21.44-2.13,42.93-1.76,64.44a172.05,172.05,0,0,0,3.06,28.29c3.14,16.92,1.64,33.52-2.79,49.95-2.38,8.84-5.15,17.58-7.91,26.31-5.39,17-14.8,31.59-26.83,44.6-2.38,2.57-4.69,5.2-7.13,7.71-4.62,4.76-5.66,10.15-3.89,16.55,9,32.59,22.39,63.39,38,93.3,3.16,6,6.57,12,9.77,18a57.16,57.16,0,0,1,2.61,5.94c1.65,4.18,1,8-2.51,10.86-3.85,3.19-4.88,7.12-4.79,12,.18,10.16,3.07,19.7,5.84,29.3,12.18,42.14,27.68,83.08,44.89,123.39.26.61.5,1.23.75,1.85-2.56,2.26-6,2.58-8.93,4.05-2.93-.82-3.25-3.59-4.19-5.8A1050.5,1050.5,0,0,1,639,782.29c-.25-1-.52-1.93-.8-2.89-.71-2.4-2-3.37-4.42-2-6.76,4-13.55,7.86-20,12.3-2.88,2-3,5-2.69,8.1,2.41,26.71,5.81,53.29,10,79.79a581.08,581.08,0,0,0,15.11,69.8c.58,2,1.71,4.1.23,6.23-3.71,2.07-7.83,2.84-11.89,3.86-2.1-1.21-2.51-3.4-3.18-5.46-4.33-13.34-7-27.1-9.71-40.82-2.6-13.06-5.55-26-7.57-39.24-2.64-17.29-4.13-34.69-6.19-52-2.09-17.52-3.44-35.12-4.68-52.71-.53-7.47-1.37-14.92-1.39-22.42-.09-30.31-2.64-60.55-2-90.87a15.85,15.85,0,0,0-.28-3c-.85-5-1.68-5.53-6.63-3.89a30.68,30.68,0,0,1-3.31,1.12c-9,1.84-15.13,6.69-18.77,15.39-2.85,6.83-8.23,12.1-13.92,16.81-10.44,8.63-22.59,9.2-35,6.46-11.13-2.45-20.48-8.62-29.31-15.62-12.67-10.05-25.47-19.91-39-28.79-1.81-1.19-3.62-2.37-5.49-3.47-9.46-5.58-13.29-5.27-21.09,2.7-16.37,16.72-30.4,35.35-43.49,54.69-15.93,23.55-29.39,48.4-39.43,75a98.1,98.1,0,0,0-3.3,11.51c-2.05,8.45.83,15,7.31,20.35,11.43,9.46,24.86,13.25,39.37,13.64,7.73.21,11.41-2.61,13.22-10.2a365,365,0,0,1,12.72-40.51c1.15-3.14,2.31-6.27,4.65-8.76,2.92-3.11,6.44-4.85,10.75-3.85s5.93,4.62,6.66,8.52c1.23,6.5.41,13-1,19.34-3.33,14.86-8.91,29-14.85,42.93a15.94,15.94,0,0,1-5.66,6.87c-5.56,3.87-8.19,9.37-9.57,15.82-2,9.16-2.53,18.47-3.37,27.75-1.2,13.43-2.37,26.86-3.62,40.28a46.85,46.85,0,0,0-.41,6.47c.57,12.84-1.57,25.6-1.06,38.44.06,1.64.07,3.37-1.26,4.69-4,.33-7.94,0-11.5-2.15-1.84-2.53-1.57-5.47-1.15-8.2,1.62-10.58.78-21.26,1.6-31.89,1.67-21.39,3-42.8,5.71-64.11.81-6.43,1.44-12.9,2.15-19.35.5-4.56-.52-6-5.16-5.76-15.55.72-28.5-5.41-40.42-14.6-2.77-2.14-5.67-4.09-8.63-5.95-3.78-2.37-4.59-2.08-5.77,2.35-3,11.27-5.47,22.66-8.18,34-6.3,26.41-11.38,53.06-15.68,79.86-.38,2.37-.12,5.1-2.48,6.8C291.51,935.72,288.33,934.84,286.16,931.7Z"/><path class="cls-3" d="M384.6,964.7c-1.19-7.65-.56-15.31.13-22.94a111.33,111.33,0,0,0,.56-12c-.25-12.7,1.65-25.25,2.51-37.87.63-9.13,1.73-18.22,2.49-27.34A113.5,113.5,0,0,1,394,842.47c1.55-5.33,4.16-9.77,9.27-12.42a9.2,9.2,0,0,0,4.23-4.77C414.29,809.16,421,793,423.9,775.61a46.07,46.07,0,0,0,.25-13c-.4-3.38-1.54-6.71-5.26-7.82s-6.82.52-9.48,3.08a15.31,15.31,0,0,0-3.5,6c-5.21,14.22-10.47,28.42-13.77,43.26-1.93,8.68-7.06,12.31-15.91,11.58-14.18-1.18-27.48-4.81-38.91-13.87-7.07-5.61-10.06-12.52-8.28-21.51a71.08,71.08,0,0,1,2.68-10.12,297.23,297.23,0,0,1,13-30.29c16-32.82,36.55-62.66,60.15-90.45a175.2,175.2,0,0,1,12.21-13.2c7.44-7.15,11.67-7.71,20.4-2.47,13.74,8.25,26.49,17.89,39.08,27.75,5.77,4.52,11.45,9.17,17.69,13,7.44,4.62,15.33,8,24.12,9,14.33,1.71,25.73-3.55,34.92-14.3a54.23,54.23,0,0,0,8.86-14.42c2.1-5,5.55-8.12,10.88-9.27,4.41-.95,8.56-2.72,12.76-4.31,2.77-1.06,3.48-.73,4.38,2a29.6,29.6,0,0,1,1.31,9.36c0,20,.42,40,1.09,60,.86,25.63,1.56,51.29,4.13,76.81,2,19.37,4.16,38.73,6.23,58.08,1.46,13.6,4.07,26.95,5.93,40.45,1.08,7.89,3.8,15.47,5.1,23.36a312,312,0,0,0,10.61,43.1c-11.35,3.9-23.07,6.39-34.77,8.93a468,468,0,0,1-49.24,7.88,509,509,0,0,1-78.86,1.94,453.53,453.53,0,0,1-69.23-8.78C389.73,966.92,386.74,967,384.6,964.7Z"/><path class="cls-4" d="M295.09,935.69c2.93-21.79,7-43.37,11.61-64.85,4.13-19.37,8.77-38.62,13.63-57.82,1.53-6,1.53-6,6.79-2.38,4.37,3,8.83,6,13.08,9.2a57.6,57.6,0,0,0,36.27,12c7.31-.07,7.56.43,6.64,7.77q-4.35,34.44-7,69c-1.37,18-1.62,35.94-3,53.88-4.28.35-8.18-1.38-12.15-2.45a481.56,481.56,0,0,1-60.83-20.84C298.24,938.48,295.77,938.27,295.09,935.69Z"/><path class="cls-4" d="M636.43,953.65c-9.07-29.69-14.74-60.09-19.14-90.77-3-21.09-5.77-42.21-7.54-63.45-.14-1.66-.17-3.32-.29-5a6.19,6.19,0,0,1,3.37-6.18c7.15-4.27,14.22-8.66,21.38-12.91,3.46-2.06,4-1.81,5.11,2.12,3.85,14.3,7.74,28.59,12.08,42.75a1135.12,1135.12,0,0,0,40.14,109.14c.32.77.75,1.48,1.13,2.22a4.93,4.93,0,0,1-2.71,2.07,489.62,489.62,0,0,1-49.66,19.2A10.53,10.53,0,0,1,636.43,953.65Z"/><path class="cls-5" d="M635.22,396.89c-.25,22,1.65,43.93,2.8,65.88.68,13,1,26,1.54,39,.11,2.83.29,5.66.43,8.48a14,14,0,0,1-4.67,11.63c-7,6.41-13.91,12.92-20.86,19.38-.61.57-1.27,1.08-1.91,1.61-1.35,1.1-2.45.81-3.23-.68-.62-1.18-1.18-2.39-1.72-3.6-6.16-13.91-14-26.85-22.6-39.36-2.57-3.72-5.7-5.34-10.18-4.58-8.57,1.47-17.26,1.55-25.9,1.61-15,.1-30,.58-45,0a45.35,45.35,0,0,0-6.49.16c-8.57.86-14.73,6.69-14.95,15.32-.35,13.38-4.29,25.87-8.35,38.38a25.83,25.83,0,0,1-1.77,4.12,3.94,3.94,0,0,1-4.6,2.2c-3.87-.91-7.86-1.62-10.65-5a9.25,9.25,0,0,0-2.68-2.18c-13.23-7.06-26.4-14.22-41.6-16.33a140.4,140.4,0,0,0-21.38-1.6c-5.34.08-6.49-.94-6.93-6.21-1.43-17.26-2.85-34.52-4.09-51.79q-2.15-29.91-6.51-59.56c-2.76-18.77-5.62-37.51-8.37-56.28-1.05-7.14.42-9.25,7.35-11.19,2.09-.59,4.22-1,6.26-1.7,4.89-1.64,7-4.73,6.68-9.8-.22-3.32-.68-6.62-1-9.94-.2-2-.46-4-.51-6-.17-7.71,3.48-11.87,11.1-12.56,7.13-.64,14.26-1.26,21.41-1.68,20.28-1.2,40.53-2.69,60.68-5.29A393.39,393.39,0,0,0,538.13,287q3.11-.92,6.26-1.7a27.28,27.28,0,0,1,22.07,3.36,26,26,0,0,0,17.61,4.09,19.6,19.6,0,0,1,6,.12,11.54,11.54,0,0,1,9.35,8,45.6,45.6,0,0,1,2,10.77c.48,5.37,3.23,8.53,8.4,9.81a43.74,43.74,0,0,1,5.68,1.84c11.26,4.41,17.64,12.58,19.13,24.64a133.07,133.07,0,0,1,.6,16Q635.24,380.4,635.22,396.89Z"/><path class="cls-5" d="M594.31,558.33c-5.64-1.35-10.53.14-15.34,2-2.48,1-4.92,2-7.43,2.94-5.62,2-8.36,1.21-12.3-3.46-1-1.14-1.84-2.36-2.8-3.51-9.59-11.56-24.88-11.49-33.73.55-5.65,7.68-12.71,10.28-21.78,8.36-1.3-.28-2.62-.5-3.92-.77-4.68-1-5.39-2.1-3.7-6.44a164.07,164.07,0,0,0,7.39-25.89,93.78,93.78,0,0,0,1.87-12.83c.46-6.74,1.78-8,8.29-9,14.47-2.16,28.89-1.5,43.3.53,4.29.61,8.57,1.2,12.87,1.66,4.65.49,8.2,2.47,10.31,6.79,6,12.27,11.73,24.65,16.8,37.33A9,9,0,0,1,594.31,558.33Z"/><path class="cls-3" d="M606.14,775.5c-1.71-35.88-3.7-71.81-2.5-108.22,2.08,1,2.19,2.46,2.62,3.6,9.87,26.07,22.5,50.82,35.68,75.31,3.58,6.66,3.46,7-3,10.93q-13.63,8.36-27.3,16.64C610.13,774.68,608.75,776.08,606.14,775.5Z"/><path class="cls-5" d="M485.21,660.3c24.39,5,47-.38,69.05-7.22,1.43,1.58.53,2.64.2,3.65a32.83,32.83,0,0,1-39.16,21.91C503.58,675.85,492,669,485.21,660.3Z"/><path class="cls-6" d="M443.49,422.26c0-3-.23-6,0-9,.92-9.9,8.51-15.26,18.22-13.23,8.82,1.84,13.92,7.15,15.76,15.89,1.62,7.7,2.79,15.35.85,23.2-2.06,8.3-7,12.06-15.52,11.37a20.94,20.94,0,0,1-19.62-20.27c-.13-2.65,0-5.32,0-8Z"/><path class="cls-6" d="M595.48,427.85a57,57,0,0,1,0,6,12.54,12.54,0,0,1-14.39,11.29c-8.73-1.15-14.7-6.2-16.91-14.74-1.89-7.27-3.27-14.61-2-22.21,1.19-7.37,4.45-11.67,10-12.81,7.15-1.46,14.85,1.57,18.4,7.23a21.67,21.67,0,0,1,2.83,7.43A98.83,98.83,0,0,1,595.48,427.85Z"/><path class="cls-7" d="M518.33,525.45c12.8,0,24.42,0,36,0,1.1,0,2.5-.32,3,1.07s-.63,2.13-1.45,2.9c-5.78,5.46-12.87,6.72-20.37,5.74A24.62,24.62,0,0,1,518.33,525.45Z"/><path class="cls-8" d="M513.77,705.24c1.35,7.47,2.33,8,9.59,6,6.53-1.83,13-4.07,19.84-4.57-8.59,6.21-17.76,11.22-28,14.07a4.92,4.92,0,0,1-6.45-4.81A12.37,12.37,0,0,1,513.77,705.24Z"/></svg>