<svg id="Layer_1" data-name="Layer 1" xmlns="http://www.w3.org/2000/svg" viewBox="0 0 1424 549"><defs><style>.cls-1{fill:#646095;}.cls-2{fill:#fff;}.cls-3{fill:none;stroke:#fff;stroke-miterlimit:10;stroke-width:6px;}</style></defs><path class="cls-1" d="M175.54,254.32c-.14,1.64-.24,2.71-.36,4.07h-6.55l-.44-3.79h-5.5c-.2,1.17-.42,2.43-.67,3.87h-6.29l-.62-3.82h-5.69L149,258.4h-6.54l-.48-3.78h-8.6v8.71H80.18v-9c-2.29,0-4.08,0-5.87,0-4.28-.08-6.38-2-6.38-6.17q0-32.22,0-64.42c0-13.22,0-26.44,0-39.65,0-5.42,1.8-7.31,7.15-7.27,13,.11,25.93.45,38.9.42,24.34-.05,48.68-.3,73-.48a4.35,4.35,0,0,0,1.11-.37c.17-1.41.33-2.82.53-4.47h6c1.21,5.56,1.66,5.79,8.78,4.4.21-1.35.43-2.76.69-4.41h6.13c.18,1.58.34,3,.53,4.64h7.84c1.19-5.54,1.2-5.55,7.15-4.38-1.25,5.34,2.39,4.73,5.8,4.65q6.19-.15,12.38,0c4.48.12,6.39,2.08,6.39,6.58q0,52,0,104.09c0,4.82-2.05,6.81-6.88,6.82q-31.65,0-63.3,0ZM75.05,143.73V247.17H243.11V143.73Zm51.27,111.92-.26-1H87.31l-.31.88c.86.38,1.71,1.07,2.56,1.07q17.06.12,34.1,0A8.61,8.61,0,0,0,126.32,255.65Z"/><path class="cls-2" d="M75.05,143.73H243.11V247.17H75.05ZM213.37,242,229.09,243l.65-5.19,3.53-.63c.12-3.24,1.74-6.9-3.8-7.06.12-1.3.22-2.32.31-3.25l3.38-.56v-6.72c-3.06.22-4.6-.63-3.25-3.69,3.94-.78,4.19-1.34,3.1-7l-3.77-.8c1.66-5.25-1.58-5-5.09-5-14.64.09-29.29,0-43.94.05-1.56,0-3.11.26-4.67.4l-10.45-.5-.5,5.16-3.39.86v6.07l3.19.77c1.48,3.66-1.17,3.65-3.18,4v6.34l3.4.79v3.18l-3.34.77v6.28l3.37.58.33,4.57a13.15,13.15,0,0,0,1.91.28q22.14,0,44.27,0A7.67,7.67,0,0,0,213.37,242ZM92.55,208.8c-1.06,6.15-1,6.26,4.17,7.31v10.33l-4.57.75c0,1.21,0,2.17,0,3.12s.18,1.87.28,2.8l4.27.8c.26,1.56.47,2.82.67,4l3.77.53.44,4c5.71,1.23,6,1,7.23-4,9.22-1.13,9.91-.88,11.37,4.91,1.92-.5,5.52-1,5.51-1.49-.09-3.79,2.36-3.89,5-3.85.27-1.48.5-2.73.73-3.94l3.93-.43v-6.46l-4.05-.52V216.1l4.09-.67v-5.86l-4.11-.77-.56-4.3-3.83-.46-.48-4.52h-6.55l-.4,4.51H108.81l-.57-4.57h-6l-.88,4.62-4.08.46-.7,4Zm19.16-14.41V150.63H94.92v43.76Zm23.45-35H117.88v34.89h17.28Zm34.22,39.43V177.62H148.29v21.24Zm23.19-23.33V154.3H171.46v21.23Zm36.88-14.65v-6.51H204.31v6.51Zm-25,5.72v6.7h20.17c5.54,0,6.32-1.17,4.49-6.7Zm-.3,30.7h25.53a31.58,31.58,0,0,0-.07-4.8c-.12-.71-1-1.85-1.58-1.85-7.83-.13-15.67-.09-23.61-.09-.12,1.26-.24,2.08-.26,2.91C204.08,194.66,204.11,195.84,204.11,197.3ZM229.56,185c.07-1,.12-1.59.14-2.18.14-4.58.14-4.58-4.48-4.59H204.38V185Zm-42.88,10.33c-2.18-1.52-3.67-3.33-4.82-3.14s-2.22,2.28-3.3,3.53c1.25,1.05,2.41,2.78,3.77,2.94C183.38,198.83,184.66,197,186.68,195.37Zm-98.39-3.46c-2.13-1.67-3.44-3.48-4.61-3.39s-3.2,2-3.21,3.12,1.83,3,3.14,3.25C84.61,195.12,86,193.43,88.29,191.91Zm-5.56-26h1.44c.89-1.37,2.49-2.75,2.45-4.1,0-1.11-2-3-3.09-3s-3,1.86-3.07,3C80.38,163.1,81.9,164.53,82.73,165.91Zm108.88,16-1.52.05c-.84,1.34-2.39,2.72-2.31,4,.07,1.09,2.15,3,3.08,2.87a4.68,4.68,0,0,0,3.25-3.12C194.25,184.57,192.52,183.19,191.61,181.91ZM88.35,206.74c-2.27-1.64-3.57-3.29-4.85-3.28-1.09,0-3.14,2-3,3a4.77,4.77,0,0,0,3.12,3.24C84.6,209.9,86,208.26,88.35,206.74Zm-4.2-34.47c-1.72,2.24-3.07,3.42-3.52,4.88-.19.6,1.53,1.81,2.39,2.74,1.15-1.09,2.68-2,3.29-3.33C86.63,175.88,85.3,174.44,84.15,172.27Z"/><path class="cls-2" d="M126.32,255.65a8.61,8.61,0,0,1-2.66,1q-17,.09-34.1,0c-.85,0-1.7-.69-2.56-1.07l.31-.88h38.75Z"/><path class="cls-1" d="M175.54,203.59c1.56-.14,3.11-.39,4.67-.4,14.65,0,29.3,0,43.94-.05,3.51,0,6.75-.22,5.09,5l3.77.8c1.09,5.63.84,6.19-3.1,7-1.35,3.06.19,3.91,3.25,3.69v6.72l-3.38.56c-.09.93-.19,2-.31,3.25,5.54.16,3.92,3.82,3.8,7.06l-3.53.63-.65,5.19L213.37,242l-4.88-5c.7-.35,1.4-1,2.11-1,3.25-.12,6.51.06,9.75-.16.82-.05,1.57-1.19,2.36-1.82-.8-.62-1.58-1.74-2.4-1.77-4.33-.19-8.67,0-13-.16a30,30,0,0,1-4.8-1L197,225.32a30.53,30.53,0,0,1,3.54-.43c6.19,0,12.37.07,18.55-.11,1.22,0,3.35-1,3.44-1.71.32-2.76-2.11-2-3.61-2-7.63-.08-15.27,0-22.91-.07a24,24,0,0,1-4.5-.91l-5.43-5.66a22.54,22.54,0,0,1,3.42-.55c9.92,0,19.84,0,29.76,0,1.42,0,3.47.68,3.44-1.91s-2.07-1.89-3.48-1.89c-11.49-.05-23,0-34.48-.08a22.38,22.38,0,0,1-4.15-.81Z"/><path class="cls-1" d="M92.55,208.8l4-.27.7-4,4.08-.46.88-4.62h6l.57,4.57h10.63l.4-4.51h6.55l.48,4.52,3.83.46.56,4.3,4.11.77v5.86l-4.09.67v10.6l4.05.52v6.46l-3.93.43c-.23,1.21-.46,2.46-.73,3.94-2.61,0-5.06.06-5,3.85,0,.45-3.59,1-5.51,1.49-1.46-5.79-2.15-6-11.37-4.91-1.2,5.06-1.52,5.25-7.23,4l-.44-4L97.38,238c-.2-1.22-.41-2.48-.67-4l-4.27-.8c-.1-.93-.23-1.86-.28-2.8s0-1.91,0-3.12l4.57-.75V216.11C91.56,215.06,91.49,215,92.55,208.8ZM104.15,231h19.66V211.52H104.15Z"/><path class="cls-1" d="M186.1,214.41l5.43,5.66a19.1,19.1,0,0,1-3.93.91c-5.14.1-10.29,0-15.6,0v3.85c1.87,0,3.54,0,5.2,0l19.82.44,5.49,5.81a14.43,14.43,0,0,1-3.48,1c-8.72.12-17.44.12-26.16.18a4,4,0,0,0-1.14.47l.38,3.2c10.85,0,21.38,0,31.91,0a21.2,21.2,0,0,1,4.47,1l4.88,5a7.67,7.67,0,0,1-2.22.72q-22.12.06-44.27,0a13.15,13.15,0,0,1-1.91-.28l-.33-4.57-3.37-.58V231l3.34-.77v-3.18l-3.4-.79v-6.34c2-.33,4.66-.32,3.18-4l-3.19-.77v-6.07l3.39-.86.5-5.16,10.45.5,5.07,5.54a37.68,37.68,0,0,1-5.74.78c-2.79,0-3.66,1-2.74,3.6Z"/><path class="cls-1" d="M111.71,194.39H94.92V150.63h16.79ZM104.14,188l.93-1c.05-.59.14-1.19.15-1.79.14-8.58.33-17.17.32-25.76,0-.83-1.23-1.65-1.89-2.48-.73.86-2.09,1.71-2.11,2.58q-.23,13,.06,26.1C101.62,186.4,103.26,187.18,104.14,188Z"/><path class="cls-1" d="M135.16,159.43v34.89H117.88V159.43Zm-10.33,6.88v21.32l3.3-.37V166.31Z"/><path class="cls-1" d="M169.38,198.86H148.29V177.62h21.09Zm-6.79-7.14v-7.14h-7.45v7.14Z"/><path class="cls-1" d="M192.57,175.53H171.46V154.3h21.11Zm-14.45-14.44v7.45h7.53v-7.45Z"/><path class="cls-1" d="M229.45,160.88H204.31v-6.51h25.14Z"/><path class="cls-1" d="M204.41,166.6h24.66c1.83,5.53,1.05,6.69-4.49,6.7H204.41Z"/><path class="cls-1" d="M204.11,197.3c0-1.46,0-2.64,0-3.83,0-.83.14-1.65.26-2.91,7.94,0,15.78,0,23.61.09.56,0,1.46,1.14,1.58,1.85a31.58,31.58,0,0,1,.07,4.8Z"/><path class="cls-1" d="M229.56,185H204.38v-6.77h20.84c4.62,0,4.62,0,4.48,4.59C229.68,183.45,229.63,184,229.56,185Z"/><path class="cls-1" d="M186.68,195.37c-2,1.63-3.3,3.46-4.35,3.33-1.36-.16-2.52-1.89-3.77-2.94,1.08-1.25,2-3.32,3.3-3.53S184.5,193.85,186.68,195.37Z"/><path class="cls-1" d="M88.29,191.91c-2.25,1.52-3.68,3.21-4.68,3-1.31-.29-3.15-2.1-3.14-3.25s2-3,3.21-3.12S86.16,190.24,88.29,191.91Z"/><path class="cls-1" d="M82.73,165.91c-.83-1.38-2.35-2.81-2.27-4.13.07-1.14,2-3,3.07-3s3.06,1.92,3.09,3c0,1.35-1.56,2.73-2.45,4.1Z"/><path class="cls-1" d="M191.61,181.91c.91,1.28,2.64,2.66,2.5,3.81a4.68,4.68,0,0,1-3.25,3.12c-.93.14-3-1.78-3.08-2.87-.08-1.29,1.47-2.67,2.31-4Z"/><path class="cls-1" d="M88.35,206.74c-2.32,1.52-3.75,3.16-4.75,2.93a4.77,4.77,0,0,1-3.12-3.24c-.12-.92,1.93-3,3-3C84.78,203.45,86.08,205.1,88.35,206.74Z"/><path class="cls-1" d="M84.15,172.27c1.15,2.17,2.48,3.61,2.16,4.29-.61,1.33-2.14,2.24-3.29,3.33-.86-.93-2.58-2.14-2.39-2.74C81.08,175.69,82.43,174.51,84.15,172.27Z"/><path class="cls-2" d="M208.49,237a21.2,21.2,0,0,0-4.47-1c-10.53-.09-21.06,0-31.91,0l-.38-3.2a4,4,0,0,1,1.14-.47c8.72-.06,17.44-.06,26.16-.18a14.43,14.43,0,0,0,3.48-1,30,30,0,0,0,4.8,1c4.33.14,8.67,0,13,.16.82,0,1.6,1.15,2.4,1.77-.79.63-1.54,1.77-2.36,1.82-3.24.22-6.5,0-9.75.16C209.89,236,209.19,236.65,208.49,237Z"/><path class="cls-2" d="M197,225.32l-19.82-.44c-1.66,0-3.33,0-5.2,0V221c5.31,0,10.46.06,15.6,0a19.1,19.1,0,0,0,3.93-.91,24,24,0,0,0,4.5.91c7.64.09,15.28,0,22.91.07,1.5,0,3.93-.74,3.61,2-.09.73-2.22,1.68-3.44,1.71-6.18.18-12.36.06-18.55.11A30.53,30.53,0,0,0,197,225.32Z"/><path class="cls-2" d="M186.1,214.41l-14-.9c-.92-2.62,0-3.63,2.74-3.6a37.68,37.68,0,0,0,5.74-.78,22.38,22.38,0,0,0,4.15.81c11.49.07,23,0,34.48.08,1.41,0,3.46-.69,3.48,1.89s-2,1.9-3.44,1.91c-9.92,0-19.84,0-29.76,0A22.54,22.54,0,0,0,186.1,214.41Z"/><path class="cls-2" d="M104.15,231V211.52h19.66V231Z"/><path class="cls-2" d="M104.14,188c-.88-.8-2.52-1.58-2.54-2.39q-.3-13.05-.06-26.1c0-.87,1.38-1.72,2.11-2.58.66.83,1.89,1.65,1.89,2.48,0,8.59-.18,17.18-.32,25.76,0,.6-.1,1.2-.15,1.79Z"/><path class="cls-2" d="M124.83,166.31h3.3v20.95l-3.3.37Z"/><path class="cls-2" d="M162.59,191.72h-7.45v-7.14h7.45Z"/><path class="cls-2" d="M178.12,161.09h7.53v7.45h-7.53Z"/><path class="cls-2" d="M76.19,358.73a5.81,5.81,0,0,1-5.13-2.44,15.2,15.2,0,0,1,0-13.89A5.78,5.78,0,0,1,76.19,340a6.66,6.66,0,0,1,2.3.35,5.1,5.1,0,0,1,1.68.95,5.42,5.42,0,0,1,1.18,1.42,9.28,9.28,0,0,1,.8,1.75l-2.63.88a12.4,12.4,0,0,0-.47-1.17,3.3,3.3,0,0,0-.65-.93,3.13,3.13,0,0,0-.92-.63,3.39,3.39,0,0,0-1.32-.23,3,3,0,0,0-2.8,1.47,7.72,7.72,0,0,0-.89,4v3.08a7.7,7.7,0,0,0,.89,4,3,3,0,0,0,2.8,1.48,3.21,3.21,0,0,0,1.32-.24,2.93,2.93,0,0,0,.92-.62,3.21,3.21,0,0,0,.65-.94,10.56,10.56,0,0,0,.47-1.17l2.63.89a9.28,9.28,0,0,1-.8,1.75,5.59,5.59,0,0,1-1.18,1.42,5.29,5.29,0,0,1-1.68.95A6.91,6.91,0,0,1,76.19,358.73Z"/><path class="cls-2" d="M85.65,339.18h2.84v8.11h.13a5.05,5.05,0,0,1,.53-1,3.46,3.46,0,0,1,.79-.83,3.8,3.8,0,0,1,1.1-.56,4.52,4.52,0,0,1,1.45-.21A4.28,4.28,0,0,1,95.77,346,5.29,5.29,0,0,1,97,349.79v8.63H94.18V350.2c0-2.13-.93-3.2-2.78-3.2a3.89,3.89,0,0,0-1.07.15,3,3,0,0,0-.93.43,2.2,2.2,0,0,0-.67.72,2.13,2.13,0,0,0-.24,1v9.1H85.65Z"/><path class="cls-2" d="M111.86,358.42a2.45,2.45,0,0,1-1.83-.63,2.69,2.69,0,0,1-.74-1.63h-.13a3.43,3.43,0,0,1-1.42,1.89,4.64,4.64,0,0,1-2.61.68,4.79,4.79,0,0,1-3.28-1.08,3.78,3.78,0,0,1-1.22-3,3.41,3.41,0,0,1,1.44-3,7.66,7.66,0,0,1,4.44-1h2.57v-1c0-1.82-1-2.73-2.89-2.73a3.86,3.86,0,0,0-2.1.51,4.21,4.21,0,0,0-1.35,1.34l-1.69-1.38a4.85,4.85,0,0,1,1.92-1.89,6.79,6.79,0,0,1,3.48-.79,6.08,6.08,0,0,1,4,1.22,4.36,4.36,0,0,1,1.45,3.54v6.73h1.69v2.24Zm-5.93-1.77a3.9,3.9,0,0,0,2.27-.62,1.9,1.9,0,0,0,.88-1.6v-1.94h-2.52c-2,0-3.07.61-3.07,1.83v.52a1.56,1.56,0,0,0,.65,1.36A3.1,3.1,0,0,0,105.93,356.65Z"/><path class="cls-2" d="M116.85,358.42V345h2.84v2.29h.13a5.05,5.05,0,0,1,.53-1,3.46,3.46,0,0,1,.79-.83,3.8,3.8,0,0,1,1.1-.56,4.52,4.52,0,0,1,1.45-.21A4.28,4.28,0,0,1,127,346a5.29,5.29,0,0,1,1.25,3.77v8.63h-2.84V350.2c0-2.13-.93-3.2-2.78-3.2a3.89,3.89,0,0,0-1.07.15,2.93,2.93,0,0,0-.93.43,2.2,2.2,0,0,0-.67.72,2.13,2.13,0,0,0-.24,1v9.1Z"/><path class="cls-2" d="M132.45,358.42V345h2.84v2.29h.13a5.05,5.05,0,0,1,.53-1,3.46,3.46,0,0,1,.79-.83,3.8,3.8,0,0,1,1.1-.56,4.52,4.52,0,0,1,1.45-.21,4.3,4.3,0,0,1,3.28,1.33,5.29,5.29,0,0,1,1.25,3.77v8.63H141V350.2c0-2.13-.93-3.2-2.78-3.2a3.89,3.89,0,0,0-1.07.15,2.93,2.93,0,0,0-.93.43,2.2,2.2,0,0,0-.67.72,2.13,2.13,0,0,0-.24,1v9.1Z"/><path class="cls-2" d="M154,358.73a7.25,7.25,0,0,1-2.75-.49,5.45,5.45,0,0,1-2-1.41,6.14,6.14,0,0,1-1.28-2.2,9.7,9.7,0,0,1,0-5.81,6.73,6.73,0,0,1,1.28-2.22,5.49,5.49,0,0,1,2-1.42,6.58,6.58,0,0,1,2.6-.49,6.5,6.5,0,0,1,2.54.48,5.34,5.34,0,0,1,2,1.37,6,6,0,0,1,1.24,2.1,8.07,8.07,0,0,1,.43,2.71v1.06h-9.62v.44a3.48,3.48,0,0,0,1,2.57,3.69,3.69,0,0,0,2.73,1,4.26,4.26,0,0,0,2.22-.56,4.54,4.54,0,0,0,1.5-1.49l1.76,1.57a5.54,5.54,0,0,1-2.06,2A6.84,6.84,0,0,1,154,358.73Zm-.2-11.88a3.48,3.48,0,0,0-1.39.26,3.1,3.1,0,0,0-1.1.74,3.55,3.55,0,0,0-.71,1.13,3.87,3.87,0,0,0-.26,1.43v.18H157v-.26a3.55,3.55,0,0,0-.89-2.53A3.11,3.11,0,0,0,153.75,346.85Z"/><path class="cls-2" d="M163.42,356.1h4.44V341.49h-4.44v-2.31h7.28V356.1h4.44v2.32H163.42Z"/><path class="cls-2" d="M200.75,358.73a7.25,7.25,0,0,1-2.75-.49,5.57,5.57,0,0,1-2.06-1.41,6.12,6.12,0,0,1-1.27-2.2,8.69,8.69,0,0,1-.44-2.89,8.9,8.9,0,0,1,.45-2.92A6.73,6.73,0,0,1,196,346.6a5.49,5.49,0,0,1,2-1.42,6.58,6.58,0,0,1,2.6-.49,6.5,6.5,0,0,1,2.54.48,5.34,5.34,0,0,1,1.95,1.37,6,6,0,0,1,1.24,2.1,8.07,8.07,0,0,1,.43,2.71v1.06h-9.62v.44a3.48,3.48,0,0,0,1,2.57,3.66,3.66,0,0,0,2.73,1,4.26,4.26,0,0,0,2.22-.56,4.42,4.42,0,0,0,1.49-1.49l1.77,1.57a5.5,5.5,0,0,1-2.07,2A6.78,6.78,0,0,1,200.75,358.73Zm-.2-11.88a3.56,3.56,0,0,0-1.4.26,3.15,3.15,0,0,0-1.09.74,3.55,3.55,0,0,0-.71,1.13,3.68,3.68,0,0,0-.26,1.43v.18h6.73v-.26a3.51,3.51,0,0,0-.9-2.53A3.08,3.08,0,0,0,200.55,346.85Z"/><path class="cls-2" d="M209.41,358.42V345h2.42v1.74H212a4,4,0,0,1,.9-1.45,2.63,2.63,0,0,1,3.32,0,2.86,2.86,0,0,1,.75,1.6h.1a4.44,4.44,0,0,1,1-1.54,2.57,2.57,0,0,1,1.88-.64,2.27,2.27,0,0,1,2.17,1.09,6.8,6.8,0,0,1,.61,3.2v9.44h-2.42v-9.08a3.82,3.82,0,0,0-.34-1.93,1.18,1.18,0,0,0-1.09-.54,1.55,1.55,0,0,0-1.13.46,1.82,1.82,0,0,0-.46,1.36v9.73h-2.41v-9.08a4,4,0,0,0-.33-1.93,1.17,1.17,0,0,0-1.08-.54,1.6,1.6,0,0,0-1.16.46,1.86,1.86,0,0,0-.45,1.36v9.73Z"/><path class="cls-2" d="M234.45,356.13h-.13a5.64,5.64,0,0,1-.53,1,3.32,3.32,0,0,1-.8.83,3.62,3.62,0,0,1-1.09.56,4.59,4.59,0,0,1-1.46.21,4.26,4.26,0,0,1-3.27-1.33,5.29,5.29,0,0,1-1.25-3.77V345h2.83v8.22c0,2.13.93,3.2,2.79,3.2a3.77,3.77,0,0,0,1.06-.15,3,3,0,0,0,.94-.43,2.13,2.13,0,0,0,.66-.71,2,2,0,0,0,.25-1V345h2.83v13.42h-2.83Z"/><path class="cls-2" d="M241.42,356.1h4.44V341.49h-4.44v-2.31h7.28V356.1h4.44v2.32H241.42Z"/><path class="cls-2" d="M267.86,358.42a2.42,2.42,0,0,1-1.83-.63,2.76,2.76,0,0,1-.75-1.63h-.13a3.46,3.46,0,0,1-1.41,1.89,5.45,5.45,0,0,1-5.89-.4,3.75,3.75,0,0,1-1.22-3,3.41,3.41,0,0,1,1.44-3,7.64,7.64,0,0,1,4.43-1h2.58v-1c0-1.82-1-2.73-2.89-2.73a3.9,3.9,0,0,0-2.11.51,4.42,4.42,0,0,0-1.35,1.34L257,347.37a4.81,4.81,0,0,1,1.93-1.89,6.79,6.79,0,0,1,3.48-.79,6,6,0,0,1,4,1.22,4.37,4.37,0,0,1,1.46,3.54v6.73h1.69v2.24Zm-5.93-1.77a3.87,3.87,0,0,0,2.26-.62,1.88,1.88,0,0,0,.89-1.6v-1.94h-2.53q-3.06,0-3.06,1.83v.52a1.54,1.54,0,0,0,.65,1.36A3.1,3.1,0,0,0,261.93,356.65Z"/><path class="cls-2" d="M279.27,358.42a3.3,3.3,0,0,1-2.6-.95,3.6,3.6,0,0,1-.83-2.45v-7.7h-4.13V345h2.93a1.52,1.52,0,0,0,1.07-.3,1.47,1.47,0,0,0,.31-1.08v-3.35h2.65V345h5.72v2.32h-5.72v8.78h5.72v2.32Z"/><path class="cls-2" d="M294.07,358.73a6.87,6.87,0,0,1-2.67-.49,5.42,5.42,0,0,1-2-1.41,6.06,6.06,0,0,1-1.26-2.21,9.63,9.63,0,0,1,0-5.82,6.06,6.06,0,0,1,1.26-2.21,5.42,5.42,0,0,1,2-1.41,7.49,7.49,0,0,1,5.33,0,5.42,5.42,0,0,1,2,1.41A6.06,6.06,0,0,1,300,348.8a9.63,9.63,0,0,1,0,5.82,6.06,6.06,0,0,1-1.26,2.21,5.42,5.42,0,0,1-2,1.41A6.85,6.85,0,0,1,294.07,358.73Zm0-2.24a3.28,3.28,0,0,0,2.48-.95,3.91,3.91,0,0,0,.92-2.82v-2a4,4,0,0,0-.92-2.83,3.75,3.75,0,0,0-5,0,4,4,0,0,0-.92,2.83v2a3.91,3.91,0,0,0,.92,2.82A3.3,3.3,0,0,0,294.07,356.49Z"/><path class="cls-2" d="M303.84,356.1h3.56v-8.78h-3.56V345h6.4v3.56h.15a7,7,0,0,1,.52-1.35,4.18,4.18,0,0,1,.86-1.13,4.13,4.13,0,0,1,1.27-.78,4.83,4.83,0,0,1,1.77-.3h1.61v2.71h-2.65a3.53,3.53,0,0,0-2.54.92,3.19,3.19,0,0,0-1,2.47v5h4.86v2.32H303.84Z"/><path class="cls-2" d="M69.92,376.2h2.84v2.29h.15a4.93,4.93,0,0,1,1.59-1.91,4.21,4.21,0,0,1,2.47-.69,4.56,4.56,0,0,1,3.77,1.77,10.48,10.48,0,0,1,0,10.5A4.56,4.56,0,0,1,77,389.93a4.21,4.21,0,0,1-2.47-.69,4.86,4.86,0,0,1-1.59-1.91h-.15v7.49H69.92Zm5.88,11.42a3.12,3.12,0,0,0,2.48-1,3.85,3.85,0,0,0,.87-2.63v-2.18a3.85,3.85,0,0,0-.87-2.63,3.12,3.12,0,0,0-2.48-1,4.35,4.35,0,0,0-1.17.16,2.87,2.87,0,0,0-1,.47,2.29,2.29,0,0,0-.66.76,2.21,2.21,0,0,0-.25,1.08v4.48a2.21,2.21,0,0,0,.25,1.08,2.29,2.29,0,0,0,.66.76,2.87,2.87,0,0,0,1,.47A4.35,4.35,0,0,0,75.8,387.62Z"/><path class="cls-2" d="M95.2,376.2h2.86l-6.5,16a4.64,4.64,0,0,1-1.37,1.95,3.93,3.93,0,0,1-2.43.65H85.5V392.5h3.17l1.22-3.06L84.48,376.2h3l2.13,5.62,1.66,4.6h.16l1.66-4.6Z"/><path class="cls-2" d="M107.68,389.62a3.28,3.28,0,0,1-2.6-.95,3.56,3.56,0,0,1-.84-2.45v-7.7h-4.13V376.2h2.94a1.49,1.49,0,0,0,1.06-.3,1.47,1.47,0,0,0,.32-1.08v-3.35h2.65v4.73h5.72v2.32h-5.72v8.78h5.72v2.32Z"/><path class="cls-2" d="M116.85,370.38h2.84v8.11h.13a5.05,5.05,0,0,1,.53-1,3.46,3.46,0,0,1,.79-.83,3.8,3.8,0,0,1,1.1-.56,4.52,4.52,0,0,1,1.45-.21,4.28,4.28,0,0,1,3.28,1.33,5.29,5.29,0,0,1,1.25,3.77v8.63h-2.84V381.4c0-2.13-.93-3.2-2.78-3.2a3.89,3.89,0,0,0-1.07.15,2.93,2.93,0,0,0-.93.43,2.2,2.2,0,0,0-.67.72,2.13,2.13,0,0,0-.24,1v9.1h-2.84Z"/><path class="cls-2" d="M138.07,389.93a6.87,6.87,0,0,1-2.67-.49,5.51,5.51,0,0,1-2-1.41,6.36,6.36,0,0,1-1.26-2.21,9.84,9.84,0,0,1,0-5.82,6.45,6.45,0,0,1,1.26-2.21,5.51,5.51,0,0,1,2-1.41,7.49,7.49,0,0,1,5.33,0,5.54,5.54,0,0,1,2,1.41A6.45,6.45,0,0,1,144,380a9.84,9.84,0,0,1,0,5.82,6.36,6.36,0,0,1-1.26,2.21,5.54,5.54,0,0,1-2,1.41A6.82,6.82,0,0,1,138.07,389.93Zm0-2.24a3.26,3.26,0,0,0,2.48-.95,3.87,3.87,0,0,0,.93-2.82v-2a3.91,3.91,0,0,0-.93-2.83,3.74,3.74,0,0,0-5,0,3.91,3.91,0,0,0-.93,2.83v2a3.87,3.87,0,0,0,.93,2.82A3.26,3.26,0,0,0,138.07,387.69Z"/><path class="cls-2" d="M148.05,389.62V376.2h2.84v2.29H151a4.58,4.58,0,0,1,.53-1,3.46,3.46,0,0,1,.79-.83,3.68,3.68,0,0,1,1.1-.56,4.52,4.52,0,0,1,1.45-.21,4.3,4.3,0,0,1,3.28,1.33,5.29,5.29,0,0,1,1.24,3.77v8.63h-2.83V381.4c0-2.13-.93-3.2-2.78-3.2a3.89,3.89,0,0,0-1.07.15,2.93,2.93,0,0,0-.93.43,2.2,2.2,0,0,0-.67.72,2.13,2.13,0,0,0-.24,1v9.1Z"/><path class="cls-2" d="M184.89,389.93a9.13,9.13,0,0,1-3.75-.7,6.81,6.81,0,0,1-2.54-1.87l1.74-1.56a5.79,5.79,0,0,0,4.61,2,4.49,4.49,0,0,0,2.22-.47,1.54,1.54,0,0,0,.84-1.45,1.48,1.48,0,0,0-.15-.7,1.32,1.32,0,0,0-.44-.47,2.56,2.56,0,0,0-.67-.29,4.81,4.81,0,0,0-.79-.15l-2.13-.34a10.52,10.52,0,0,1-1.59-.34,5.28,5.28,0,0,1-1.44-.66,3.45,3.45,0,0,1-1-1.11,3.28,3.28,0,0,1-.4-1.71,3.52,3.52,0,0,1,1.57-3.12,7.28,7.28,0,0,1,4.15-1.07,8.56,8.56,0,0,1,3.23.56,6.28,6.28,0,0,1,2.28,1.55L189,379.66a5.15,5.15,0,0,0-1.48-1.11,5.58,5.58,0,0,0-2.55-.5c-1.89,0-2.83.6-2.83,1.79a1.2,1.2,0,0,0,.61,1.18,4.12,4.12,0,0,0,1.44.43l2.13.34c.54.09,1.07.2,1.6.34a4.53,4.53,0,0,1,1.43.64,3.17,3.17,0,0,1,1.45,2.82,3.73,3.73,0,0,1-1.58,3.18A7.18,7.18,0,0,1,184.89,389.93Z"/><path class="cls-2" d="M200.75,389.93a7.25,7.25,0,0,1-2.75-.49,5.57,5.57,0,0,1-2.06-1.41,6.12,6.12,0,0,1-1.27-2.2,8.69,8.69,0,0,1-.44-2.89,8.9,8.9,0,0,1,.45-2.92A6.73,6.73,0,0,1,196,377.8a5.49,5.49,0,0,1,2-1.42,6.58,6.58,0,0,1,2.6-.49,6.5,6.5,0,0,1,2.54.48,5.34,5.34,0,0,1,1.95,1.37,6,6,0,0,1,1.24,2.1,8.07,8.07,0,0,1,.43,2.71v1.06h-9.62v.44a3.48,3.48,0,0,0,1,2.57,3.66,3.66,0,0,0,2.73,1,4.26,4.26,0,0,0,2.22-.56,4.42,4.42,0,0,0,1.49-1.49l1.77,1.57a5.5,5.5,0,0,1-2.07,2A6.78,6.78,0,0,1,200.75,389.93Zm-.2-11.88a3.56,3.56,0,0,0-1.4.26,3.15,3.15,0,0,0-1.09.74,3.55,3.55,0,0,0-.71,1.13,3.68,3.68,0,0,0-.26,1.43v.18h6.73v-.26a3.53,3.53,0,0,0-.9-2.53A3.08,3.08,0,0,0,200.55,378.05Z"/><path class="cls-2" d="M210.24,387.3h3.57v-8.78h-3.57V376.2h6.4v3.56h.16a6.37,6.37,0,0,1,.52-1.35,4.14,4.14,0,0,1,.85-1.13,4.06,4.06,0,0,1,1.28-.78,4.75,4.75,0,0,1,1.77-.3h1.61v2.71h-2.65a3.57,3.57,0,0,0-2.55.92,3.19,3.19,0,0,0-1,2.47v5h4.86v2.32H210.24Z"/><path class="cls-2" d="M229.92,389.62l-4.81-13.42h2.94l1.85,5.67,1.74,5.38h.16l1.74-5.38,1.84-5.67h2.84l-4.81,13.42Z"/><path class="cls-2" d="M247.55,389.93a7.25,7.25,0,0,1-2.75-.49,5.57,5.57,0,0,1-2.06-1.41,6.12,6.12,0,0,1-1.27-2.2,8.69,8.69,0,0,1-.44-2.89,8.9,8.9,0,0,1,.45-2.92,6.57,6.57,0,0,1,1.28-2.22,5.45,5.45,0,0,1,2-1.42,6.62,6.62,0,0,1,2.6-.49,6.51,6.51,0,0,1,2.55.48,5.43,5.43,0,0,1,2,1.37,6,6,0,0,1,1.24,2.1,8.33,8.33,0,0,1,.43,2.71v1.06h-9.62v.44a3.51,3.51,0,0,0,1,2.57,3.69,3.69,0,0,0,2.73,1,4.27,4.27,0,0,0,2.23-.56,4.42,4.42,0,0,0,1.49-1.49l1.77,1.57a5.5,5.5,0,0,1-2.07,2A6.78,6.78,0,0,1,247.55,389.93Zm-.21-11.88a3.55,3.55,0,0,0-1.39.26,3.06,3.06,0,0,0-1.09.74,3.55,3.55,0,0,0-.71,1.13,3.68,3.68,0,0,0-.26,1.43v.18h6.73v-.26a3.53,3.53,0,0,0-.9-2.53A3.08,3.08,0,0,0,247.34,378.05Z"/><path class="cls-2" d="M257,387.3h3.56v-8.78H257V376.2h6.4v3.56h.15a7.67,7.67,0,0,1,.52-1.35,4.18,4.18,0,0,1,.86-1.13,4.06,4.06,0,0,1,1.28-.78,4.73,4.73,0,0,1,1.76-.3h1.62v2.71H267a3.53,3.53,0,0,0-2.54.92,3.19,3.19,0,0,0-1,2.47v5h4.86v2.32H257Z"/><path class="cls-3" d="M528.22,96.67a100.76,100.76,0,0,1,100.64,95.86L602,178.9"/><path class="cls-3" d="M414,219.33l13.51-19.59a100.76,100.76,0,0,0,100.73,98.45"/><path class="cls-1" d="M489.72,242.26l-1-.43a3.33,3.33,0,0,1-2.16-3.26q0-40.45,0-80.89a9.14,9.14,0,0,1,.3-2.33,3.59,3.59,0,0,1,3.62-2.74H535.2a3.07,3.07,0,0,1,2.27,1c5.91,5.9,11.82,11.79,17.69,17.73a5.08,5.08,0,0,1,1,2.07,6.28,6.28,0,0,1,.09,1.74V238c0,2.46-.51,3.21-2.8,4.13l-.3.17Zm44.83-86.55h-43c-1.73,0-1.85.11-1.86,1.88V212.8h63.33V174.31H535a5.73,5.73,0,0,1,1.16,3.93c0,1.61,0,3.21,0,4.82,0,2.16.9,3.2,3,3.54,1,.16,1.57.7,1.56,1.57s-.56,1.4-1.58,1.54a3.1,3.1,0,0,0-3,3.48c0,1.86,0,3.73,0,5.6a4.65,4.65,0,0,1-4.29,4.78c-1.08.05-1.74-.41-1.85-1.29s.36-1.5,1.43-1.73c1.25-.28,1.59-.7,1.59-2,0-1.78,0-3.56,0-5.34a6.56,6.56,0,0,1,1.22-4c.27-.37.59-.7.91-1.07a6.84,6.84,0,0,1-2.14-5.67c0-1.4,0-2.8,0-4.2,0-1.92-.07-2-1.91-2.53a1.46,1.46,0,0,1-1.12-1.64,1.33,1.33,0,0,1,1.38-1.31,15.72,15.72,0,0,1,2.57.68,3.37,3.37,0,0,1,.62.35ZM489.72,216v21.73c0,1.28.11,1.39,1.41,1.39h60.58c1.3,0,1.41-.11,1.41-1.38V216Zm48-57.64v12.69h12.68Z"/><path class="cls-1" d="M506.11,188.16a6.83,6.83,0,0,1,2.18,5.78c0,1.54,0,3.09,0,4.64,0,1.23.37,1.69,1.54,1.95s1.63.85,1.48,1.77-.81,1.34-2,1.26a4.65,4.65,0,0,1-4.17-4.88c0-1.84,0-3.68,0-5.52a3.09,3.09,0,0,0-3-3.45c-1-.14-1.57-.72-1.56-1.56a1.57,1.57,0,0,1,1.5-1.54c2.28-.4,3.07-1.35,3.1-3.66,0-2.13-.05-4.26.13-6.38a4.42,4.42,0,0,1,4.32-3.84,1.5,1.5,0,0,1,1.69,1.29,1.48,1.48,0,0,1-1.34,1.72c-1.4.33-1.69.71-1.7,2.19s0,2.8,0,4.2C508.37,184.4,508,186.49,506.11,188.16Z"/><path class="cls-1" d="M522.16,195.1c0,.79,0,1.57,0,2.36a1.52,1.52,0,0,1-1.5,1.51,1.54,1.54,0,0,1-1.53-1.58c0-1.51,0-3,0-4.54a1.48,1.48,0,0,1,1.51-1.57,1.5,1.5,0,0,1,1.53,1.55,1.09,1.09,0,0,1,0,.18v2.09Z"/><path class="cls-1" d="M520.66,180.44a2.39,2.39,0,0,1,2.31,2.28,2.32,2.32,0,0,1-4.64.05A2.39,2.39,0,0,1,520.66,180.44Z"/><path class="cls-1" d="M547.14,236.09a16.63,16.63,0,0,1-2.13,0,1.27,1.27,0,0,1-.72-.62c-1.71-2.95-3.39-5.92-5.07-8.88a2.37,2.37,0,0,0-.65-.8V236H536V220.52a20.89,20.89,0,0,1,2.24,0c.23,0,.5.34.64.59,1.73,3,3.43,6,5.15,9,.14.24.29.47.58.92V220.59h2.53Z"/><path class="cls-1" d="M532.46,228.31c-.14,2.22-.54,4.34-2.13,6a6.2,6.2,0,0,1-10.45-2.74,11.09,11.09,0,0,1,.3-7.45,6,6,0,0,1,5.9-3.85,6.15,6.15,0,0,1,5.83,4.7C532.18,226.05,532.28,227.19,532.46,228.31Zm-10.65-.09a30.67,30.67,0,0,0,.85,3.58,3.19,3.19,0,0,0,3.18,2.28,3.29,3.29,0,0,0,3.26-2.21,9.62,9.62,0,0,0,0-7.32,3.43,3.43,0,0,0-6.44.1A33.77,33.77,0,0,0,521.81,228.22Z"/><path class="cls-1" d="M508.44,233.55c1.51.17,2.93.4,4.36.47a1.73,1.73,0,0,0,1.75-1.34,2,2,0,0,0-.61-2.37c-.63-.46-1.33-.83-2-1.24a19.19,19.19,0,0,1-2.29-1.44,4,4,0,0,1,1.14-7,7.28,7.28,0,0,1,5.63.29l-.86,1.72a25.86,25.86,0,0,0-2.64-.26,2.37,2.37,0,0,0-2.3,1.7,2.08,2.08,0,0,0,1.2,2.39c1.07.64,2.23,1.13,3.3,1.79a3.83,3.83,0,0,1,1.91,3.85,4.14,4.14,0,0,1-2.47,3.46,6.6,6.6,0,0,1-3.77.46,6.17,6.17,0,0,1-1.19-.26C507.92,235.29,507.78,235,508.44,233.55Z"/><path class="cls-1" d="M495.91,233.2c1.07.27,2,.59,3,.75,2,.32,2.92-.52,2.92-2.51V220.23h2.58v.82c0,3.61,0,7.23,0,10.84,0,2.69-1.34,4.08-4,4.25a8.94,8.94,0,0,1-5.46-1.42Z"/><path class="cls-2" d="M408,358.73a8.82,8.82,0,0,1-4-.82,7.6,7.6,0,0,1-2.65-2.2l1.87-1.79a7,7,0,0,0,2.21,1.83,5.87,5.87,0,0,0,2.65.59,3.91,3.91,0,0,0,2.64-.79,2.77,2.77,0,0,0,.92-2.25,2.4,2.4,0,0,0-.67-1.82,4.46,4.46,0,0,0-2.31-.93l-2-.31a6.74,6.74,0,0,1-2.18-.69,4.74,4.74,0,0,1-1.43-1.14,4.18,4.18,0,0,1-.8-1.48,6.13,6.13,0,0,1-.24-1.73,4.73,4.73,0,0,1,1.66-3.91,7.12,7.12,0,0,1,4.58-1.33,9,9,0,0,1,3.67.68,6,6,0,0,1,2.46,1.92l-1.82,1.82a6,6,0,0,0-1.78-1.47,5.26,5.26,0,0,0-2.53-.56,3.8,3.8,0,0,0-2.46.69,2.47,2.47,0,0,0-.85,2,2.33,2.33,0,0,0,.67,1.77,4.44,4.44,0,0,0,2.35.93l1.92.34a5.83,5.83,0,0,1,3.57,1.78,4.92,4.92,0,0,1,1.11,3.26,5.83,5.83,0,0,1-.43,2.28,4.66,4.66,0,0,1-1.27,1.77,6.1,6.1,0,0,1-2.08,1.13A9,9,0,0,1,408,358.73Z"/><path class="cls-2" d="M424.07,358.73a7.25,7.25,0,0,1-2.75-.49,5.57,5.57,0,0,1-2.06-1.41,6.12,6.12,0,0,1-1.27-2.2,8.68,8.68,0,0,1-.45-2.89,8.9,8.9,0,0,1,.46-2.92,6.71,6.71,0,0,1,1.27-2.22,5.58,5.58,0,0,1,2-1.42,6.62,6.62,0,0,1,2.6-.49,6.51,6.51,0,0,1,2.55.48,5.51,5.51,0,0,1,1.95,1.37,6,6,0,0,1,1.24,2.1,8.33,8.33,0,0,1,.43,2.71v1.06H420.4v.44a3.48,3.48,0,0,0,1,2.57,3.69,3.69,0,0,0,2.73,1,4.27,4.27,0,0,0,2.23-.56,4.42,4.42,0,0,0,1.49-1.49l1.77,1.57a5.5,5.5,0,0,1-2.07,2A6.8,6.8,0,0,1,424.07,358.73Zm-.21-11.88a3.55,3.55,0,0,0-1.39.26,3.06,3.06,0,0,0-1.09.74,3.76,3.76,0,0,0-.72,1.13,3.87,3.87,0,0,0-.26,1.43v.18h6.74v-.26a3.51,3.51,0,0,0-.9-2.53A3.1,3.1,0,0,0,423.86,346.85Z"/><path class="cls-2" d="M433.77,358.42V345h2.83v2.29h.13a5.1,5.1,0,0,1,.54-1,3.28,3.28,0,0,1,.79-.83,3.62,3.62,0,0,1,1.09-.56,4.59,4.59,0,0,1,1.46-.21,4.26,4.26,0,0,1,3.27,1.33,5.29,5.29,0,0,1,1.25,3.77v8.63H442.3V350.2c0-2.13-.93-3.2-2.79-3.2a3.82,3.82,0,0,0-1.06.15,3,3,0,0,0-.94.43,2.07,2.07,0,0,0-.66.72,2,2,0,0,0-.25,1v9.1Z"/><path class="cls-2" d="M457.9,356.13h-.16a4.93,4.93,0,0,1-1.59,1.91,4.19,4.19,0,0,1-2.47.69,4.58,4.58,0,0,1-3.77-1.77,10.54,10.54,0,0,1,0-10.5,4.58,4.58,0,0,1,3.77-1.77,4.19,4.19,0,0,1,2.47.69,4.93,4.93,0,0,1,1.59,1.91h.16v-8.11h2.83v19.24H457.9Zm-3,.29a4.35,4.35,0,0,0,1.17-.16,2.83,2.83,0,0,0,1-.47,2.46,2.46,0,0,0,.66-.77,2.25,2.25,0,0,0,.25-1.07v-4.48a2.33,2.33,0,0,0-.25-1.08,2.54,2.54,0,0,0-.66-.76,2.83,2.83,0,0,0-1-.47,4.35,4.35,0,0,0-1.17-.16,3.13,3.13,0,0,0-2.48,1,3.85,3.85,0,0,0-.87,2.63v2.18a3.85,3.85,0,0,0,.87,2.63A3.13,3.13,0,0,0,454.85,356.42Z"/><path class="cls-2" d="M486.21,358.73a9.14,9.14,0,0,1-3.76-.7,6.78,6.78,0,0,1-2.53-1.87l1.74-1.56a6.23,6.23,0,0,0,2,1.47,6.36,6.36,0,0,0,2.61.5,4.46,4.46,0,0,0,2.22-.47,1.53,1.53,0,0,0,.85-1.45,1.37,1.37,0,0,0-.16-.7,1.24,1.24,0,0,0-.44-.47,2.49,2.49,0,0,0-.66-.29,5,5,0,0,0-.79-.15l-2.14-.34a10.15,10.15,0,0,1-1.58-.34,5.49,5.49,0,0,1-1.45-.66,3.56,3.56,0,0,1-1-1.11,3.38,3.38,0,0,1-.4-1.71,3.55,3.55,0,0,1,1.57-3.12,7.3,7.3,0,0,1,4.15-1.07,8.58,8.58,0,0,1,3.24.56,6.15,6.15,0,0,1,2.27,1.55l-1.58,1.66a5.15,5.15,0,0,0-1.48-1.11,5.64,5.64,0,0,0-2.55-.5c-1.89,0-2.84.6-2.84,1.79a1.22,1.22,0,0,0,.61,1.18,4.11,4.11,0,0,0,1.45.43l2.13.34c.54.09,1.07.2,1.6.34a4.63,4.63,0,0,1,1.43.64,3.43,3.43,0,0,1,1,1.1,3.29,3.29,0,0,1,.4,1.72,3.72,3.72,0,0,1-1.57,3.18A7.18,7.18,0,0,1,486.21,358.73Z"/><path class="cls-2" d="M496.61,356.1h4.58v-8.78h-4.58V345H504v11.1h4.29v2.32h-11.7Zm6-13.54a2.12,2.12,0,0,1-1.52-.44,1.55,1.55,0,0,1-.43-1.1v-.54a1.51,1.51,0,0,1,.43-1.09,2,2,0,0,1,1.5-.45,2.06,2.06,0,0,1,1.52.45,1.47,1.47,0,0,1,.43,1.09V341a1.51,1.51,0,0,1-.43,1.1A2.07,2.07,0,0,1,502.61,342.56Z"/><path class="cls-2" d="M510.73,358.42V345h2.41v1.74h.14a3.89,3.89,0,0,1,.89-1.45,2.64,2.64,0,0,1,3.33,0,2.78,2.78,0,0,1,.74,1.6h.1a4.6,4.6,0,0,1,1-1.54,2.54,2.54,0,0,1,1.87-.64,2.27,2.27,0,0,1,2.17,1.09A6.68,6.68,0,0,1,524,349v9.44h-2.42v-9.08a4,4,0,0,0-.33-1.93,1.2,1.2,0,0,0-1.1-.54,1.56,1.56,0,0,0-1.13.46,1.86,1.86,0,0,0-.45,1.36v9.73h-2.42v-9.08a4.11,4.11,0,0,0-.32-1.93,1.17,1.17,0,0,0-1.08-.54,1.58,1.58,0,0,0-1.16.46,1.86,1.86,0,0,0-.46,1.36v9.73Z"/><path class="cls-2" d="M535.76,356.13h-.13a4.58,4.58,0,0,1-.53,1,3.46,3.46,0,0,1-.79.83,3.74,3.74,0,0,1-1.09.56,4.59,4.59,0,0,1-1.46.21,4.3,4.3,0,0,1-3.28-1.33,5.29,5.29,0,0,1-1.24-3.77V345h2.83v8.22c0,2.13.93,3.2,2.78,3.2a3.84,3.84,0,0,0,1.07-.15,2.84,2.84,0,0,0,.93-.43,2.27,2.27,0,0,0,.67-.71,2.09,2.09,0,0,0,.24-1V345h2.84v13.42h-2.84Z"/><path class="cls-2" d="M542.73,356.1h4.45V341.49h-4.45v-2.31H550V356.1h4.45v2.32H542.73Z"/><path class="cls-2" d="M569.17,358.42a2.45,2.45,0,0,1-1.83-.63,2.75,2.75,0,0,1-.74-1.63h-.13a3.43,3.43,0,0,1-1.42,1.89,4.64,4.64,0,0,1-2.61.68,4.79,4.79,0,0,1-3.28-1.08,3.78,3.78,0,0,1-1.22-3,3.41,3.41,0,0,1,1.44-3,7.68,7.68,0,0,1,4.44-1h2.57v-1q0-2.73-2.88-2.73a3.9,3.9,0,0,0-2.11.51,4.21,4.21,0,0,0-1.35,1.34l-1.69-1.38a4.85,4.85,0,0,1,1.92-1.89,6.81,6.81,0,0,1,3.49-.79,6.07,6.07,0,0,1,4,1.22,4.37,4.37,0,0,1,1.46,3.54v6.73h1.69v2.24Zm-5.92-1.77a3.89,3.89,0,0,0,2.26-.62,1.87,1.87,0,0,0,.88-1.6v-1.94h-2.52c-2,0-3.07.61-3.07,1.83v.52a1.56,1.56,0,0,0,.65,1.36A3.11,3.11,0,0,0,563.25,356.65Z"/><path class="cls-2" d="M580.59,358.42a3.28,3.28,0,0,1-2.6-.95,3.56,3.56,0,0,1-.84-2.45v-7.7H573V345H576a1.54,1.54,0,0,0,1.07-.3,1.51,1.51,0,0,0,.31-1.08v-3.35H580V345h5.72v2.32H580v8.78h5.72v2.32Z"/><path class="cls-2" d="M590.21,356.1h4.57v-8.78h-4.57V345h7.41v11.1h4.29v2.32h-11.7Zm6-13.54a2.11,2.11,0,0,1-1.52-.44,1.55,1.55,0,0,1-.43-1.1v-.54a1.51,1.51,0,0,1,.43-1.09,2,2,0,0,1,1.5-.45,2.08,2.08,0,0,1,1.52.45,1.51,1.51,0,0,1,.43,1.09V341a1.55,1.55,0,0,1-.43,1.1A2.08,2.08,0,0,1,596.21,342.56Z"/><path class="cls-2" d="M611,358.73a6.78,6.78,0,0,1-2.66-.49,5.54,5.54,0,0,1-2-1.41,6.36,6.36,0,0,1-1.26-2.21,9.84,9.84,0,0,1,0-5.82,6.36,6.36,0,0,1,1.26-2.21,5.54,5.54,0,0,1,2-1.41,6.78,6.78,0,0,1,2.66-.49,6.87,6.87,0,0,1,2.67.49,5.59,5.59,0,0,1,2,1.41,6.36,6.36,0,0,1,1.26,2.21,9.84,9.84,0,0,1,0,5.82,6.36,6.36,0,0,1-1.26,2.21,5.59,5.59,0,0,1-2,1.41A6.87,6.87,0,0,1,611,358.73Zm0-2.24a3.26,3.26,0,0,0,2.48-.95,3.87,3.87,0,0,0,.93-2.82v-2a3.91,3.91,0,0,0-.93-2.83,3.74,3.74,0,0,0-5,0,3.91,3.91,0,0,0-.93,2.83v2a3.87,3.87,0,0,0,.93,2.82A3.26,3.26,0,0,0,611,356.49Z"/><path class="cls-2" d="M621,358.42V345h2.84v2.29h.13a5.05,5.05,0,0,1,.53-1,3.46,3.46,0,0,1,.79-.83,3.8,3.8,0,0,1,1.1-.56,4.52,4.52,0,0,1,1.45-.21,4.28,4.28,0,0,1,3.28,1.33,5.29,5.29,0,0,1,1.25,3.77v8.63h-2.84V350.2c0-2.13-.93-3.2-2.78-3.2a3.89,3.89,0,0,0-1.07.15,2.93,2.93,0,0,0-.93.43,2.2,2.2,0,0,0-.67.72,2.13,2.13,0,0,0-.24,1v9.1Z"/><path class="cls-2" d="M403,387.3h4.58v-8.78H403V376.2h7.41v11.1h4.29v2.32H403Zm6-13.54a2.09,2.09,0,0,1-1.52-.44,1.51,1.51,0,0,1-.43-1.1v-.54a1.47,1.47,0,0,1,.43-1.09,2,2,0,0,1,1.49-.45,2,2,0,0,1,1.52.45,1.47,1.47,0,0,1,.43,1.09v.54a1.51,1.51,0,0,1-.43,1.1A2,2,0,0,1,409,373.76Z"/><path class="cls-2" d="M418.17,389.62V376.2H421v2.29h.13a5.1,5.1,0,0,1,.54-1,3.28,3.28,0,0,1,.79-.83,3.74,3.74,0,0,1,1.09-.56,4.59,4.59,0,0,1,1.46-.21,4.26,4.26,0,0,1,3.27,1.33,5.29,5.29,0,0,1,1.25,3.77v8.63H426.7V381.4c0-2.13-.93-3.2-2.79-3.2a3.82,3.82,0,0,0-1.06.15,3,3,0,0,0-.94.43,2.17,2.17,0,0,0-.66.72,2,2,0,0,0-.25,1v9.1Z"/><path class="cls-2" d="M433.61,387.3h4.29v-8.78h-4.55V376.2h4.55v-2.42a3.6,3.6,0,0,1,.83-2.45,3.28,3.28,0,0,1,2.6-.95h4.53v2.31h-5.12v3.51h5.12v2.32h-5.12v8.78h4.52v2.32H433.61Z"/><path class="cls-2" d="M455,389.93a6.85,6.85,0,0,1-2.66-.49,5.42,5.42,0,0,1-2-1.41,6.06,6.06,0,0,1-1.26-2.21,9.63,9.63,0,0,1,0-5.82,6.14,6.14,0,0,1,1.26-2.21,5.42,5.42,0,0,1,2-1.41,7.49,7.49,0,0,1,5.33,0,5.42,5.42,0,0,1,2,1.41,6.14,6.14,0,0,1,1.26,2.21,9.84,9.84,0,0,1,0,5.82,6.06,6.06,0,0,1-1.26,2.21,5.42,5.42,0,0,1-2,1.41A6.87,6.87,0,0,1,455,389.93Zm0-2.24a3.3,3.3,0,0,0,2.49-.95,3.91,3.91,0,0,0,.92-2.82v-2a4,4,0,0,0-.92-2.83,3.75,3.75,0,0,0-5,0,4,4,0,0,0-.92,2.83v2a3.91,3.91,0,0,0,.92,2.82A3.28,3.28,0,0,0,455,387.69Z"/><path class="cls-2" d="M464.76,387.3h3.56v-8.78h-3.56V376.2h6.4v3.56h.15a7,7,0,0,1,.52-1.35,4.18,4.18,0,0,1,.86-1.13,4.13,4.13,0,0,1,1.27-.78,4.83,4.83,0,0,1,1.77-.3h1.61v2.71h-2.65a3.57,3.57,0,0,0-2.55.92,3.19,3.19,0,0,0-1,2.47v5H476v2.32H464.76Z"/><path class="cls-2" d="M479.53,389.62V376.2h2.41v1.74h.14a3.89,3.89,0,0,1,.89-1.45,2.24,2.24,0,0,1,1.68-.6,2.19,2.19,0,0,1,1.65.59,2.72,2.72,0,0,1,.74,1.59h.11a4.44,4.44,0,0,1,1-1.54,2.54,2.54,0,0,1,1.87-.64A2.27,2.27,0,0,1,492.2,377a6.68,6.68,0,0,1,.61,3.2v9.44H490.4v-9.08a3.93,3.93,0,0,0-.34-1.93,1.2,1.2,0,0,0-1.09-.54,1.57,1.57,0,0,0-1.14.46,1.86,1.86,0,0,0-.45,1.36v9.73H485v-9.08a4.11,4.11,0,0,0-.32-1.93,1.17,1.17,0,0,0-1.08-.54,1.58,1.58,0,0,0-1.16.46,1.86,1.86,0,0,0-.46,1.36v9.73Z"/><path class="cls-2" d="M506.78,389.62a2.46,2.46,0,0,1-1.84-.63,2.75,2.75,0,0,1-.74-1.63h-.13a3.43,3.43,0,0,1-1.42,1.89,4.64,4.64,0,0,1-2.61.68,4.74,4.74,0,0,1-3.27-1.08,3.75,3.75,0,0,1-1.23-3,3.4,3.4,0,0,1,1.45-3,7.64,7.64,0,0,1,4.43-1H504v-1q0-2.73-2.88-2.73a3.9,3.9,0,0,0-2.11.51,4.21,4.21,0,0,0-1.35,1.34L496,378.57a4.85,4.85,0,0,1,1.92-1.89,6.83,6.83,0,0,1,3.49-.79,6,6,0,0,1,4,1.22,4.38,4.38,0,0,1,1.46,3.54v6.73h1.69v2.24Zm-5.93-1.77a3.87,3.87,0,0,0,2.26-.62,1.87,1.87,0,0,0,.88-1.6v-1.94h-2.52c-2,0-3.07.61-3.07,1.83V386a1.56,1.56,0,0,0,.65,1.36A3.13,3.13,0,0,0,500.85,387.85Z"/><path class="cls-2" d="M518.19,389.62a3.28,3.28,0,0,1-2.6-.95,3.55,3.55,0,0,1-.83-2.45v-7.7h-4.14V376.2h2.94a1.54,1.54,0,0,0,1.07-.3,1.51,1.51,0,0,0,.31-1.08v-3.35h2.65v4.73h5.72v2.32h-5.72v8.78h5.72v2.32Z"/><path class="cls-2" d="M527.81,387.3h4.57v-8.78h-4.57V376.2h7.41v11.1h4.29v2.32h-11.7Zm6-13.54a2.12,2.12,0,0,1-1.52-.44,1.55,1.55,0,0,1-.43-1.1v-.54a1.51,1.51,0,0,1,.43-1.09,2,2,0,0,1,1.5-.45,2.06,2.06,0,0,1,1.52.45,1.47,1.47,0,0,1,.43,1.09v.54a1.51,1.51,0,0,1-.43,1.1A2.07,2.07,0,0,1,533.81,373.76Z"/><path class="cls-2" d="M548.58,389.93a6.82,6.82,0,0,1-2.66-.49,5.54,5.54,0,0,1-2-1.41,6.36,6.36,0,0,1-1.26-2.21,9.84,9.84,0,0,1,0-5.82,6.45,6.45,0,0,1,1.26-2.21,5.54,5.54,0,0,1,2-1.41,7.49,7.49,0,0,1,5.33,0,5.51,5.51,0,0,1,2,1.41,6.45,6.45,0,0,1,1.26,2.21,9.84,9.84,0,0,1,0,5.82,6.36,6.36,0,0,1-1.26,2.21,5.51,5.51,0,0,1-2,1.41A6.87,6.87,0,0,1,548.58,389.93Zm0-2.24a3.3,3.3,0,0,0,2.49-.95,3.91,3.91,0,0,0,.92-2.82v-2a4,4,0,0,0-.92-2.83,3.33,3.33,0,0,0-2.49-.94,3.29,3.29,0,0,0-2.48.94,3.91,3.91,0,0,0-.92,2.83v2a3.86,3.86,0,0,0,.92,2.82A3.26,3.26,0,0,0,548.58,387.69Z"/><path class="cls-2" d="M558.57,389.62V376.2h2.83v2.29h.13a5.64,5.64,0,0,1,.53-1,3.32,3.32,0,0,1,.8-.83,3.62,3.62,0,0,1,1.09-.56,4.52,4.52,0,0,1,1.45-.21,4.27,4.27,0,0,1,3.28,1.33,5.29,5.29,0,0,1,1.25,3.77v8.63h-2.84V381.4c0-2.13-.92-3.2-2.78-3.2a3.77,3.77,0,0,0-1.06.15,3,3,0,0,0-.94.43,2.07,2.07,0,0,0-.66.72,2,2,0,0,0-.25,1v9.1Z"/><path class="cls-2" d="M600.37,389.62a2.45,2.45,0,0,1-1.83-.63,2.75,2.75,0,0,1-.74-1.63h-.13a3.43,3.43,0,0,1-1.42,1.89,4.64,4.64,0,0,1-2.61.68,4.79,4.79,0,0,1-3.28-1.08,3.78,3.78,0,0,1-1.22-3,3.41,3.41,0,0,1,1.44-3,7.68,7.68,0,0,1,4.44-1h2.57v-1c0-1.82-1-2.73-2.89-2.73a3.89,3.89,0,0,0-2.1.51,4.21,4.21,0,0,0-1.35,1.34l-1.69-1.38a4.85,4.85,0,0,1,1.92-1.89,6.79,6.79,0,0,1,3.48-.79,6.08,6.08,0,0,1,4,1.22,4.37,4.37,0,0,1,1.45,3.54v6.73h1.69v2.24Zm-5.93-1.77a3.9,3.9,0,0,0,2.27-.62,1.87,1.87,0,0,0,.88-1.6v-1.94h-2.52c-2.05,0-3.07.61-3.07,1.83V386a1.56,1.56,0,0,0,.65,1.36A3.1,3.1,0,0,0,594.44,387.85Z"/><path class="cls-2" d="M611,389.93a9.14,9.14,0,0,1-3.76-.7,6.9,6.9,0,0,1-2.54-1.87l1.75-1.56a6.31,6.31,0,0,0,2,1.47,6.38,6.38,0,0,0,2.62.5,4.46,4.46,0,0,0,2.22-.47,1.55,1.55,0,0,0,.85-1.45,1.48,1.48,0,0,0-.16-.7,1.24,1.24,0,0,0-.44-.47,2.42,2.42,0,0,0-.67-.29,4.81,4.81,0,0,0-.79-.15l-2.13-.34a10.52,10.52,0,0,1-1.59-.34,5.57,5.57,0,0,1-1.44-.66,3.56,3.56,0,0,1-1-1.11,3.28,3.28,0,0,1-.4-1.71A3.52,3.52,0,0,1,607,377a7.28,7.28,0,0,1,4.15-1.07,8.58,8.58,0,0,1,3.24.56A6.24,6.24,0,0,1,616.7,378l-1.59,1.66a5,5,0,0,0-1.48-1.11,5.58,5.58,0,0,0-2.55-.5c-1.89,0-2.83.6-2.83,1.79a1.2,1.2,0,0,0,.61,1.18,4.12,4.12,0,0,0,1.44.43l2.14.34c.53.09,1.07.2,1.6.34a4.74,4.74,0,0,1,1.43.64,3.14,3.14,0,0,1,1.44,2.82,3.75,3.75,0,0,1-1.57,3.18A7.2,7.2,0,0,1,611,389.93Z"/><path class="cls-2" d="M647.17,389.62a2.45,2.45,0,0,1-1.83-.63,2.69,2.69,0,0,1-.74-1.63h-.13a3.48,3.48,0,0,1-1.42,1.89,4.66,4.66,0,0,1-2.61.68,4.79,4.79,0,0,1-3.28-1.08,3.78,3.78,0,0,1-1.22-3,3.41,3.41,0,0,1,1.44-3,7.66,7.66,0,0,1,4.44-1h2.57v-1c0-1.82-1-2.73-2.89-2.73a3.86,3.86,0,0,0-2.1.51,4.21,4.21,0,0,0-1.35,1.34l-1.69-1.38a4.85,4.85,0,0,1,1.92-1.89,6.79,6.79,0,0,1,3.48-.79,6.08,6.08,0,0,1,4,1.22,4.37,4.37,0,0,1,1.45,3.54v6.73h1.69v2.24Zm-5.93-1.77a3.9,3.9,0,0,0,2.27-.62,1.9,1.9,0,0,0,.88-1.6v-1.94h-2.52c-2,0-3.07.61-3.07,1.83V386a1.56,1.56,0,0,0,.65,1.36A3.1,3.1,0,0,0,641.24,387.85Z"/><path class="cls-2" d="M413.2,402.67V416a5.43,5.43,0,0,1-.4,2.13,4.75,4.75,0,0,1-1.14,1.64,5.32,5.32,0,0,1-1.78,1,7.1,7.1,0,0,1-2.32.36,5.72,5.72,0,0,1-3.81-1.2,5.56,5.56,0,0,1-1.83-3.3l2.76-.57a4,4,0,0,0,.88,1.87,2.51,2.51,0,0,0,2,.76,2.6,2.6,0,0,0,2-.77,3.39,3.39,0,0,0,.71-2.35V405.11H404v-2.44Z"/><path class="cls-2" d="M423.63,421.13a8.69,8.69,0,0,1-4-.82,7.6,7.6,0,0,1-2.65-2.2l1.87-1.79a7,7,0,0,0,2.21,1.83,5.84,5.84,0,0,0,2.65.59,3.91,3.91,0,0,0,2.64-.79,2.77,2.77,0,0,0,.92-2.25,2.4,2.4,0,0,0-.67-1.82,4.55,4.55,0,0,0-2.31-.93l-2-.31a6.74,6.74,0,0,1-2.18-.69,4.74,4.74,0,0,1-1.43-1.14,4.18,4.18,0,0,1-.8-1.48,6.13,6.13,0,0,1-.24-1.73,4.73,4.73,0,0,1,1.66-3.91,7.11,7.11,0,0,1,4.57-1.33,9,9,0,0,1,3.68.68,6,6,0,0,1,2.46,1.92l-1.82,1.82a6,6,0,0,0-1.78-1.47,5.27,5.27,0,0,0-2.54-.56,3.78,3.78,0,0,0-2.45.69,2.47,2.47,0,0,0-.85,2,2.33,2.33,0,0,0,.67,1.77,4.44,4.44,0,0,0,2.35.93l1.92.34a5.77,5.77,0,0,1,3.56,1.78,4.89,4.89,0,0,1,1.12,3.26,5.83,5.83,0,0,1-.43,2.28,4.66,4.66,0,0,1-1.27,1.77,6.1,6.1,0,0,1-2.08,1.13A9,9,0,0,1,423.63,421.13Z"/><path class="cls-2" d="M439.38,421.13a6.44,6.44,0,0,1-3-.64,5.38,5.38,0,0,1-2.08-1.83,8.37,8.37,0,0,1-1.21-2.94,20.4,20.4,0,0,1,0-7.94,8.34,8.34,0,0,1,1.21-2.95,5.49,5.49,0,0,1,2.08-1.84,7.34,7.34,0,0,1,5.95,0,5.49,5.49,0,0,1,2.08,1.84,8.34,8.34,0,0,1,1.21,2.95,20.4,20.4,0,0,1,0,7.94,8.37,8.37,0,0,1-1.21,2.94,5.38,5.38,0,0,1-2.08,1.83A6.45,6.45,0,0,1,439.38,421.13Zm0-2.39a2.88,2.88,0,0,0,2.76-1.48,8.34,8.34,0,0,0,.81-4V410.2a8.31,8.31,0,0,0-.81-4,3.32,3.32,0,0,0-5.51,0,8.31,8.31,0,0,0-.81,4v3.08a8.28,8.28,0,0,0,.81,4A2.86,2.86,0,0,0,439.38,418.74Z"/><path class="cls-2" d="M451.84,406.86h-.24v14h-2.54V402.67h3.74l5.33,14h.23v-14h2.55v18.15h-3.74Z"/><path class="cls-2" d="M479.53,420.82V407.4h2.41v1.74h.14a3.89,3.89,0,0,1,.89-1.45,2.24,2.24,0,0,1,1.68-.6,2.19,2.19,0,0,1,1.65.59,2.75,2.75,0,0,1,.74,1.59h.11a4.44,4.44,0,0,1,1-1.54,2.54,2.54,0,0,1,1.87-.64,2.27,2.27,0,0,1,2.17,1.09,6.68,6.68,0,0,1,.61,3.2v9.44H490.4v-9.08a3.93,3.93,0,0,0-.34-1.93,1.2,1.2,0,0,0-1.09-.54,1.57,1.57,0,0,0-1.14.46,1.86,1.86,0,0,0-.45,1.36v9.73H485v-9.08a4.11,4.11,0,0,0-.32-1.93,1.17,1.17,0,0,0-1.08-.54,1.58,1.58,0,0,0-1.16.46,1.86,1.86,0,0,0-.46,1.36v9.73Z"/><path class="cls-2" d="M502.07,421.13a7.34,7.34,0,0,1-2.76-.49,5.53,5.53,0,0,1-2.05-1.41A6.14,6.14,0,0,1,496,417a9,9,0,0,1-.44-2.89,8.64,8.64,0,0,1,.46-2.92,6.71,6.71,0,0,1,1.27-2.22,5.58,5.58,0,0,1,2-1.42,6.62,6.62,0,0,1,2.6-.49,6.51,6.51,0,0,1,2.55.48,5.51,5.51,0,0,1,1.95,1.37,5.86,5.86,0,0,1,1.23,2.1,8.07,8.07,0,0,1,.43,2.71v1.06H498.4v.44a3.48,3.48,0,0,0,1,2.57,3.69,3.69,0,0,0,2.73,1,4.21,4.21,0,0,0,2.22-.56,4.28,4.28,0,0,0,1.5-1.49l1.77,1.57a5.5,5.5,0,0,1-2.07,2A6.8,6.8,0,0,1,502.07,421.13Zm-.21-11.88a3.51,3.51,0,0,0-1.39.26,3.06,3.06,0,0,0-1.09.74,3.58,3.58,0,0,0-.72,1.13,3.87,3.87,0,0,0-.26,1.43V413h6.74v-.26a3.53,3.53,0,0,0-.9-2.53A3.1,3.1,0,0,0,501.86,409.25Z"/><path class="cls-2" d="M517.41,421.13a9.14,9.14,0,0,1-3.76-.7,6.78,6.78,0,0,1-2.53-1.87l1.74-1.56a5.79,5.79,0,0,0,4.6,2,4.46,4.46,0,0,0,2.22-.47,1.53,1.53,0,0,0,.85-1.45,1.37,1.37,0,0,0-.16-.7,1.24,1.24,0,0,0-.44-.47,2.49,2.49,0,0,0-.66-.29,4.93,4.93,0,0,0-.8-.15l-2.13-.34a10.15,10.15,0,0,1-1.58-.34,5.49,5.49,0,0,1-1.45-.66,3.56,3.56,0,0,1-1-1.11,3.28,3.28,0,0,1-.4-1.71,3.55,3.55,0,0,1,1.57-3.12,7.28,7.28,0,0,1,4.15-1.07,8.58,8.58,0,0,1,3.24.56,6.15,6.15,0,0,1,2.27,1.55l-1.58,1.66a5.07,5.07,0,0,0-1.49-1.11,5.57,5.57,0,0,0-2.54-.5c-1.89,0-2.84.6-2.84,1.79a1.25,1.25,0,0,0,.61,1.19,4.33,4.33,0,0,0,1.45.42l2.13.34c.54.09,1.07.2,1.6.34a4.63,4.63,0,0,1,1.43.64,3.43,3.43,0,0,1,1,1.1,3.32,3.32,0,0,1,.4,1.72,3.72,3.72,0,0,1-1.57,3.18A7.18,7.18,0,0,1,517.41,421.13Z"/><path class="cls-2" d="M533,421.13a9.14,9.14,0,0,1-3.76-.7,6.78,6.78,0,0,1-2.53-1.87l1.74-1.56a5.79,5.79,0,0,0,4.6,2,4.46,4.46,0,0,0,2.22-.47,1.53,1.53,0,0,0,.85-1.45,1.37,1.37,0,0,0-.16-.7,1.24,1.24,0,0,0-.44-.47,2.49,2.49,0,0,0-.66-.29,4.93,4.93,0,0,0-.8-.15l-2.13-.34a10.15,10.15,0,0,1-1.58-.34,5.49,5.49,0,0,1-1.45-.66,3.56,3.56,0,0,1-1-1.11,3.28,3.28,0,0,1-.4-1.71,3.52,3.52,0,0,1,1.57-3.12,7.28,7.28,0,0,1,4.15-1.07,8.58,8.58,0,0,1,3.24.56,6.15,6.15,0,0,1,2.27,1.55l-1.58,1.66a5.07,5.07,0,0,0-1.49-1.11,5.57,5.57,0,0,0-2.54-.5c-1.89,0-2.84.6-2.84,1.79a1.25,1.25,0,0,0,.61,1.19,4.33,4.33,0,0,0,1.45.42l2.13.34c.54.09,1.07.2,1.6.34a4.63,4.63,0,0,1,1.43.64,3.43,3.43,0,0,1,1,1.1,3.32,3.32,0,0,1,.4,1.72,3.72,3.72,0,0,1-1.57,3.18A7.18,7.18,0,0,1,533,421.13Z"/><path class="cls-2" d="M553.57,420.82a2.45,2.45,0,0,1-1.83-.63,2.75,2.75,0,0,1-.74-1.63h-.13a3.43,3.43,0,0,1-1.42,1.89,4.64,4.64,0,0,1-2.61.68,4.79,4.79,0,0,1-3.28-1.08,3.78,3.78,0,0,1-1.22-3,3.41,3.41,0,0,1,1.44-3,7.68,7.68,0,0,1,4.44-1h2.57v-1q0-2.73-2.88-2.73a3.9,3.9,0,0,0-2.11.51,4.31,4.31,0,0,0-1.35,1.34l-1.69-1.38a4.85,4.85,0,0,1,1.92-1.89,6.81,6.81,0,0,1,3.49-.79,6.07,6.07,0,0,1,4,1.22,4.38,4.38,0,0,1,1.46,3.54v6.73h1.69v2.24Zm-5.92-1.77a3.89,3.89,0,0,0,2.26-.62,1.87,1.87,0,0,0,.88-1.6v-1.94h-2.52c-2,0-3.07.61-3.07,1.83v.52a1.56,1.56,0,0,0,.65,1.36A3.11,3.11,0,0,0,547.65,419.05Z"/><path class="cls-2" d="M571.2,422.27a3.29,3.29,0,0,1-1.74,3.07,11.05,11.05,0,0,1-5.3,1,16.06,16.06,0,0,1-2.93-.22,6.25,6.25,0,0,1-1.92-.64,2.63,2.63,0,0,1-1.07-1,2.75,2.75,0,0,1-.32-1.35,2.31,2.31,0,0,1,.61-1.71,3.68,3.68,0,0,1,1.73-.89v-.26a2.61,2.61,0,0,1-1.08-.73,1.8,1.8,0,0,1-.41-1.22,1.77,1.77,0,0,1,.68-1.5,4.82,4.82,0,0,1,1.74-.77v-.13a4.25,4.25,0,0,1-2.57-4.1,4.7,4.7,0,0,1,.39-1.94,4.16,4.16,0,0,1,1.1-1.48,5,5,0,0,1,1.72-.95,7.52,7.52,0,0,1,4.77.1v-.44a2,2,0,0,1,.44-1.3,1.68,1.68,0,0,1,1.35-.52h2.45v2.24h-3.12v.62a4,4,0,0,1,1.35,1.52,4.73,4.73,0,0,1,.47,2.15,4.65,4.65,0,0,1-.39,1.93,4.19,4.19,0,0,1-1.11,1.49,5.12,5.12,0,0,1-1.71.93,7.19,7.19,0,0,1-2.25.33,8.85,8.85,0,0,1-1.67-.16,3.27,3.27,0,0,0-.93.44,1,1,0,0,0-.47.86.73.73,0,0,0,.6.78,6.14,6.14,0,0,0,1.48.16h3a6,6,0,0,1,3.9,1A3.4,3.4,0,0,1,571.2,422.27Zm-2.65.17a1.28,1.28,0,0,0-.55-1.09,3.47,3.47,0,0,0-2-.4h-4.66a1.57,1.57,0,0,0-1,1.52,1.7,1.7,0,0,0,.63,1.31,3.29,3.29,0,0,0,2.12.55h2.11a4.91,4.91,0,0,0,2.45-.49A1.52,1.52,0,0,0,568.55,422.44Zm-4.47-7.91a2.8,2.8,0,0,0,2-.65,2.39,2.39,0,0,0,.65-1.75v-.7a2.35,2.35,0,0,0-.65-1.74,3.49,3.49,0,0,0-4.06,0,2.35,2.35,0,0,0-.65,1.74v.7a2.39,2.39,0,0,0,.65,1.75A2.78,2.78,0,0,0,564.08,414.53Z"/><path class="cls-2" d="M580.07,421.13a7.3,7.3,0,0,1-2.76-.49,5.53,5.53,0,0,1-2-1.41A6.14,6.14,0,0,1,574,417a9,9,0,0,1-.44-2.89,8.64,8.64,0,0,1,.46-2.92,6.55,6.55,0,0,1,1.27-2.22,5.58,5.58,0,0,1,2-1.42,6.62,6.62,0,0,1,2.6-.49,6.55,6.55,0,0,1,2.55.48,5.51,5.51,0,0,1,2,1.37,6,6,0,0,1,1.23,2.1,8.07,8.07,0,0,1,.43,2.71v1.06H576.4v.44a3.48,3.48,0,0,0,1,2.57,3.69,3.69,0,0,0,2.73,1,4.21,4.21,0,0,0,2.22-.56,4.28,4.28,0,0,0,1.5-1.49l1.77,1.57a5.57,5.57,0,0,1-2.07,2A6.83,6.83,0,0,1,580.07,421.13Zm-.21-11.88a3.51,3.51,0,0,0-1.39.26,3,3,0,0,0-1.09.74,3.41,3.41,0,0,0-.72,1.13,3.87,3.87,0,0,0-.26,1.43V413h6.74v-.26a3.53,3.53,0,0,0-.9-2.53A3.1,3.1,0,0,0,579.86,409.25Z"/><path class="cls-2" d="M611.27,421.13a7.26,7.26,0,0,1-2.76-.49,5.45,5.45,0,0,1-2-1.41,6.14,6.14,0,0,1-1.28-2.2,9.7,9.7,0,0,1,0-5.81,6.73,6.73,0,0,1,1.28-2.22,5.58,5.58,0,0,1,2-1.42,7.08,7.08,0,0,1,5.15,0,5.51,5.51,0,0,1,1.95,1.37,6,6,0,0,1,1.23,2.1,8.07,8.07,0,0,1,.43,2.71v1.06H607.6v.44a3.48,3.48,0,0,0,1,2.57,3.69,3.69,0,0,0,2.73,1,4.21,4.21,0,0,0,2.22-.56,4.36,4.36,0,0,0,1.5-1.49l1.76,1.57a5.54,5.54,0,0,1-2.06,2A6.83,6.83,0,0,1,611.27,421.13Zm-.21-11.88a3.51,3.51,0,0,0-1.39.26,3.1,3.1,0,0,0-1.1.74,3.55,3.55,0,0,0-.71,1.13,3.87,3.87,0,0,0-.26,1.43V413h6.73v-.26a3.52,3.52,0,0,0-.89-2.53A3.1,3.1,0,0,0,611.06,409.25Z"/><path class="cls-2" d="M624.84,420.82,620,407.4H623l1.84,5.67,1.74,5.38h.16l1.74-5.38,1.85-5.67h2.83l-4.81,13.42Z"/><path class="cls-2" d="M642.47,421.13a7.26,7.26,0,0,1-2.76-.49,5.45,5.45,0,0,1-2.05-1.41,6.14,6.14,0,0,1-1.28-2.2,9.7,9.7,0,0,1,0-5.81,6.73,6.73,0,0,1,1.28-2.22,5.49,5.49,0,0,1,2-1.42,7.08,7.08,0,0,1,5.15,0,5.51,5.51,0,0,1,2,1.37A6.16,6.16,0,0,1,648,411a8.07,8.07,0,0,1,.43,2.71v1.06H638.8v.44a3.48,3.48,0,0,0,1,2.57,3.69,3.69,0,0,0,2.73,1,4.26,4.26,0,0,0,2.22-.56,4.36,4.36,0,0,0,1.5-1.49l1.76,1.57a5.54,5.54,0,0,1-2.06,2A6.83,6.83,0,0,1,642.47,421.13Zm-.21-11.88a3.48,3.48,0,0,0-1.39.26,3.1,3.1,0,0,0-1.1.74,3.55,3.55,0,0,0-.71,1.13,3.87,3.87,0,0,0-.26,1.43V413h6.73v-.26a3.57,3.57,0,0,0-.89-2.53A3.1,3.1,0,0,0,642.26,409.25Z"/><path class="cls-2" d="M652,418.5h3.57v-8.78H652V407.4h6.4V411h.16a6.37,6.37,0,0,1,.52-1.35,4,4,0,0,1,2.13-1.91,4.75,4.75,0,0,1,1.77-.3h1.61v2.71h-2.65a3.57,3.57,0,0,0-2.55.92,3.19,3.19,0,0,0-1,2.47v5h4.86v2.32H652Z"/><path class="cls-2" d="M677.3,407.4h2.86l-6.5,16a4.54,4.54,0,0,1-1.36,1.95,3.93,3.93,0,0,1-2.43.65h-2.26V423.7h3.17l1.22-3.06-5.41-13.24h3l2.13,5.62,1.66,4.6h.16l1.66-4.6Z"/><path class="cls-2" d="M402.67,452v-2.39h5.1V436h-.21l-4.21,4.5-1.79-1.61,4.62-5h4.5v15.76h4.4V452Z"/><path class="cls-2" d="M423.78,452.33a6.44,6.44,0,0,1-3-.64,5.38,5.38,0,0,1-2.08-1.83,8.37,8.37,0,0,1-1.21-2.94,20.4,20.4,0,0,1,0-7.94,8.34,8.34,0,0,1,1.21-3,5.49,5.49,0,0,1,2.08-1.84,7.34,7.34,0,0,1,5.95,0,5.49,5.49,0,0,1,2.08,1.84,8.34,8.34,0,0,1,1.21,3,20.4,20.4,0,0,1,0,7.94,8.37,8.37,0,0,1-1.21,2.94,5.38,5.38,0,0,1-2.08,1.83A6.45,6.45,0,0,1,423.78,452.33Zm0-2.39a3,3,0,0,0,2.83-1.47,8,8,0,0,0,.84-4v-3.12a8,8,0,0,0-.84-4,3,3,0,0,0-2.83-1.47,3.5,3.5,0,0,0-1.68.38,3,3,0,0,0-1.15,1.09,5.22,5.22,0,0,0-.64,1.72,11.7,11.7,0,0,0-.19,2.24v3.12a11.74,11.74,0,0,0,.19,2.25,5.22,5.22,0,0,0,.64,1.72,3,3,0,0,0,1.15,1.09A3.5,3.5,0,0,0,423.78,449.94Zm0-5.46a1.71,1.71,0,0,1-1.26-.37,1.22,1.22,0,0,1-.35-.88v-.57a1.26,1.26,0,0,1,.35-.89,2.4,2.4,0,0,1,2.53,0,1.26,1.26,0,0,1,.35.89v.57a1.22,1.22,0,0,1-.35.88A1.72,1.72,0,0,1,423.78,444.48Z"/><path class="cls-2" d="M439.38,452.33a6.44,6.44,0,0,1-3-.64,5.38,5.38,0,0,1-2.08-1.83,8.37,8.37,0,0,1-1.21-2.94,20.4,20.4,0,0,1,0-7.94,8.34,8.34,0,0,1,1.21-3,5.49,5.49,0,0,1,2.08-1.84,7.34,7.34,0,0,1,5.95,0,5.49,5.49,0,0,1,2.08,1.84,8.34,8.34,0,0,1,1.21,3,20.4,20.4,0,0,1,0,7.94,8.37,8.37,0,0,1-1.21,2.94,5.38,5.38,0,0,1-2.08,1.83A6.45,6.45,0,0,1,439.38,452.33Zm0-2.39a3,3,0,0,0,2.83-1.47,8,8,0,0,0,.84-4v-3.12a8,8,0,0,0-.84-4,3,3,0,0,0-2.83-1.47,3.57,3.57,0,0,0-1.69.38,3,3,0,0,0-1.14,1.09,5.22,5.22,0,0,0-.64,1.72,11.7,11.7,0,0,0-.19,2.24v3.12a11.74,11.74,0,0,0,.19,2.25,5.22,5.22,0,0,0,.64,1.72,3,3,0,0,0,1.14,1.09A3.57,3.57,0,0,0,439.38,449.94Zm0-5.46a1.71,1.71,0,0,1-1.26-.37,1.22,1.22,0,0,1-.35-.88v-.57a1.26,1.26,0,0,1,.35-.89,2.4,2.4,0,0,1,2.53,0,1.26,1.26,0,0,1,.35.89v.57a1.22,1.22,0,0,1-.35.88A1.72,1.72,0,0,1,439.38,444.48Z"/><path class="cls-2" d="M463.93,452V438.6h2.42v1.74h.13a3.89,3.89,0,0,1,.89-1.45,2.24,2.24,0,0,1,1.68-.6,2.19,2.19,0,0,1,1.65.59,2.75,2.75,0,0,1,.74,1.59h.11a4.44,4.44,0,0,1,1-1.54,2.54,2.54,0,0,1,1.87-.64,2.27,2.27,0,0,1,2.17,1.09,6.68,6.68,0,0,1,.61,3.2V452H474.8v-9.08a3.93,3.93,0,0,0-.34-1.93,1.2,1.2,0,0,0-1.09-.54,1.57,1.57,0,0,0-1.14.46,1.86,1.86,0,0,0-.45,1.36V452h-2.42v-9.08A4.11,4.11,0,0,0,469,441a1.17,1.17,0,0,0-1.08-.54,1.58,1.58,0,0,0-1.16.46,1.86,1.86,0,0,0-.45,1.36V452Z"/><path class="cls-2" d="M486.21,452.33a9.14,9.14,0,0,1-3.76-.7,6.78,6.78,0,0,1-2.53-1.87l1.74-1.56a6.23,6.23,0,0,0,2,1.47,6.36,6.36,0,0,0,2.61.5,4.46,4.46,0,0,0,2.22-.47,1.53,1.53,0,0,0,.85-1.45,1.37,1.37,0,0,0-.16-.7,1.24,1.24,0,0,0-.44-.47,2.49,2.49,0,0,0-.66-.29,5,5,0,0,0-.79-.15l-2.14-.34a10.15,10.15,0,0,1-1.58-.34,5.49,5.49,0,0,1-1.45-.66,3.56,3.56,0,0,1-1-1.11,3.38,3.38,0,0,1-.4-1.71,3.55,3.55,0,0,1,1.57-3.12,7.3,7.3,0,0,1,4.15-1.07,8.58,8.58,0,0,1,3.24.56,6.15,6.15,0,0,1,2.27,1.55l-1.58,1.66a5.15,5.15,0,0,0-1.48-1.11,5.64,5.64,0,0,0-2.55-.5c-1.89,0-2.84.6-2.84,1.79a1.25,1.25,0,0,0,.61,1.19,4.33,4.33,0,0,0,1.45.42l2.13.34c.54.09,1.07.2,1.6.34a4.63,4.63,0,0,1,1.43.64,3.43,3.43,0,0,1,1,1.1,3.32,3.32,0,0,1,.4,1.72,3.72,3.72,0,0,1-1.57,3.18A7.18,7.18,0,0,1,486.21,452.33Z"/><path class="cls-3" d="M757.65,218.79c74.64-.37,148.64-.37,223.67,0-4.8-4.81,0,0,0,0-15-13.37-28-29.37-42.71-42.72"/><path class="cls-2" d="M766.9,342.71v15.71H764V342.71H758.3v-2.44h14.3v2.44Z"/><path class="cls-2" d="M781.57,358.73a5.83,5.83,0,0,1-5.14-2.44,15.28,15.28,0,0,1,0-13.89,5.8,5.8,0,0,1,5.14-2.44,6.66,6.66,0,0,1,2.3.35,5.1,5.1,0,0,1,1.68.95,5.62,5.62,0,0,1,1.18,1.42,8.66,8.66,0,0,1,.79,1.75l-2.62.88a12.4,12.4,0,0,0-.47-1.17,3.3,3.3,0,0,0-.65-.93,3.13,3.13,0,0,0-.92-.63,3.43,3.43,0,0,0-1.32-.23,3,3,0,0,0-2.81,1.47,7.83,7.83,0,0,0-.88,4v3.08a7.8,7.8,0,0,0,.88,4,3,3,0,0,0,2.81,1.48,3.24,3.24,0,0,0,1.32-.24,2.93,2.93,0,0,0,.92-.62,3.21,3.21,0,0,0,.65-.94,10.56,10.56,0,0,0,.47-1.17l2.62.89a8.66,8.66,0,0,1-.79,1.75,5.8,5.8,0,0,1-1.18,1.42,5.29,5.29,0,0,1-1.68.95A6.91,6.91,0,0,1,781.57,358.73Z"/><path class="cls-2" d="M791,358.42V340.27h6.79a5.17,5.17,0,0,1,4,1.45,6.51,6.51,0,0,1,0,8,5.17,5.17,0,0,1-4,1.45h-3.88v7.26Zm2.91-9.65h3.44c1.8,0,2.7-.83,2.7-2.5v-1.13c0-1.65-.9-2.48-2.7-2.48h-3.44Z"/><path class="cls-2" d="M828.34,358.73a6.94,6.94,0,0,1-2.69-.49,5.42,5.42,0,0,1-2-1.41,6,6,0,0,1-1.25-2.21,10.06,10.06,0,0,1,0-5.82,6,6,0,0,1,1.25-2.21,5.42,5.42,0,0,1,2-1.41,6.87,6.87,0,0,1,2.67-.49,5.79,5.79,0,0,1,3.34.87,5.35,5.35,0,0,1,1.88,2.28L831.33,349a3.25,3.25,0,0,0-1.1-1.48,3.64,3.64,0,0,0-4.41.43,3.75,3.75,0,0,0-.88,2.61v2.24a3.73,3.73,0,0,0,.88,2.59,3.25,3.25,0,0,0,2.55,1,3.35,3.35,0,0,0,2-.58,3.92,3.92,0,0,0,1.26-1.56l2.08,1.28a5.44,5.44,0,0,1-2,2.28A6,6,0,0,1,828.34,358.73Z"/><path class="cls-2" d="M843.45,358.73a6.87,6.87,0,0,1-2.67-.49,5.51,5.51,0,0,1-2-1.41,6.06,6.06,0,0,1-1.26-2.21,9.84,9.84,0,0,1,0-5.82,6.06,6.06,0,0,1,1.26-2.21,5.51,5.51,0,0,1,2-1.41,7.49,7.49,0,0,1,5.33,0,5.42,5.42,0,0,1,2,1.41,6.06,6.06,0,0,1,1.26,2.21,9.63,9.63,0,0,1,0,5.82,6.06,6.06,0,0,1-1.26,2.21,5.42,5.42,0,0,1-2,1.41A6.82,6.82,0,0,1,843.45,358.73Zm0-2.24a3.26,3.26,0,0,0,2.48-.95,3.86,3.86,0,0,0,.92-2.82v-2a3.91,3.91,0,0,0-.92-2.83,3.29,3.29,0,0,0-2.48-.94,3.33,3.33,0,0,0-2.49.94,4,4,0,0,0-.92,2.83v2a3.91,3.91,0,0,0,.92,2.82A3.3,3.3,0,0,0,843.45,356.49Z"/><path class="cls-2" d="M853.43,358.42V345h2.83v2.29h.14a4.58,4.58,0,0,1,.53-1,3.28,3.28,0,0,1,.79-.83,3.74,3.74,0,0,1,1.09-.56,4.59,4.59,0,0,1,1.46-.21,4.26,4.26,0,0,1,3.27,1.33,5.25,5.25,0,0,1,1.25,3.77v8.63H862V350.2c0-2.13-.93-3.2-2.78-3.2a3.84,3.84,0,0,0-1.07.15,3,3,0,0,0-.94.43,2.28,2.28,0,0,0-.66.72,2.14,2.14,0,0,0-.25,1v9.1Z"/><path class="cls-2" d="M869,358.42V345h2.83v2.29H872a5.1,5.1,0,0,1,.54-1,3.28,3.28,0,0,1,.79-.83,3.74,3.74,0,0,1,1.09-.56,4.59,4.59,0,0,1,1.46-.21,4.26,4.26,0,0,1,3.27,1.33,5.25,5.25,0,0,1,1.25,3.77v8.63h-2.83V350.2c0-2.13-.93-3.2-2.78-3.2a3.84,3.84,0,0,0-1.07.15,3,3,0,0,0-.94.43,2.28,2.28,0,0,0-.66.72,2.14,2.14,0,0,0-.25,1v9.1Z"/><path class="cls-2" d="M890.53,358.73a7.25,7.25,0,0,1-2.75-.49,5.57,5.57,0,0,1-2.06-1.41,6.12,6.12,0,0,1-1.27-2.2,8.69,8.69,0,0,1-.44-2.89,8.9,8.9,0,0,1,.45-2.92,6.71,6.71,0,0,1,1.27-2.22,5.58,5.58,0,0,1,2-1.42,6.62,6.62,0,0,1,2.6-.49,6.51,6.51,0,0,1,2.55.48,5.51,5.51,0,0,1,2,1.37,6,6,0,0,1,1.24,2.1,8.33,8.33,0,0,1,.43,2.71v1.06h-9.62v.44a3.48,3.48,0,0,0,1,2.57,3.69,3.69,0,0,0,2.73,1,4.27,4.27,0,0,0,2.23-.56,4.42,4.42,0,0,0,1.49-1.49l1.77,1.57a5.5,5.5,0,0,1-2.07,2A6.78,6.78,0,0,1,890.53,358.73Zm-.21-11.88a3.55,3.55,0,0,0-1.39.26,3.06,3.06,0,0,0-1.09.74,3.55,3.55,0,0,0-.71,1.13,3.68,3.68,0,0,0-.26,1.43v.18h6.73v-.26a3.51,3.51,0,0,0-.9-2.53A3.08,3.08,0,0,0,890.32,346.85Z"/><path class="cls-2" d="M906.34,358.73a6.9,6.9,0,0,1-2.69-.49,5.42,5.42,0,0,1-2-1.41,5.9,5.9,0,0,1-1.25-2.21,10.06,10.06,0,0,1,0-5.82,5.9,5.9,0,0,1,1.25-2.21,5.42,5.42,0,0,1,2-1.41,6.85,6.85,0,0,1,2.66-.49,5.77,5.77,0,0,1,3.34.87,5.45,5.45,0,0,1,1.89,2.28L909.33,349a3.2,3.2,0,0,0-1.11-1.48,3.16,3.16,0,0,0-1.91-.55,3.19,3.19,0,0,0-2.49,1,3.75,3.75,0,0,0-.89,2.61v2.24a3.74,3.74,0,0,0,.89,2.59,3.25,3.25,0,0,0,2.55,1,3.35,3.35,0,0,0,2-.58,3.92,3.92,0,0,0,1.26-1.56l2.08,1.28a5.51,5.51,0,0,1-2,2.28A6.06,6.06,0,0,1,906.34,358.73Z"/><path class="cls-2" d="M922.25,358.42a3.3,3.3,0,0,1-2.6-.95,3.6,3.6,0,0,1-.83-2.45v-7.7h-4.13V345h2.93a1.52,1.52,0,0,0,1.07-.3,1.47,1.47,0,0,0,.31-1.08v-3.35h2.65V345h5.72v2.32h-5.72v8.78h5.72v2.32Z"/><path class="cls-2" d="M931.87,356.1h4.58v-8.78h-4.58V345h7.41v11.1h4.29v2.32h-11.7Zm6-13.54a2.09,2.09,0,0,1-1.52-.44,1.51,1.51,0,0,1-.43-1.1v-.54a1.47,1.47,0,0,1,.43-1.09,2,2,0,0,1,1.49-.45,2,2,0,0,1,1.52.45,1.47,1.47,0,0,1,.43,1.09V341a1.51,1.51,0,0,1-.43,1.1A2,2,0,0,1,937.88,342.56Z"/><path class="cls-2" d="M952.64,358.73a6.85,6.85,0,0,1-2.66-.49,5.42,5.42,0,0,1-2-1.41,6.06,6.06,0,0,1-1.26-2.21,9.63,9.63,0,0,1,0-5.82,6.06,6.06,0,0,1,1.26-2.21,5.42,5.42,0,0,1,2-1.41,7.49,7.49,0,0,1,5.33,0,5.42,5.42,0,0,1,2,1.41,6.06,6.06,0,0,1,1.26,2.21,9.84,9.84,0,0,1,0,5.82,6.06,6.06,0,0,1-1.26,2.21,5.42,5.42,0,0,1-2,1.41A6.87,6.87,0,0,1,952.64,358.73Zm0-2.24a3.3,3.3,0,0,0,2.49-.95,3.91,3.91,0,0,0,.92-2.82v-2a4,4,0,0,0-.92-2.83,3.75,3.75,0,0,0-5,0,4,4,0,0,0-.92,2.83v2a3.91,3.91,0,0,0,.92,2.82A3.28,3.28,0,0,0,952.64,356.49Z"/><path class="cls-2" d="M962.63,358.42V345h2.83v2.29h.13a5.64,5.64,0,0,1,.53-1,3.5,3.5,0,0,1,.8-.83,3.62,3.62,0,0,1,1.09-.56,4.59,4.59,0,0,1,1.46-.21,4.26,4.26,0,0,1,3.27,1.33,5.29,5.29,0,0,1,1.25,3.77v8.63h-2.83V350.2c0-2.13-.93-3.2-2.79-3.2a3.77,3.77,0,0,0-1.06.15,3,3,0,0,0-.94.43,2.07,2.07,0,0,0-.66.72,2,2,0,0,0-.25,1v9.1Z"/><path class="cls-1" d="M1356.09,197.34q0,31.6,0,63.2c0,6.92-2.66,9.52-9.72,9.52h-56.25c-6.69,0-9.46-2.74-9.47-9.48q0-63.54,0-127.09c0-6.49,2.89-9.38,9.26-9.38q28.47,0,56.95,0c6.45,0,9.26,2.84,9.26,9.34Q1356.11,165.4,1356.09,197.34ZM1318.53,145q11.79,0,23.59,0c4.18,0,6.34-1.78,6.36-5.12s-2.19-5.3-6.23-5.31q-23.58,0-47.17,0c-3.95,0-6.33,2.08-6.25,5.34s2.38,5.07,6.12,5.08C1302.81,145,1310.67,145,1318.53,145Zm.12,16.65c8,0,15.95,0,23.93,0,3.83,0,5.93-1.93,5.9-5.22s-2.17-5.18-6-5.18q-23.76,0-47.52,0c-3.82,0-6,1.9-6.13,5.08s2.31,5.32,6.22,5.33Q1306.85,161.69,1318.65,161.66Zm-.11,6.77c-7.86,0-15.72,0-23.58,0-3.77,0-6,1.93-6.14,5.07s2.26,5.35,5.91,5.36q23.93,0,47.85,0c3.81,0,5.92-2,5.88-5.31s-2.11-5.1-6-5.11C1334.49,168.41,1326.52,168.43,1318.54,168.43Zm.24,16.65q-11.79,0-23.58,0c-4,0-6.38,1.93-6.38,5.17s2.37,5.25,6.36,5.26q23.58,0,47.16,0c4,0,6.21-2,6.12-5.41-.08-3.26-2.14-5-6.1-5C1334.5,185.06,1326.64,185.08,1318.78,185.08ZM1308.06,244c0-3.49-2.59-6.56-5.72-6.62s-5.9,2.92-5.95,6.41,2.62,6.59,5.73,6.65S1308,247.51,1308.06,244Zm16-.28c-.08-3.53-2.85-6.46-6-6.35s-5.75,3.14-5.66,6.69,2.85,6.49,6,6.37S1324.09,247.22,1324,243.74Zm4.12.18c0,3.61,2.6,6.55,5.77,6.54s5.77-3,5.76-6.55-2.55-6.51-5.76-6.53S1328.15,240.29,1328.14,243.92Z"/><path class="cls-1" d="M1175.85,247.17q-41.14,0-82.27,0-14,0-14-14.13,0-47.37,0-94.76c0-9.3,4.84-14.16,14-14.16q82.61,0,165.22,0c8.64,0,13.73,5.08,13.74,13.82,0,31.7.1,63.41-.13,95.11a21.11,21.11,0,0,1-3.21,9.91c-2.09,3.53-6,4.26-10,4.25Q1217.51,247.11,1175.85,247.17Zm84.45-110H1091.71v95.08H1260.3Z"/><path class="cls-1" d="M1176.75,270.75c-9.12,0-18.25,0-27.38,0-5.66,0-8.8-3-8.82-8.33s3.12-8.45,8.72-8.46q27.74,0,55.46,0c5.5,0,8.8,3.3,8.74,8.52-.06,5-3.42,8.25-8.64,8.27C1195.47,270.77,1186.11,270.75,1176.75,270.75Z"/><path class="cls-2" d="M1318.53,145c-7.86,0-15.72,0-23.58,0-3.74,0-6-1.95-6.12-5.08s2.3-5.33,6.25-5.34q23.58,0,47.17,0c4,0,6.25,1.94,6.23,5.31s-2.18,5.11-6.36,5.12Q1330.32,145,1318.53,145Z"/><path class="cls-2" d="M1318.65,161.67c-7.86,0-15.73,0-23.59,0-3.91,0-6.31-2.1-6.22-5.33s2.31-5.08,6.13-5.08q23.76,0,47.52,0c3.82,0,6,1.91,6,5.18s-2.07,5.21-5.9,5.22C1334.6,161.69,1326.63,161.66,1318.65,161.67Z"/><path class="cls-2" d="M1318.54,168.43c8,0,16,0,23.93,0,3.88,0,6,1.83,6,5.11s-2.07,5.3-5.88,5.31q-23.92.06-47.85,0c-3.65,0-6-2.24-5.91-5.36s2.37-5.06,6.14-5.07C1302.82,168.41,1310.68,168.43,1318.54,168.43Z"/><path class="cls-2" d="M1318.78,185.08c7.86,0,15.72,0,23.58,0,4,0,6,1.75,6.1,5,.09,3.41-2.09,5.4-6.12,5.41q-23.58,0-47.16,0c-4,0-6.37-2-6.36-5.26s2.34-5.16,6.38-5.17Q1307,185.07,1318.78,185.08Z"/><path class="cls-2" d="M1308.06,244c0,3.49-2.83,6.5-5.94,6.44s-5.79-3.17-5.73-6.65,2.82-6.48,5.95-6.41S1308.11,240.53,1308.06,244Z"/><path class="cls-2" d="M1324,243.74c.07,3.48-2.56,6.58-5.69,6.71s-5.89-2.81-6-6.37,2.47-6.57,5.66-6.69S1323.94,240.21,1324,243.74Z"/><path class="cls-2" d="M1328.14,243.92c0-3.63,2.58-6.55,5.77-6.54s5.76,2.89,5.76,6.53-2.57,6.54-5.76,6.55S1328.14,247.53,1328.14,243.92Z"/><path class="cls-2" d="M1260.3,137.2v95.08H1091.71V137.2Z"/><path class="cls-2" d="M1088.16,358.73a5.82,5.82,0,0,1-5.13-2.44,15.2,15.2,0,0,1,0-13.89,5.8,5.8,0,0,1,5.13-2.44,6.62,6.62,0,0,1,2.3.35,5.1,5.1,0,0,1,1.68.95,5.42,5.42,0,0,1,1.18,1.42,8.69,8.69,0,0,1,.8,1.75l-2.63.88a10.19,10.19,0,0,0-.47-1.17,3.3,3.3,0,0,0-.65-.93,3,3,0,0,0-.92-.63,3.34,3.34,0,0,0-1.31-.23,3,3,0,0,0-2.81,1.47,7.72,7.72,0,0,0-.89,4v3.08a7.7,7.7,0,0,0,.89,4,3,3,0,0,0,2.81,1.48,3.16,3.16,0,0,0,1.31-.24,2.82,2.82,0,0,0,.92-.62,3.21,3.21,0,0,0,.65-.94,8.91,8.91,0,0,0,.47-1.17l2.63.89a8.69,8.69,0,0,1-.8,1.75,5.59,5.59,0,0,1-1.18,1.42,5.29,5.29,0,0,1-1.68.95A6.87,6.87,0,0,1,1088.16,358.73Z"/><path class="cls-2" d="M1099,353h-3.17v-2.19h3.56l.52-3h-3.12v-2.19h3.51l1-5.38h2.36l-3.2,18.15H1098Zm7.15-12.77h2.37l-.94,5.38h3.17v2.19h-3.56l-.52,3h3.12V353h-3.51l-1,5.38h-2.37Z"/><path class="cls-2" d="M1135.9,342.71v15.71H1133V342.71h-5.7v-2.44h14.3v2.44Z"/><path class="cls-2" d="M1150.56,358.73a5.81,5.81,0,0,1-5.13-2.44,15.2,15.2,0,0,1,0-13.89,5.78,5.78,0,0,1,5.13-2.44,6.62,6.62,0,0,1,2.3.35,5.1,5.1,0,0,1,1.68.95,5.42,5.42,0,0,1,1.18,1.42,9.28,9.28,0,0,1,.8,1.75l-2.63.88a10.19,10.19,0,0,0-.47-1.17,3.3,3.3,0,0,0-.65-.93,3.13,3.13,0,0,0-.92-.63,3.38,3.38,0,0,0-1.31-.23,3,3,0,0,0-2.81,1.47,7.72,7.72,0,0,0-.89,4v3.08a7.7,7.7,0,0,0,.89,4,3,3,0,0,0,2.81,1.48,3.19,3.19,0,0,0,1.31-.24,2.93,2.93,0,0,0,.92-.62,3.21,3.21,0,0,0,.65-.94,8.91,8.91,0,0,0,.47-1.17l2.63.89a9.28,9.28,0,0,1-.8,1.75,5.59,5.59,0,0,1-1.18,1.42,5.29,5.29,0,0,1-1.68.95A6.87,6.87,0,0,1,1150.56,358.73Z"/><path class="cls-2" d="M1160,358.42V340.27h6.78a5.19,5.19,0,0,1,4,1.45,6.55,6.55,0,0,1,0,8,5.19,5.19,0,0,1-4,1.45h-3.87v7.26Zm2.91-9.65h3.43c1.8,0,2.7-.83,2.7-2.5v-1.13c0-1.65-.9-2.48-2.7-2.48h-3.43Z"/><path class="cls-2" d="M1197.33,358.73a6.94,6.94,0,0,1-2.69-.49,5.59,5.59,0,0,1-2-1.41,6.19,6.19,0,0,1-1.25-2.21,10.06,10.06,0,0,1,0-5.82,6.19,6.19,0,0,1,1.25-2.21,5.59,5.59,0,0,1,2-1.41,6.87,6.87,0,0,1,2.67-.49,5.79,5.79,0,0,1,3.34.87,5.35,5.35,0,0,1,1.88,2.28l-2.21,1.19a3.25,3.25,0,0,0-1.1-1.48,3.16,3.16,0,0,0-1.91-.55,3.2,3.2,0,0,0-2.5,1,3.75,3.75,0,0,0-.88,2.61v2.24a3.73,3.73,0,0,0,.88,2.59,3.25,3.25,0,0,0,2.55,1,3.35,3.35,0,0,0,2-.58,3.92,3.92,0,0,0,1.26-1.56l2.08,1.28a5.48,5.48,0,0,1-2,2.28A6.1,6.1,0,0,1,1197.33,358.73Z"/><path class="cls-2" d="M1206.59,356.1H1211V341.49h-4.45v-2.31h7.28V356.1h4.45v2.32h-11.73Z"/><path class="cls-2" d="M1222.87,356.1h4.57v-8.78h-4.57V345h7.41v11.1h4.29v2.32h-11.7Zm6-13.54a2.11,2.11,0,0,1-1.52-.44,1.55,1.55,0,0,1-.43-1.1v-.54a1.51,1.51,0,0,1,.43-1.09,2,2,0,0,1,1.5-.45,2.08,2.08,0,0,1,1.52.45,1.51,1.51,0,0,1,.43,1.09V341a1.55,1.55,0,0,1-.43,1.1A2.08,2.08,0,0,1,1228.87,342.56Z"/><path class="cls-2" d="M1243.93,358.73a7.26,7.26,0,0,1-2.76-.49,5.45,5.45,0,0,1-2.05-1.41,6.14,6.14,0,0,1-1.28-2.2,9.7,9.7,0,0,1,0-5.81,6.73,6.73,0,0,1,1.28-2.22,5.49,5.49,0,0,1,2-1.42,7.08,7.08,0,0,1,5.15,0,5.51,5.51,0,0,1,2,1.37,6.16,6.16,0,0,1,1.23,2.1,8.07,8.07,0,0,1,.43,2.71v1.06h-9.62v.44a3.48,3.48,0,0,0,1,2.57,3.69,3.69,0,0,0,2.73,1,4.26,4.26,0,0,0,2.22-.56,4.45,4.45,0,0,0,1.5-1.49l1.76,1.57a5.54,5.54,0,0,1-2.06,2A6.83,6.83,0,0,1,1243.93,358.73Zm-.21-11.88a3.48,3.48,0,0,0-1.39.26,3.1,3.1,0,0,0-1.1.74,3.55,3.55,0,0,0-.71,1.13,3.87,3.87,0,0,0-.26,1.43v.18H1247v-.26a3.55,3.55,0,0,0-.89-2.53A3.1,3.1,0,0,0,1243.72,346.85Z"/><path class="cls-2" d="M1253.62,358.42V345h2.84v2.29h.13a5.05,5.05,0,0,1,.53-1,3.46,3.46,0,0,1,.79-.83,3.8,3.8,0,0,1,1.1-.56,4.52,4.52,0,0,1,1.45-.21,4.3,4.3,0,0,1,3.28,1.33,5.29,5.29,0,0,1,1.24,3.77v8.63h-2.83V350.2c0-2.13-.93-3.2-2.78-3.2a3.89,3.89,0,0,0-1.07.15,2.93,2.93,0,0,0-.93.43,2.2,2.2,0,0,0-.67.72,2.13,2.13,0,0,0-.24,1v9.1Z"/><path class="cls-2" d="M1275.65,358.42a3.32,3.32,0,0,1-2.61-.95,3.6,3.6,0,0,1-.83-2.45v-7.7h-4.13V345H1271a1.51,1.51,0,0,0,1.06-.3,1.47,1.47,0,0,0,.32-1.08v-3.35h2.65V345h5.72v2.32h-5.72v8.78h5.72v2.32Z"/><path class="cls-2" d="M1300.86,356.1h4.58v-8.78h-4.58V345h7.41v11.1h4.29v2.32h-11.7Zm6-13.54a2.11,2.11,0,0,1-1.52-.44,1.51,1.51,0,0,1-.43-1.1v-.54a1.47,1.47,0,0,1,.43-1.09,2,2,0,0,1,1.49-.45,2,2,0,0,1,1.52.45,1.47,1.47,0,0,1,.43,1.09V341a1.51,1.51,0,0,1-.43,1.1A2,2,0,0,1,1306.87,342.56Z"/><path class="cls-2" d="M1316,358.42V345h2.84v2.29h.13a4.58,4.58,0,0,1,.53-1,3.28,3.28,0,0,1,.79-.83,3.74,3.74,0,0,1,1.09-.56,4.59,4.59,0,0,1,1.46-.21,4.3,4.3,0,0,1,3.28,1.33,5.29,5.29,0,0,1,1.24,3.77v8.63h-2.83V350.2c0-2.13-.93-3.2-2.78-3.2a3.84,3.84,0,0,0-1.07.15,2.84,2.84,0,0,0-.93.43,2.2,2.2,0,0,0-.67.72,2.13,2.13,0,0,0-.24,1v9.1Z"/><path class="cls-2" d="M1084.55,371.47v11.17c0,.75,0,1.43.06,2a4.25,4.25,0,0,0,.38,1.55,2.17,2.17,0,0,0,.94,1,3.55,3.55,0,0,0,1.71.34,3.6,3.6,0,0,0,1.72-.34,2.17,2.17,0,0,0,.94-1,4.26,4.26,0,0,0,.37-1.55c0-.6.07-1.28.07-2V371.47h2.91V382.1a22.92,22.92,0,0,1-.22,3.42,6.07,6.07,0,0,1-.87,2.45,4,4,0,0,1-1.84,1.47,9.93,9.93,0,0,1-6.16,0,4,4,0,0,1-1.83-1.47,6.07,6.07,0,0,1-.87-2.45,22.92,22.92,0,0,1-.22-3.42V371.47Z"/><path class="cls-2" d="M1097.63,389.62V376.2h2.83v2.29h.13a5.64,5.64,0,0,1,.53-1,3.5,3.5,0,0,1,.8-.83,3.62,3.62,0,0,1,1.09-.56,4.59,4.59,0,0,1,1.46-.21,4.26,4.26,0,0,1,3.27,1.33A5.29,5.29,0,0,1,1109,381v8.63h-2.84V381.4c0-2.13-.92-3.2-2.78-3.2a3.77,3.77,0,0,0-1.06.15,3,3,0,0,0-.94.43,2.07,2.07,0,0,0-.66.72,2,2,0,0,0-.25,1v9.1Z"/><path class="cls-2" d="M1113.67,387.3h4.57v-8.78h-4.57V376.2h7.41v11.1h4.29v2.32h-11.7Zm6-13.54a2.12,2.12,0,0,1-1.52-.44,1.55,1.55,0,0,1-.43-1.1v-.54a1.51,1.51,0,0,1,.43-1.09,2,2,0,0,1,1.5-.45,2.06,2.06,0,0,1,1.52.45,1.47,1.47,0,0,1,.43,1.09v.54a1.51,1.51,0,0,1-.43,1.1A2.07,2.07,0,0,1,1119.67,373.76Z"/><path class="cls-2" d="M1135.25,389.62a3.28,3.28,0,0,1-2.6-.95,3.55,3.55,0,0,1-.83-2.45v-7.7h-4.14V376.2h2.94a1.54,1.54,0,0,0,1.07-.3,1.51,1.51,0,0,0,.31-1.08v-3.35h2.65v4.73h5.72v2.32h-5.72v8.78h5.72v2.32Z"/><path class="cls-2" d="M1154,376.2h2.86l-6.5,16a4.55,4.55,0,0,1-1.37,1.95,3.93,3.93,0,0,1-2.43.65h-2.26V392.5h3.17l1.22-3.06-5.4-13.24h3l2.13,5.62,1.67,4.6h.15l1.67-4.6Z"/><path class="cls-2" d="M1186.23,389.62a2.45,2.45,0,0,1-1.83-.63,2.75,2.75,0,0,1-.74-1.63h-.13a3.43,3.43,0,0,1-1.42,1.89,4.64,4.64,0,0,1-2.61.68,4.79,4.79,0,0,1-3.28-1.08,3.78,3.78,0,0,1-1.22-3,3.41,3.41,0,0,1,1.44-3,7.68,7.68,0,0,1,4.44-1h2.57v-1q0-2.73-2.88-2.73a3.9,3.9,0,0,0-2.11.51,4.21,4.21,0,0,0-1.35,1.34l-1.69-1.38a4.85,4.85,0,0,1,1.92-1.89,6.79,6.79,0,0,1,3.48-.79,6.08,6.08,0,0,1,4,1.22,4.37,4.37,0,0,1,1.45,3.54v6.73h1.7v2.24Zm-5.92-1.77a3.89,3.89,0,0,0,2.26-.62,1.87,1.87,0,0,0,.88-1.6v-1.94h-2.52c-2,0-3.07.61-3.07,1.83V386a1.56,1.56,0,0,0,.65,1.36A3.11,3.11,0,0,0,1180.31,387.85Z"/><path class="cls-2" d="M1191.22,389.62V376.2h2.84v2.29h.13a5.05,5.05,0,0,1,.53-1,3.46,3.46,0,0,1,.79-.83,3.8,3.8,0,0,1,1.1-.56,4.52,4.52,0,0,1,1.45-.21,4.28,4.28,0,0,1,3.28,1.33,5.29,5.29,0,0,1,1.25,3.77v8.63h-2.84V381.4c0-2.13-.93-3.2-2.78-3.2a3.89,3.89,0,0,0-1.07.15,3,3,0,0,0-.93.43,2.07,2.07,0,0,0-.66.72,2,2,0,0,0-.25,1v9.1Z"/><path class="cls-2" d="M1215.35,387.33h-.15a4.86,4.86,0,0,1-1.59,1.91,4.21,4.21,0,0,1-2.47.69,4.56,4.56,0,0,1-3.77-1.77,10.54,10.54,0,0,1,0-10.5,4.56,4.56,0,0,1,3.77-1.77,4.21,4.21,0,0,1,2.47.69,4.93,4.93,0,0,1,1.59,1.91h.15v-8.11h2.84v19.24h-2.84Zm-3,.29a4.35,4.35,0,0,0,1.17-.16,2.87,2.87,0,0,0,1-.47,2.44,2.44,0,0,0,.67-.76,2.32,2.32,0,0,0,.24-1.08v-4.48a2.32,2.32,0,0,0-.24-1.08,2.44,2.44,0,0,0-.67-.76,2.87,2.87,0,0,0-1-.47,4.35,4.35,0,0,0-1.17-.16,3.12,3.12,0,0,0-2.48,1,3.85,3.85,0,0,0-.87,2.63V384a3.85,3.85,0,0,0,.87,2.63A3.12,3.12,0,0,0,1212.31,387.62Z"/><path class="cls-2" d="M1248.66,371.47v13.29a5.43,5.43,0,0,1-.41,2.13,4.61,4.61,0,0,1-1.14,1.64,5.23,5.23,0,0,1-1.78,1,7,7,0,0,1-2.31.36,5.69,5.69,0,0,1-3.81-1.2,5.52,5.52,0,0,1-1.84-3.3l2.76-.57a4.12,4.12,0,0,0,.88,1.87,2.56,2.56,0,0,0,2,.76,2.6,2.6,0,0,0,2-.77,3.34,3.34,0,0,0,.72-2.35V373.91h-6.32v-2.44Z"/><path class="cls-2" d="M1259.08,389.93a8.77,8.77,0,0,1-4-.82,7.63,7.63,0,0,1-2.66-2.2l1.87-1.79a7.2,7.2,0,0,0,2.21,1.83,5.91,5.91,0,0,0,2.66.59,3.94,3.94,0,0,0,2.64-.79,2.8,2.8,0,0,0,.92-2.25,2.41,2.41,0,0,0-.68-1.82,4.46,4.46,0,0,0-2.31-.93l-2-.31a6.9,6.9,0,0,1-2.18-.69,4.74,4.74,0,0,1-1.43-1.14,4.15,4.15,0,0,1-.79-1.48,5.79,5.79,0,0,1-.25-1.73,4.73,4.73,0,0,1,1.66-3.91,7.13,7.13,0,0,1,4.58-1.33,9.06,9.06,0,0,1,3.68.68,6.18,6.18,0,0,1,2.46,1.92l-1.82,1.82a6,6,0,0,0-1.79-1.47,5.26,5.26,0,0,0-2.53-.56,3.82,3.82,0,0,0-2.46.69,2.49,2.49,0,0,0-.84,2,2.36,2.36,0,0,0,.66,1.77,4.47,4.47,0,0,0,2.35.93l1.93.34a5.8,5.8,0,0,1,3.56,1.78,4.94,4.94,0,0,1,1.12,3.26,6,6,0,0,1-.43,2.28,4.69,4.69,0,0,1-1.28,1.77,6,6,0,0,1-2.08,1.13A9,9,0,0,1,1259.08,389.93Z"/><path class="cls-2" d="M1274.84,389.93a6.45,6.45,0,0,1-3-.64,5.45,5.45,0,0,1-2.08-1.83,8.56,8.56,0,0,1-1.21-2.94,20.4,20.4,0,0,1,0-7.94,8.53,8.53,0,0,1,1.21-2.95,5.57,5.57,0,0,1,2.08-1.84,7.36,7.36,0,0,1,6,0,5.57,5.57,0,0,1,2.08,1.84,8.73,8.73,0,0,1,1.21,2.95,20.93,20.93,0,0,1,0,7.94,8.76,8.76,0,0,1-1.21,2.94,5.45,5.45,0,0,1-2.08,1.83A6.48,6.48,0,0,1,1274.84,389.93Zm0-2.39a2.86,2.86,0,0,0,2.75-1.48,8.34,8.34,0,0,0,.81-4V379a8.31,8.31,0,0,0-.81-4,3.32,3.32,0,0,0-5.51,0,8.44,8.44,0,0,0-.8,4v3.08a8.41,8.41,0,0,0,.8,4A2.88,2.88,0,0,0,1274.84,387.54Z"/><path class="cls-2" d="M1287.29,375.66h-.23v14h-2.55V371.47h3.74l5.33,14h.24v-14h2.55v18.15h-3.75Z"/><path class="cls-2" d="M1081.9,407.4h2.83v2.29h.16a4.91,4.91,0,0,1,1.58-1.91,4.23,4.23,0,0,1,2.47-.69,4.55,4.55,0,0,1,3.77,1.77,10.48,10.48,0,0,1,0,10.5,4.55,4.55,0,0,1-3.77,1.77,4.23,4.23,0,0,1-2.47-.69,4.84,4.84,0,0,1-1.58-1.91h-.16V426h-2.83Zm5.87,11.42a3.14,3.14,0,0,0,2.49-1,3.85,3.85,0,0,0,.87-2.63V413a3.85,3.85,0,0,0-.87-2.63,3.14,3.14,0,0,0-2.49-1,4.47,4.47,0,0,0-1.17.16,2.87,2.87,0,0,0-1,.47,2.29,2.29,0,0,0-.66.76,2.21,2.21,0,0,0-.25,1.08v4.48a2.21,2.21,0,0,0,.25,1.08,2.29,2.29,0,0,0,.66.76,2.87,2.87,0,0,0,1,.47A4.47,4.47,0,0,0,1087.77,418.82Z"/><path class="cls-2" d="M1108.23,420.82a2.45,2.45,0,0,1-1.83-.63,2.75,2.75,0,0,1-.74-1.63h-.13a3.43,3.43,0,0,1-1.42,1.89,4.64,4.64,0,0,1-2.61.68,4.74,4.74,0,0,1-3.27-1.08,3.75,3.75,0,0,1-1.23-3,3.4,3.4,0,0,1,1.45-3,7.64,7.64,0,0,1,4.43-1h2.57v-1q0-2.73-2.88-2.73a3.9,3.9,0,0,0-2.11.51,4.31,4.31,0,0,0-1.35,1.34l-1.69-1.38a4.85,4.85,0,0,1,1.92-1.89,6.83,6.83,0,0,1,3.49-.79,6,6,0,0,1,4,1.22,4.38,4.38,0,0,1,1.46,3.54v6.73H1110v2.24Zm-5.92-1.77a3.87,3.87,0,0,0,2.26-.62,1.87,1.87,0,0,0,.88-1.6v-1.94h-2.52c-2,0-3.07.61-3.07,1.83v.52a1.56,1.56,0,0,0,.65,1.36A3.13,3.13,0,0,0,1102.31,419.05Z"/><path class="cls-2" d="M1113,418.5h3.56v-8.78H1113V407.4h6.39V411h.16a6.37,6.37,0,0,1,.52-1.35,4.18,4.18,0,0,1,.86-1.13,4.13,4.13,0,0,1,1.27-.78,4.83,4.83,0,0,1,1.77-.3h1.61v2.71H1123a3.57,3.57,0,0,0-2.55.92,3.19,3.19,0,0,0-1,2.47v5h4.87v2.32H1113Z"/><path class="cls-2" d="M1134.47,421.13a9.14,9.14,0,0,1-3.76-.7,6.78,6.78,0,0,1-2.53-1.87l1.74-1.56a5.79,5.79,0,0,0,4.6,2,4.46,4.46,0,0,0,2.22-.47,1.53,1.53,0,0,0,.85-1.45,1.37,1.37,0,0,0-.16-.7,1.24,1.24,0,0,0-.44-.47,2.49,2.49,0,0,0-.66-.29,4.93,4.93,0,0,0-.8-.15l-2.13-.34a10.15,10.15,0,0,1-1.58-.34,5.49,5.49,0,0,1-1.45-.66,3.56,3.56,0,0,1-1-1.11,3.28,3.28,0,0,1-.4-1.71,3.52,3.52,0,0,1,1.57-3.12,7.28,7.28,0,0,1,4.15-1.07,8.58,8.58,0,0,1,3.24.56,6.15,6.15,0,0,1,2.27,1.55l-1.58,1.66a5.21,5.21,0,0,0-1.49-1.11,5.57,5.57,0,0,0-2.54-.5c-1.89,0-2.84.6-2.84,1.79a1.25,1.25,0,0,0,.61,1.19,4.33,4.33,0,0,0,1.45.42l2.13.34c.54.09,1.07.2,1.6.34a4.63,4.63,0,0,1,1.43.64,3.43,3.43,0,0,1,1,1.1,3.32,3.32,0,0,1,.4,1.72,3.72,3.72,0,0,1-1.57,3.18A7.18,7.18,0,0,1,1134.47,421.13Z"/><path class="cls-2" d="M1150.33,421.13a7.34,7.34,0,0,1-2.76-.49,5.53,5.53,0,0,1-2-1.41,6.14,6.14,0,0,1-1.28-2.2,9,9,0,0,1-.44-2.89,8.64,8.64,0,0,1,.46-2.92,6.55,6.55,0,0,1,1.27-2.22,5.58,5.58,0,0,1,2-1.42,6.62,6.62,0,0,1,2.6-.49,6.55,6.55,0,0,1,2.55.48,5.51,5.51,0,0,1,1.95,1.37,6,6,0,0,1,1.23,2.1,8.07,8.07,0,0,1,.43,2.71v1.06h-9.62v.44a3.48,3.48,0,0,0,1,2.57,3.69,3.69,0,0,0,2.73,1,4.21,4.21,0,0,0,2.22-.56,4.28,4.28,0,0,0,1.5-1.49l1.77,1.57a5.57,5.57,0,0,1-2.07,2A6.83,6.83,0,0,1,1150.33,421.13Zm-.21-11.88a3.51,3.51,0,0,0-1.39.26,3,3,0,0,0-1.09.74,3.58,3.58,0,0,0-.72,1.13,3.87,3.87,0,0,0-.26,1.43V413h6.74v-.26a3.53,3.53,0,0,0-.9-2.53A3.1,3.1,0,0,0,1150.12,409.25Z"/><path class="cls-2" d="M1159.82,418.5h3.56v-8.78h-3.56V407.4h6.39V411h.16a6.37,6.37,0,0,1,.52-1.35,4,4,0,0,1,2.13-1.91,4.75,4.75,0,0,1,1.77-.3h1.61v2.71h-2.65a3.57,3.57,0,0,0-2.55.92,3.19,3.19,0,0,0-1,2.47v5h4.87v2.32h-11.26Z"/></svg>