<svg xmlns="http://www.w3.org/2000/svg" viewBox="0 0 1304 361"><defs><style>.cls-1{fill:#ccc;}.cls-2{fill:none;stroke:#ccc;stroke-miterlimit:10;}</style></defs><g id="Lines"><path class="cls-1" d="M92.6,156.68c-2.55-6.22-7.16-5-12-3.38-6.92,2.26-6.94,2.18-3.61,8.63.31.6.54,1.24.88,2-2.57,1-4.72,2.17-6.36-1.38-.46-1-2.71-1.82-4-1.65a86.47,86.47,0,0,0-12,2.57,5.7,5.7,0,0,0-3.14,2.84,11.69,11.69,0,0,0,0,10.44,7.16,7.16,0,0,0,3.93,3.13c3.31,1.07,6.81,1.54,10.2,2.38,2.6.64,4.62,0,5.69-2.48.72-1.7,1.77-1.84,3.31-1.41,2.19.62,4.42,1.13,6.86,1.74-1.72,3.68-3.32,7.09-5.33,11.4,5.72.17,10.92.33,16.11.43a1.66,1.66,0,0,0,1.29-.64c1.71-3.42,4.47-2,7-1.62.59.09,1.17.24,1.76.35,4,.68,4.32.38,4.38-3.75,4.8.93,9.54,1.93,14.31,2.77a171.11,171.11,0,0,0,37.34,2.17c11.48-.51,22.65,2.11,34,2.65,16.57.79,33.14,1.69,49.71,1.8,56.56.37,113.13.43,169.69.56,6.79,0,13.58-.29,20.37-.44.68,0,1.36.08,2.45.15,0,4.76.14,9.43,0,14.08-.11,2.82.66,4.36,3.71,4.4,8.87.13,17.73.37,26.59.53,2.42,0,3.29-1.32,3.25-3.64-.09-3.89,0-7.79,0-11.69s1-5.27,4.88-5.68c9.33-1,18.68-1.88,28-2.72a2.9,2.9,0,0,1,1.93.9c2.06,2,3,1.89,4.7-.3a6.34,6.34,0,0,1,3.26-2.06c4.33-1.16,8.91-1.61,13.05-3.23a35,35,0,0,0,10.63-6.4c5.18-4.72,5.12-11.68.37-16.89-5-5.54-11.86-7.93-18.93-8.78A273.34,273.34,0,0,0,485,152.16q-168.06-.27-336.11-.14a162.42,162.42,0,0,0-35.1,3.64c-1.44.32-2.83.94-3.77-1a2.93,2.93,0,0,0-2.34-.94c-3.88.21-7.77.5-11.63,1C95,154.82,94.07,155.79,92.6,156.68Zm16.45,1.88c1-.17,1.78-.26,2.55-.44a171.84,171.84,0,0,1,38.94-4.25q160-.06,319.93,0c13.47,0,26.94.81,40.39,1.61a41,41,0,0,1,19.88,6.05c8.66,5.52,8.65,14.34.09,20-5.31,3.53-11.39,4.7-17.49,5.83-2.87.52-6,.5-7.19,4.17-1.93-2.66-1.92-2.6-4.86-2.36-15.53,1.23-31,2.87-46.59,3.53-21.86.93-43.74,1.13-65.62,1.59a8,8,0,0,1-3-.7c-.92-.37-1.73-1.47-2.59-1.47q-33.74-.14-67.46-.05c-.72,0-2,.2-2.08.55-.52,2.08-2.11,1.52-3.39,1.52-15.29,0-30.58.05-45.87-.19q-31.45-.49-62.92-1.44c-6.68-.2-13.33-1.09-20-1.67a3.39,3.39,0,0,1,2.29-1.09c25.52-1.63,51-3.86,76.56-4.7,35.55-1.18,71.13-1.27,106.69-1.9q49.74-.88,99.49-1.94c5.43-.11,10.85-.38,16.27-.58a14,14,0,0,0-5.43-.71q-43.62.54-87.22,1.11c-41.76.59-83.53,1-125.28,2-20,.45-39.92,1.73-59.86,3-11.46.72-22.85,2.69-34.31,3.11-21.49.77-43,.49-64-5.08a11.83,11.83,0,0,0-2.29-.13l.59,4.41-7.7-1.5c3.61-5.92,9.29-5.68,14.81-6.37a9.27,9.27,0,0,0-4.31-2c-6.09-1.12-12.21-2-18.29-3.22-2.92-.57-5.6-1.19-6.28,3-3.2-.74-6.12-1.35-9-2.1-1.85-.48-3.06-.16-3.65,1.87-.63,2.2-2,2.92-4.36,2.22-2.67-.79-5.44-1.25-8.18-1.83-3.89-.84-4.61-1.59-4.88-5.55a20.08,20.08,0,0,1,.21-4.17,3.86,3.86,0,0,1,3.42-3.6c3.34-.6,6.61-1.57,10-2.07,1-.15,3,.52,3.15,1.19,1.08,3.87,3.55,3.27,6.29,2.39,1.37-.44,2.85-.85,3.33,1.17.65,2.71,2.45,3,4.78,2.52,1.27-.26,2.59-.21,3.87-.43,5.7-1,11.4-1.94,17.07-3.09.88-.18,1.58-1.31,2.36-2A13.31,13.31,0,0,0,105.3,163c-2.87-1.12-5.83-2-8.69-3.14-.63-.26-1.44-1.37-1.31-1.89a2.66,2.66,0,0,1,1.86-1.5c2.65-.45,5.35-.63,8-1C107.42,155.26,109.18,155.6,109.05,158.56Zm357.86,35.76c0,5.69,0,11,0,16.23,0,1.44-.12,2.41-2,2.61a87.87,87.87,0,0,1-25.6-.7c-.73-.13-1.87-1.06-1.88-1.65-.16-4.95-.09-9.9-.09-15.11Zm-390.3-37.7c2.92-.86,5.69-1.59,8.39-2.51a3.31,3.31,0,0,1,4.32,1.46A19.67,19.67,0,0,0,100.89,164c.92.24,1.82.55,2.74.83-.1.25-.12.42-.17.43-6.66,1-13.31,2.1-20,3.06a2,2,0,0,1-1.62-.95C80.1,163.91,78.46,160.43,76.61,156.62Zm26,22.8a19.12,19.12,0,0,0-8,8.4,4.56,4.56,0,0,1-3,2.33c-3.61.14-7.24-.23-11.42-.43,2.12-4.39,3.91-8.24,5.86-12A2.3,2.3,0,0,1,87.9,177C92.81,177.76,97.69,178.61,102.59,179.42Zm246.35,14.11,0,.58H342v-.58Zm-15.91.59v-.49h6.85l0,.49Zm24.64-.66V194h-6.91l0-.58Zm2.05.68,0-.58h6.93v.58Z"/><rect class="cls-2" x="17.25" y="15" width="556" height="337" rx="18.82"/><rect class="cls-2" x="732.75" y="15.5" width="556" height="337" rx="18.82"/><polyline class="cls-2" points="700.25 143.25 712.75 157.75 588.75 157.75"/><polyline class="cls-2" points="606.75 223.75 594.25 209.25 718.25 209.25"/><path class="cls-1" d="M766.48,65.63H763.7V48.18h6.53a5,5,0,0,1,3.81,1.4,5.36,5.36,0,0,1,1.31,3.84,5.31,5.31,0,0,1-1,3.29,4.19,4.19,0,0,1-2.8,1.6l4,7.32h-3.1l-3.7-7.07h-2.32Zm3.35-9.3c1.73,0,2.6-.79,2.6-2.38V52.87c0-1.59-.87-2.39-2.6-2.39h-3.35v5.85Z"/><path class="cls-1" d="M784.1,65.93a6.25,6.25,0,0,1-2.86-.61,5.37,5.37,0,0,1-2-1.76,8.2,8.2,0,0,1-1.16-2.83,19.34,19.34,0,0,1,0-7.63,8.09,8.09,0,0,1,1.16-2.84,5.2,5.2,0,0,1,2-1.76,6.93,6.93,0,0,1,5.73,0,5.27,5.27,0,0,1,2,1.76,8.09,8.09,0,0,1,1.16,2.84,19.85,19.85,0,0,1,0,7.63A8.2,8.2,0,0,1,789,63.56a5.45,5.45,0,0,1-2,1.76A6.29,6.29,0,0,1,784.1,65.93Zm0-2.3a2.76,2.76,0,0,0,2.65-1.42,8,8,0,0,0,.78-3.85V55.43a8,8,0,0,0-.78-3.83,3.18,3.18,0,0,0-5.3,0,8.11,8.11,0,0,0-.77,3.83v3a8.06,8.06,0,0,0,.77,3.82A2.77,2.77,0,0,0,784.1,63.63Z"/><path class="cls-1" d="M799,65.93a8.31,8.31,0,0,1-3.82-.79A7.32,7.32,0,0,1,792.58,63l1.8-1.72a6.57,6.57,0,0,0,2.12,1.76,5.56,5.56,0,0,0,2.55.56,3.83,3.83,0,0,0,2.54-.75,2.7,2.7,0,0,0,.89-2.17,2.33,2.33,0,0,0-.65-1.75,4.36,4.36,0,0,0-2.23-.89l-1.9-.3a6.49,6.49,0,0,1-2.1-.66,4.77,4.77,0,0,1-1.37-1.1,3.91,3.91,0,0,1-.76-1.42,5.7,5.7,0,0,1-.24-1.66,4.53,4.53,0,0,1,1.6-3.76,6.8,6.8,0,0,1,4.4-1.29,8.6,8.6,0,0,1,3.54.66,6,6,0,0,1,2.36,1.84l-1.75,1.75a6.08,6.08,0,0,0-1.71-1.41,5,5,0,0,0-2.44-.54,3.67,3.67,0,0,0-2.36.67,2.36,2.36,0,0,0-.82,1.95,2.28,2.28,0,0,0,.64,1.7,4.33,4.33,0,0,0,2.26.89l1.85.33a5.57,5.57,0,0,1,3.43,1.71,4.7,4.7,0,0,1,1.07,3.13,5.6,5.6,0,0,1-.41,2.2,4.41,4.41,0,0,1-1.22,1.7,5.83,5.83,0,0,1-2,1.09A9.07,9.07,0,0,1,799,65.93Z"/><path class="cls-1" d="M830.5,50.53v15.1h-2.8V50.53h-5.47V48.18H836v2.35Z"/><path class="cls-1" d="M844.38,65.93a7.11,7.11,0,0,1-2.65-.47,5.53,5.53,0,0,1-2-1.35A6,6,0,0,1,838.53,62a8.69,8.69,0,0,1-.43-2.79,8.44,8.44,0,0,1,.44-2.8,6.16,6.16,0,0,1,1.23-2.14,5.14,5.14,0,0,1,1.91-1.36,6.69,6.69,0,0,1,5,0,5.07,5.07,0,0,1,1.87,1.31,5.66,5.66,0,0,1,1.19,2,7.71,7.71,0,0,1,.41,2.6v1h-9.25v.42a3.37,3.37,0,0,0,.95,2.47,3.54,3.54,0,0,0,2.63,1,4.07,4.07,0,0,0,2.14-.54A4.14,4.14,0,0,0,848,61.75l1.7,1.5a5.28,5.28,0,0,1-2,1.91A6.68,6.68,0,0,1,844.38,65.93Zm-.2-11.42a3.47,3.47,0,0,0-1.34.25,2.83,2.83,0,0,0-1.05.71,3.49,3.49,0,0,0-.69,1.09,3.75,3.75,0,0,0-.25,1.37v.18h6.48v-.25a3.43,3.43,0,0,0-.86-2.44A3,3,0,0,0,844.18,54.51Z"/><path class="cls-1" d="M853.48,63.41h4.27v-14h-4.27V47.13h7V63.41h4.27v2.22H853.48Z"/><path class="cls-1" d="M874.38,65.93a7.11,7.11,0,0,1-2.65-.47,5.53,5.53,0,0,1-2-1.35A6,6,0,0,1,868.53,62a8.69,8.69,0,0,1-.43-2.79,8.44,8.44,0,0,1,.44-2.8,6.16,6.16,0,0,1,1.23-2.14,5.14,5.14,0,0,1,1.91-1.36,6.69,6.69,0,0,1,5,0,5.07,5.07,0,0,1,1.87,1.31,5.66,5.66,0,0,1,1.19,2,7.71,7.71,0,0,1,.41,2.6v1h-9.25v.42a3.37,3.37,0,0,0,.95,2.47,3.54,3.54,0,0,0,2.63,1,4.07,4.07,0,0,0,2.14-.54A4.14,4.14,0,0,0,878,61.75l1.7,1.5a5.28,5.28,0,0,1-2,1.91A6.68,6.68,0,0,1,874.38,65.93Zm-.2-11.42a3.47,3.47,0,0,0-1.34.25,2.83,2.83,0,0,0-1.05.71,3.49,3.49,0,0,0-.69,1.09,3.75,3.75,0,0,0-.25,1.37v.18h6.48v-.25a3.43,3.43,0,0,0-.86-2.44A3,3,0,0,0,874.18,54.51Z"/><path class="cls-1" d="M889.1,65.93a6.71,6.71,0,0,1-2.56-.47,5.3,5.3,0,0,1-1.92-1.35A6.1,6.1,0,0,1,883.4,62a9.54,9.54,0,0,1,0-5.6,6.05,6.05,0,0,1,1.22-2.12,5.07,5.07,0,0,1,1.92-1.35,7.09,7.09,0,0,1,5.13,0,5.15,5.15,0,0,1,1.92,1.35,5.88,5.88,0,0,1,1.21,2.12,9.33,9.33,0,0,1,0,5.6,5.93,5.93,0,0,1-1.21,2.13,5.39,5.39,0,0,1-1.92,1.35A6.76,6.76,0,0,1,889.1,65.93Zm0-2.15a3.17,3.17,0,0,0,2.39-.91,3.75,3.75,0,0,0,.89-2.71V58.21a3.73,3.73,0,0,0-.89-2.71,3.55,3.55,0,0,0-4.77,0,3.69,3.69,0,0,0-.89,2.71v1.95a3.71,3.71,0,0,0,.89,2.71A3.15,3.15,0,0,0,889.1,63.78Z"/><path class="cls-1" d="M898.58,52.73h2.72v2.2h.15A4.7,4.7,0,0,1,903,53.1a4,4,0,0,1,2.37-.67,4.4,4.4,0,0,1,3.63,1.7,8,8,0,0,1,1.35,5A8,8,0,0,1,909,64.23a4.38,4.38,0,0,1-3.63,1.7,4,4,0,0,1-2.37-.66,4.66,4.66,0,0,1-1.53-1.84h-.15v7.2h-2.72Zm5.65,11a3,3,0,0,0,2.39-1,3.74,3.74,0,0,0,.83-2.53v-2.1a3.7,3.7,0,0,0-.83-2.52,3,3,0,0,0-2.39-1,4.11,4.11,0,0,0-1.13.15,2.82,2.82,0,0,0-.92.45,2.17,2.17,0,0,0-.64.74,2.09,2.09,0,0,0-.24,1v4.3a2.13,2.13,0,0,0,.24,1,2.27,2.27,0,0,0,.64.74,2.82,2.82,0,0,0,.92.45A4.11,4.11,0,0,0,904.23,63.71Z"/><path class="cls-1" d="M931.08,52.21h-.23V65.63H928.4V48.18H932l5.13,13.43h.22V48.18h2.45V65.63h-3.6Z"/><path class="cls-1" d="M949.1,65.93a6.71,6.71,0,0,1-2.56-.47,5.3,5.3,0,0,1-1.92-1.35A6.1,6.1,0,0,1,943.4,62a9.54,9.54,0,0,1,0-5.6,6.05,6.05,0,0,1,1.22-2.12,5.07,5.07,0,0,1,1.92-1.35,7.09,7.09,0,0,1,5.13,0,5.15,5.15,0,0,1,1.92,1.35,5.88,5.88,0,0,1,1.21,2.12,9.33,9.33,0,0,1,0,5.6,5.93,5.93,0,0,1-1.21,2.13,5.39,5.39,0,0,1-1.92,1.35A6.76,6.76,0,0,1,949.1,65.93Zm0-2.15a3.17,3.17,0,0,0,2.39-.91,3.75,3.75,0,0,0,.89-2.71V58.21a3.73,3.73,0,0,0-.89-2.71,3.55,3.55,0,0,0-4.77,0,3.69,3.69,0,0,0-.89,2.71v1.95a3.71,3.71,0,0,0,.89,2.71A3.15,3.15,0,0,0,949.1,63.78Z"/><path class="cls-1" d="M966.9,63.43h-.15a4.64,4.64,0,0,1-1.52,1.84,4.1,4.1,0,0,1-2.38.66,4.37,4.37,0,0,1-3.62-1.7,8,8,0,0,1-1.35-5.05,8,8,0,0,1,1.35-5,4.4,4.4,0,0,1,3.62-1.7,4,4,0,0,1,2.38.67,4.68,4.68,0,0,1,1.52,1.83h.15v-7.8h2.73v18.5H966.9Zm-2.92.28a4,4,0,0,0,1.12-.15,2.87,2.87,0,0,0,.93-.45,2.4,2.4,0,0,0,.64-.74,2.25,2.25,0,0,0,.23-1V57a2.21,2.21,0,0,0-.23-1,2.29,2.29,0,0,0-.64-.74,2.87,2.87,0,0,0-.93-.45,4,4,0,0,0-1.12-.15,3,3,0,0,0-2.39,1,3.65,3.65,0,0,0-.84,2.52v2.1a3.7,3.7,0,0,0,.84,2.53A3,3,0,0,0,964,63.71Z"/><path class="cls-1" d="M979.38,65.93a7.11,7.11,0,0,1-2.65-.47,5.53,5.53,0,0,1-2-1.35A6,6,0,0,1,973.53,62a8.69,8.69,0,0,1-.43-2.79,8.44,8.44,0,0,1,.44-2.8,6.16,6.16,0,0,1,1.23-2.14,5.14,5.14,0,0,1,1.91-1.36,6.69,6.69,0,0,1,5,0,5.07,5.07,0,0,1,1.87,1.31,5.66,5.66,0,0,1,1.19,2,7.71,7.71,0,0,1,.41,2.6v1h-9.25v.42a3.37,3.37,0,0,0,.95,2.47,3.54,3.54,0,0,0,2.63,1,4.07,4.07,0,0,0,2.14-.54A4.14,4.14,0,0,0,983,61.75l1.7,1.5a5.28,5.28,0,0,1-2,1.91A6.68,6.68,0,0,1,979.38,65.93Zm-.2-11.42a3.47,3.47,0,0,0-1.34.25,2.83,2.83,0,0,0-1.05.71,3.49,3.49,0,0,0-.69,1.09,3.75,3.75,0,0,0-.25,1.37v.18h6.48v-.25a3.43,3.43,0,0,0-.86-2.44A3,3,0,0,0,979.18,54.51Z"/><path class="cls-1" d="M764,137.79V120.34h6.53a5,5,0,0,1,3.81,1.4,6.28,6.28,0,0,1,0,7.68,5,5,0,0,1-3.81,1.4h-3.72v7Zm2.81-9.27h3.29c1.74,0,2.6-.8,2.6-2.41V125c0-1.59-.86-2.39-2.6-2.39h-3.29Z"/><path class="cls-1" d="M787.06,135.59h-.13a4.74,4.74,0,0,1-.51,1,3.39,3.39,0,0,1-.76.8,3.7,3.7,0,0,1-1,.53,4.26,4.26,0,0,1-1.4.2,4.12,4.12,0,0,1-3.15-1.27,5.1,5.1,0,0,1-1.2-3.63v-8.3h2.72v7.9c0,2.05.9,3.08,2.68,3.08a4,4,0,0,0,1-.14,2.9,2.9,0,0,0,.89-.41,2,2,0,0,0,.64-.69,1.91,1.91,0,0,0,.24-1v-8.75h2.73v12.9h-2.73Z"/><path class="cls-1" d="M793.86,119.29h2.72v7.8h.15a4.79,4.79,0,0,1,1.53-1.83,4,4,0,0,1,2.37-.67,4.4,4.4,0,0,1,3.63,1.7,10.12,10.12,0,0,1,0,10.1,4.38,4.38,0,0,1-3.63,1.7,4,4,0,0,1-2.37-.66,4.75,4.75,0,0,1-1.53-1.84h-.15v2.2h-2.72Zm5.65,16.58a3,3,0,0,0,2.39-1,3.68,3.68,0,0,0,.83-2.53v-2.1a3.65,3.65,0,0,0-.83-2.52,3,3,0,0,0-2.39-1,4.11,4.11,0,0,0-1.13.15,2.92,2.92,0,0,0-.92.45,2.27,2.27,0,0,0-.64.74,2.09,2.09,0,0,0-.24,1v4.3a2.13,2.13,0,0,0,.24,1,2.27,2.27,0,0,0,.64.74,2.92,2.92,0,0,0,.92.45A4.11,4.11,0,0,0,799.51,135.87Z"/><path class="cls-1" d="M808.76,135.57H813v-14h-4.28v-2.23h7v16.28H820v2.22H808.76Z"/><path class="cls-1" d="M824.41,135.57h4.4v-8.45h-4.4v-2.23h7.13v10.68h4.12v2.22H824.41Zm5.77-13a2,2,0,0,1-1.46-.42,1.46,1.46,0,0,1-.41-1.05v-.53a1.49,1.49,0,0,1,.41-1.05,2.71,2.71,0,0,1,2.9,0,1.46,1.46,0,0,1,.42,1.05v.53a1.42,1.42,0,0,1-.42,1.05A2,2,0,0,1,830.18,122.54Z"/><path class="cls-1" d="M844.41,138.09a8.81,8.81,0,0,1-3.61-.67,6.56,6.56,0,0,1-2.44-1.8l1.68-1.5a5.75,5.75,0,0,0,1.91,1.41,5.89,5.89,0,0,0,2.51.49,4.42,4.42,0,0,0,2.14-.45,1.5,1.5,0,0,0,.81-1.4,1.42,1.42,0,0,0-.15-.68,1.23,1.23,0,0,0-.43-.45,2.6,2.6,0,0,0-.63-.27,4.57,4.57,0,0,0-.77-.15l-2-.33a9.59,9.59,0,0,1-1.52-.32,4.79,4.79,0,0,1-1.39-.64,3.27,3.27,0,0,1-1-1.06,3.15,3.15,0,0,1-.39-1.65,3.39,3.39,0,0,1,1.52-3,7,7,0,0,1,4-1,8.18,8.18,0,0,1,3.12.54,6.08,6.08,0,0,1,2.18,1.49l-1.52,1.6a4.79,4.79,0,0,0-1.43-1.06,5.18,5.18,0,0,0-2.45-.49c-1.81,0-2.72.57-2.72,1.72a1.18,1.18,0,0,0,.59,1.14,3.79,3.79,0,0,0,1.38.41l2.06.33c.51.08,1,.19,1.53.32a4.55,4.55,0,0,1,1.38.62,3.27,3.27,0,0,1,1,1.06,3.15,3.15,0,0,1,.38,1.65,3.58,3.58,0,0,1-1.51,3.06A6.9,6.9,0,0,1,844.41,138.09Z"/><path class="cls-1" d="M854,119.29h2.73v7.8h.12a5.6,5.6,0,0,1,.52-1,3.39,3.39,0,0,1,.76-.8,4,4,0,0,1,1-.54,4.54,4.54,0,0,1,1.4-.2,4.13,4.13,0,0,1,3.15,1.28,5.09,5.09,0,0,1,1.2,3.62v8.3h-2.73v-7.9c0-2-.89-3.07-2.67-3.07a4,4,0,0,0-1,.14,3.07,3.07,0,0,0-.9.41,2.12,2.12,0,0,0-.63.7,1.94,1.94,0,0,0-.24,1v8.75H854Z"/><path class="cls-1" d="M874.66,138.09a7,7,0,0,1-2.65-.47,5.41,5.41,0,0,1-2-1.35,5.82,5.82,0,0,1-1.23-2.11,8.69,8.69,0,0,1-.43-2.79,8.48,8.48,0,0,1,.44-2.8,6.25,6.25,0,0,1,1.23-2.14,5.25,5.25,0,0,1,1.91-1.36,6.3,6.3,0,0,1,2.5-.48,6.22,6.22,0,0,1,2.45.47,5.31,5.31,0,0,1,1.88,1.31,5.88,5.88,0,0,1,1.18,2,7.71,7.71,0,0,1,.41,2.6v1h-9.25v.42a3.35,3.35,0,0,0,1,2.47,3.54,3.54,0,0,0,2.63,1,4,4,0,0,0,2.14-.54,4.25,4.25,0,0,0,1.44-1.42l1.69,1.5a5.28,5.28,0,0,1-2,1.91A6.65,6.65,0,0,1,874.66,138.09Zm-.2-11.42a3.47,3.47,0,0,0-1.34.25,3,3,0,0,0-1,.71,3.49,3.49,0,0,0-.69,1.09,3.79,3.79,0,0,0-.25,1.37v.18h6.48V130a3.43,3.43,0,0,0-.86-2.44A3,3,0,0,0,874.46,126.67Z"/><path class="cls-1" d="M889.41,138.09a8.81,8.81,0,0,1-3.61-.67,6.56,6.56,0,0,1-2.44-1.8l1.68-1.5a5.75,5.75,0,0,0,1.91,1.41,5.89,5.89,0,0,0,2.51.49,4.42,4.42,0,0,0,2.14-.45,1.5,1.5,0,0,0,.81-1.4,1.42,1.42,0,0,0-.15-.68,1.23,1.23,0,0,0-.43-.45,2.6,2.6,0,0,0-.63-.27,4.57,4.57,0,0,0-.77-.15l-2-.33a9.59,9.59,0,0,1-1.52-.32,4.79,4.79,0,0,1-1.39-.64,3.27,3.27,0,0,1-1-1.06,3.15,3.15,0,0,1-.39-1.65,3.39,3.39,0,0,1,1.52-3,7,7,0,0,1,4-1,8.18,8.18,0,0,1,3.12.54,6.08,6.08,0,0,1,2.18,1.49l-1.52,1.6a4.79,4.79,0,0,0-1.43-1.06,5.18,5.18,0,0,0-2.45-.49c-1.81,0-2.72.57-2.72,1.72a1.18,1.18,0,0,0,.59,1.14,3.79,3.79,0,0,0,1.38.41l2.06.33c.51.08,1,.19,1.53.32a4.55,4.55,0,0,1,1.38.62,3.27,3.27,0,0,1,1,1.06,3.15,3.15,0,0,1,.38,1.65,3.58,3.58,0,0,1-1.51,3.06A6.9,6.9,0,0,1,889.41,138.09Z"/><path class="cls-1" d="M904.38,128.74a2.25,2.25,0,0,1-1.68-.5,1.66,1.66,0,0,1-.49-1.22v-.65a1.7,1.7,0,0,1,.49-1.23,2.29,2.29,0,0,1,1.68-.5,2.32,2.32,0,0,1,1.69.5,1.7,1.7,0,0,1,.49,1.23V127a1.66,1.66,0,0,1-.49,1.22A2.28,2.28,0,0,1,904.38,128.74Zm0,9.3a2.25,2.25,0,0,1-1.68-.5,1.66,1.66,0,0,1-.49-1.22v-.65a1.7,1.7,0,0,1,.49-1.23,2.29,2.29,0,0,1,1.68-.5,2.32,2.32,0,0,1,1.69.5,1.7,1.7,0,0,1,.49,1.23v.65a1.66,1.66,0,0,1-.49,1.22A2.28,2.28,0,0,1,904.38,138Z"/><path class="cls-1" d="M935.16,137.79a3.15,3.15,0,0,1-2.5-.91,3.43,3.43,0,0,1-.8-2.35v-7.41h-4v-2.23h2.83a1.45,1.45,0,0,0,1-.28,1.42,1.42,0,0,0,.31-1v-3.23h2.54v4.55h5.5v2.23h-5.5v8.45h5.5v2.22Z"/><path class="cls-1" d="M944,119.29h2.73v7.8h.12a5.6,5.6,0,0,1,.52-1,3.39,3.39,0,0,1,.76-.8,4,4,0,0,1,1-.54,4.54,4.54,0,0,1,1.4-.2,4.13,4.13,0,0,1,3.15,1.28,5.09,5.09,0,0,1,1.2,3.62v8.3h-2.73v-7.9c0-2-.89-3.07-2.67-3.07a4,4,0,0,0-1,.14,3.07,3.07,0,0,0-.9.41,2.12,2.12,0,0,0-.63.7,1.94,1.94,0,0,0-.24,1v8.75H944Z"/><path class="cls-1" d="M958.79,135.57h3.42v-8.45h-3.42v-2.23h6.14v3.43h.15a6.84,6.84,0,0,1,.5-1.3,4.09,4.09,0,0,1,.83-1.09,3.81,3.81,0,0,1,1.22-.75,4.65,4.65,0,0,1,1.7-.29h1.55v2.6h-2.55a3.47,3.47,0,0,0-2.45.89,3.1,3.1,0,0,0-1,2.38v4.81h4.68v2.22H958.79Z"/><path class="cls-1" d="M982.06,135.59h-.13a4.74,4.74,0,0,1-.51,1,3.39,3.39,0,0,1-.76.8,3.7,3.7,0,0,1-1,.53,4.26,4.26,0,0,1-1.4.2,4.12,4.12,0,0,1-3.15-1.27,5.1,5.1,0,0,1-1.2-3.63v-8.3h2.72v7.9c0,2.05.9,3.08,2.68,3.08a4,4,0,0,0,1-.14,2.9,2.9,0,0,0,.89-.41,2,2,0,0,0,.64-.69,1.91,1.91,0,0,0,.24-1v-8.75h2.73v12.9h-2.73Z"/><path class="cls-1" d="M994.41,138.09a8.81,8.81,0,0,1-3.61-.67,6.56,6.56,0,0,1-2.44-1.8l1.68-1.5a5.75,5.75,0,0,0,1.91,1.41,5.89,5.89,0,0,0,2.51.49,4.42,4.42,0,0,0,2.14-.45,1.5,1.5,0,0,0,.81-1.4,1.42,1.42,0,0,0-.15-.68,1.23,1.23,0,0,0-.43-.45,2.6,2.6,0,0,0-.63-.27,4.57,4.57,0,0,0-.77-.15l-2-.33a9.59,9.59,0,0,1-1.52-.32,4.79,4.79,0,0,1-1.39-.64,3.27,3.27,0,0,1-1-1.06,3.15,3.15,0,0,1-.39-1.65,3.39,3.39,0,0,1,1.52-3,7,7,0,0,1,4-1,8.18,8.18,0,0,1,3.12.54,6.08,6.08,0,0,1,2.18,1.49l-1.52,1.6a4.79,4.79,0,0,0-1.43-1.06,5.18,5.18,0,0,0-2.45-.49c-1.81,0-2.72.57-2.72,1.72a1.18,1.18,0,0,0,.59,1.14,3.79,3.79,0,0,0,1.38.41l2.06.33c.51.08,1,.19,1.53.32a4.55,4.55,0,0,1,1.38.62,3.27,3.27,0,0,1,1,1.06,3.15,3.15,0,0,1,.38,1.65,3.58,3.58,0,0,1-1.51,3.06A6.9,6.9,0,0,1,994.41,138.09Z"/><path class="cls-1" d="M1010.16,137.79a3.15,3.15,0,0,1-2.5-.91,3.43,3.43,0,0,1-.8-2.35v-7.41h-4v-2.23h2.83a1.45,1.45,0,0,0,1-.28,1.42,1.42,0,0,0,.31-1v-3.23h2.54v4.55h5.5v2.23h-5.5v8.45h5.5v2.22Z"/><path class="cls-1" d="M1023,134h3.88l-3.1,7.43h-2.13Z"/><path class="cls-1" d="M1048.79,135.57h3.42v-8.45h-3.42v-2.23h6.14v3.43h.15a6.84,6.84,0,0,1,.5-1.3,4.09,4.09,0,0,1,.83-1.09,3.81,3.81,0,0,1,1.22-.75,4.65,4.65,0,0,1,1.7-.29h1.55v2.6h-2.55a3.47,3.47,0,0,0-2.45.89,3.1,3.1,0,0,0-1,2.38v4.81h4.68v2.22h-10.82Z"/><path class="cls-1" d="M1072.06,135.59h-.13a4.74,4.74,0,0,1-.51,1,3.39,3.39,0,0,1-.76.8,3.7,3.7,0,0,1-1.05.53,4.26,4.26,0,0,1-1.4.2,4.12,4.12,0,0,1-3.15-1.27,5.1,5.1,0,0,1-1.2-3.63v-8.3h2.72v7.9c0,2.05.9,3.08,2.68,3.08a4,4,0,0,0,1-.14,2.9,2.9,0,0,0,.89-.41,2,2,0,0,0,.64-.69,1.91,1.91,0,0,0,.24-1v-8.75h2.73v12.9h-2.73Z"/><path class="cls-1" d="M1087.18,135.59H1087a4.75,4.75,0,0,1-1.53,1.84,4.07,4.07,0,0,1-2.38.66,4.37,4.37,0,0,1-3.62-1.7,10.12,10.12,0,0,1,0-10.1,4.4,4.4,0,0,1,3.62-1.7,4.08,4.08,0,0,1,2.38.67,4.79,4.79,0,0,1,1.53,1.83h.14v-7.8h2.73v18.5h-2.73Zm-2.92.28a4,4,0,0,0,1.12-.15,2.87,2.87,0,0,0,.93-.45,2.27,2.27,0,0,0,.64-.74,2.13,2.13,0,0,0,.23-1v-4.3a2.09,2.09,0,0,0-.23-1,2.27,2.27,0,0,0-.64-.74,2.87,2.87,0,0,0-.93-.45,4,4,0,0,0-1.12-.15,3,3,0,0,0-2.39,1,3.65,3.65,0,0,0-.83,2.52v2.1a3.68,3.68,0,0,0,.83,2.53A3,3,0,0,0,1084.26,135.87Z"/><path class="cls-1" d="M1102.18,135.59H1102a4.75,4.75,0,0,1-1.53,1.84,4.07,4.07,0,0,1-2.38.66,4.37,4.37,0,0,1-3.62-1.7,10.12,10.12,0,0,1,0-10.1,4.4,4.4,0,0,1,3.62-1.7,4.08,4.08,0,0,1,2.38.67,4.79,4.79,0,0,1,1.53,1.83h.14v-7.8h2.73v18.5h-2.73Zm-2.92.28a4,4,0,0,0,1.12-.15,2.87,2.87,0,0,0,.93-.45,2.27,2.27,0,0,0,.64-.74,2.13,2.13,0,0,0,.23-1v-4.3a2.09,2.09,0,0,0-.23-1,2.27,2.27,0,0,0-.64-.74,2.87,2.87,0,0,0-.93-.45,4,4,0,0,0-1.12-.15,3,3,0,0,0-2.39,1,3.65,3.65,0,0,0-.83,2.52v2.1a3.68,3.68,0,0,0,.83,2.53A3,3,0,0,0,1099.26,135.87Z"/><path class="cls-1" d="M1114.66,138.09a7,7,0,0,1-2.65-.47,5.41,5.41,0,0,1-2-1.35,5.82,5.82,0,0,1-1.23-2.11,8.69,8.69,0,0,1-.43-2.79,8.48,8.48,0,0,1,.44-2.8,6.25,6.25,0,0,1,1.23-2.14,5.25,5.25,0,0,1,1.91-1.36,6.3,6.3,0,0,1,2.5-.48,6.22,6.22,0,0,1,2.45.47,5.31,5.31,0,0,1,1.88,1.31,5.88,5.88,0,0,1,1.18,2,7.71,7.71,0,0,1,.41,2.6v1h-9.25v.42a3.35,3.35,0,0,0,.95,2.47,3.54,3.54,0,0,0,2.63,1,4,4,0,0,0,2.14-.54,4.25,4.25,0,0,0,1.44-1.42l1.69,1.5a5.28,5.28,0,0,1-2,1.91A6.65,6.65,0,0,1,1114.66,138.09Zm-.2-11.42a3.47,3.47,0,0,0-1.34.25,3,3,0,0,0-1,.71,3.49,3.49,0,0,0-.69,1.09,3.79,3.79,0,0,0-.25,1.37v.18h6.48V130a3.43,3.43,0,0,0-.86-2.44A3,3,0,0,0,1114.46,126.67Z"/><path class="cls-1" d="M1123.79,135.57h3.42v-8.45h-3.42v-2.23h6.14v3.43h.15a6.84,6.84,0,0,1,.5-1.3,4.09,4.09,0,0,1,.83-1.09,3.81,3.81,0,0,1,1.22-.75,4.65,4.65,0,0,1,1.7-.29h1.55v2.6h-2.55a3.47,3.47,0,0,0-2.45.89,3.1,3.1,0,0,0-1,2.38v4.81h4.68v2.22h-10.82Z"/><path class="cls-1" d="M1164.18,137.79a2.36,2.36,0,0,1-1.76-.6,2.64,2.64,0,0,1-.71-1.57h-.13a3.3,3.3,0,0,1-1.36,1.82,4.42,4.42,0,0,1-2.51.65,4.58,4.58,0,0,1-3.15-1,3.64,3.64,0,0,1-1.18-2.87,3.31,3.31,0,0,1,1.39-2.86,7.42,7.42,0,0,1,4.27-1h2.47v-1c0-1.75-.93-2.62-2.78-2.62a3.71,3.71,0,0,0-2,.49,4.18,4.18,0,0,0-1.3,1.28l-1.62-1.32a4.64,4.64,0,0,1,1.84-1.81,6.56,6.56,0,0,1,3.35-.77,5.81,5.81,0,0,1,3.85,1.18,4.17,4.17,0,0,1,1.4,3.4v6.47h1.63v2.15Zm-5.7-1.7a3.69,3.69,0,0,0,2.18-.59,1.8,1.8,0,0,0,.85-1.54v-1.87h-2.43c-2,0-2.95.59-2.95,1.77v.49a1.49,1.49,0,0,0,.63,1.31A3,3,0,0,0,1158.48,136.09Z"/><path class="cls-1" d="M1169,137.79v-12.9h2.73v2.2h.12a5.6,5.6,0,0,1,.52-1,3.39,3.39,0,0,1,.76-.8,4,4,0,0,1,1.05-.54,4.54,4.54,0,0,1,1.4-.2,4.13,4.13,0,0,1,3.15,1.28,5.09,5.09,0,0,1,1.2,3.62v8.3h-2.73v-7.9c0-2-.89-3.07-2.67-3.07a4,4,0,0,0-1,.14,3.07,3.07,0,0,0-.9.41,2.12,2.12,0,0,0-.63.7,1.94,1.94,0,0,0-.24,1v8.75Z"/><path class="cls-1" d="M1192.18,135.59H1192a4.75,4.75,0,0,1-1.53,1.84,4.07,4.07,0,0,1-2.38.66,4.37,4.37,0,0,1-3.62-1.7,10.12,10.12,0,0,1,0-10.1,4.4,4.4,0,0,1,3.62-1.7,4.08,4.08,0,0,1,2.38.67,4.79,4.79,0,0,1,1.53,1.83h.14v-7.8h2.73v18.5h-2.73Zm-2.92.28a4,4,0,0,0,1.12-.15,2.87,2.87,0,0,0,.93-.45,2.27,2.27,0,0,0,.64-.74,2.13,2.13,0,0,0,.23-1v-4.3a2.09,2.09,0,0,0-.23-1,2.27,2.27,0,0,0-.64-.74,2.87,2.87,0,0,0-.93-.45,4,4,0,0,0-1.12-.15,3,3,0,0,0-2.39,1,3.65,3.65,0,0,0-.83,2.52v2.1a3.68,3.68,0,0,0,.83,2.53A3,3,0,0,0,1189.26,135.87Z"/><path class="cls-1" d="M769.66,168.09a7,7,0,0,1-2.65-.47,5.41,5.41,0,0,1-2-1.35,5.82,5.82,0,0,1-1.23-2.11,8.69,8.69,0,0,1-.43-2.79,8.48,8.48,0,0,1,.44-2.8,6.25,6.25,0,0,1,1.23-2.14,5.25,5.25,0,0,1,1.91-1.36,6.3,6.3,0,0,1,2.5-.48,6.22,6.22,0,0,1,2.45.47,5.31,5.31,0,0,1,1.88,1.31,5.88,5.88,0,0,1,1.18,2,7.71,7.71,0,0,1,.41,2.6v1h-9.25v.42a3.35,3.35,0,0,0,1,2.47,3.54,3.54,0,0,0,2.63,1,4,4,0,0,0,2.14-.54,4.25,4.25,0,0,0,1.44-1.42l1.69,1.5a5.28,5.28,0,0,1-2,1.91A6.65,6.65,0,0,1,769.66,168.09Zm-.2-11.42a3.47,3.47,0,0,0-1.34.25,3,3,0,0,0-1,.71,3.49,3.49,0,0,0-.69,1.09,3.79,3.79,0,0,0-.25,1.37v.18h6.48V160a3.43,3.43,0,0,0-.86-2.44A3,3,0,0,0,769.46,156.67Z"/><path class="cls-1" d="M778.76,165.57H783v-14h-4.28v-2.23h7v16.28H790v2.22H778.76Z"/><path class="cls-1" d="M799.66,168.09a7,7,0,0,1-2.65-.47,5.41,5.41,0,0,1-2-1.35,5.82,5.82,0,0,1-1.23-2.11,8.69,8.69,0,0,1-.43-2.79,8.48,8.48,0,0,1,.44-2.8,6.25,6.25,0,0,1,1.23-2.14,5.25,5.25,0,0,1,1.91-1.36,6.3,6.3,0,0,1,2.5-.48,6.22,6.22,0,0,1,2.45.47,5.31,5.31,0,0,1,1.88,1.31,5.88,5.88,0,0,1,1.18,2,7.71,7.71,0,0,1,.41,2.6v1h-9.25v.42a3.35,3.35,0,0,0,1,2.47,3.54,3.54,0,0,0,2.63,1,4,4,0,0,0,2.14-.54,4.25,4.25,0,0,0,1.44-1.42l1.69,1.5a5.28,5.28,0,0,1-2,1.91A6.65,6.65,0,0,1,799.66,168.09Zm-.2-11.42a3.47,3.47,0,0,0-1.34.25,3,3,0,0,0-1,.71,3.49,3.49,0,0,0-.69,1.09,3.79,3.79,0,0,0-.25,1.37v.18h6.48V160a3.43,3.43,0,0,0-.86-2.44A3,3,0,0,0,799.46,156.67Z"/><path class="cls-1" d="M812.71,167.79l-4.63-12.9h2.83l1.77,5.45,1.68,5.18h.15l1.67-5.18,1.78-5.45h2.72l-4.62,12.9Z"/><path class="cls-1" d="M834.18,167.79a2.36,2.36,0,0,1-1.76-.6,2.64,2.64,0,0,1-.71-1.57h-.13a3.3,3.3,0,0,1-1.36,1.82,4.42,4.42,0,0,1-2.51.65,4.58,4.58,0,0,1-3.15-1,3.64,3.64,0,0,1-1.18-2.87,3.31,3.31,0,0,1,1.39-2.86,7.42,7.42,0,0,1,4.27-1h2.47v-1c0-1.75-.93-2.62-2.78-2.62a3.71,3.71,0,0,0-2,.49,4.18,4.18,0,0,0-1.3,1.28l-1.62-1.32a4.64,4.64,0,0,1,1.84-1.81,6.56,6.56,0,0,1,3.35-.77,5.81,5.81,0,0,1,3.85,1.18,4.17,4.17,0,0,1,1.4,3.4v6.47h1.63v2.15Zm-5.7-1.7a3.69,3.69,0,0,0,2.18-.59,1.8,1.8,0,0,0,.85-1.54v-1.87h-2.43c-2,0-3,.59-3,1.77v.49a1.49,1.49,0,0,0,.63,1.31A3,3,0,0,0,828.48,166.09Z"/><path class="cls-1" d="M845.16,167.79a3.15,3.15,0,0,1-2.5-.91,3.43,3.43,0,0,1-.8-2.35v-7.41h-4v-2.23h2.83a1.45,1.45,0,0,0,1-.28,1.42,1.42,0,0,0,.31-1v-3.23h2.54v4.55h5.5v2.23h-5.5v8.45h5.5v2.22Z"/><path class="cls-1" d="M859.38,168.09a6.53,6.53,0,0,1-2.56-.47,5.3,5.3,0,0,1-1.92-1.35,6,6,0,0,1-1.22-2.13,9.54,9.54,0,0,1,0-5.6,6.05,6.05,0,0,1,1.22-2.12,5.3,5.3,0,0,1,1.92-1.35,7.09,7.09,0,0,1,5.13,0,5.3,5.3,0,0,1,1.92,1.35,5.88,5.88,0,0,1,1.21,2.12,9.33,9.33,0,0,1,0,5.6,5.84,5.84,0,0,1-1.21,2.13,5.3,5.3,0,0,1-1.92,1.35A6.58,6.58,0,0,1,859.38,168.09Zm0-2.15a3.17,3.17,0,0,0,2.39-.91,3.75,3.75,0,0,0,.89-2.71v-1.95a3.73,3.73,0,0,0-.89-2.71,3.55,3.55,0,0,0-4.77,0,3.73,3.73,0,0,0-.89,2.71v1.95A3.75,3.75,0,0,0,857,165,3.15,3.15,0,0,0,859.38,165.94Z"/><path class="cls-1" d="M868.79,165.57h3.42v-8.45h-3.42v-2.23h6.14v3.43h.15a6.84,6.84,0,0,1,.5-1.3,4.09,4.09,0,0,1,.83-1.09,3.81,3.81,0,0,1,1.22-.75,4.65,4.65,0,0,1,1.7-.29h1.55v2.6h-2.55a3.47,3.47,0,0,0-2.45.89,3.1,3.1,0,0,0-1,2.38v4.81h4.68v2.22H868.79Z"/><path class="cls-1" d="M904.86,168.09a6.61,6.61,0,0,1-2.59-.47,5.3,5.3,0,0,1-1.92-1.35,5.69,5.69,0,0,1-1.2-2.13,9.54,9.54,0,0,1,0-5.6,5.72,5.72,0,0,1,1.2-2.12,5.3,5.3,0,0,1,1.92-1.35,6.53,6.53,0,0,1,2.56-.48,5.55,5.55,0,0,1,3.22.84,5.21,5.21,0,0,1,1.81,2.19l-2.13,1.15a3.08,3.08,0,0,0-1.06-1.43,3,3,0,0,0-1.84-.52,3.07,3.07,0,0,0-2.4.94,3.62,3.62,0,0,0-.85,2.5v2.16a3.61,3.61,0,0,0,.85,2.49,3.11,3.11,0,0,0,2.45,1,3.28,3.28,0,0,0,2-.55,3.85,3.85,0,0,0,1.21-1.5l2,1.22a5.31,5.31,0,0,1-1.9,2.2A5.82,5.82,0,0,1,904.86,168.09Z"/><path class="cls-1" d="M919.38,168.09a6.53,6.53,0,0,1-2.56-.47,5.3,5.3,0,0,1-1.92-1.35,6,6,0,0,1-1.22-2.13,9.54,9.54,0,0,1,0-5.6,6.05,6.05,0,0,1,1.22-2.12,5.3,5.3,0,0,1,1.92-1.35,7.09,7.09,0,0,1,5.13,0,5.3,5.3,0,0,1,1.92,1.35,5.88,5.88,0,0,1,1.21,2.12,9.33,9.33,0,0,1,0,5.6,5.84,5.84,0,0,1-1.21,2.13,5.3,5.3,0,0,1-1.92,1.35A6.58,6.58,0,0,1,919.38,168.09Zm0-2.15a3.17,3.17,0,0,0,2.39-.91,3.75,3.75,0,0,0,.89-2.71v-1.95a3.73,3.73,0,0,0-.89-2.71,3.55,3.55,0,0,0-4.77,0,3.73,3.73,0,0,0-.89,2.71v1.95A3.75,3.75,0,0,0,917,165,3.15,3.15,0,0,0,919.38,165.94Z"/><path class="cls-1" d="M929,167.79v-12.9h2.73v2.2h.12a5.6,5.6,0,0,1,.52-1,3.39,3.39,0,0,1,.76-.8,4,4,0,0,1,1-.54,4.54,4.54,0,0,1,1.4-.2,4.13,4.13,0,0,1,3.15,1.28,5.09,5.09,0,0,1,1.2,3.62v8.3h-2.73v-7.9c0-2-.89-3.07-2.67-3.07a4,4,0,0,0-1,.14,3.07,3.07,0,0,0-.9.41,2.12,2.12,0,0,0-.63.7,1.94,1.94,0,0,0-.24,1v8.75Z"/><path class="cls-1" d="M950.16,167.79a3.15,3.15,0,0,1-2.5-.91,3.43,3.43,0,0,1-.8-2.35v-7.41h-4v-2.23h2.83a1.45,1.45,0,0,0,1-.28,1.42,1.42,0,0,0,.31-1v-3.23h2.54v4.55h5.5v2.23h-5.5v8.45h5.5v2.22Z"/><path class="cls-1" d="M958.79,165.57h3.42v-8.45h-3.42v-2.23h6.14v3.43h.15a6.84,6.84,0,0,1,.5-1.3,4.09,4.09,0,0,1,.83-1.09,3.81,3.81,0,0,1,1.22-.75,4.65,4.65,0,0,1,1.7-.29h1.55v2.6h-2.55a3.47,3.47,0,0,0-2.45.89,3.1,3.1,0,0,0-1,2.38v4.81h4.68v2.22H958.79Z"/><path class="cls-1" d="M979.38,168.09a6.53,6.53,0,0,1-2.56-.47,5.3,5.3,0,0,1-1.92-1.35,6,6,0,0,1-1.22-2.13,9.54,9.54,0,0,1,0-5.6,6.05,6.05,0,0,1,1.22-2.12,5.3,5.3,0,0,1,1.92-1.35,7.09,7.09,0,0,1,5.13,0,5.3,5.3,0,0,1,1.92,1.35,5.88,5.88,0,0,1,1.21,2.12,9.33,9.33,0,0,1,0,5.6,5.84,5.84,0,0,1-1.21,2.13,5.3,5.3,0,0,1-1.92,1.35A6.58,6.58,0,0,1,979.38,168.09Zm0-2.15a3.17,3.17,0,0,0,2.39-.91,3.75,3.75,0,0,0,.89-2.71v-1.95a3.73,3.73,0,0,0-.89-2.71,3.55,3.55,0,0,0-4.77,0,3.73,3.73,0,0,0-.89,2.71v1.95A3.75,3.75,0,0,0,977,165,3.15,3.15,0,0,0,979.38,165.94Z"/><path class="cls-1" d="M988.76,165.57H993v-14h-4.28v-2.23h7v16.28H1000v2.22H988.76Z"/><path class="cls-1" d="M1019.41,165.57h4.4v-8.45h-4.4v-2.23h7.13v10.68h4.12v2.22h-11.25Zm5.77-13a2,2,0,0,1-1.46-.42,1.46,1.46,0,0,1-.41-1.05v-.53a1.49,1.49,0,0,1,.41-1,2.71,2.71,0,0,1,2.9,0,1.46,1.46,0,0,1,.42,1v.53a1.42,1.42,0,0,1-.42,1.05A2,2,0,0,1,1025.18,152.54Z"/><path class="cls-1" d="M1034,167.79v-12.9h2.73v2.2h.12a5.6,5.6,0,0,1,.52-1,3.39,3.39,0,0,1,.76-.8,4,4,0,0,1,1.05-.54,4.54,4.54,0,0,1,1.4-.2,4.13,4.13,0,0,1,3.15,1.28,5.09,5.09,0,0,1,1.2,3.62v8.3h-2.73v-7.9c0-2-.89-3.07-2.67-3.07a4,4,0,0,0-1,.14,3.07,3.07,0,0,0-.9.41,2.12,2.12,0,0,0-.63.7,1.94,1.94,0,0,0-.24,1v8.75Z"/><path class="cls-1" d="M1048.86,154.89h2.72v2.2h.15a4.79,4.79,0,0,1,1.53-1.83,4,4,0,0,1,2.37-.67,4.4,4.4,0,0,1,3.63,1.7,10.12,10.12,0,0,1,0,10.1,4.38,4.38,0,0,1-3.63,1.7,4,4,0,0,1-2.37-.66,4.75,4.75,0,0,1-1.53-1.84h-.15v7.2h-2.72Zm5.65,11a3,3,0,0,0,2.39-1,3.68,3.68,0,0,0,.83-2.53v-2.1a3.65,3.65,0,0,0-.83-2.52,3,3,0,0,0-2.39-1,4.11,4.11,0,0,0-1.13.15,2.92,2.92,0,0,0-.92.45,2.27,2.27,0,0,0-.64.74,2.09,2.09,0,0,0-.24,1v4.3a2.13,2.13,0,0,0,.24,1,2.27,2.27,0,0,0,.64.74,2.92,2.92,0,0,0,.92.45A4.11,4.11,0,0,0,1054.51,165.87Z"/><path class="cls-1" d="M1072.06,165.59h-.13a4.74,4.74,0,0,1-.51,1,3.39,3.39,0,0,1-.76.8,3.7,3.7,0,0,1-1.05.53,4.26,4.26,0,0,1-1.4.2,4.12,4.12,0,0,1-3.15-1.27,5.1,5.1,0,0,1-1.2-3.63v-8.3h2.72v7.9c0,2.05.9,3.08,2.68,3.08a4,4,0,0,0,1-.14,2.9,2.9,0,0,0,.89-.41,2,2,0,0,0,.64-.69,1.91,1.91,0,0,0,.24-1v-8.75h2.73v12.9h-2.73Z"/><path class="cls-1" d="M1085.16,167.79a3.15,3.15,0,0,1-2.5-.91,3.43,3.43,0,0,1-.8-2.35v-7.41h-4v-2.23h2.83a1.45,1.45,0,0,0,1-.28,1.42,1.42,0,0,0,.31-1v-3.23h2.54v4.55h5.5v2.23h-5.5v8.45h5.5v2.22Z"/><path class="cls-1" d="M771,235.15a8.28,8.28,0,0,1-3.82-.79,7.12,7.12,0,0,1-2.55-2.11l1.8-1.72a6.57,6.57,0,0,0,2.12,1.76,5.56,5.56,0,0,0,2.55.56,3.83,3.83,0,0,0,2.54-.75,2.7,2.7,0,0,0,.89-2.17,2.29,2.29,0,0,0-.65-1.74,4.35,4.35,0,0,0-2.23-.9l-1.9-.3a6.49,6.49,0,0,1-2.1-.66,4.48,4.48,0,0,1-1.37-1.1,4.09,4.09,0,0,1-.77-1.42,6.05,6.05,0,0,1-.23-1.66,4.53,4.53,0,0,1,1.6-3.76,6.8,6.8,0,0,1,4.4-1.29,8.52,8.52,0,0,1,3.53.66,6,6,0,0,1,2.37,1.84l-1.75,1.75a6,6,0,0,0-1.72-1.41,5,5,0,0,0-2.43-.54,3.7,3.7,0,0,0-2.37.67,2.39,2.39,0,0,0-.81,2,2.22,2.22,0,0,0,.64,1.7,4.37,4.37,0,0,0,2.26.9l1.85.32a5.57,5.57,0,0,1,3.43,1.71,4.76,4.76,0,0,1,1.07,3.14,5.77,5.77,0,0,1-.41,2.19,4.46,4.46,0,0,1-1.23,1.7,5.74,5.74,0,0,1-2,1.09A8.66,8.66,0,0,1,771,235.15Z"/><path class="cls-1" d="M788.83,232.65h-.13a4.74,4.74,0,0,1-.51,1,3.39,3.39,0,0,1-.76.8,3.7,3.7,0,0,1-1,.53,4.26,4.26,0,0,1-1.4.2,4.12,4.12,0,0,1-3.15-1.27,5.1,5.1,0,0,1-1.2-3.63V222h2.72v7.9c0,2.05.89,3.08,2.68,3.08a3.86,3.86,0,0,0,1-.14,3.07,3.07,0,0,0,.9-.41,2,2,0,0,0,.64-.69,1.91,1.91,0,0,0,.24-1V222h2.72v12.9h-2.72Z"/><path class="cls-1" d="M795.63,216.35h2.72v7.8h.15a4.62,4.62,0,0,1,1.53-1.83,4,4,0,0,1,2.37-.67,4.4,4.4,0,0,1,3.63,1.7,10.12,10.12,0,0,1,0,10.1,4.38,4.38,0,0,1-3.63,1.7,4,4,0,0,1-2.37-.66,4.58,4.58,0,0,1-1.53-1.84h-.15v2.2h-2.72Zm5.65,16.58a3,3,0,0,0,2.38-1,3.68,3.68,0,0,0,.84-2.53v-2.1a3.65,3.65,0,0,0-.84-2.52,3,3,0,0,0-2.38-1,4.11,4.11,0,0,0-1.13.15,2.72,2.72,0,0,0-.92.45,2.27,2.27,0,0,0-.64.74,2.09,2.09,0,0,0-.24,1v4.3a2.13,2.13,0,0,0,.24,1,2.27,2.27,0,0,0,.64.74,2.72,2.72,0,0,0,.92.45A4.11,4.11,0,0,0,801.28,232.93Z"/><path class="cls-1" d="M816.18,235.15a8.86,8.86,0,0,1-3.62-.67,6.52,6.52,0,0,1-2.43-1.8l1.67-1.5a5.85,5.85,0,0,0,1.91,1.41,5.93,5.93,0,0,0,2.52.49,4.37,4.37,0,0,0,2.13-.45,1.49,1.49,0,0,0,.82-1.4,1.42,1.42,0,0,0-.15-.68,1.32,1.32,0,0,0-.43-.45,2.52,2.52,0,0,0-.64-.27,4.45,4.45,0,0,0-.76-.15l-2.05-.33a9.37,9.37,0,0,1-1.52-.32,4.79,4.79,0,0,1-1.39-.64,3.27,3.27,0,0,1-1-1.06,3.15,3.15,0,0,1-.39-1.65,3.4,3.4,0,0,1,1.51-3,7,7,0,0,1,4-1,8.12,8.12,0,0,1,3.11.54,6,6,0,0,1,2.19,1.49l-1.52,1.6a4.92,4.92,0,0,0-1.43-1.06,5.2,5.2,0,0,0-2.45-.49c-1.82,0-2.72.57-2.72,1.72a1.18,1.18,0,0,0,.58,1.14,3.84,3.84,0,0,0,1.39.41l2,.33c.52.08,1,.19,1.54.32a4.39,4.39,0,0,1,1.37.62,3,3,0,0,1,1.39,2.71,3.58,3.58,0,0,1-1.51,3.06A6.92,6.92,0,0,1,816.18,235.15Z"/><path class="cls-1" d="M831.63,235.15a6.61,6.61,0,0,1-2.59-.47,5.43,5.43,0,0,1-1.93-1.35,6,6,0,0,1-1.2-2.13,9,9,0,0,1-.41-2.8,9.1,9.1,0,0,1,.41-2.8,6,6,0,0,1,1.2-2.12,5.43,5.43,0,0,1,1.93-1.35,6.53,6.53,0,0,1,2.56-.48,5.47,5.47,0,0,1,3.21.85,5.15,5.15,0,0,1,1.82,2.18l-2.13,1.15a3.15,3.15,0,0,0-1.06-1.43,3,3,0,0,0-1.84-.52,3.07,3.07,0,0,0-2.4.94,3.58,3.58,0,0,0-.85,2.5v2.17a3.56,3.56,0,0,0,.85,2.48,3.1,3.1,0,0,0,2.45,1,3.23,3.23,0,0,0,2-.55,3.87,3.87,0,0,0,1.22-1.5l2,1.22a5.31,5.31,0,0,1-1.9,2.2A5.82,5.82,0,0,1,831.63,235.15Z"/><path class="cls-1" d="M840.55,232.63H844v-8.45h-3.43V222h6.15v3.43h.15a6.23,6.23,0,0,1,.5-1.3,3.89,3.89,0,0,1,.83-1.09,3.81,3.81,0,0,1,1.22-.75,4.62,4.62,0,0,1,1.7-.29h1.55v2.6H850.1a3.45,3.45,0,0,0-2.45.89,3.1,3.1,0,0,0-.95,2.38v4.81h4.68v2.22H840.55Z"/><path class="cls-1" d="M856.18,232.63h4.4v-8.45h-4.4V222h7.12v10.68h4.13v2.22H856.18Zm5.77-13a2,2,0,0,1-1.46-.42,1.42,1.42,0,0,1-.41-1.05v-.53a1.45,1.45,0,0,1,.41-1,2,2,0,0,1,1.44-.42,2,2,0,0,1,1.46.42,1.49,1.49,0,0,1,.41,1v.53a1.46,1.46,0,0,1-.41,1.05A2,2,0,0,1,862,219.6Z"/><path class="cls-1" d="M870.63,216.35h2.72v7.8h.15a4.62,4.62,0,0,1,1.53-1.83,4,4,0,0,1,2.37-.67,4.4,4.4,0,0,1,3.63,1.7,10.12,10.12,0,0,1,0,10.1,4.38,4.38,0,0,1-3.63,1.7,4,4,0,0,1-2.37-.66,4.58,4.58,0,0,1-1.53-1.84h-.15v2.2h-2.72Zm5.65,16.58a3,3,0,0,0,2.38-1,3.68,3.68,0,0,0,.84-2.53v-2.1a3.65,3.65,0,0,0-.84-2.52,3,3,0,0,0-2.38-1,4.11,4.11,0,0,0-1.13.15,2.72,2.72,0,0,0-.92.45,2.27,2.27,0,0,0-.64.74,2.09,2.09,0,0,0-.24,1v4.3a2.13,2.13,0,0,0,.24,1,2.27,2.27,0,0,0,.64.74,2.72,2.72,0,0,0,.92.45A4.11,4.11,0,0,0,876.28,232.93Z"/><path class="cls-1" d="M891.43,235.15a6.92,6.92,0,0,1-2.65-.47,5.36,5.36,0,0,1-2-1.35,5.94,5.94,0,0,1-1.22-2.11,9.2,9.2,0,0,1,0-5.59,6.4,6.4,0,0,1,1.22-2.14,5.38,5.38,0,0,1,1.92-1.36,6.69,6.69,0,0,1,4.95,0,5.27,5.27,0,0,1,1.87,1.31,5.9,5.9,0,0,1,1.19,2,8,8,0,0,1,.41,2.6v1H887.9v.42a3.35,3.35,0,0,0,1,2.47,3.53,3.53,0,0,0,2.63,1,4.1,4.1,0,0,0,2.13-.53,4.28,4.28,0,0,0,1.44-1.43l1.7,1.5a5.24,5.24,0,0,1-2,1.91A6.51,6.51,0,0,1,891.43,235.15Zm-.2-11.42a3.44,3.44,0,0,0-1.34.25,3,3,0,0,0-1,.71,3.49,3.49,0,0,0-.69,1.09,3.59,3.59,0,0,0-.25,1.37v.18h6.48v-.25a3.39,3.39,0,0,0-.87-2.44A3,3,0,0,0,891.23,223.73Z"/><path class="cls-1" d="M906.18,235.15a8.86,8.86,0,0,1-3.62-.67,6.52,6.52,0,0,1-2.43-1.8l1.67-1.5a5.85,5.85,0,0,0,1.91,1.41,5.93,5.93,0,0,0,2.52.49,4.37,4.37,0,0,0,2.13-.45,1.49,1.49,0,0,0,.82-1.4,1.42,1.42,0,0,0-.15-.68,1.32,1.32,0,0,0-.43-.45,2.52,2.52,0,0,0-.64-.27,4.45,4.45,0,0,0-.76-.15l-2.05-.33a9.37,9.37,0,0,1-1.52-.32,4.79,4.79,0,0,1-1.39-.64,3.27,3.27,0,0,1-1-1.06,3.15,3.15,0,0,1-.39-1.65,3.4,3.4,0,0,1,1.51-3,7,7,0,0,1,4-1,8.12,8.12,0,0,1,3.11.54,6,6,0,0,1,2.19,1.49l-1.52,1.6a4.92,4.92,0,0,0-1.43-1.06,5.2,5.2,0,0,0-2.45-.49c-1.82,0-2.72.57-2.72,1.72a1.18,1.18,0,0,0,.58,1.14,3.84,3.84,0,0,0,1.39.41l2,.33c.52.08,1,.19,1.54.32a4.39,4.39,0,0,1,1.37.62,3,3,0,0,1,1.39,2.71,3.58,3.58,0,0,1-1.51,3.06A6.92,6.92,0,0,1,906.18,235.15Z"/><path class="cls-1" d="M921.15,225.8a2.29,2.29,0,0,1-1.69-.5,1.69,1.69,0,0,1-.48-1.22v-.65a1.73,1.73,0,0,1,.48-1.23,3.11,3.11,0,0,1,3.38,0,1.74,1.74,0,0,1,.49,1.23v.65a1.7,1.7,0,0,1-.49,1.22A2.29,2.29,0,0,1,921.15,225.8Zm0,9.3a2.29,2.29,0,0,1-1.69-.5,1.69,1.69,0,0,1-.48-1.22v-.65a1.73,1.73,0,0,1,.48-1.23,3.11,3.11,0,0,1,3.38,0,1.74,1.74,0,0,1,.49,1.23v.65a1.7,1.7,0,0,1-.49,1.22A2.29,2.29,0,0,1,921.15,235.1Z"/><path class="cls-1" d="M956,234.85a2.36,2.36,0,0,1-1.76-.6,2.64,2.64,0,0,1-.71-1.57h-.13A3.3,3.3,0,0,1,952,234.5a4.44,4.44,0,0,1-2.51.65,4.58,4.58,0,0,1-3.15-1,3.61,3.61,0,0,1-1.18-2.87,3.28,3.28,0,0,1,1.39-2.86,7.36,7.36,0,0,1,4.26-1h2.48v-1c0-1.75-.93-2.62-2.78-2.62a3.69,3.69,0,0,0-2,.49,4.18,4.18,0,0,0-1.3,1.28l-1.63-1.32a4.67,4.67,0,0,1,1.85-1.81,6.54,6.54,0,0,1,3.35-.77,5.83,5.83,0,0,1,3.85,1.18,4.2,4.2,0,0,1,1.4,3.4v6.47h1.63v2.15Zm-5.7-1.7a3.71,3.71,0,0,0,2.18-.59,1.83,1.83,0,0,0,.85-1.54v-1.87h-2.43c-2,0-3,.59-3,1.77v.5a1.47,1.47,0,0,0,.63,1.3A3,3,0,0,0,950.25,233.15Z"/><path class="cls-1" d="M960.75,234.85V222h2.73v2.2h.12a5.54,5.54,0,0,1,.51-1,3.44,3.44,0,0,1,.77-.8,4,4,0,0,1,1-.54,4.5,4.5,0,0,1,1.4-.2,4.13,4.13,0,0,1,3.15,1.28,5.09,5.09,0,0,1,1.2,3.62v8.3H969V227c0-2-.89-3.07-2.67-3.07a3.94,3.94,0,0,0-1,.14,3.07,3.07,0,0,0-.9.41,1.94,1.94,0,0,0-.87,1.67v8.75Z"/><path class="cls-1" d="M987.9,236.25a3.16,3.16,0,0,1-1.67,2.95,10.59,10.59,0,0,1-5.1,1,15.92,15.92,0,0,1-2.82-.21,6.08,6.08,0,0,1-1.85-.61,2.54,2.54,0,0,1-1-1,2.63,2.63,0,0,1-.31-1.3,2.2,2.2,0,0,1,.58-1.63,3.67,3.67,0,0,1,1.67-.87v-.25a2.45,2.45,0,0,1-1-.7,1.93,1.93,0,0,1,.26-2.61,4.66,4.66,0,0,1,1.68-.74v-.12a4.24,4.24,0,0,1-1.83-1.55,4.35,4.35,0,0,1-.65-2.4,4.51,4.51,0,0,1,.38-1.86,4,4,0,0,1,1.06-1.43,5.06,5.06,0,0,1,1.65-.91,7.15,7.15,0,0,1,4.59.1v-.43a1.89,1.89,0,0,1,.42-1.25,1.62,1.62,0,0,1,1.3-.5h2.35v2.15h-3v.6a3.9,3.9,0,0,1,1.3,1.47,4.9,4.9,0,0,1,.08,3.92,4,4,0,0,1-1.07,1.43,4.68,4.68,0,0,1-1.65.9,6.91,6.91,0,0,1-2.16.31,8.13,8.13,0,0,1-1.6-.15,3,3,0,0,0-.9.42,1,1,0,0,0-.45.83.7.7,0,0,0,.58.75,5.66,5.66,0,0,0,1.42.15H983a5.73,5.73,0,0,1,3.75,1A3.23,3.23,0,0,1,987.9,236.25Zm-2.55.17a1.24,1.24,0,0,0-.52-1,3.36,3.36,0,0,0-1.9-.39h-4.48a1.52,1.52,0,0,0-1,1.46,1.63,1.63,0,0,0,.61,1.26,3.14,3.14,0,0,0,2,.53h2a4.82,4.82,0,0,0,2.36-.47A1.47,1.47,0,0,0,985.35,236.42Zm-4.3-7.62a2.66,2.66,0,0,0,2-.62,2.27,2.27,0,0,0,.63-1.68v-.67a2.27,2.27,0,0,0-.63-1.68,3.38,3.38,0,0,0-3.9,0,2.26,2.26,0,0,0-.62,1.68v.67a2.26,2.26,0,0,0,.62,1.68A2.66,2.66,0,0,0,981.05,228.8Z"/><path class="cls-1" d="M998.83,232.65h-.13a4.74,4.74,0,0,1-.51,1,3.39,3.39,0,0,1-.76.8,3.7,3.7,0,0,1-1,.53,4.26,4.26,0,0,1-1.4.2,4.12,4.12,0,0,1-3.15-1.27,5.1,5.1,0,0,1-1.2-3.63V222h2.72v7.9c0,2.05.89,3.08,2.68,3.08a3.86,3.86,0,0,0,1-.14,3.07,3.07,0,0,0,.9-.41,2,2,0,0,0,.64-.69,1.91,1.91,0,0,0,.24-1V222h2.72v12.9h-2.72Z"/><path class="cls-1" d="M1005.53,232.63h4.27v-14h-4.27v-2.23h7v16.28h4.27v2.22h-11.27Z"/><path class="cls-1" d="M1031,234.85a2.36,2.36,0,0,1-1.76-.6,2.64,2.64,0,0,1-.71-1.57h-.13a3.3,3.3,0,0,1-1.36,1.82,4.44,4.44,0,0,1-2.51.65,4.58,4.58,0,0,1-3.15-1,3.61,3.61,0,0,1-1.18-2.87,3.28,3.28,0,0,1,1.39-2.86,7.36,7.36,0,0,1,4.26-1h2.48v-1c0-1.75-.93-2.62-2.78-2.62a3.69,3.69,0,0,0-2,.49,4.18,4.18,0,0,0-1.3,1.28l-1.63-1.32a4.67,4.67,0,0,1,1.85-1.81,6.54,6.54,0,0,1,3.35-.77,5.83,5.83,0,0,1,3.85,1.18,4.2,4.2,0,0,1,1.4,3.4v6.47h1.63v2.15Zm-5.7-1.7a3.71,3.71,0,0,0,2.18-.59,1.83,1.83,0,0,0,.85-1.54v-1.87h-2.43c-2,0-2.95.59-2.95,1.77v.5a1.47,1.47,0,0,0,.63,1.3A3,3,0,0,0,1025.25,233.15Z"/><path class="cls-1" d="M1035.55,232.63H1039v-8.45h-3.43V222h6.15v3.43h.15a6.23,6.23,0,0,1,.5-1.3,3.89,3.89,0,0,1,.83-1.09,3.81,3.81,0,0,1,1.22-.75,4.62,4.62,0,0,1,1.7-.29h1.55v2.6h-2.55a3.45,3.45,0,0,0-2.45.89,3.1,3.1,0,0,0-1,2.38v4.81h4.68v2.22h-10.83Z"/><path class="cls-1" d="M1050.73,238.3l8.42-22.45h2.43l-8.43,22.45Z"/><path class="cls-1" d="M1065.53,232.63h4.27v-14h-4.27v-2.23h7v16.28h4.27v2.22h-11.27Z"/><path class="cls-1" d="M1081.18,232.63h4.4v-8.45h-4.4V222h7.12v10.68h4.13v2.22h-11.25Zm5.77-13a2,2,0,0,1-1.46-.42,1.42,1.42,0,0,1-.41-1.05v-.53a1.45,1.45,0,0,1,.41-1,2,2,0,0,1,1.44-.42,2,2,0,0,1,1.46.42,1.49,1.49,0,0,1,.41,1v.53a1.46,1.46,0,0,1-.41,1.05A2,2,0,0,1,1087,219.6Z"/><path class="cls-1" d="M1095.75,234.85V222h2.73v2.2h.12a5.54,5.54,0,0,1,.51-1,3.44,3.44,0,0,1,.77-.8,4,4,0,0,1,1-.54,4.5,4.5,0,0,1,1.4-.2,4.13,4.13,0,0,1,3.15,1.28,5.09,5.09,0,0,1,1.2,3.62v8.3H1104V227c0-2-.89-3.07-2.67-3.07a3.94,3.94,0,0,0-1,.14,3.07,3.07,0,0,0-.9.41,1.94,1.94,0,0,0-.87,1.67v8.75Z"/><path class="cls-1" d="M1116.43,235.15a6.92,6.92,0,0,1-2.65-.47,5.36,5.36,0,0,1-2-1.35,5.94,5.94,0,0,1-1.22-2.11,9.2,9.2,0,0,1,0-5.59,6.4,6.4,0,0,1,1.22-2.14,5.38,5.38,0,0,1,1.92-1.36,6.69,6.69,0,0,1,5,0,5.27,5.27,0,0,1,1.87,1.31,5.9,5.9,0,0,1,1.19,2,8,8,0,0,1,.41,2.6v1h-9.25v.42a3.35,3.35,0,0,0,.95,2.47,3.53,3.53,0,0,0,2.63,1,4.1,4.1,0,0,0,2.13-.53,4.28,4.28,0,0,0,1.44-1.43l1.7,1.5a5.24,5.24,0,0,1-2,1.91A6.51,6.51,0,0,1,1116.43,235.15Zm-.2-11.42a3.44,3.44,0,0,0-1.34.25,3,3,0,0,0-1.05.71,3.49,3.49,0,0,0-.69,1.09,3.59,3.59,0,0,0-.25,1.37v.18h6.48v-.25a3.39,3.39,0,0,0-.87-2.44A3,3,0,0,0,1116.23,223.73Z"/><path class="cls-1" d="M1136,234.85a2.36,2.36,0,0,1-1.76-.6,2.64,2.64,0,0,1-.71-1.57h-.13a3.3,3.3,0,0,1-1.36,1.82,4.44,4.44,0,0,1-2.51.65,4.58,4.58,0,0,1-3.15-1,3.61,3.61,0,0,1-1.18-2.87,3.28,3.28,0,0,1,1.39-2.86,7.36,7.36,0,0,1,4.26-1h2.48v-1c0-1.75-.93-2.62-2.78-2.62a3.69,3.69,0,0,0-2,.49,4.18,4.18,0,0,0-1.3,1.28l-1.63-1.32a4.67,4.67,0,0,1,1.85-1.81,6.54,6.54,0,0,1,3.35-.77,5.83,5.83,0,0,1,3.85,1.18,4.2,4.2,0,0,1,1.4,3.4v6.47h1.63v2.15Zm-5.7-1.7a3.71,3.71,0,0,0,2.18-.59,1.83,1.83,0,0,0,.85-1.54v-1.87h-2.43c-2,0-2.95.59-2.95,1.77v.5a1.47,1.47,0,0,0,.63,1.3A3,3,0,0,0,1130.25,233.15Z"/><path class="cls-1" d="M1140.55,232.63H1144v-8.45h-3.43V222h6.15v3.43h.15a6.23,6.23,0,0,1,.5-1.3,3.89,3.89,0,0,1,.83-1.09,3.81,3.81,0,0,1,1.22-.75,4.62,4.62,0,0,1,1.7-.29h1.55v2.6h-2.55a3.45,3.45,0,0,0-2.45.89,3.1,3.1,0,0,0-1,2.38v4.81h4.68v2.22h-10.83Z"/><path class="cls-1" d="M769.48,264.85,764.85,252h2.83l1.77,5.45,1.68,5.18h.15L773,257.4l1.78-5.45h2.72l-4.62,12.9Z"/><path class="cls-1" d="M786.43,265.15a6.92,6.92,0,0,1-2.65-.47,5.36,5.36,0,0,1-2-1.35,5.94,5.94,0,0,1-1.22-2.11,9.2,9.2,0,0,1,0-5.59,6.4,6.4,0,0,1,1.22-2.14,5.38,5.38,0,0,1,1.92-1.36,6.69,6.69,0,0,1,4.95,0,5.27,5.27,0,0,1,1.87,1.31,5.9,5.9,0,0,1,1.19,2,8,8,0,0,1,.41,2.6v1H782.9v.42a3.35,3.35,0,0,0,1,2.47,3.53,3.53,0,0,0,2.63,1,4.1,4.1,0,0,0,2.13-.53,4.28,4.28,0,0,0,1.44-1.43l1.7,1.5a5.24,5.24,0,0,1-2,1.91A6.51,6.51,0,0,1,786.43,265.15Zm-.2-11.42a3.44,3.44,0,0,0-1.34.25,3,3,0,0,0-1,.71,3.49,3.49,0,0,0-.69,1.09,3.59,3.59,0,0,0-.25,1.37v.18h6.48v-.25a3.39,3.39,0,0,0-.87-2.44A3,3,0,0,0,786.23,253.73Z"/><path class="cls-1" d="M795.53,262.63h4.27v-14h-4.27v-2.23h7v16.28h4.27v2.22H795.53Z"/><path class="cls-1" d="M816.15,265.15a6.53,6.53,0,0,1-2.56-.47,5.43,5.43,0,0,1-1.93-1.35,6,6,0,0,1-1.21-2.13,9.54,9.54,0,0,1,0-5.6,6,6,0,0,1,1.21-2.12,5.43,5.43,0,0,1,1.93-1.35,7.07,7.07,0,0,1,5.12,0,5.43,5.43,0,0,1,1.93,1.35,6,6,0,0,1,1.21,2.12,8.8,8.8,0,0,1,.43,2.8,8.71,8.71,0,0,1-.43,2.8,6,6,0,0,1-1.21,2.13,5.43,5.43,0,0,1-1.93,1.35A6.49,6.49,0,0,1,816.15,265.15Zm0-2.15a3.17,3.17,0,0,0,2.39-.91,3.75,3.75,0,0,0,.89-2.71v-1.95a3.75,3.75,0,0,0-.89-2.71,3.56,3.56,0,0,0-4.78,0,3.75,3.75,0,0,0-.88,2.71v1.95a3.75,3.75,0,0,0,.88,2.71A3.19,3.19,0,0,0,816.15,263Z"/><path class="cls-1" d="M831.63,265.15a6.61,6.61,0,0,1-2.59-.47,5.43,5.43,0,0,1-1.93-1.35,6,6,0,0,1-1.2-2.13,9,9,0,0,1-.41-2.8,9.1,9.1,0,0,1,.41-2.8,6,6,0,0,1,1.2-2.12,5.43,5.43,0,0,1,1.93-1.35,6.53,6.53,0,0,1,2.56-.48,5.47,5.47,0,0,1,3.21.85,5.15,5.15,0,0,1,1.82,2.18l-2.13,1.15a3.15,3.15,0,0,0-1.06-1.43,3,3,0,0,0-1.84-.52,3.07,3.07,0,0,0-2.4.94,3.58,3.58,0,0,0-.85,2.5v2.17a3.56,3.56,0,0,0,.85,2.48,3.1,3.1,0,0,0,2.45,1,3.23,3.23,0,0,0,2-.55,3.87,3.87,0,0,0,1.22-1.5l2,1.22a5.31,5.31,0,0,1-1.9,2.2A5.82,5.82,0,0,1,831.63,265.15Z"/><path class="cls-1" d="M841.18,262.63h4.4v-8.45h-4.4V252h7.12v10.68h4.13v2.22H841.18Zm5.77-13a2,2,0,0,1-1.46-.42,1.42,1.42,0,0,1-.41-1.05v-.53a1.45,1.45,0,0,1,.41-1,2,2,0,0,1,1.44-.42,2,2,0,0,1,1.46.42,1.49,1.49,0,0,1,.41,1v.53a1.46,1.46,0,0,1-.41,1.05A2,2,0,0,1,847,249.6Z"/><path class="cls-1" d="M861.93,264.85a3.14,3.14,0,0,1-2.5-.91,3.38,3.38,0,0,1-.8-2.35v-7.41h-4V252h2.83a1.46,1.46,0,0,0,1-.28,1.42,1.42,0,0,0,.3-1V247.4h2.55V252h5.5v2.23h-5.5v8.45h5.5v2.22Z"/><path class="cls-1" d="M879.93,252h2.75l-6.25,15.4a4.31,4.31,0,0,1-1.32,1.88,3.74,3.74,0,0,1-2.33.62H870.6v-2.22h3l1.18-2.95L869.63,252h2.85l2,5.4,1.6,4.43h.15l1.6-4.43Z"/><path class="cls-1" d="M889.75,261.05h3.88l-3.1,7.43H888.4Z"/><path class="cls-1" d="M915.63,252h2.72v2.2h.15a4.62,4.62,0,0,1,1.53-1.83,4,4,0,0,1,2.37-.67,4.4,4.4,0,0,1,3.63,1.7,10.12,10.12,0,0,1,0,10.1,4.38,4.38,0,0,1-3.63,1.7,4,4,0,0,1-2.37-.66,4.58,4.58,0,0,1-1.53-1.84h-.15v7.2h-2.72Zm5.65,11a3,3,0,0,0,2.38-.95,3.68,3.68,0,0,0,.84-2.53v-2.1a3.65,3.65,0,0,0-.84-2.52,3,3,0,0,0-2.38-1,4.11,4.11,0,0,0-1.13.15,2.72,2.72,0,0,0-.92.45,2.27,2.27,0,0,0-.64.74,2.09,2.09,0,0,0-.24,1v4.3a2.13,2.13,0,0,0,.24,1,2.27,2.27,0,0,0,.64.74,2.72,2.72,0,0,0,.92.45A4.11,4.11,0,0,0,921.28,262.93Z"/><path class="cls-1" d="M936.15,265.15a6.53,6.53,0,0,1-2.56-.47,5.43,5.43,0,0,1-1.93-1.35,6,6,0,0,1-1.21-2.13,9.54,9.54,0,0,1,0-5.6,6,6,0,0,1,1.21-2.12,5.43,5.43,0,0,1,1.93-1.35,7.07,7.07,0,0,1,5.12,0,5.43,5.43,0,0,1,1.93,1.35,6,6,0,0,1,1.21,2.12,8.8,8.8,0,0,1,.43,2.8,8.71,8.71,0,0,1-.43,2.8,6,6,0,0,1-1.21,2.13,5.43,5.43,0,0,1-1.93,1.35A6.49,6.49,0,0,1,936.15,265.15Zm0-2.15a3.17,3.17,0,0,0,2.39-.91,3.75,3.75,0,0,0,.89-2.71v-1.95a3.75,3.75,0,0,0-.89-2.71,3.56,3.56,0,0,0-4.78,0,3.75,3.75,0,0,0-.88,2.71v1.95a3.75,3.75,0,0,0,.88,2.71A3.19,3.19,0,0,0,936.15,263Z"/><path class="cls-1" d="M951.18,265.15a8.86,8.86,0,0,1-3.62-.67,6.52,6.52,0,0,1-2.43-1.8l1.67-1.5a5.85,5.85,0,0,0,1.91,1.41,5.93,5.93,0,0,0,2.52.49,4.37,4.37,0,0,0,2.13-.45,1.49,1.49,0,0,0,.82-1.4,1.42,1.42,0,0,0-.15-.68,1.32,1.32,0,0,0-.43-.45,2.52,2.52,0,0,0-.64-.27,4.45,4.45,0,0,0-.76-.15l-2.05-.33a9.37,9.37,0,0,1-1.52-.32,4.79,4.79,0,0,1-1.39-.64,3.27,3.27,0,0,1-1-1.06,3.15,3.15,0,0,1-.39-1.65,3.4,3.4,0,0,1,1.51-3,7,7,0,0,1,4-1,8.12,8.12,0,0,1,3.11.54,6,6,0,0,1,2.19,1.49l-1.52,1.6a4.92,4.92,0,0,0-1.43-1.06,5.2,5.2,0,0,0-2.45-.49c-1.82,0-2.72.57-2.72,1.72a1.18,1.18,0,0,0,.58,1.14,3.84,3.84,0,0,0,1.39.41l2,.33c.52.08,1,.19,1.54.32a4.39,4.39,0,0,1,1.37.62,3,3,0,0,1,1.39,2.71,3.58,3.58,0,0,1-1.51,3.06A6.92,6.92,0,0,1,951.18,265.15Z"/><path class="cls-1" d="M961.18,262.63h4.4v-8.45h-4.4V252h7.12v10.68h4.13v2.22H961.18Zm5.77-13a2,2,0,0,1-1.46-.42,1.42,1.42,0,0,1-.41-1.05v-.53a1.45,1.45,0,0,1,.41-1,2,2,0,0,1,1.44-.42,2,2,0,0,1,1.46.42,1.49,1.49,0,0,1,.41,1v.53a1.46,1.46,0,0,1-.41,1.05A2,2,0,0,1,967,249.6Z"/><path class="cls-1" d="M981.93,264.85a3.14,3.14,0,0,1-2.5-.91,3.38,3.38,0,0,1-.8-2.35v-7.41h-4V252h2.83a1.46,1.46,0,0,0,1-.28,1.42,1.42,0,0,0,.3-1V247.4h2.55V252h5.5v2.23h-5.5v8.45h5.5v2.22Z"/><path class="cls-1" d="M991.18,262.63h4.4v-8.45h-4.4V252h7.12v10.68h4.13v2.22H991.18Zm5.77-13a2,2,0,0,1-1.46-.42,1.42,1.42,0,0,1-.41-1.05v-.53a1.45,1.45,0,0,1,.41-1,2,2,0,0,1,1.44-.42,2,2,0,0,1,1.46.42,1.49,1.49,0,0,1,.41,1v.53a1.46,1.46,0,0,1-.41,1.05A2,2,0,0,1,997,249.6Z"/><path class="cls-1" d="M1011.15,265.15a6.53,6.53,0,0,1-2.56-.47,5.43,5.43,0,0,1-1.93-1.35,6,6,0,0,1-1.21-2.13,9.54,9.54,0,0,1,0-5.6,6,6,0,0,1,1.21-2.12,5.43,5.43,0,0,1,1.93-1.35,7.07,7.07,0,0,1,5.12,0,5.43,5.43,0,0,1,1.93,1.35,6,6,0,0,1,1.21,2.12,8.8,8.8,0,0,1,.43,2.8,8.71,8.71,0,0,1-.43,2.8,6,6,0,0,1-1.21,2.13,5.43,5.43,0,0,1-1.93,1.35A6.49,6.49,0,0,1,1011.15,265.15Zm0-2.15a3.17,3.17,0,0,0,2.39-.91,3.75,3.75,0,0,0,.89-2.71v-1.95a3.75,3.75,0,0,0-.89-2.71,3.56,3.56,0,0,0-4.78,0,3.75,3.75,0,0,0-.88,2.71v1.95a3.75,3.75,0,0,0,.88,2.71A3.19,3.19,0,0,0,1011.15,263Z"/><path class="cls-1" d="M1020.75,264.85V252h2.73v2.2h.12a5.54,5.54,0,0,1,.51-1,3.44,3.44,0,0,1,.77-.8,4,4,0,0,1,1-.54,4.5,4.5,0,0,1,1.4-.2,4.13,4.13,0,0,1,3.15,1.28,5.09,5.09,0,0,1,1.2,3.62v8.3H1029V257c0-2-.89-3.07-2.67-3.07a3.94,3.94,0,0,0-1,.14,3.07,3.07,0,0,0-.9.41,1.94,1.94,0,0,0-.87,1.67v8.75Z"/><path class="cls-1" d="M1039.75,261.05h3.88l-3.1,7.43h-2.13Z"/><path class="cls-1" d="M771.15,295.15a6.53,6.53,0,0,1-2.56-.47,5.43,5.43,0,0,1-1.93-1.35,6,6,0,0,1-1.21-2.13,9.54,9.54,0,0,1,0-5.6,6,6,0,0,1,1.21-2.12,5.43,5.43,0,0,1,1.93-1.35,7.07,7.07,0,0,1,5.12,0,5.43,5.43,0,0,1,1.93,1.35,6,6,0,0,1,1.21,2.12,8.8,8.8,0,0,1,.43,2.8,8.71,8.71,0,0,1-.43,2.8,6,6,0,0,1-1.21,2.13,5.43,5.43,0,0,1-1.93,1.35A6.49,6.49,0,0,1,771.15,295.15Zm0-2.15a3.17,3.17,0,0,0,2.39-.91,3.75,3.75,0,0,0,.89-2.71v-1.95a3.75,3.75,0,0,0-.89-2.71,3.56,3.56,0,0,0-4.78,0,3.75,3.75,0,0,0-.88,2.71v1.95a3.75,3.75,0,0,0,.88,2.71A3.19,3.19,0,0,0,771.15,293Z"/><path class="cls-1" d="M780.55,292.63H784v-8.45h-3.43V282h6.15v3.43h.15a6.23,6.23,0,0,1,.5-1.3,3.89,3.89,0,0,1,.83-1.09,3.81,3.81,0,0,1,1.22-.75,4.62,4.62,0,0,1,1.7-.29h1.55v2.6H790.1a3.45,3.45,0,0,0-2.45.89,3.1,3.1,0,0,0-.95,2.38v4.81h4.68v2.22H780.55Z"/><path class="cls-1" d="M796.18,292.63h4.4v-8.45h-4.4V282h7.12v10.68h4.13v2.22H796.18Zm5.77-13a2,2,0,0,1-1.46-.42,1.42,1.42,0,0,1-.41-1.05v-.53a1.45,1.45,0,0,1,.41-1.05,2,2,0,0,1,1.44-.42,2,2,0,0,1,1.46.42,1.49,1.49,0,0,1,.41,1.05v.53a1.46,1.46,0,0,1-.41,1.05A2,2,0,0,1,802,279.6Z"/><path class="cls-1" d="M816.43,295.15a6.92,6.92,0,0,1-2.65-.47,5.36,5.36,0,0,1-2-1.35,5.94,5.94,0,0,1-1.22-2.11,9.2,9.2,0,0,1,0-5.59,6.4,6.4,0,0,1,1.22-2.14,5.38,5.38,0,0,1,1.92-1.36,6.69,6.69,0,0,1,4.95,0,5.27,5.27,0,0,1,1.87,1.31,5.9,5.9,0,0,1,1.19,2,8,8,0,0,1,.41,2.6v1H812.9v.42a3.35,3.35,0,0,0,1,2.47,3.53,3.53,0,0,0,2.63,1,4.1,4.1,0,0,0,2.13-.53,4.28,4.28,0,0,0,1.44-1.43l1.7,1.5a5.24,5.24,0,0,1-2,1.91A6.51,6.51,0,0,1,816.43,295.15Zm-.2-11.42a3.44,3.44,0,0,0-1.34.25,3,3,0,0,0-1,.71,3.49,3.49,0,0,0-.69,1.09,3.59,3.59,0,0,0-.25,1.37v.18h6.48v-.25a3.39,3.39,0,0,0-.87-2.44A3,3,0,0,0,816.23,283.73Z"/><path class="cls-1" d="M825.75,294.85V282h2.73v2.2h.12a5.54,5.54,0,0,1,.51-1,3.44,3.44,0,0,1,.77-.8,4,4,0,0,1,1-.54,4.5,4.5,0,0,1,1.4-.2,4.13,4.13,0,0,1,3.15,1.28,5.09,5.09,0,0,1,1.2,3.62v8.3H834V287c0-2.05-.89-3.07-2.67-3.07a3.94,3.94,0,0,0-1,.14,3.07,3.07,0,0,0-.9.41,1.94,1.94,0,0,0-.87,1.67v8.75Z"/><path class="cls-1" d="M846.93,294.85a3.14,3.14,0,0,1-2.5-.91,3.38,3.38,0,0,1-.8-2.35v-7.41h-4V282h2.83a1.46,1.46,0,0,0,1-.28,1.42,1.42,0,0,0,.3-1V277.4h2.55V282h5.5v2.23h-5.5v8.45h5.5v2.22Z"/><path class="cls-1" d="M866,294.85a2.36,2.36,0,0,1-1.76-.6,2.64,2.64,0,0,1-.71-1.57h-.13A3.3,3.3,0,0,1,862,294.5a4.44,4.44,0,0,1-2.51.65,4.58,4.58,0,0,1-3.15-1,3.61,3.61,0,0,1-1.18-2.87,3.28,3.28,0,0,1,1.39-2.86,7.36,7.36,0,0,1,4.26-1h2.48v-1c0-1.75-.93-2.62-2.78-2.62a3.69,3.69,0,0,0-2,.49,4.18,4.18,0,0,0-1.3,1.28l-1.63-1.32a4.67,4.67,0,0,1,1.85-1.81,6.54,6.54,0,0,1,3.35-.77,5.83,5.83,0,0,1,3.85,1.18,4.2,4.2,0,0,1,1.4,3.4v6.47h1.63v2.15Zm-5.7-1.7a3.71,3.71,0,0,0,2.18-.59,1.83,1.83,0,0,0,.85-1.54v-1.87h-2.43c-2,0-3,.59-3,1.77v.5a1.47,1.47,0,0,0,.63,1.3A3,3,0,0,0,860.25,293.15Z"/><path class="cls-1" d="M876.93,294.85a3.14,3.14,0,0,1-2.5-.91,3.38,3.38,0,0,1-.8-2.35v-7.41h-4V282h2.83a1.46,1.46,0,0,0,1-.28,1.42,1.42,0,0,0,.3-1V277.4h2.55V282h5.5v2.23h-5.5v8.45h5.5v2.22Z"/><path class="cls-1" d="M886.18,292.63h4.4v-8.45h-4.4V282h7.12v10.68h4.13v2.22H886.18Zm5.77-13a2,2,0,0,1-1.46-.42,1.42,1.42,0,0,1-.41-1.05v-.53a1.45,1.45,0,0,1,.41-1.05,2,2,0,0,1,1.44-.42,2,2,0,0,1,1.46.42,1.49,1.49,0,0,1,.41,1.05v.53a1.46,1.46,0,0,1-.41,1.05A2,2,0,0,1,892,279.6Z"/><path class="cls-1" d="M906.15,295.15a6.53,6.53,0,0,1-2.56-.47,5.43,5.43,0,0,1-1.93-1.35,6,6,0,0,1-1.21-2.13,9.54,9.54,0,0,1,0-5.6,6,6,0,0,1,1.21-2.12,5.43,5.43,0,0,1,1.93-1.35,7.07,7.07,0,0,1,5.12,0,5.43,5.43,0,0,1,1.93,1.35,6,6,0,0,1,1.21,2.12,8.8,8.8,0,0,1,.43,2.8,8.71,8.71,0,0,1-.43,2.8,6,6,0,0,1-1.21,2.13,5.43,5.43,0,0,1-1.93,1.35A6.49,6.49,0,0,1,906.15,295.15Zm0-2.15a3.17,3.17,0,0,0,2.39-.91,3.75,3.75,0,0,0,.89-2.71v-1.95a3.75,3.75,0,0,0-.89-2.71,3.56,3.56,0,0,0-4.78,0,3.75,3.75,0,0,0-.88,2.71v1.95a3.75,3.75,0,0,0,.88,2.71A3.19,3.19,0,0,0,906.15,293Z"/><path class="cls-1" d="M915.75,294.85V282h2.73v2.2h.12a5.54,5.54,0,0,1,.51-1,3.44,3.44,0,0,1,.77-.8,4,4,0,0,1,1-.54,4.5,4.5,0,0,1,1.4-.2,4.13,4.13,0,0,1,3.15,1.28,5.09,5.09,0,0,1,1.2,3.62v8.3H924V287c0-2.05-.89-3.07-2.67-3.07a3.94,3.94,0,0,0-1,.14,3.07,3.07,0,0,0-.9.41,1.94,1.94,0,0,0-.87,1.67v8.75Z"/></g></svg>