<svg xmlns="http://www.w3.org/2000/svg" viewBox="0 0 1082 1038"><defs><style>.cls-1{fill:none;stroke:#fff;stroke-miterlimit:10;}.cls-2{fill:#fff;}</style></defs><g id="Lines"><circle class="cls-1" cx="361.27" cy="519" r="334.14"/><circle class="cls-1" cx="720.73" cy="519" r="334.14"/><circle class="cls-1" cx="541" cy="690.29" r="318.46"/><circle class="cls-1" cx="541" cy="347.71" r="318.46"/><path class="cls-2" d="M425.5,124.13V99.7h9.28a7.11,7.11,0,0,1,5.46,2,9,9,0,0,1,0,11,7.11,7.11,0,0,1-5.46,2h-4.69v9.34Zm4.59-13h3.74a3.79,3.79,0,0,0,2.66-.76,3.13,3.13,0,0,0,.81-2.4v-1.34a3.16,3.16,0,0,0-.81-2.41,3.84,3.84,0,0,0-2.66-.76h-3.74Z"/><path class="cls-2" d="M446.33,98.23h4.48v11H451a6.57,6.57,0,0,1,1.84-2.54,5.14,5.14,0,0,1,3.45-1.07,5.66,5.66,0,0,1,4.32,1.77,7.11,7.11,0,0,1,1.66,5.06v11.65h-4.48v-11q0-3.93-3.39-3.93a4.8,4.8,0,0,0-1.33.18,3.74,3.74,0,0,0-1.14.54,2.89,2.89,0,0,0-.81.9,2.5,2.5,0,0,0-.29,1.26v12.1h-4.48Z"/><path class="cls-2" d="M480.14,106.07h4.55L476,127.35a6.5,6.5,0,0,1-2,2.82,5.5,5.5,0,0,1-3.46,1h-3.29v-3.5h4.3L473,124l-7.28-17.89h4.76l2.76,7.56,1.93,5.74h.24l1.92-5.74Z"/><path class="cls-2" d="M496.13,124.55a13.24,13.24,0,0,1-5.15-.92,8.42,8.42,0,0,1-3.39-2.51l2.62-2.38a7.67,7.67,0,0,0,6,2.56,5.65,5.65,0,0,0,2.7-.56,1.83,1.83,0,0,0,1-1.72,1.35,1.35,0,0,0-.68-1.33,6.16,6.16,0,0,0-1.8-.52l-2.91-.46a14.66,14.66,0,0,1-2.18-.5,6.54,6.54,0,0,1-1.89-.93,4.41,4.41,0,0,1-1.32-1.52,4.87,4.87,0,0,1-.49-2.26,5,5,0,0,1,2.12-4.34,9.94,9.94,0,0,1,5.83-1.51,12,12,0,0,1,4.46.74,8,8,0,0,1,3,2.06L501.69,111a6.83,6.83,0,0,0-5.28-2.13c-2.29,0-3.43.71-3.43,2.13a1.37,1.37,0,0,0,.7,1.35,5.61,5.61,0,0,0,1.82.54l2.87.46a14.36,14.36,0,0,1,2.22.51,6.65,6.65,0,0,1,1.89.92,4.34,4.34,0,0,1,1.31,1.51,4.64,4.64,0,0,1,.49,2.24,5.14,5.14,0,0,1-2.15,4.39A9.91,9.91,0,0,1,496.13,124.55Z"/><path class="cls-2" d="M510.13,120.63h6V109.57h-6v-3.5h10.43v14.56h5.53v3.5h-16Zm8.19-17.36a3,3,0,0,1-2.22-.66,2.19,2.19,0,0,1-.65-1.61v-.84a2.19,2.19,0,0,1,.65-1.61,4,4,0,0,1,4.44,0,2.23,2.23,0,0,1,.65,1.61V101a2.23,2.23,0,0,1-.65,1.61A3,3,0,0,1,518.32,103.27Z"/><path class="cls-2" d="M538.9,124.55a9.89,9.89,0,0,1-3.71-.66,7.46,7.46,0,0,1-2.78-1.89,8.25,8.25,0,0,1-1.75-3,12.7,12.7,0,0,1,0-7.84,8.29,8.29,0,0,1,1.75-3,7.55,7.55,0,0,1,2.76-1.89,9.78,9.78,0,0,1,3.69-.67,8.07,8.07,0,0,1,4.62,1.19,7.62,7.62,0,0,1,2.66,3.15l-3.46,1.89A4.79,4.79,0,0,0,541.3,110a3.79,3.79,0,0,0-2.44-.72,4,4,0,0,0-3.06,1.16,4.47,4.47,0,0,0-1.07,3.15v3a4.47,4.47,0,0,0,1.07,3.13,4,4,0,0,0,3.13,1.17,4.16,4.16,0,0,0,2.58-.73,5.26,5.26,0,0,0,1.55-2l3.36,2a7.54,7.54,0,0,1-2.74,3.14A8.62,8.62,0,0,1,538.9,124.55Z"/><path class="cls-2" d="M559.13,124.55a13.2,13.2,0,0,1-5.15-.92,8.35,8.35,0,0,1-3.39-2.51l2.62-2.38a7.67,7.67,0,0,0,5.95,2.56,5.65,5.65,0,0,0,2.7-.56,1.85,1.85,0,0,0,1-1.72,1.35,1.35,0,0,0-.68-1.33,6.26,6.26,0,0,0-1.8-.52l-2.91-.46a14.66,14.66,0,0,1-2.18-.5,6.41,6.41,0,0,1-1.89-.93,4.41,4.41,0,0,1-1.32-1.52,4.87,4.87,0,0,1-.49-2.26,5,5,0,0,1,2.12-4.34,9.92,9.92,0,0,1,5.83-1.51,12,12,0,0,1,4.46.74,8,8,0,0,1,3,2.06L564.69,111a7,7,0,0,0-2-1.48,7.08,7.08,0,0,0-3.24-.65c-2.29,0-3.43.71-3.43,2.13a1.37,1.37,0,0,0,.7,1.35,5.54,5.54,0,0,0,1.82.54l2.87.46a14.36,14.36,0,0,1,2.22.51,6.65,6.65,0,0,1,1.89.92,4.34,4.34,0,0,1,1.31,1.51,4.64,4.64,0,0,1,.49,2.24,5.14,5.14,0,0,1-2.15,4.39A9.93,9.93,0,0,1,559.13,124.55Z"/><path class="cls-2" d="M607.85,124.13a3.25,3.25,0,0,1-3.61-3.11h-.17a4.52,4.52,0,0,1-1.93,2.61,6.41,6.41,0,0,1-3.53.92,6.26,6.26,0,0,1-4.34-1.43,5.06,5.06,0,0,1-1.61-4q0-5.46,8-5.46h3.19v-1.19a3.6,3.6,0,0,0-.84-2.59,3.67,3.67,0,0,0-2.73-.88,5.14,5.14,0,0,0-2.77.67,6.16,6.16,0,0,0-1.78,1.71l-2.56-2.17a6.74,6.74,0,0,1,2.71-2.53,10,10,0,0,1,4.85-1,8.5,8.5,0,0,1,5.58,1.67,6,6,0,0,1,2,5v8.5h2.13v3.36Zm-7.74-2.66a4.54,4.54,0,0,0,2.68-.75,2.38,2.38,0,0,0,1.07-2v-2.41h-3.08c-2.45,0-3.68.77-3.68,2.31v.7a1.86,1.86,0,0,0,.81,1.64A3.73,3.73,0,0,0,600.11,121.47Z"/><path class="cls-2" d="M614.32,124.13V106.07h4.48v3.19H619a6.54,6.54,0,0,1,1.83-2.54,5.14,5.14,0,0,1,3.45-1.07,5.65,5.65,0,0,1,4.32,1.77,7.11,7.11,0,0,1,1.67,5.06v11.65h-4.48v-11c0-2.62-1.14-3.93-3.4-3.93a4.8,4.8,0,0,0-1.33.18,3.74,3.74,0,0,0-1.14.54,3,3,0,0,0-.8.9,2.5,2.5,0,0,0-.3,1.26v12.1Z"/><path class="cls-2" d="M646.8,121h-.24a6.53,6.53,0,0,1-2,2.62,5.34,5.34,0,0,1-3.37,1,6.83,6.83,0,0,1-2.82-.57,5.85,5.85,0,0,1-2.19-1.75,8.48,8.48,0,0,1-1.4-3,15.7,15.7,0,0,1-.49-4.17q0-4.75,1.89-7.1a6.13,6.13,0,0,1,5-2.35,5.4,5.4,0,0,1,3.37,1,6.63,6.63,0,0,1,2,2.63h.24v-11h4.48v25.9H646.8Zm-3.74,0a5.29,5.29,0,0,0,1.45-.19,3.74,3.74,0,0,0,1.19-.56,2.52,2.52,0,0,0,.8-.94,2.92,2.92,0,0,0,.3-1.35v-5.67a2.92,2.92,0,0,0-.3-1.35,2.52,2.52,0,0,0-.8-.94,3.53,3.53,0,0,0-1.19-.56,5.29,5.29,0,0,0-1.45-.2,3.87,3.87,0,0,0-3,1.19,4.73,4.73,0,0,0-1.07,3.26v2.87a4.68,4.68,0,0,0,1.07,3.25A3.83,3.83,0,0,0,643.06,121Z"/><path class="cls-2" d="M443.42,166.55a12.19,12.19,0,0,1-5.37-1.07,10.21,10.21,0,0,1-3.62-2.85l2.76-2.87a9.09,9.09,0,0,0,3,2.33,7.9,7.9,0,0,0,3.41.75,4.82,4.82,0,0,0,3.22-1,3.39,3.39,0,0,0,1.12-2.75,2.87,2.87,0,0,0-.84-2.24,5.59,5.59,0,0,0-2.83-1.07l-2.59-.42a7.4,7.4,0,0,1-4.83-2.47,7,7,0,0,1-1.44-4.42,6.56,6.56,0,0,1,2.28-5.37,9.66,9.66,0,0,1,6.3-1.87,12.25,12.25,0,0,1,4.95.91,8.55,8.55,0,0,1,3.34,2.46l-2.69,2.86a7.36,7.36,0,0,0-2.35-1.83A7,7,0,0,0,444,145q-4,0-4,3.32a2.71,2.71,0,0,0,.84,2.15,6,6,0,0,0,2.87,1.1l2.56.45a8.1,8.1,0,0,1,4.72,2.34,6.52,6.52,0,0,1,1.54,4.48,8.15,8.15,0,0,1-.59,3.13,6.73,6.73,0,0,1-1.75,2.44,7.84,7.84,0,0,1-2.86,1.59A12.24,12.24,0,0,1,443.42,166.55Z"/><path class="cls-2" d="M457.63,162.63h5.95V151.57h-5.95v-3.5h10.43v14.56h5.53v3.5h-16Zm8.19-17.36a3,3,0,0,1-2.22-.66A2.23,2.23,0,0,1,463,143v-.84a2.23,2.23,0,0,1,.65-1.61,4,4,0,0,1,4.44,0,2.23,2.23,0,0,1,.65,1.61V143a2.23,2.23,0,0,1-.65,1.61A3,3,0,0,1,465.82,145.27Z"/><path class="cls-2" d="M476.5,166.13V148.07h3.71v2.49h.21a6,6,0,0,1,1.2-2.05,2.89,2.89,0,0,1,2.23-.86,3,3,0,0,1,2.17.79,4.06,4.06,0,0,1,1.05,2.22h.17a5.7,5.7,0,0,1,1.35-2.11,3.4,3.4,0,0,1,2.53-.9,3.11,3.11,0,0,1,2.88,1.44,8.29,8.29,0,0,1,.87,4.23v12.81H491.2V153.85a4.09,4.09,0,0,0-.44-2.21,1.49,1.49,0,0,0-1.31-.63,1.86,1.86,0,0,0-1.35.53,2.16,2.16,0,0,0-.54,1.61v13h-3.71V153.85a4.22,4.22,0,0,0-.42-2.21,1.46,1.46,0,0,0-1.3-.63,1.9,1.9,0,0,0-1.38.53,2.16,2.16,0,0,0-.54,1.61v13Z"/><path class="cls-2" d="M510.09,163h-.17a6.64,6.64,0,0,1-1.84,2.54,5.14,5.14,0,0,1-3.45,1.06,5.69,5.69,0,0,1-4.32-1.76,7.11,7.11,0,0,1-1.66-5.06V148.07h4.48v11.05q0,3.93,3.39,3.93a4.88,4.88,0,0,0,1.32-.17,3.5,3.5,0,0,0,1.15-.55,2.75,2.75,0,0,0,.81-.89,2.5,2.5,0,0,0,.29-1.26V148.07h4.48v18.06h-4.48Z"/><path class="cls-2" d="M519.72,162.63h5.74v-18.9h-5.74v-3.5h10.22v22.4h5.77v3.5h-16Z"/><path class="cls-2" d="M555.35,166.13a3.25,3.25,0,0,1-3.61-3.11h-.17a4.52,4.52,0,0,1-1.93,2.61,6.41,6.41,0,0,1-3.53.92,6.26,6.26,0,0,1-4.34-1.43,5.09,5.09,0,0,1-1.61-4q0-5.46,8-5.46h3.19v-1.19a3.6,3.6,0,0,0-.84-2.59,3.67,3.67,0,0,0-2.73-.88,5.16,5.16,0,0,0-2.77.67,6.16,6.16,0,0,0-1.78,1.71l-2.56-2.17a6.71,6.71,0,0,1,2.72-2.53,9.92,9.92,0,0,1,4.84-1,8.55,8.55,0,0,1,5.59,1.67,6,6,0,0,1,2,5v8.5H558v3.36Zm-7.74-2.66a4.54,4.54,0,0,0,2.68-.75,2.38,2.38,0,0,0,1.07-2.05v-2.41h-3.08c-2.45,0-3.68.77-3.68,2.31v.7a1.86,1.86,0,0,0,.81,1.64A3.75,3.75,0,0,0,547.61,163.47Z"/><path class="cls-2" d="M570.92,166.13a4.86,4.86,0,0,1-3.81-1.36,5.13,5.13,0,0,1-1.23-3.55v-9.65h-5.25v-3.5h3.57a2.18,2.18,0,0,0,1.54-.43,2.11,2.11,0,0,0,.46-1.56V141.7h4.16v6.37h7.35v3.5h-7.35v11.06h7.35v3.5Z"/><path class="cls-2" d="M583.63,162.63h6V151.57h-6v-3.5h10.43v14.56h5.53v3.5h-16Zm8.19-17.36a3,3,0,0,1-2.22-.66A2.19,2.19,0,0,1,589,143v-.84a2.19,2.19,0,0,1,.65-1.61,4,4,0,0,1,4.44,0,2.23,2.23,0,0,1,.65,1.61V143a2.23,2.23,0,0,1-.65,1.61A3,3,0,0,1,591.82,145.27Z"/><path class="cls-2" d="M611.7,166.55a9.8,9.8,0,0,1-3.7-.66,7.64,7.64,0,0,1-2.76-1.89,8.39,8.39,0,0,1-1.75-3,12.9,12.9,0,0,1,0-7.84,8.44,8.44,0,0,1,1.75-3,7.64,7.64,0,0,1,2.76-1.89,10.47,10.47,0,0,1,7.37,0,7.46,7.46,0,0,1,2.78,1.89,8.29,8.29,0,0,1,1.75,3,12.7,12.7,0,0,1,0,7.84,8.25,8.25,0,0,1-1.75,3,7.46,7.46,0,0,1-2.78,1.89A9.75,9.75,0,0,1,611.7,166.55Zm0-3.43a4,4,0,0,0,3-1.17,4.79,4.79,0,0,0,1.12-3.45v-2.8a4.78,4.78,0,0,0-1.12-3.44,4.52,4.52,0,0,0-6.09,0,4.83,4.83,0,0,0-1.12,3.44v2.8a4.84,4.84,0,0,0,1.12,3.45A4,4,0,0,0,611.7,163.12Z"/><path class="cls-2" d="M624.82,166.13V148.07h4.48v3.19h.18a6.54,6.54,0,0,1,1.83-2.54,5.14,5.14,0,0,1,3.45-1.07,5.65,5.65,0,0,1,4.32,1.77,7.11,7.11,0,0,1,1.67,5.06v11.65h-4.48v-11c0-2.62-1.14-3.93-3.4-3.93a4.8,4.8,0,0,0-1.33.18,3.74,3.74,0,0,0-1.14.54,3,3,0,0,0-.8.9,2.5,2.5,0,0,0-.3,1.26v12.1Z"/><path class="cls-2" d="M495.26,506.49v15.25c0,.91,0,1.73.08,2.45a5.12,5.12,0,0,0,.46,1.85,2.64,2.64,0,0,0,1.12,1.17,5.36,5.36,0,0,0,4.16,0A2.64,2.64,0,0,0,502.2,526a5.12,5.12,0,0,0,.46-1.85c.06-.72.09-1.54.09-2.45V506.49h4.58V521a28.37,28.37,0,0,1-.31,4.52,7.64,7.64,0,0,1-1.23,3.22,5.49,5.49,0,0,1-2.54,1.94,14.22,14.22,0,0,1-8.5,0,5.49,5.49,0,0,1-2.54-1.94,7.63,7.63,0,0,1-1.22-3.22,28.27,28.27,0,0,1-.32-4.52V506.49Z"/><path class="cls-2" d="M512.12,530.92V512.86h4.48V516h.18a6.53,6.53,0,0,1,1.84-2.53,5.13,5.13,0,0,1,3.44-1.07,5.67,5.67,0,0,1,4.33,1.77,7.09,7.09,0,0,1,1.66,5v11.66h-4.48v-11q0-3.93-3.4-3.93a4.78,4.78,0,0,0-1.32.18,3.24,3.24,0,0,0-1.14.54,2.86,2.86,0,0,0-.81.89,2.56,2.56,0,0,0-.3,1.27v12.1Z"/><path class="cls-2" d="M533.93,527.42h6V516.36h-6v-3.5h10.43v14.56h5.53v3.5h-16Zm8.19-17.36a3,3,0,0,1-2.22-.67,2.16,2.16,0,0,1-.65-1.6V507a2.21,2.21,0,0,1,.65-1.62,4.06,4.06,0,0,1,4.44,0A2.25,2.25,0,0,1,545,507v.84a2.2,2.2,0,0,1-.65,1.6A3,3,0,0,1,542.12,510.06Z"/><path class="cls-2" d="M563.22,530.92a4.88,4.88,0,0,1-3.81-1.37,5.09,5.09,0,0,1-1.23-3.54v-9.65h-5.25v-3.5h3.57a2.18,2.18,0,0,0,1.54-.44,2.08,2.08,0,0,0,.46-1.55v-4.38h4.16v6.37H570v3.5h-7.35v11.06H570v3.5Z"/><path class="cls-2" d="M587.93,512.86h4.55l-8.64,21.28a6.58,6.58,0,0,1-2,2.82,5.51,5.51,0,0,1-3.47,1h-3.29v-3.5h4.31l1.36-3.67-7.28-17.89h4.76l2.77,7.56,1.92,5.74h.25l1.92-5.74Z"/><path class="cls-2" d="M453.89,895H449.3V870.56h9.28a7.11,7.11,0,0,1,5.46,2,8.95,8.95,0,0,1,.64,10.06,5.48,5.48,0,0,1-3.55,2.33l5.22,10h-5l-4.66-9.49h-2.76Zm3.74-13.06a3.84,3.84,0,0,0,2.66-.75,3.17,3.17,0,0,0,.81-2.41v-1.34a3.17,3.17,0,0,0-.81-2.41,3.84,3.84,0,0,0-2.66-.75h-3.74v7.66Z"/><path class="cls-2" d="M478.42,895.41a10.25,10.25,0,0,1-3.85-.67,7.54,7.54,0,0,1-2.82-1.89,8.16,8.16,0,0,1-1.73-3,13.17,13.17,0,0,1,0-7.86,8.51,8.51,0,0,1,1.73-3,7.79,7.79,0,0,1,2.71-1.89,9.3,9.3,0,0,1,3.59-.66,9.08,9.08,0,0,1,3.54.65,7.42,7.42,0,0,1,2.67,1.84,8.27,8.27,0,0,1,1.7,2.88,11,11,0,0,1,.6,3.72v1.48H473.91v.45a4.23,4.23,0,0,0,1.22,3.17,4.66,4.66,0,0,0,3.43,1.21,5.85,5.85,0,0,0,2.89-.68,6.33,6.33,0,0,0,2-1.81L486,892a7.9,7.9,0,0,1-2.86,2.44A10,10,0,0,1,478.42,895.41Zm-.31-15.61a4,4,0,0,0-3.05,1.2,4.37,4.37,0,0,0-1.15,3.17v.25h8.19v-.32A4.48,4.48,0,0,0,481,881,3.79,3.79,0,0,0,478.11,879.8Z"/><path class="cls-2" d="M491.12,895V876.93h4.48v3.18h.18a6.53,6.53,0,0,1,1.84-2.53,5.08,5.08,0,0,1,3.44-1.07,5.67,5.67,0,0,1,4.33,1.77,7.07,7.07,0,0,1,1.66,5.05V895h-4.48v-11q0-3.93-3.4-3.93a5.19,5.19,0,0,0-1.32.17,3.45,3.45,0,0,0-1.14.55,2.75,2.75,0,0,0-.81.89,2.5,2.5,0,0,0-.3,1.26V895Z"/><path class="cls-2" d="M523.6,891.8h-.24a6.63,6.63,0,0,1-2,2.63,5.43,5.43,0,0,1-3.38,1,6.68,6.68,0,0,1-2.82-.58,5.75,5.75,0,0,1-2.19-1.75,8.57,8.57,0,0,1-1.4-3,16.1,16.1,0,0,1-.49-4.16q0-4.76,1.89-7.11a6.12,6.12,0,0,1,5-2.34,5.37,5.37,0,0,1,3.38,1,6.67,6.67,0,0,1,2,2.62h.24v-11h4.48V895H523.6Zm-3.74,0a5.64,5.64,0,0,0,1.45-.19,3.85,3.85,0,0,0,1.19-.56,2.67,2.67,0,0,0,.81-1,3,3,0,0,0,.29-1.35v-5.67a3,3,0,0,0-.29-1.34,2.67,2.67,0,0,0-.81-.95,3.85,3.85,0,0,0-1.19-.56,5.24,5.24,0,0,0-1.45-.19,3.87,3.87,0,0,0-3,1.19,4.7,4.7,0,0,0-1.07,3.25v2.87a4.71,4.71,0,0,0,1.07,3.26A3.87,3.87,0,0,0,519.86,891.84Z"/><path class="cls-2" d="M541.42,895.41a10.25,10.25,0,0,1-3.85-.67,7.54,7.54,0,0,1-2.82-1.89,8.16,8.16,0,0,1-1.73-3,13,13,0,0,1,0-7.86,8.36,8.36,0,0,1,1.73-3,7.79,7.79,0,0,1,2.71-1.89,9.3,9.3,0,0,1,3.59-.66,9,9,0,0,1,3.53.65,7.46,7.46,0,0,1,2.68,1.84,8.27,8.27,0,0,1,1.7,2.88,11,11,0,0,1,.59,3.72v1.48H536.9v.45a4.23,4.23,0,0,0,1.23,3.17,4.66,4.66,0,0,0,3.43,1.21,5.85,5.85,0,0,0,2.89-.68,6.33,6.33,0,0,0,2-1.81L549,892a7.78,7.78,0,0,1-2.85,2.44A10,10,0,0,1,541.42,895.41Zm-.32-15.61a4,4,0,0,0-3,1.2,4.37,4.37,0,0,0-1.16,3.17v.25h8.19v-.32A4.47,4.47,0,0,0,544,881,3.81,3.81,0,0,0,541.1,879.8Z"/><path class="cls-2" d="M554.12,891.49h4.48V880.43h-4.48v-3.5h9v5h.28a9.6,9.6,0,0,1,.69-1.85,5.78,5.78,0,0,1,1.12-1.59,5,5,0,0,1,1.66-1.11,5.9,5.9,0,0,1,2.34-.42h2v4.2h-3.71a4,4,0,0,0-4.34,4.25v6.11h6.27V895H554.12Z"/><path class="cls-2" d="M575.93,891.49h6V880.43h-6v-3.5h10.43v14.56h5.53V895h-16Zm8.19-17.36a3,3,0,0,1-2.22-.67,2.19,2.19,0,0,1-.65-1.61V871a2.2,2.2,0,0,1,.65-1.61,4.06,4.06,0,0,1,4.44,0A2.24,2.24,0,0,1,587,871v.84a2.23,2.23,0,0,1-.65,1.61A3,3,0,0,1,584.12,874.13Z"/><path class="cls-2" d="M596.12,895V876.93h4.48v3.18h.18a6.43,6.43,0,0,1,1.84-2.53,5,5,0,0,1,3.44-1.07,5.67,5.67,0,0,1,4.33,1.77,7.11,7.11,0,0,1,1.66,5.05V895h-4.48v-11q0-3.93-3.4-3.93a5.27,5.27,0,0,0-1.33.17,3.4,3.4,0,0,0-1.13.55,2.75,2.75,0,0,0-.81.89,2.5,2.5,0,0,0-.3,1.26V895Z"/><path class="cls-2" d="M634.66,896.88a4.48,4.48,0,0,1-2.37,4.18c-1.57.9-4,1.35-7.36,1.35a23.41,23.41,0,0,1-4.1-.3,8.34,8.34,0,0,1-2.64-.86,3.43,3.43,0,0,1-1.42-1.34,3.73,3.73,0,0,1-.42-1.77,3,3,0,0,1,.88-2.31,5.46,5.46,0,0,1,2.45-1.19v-.28a4.18,4.18,0,0,1-1.67-1,2.43,2.43,0,0,1-.61-1.75,2.35,2.35,0,0,1,.89-2,6.49,6.49,0,0,1,2.37-1v-.18a5.89,5.89,0,0,1-2.52-2.17,6,6,0,0,1-.91-3.39,6.35,6.35,0,0,1,.54-2.68,5.46,5.46,0,0,1,1.54-2,6.86,6.86,0,0,1,2.4-1.26,10.12,10.12,0,0,1,3.11-.44,10.24,10.24,0,0,1,3.29.49v-.77a2.43,2.43,0,0,1,.68-1.75,2.55,2.55,0,0,1,1.91-.7H634v3.36h-4.27v.59a5.6,5.6,0,0,1,2,2.09,6.13,6.13,0,0,1,.72,3.06,6.43,6.43,0,0,1-.54,2.69,5.43,5.43,0,0,1-1.54,2,7.09,7.09,0,0,1-2.42,1.24,10.62,10.62,0,0,1-3.13.44c-.47,0-.91,0-1.35,0a7.15,7.15,0,0,1-1.24-.23,2.89,2.89,0,0,0-.94.56,1.24,1.24,0,0,0-.46,1,1,1,0,0,0,.81,1,8.76,8.76,0,0,0,1.92.19h4.1a12,12,0,0,1,3.22.37,5.78,5.78,0,0,1,2.17,1.05,3.92,3.92,0,0,1,1.22,1.62A5.37,5.37,0,0,1,634.66,896.88Zm-4.2.33a1.48,1.48,0,0,0-.65-1.26,4.28,4.28,0,0,0-2.4-.47h-6.23a1.94,1.94,0,0,0-.26,3.29,4.36,4.36,0,0,0,2.68.63h2.9Q630.46,899.4,630.46,897.21Zm-5.64-10.9a3.42,3.42,0,0,0,2.52-.82,3,3,0,0,0,.81-2.16v-.91a2.94,2.94,0,0,0-.81-2.15,3.38,3.38,0,0,0-2.52-.82,3.31,3.31,0,0,0-2.48.82,2.94,2.94,0,0,0-.81,2.15v.91a3,3,0,0,0,.81,2.16A3.35,3.35,0,0,0,624.82,886.31Z"/><path class="cls-2" d="M432.15,937a3.66,3.66,0,0,1-2.54-.82,3.58,3.58,0,0,1-1.06-2.3h-.18a4.55,4.55,0,0,1-1.92,2.61,6.39,6.39,0,0,1-3.54.93,6.26,6.26,0,0,1-4.34-1.44,5.06,5.06,0,0,1-1.61-4q0-5.46,8-5.46h3.18v-1.19a3.62,3.62,0,0,0-.84-2.59,3.67,3.67,0,0,0-2.73-.87,5.13,5.13,0,0,0-2.76.66,6.37,6.37,0,0,0-1.79,1.72l-2.55-2.17a6.7,6.7,0,0,1,2.71-2.54,10,10,0,0,1,4.85-1,8.5,8.5,0,0,1,5.58,1.66,6.06,6.06,0,0,1,2,5v8.51h2.14V937Zm-7.73-2.66a4.52,4.52,0,0,0,2.67-.75,2.38,2.38,0,0,0,1.07-2.05v-2.42h-3.08c-2.45,0-3.67.77-3.67,2.31v.7a1.86,1.86,0,0,0,.8,1.65A3.84,3.84,0,0,0,424.42,934.33Z"/><path class="cls-2" d="M438.63,937V918.93h4.48v3.18h.17a6.53,6.53,0,0,1,1.84-2.53,5.09,5.09,0,0,1,3.45-1.07,5.66,5.66,0,0,1,4.32,1.77,7.07,7.07,0,0,1,1.66,5.05V937h-4.48v-11q0-3.93-3.39-3.93a5.21,5.21,0,0,0-1.33.17,3.55,3.55,0,0,0-1.14.55,2.75,2.75,0,0,0-.81.89,2.61,2.61,0,0,0-.29,1.26V937Z"/><path class="cls-2" d="M471.11,933.8h-.25a6.63,6.63,0,0,1-2,2.63,5.43,5.43,0,0,1-3.38,1,6.68,6.68,0,0,1-2.82-.58,5.65,5.65,0,0,1-2.18-1.75,8.23,8.23,0,0,1-1.4-3,15.67,15.67,0,0,1-.49-4.16q0-4.76,1.89-7.11a6.1,6.1,0,0,1,5-2.34,5.37,5.37,0,0,1,3.38,1,6.67,6.67,0,0,1,2,2.62h.25v-11h4.48V937h-4.48Zm-3.75,0a5.64,5.64,0,0,0,1.45-.19,3.85,3.85,0,0,0,1.19-.56,2.67,2.67,0,0,0,.81-1,2.86,2.86,0,0,0,.3-1.35v-5.67a2.85,2.85,0,0,0-.3-1.34,2.67,2.67,0,0,0-.81-.95,3.85,3.85,0,0,0-1.19-.56,5.24,5.24,0,0,0-1.45-.19,3.87,3.87,0,0,0-3,1.19,4.69,4.69,0,0,0-1.06,3.25v2.87a4.7,4.7,0,0,0,1.06,3.26A3.87,3.87,0,0,0,467.36,933.84Z"/><path class="cls-2" d="M513.73,933.59h-.28a9.12,9.12,0,0,1-.77,1.44,4.81,4.81,0,0,1-1.12,1.22,5.36,5.36,0,0,1-1.55.84,6.52,6.52,0,0,1-7.67-3q-1.9-3.28-1.91-9.19,0-6.24,2.24-9.52t6.9-3.29a9.75,9.75,0,0,1,3.2.48,7.3,7.3,0,0,1,2.38,1.36,7.15,7.15,0,0,1,1.65,2.07,12.47,12.47,0,0,1,1,2.6l-4.2,1.19c-.16-.51-.34-1-.54-1.51a4.58,4.58,0,0,0-.77-1.27,3.64,3.64,0,0,0-1.14-.88,3.67,3.67,0,0,0-1.65-.33,3.41,3.41,0,0,0-3.25,1.82,10.66,10.66,0,0,0-1,5v3.93a16.13,16.13,0,0,0,.23,2.89,7.07,7.07,0,0,0,.75,2.26,3.77,3.77,0,0,0,1.36,1.46,4,4,0,0,0,2.1.51,3.74,3.74,0,0,0,3-1.17,4.41,4.41,0,0,0,1-3v-2h-4.44v-3.33h8.54V937h-4.1Z"/><path class="cls-2" d="M522.62,933.49h4.48V922.43h-4.48v-3.5h9v5h.28a9.6,9.6,0,0,1,.69-1.85,5.78,5.78,0,0,1,1.12-1.59,5.14,5.14,0,0,1,1.66-1.11,5.9,5.9,0,0,1,2.34-.42h2v4.2h-3.71a4,4,0,0,0-4.34,4.25v6.11h6.27V937H522.62Z"/><path class="cls-2" d="M558.15,937a3.25,3.25,0,0,1-3.61-3.12h-.17a4.52,4.52,0,0,1-1.93,2.61,6.33,6.33,0,0,1-3.53.93,6.26,6.26,0,0,1-4.34-1.44,5.06,5.06,0,0,1-1.61-4q0-5.46,8-5.46h3.19v-1.19a3.62,3.62,0,0,0-.84-2.59,3.67,3.67,0,0,0-2.73-.87,5.14,5.14,0,0,0-2.77.66,6.33,6.33,0,0,0-1.78,1.72l-2.56-2.17a6.73,6.73,0,0,1,2.72-2.54,9.93,9.93,0,0,1,4.84-1,8.55,8.55,0,0,1,5.59,1.66,6.06,6.06,0,0,1,2,5v8.51h2.13V937Zm-7.74-2.66a4.54,4.54,0,0,0,2.68-.75,2.4,2.4,0,0,0,1.07-2.05v-2.42h-3.08c-2.45,0-3.68.77-3.68,2.31v.7a1.87,1.87,0,0,0,.81,1.65A3.83,3.83,0,0,0,550.41,934.33Z"/><path class="cls-2" d="M564.41,918.93h4.48v3.18h.25a6.67,6.67,0,0,1,2-2.62,5.37,5.37,0,0,1,3.38-1,6.74,6.74,0,0,1,2.82.58,5.56,5.56,0,0,1,2.18,1.75,8.18,8.18,0,0,1,1.4,2.95,17.95,17.95,0,0,1,0,8.33,8.23,8.23,0,0,1-1.4,3,5.65,5.65,0,0,1-2.18,1.75,6.74,6.74,0,0,1-2.82.58,5.43,5.43,0,0,1-3.38-1,6.63,6.63,0,0,1-2-2.63h-.25V944h-4.48Zm8.23,14.91a3.89,3.89,0,0,0,3-1.19,4.7,4.7,0,0,0,1.06-3.26v-2.87a4.69,4.69,0,0,0-1.06-3.25,3.89,3.89,0,0,0-3-1.19,4.56,4.56,0,0,0-2.64.75,2.58,2.58,0,0,0-1.11,2.29v5.67a2.6,2.6,0,0,0,1.11,2.3A4.56,4.56,0,0,0,572.64,933.84Z"/><path class="cls-2" d="M585.62,911.09h4.48v11h.18a6.43,6.43,0,0,1,1.84-2.53,5,5,0,0,1,3.44-1.07,5.67,5.67,0,0,1,4.33,1.77,7.11,7.11,0,0,1,1.66,5.05V937h-4.48v-11q0-3.93-3.4-3.93a5.27,5.27,0,0,0-1.33.17,3.4,3.4,0,0,0-1.13.55,2.75,2.75,0,0,0-.81.89,2.5,2.5,0,0,0-.3,1.26V937h-4.48Z"/><path class="cls-2" d="M607.43,933.49h6V922.43h-6v-3.5h10.43v14.56h5.53V937h-16Zm8.19-17.36a3,3,0,0,1-2.23-.67,2.22,2.22,0,0,1-.64-1.61V913a2.23,2.23,0,0,1,.64-1.61,3.08,3.08,0,0,1,2.23-.66,3,3,0,0,1,2.22.66,2.24,2.24,0,0,1,.65,1.61v.84a2.23,2.23,0,0,1-.65,1.61A3,3,0,0,1,615.62,916.13Z"/><path class="cls-2" d="M636.2,937.41a9.66,9.66,0,0,1-3.71-.67,7.58,7.58,0,0,1-2.79-1.89,8.5,8.5,0,0,1-1.75-3,12.9,12.9,0,0,1,0-7.84,8.54,8.54,0,0,1,1.75-3,7.84,7.84,0,0,1,2.77-1.89,9.71,9.71,0,0,1,3.69-.66,8.12,8.12,0,0,1,4.62,1.19,7.57,7.57,0,0,1,2.66,3.15L640,924.74a4.65,4.65,0,0,0-1.39-1.87,3.74,3.74,0,0,0-2.43-.72,4,4,0,0,0-3.06,1.15,4.47,4.47,0,0,0-1.07,3.15v3a4.51,4.51,0,0,0,1.07,3.14,4,4,0,0,0,3.13,1.17,4.13,4.13,0,0,0,2.57-.74,5.29,5.29,0,0,0,1.56-2l3.36,2A7.54,7.54,0,0,1,641,936.2,8.48,8.48,0,0,1,636.2,937.41Z"/><path class="cls-2" d="M656.43,937.41a13,13,0,0,1-5.15-.93,8.27,8.27,0,0,1-3.39-2.5l2.62-2.38a7.58,7.58,0,0,0,6,2.55,5.53,5.53,0,0,0,2.7-.56,1.83,1.83,0,0,0,1-1.71,1.36,1.36,0,0,0-.68-1.33,6.34,6.34,0,0,0-1.8-.53l-2.91-.45a16.19,16.19,0,0,1-2.19-.51,6.41,6.41,0,0,1-1.89-.93,4.4,4.4,0,0,1-1.31-1.52,4.75,4.75,0,0,1-.49-2.26A5,5,0,0,1,651,920a9.92,9.92,0,0,1,5.83-1.5,12,12,0,0,1,4.46.73,8,8,0,0,1,3,2.07L662,923.9a7.05,7.05,0,0,0-2-1.49,7.14,7.14,0,0,0-3.23-.65c-2.29,0-3.43.72-3.43,2.14a1.39,1.39,0,0,0,.7,1.35,6.06,6.06,0,0,0,1.82.54l2.87.45a15.61,15.61,0,0,1,2.22.51,6.41,6.41,0,0,1,1.89.93,4.5,4.5,0,0,1,1.31,1.5,4.66,4.66,0,0,1,.49,2.24,5.19,5.19,0,0,1-2.15,4.4A10,10,0,0,1,656.43,937.41Z"/><path class="cls-2" d="M971.76,489.56v15.25c0,.91,0,1.73.08,2.45a5,5,0,0,0,.46,1.84,2.61,2.61,0,0,0,1.12,1.18,5.36,5.36,0,0,0,4.16,0,2.61,2.61,0,0,0,1.12-1.18,5,5,0,0,0,.46-1.84c.06-.72.09-1.54.09-2.45V489.56h4.58v14.52a28.37,28.37,0,0,1-.31,4.52,7.64,7.64,0,0,1-1.23,3.22,5.49,5.49,0,0,1-2.54,1.94,14.22,14.22,0,0,1-8.5,0,5.49,5.49,0,0,1-2.54-1.94,7.63,7.63,0,0,1-1.22-3.22,28.27,28.27,0,0,1-.32-4.52V489.56Z"/><path class="cls-2" d="M988.73,514v-3.43h5.5V493h-5.5v-3.43h15.54V493h-5.5v17.57h5.5V514Z"/><path class="cls-2" d="M870.22,556.41a12.18,12.18,0,0,1-5.37-1.08,10.08,10.08,0,0,1-3.62-2.84l2.76-2.87a9.23,9.23,0,0,0,3,2.33,7.9,7.9,0,0,0,3.41.75,4.85,4.85,0,0,0,3.22-1A3.42,3.42,0,0,0,874.7,549a2.85,2.85,0,0,0-.84-2.24,5.49,5.49,0,0,0-2.83-1.08l-2.59-.42a7.44,7.44,0,0,1-4.83-2.46,7,7,0,0,1-1.44-4.43,6.54,6.54,0,0,1,2.28-5.36,9.6,9.6,0,0,1,6.3-1.87,12.43,12.43,0,0,1,5,.9A8.55,8.55,0,0,1,879,534.5l-2.69,2.87a7.53,7.53,0,0,0-2.35-1.84,7.18,7.18,0,0,0-3.22-.68q-4,0-4,3.31a2.73,2.73,0,0,0,.84,2.16,6.06,6.06,0,0,0,2.87,1.09l2.56.45a8,8,0,0,1,4.72,2.35,6.48,6.48,0,0,1,1.54,4.47,8.12,8.12,0,0,1-.59,3.13,6.85,6.85,0,0,1-1.75,2.45,7.84,7.84,0,0,1-2.86,1.59A12.52,12.52,0,0,1,870.22,556.41Z"/><path class="cls-2" d="M894.9,552.8h-.18a6.57,6.57,0,0,1-1.84,2.54,5.1,5.1,0,0,1-3.44,1.07,5.67,5.67,0,0,1-4.33-1.77,7.14,7.14,0,0,1-1.66-5.06V537.93h4.48V549q0,3.93,3.4,3.93a4.87,4.87,0,0,0,1.31-.18,3.21,3.21,0,0,0,1.15-.54,2.78,2.78,0,0,0,.81-.9,2.5,2.5,0,0,0,.3-1.26v-12.1h4.48V556H894.9Z"/><path class="cls-2" d="M904.42,537.93h4.48v3.18h.24a6.67,6.67,0,0,1,2-2.62,5.39,5.39,0,0,1,3.38-1,6.68,6.68,0,0,1,2.82.58,5.66,5.66,0,0,1,2.19,1.75,8.52,8.52,0,0,1,1.4,2.95,17.95,17.95,0,0,1,0,8.33,8.57,8.57,0,0,1-1.4,3,5.75,5.75,0,0,1-2.19,1.75,6.68,6.68,0,0,1-2.82.58,5.45,5.45,0,0,1-3.38-1,6.63,6.63,0,0,1-2-2.63h-.24V563h-4.48Zm8.22,14.91a3.87,3.87,0,0,0,3-1.19,4.71,4.71,0,0,0,1.07-3.26v-2.87a4.7,4.7,0,0,0-1.07-3.25,3.87,3.87,0,0,0-3-1.19,4.56,4.56,0,0,0-2.64.75,2.57,2.57,0,0,0-1.1,2.29v5.67a2.59,2.59,0,0,0,1.1,2.3A4.56,4.56,0,0,0,912.64,552.84Z"/><path class="cls-2" d="M925.42,537.93h4.48v3.18h.24a6.67,6.67,0,0,1,2-2.62,5.37,5.37,0,0,1,3.38-1,6.68,6.68,0,0,1,2.82.58,5.66,5.66,0,0,1,2.19,1.75,8.52,8.52,0,0,1,1.4,2.95,17.95,17.95,0,0,1,0,8.33,8.57,8.57,0,0,1-1.4,3,5.75,5.75,0,0,1-2.19,1.75,6.68,6.68,0,0,1-2.82.58,5.43,5.43,0,0,1-3.38-1,6.63,6.63,0,0,1-2-2.63h-.24V563h-4.48Zm8.22,14.91a3.87,3.87,0,0,0,3-1.19,4.71,4.71,0,0,0,1.07-3.26v-2.87a4.7,4.7,0,0,0-1.07-3.25,3.87,3.87,0,0,0-3-1.19,4.56,4.56,0,0,0-2.64.75,2.57,2.57,0,0,0-1.1,2.29v5.67a2.59,2.59,0,0,0,1.1,2.3A4.56,4.56,0,0,0,933.64,552.84Z"/><path class="cls-2" d="M954.5,556.41a9.52,9.52,0,0,1-3.69-.67,7.59,7.59,0,0,1-2.77-1.89,8.35,8.35,0,0,1-1.75-3,12.9,12.9,0,0,1,0-7.84,8.39,8.39,0,0,1,1.75-3,7.84,7.84,0,0,1,2.77-1.89,9.71,9.71,0,0,1,3.69-.66,9.84,9.84,0,0,1,3.68.66,7.88,7.88,0,0,1,2.78,1.89,8.39,8.39,0,0,1,1.75,3,12.9,12.9,0,0,1,0,7.84,8.35,8.35,0,0,1-1.75,3,7.63,7.63,0,0,1-2.78,1.89A9.65,9.65,0,0,1,954.5,556.41Zm0-3.43a4,4,0,0,0,3-1.17,4.85,4.85,0,0,0,1.12-3.45v-2.8a4.84,4.84,0,0,0-1.12-3.45,4.55,4.55,0,0,0-6.09,0,4.79,4.79,0,0,0-1.12,3.45v2.8a4.81,4.81,0,0,0,1.12,3.45A4,4,0,0,0,954.5,553Z"/><path class="cls-2" d="M967.62,552.49h4.48V541.43h-4.48v-3.5h9v5h.29a9.56,9.56,0,0,1,.68-1.85,5.78,5.78,0,0,1,1.12-1.59,5.14,5.14,0,0,1,1.66-1.11,5.93,5.93,0,0,1,2.34-.42h2v4.2h-3.71a4,4,0,0,0-4.34,4.25v6.11h6.27V556H967.62Z"/><path class="cls-2" d="M997.72,556a4.88,4.88,0,0,1-3.81-1.37,5.09,5.09,0,0,1-1.23-3.54v-9.65h-5.25v-3.5H991a2.18,2.18,0,0,0,1.54-.44,2.09,2.09,0,0,0,.46-1.56v-4.37h4.16v6.37h7.35v3.5h-7.35v11.06h7.35V556Z"/><path class="cls-2" d="M78.12,454.45h-.35V472H73.85V447.56h5.63l6.41,17.53h.35V447.56h3.92V472H84.52Z"/><path class="cls-2" d="M103.42,472.41a10.29,10.29,0,0,1-3.85-.67,7.42,7.42,0,0,1-2.81-1.89,8.18,8.18,0,0,1-1.74-3,12.21,12.21,0,0,1-.59-3.91A11.87,11.87,0,0,1,95,459a8.66,8.66,0,0,1,1.73-3,7.73,7.73,0,0,1,2.72-1.89,9.25,9.25,0,0,1,3.58-.66,9.08,9.08,0,0,1,3.54.65,7.55,7.55,0,0,1,2.68,1.84,8.25,8.25,0,0,1,1.69,2.88,11,11,0,0,1,.6,3.72v1.48H98.91v.45a4.26,4.26,0,0,0,1.22,3.17,4.66,4.66,0,0,0,3.43,1.21,5.83,5.83,0,0,0,2.89-.68,6.13,6.13,0,0,0,2-1.81L111,469a8,8,0,0,1-2.85,2.44A10,10,0,0,1,103.42,472.41Zm-.31-15.61a4,4,0,0,0-3,1.2,4.37,4.37,0,0,0-1.15,3.17v.25h8.19v-.32A4.48,4.48,0,0,0,106,458,3.79,3.79,0,0,0,103.11,456.8Z"/><path class="cls-2" d="M125.23,472a4.89,4.89,0,0,1-3.82-1.37,5.13,5.13,0,0,1-1.22-3.54v-9.65h-5.25v-3.5h3.57a2.21,2.21,0,0,0,1.54-.44,2.14,2.14,0,0,0,.45-1.56v-4.37h4.17v6.37H132v3.5h-7.35v11.06H132V472Z"/><path class="cls-2" d="M135,453.93h3.75l1.54,14.91h.31L143,453.93h4.1l2.41,14.91h.32l1.57-14.91H155L152.7,472h-5.42l-2.1-13.27h-.32L142.73,472H137.3Z"/><path class="cls-2" d="M166,472.41a9.52,9.52,0,0,1-3.69-.67,7.59,7.59,0,0,1-2.77-1.89,8.5,8.5,0,0,1-1.75-3,12.9,12.9,0,0,1,0-7.84,8.54,8.54,0,0,1,1.75-3,7.84,7.84,0,0,1,2.77-1.89,9.71,9.71,0,0,1,3.69-.66,9.84,9.84,0,0,1,3.68.66,7.88,7.88,0,0,1,2.78,1.89,8.39,8.39,0,0,1,1.75,3,12.9,12.9,0,0,1,0,7.84,8.35,8.35,0,0,1-1.75,3,7.63,7.63,0,0,1-2.78,1.89A9.65,9.65,0,0,1,166,472.41Zm0-3.43a4,4,0,0,0,3.05-1.17,4.85,4.85,0,0,0,1.12-3.45v-2.8a4.84,4.84,0,0,0-1.12-3.45,4.55,4.55,0,0,0-6.09,0,4.79,4.79,0,0,0-1.12,3.45v2.8a4.81,4.81,0,0,0,1.12,3.45A4,4,0,0,0,166,469Z"/><path class="cls-2" d="M179.13,468.49h4.48V457.43h-4.48v-3.5h9v5h.28a9.56,9.56,0,0,1,.68-1.85,5.78,5.78,0,0,1,1.12-1.59,5.14,5.14,0,0,1,1.66-1.11,6,6,0,0,1,2.35-.42h2v4.2h-3.71a4,4,0,0,0-4.34,4.25v6.11h6.26V472H179.13Z"/><path class="cls-2" d="M200.2,446.09h4.48v15.19h.21l2.62-2.87,4.45-4.48h5.21L210,461l7.94,11h-5.35l-5.78-8.4-2.13,2V472H200.2Z"/><path class="cls-2" d="M88.65,514a3.63,3.63,0,0,1-2.53-.82,3.58,3.58,0,0,1-1.07-2.3h-.18A4.5,4.5,0,0,1,83,513.48a6.39,6.39,0,0,1-3.54.93A6.28,6.28,0,0,1,75.07,513a5.06,5.06,0,0,1-1.61-4q0-5.46,8-5.46h3.18v-1.19a3.62,3.62,0,0,0-.84-2.59,3.67,3.67,0,0,0-2.73-.87,5.13,5.13,0,0,0-2.76.66,6.37,6.37,0,0,0-1.79,1.72L74,499.08a6.7,6.7,0,0,1,2.71-2.54,10,10,0,0,1,4.85-1,8.5,8.5,0,0,1,5.58,1.66,6.06,6.06,0,0,1,2,4.95v8.51h2.14V514Zm-7.73-2.66a4.58,4.58,0,0,0,2.68-.75,2.39,2.39,0,0,0,1.06-2.05v-2.42H81.58c-2.45,0-3.67.77-3.67,2.31v.7a1.88,1.88,0,0,0,.8,1.65A3.84,3.84,0,0,0,80.92,511.33Z"/><path class="cls-2" d="M95.13,514V495.93h4.48v3.18h.17a6.53,6.53,0,0,1,1.84-2.53,5.09,5.09,0,0,1,3.45-1.07,5.66,5.66,0,0,1,4.32,1.77,7.07,7.07,0,0,1,1.66,5.05V514h-4.48V502.94q0-3.93-3.39-3.93a5.21,5.21,0,0,0-1.33.17,3.55,3.55,0,0,0-1.14.55,2.61,2.61,0,0,0-.8.89,2.5,2.5,0,0,0-.3,1.26V514Z"/><path class="cls-2" d="M127.61,510.8h-.25a6.63,6.63,0,0,1-2,2.63,5.43,5.43,0,0,1-3.38,1,6.74,6.74,0,0,1-2.82-.58,5.65,5.65,0,0,1-2.18-1.75,8.23,8.23,0,0,1-1.4-3,15.67,15.67,0,0,1-.49-4.16q0-4.75,1.89-7.11a6.11,6.11,0,0,1,5-2.34,5.37,5.37,0,0,1,3.38,1,6.67,6.67,0,0,1,2,2.62h.25v-11h4.48V514h-4.48Zm-3.75,0a5.59,5.59,0,0,0,1.45-.19,3.75,3.75,0,0,0,1.19-.56,2.67,2.67,0,0,0,.81-.95,2.86,2.86,0,0,0,.3-1.35v-5.67a2.85,2.85,0,0,0-.3-1.34,2.67,2.67,0,0,0-.81-.95,3.75,3.75,0,0,0-1.19-.56,5.19,5.19,0,0,0-1.45-.19,3.89,3.89,0,0,0-3,1.19,4.69,4.69,0,0,0-1.06,3.25v2.87a4.7,4.7,0,0,0,1.06,3.26A3.89,3.89,0,0,0,123.86,510.84Z"/><path class="cls-2" d="M74.13,530.09h4.48v11h.17a6.53,6.53,0,0,1,1.84-2.53,5.09,5.09,0,0,1,3.45-1.07,5.66,5.66,0,0,1,4.32,1.77,7.07,7.07,0,0,1,1.66,5.05V556H85.57v-11q0-3.93-3.39-3.93a5.21,5.21,0,0,0-1.33.17,3.55,3.55,0,0,0-1.14.55,2.61,2.61,0,0,0-.8.89,2.5,2.5,0,0,0-.3,1.26V556H74.13Z"/><path class="cls-2" d="M109.65,556a3.63,3.63,0,0,1-2.53-.82,3.54,3.54,0,0,1-1.07-2.3h-.18a4.5,4.5,0,0,1-1.92,2.61,6.39,6.39,0,0,1-3.54.93A6.28,6.28,0,0,1,96.07,555a5.06,5.06,0,0,1-1.61-4q0-5.46,8-5.46h3.18v-1.19a3.62,3.62,0,0,0-.84-2.59,3.67,3.67,0,0,0-2.73-.87,5.13,5.13,0,0,0-2.76.66,6.37,6.37,0,0,0-1.79,1.72L95,541.08a6.7,6.7,0,0,1,2.71-2.54,10,10,0,0,1,4.85-1,8.5,8.5,0,0,1,5.58,1.66,6.06,6.06,0,0,1,2,5v8.51h2.14V556Zm-7.73-2.66a4.58,4.58,0,0,0,2.68-.75,2.39,2.39,0,0,0,1.06-2.05v-2.42h-3.08c-2.45,0-3.67.77-3.67,2.31v.7a1.88,1.88,0,0,0,.8,1.65A3.84,3.84,0,0,0,101.92,553.33Z"/><path class="cls-2" d="M116.13,552.49h4.48V541.43h-4.48v-3.5h9v5h.28a9.56,9.56,0,0,1,.68-1.85,5.78,5.78,0,0,1,1.12-1.59,5.14,5.14,0,0,1,1.66-1.11,6,6,0,0,1,2.35-.42h2v4.2h-3.71a4,4,0,0,0-4.34,4.25v6.11h6.26V556H116.13Z"/><path class="cls-2" d="M148.61,552.8h-.25a6.63,6.63,0,0,1-2,2.63,5.43,5.43,0,0,1-3.38,1,6.71,6.71,0,0,1-2.82-.58,5.65,5.65,0,0,1-2.18-1.75,8.23,8.23,0,0,1-1.4-3,15.67,15.67,0,0,1-.49-4.16q0-4.76,1.89-7.11a6.11,6.11,0,0,1,5-2.34,5.37,5.37,0,0,1,3.38,1,6.67,6.67,0,0,1,2,2.62h.25v-11h4.48V556h-4.48Zm-3.75,0a5.64,5.64,0,0,0,1.45-.19,3.75,3.75,0,0,0,1.19-.56,2.67,2.67,0,0,0,.81-1,2.86,2.86,0,0,0,.3-1.35v-5.67a2.85,2.85,0,0,0-.3-1.34,2.67,2.67,0,0,0-.81-.95,3.75,3.75,0,0,0-1.19-.56,5.24,5.24,0,0,0-1.45-.19,3.88,3.88,0,0,0-3,1.19,4.69,4.69,0,0,0-1.06,3.25v2.87a4.7,4.7,0,0,0,1.06,3.26A3.88,3.88,0,0,0,144.86,552.84Z"/><path class="cls-2" d="M156,537.93h3.75l1.54,14.91h.31L164,537.93h4.1l2.41,14.91h.32l1.57-14.91H176L173.7,556h-5.42l-2.1-13.27h-.32L163.73,556H158.3Z"/><path class="cls-2" d="M193.65,556a3.66,3.66,0,0,1-2.54-.82,3.58,3.58,0,0,1-1.06-2.3h-.18a4.55,4.55,0,0,1-1.92,2.61,6.39,6.39,0,0,1-3.54.93,6.26,6.26,0,0,1-4.34-1.44,5.06,5.06,0,0,1-1.61-4q0-5.46,8-5.46h3.18v-1.19a3.62,3.62,0,0,0-.84-2.59,3.67,3.67,0,0,0-2.73-.87,5.13,5.13,0,0,0-2.76.66,6.37,6.37,0,0,0-1.79,1.72L179,541.08a6.7,6.7,0,0,1,2.71-2.54,10,10,0,0,1,4.85-1,8.5,8.5,0,0,1,5.58,1.66,6.06,6.06,0,0,1,2,5v8.51h2.14V556Zm-7.73-2.66a4.52,4.52,0,0,0,2.67-.75,2.38,2.38,0,0,0,1.07-2.05v-2.42h-3.08c-2.45,0-3.67.77-3.67,2.31v.7a1.86,1.86,0,0,0,.8,1.65A3.84,3.84,0,0,0,185.92,553.33Z"/><path class="cls-2" d="M200.13,552.49h4.48V541.43h-4.48v-3.5h9v5h.28a9.56,9.56,0,0,1,.68-1.85,5.78,5.78,0,0,1,1.12-1.59,5.14,5.14,0,0,1,1.66-1.11,6,6,0,0,1,2.35-.42h2v4.2h-3.71a4,4,0,0,0-4.34,4.25v6.11h6.26V556H200.13Z"/><path class="cls-2" d="M229.42,556.41a10.25,10.25,0,0,1-3.85-.67,7.54,7.54,0,0,1-2.82-1.89,8.16,8.16,0,0,1-1.73-3,13,13,0,0,1,0-7.86,8.51,8.51,0,0,1,1.73-3,7.79,7.79,0,0,1,2.71-1.89,9.3,9.3,0,0,1,3.59-.66,9,9,0,0,1,3.53.65,7.46,7.46,0,0,1,2.68,1.84,8.27,8.27,0,0,1,1.7,2.88,11,11,0,0,1,.6,3.72v1.48H224.9v.45a4.23,4.23,0,0,0,1.23,3.17,4.66,4.66,0,0,0,3.43,1.21,5.85,5.85,0,0,0,2.89-.68,6.33,6.33,0,0,0,2-1.81L237,553a7.9,7.9,0,0,1-2.86,2.44A10,10,0,0,1,229.42,556.41Zm-.32-15.61a4,4,0,0,0-3,1.2,4.37,4.37,0,0,0-1.16,3.17v.25h8.2v-.32A4.48,4.48,0,0,0,232,542,3.8,3.8,0,0,0,229.1,540.8Z"/><path class="cls-2" d="M81.93,598.41a13,13,0,0,1-5.14-.93,8.37,8.37,0,0,1-3.4-2.5L76,592.6a8,8,0,0,0,2.57,1.89,8.12,8.12,0,0,0,3.38.66,5.46,5.46,0,0,0,2.69-.56,1.82,1.82,0,0,0,1-1.71,1.36,1.36,0,0,0-.68-1.33,6.31,6.31,0,0,0-1.81-.53l-2.9-.45a15.85,15.85,0,0,1-2.19-.51,6.41,6.41,0,0,1-1.89-.93,4.3,4.3,0,0,1-1.31-1.52,4.75,4.75,0,0,1-.49-2.26A5,5,0,0,1,76.53,581a9.91,9.91,0,0,1,5.82-1.5,12.1,12.1,0,0,1,4.47.73,7.9,7.9,0,0,1,3,2.07L87.5,584.9a6.84,6.84,0,0,0-5.29-2.14c-2.28,0-3.43.72-3.43,2.14a1.41,1.41,0,0,0,.7,1.35,6.25,6.25,0,0,0,1.82.54l2.87.45a16.08,16.08,0,0,1,2.23.51,6.41,6.41,0,0,1,1.89.93,4.62,4.62,0,0,1,1.31,1.5,4.78,4.78,0,0,1,.49,2.24,5.19,5.19,0,0,1-2.15,4.4A10,10,0,0,1,81.93,598.41Z"/><path class="cls-2" d="M106.4,594.8h-.18a6.54,6.54,0,0,1-1.83,2.54,5.14,5.14,0,0,1-3.45,1.07,5.63,5.63,0,0,1-4.32-1.77A7.1,7.1,0,0,1,95,591.58V579.93h4.48V591q0,3.93,3.4,3.93a4.87,4.87,0,0,0,1.31-.18,3.34,3.34,0,0,0,1.16-.54,2.87,2.87,0,0,0,.8-.9,2.5,2.5,0,0,0,.3-1.26v-12.1h4.48V598H106.4Z"/><path class="cls-2" d="M115.92,579.93h4.48v3.18h.24a6.67,6.67,0,0,1,2-2.62,5.39,5.39,0,0,1,3.38-1,6.68,6.68,0,0,1,2.82.58,5.66,5.66,0,0,1,2.19,1.75,8.52,8.52,0,0,1,1.4,2.95,17.95,17.95,0,0,1,0,8.33,8.57,8.57,0,0,1-1.4,3,5.75,5.75,0,0,1-2.19,1.75,6.68,6.68,0,0,1-2.82.58,5.45,5.45,0,0,1-3.38-1,6.63,6.63,0,0,1-2-2.63h-.24V605h-4.48Zm8.22,14.91a3.87,3.87,0,0,0,3-1.19,4.71,4.71,0,0,0,1.07-3.26v-2.87a4.7,4.7,0,0,0-1.07-3.25,3.87,3.87,0,0,0-3-1.19,4.58,4.58,0,0,0-2.64.75,2.6,2.6,0,0,0-1.1,2.29v5.67a2.62,2.62,0,0,0,1.1,2.3A4.58,4.58,0,0,0,124.14,594.84Z"/><path class="cls-2" d="M136.92,579.93h4.48v3.18h.24a6.67,6.67,0,0,1,2-2.62,5.39,5.39,0,0,1,3.38-1,6.68,6.68,0,0,1,2.82.58,5.66,5.66,0,0,1,2.19,1.75,8.52,8.52,0,0,1,1.4,2.95,17.95,17.95,0,0,1,0,8.33,8.57,8.57,0,0,1-1.4,3,5.75,5.75,0,0,1-2.19,1.75,6.68,6.68,0,0,1-2.82.58,5.45,5.45,0,0,1-3.38-1,6.63,6.63,0,0,1-2-2.63h-.24V605h-4.48Zm8.22,14.91a3.87,3.87,0,0,0,3-1.19,4.71,4.71,0,0,0,1.07-3.26v-2.87a4.7,4.7,0,0,0-1.07-3.25,3.87,3.87,0,0,0-3-1.19,4.56,4.56,0,0,0-2.64.75,2.57,2.57,0,0,0-1.1,2.29v5.67a2.59,2.59,0,0,0,1.1,2.3A4.56,4.56,0,0,0,145.14,594.84Z"/><path class="cls-2" d="M166,598.41a9.52,9.52,0,0,1-3.69-.67,7.59,7.59,0,0,1-2.77-1.89,8.5,8.5,0,0,1-1.75-3,12.9,12.9,0,0,1,0-7.84,8.54,8.54,0,0,1,1.75-3,7.84,7.84,0,0,1,2.77-1.89,9.71,9.71,0,0,1,3.69-.66,9.84,9.84,0,0,1,3.68.66,7.88,7.88,0,0,1,2.78,1.89,8.39,8.39,0,0,1,1.75,3,12.9,12.9,0,0,1,0,7.84,8.35,8.35,0,0,1-1.75,3,7.63,7.63,0,0,1-2.78,1.89A9.65,9.65,0,0,1,166,598.41Zm0-3.43a4,4,0,0,0,3.05-1.17,4.85,4.85,0,0,0,1.12-3.45v-2.8a4.84,4.84,0,0,0-1.12-3.45,4.55,4.55,0,0,0-6.09,0,4.79,4.79,0,0,0-1.12,3.45v2.8a4.81,4.81,0,0,0,1.12,3.45A4,4,0,0,0,166,595Z"/><path class="cls-2" d="M179.13,594.49h4.48V583.43h-4.48v-3.5h9v5h.28a9.56,9.56,0,0,1,.68-1.85,5.78,5.78,0,0,1,1.12-1.59,5.14,5.14,0,0,1,1.66-1.11,6,6,0,0,1,2.35-.42h2v4.2h-3.71a4,4,0,0,0-4.34,4.25v6.11h6.26V598H179.13Z"/><path class="cls-2" d="M209.23,598a4.89,4.89,0,0,1-3.82-1.37,5.08,5.08,0,0,1-1.22-3.54v-9.65h-5.25v-3.5h3.57a2.21,2.21,0,0,0,1.54-.44,2.14,2.14,0,0,0,.45-1.56v-4.37h4.17v6.37H216v3.5h-7.35v11.06H216V598Z"/></g></svg>