<svg xmlns="http://www.w3.org/2000/svg" viewBox="0 0 814 354"><defs><style>.cls-1{fill:none;stroke:#ccc;stroke-miterlimit:10;stroke-width:1.5px;}</style></defs><g id="Lines"><path class="cls-1" d="M375.62,133.41l309,42.65s-35.44,31.56-21.6,112.43l-299.62-64.8s-20.5-8.87-13.85-49.85C349.59,173.84,355.13,143.38,375.62,133.41Z"/><path class="cls-1" d="M663.41,173.12s-37.2,45.2-20.44,111"/><path class="cls-1" d="M571.39,160.43s-23,4-28,63.81c0,0-1,26.43,9.17,40.36"/><path class="cls-1" d="M551.36,157.66s-21.77,13.41-25.1,58.27c0,0-1.13,37.31,10.51,45.24"/><line class="cls-1" x1="559.41" y1="169.73" x2="655.8" y2="184.71"/><path class="cls-1" d="M361.22,131.75,132.49,99.07s-31,7.76-27.7,45.42c0,0,2.77,23.81,23.82,26.58l232.61,52.44"/><path class="cls-1" d="M684.66,176.06s69.23,3.32,99.69,26l-8.86,16.06S767.18,240.86,765,276.3c0,0-28.8.55-32.13,6.09,0,0,3.88,10,30.47,11.63l.55,8.31"/><path class="cls-1" d="M670.94,196.66s61.35,3.77,104.55,21.49"/><path class="cls-1" d="M723.22,180.58s-7.83,7.38-10.46,21.09"/><path class="cls-1" d="M784.35,202.09s11.8.26,9.22,7.33l-12.15-2"/><path class="cls-1" d="M351.8,130.4s-19.93.8-28.24,41.78c0,0-5.51,28.56,15.8,46.4"/><path class="cls-1" d="M340.08,128.66s-19.93.79-28.24,41.77c0,0-8.48,27.1,12.83,44.95"/><path class="cls-1" d="M284.39,120.77S260.58,126,255,161.29c0,0-2.59,31.49,16.39,42"/><path class="cls-1" d="M273.16,119s-23.66,6.57-29.28,41.83c0,0-1.88,29.67,17.1,40.14"/><polygon class="cls-1" points="109.22 51.44 119.57 51.78 126.39 52 126.39 59.47 124.73 60.3 114.54 60.3 109.78 58.64 109.22 51.44"/><polyline class="cls-1" points="125.42 59.96 128.06 97.97 132.49 99.07 127.58 100.93 112.01 99.07 100.96 99.07 100.96 95.92 115.32 95.75 112.01 59.42"/><polyline class="cls-1" points="111.5 95.8 108.67 70.27 110.08 69.34 110.08 66.95 99.26 66.95 99.26 68.67 102.03 69.72 104.55 95.8"/><polyline class="cls-1" points="115.32 95.75 124.18 97.97 121.38 60.3"/><polyline class="cls-1" points="103.43 95.8 99.26 90.99 97.17 83.96 89.29 83.96 89.29 94.09 85.41 95.8 85.41 101.84 100.96 99.07"/><path class="cls-1" d="M85.41,101.84s-26,1.66-43.75,15.51c0,0-2.77,2.21,2.77,6.65,0,0,31.89,38.21,82.68,47.07"/><polyline class="cls-1" points="89.29 94.09 98.16 94.09 97.17 83.96"/><line class="cls-1" x1="98.16" y1="94.09" x2="100.96" y2="95.92"/><path class="cls-1" d="M82.07,102.19,70.46,62.52l-3-.29-8.58-.82,5.22,44.71s-16.38,10.4-7.75,29.65H52.59l-32.53,28.1,10.52,3.88,35.14-24.29"/><line class="cls-1" x1="78.43" y1="102.46" x2="67.15" y2="62.36"/><path class="cls-1" d="M76.83,103.23s-25.76,16-9.47,41.67"/><path class="cls-1" d="M251.2,198.71c-23.06-10-15.7-49.24-15.7-49.24,6.65-27.14,26-32,26-32V103.76l-11.42-1.29"/><path class="cls-1" d="M249.2,115.75s-17,7.14-24.22,30.95c0,0-9,37.6,14.05,49.26"/><path class="cls-1" d="M43.82,115.75s-4.48-8.2,0-20.74c0,0,4.33-.48,5.52,17.3,0,0-7.68,5-4.91,11.69"/><line class="cls-1" x1="46.01" y1="125.78" x2="48.24" y2="139.53"/><line class="cls-1" x1="50.83" y1="130.72" x2="51.06" y2="137.09"/><path class="cls-1" d="M48.24,128.13s-2.45-12,5.45-18"/><path class="cls-1" d="M250.12,115.75V101.62l61.81-9.19h13.2l50.49,24.29v16.69l-14.4-1.66s-21.05,10-25.48,44.86c0,0-6.09,45.41,27.7,47.08"/><path class="cls-1" d="M312.15,102.73l19.72,3.69s10.46,8.56.88,17.84L312.3,120.7S301.46,111.93,312.15,102.73Z"/><polyline class="cls-1" points="375.62 117.9 362.77 116.72 362.77 131.93"/><path class="cls-1" d="M280.91,141.72l18.28,2.77s-8.31,16.61-7.2,35.44l-18.83-3.12S272.05,154.46,280.91,141.72Z"/><polyline class="cls-1" points="778.74 212.26 790.44 213.72 786.57 217.04 776.1 217.04"/><polyline class="cls-1" points="793.58 209.42 789.89 258.58 783.27 254.29 790.44 213.72"/><path class="cls-1" d="M783.27,254.29l-3.08,22,9.7-17.72c-6.09,31.57-12.18,39.32-12.18,39.32l1.1-36.55c2.77-33.79,7.76-44.31,7.76-44.31"/><path class="cls-1" d="M663.06,288.49l53.72,11.63s12.19,3.32,47.08,2.21c0,0,10-.55,13.85-4.43"/><path class="cls-1" d="M763.31,294s8.3-1.1,11.07-8.86c0,0,1.11-7.2-9.41-8.86"/><path class="cls-1" d="M126.39,170.94l.72,10.05s2.34,7.15,3.86,0l-1.81,0-.55-10c-19.94-12.74-16.35-37.66-16.35-37.66,5.26-29.35,30-32.95,30-32.95"/><path class="cls-1" d="M144.61,174.68s4.22,6.26-13.64,6.31"/><path class="cls-1" d="M115.91,168.58S114,184.27,127.11,181"/><path class="cls-1" d="M110.2,166.9v7.78s1.84,2.64,6.52,2.56"/></g></svg>