<svg xmlns="http://www.w3.org/2000/svg" viewBox="0 0 1226 518"><defs><style>.cls-1{fill:#ccc;}.cls-2{fill:none;stroke:red;stroke-miterlimit:10;}</style></defs><g id="Lines"><path class="cls-1" d="M714.75,122.63h-22l-.12.28,21.82,2.57Z"/><polyline class="cls-2" points="1040.25 272.65 841.41 73.81 972.81 413.82"/><polyline class="cls-2" points="1066.27 147.72 841.41 73.81 1055.71 204.95"/><polyline class="cls-2" points="1020.15 363.23 841.41 73.81 990.67 378.48"/><polyline class="cls-2" points="1027.85 308.35 841.41 73.81 1050.6 239.22"/><line class="cls-2" x1="841.41" y1="73.81" x2="1060.8" y2="170.93"/><path class="cls-1" d="M591.72,440.71c2.46,1.81,4.93,3.6,7.39,5.4h12l-10.57-7.5a4.51,4.51,0,0,1-.71-.55,2.84,2.84,0,0,1,0-3.52,3.37,3.37,0,0,1,1.06-.67q28.08-12.75,55.81-27.4a42.59,42.59,0,0,1,15.88-4.53c4.69-.48,9.39-.59,14.08-1a34.22,34.22,0,0,0,4.57-1.05c.47-.1.94-.14,1.41-.21l.08.26c-.65,1-1.28,2-1.93,2.94-1.55,2.34-3.09,4.7-4.65,7a52,52,0,0,0-7.81,20.21q-1.44,8-2.85,16h3c.89-4.77,1.79-9.54,2.67-14.31a44.43,44.43,0,0,1,5.83-15.56c3.28-5.27,6.69-10.33,10-15.56a6.71,6.71,0,0,1,4.43-3.37c9.39-1.88,18.78-3.85,28.16-5.8,1.25-.26,2.49-.59,3.74-.87a1.55,1.55,0,0,1,.77,0c1,.26,1.33,1.76.71,3.07q-5.12,10.84-10.21,21.68c-1,2.15-2,4.31-3,6.47a12.45,12.45,0,0,1-3,4.22q-11.68,10-23.34,20.07h8.09q7.51-6.32,15-12.88a31.57,31.57,0,0,0,7.43-10.51c3.16-6.8,6.39-13.49,9.57-20.25.77-1.65,1.47-3.41,2.23-5.08,1.13-2.52,2-2.86,3.47-.95,2.38,3.07,4.69,6.32,7,9.52q7.44,10.26,14.86,20.54c.41.58.85,1.12,1.29,1.67a1.75,1.75,0,0,1,.27,1.76,11.71,11.71,0,0,1-1.14,2.54c-.42.57-1.11,1.12-1.58.95-2.74-1-5.34-.17-7.89,1.4a128.46,128.46,0,0,0-15.62,11.29h8.71a51.42,51.42,0,0,0,7-5.34,8.61,8.61,0,0,1,3.35-1.86,6.4,6.4,0,0,1,5,.59,7.63,7.63,0,0,1,1.94,2.07c1.09,1.39,2.14,2.86,3.2,4.3,0,0,0,0,.07.06l.15.18H792.6l2.08-.53a4.55,4.55,0,0,1,2.47.21,2.19,2.19,0,0,1,.58.32h5.34c.08-4,.09-8,.29-12a210.09,210.09,0,0,0,.17-24.33,123.41,123.41,0,0,0-2-16.38c-.87-4.33-2.16-5.39-4.76-4-1.49.81-2.94,1.79-4.4,2.73a28,28,0,0,0-9.56,10,17.6,17.6,0,0,1-1.67,2.16c-.13-3.13-.26-5.93-.38-8.72-.13-3.39-.37-6.71-1.66-9.55Q771.8,370,764.53,353.9c-1.32-2.91-3-4.26-5.22-4.25-5.57.05-11.15.12-16.72.05a15.89,15.89,0,0,0-10,3.23l-3.13,2.29L715.12,365.6c-.88.64-1.76,1-2.67.24-2.58-2.11-5.17-4.16-7.72-6.36-1.77-1.52-3.61-2.52-5.59-2.3-6.23.69-12.45,1.42-18.66,2.26-6.79.92-13.57,2-20.35,3a11.65,11.65,0,0,0-8.49,5.69c-2.15,3.34-4.15,7-6.13,10.58-1.9,3.47-3.54,4.31-6.16,2.68a5.17,5.17,0,0,0-6.55.47,22.9,22.9,0,0,0-3.21,3.3Q624.1,392,618.67,399c-9.25,12-18.46,24.12-28.71,33.79a4.53,4.53,0,0,0-.42,5.48A9,9,0,0,0,591.72,440.71ZM786,408.16c1.08-1.49,2.11-3.08,3.16-4.63a8.21,8.21,0,0,1,5.34-3.81c1.59-.3,2.54.68,3.3,3,.48,1.5,1,2.94,1.54,4.41a17.94,17.94,0,0,1,1,6c-.81,5.14-.21,10.84-.47,16.48-.2,4.23-1.46,6.55-3.95,7.41-6,2-11.91,4-17.85,6.08-3.07,1.08-5.84.09-8.36-2.91a38.05,38.05,0,0,1-2.56-3.58,2,2,0,0,1,.08-2.8Q776.56,421,786,408.16Zm-25.46-48.29c.84-1.28,1.36-1.18,2,.37q5.79,13.17,11.59,26.33a42.24,42.24,0,0,1,3.08,14.73c.09,1.74.13,3.48.22,5.78a10.87,10.87,0,0,1-1.07,4.25,20.58,20.58,0,0,1-1.41,2.5c-2.29,3.51-4.61,7-6.9,10.48-1.16,1.78-1.81,1.83-2.9,0-6.77-11.59-13.93-22.46-21.2-33.15-.24-.37-.48-.76-.7-1.18a6.62,6.62,0,0,1,0-6.32,20.09,20.09,0,0,1,1.71-2.51c4.4-5.9,8.82-11.76,13.22-17.68C759,362.35,759.72,361.05,760.49,359.87Zm-40.06,16.39A75.7,75.7,0,0,1,733.26,361c1.59-1.48,3.06-3.31,4.62-4.9a2.08,2.08,0,0,1,1.45-.76c5.94.49,11.88,1.06,17.89,1.62l-2,2.68c-3.79,5.08-7.6,10.13-11.37,15.27a35.94,35.94,0,0,0-2.8,4.54c-2.09,3.94-4.79,5.48-7.81,6-6.79,1.2-13.58,2.45-20.37,3.67a2.58,2.58,0,0,1-.78.07c-.66-.09-1.12-.65-1.23-1.79a1.65,1.65,0,0,1,.9-1.82C715.06,383.57,717.9,380.26,720.43,376.26Zm-73.55,8.26c.41-.77.87-1.46,1.31-2.17,2.48-4,5-8,7.43-12a2.71,2.71,0,0,1,2.24-1.55c7.86-.14,15.65-1.68,23.46-3,5-.85,9.92-1.5,14.88-2.24,1.25-.18,2.5-.43,3.76-.51a2.82,2.82,0,0,1,1.85.47c3.14,2.32,6.26,4.75,9.38,7.15a3.82,3.82,0,0,1,.32.27,4.32,4.32,0,0,1,0,5.8c-1.39,1.28-2.82,2.43-4.24,3.63-5.26,4.45-10.53,8.91-15.81,13.32a3.35,3.35,0,0,1-1.75.82c-7.88.82-15.77,1.58-23.65,2.35-.43,0-.85,0-1.28,0A11.69,11.69,0,0,1,657,394.2c-3.13-2.36-6.26-4.75-9.38-7.13a3.78,3.78,0,0,1-.57-.5A1.58,1.58,0,0,1,646.88,384.52Zm-41.57,39.66q12.18-15,24.37-29.9c1.34-1.64,2.72-3.17,4.07-4.79,2.39-2.87,4.9-3.33,7.57-1.18,3.2,2.58,6.43,5.1,9.63,7.65a3,3,0,0,1,1.24,2.64,3.12,3.12,0,0,1-1.24,2.79c-1.77,1.09-3.57,2.13-5.38,3.06q-19.86,10.21-39.75,20.4c-.43.21-.86.37-1.29.56l-.06-.21Z"/><path class="cls-1" d="M580.5,454.5c17.06,1.78,33.22-.87,49.51-5.88,7.77-2.39,15.77-4.72,23.92-2.91,7.65,1.71,14.68,5.47,22.43,6.82,8.1,1.42,16.06,0,24-1.58a85.29,85.29,0,0,1,25.71-1.06c17.36,1.86,34.44,4.26,51.94,4.5A349,349,0,0,0,837.57,450c7-1.11,4-11.71-2.93-10.61-34.67,5.5-69.11,4.63-103.82.13-8.09-1.05-16.18-1.7-24.31-.65-8.34,1.08-16.64,3.82-25.12,3.31-8-.48-15.25-4.6-22.86-6.61a46.11,46.11,0,0,0-22-.12c-8.91,2-17.38,5.43-26.36,7.13a102.68,102.68,0,0,1-29.7,1c-7-.73-7,10.28,0,11Z"/><line class="cls-2" x1="696.43" y1="142" x2="696.43" y2="357.72"/><path class="cls-1" d="M96.87,44.74c-4.25-10.36-11.94-8.29-20-5.63-11.53,3.78-11.57,3.64-6,14.39.52,1,.9,2.07,1.47,3.43-4.29,1.73-7.87,3.61-10.61-2.31-.76-1.65-4.52-3-6.66-2.74a142.35,142.35,0,0,0-20,4.27,9.54,9.54,0,0,0-5.24,4.75,19.47,19.47,0,0,0,0,17.4,12,12,0,0,0,6.55,5.22c5.53,1.78,11.36,2.57,17,4,4.34,1.07,7.71.05,9.49-4.14,1.2-2.83,3-3.07,5.52-2.34,3.66,1,7.37,1.87,11.45,2.89-2.88,6.14-5.54,11.83-8.9,19,9.55.27,18.2.55,26.86.72a2.8,2.8,0,0,0,2.16-1.08c2.85-5.7,7.46-3.41,11.72-2.7,1,.16,2,.41,2.94.58,6.58,1.13,7.2.65,7.29-6.26,8,1.56,15.91,3.22,23.86,4.63A285.56,285.56,0,0,0,208,102.42c19.15-.84,37.78,3.53,56.71,4.43,27.61,1.32,55.25,2.82,82.89,3,94.31.62,188.63.72,283,.94,11.32,0,22.64-.5,34-.74,1.13,0,2.26.13,4.09.25,0,7.94.22,15.72-.08,23.49-.18,4.69,1.11,7.25,6.2,7.33,14.78.21,29.55.61,44.33.88,4,.07,5.5-2.2,5.42-6.07-.14-6.49,0-13,0-19.49s1.74-8.79,8.15-9.48c15.56-1.68,31.15-3.12,46.74-4.53a4.86,4.86,0,0,1,3.22,1.5c3.43,3.4,5.07,3.15,7.83-.51a10.59,10.59,0,0,1,5.43-3.43c7.23-1.92,14.87-2.68,21.77-5.38a58.4,58.4,0,0,0,17.72-10.68c8.64-7.86,8.54-19.46.62-28.16-8.41-9.24-19.78-13.22-31.57-14.64-17.65-2.12-35.47-3.89-53.22-3.92Q470.92,36.78,190.69,37a271,271,0,0,0-58.54,6.07c-2.4.53-4.71,1.57-6.29-1.72-.45-.95-2.58-1.64-3.9-1.56-6.47.35-12.95.82-19.38,1.65C100.86,41.64,99.31,43.27,96.87,44.74Zm27.42,3.15c1.67-.29,3-.44,4.26-.74a287.3,287.3,0,0,1,64.94-7.09Q460.24,40,727,40.15c22.45,0,44.92,1.35,67.35,2.68,11.7.7,23.07,3.67,33.15,10.09,14.44,9.2,14.42,23.92.15,33.41-8.86,5.89-19,7.85-29.16,9.72-4.78.88-10.06.84-12,7-3.21-4.43-3.2-4.33-8.09-3.94-25.9,2.05-51.77,4.79-77.7,5.89-36.45,1.55-72.94,1.88-109.42,2.65a13.09,13.09,0,0,1-5-1.16c-1.54-.62-2.88-2.45-4.32-2.46q-56.25-.21-112.49-.08c-1.2,0-3.32.34-3.46.92-.86,3.47-3.52,2.54-5.65,2.53-25.5,0-51,.09-76.49-.31q-52.47-.81-104.93-2.4c-11.13-.33-22.22-1.83-33.34-2.79a5.65,5.65,0,0,1,3.83-1.81c42.55-2.72,85.07-6.44,127.67-7.85,59.27-2,118.6-2.11,177.9-3.16q82.95-1.47,165.91-3.23c9-.19,18.08-.64,27.12-1a23.24,23.24,0,0,0-9.06-1.17q-72.72.9-145.44,1.84c-69.63,1-139.28,1.72-208.9,3.29-33.29.75-66.57,2.88-99.81,5-19.11,1.19-38.11,4.49-57.22,5.17-35.84,1.29-71.68.83-106.74-8.46a19.12,19.12,0,0,0-3.81-.22c.35,2.63.62,4.68,1,7.36l-12.84-2.51c6-9.87,15.5-9.46,24.7-10.62a15.47,15.47,0,0,0-7.18-3.41c-10.15-1.85-20.36-3.39-30.49-5.36-4.88-1-9.36-2-10.47,5-5.36-1.23-10.22-2.25-15-3.5-3.1-.8-5.12-.27-6.09,3.12C59.54,84,57.21,85.2,53.32,84,48.86,82.71,44.24,82,39.68,81c-6.49-1.4-7.7-2.65-8.15-9.25a33.11,33.11,0,0,1,.36-7c.48-3.23,2.15-5.36,5.69-6,5.57-1,11-2.61,16.62-3.44,1.69-.25,4.94.86,5.25,2,1.81,6.46,5.93,5.46,10.49,4,2.29-.73,4.75-1.41,5.55,2,1.08,4.52,4.09,5,8,4.2,2.12-.42,4.33-.35,6.46-.71,9.5-1.64,19-3.24,28.46-5.16,1.47-.3,2.63-2.17,3.94-3.32-1.42-1-2.71-2.29-4.27-2.9-4.79-1.86-9.73-3.32-14.49-5.24-1-.42-2.4-2.28-2.2-3.14a4.43,4.43,0,0,1,3.11-2.5c4.43-.75,8.92-1.06,13.38-1.62C121.59,42.38,124.51,42.94,124.29,47.89ZM721,107.51c0,9.5,0,18.28,0,27.07,0,2.4-.19,4-3.26,4.34-14.29,1.52-28.53,1.49-42.68-1.15C673.89,137.54,672,136,672,135c-.25-8.25-.14-16.5-.14-25.19ZM70.21,44.65c4.86-1.44,9.48-2.64,14-4.18,3.19-1.09,5.33-.31,7.19,2.44a32.81,32.81,0,0,0,19.3,14c1.53.4,3,.92,4.56,1.39-.16.42-.2.7-.28.71-11.1,1.74-22.19,3.51-33.31,5.1A3.39,3.39,0,0,1,79,62.51C76,56.81,73.29,51,70.21,44.65Zm43.31,38a32,32,0,0,0-13.37,14c-.92,1.76-3.3,3.82-5.08,3.89-6,.22-12.07-.39-19-.72,3.53-7.33,6.53-13.74,9.78-20,.39-.77,2.2-1.31,3.23-1.16C97.21,79.9,105.36,81.31,113.52,82.66Zm410.79,23.55-.06,1H512.7v-1Zm-26.52,1,0-.82h11.41l0,.82Zm41.08-1.11c0,.33,0,.65,0,1H527.34l0-1Zm3.42,1.13,0-1H553.8v1Z"/><path class="cls-1" d="M1122.81,440.92a24.85,24.85,0,0,0,2.28,2.95c5,4.72,8.16,10.58,10.6,16.89,1,2.58,2,5.15,2.9,7.77,1.5,4.6.38,6.88-4.19,8.42a81.79,81.79,0,0,1-17.32,3.59c-8.59.94-17.15.43-25.74-.3-5.5-.47-11-.34-16.57-.69-8.58-.54-17.14-1.27-25.71-1.89-6.23-.45-12.46-1.17-18.69-1.18-4.66,0-9.32.91-14,1.41-5.83.63-11.66,1.29-17.5,1.85a14.3,14.3,0,0,1-9.41-2.56c-4.67-3.11-9.23-6.39-13.82-9.63-1.67-1.18-3.25-2.51-4.95-3.66a6.64,6.64,0,0,1-3-5c-.37-3.54-.58-7.1-.9-10.64-.52-5.72-1-11.44-1.64-17.14a49.67,49.67,0,0,1,3.43-24.4c2.6-6.48,5.62-12.81,8.68-19.09a9.16,9.16,0,0,1,3.49-3.29c10.65-6.53,21.66-12.44,32.87-17.95,3.87-1.9,7.77-3.75,11.67-5.6,3-1.41,3.6-2.57,3.35-5.84-.94-12.51-1-25.05-.87-37.58,0-5.24.06-10.48.27-15.72a13.65,13.65,0,0,1,1.14-4.86c5.86-13,10.64-26.51,15.55-39.92,1.41-3.86,2.89-7.69,4.32-11.54,1.82-4.89,2-10.07,2.76-15.17,1.22-8.41,2.65-16.8,3.92-25.21,2.2-14.5,4.34-29,6.51-43.52a55,55,0,0,1,4-13.71q9-20.76,18.06-41.48a14,14,0,0,1,2.54-3.85,3.43,3.43,0,0,1,5.8.73c10.22,18.11,23,34.4,35.72,50.75q7.45,9.57,14.72,19.3a36.8,36.8,0,0,1,3.48,5.65,14.08,14.08,0,0,1,.5,11.59c-1.72,4.62-.83,7.53,2.83,10.87,3.84,3.5,7.66,7.05,11.19,10.84,3.88,4.17,5.54,9.38,6,15,1,12,2.17,24,3.15,35.95.89,11,1.65,22,2.39,33a18.77,18.77,0,0,1-2.44,9.89c-2.32,4.5-4.5,9.08-6.73,13.63a5.36,5.36,0,0,0,.26,4.73q5.51,12.68,11,25.37c.8,1.85,1.6,3.7,2.41,5.53a42,42,0,0,1,3.42,17.63c-.08,9.85,0,19.7,0,29.56a10.8,10.8,0,0,1-4.49,9.21q-17,12.83-34,25.71c-3,2.28-6.52,2.69-10.1,2.94C1129.07,440.45,1126.12,440.68,1122.81,440.92Zm-68.09-186.8a20,20,0,0,0-1.08,1.93c-1,2.53-2,5.08-3,7.59-4.67,11.26-9.31,22.53-14.08,33.74a17.2,17.2,0,0,0-1.46,6.29c-.17,4.9-.45,9.79-.71,14.69-.46,8.71-1,17.42-.3,26.13a53.46,53.46,0,0,0,1.28,8.55,6.89,6.89,0,0,0,6,5.27,26,26,0,0,0,4.75.34q11.12-.15,22.23-.4c4.94-.11,8.11,2.25,10.31,6.59a261.08,261.08,0,0,1,12,27.66c1.65,4.51,2.53,9.09,1.48,13.93a4,4,0,0,0,1,2.8,10.69,10.69,0,0,0,2.69,2,1.28,1.28,0,0,0,1.85-.48c.59-.76,1.16-1.54,1.77-2.28q10.86-13.12,21.72-26.25c3.39-4.1,6.82-8.18,10.07-12.39,2-2.63,1.66-4.13-1-6.13-1.78-1.34-3.63-2.57-5.37-3.94-7.15-5.62-14.23-11.33-21.42-16.91a40.29,40.29,0,0,1-11.11-13.13c-12.07-22.76-23.37-45.91-34.49-69.15C1056.77,258.52,1055.81,256.45,1054.72,254.12Zm72.72,30.52.28-.14c-.07-.83-.11-1.66-.22-2.49-.37-2.69-1-5.37-1.11-8.08-.43-8.28-.55-16.59-1.05-24.87a116.81,116.81,0,0,0-4.8-28.06q-15.42-49-29-98.62a7.36,7.36,0,0,0-.7-1.87,2.15,2.15,0,0,0-3.74,0,8.28,8.28,0,0,0-.57,1.25c-3.72,8.75-7.41,17.51-11.16,26.25-2.42,5.63-4.76,11.29-5.75,17.37-.58,3.59-.72,7.26-1.29,10.85q-5.43,33.89-11,67.75c-.53,3.21,0,4,3.1,4.89,11.7,3.43,23.4,6.84,35.07,10.36a45.62,45.62,0,0,1,21.37,13.8c2.44,2.76,4.93,5.48,7.41,8.22C1125.37,282.38,1126.41,283.51,1127.44,284.64Zm-77.85,80c-5,0-10-.09-15,.05a12.24,12.24,0,0,0-4.55,1.13c-3.77,1.74-7.41,3.72-11.14,5.54q-16.94,8.28-34.5,15.16a5.89,5.89,0,0,0-3.7,3.95c-1.73,5.34-3.55,10.65-5.35,16-.84,2.45-1.77,4.88-2.58,7.35-.59,1.79-.08,2.67,1.69,3.26.28.09.56.16.85.23a350.5,350.5,0,0,1,35.39,11,5.72,5.72,0,0,0,5-.46c4.64-2.51,9.27-5.06,14-7.3,7.58-3.56,15.27-6.88,22.91-10.31,5.33-2.38,8.16-6.52,9-12.26.78-5.35,1.73-10.67,2.76-16,1-4.94,2.11-9.83,3.14-14.75.34-1.57-.21-2.27-1.81-2.48a12.62,12.62,0,0,0-1.51-.07Zm20.6-107.49,0,.14a20.61,20.61,0,0,0-2.11.27c-2.49.57-3.59,2.31-3,4.78a13,13,0,0,0,1.08,2.66c1,2,2.13,3.9,3.15,5.87q15.29,29.67,30.54,59.34a16,16,0,0,0,4.47,5.35c2.27,1.79,4.56,3.56,6.83,5.34q11.47,9,22.92,18a1.9,1.9,0,0,0,3.26-1.24,5.25,5.25,0,0,0,0-1.37c-.29-2.21-.65-4.4-.92-6.6-2.06-16.59-4.15-33.18-6.13-49.78a13.08,13.08,0,0,0-3.57-7.81c-5.53-5.85-10.87-11.87-16.45-17.67a38.33,38.33,0,0,0-16.45-10.29c-6.28-1.95-12.55-3.94-18.83-5.87C1073.37,257.86,1071.77,257.56,1070.19,257.18Zm60.49-21.89c0,.76,0,1.51,0,2.26q1.21,20.89,2.47,41.79a8.34,8.34,0,0,0,.88,3.11q7,14,14.08,27.94c1.27,2.5,2.49,5,3.84,7.49,1.47,2.66,4.56,2.65,6.13,0,.1-.18.2-.37.29-.56,2.53-5.52,5.1-11,7.56-16.58a7.64,7.64,0,0,0,.49-3.27c-.08-2.22-.34-4.43-.54-6.64-.78-8.76-1.47-17.54-2.36-26.29-1.41-13.8-3-27.58-3.19-41.47a5.55,5.55,0,0,0-1.64-4c-4.23-4.35-8.43-8.74-12.65-13.11-.76-.79-1.48-1.61-2.3-2.33s-1.52-.65-2.17.34a7.29,7.29,0,0,0-.52,1q-3.78,8.3-7.55,16.58A30.66,30.66,0,0,0,1130.68,235.29Zm-111,205a33,33,0,0,0,2.77,12.64c2.48,5.72,5.87,10.76,11.26,14.13a10.09,10.09,0,0,0,4.09,1.42c9.28,1.05,18.58,2,27.88,2.95,3.12.32,6.25.64,9.39.8a3.43,3.43,0,0,0,3.89-3,12.77,12.77,0,0,0,.23-4.35c-1.4-9.45-2.93-18.88-4.39-28.32-1.26-8.1-4.71-15-11.17-20.18a6.81,6.81,0,0,0-7.72-.94c-9.65,4.39-19.29,8.79-29,13-4.43,1.89-6.84,4.92-7.1,9.69C1019.74,438.88,1019.71,439.64,1019.68,440.31Zm100.22-5.92c2.43-.15,4.27-.22,6.11-.38a30.17,30.17,0,0,0,15.58-5.44q13.92-10.23,27.83-20.49c1.64-1.2,1.76-2.12.39-3.61s-2.62-2.61-3.77-4c-6.25-7.77-12.45-15.58-18.69-23.37a24.48,24.48,0,0,0-2.66-3c-2.13-1.94-4.47-1.92-6.68-.06a13.3,13.3,0,0,0-1.25,1.24c-11.3,12.84-22.8,25.5-35,37.45-2,1.93-1.91,3.08,0,5.14,3.71,4.05,7.37,8.14,11.08,12.18a22.3,22.3,0,0,0,2.64,2.5A8,8,0,0,0,1119.9,434.39Zm-6.41,40.4a12.32,12.32,0,0,0,6.32-1.74c1.56-.91,3.08-1.88,4.66-2.73,2.49-1.34,3.53-3,3.21-5.83a16.69,16.69,0,0,0-4-9.44c-1.64-1.85-3.32-3.67-4.89-5.58q-13.59-16.58-27.14-33.19c-1.08-1.33-1.78-1.43-3-.14a48,48,0,0,0-3.78,4.53,18,18,0,0,0-3.08,14.78c2.22,10.49,4.29,21,6.43,31.53.9,4.4,3.36,6.64,7.84,7C1102,474.42,1108.06,473.36,1113.49,474.79Zm-143-53.47c.19,2,.29,3.91.56,5.76,1.49,10.44,3.05,20.88,4.52,31.33a4,4,0,0,0,2.24,3.23c5.64,3.13,11.26,6.3,16.89,9.44,1.7.95,2.66.8,4-.59l12.54-12.69a9.28,9.28,0,0,0,3-6.95,41.38,41.38,0,0,0-3-14.05c-.83-2.08-2.57-3.14-4.7-3.8q-15.06-4.67-30.06-9.48C974.55,422.89,972.61,422.11,970.46,421.32Zm202.43-22.62c.58-10.62,1.19-21.12,1.71-31.62a4.8,4.8,0,0,0-.81-2.55c-1.67-2.76-3.61-5.36-5.18-8.17a110.4,110.4,0,0,0-16.12-22.68,44.82,44.82,0,0,1-9.89-15.33c-.33-.89-.73-1.78-1.93-1.59a2.13,2.13,0,0,0-1.88,2.18,7,7,0,0,0,.06,1.37c1.3,12,2.62,24,3.89,36,.57,5.33,2.2,10.11,6.37,13.79a43.15,43.15,0,0,1,4.8,4.95c5.43,6.66,10.77,13.4,16.14,20.11Zm-72.16-269.93-.22.11c.2.75.37,1.52.6,2.27q10.79,35.13,21.57,70.26c1,3.19,2.08,6.36,3.24,9.5a3.09,3.09,0,0,0,2.94,2.19c1.5,0,2.23-1,2.79-2.19,2.7-5.67,5.36-11.36,8.09-17a12.28,12.28,0,0,0-1.24-13.38c-1.71-2.38-3.34-4.83-5.07-7.19q-15.79-21.56-31.61-43.07C1101.46,129.75,1101.1,129.26,1100.73,128.77Zm-26.39,241.72-.4.16a1.87,1.87,0,0,0-.15.32c-2.5,10.38-5,20.75-7.5,31.14-1.06,4.47,0,8.26,3.7,11.23a16.72,16.72,0,0,1,3.12,3.38c2.11,2.93,3.72,3,5.71,0a1.05,1.05,0,0,0,.07-.11c1.51-1.88,3.07-3.73,4.54-5.65a12.07,12.07,0,0,0,2.19-3.44,18.13,18.13,0,0,0,.62-8.83,19.77,19.77,0,0,0-2-5.91c-3.53-6.29-5.79-13.1-8.56-19.69C1075.34,372.16,1074.8,371.34,1074.34,370.49Zm-49.57,97c-1.7-2.41-3.27-4.68-4.9-6.9-.7-1-1.44-.68-2.19.08-3.32,3.37-6.66,6.72-10,10.09a8.18,8.18,0,0,0-.72.95Z"/><path class="cls-1" d="M1164.18,466.32a83.08,83.08,0,0,1-17.23-1.7,10.27,10.27,0,0,1-8.27-9.37,9.22,9.22,0,0,1,2.19-7.46c3-3.38,5.83-6.82,8.76-10.21a11.91,11.91,0,0,1,6.14-3.75c5.22-1.37,10.48-2.62,15.73-3.87a10,10,0,0,1,7.63,1.18c3.74,2.23,7.45,4.53,11.17,6.79a29.51,29.51,0,0,0,3,1.65,7.7,7.7,0,0,1,4.94,6.6,27.18,27.18,0,0,1-.27,6.24,6.31,6.31,0,0,1-4.14,5c-4.15,1.69-8.34,3.3-12.48,5-2.71,1.11-5.36,2.38-8.08,3.46a10.16,10.16,0,0,1-3.4.7C1167.94,466.62,1166.06,466.42,1164.18,466.32Zm8.53-15v.36c.41-.09.81-.17,1.21-.28,2-.59,4-1.15,6-1.78,3.39-1.07,6.78-2.15,10.16-3.29a5.89,5.89,0,0,0,1.45-1c-.4-.45-.8-.9-1.21-1.34a.77.77,0,0,0-.21-.14c-5.08-3.09-10.15-6.21-15.26-9.25a3.24,3.24,0,0,0-2.24-.46c-4.58,1.32-9.2,2.58-13.67,4.23a21,21,0,0,0-11.63,10.22c-1,1.84-.67,2.32,1.36,2.35Q1160.71,451.13,1172.71,451.32Zm-9.39,9.33v-.24c1.38,0,2.77.07,4.14,0s2.27-.94,2.12-2.1c-.17-1.4-1.23-1.33-2.27-1.34-5.61-.08-11.21-.16-16.81-.31-1.37,0-2.73-.35-4.1-.51-.76-.09-1.46,0-1.68.92a1.47,1.47,0,0,0,1,1.89,6.8,6.8,0,0,0,1.7.41C1152.73,459.8,1158,460.22,1163.32,460.65Z"/></g></svg>