<svg xmlns="http://www.w3.org/2000/svg" viewBox="0 0 1772 795"><defs><style>.cls-1{fill:#1a1a1a;}.cls-2{fill:none;stroke:#fff;stroke-miterlimit:10;stroke-width:3px;}.cls-3{fill:#fff;}</style></defs><g id="Lines"><rect class="cls-1" width="1772" height="795" rx="14.57"/><circle class="cls-2" cx="886" cy="298.07" r="230.74"/><circle class="cls-2" cx="1046.34" cy="496.93" r="230.74"/><circle class="cls-2" cx="725.66" cy="496.14" r="230.74"/><path class="cls-3" d="M849.59,447.84l-2.12-7.13h-8.78l-2.11,7.13h-3.12l7.67-25h4l7.67,25ZM843.24,426h-.32l-3.51,12.08h7.34Z"/><path class="cls-3" d="M864.82,448.27a11.58,11.58,0,0,1-5-1,11,11,0,0,1-3.57-2.64l1.94-1.68a9.8,9.8,0,0,0,2.9,2.15,8.79,8.79,0,0,0,3.8.75,7.13,7.13,0,0,0,3.53-.77,2.57,2.57,0,0,0,1.38-2.42,2.47,2.47,0,0,0-.27-1.2,2.1,2.1,0,0,0-.74-.77,4.09,4.09,0,0,0-1-.45c-.38-.1-.78-.19-1.21-.26l-2.91-.43c-.64-.1-1.34-.23-2.09-.4a6.91,6.91,0,0,1-2.06-.8,4.82,4.82,0,0,1-1.56-1.49,4.29,4.29,0,0,1-.63-2.44,5,5,0,0,1,.56-2.42,5.09,5.09,0,0,1,1.55-1.72,7.32,7.32,0,0,1,2.37-1,12.61,12.61,0,0,1,3-.34,11.13,11.13,0,0,1,4.36.79,9.47,9.47,0,0,1,3.17,2.19l-1.86,1.75a6.83,6.83,0,0,0-.81-.8,5.58,5.58,0,0,0-1.18-.76,8,8,0,0,0-1.63-.55,9.88,9.88,0,0,0-2.15-.22,6.09,6.09,0,0,0-3.35.76,2.67,2.67,0,0,0-.9,3.38,2,2,0,0,0,.73.77,4.23,4.23,0,0,0,1.06.45q.6.17,1.2.27l2.9.43c.67.1,1.38.23,2.12.39a7,7,0,0,1,2,.81,4.92,4.92,0,0,1,1.56,1.49,4.25,4.25,0,0,1,.63,2.43,4.92,4.92,0,0,1-2.13,4.27A9.72,9.72,0,0,1,864.82,448.27Z"/><path class="cls-3" d="M878.75,429.35h2.87v3h.14a6,6,0,0,1,5.7-3.44,6.27,6.27,0,0,1,5.32,2.55q1.92,2.53,1.92,7.13a11.62,11.62,0,0,1-1.92,7.13,6.26,6.26,0,0,1-5.32,2.54,6,6,0,0,1-5.7-3.44h-.14V455h-2.87Zm7.6,16.38a5,5,0,0,0,3.89-1.52,5.79,5.79,0,0,0,1.38-4V437a5.78,5.78,0,0,0-1.38-4,5,5,0,0,0-3.89-1.52,6.47,6.47,0,0,0-1.83.25,4.76,4.76,0,0,0-1.5.73,3.64,3.64,0,0,0-1,1.19,3.36,3.36,0,0,0-.38,1.63v6.66a3.38,3.38,0,0,0,.38,1.63,3.51,3.51,0,0,0,1,1.18,4.58,4.58,0,0,0,1.5.74A6.47,6.47,0,0,0,886.35,445.73Z"/><path class="cls-3" d="M907.92,448.27a9,9,0,0,1-3.6-.68,7.48,7.48,0,0,1-2.72-1.95,8.94,8.94,0,0,1-1.74-3.05,13.12,13.12,0,0,1,0-8,9.23,9.23,0,0,1,1.74-3.06,7.53,7.53,0,0,1,2.67-2,8.61,8.61,0,0,1,3.46-.68,8.23,8.23,0,0,1,3.38.68,7.82,7.82,0,0,1,2.6,1.88,8.4,8.4,0,0,1,1.65,2.85A11,11,0,0,1,916,438v1.36H902.26v.86a6.14,6.14,0,0,0,.4,2.26,5,5,0,0,0,1.13,1.79,4.85,4.85,0,0,0,1.79,1.17,6.46,6.46,0,0,0,2.34.41,5.94,5.94,0,0,0,3.23-.86,5.55,5.55,0,0,0,2.08-2.36l2.11,1.43a6.87,6.87,0,0,1-2.74,3.06A8.66,8.66,0,0,1,907.92,448.27Zm-.17-17a5.45,5.45,0,0,0-2.19.43,5.26,5.26,0,0,0-1.74,1.18,5.47,5.47,0,0,0-1.15,1.77,6.07,6.07,0,0,0-.41,2.24v.26h10.61v-.4a6.31,6.31,0,0,0-.38-2.22,5.24,5.24,0,0,0-1-1.74,4.51,4.51,0,0,0-1.61-1.13A5.44,5.44,0,0,0,907.75,431.29Z"/><path class="cls-3" d="M921.86,447.84V429.35h2.87v3h.14a6.91,6.91,0,0,1,.72-1.3,4.61,4.61,0,0,1,1.06-1.1,5.2,5.2,0,0,1,1.49-.75,6.34,6.34,0,0,1,2-.29,6.13,6.13,0,0,1,4.66,1.85,7.27,7.27,0,0,1,1.76,5.21v11.86h-2.87V436.48a5.54,5.54,0,0,0-1.11-3.78,4.17,4.17,0,0,0-3.26-1.23,6.8,6.8,0,0,0-1.69.21,4.91,4.91,0,0,0-1.47.65,3.26,3.26,0,0,0-1,1.11,3.1,3.1,0,0,0-.39,1.57v12.83Z"/><path class="cls-3" d="M541.58,497.65H547a6.09,6.09,0,0,1,5.32,2.45c1.18,1.63,1.76,4.06,1.76,7.27s-.58,5.64-1.76,7.28A6.11,6.11,0,0,1,547,517.1h-5.43Zm5.32,17.42a4.1,4.1,0,0,0,3.53-1.62,7.7,7.7,0,0,0,1.18-4.57v-3a7.7,7.7,0,0,0-1.18-4.57,4.1,4.1,0,0,0-3.53-1.62h-3v15.39Z"/><path class="cls-3" d="M564.26,517.44a7.13,7.13,0,0,1-2.8-.53,6.07,6.07,0,0,1-2.12-1.52A7.05,7.05,0,0,1,558,513a9.62,9.62,0,0,1-.47-3.08,9.29,9.29,0,0,1,.49-3.12,7.05,7.05,0,0,1,1.35-2.39,5.89,5.89,0,0,1,2.07-1.52,6.73,6.73,0,0,1,2.69-.53,6.45,6.45,0,0,1,2.64.53,6.08,6.08,0,0,1,2,1.47,6.45,6.45,0,0,1,1.28,2.21,8.51,8.51,0,0,1,.45,2.82v1.06H559.86v.67a4.77,4.77,0,0,0,.31,1.75,4,4,0,0,0,.87,1.4,3.84,3.84,0,0,0,1.4.9,4.83,4.83,0,0,0,1.82.32,4.55,4.55,0,0,0,2.51-.67,4.26,4.26,0,0,0,1.62-1.84l1.64,1.12a5.29,5.29,0,0,1-2.13,2.38A6.75,6.75,0,0,1,564.26,517.44Zm-.14-13.22a4.34,4.34,0,0,0-1.7.34,4.1,4.1,0,0,0-1.35.92,4.15,4.15,0,0,0-.89,1.38,4.68,4.68,0,0,0-.32,1.74v.2h8.25v-.31a5,5,0,0,0-.29-1.73,4.34,4.34,0,0,0-.81-1.35,3.54,3.54,0,0,0-1.26-.88A4.26,4.26,0,0,0,564.12,504.22Z"/><path class="cls-3" d="M581,517.44a7.1,7.1,0,0,1-2.8-.53,5.9,5.9,0,0,1-2.12-1.52,6.91,6.91,0,0,1-1.36-2.37,9.62,9.62,0,0,1-.47-3.08,9.29,9.29,0,0,1,.49-3.12,7.05,7.05,0,0,1,1.35-2.39,5.92,5.92,0,0,1,2.08-1.52,6.69,6.69,0,0,1,2.69-.53,6.44,6.44,0,0,1,2.63.53,6.08,6.08,0,0,1,2,1.47,6.29,6.29,0,0,1,1.28,2.21,8.51,8.51,0,0,1,.45,2.82v1.06H576.58v.67a4.77,4.77,0,0,0,.31,1.75,4,4,0,0,0,.88,1.4,3.8,3.8,0,0,0,1.39.9,4.89,4.89,0,0,0,1.83.32,4.54,4.54,0,0,0,2.5-.67,4.26,4.26,0,0,0,1.62-1.84l1.65,1.12a5.31,5.31,0,0,1-2.14,2.38A6.71,6.71,0,0,1,581,517.44Zm-.14-13.22a4.3,4.3,0,0,0-1.7.34,4.25,4.25,0,0,0-1.36.92,4.31,4.31,0,0,0-.89,1.38,4.68,4.68,0,0,0-.32,1.74v.2h8.25v-.31a5,5,0,0,0-.29-1.73,4.15,4.15,0,0,0-.81-1.35,3.5,3.5,0,0,0-1.25-.88A4.34,4.34,0,0,0,580.85,504.22Z"/><path class="cls-3" d="M591.74,502.72H594v2.34h.12a4.65,4.65,0,0,1,4.43-2.68,4.91,4.91,0,0,1,4.14,2,11.08,11.08,0,0,1,0,11.1,4.91,4.91,0,0,1-4.14,2,4.65,4.65,0,0,1-4.43-2.68H594v7.92h-2.23Zm5.91,12.74a3.89,3.89,0,0,0,3-1.19,4.5,4.5,0,0,0,1.07-3.13v-2.46a4.5,4.5,0,0,0-1.07-3.13,3.89,3.89,0,0,0-3-1.19,5.08,5.08,0,0,0-1.42.2,3.75,3.75,0,0,0-1.17.57,2.79,2.79,0,0,0-.79.92,2.59,2.59,0,0,0-.3,1.27v5.18a2.56,2.56,0,0,0,.3,1.27,2.79,2.79,0,0,0,.79.92,3.75,3.75,0,0,0,1.17.57A5.08,5.08,0,0,0,597.65,515.46Z"/><path class="cls-3" d="M541.07,548.62h4.21V538.09h-4.21v-1.92h6.44v3.62h.14a4.79,4.79,0,0,1,1.69-2.66,5,5,0,0,1,3.16-1h2v2.23H551.8a4.35,4.35,0,0,0-3.1,1.11,3.81,3.81,0,0,0-1.19,2.92v6.19h5.58v1.93h-12Z"/><path class="cls-3" d="M564.26,550.88a7,7,0,0,1-2.8-.53,6,6,0,0,1-2.12-1.52,7.05,7.05,0,0,1-1.35-2.37,9.57,9.57,0,0,1-.47-3.08,9.29,9.29,0,0,1,.49-3.12,7,7,0,0,1,1.35-2.38,5.77,5.77,0,0,1,2.07-1.52,6.73,6.73,0,0,1,2.69-.53,6.45,6.45,0,0,1,2.64.53,5.92,5.92,0,0,1,2,1.46,6.59,6.59,0,0,1,1.28,2.22,8.41,8.41,0,0,1,.45,2.81v1.06H559.86v.67a4.83,4.83,0,0,0,.31,1.76,3.9,3.9,0,0,0,.87,1.39,4,4,0,0,0,1.4.91,5,5,0,0,0,1.82.32,4.55,4.55,0,0,0,2.51-.67,4.32,4.32,0,0,0,1.62-1.84l1.64,1.12A5.34,5.34,0,0,1,567.9,550,6.74,6.74,0,0,1,564.26,550.88Zm-.14-13.21a4.16,4.16,0,0,0-1.7.34,4.07,4.07,0,0,0-1.35.91,4.15,4.15,0,0,0-.89,1.38,4.7,4.7,0,0,0-.32,1.75v.19h8.25v-.31a5,5,0,0,0-.29-1.72,4.34,4.34,0,0,0-.81-1.35,3.3,3.3,0,0,0-1.26-.88A4.08,4.08,0,0,0,564.12,537.67Z"/><path class="cls-3" d="M575.33,548.62h5.18V538.09h-5.18v-1.92h7.41v12.45h4.85v1.93H575.33Zm6.3-15.63a1.87,1.87,0,0,1-1.37-.41,1.37,1.37,0,0,1-.39-1v-.45a1.41,1.41,0,0,1,.39-1,1.87,1.87,0,0,1,1.37-.4,1.84,1.84,0,0,1,1.36.4,1.41,1.41,0,0,1,.39,1v.45a1.37,1.37,0,0,1-.39,1A1.84,1.84,0,0,1,581.63,533Z"/><path class="cls-3" d="M591.83,550.55V536.17h2.23v2.34h.11a5.07,5.07,0,0,1,.56-1,3.31,3.31,0,0,1,.82-.85,4.08,4.08,0,0,1,1.16-.59,5.15,5.15,0,0,1,1.56-.22,4.76,4.76,0,0,1,3.62,1.44,5.64,5.64,0,0,1,1.37,4.05v9.23H601v-8.84a4.27,4.27,0,0,0-.87-2.94,3.22,3.22,0,0,0-2.53-1,5.17,5.17,0,0,0-1.31.17,3.86,3.86,0,0,0-1.15.5,2.67,2.67,0,0,0-.81.86,2.46,2.46,0,0,0-.3,1.23v10Z"/><path class="cls-3" d="M608.13,548.62H613V538.09h-5.13v-1.92H613v-3a3.61,3.61,0,0,1,.77-2.37,3,3,0,0,1,2.41-.92H621v1.93h-5.77v4.32H621v1.92h-5.77v10.53h5.13v1.93H608.13Z"/><path class="cls-3" d="M630.9,550.88a6.55,6.55,0,0,1-2.71-.53,5.68,5.68,0,0,1-2.07-1.52,6.78,6.78,0,0,1-1.29-2.37,10.9,10.9,0,0,1,0-6.2,6.74,6.74,0,0,1,1.29-2.38,5.68,5.68,0,0,1,2.07-1.52,7.22,7.22,0,0,1,5.43,0,5.57,5.57,0,0,1,2.06,1.52,6.75,6.75,0,0,1,1.3,2.38,10.9,10.9,0,0,1,0,6.2,6.8,6.8,0,0,1-1.3,2.37,5.57,5.57,0,0,1-2.06,1.52A6.6,6.6,0,0,1,630.9,550.88Zm0-1.92a4.09,4.09,0,0,0,3-1.12,4.59,4.59,0,0,0,1.15-3.45v-2.06a4.6,4.6,0,0,0-1.15-3.46,4.6,4.6,0,0,0-6,0,4.64,4.64,0,0,0-1.14,3.46v2.06a4.63,4.63,0,0,0,1.14,3.45A4.12,4.12,0,0,0,630.9,549Z"/><path class="cls-3" d="M641.41,548.62h4.21V538.09h-4.21v-1.92h6.44v3.62H648a4.79,4.79,0,0,1,1.69-2.66,5,5,0,0,1,3.16-1h2v2.23h-2.71a4.37,4.37,0,0,0-3.11,1.11,3.81,3.81,0,0,0-1.18,2.92v6.19h5.57v1.93h-12Z"/><path class="cls-3" d="M664.85,550.88a6.74,6.74,0,0,1-2.77-.54,5.76,5.76,0,0,1-2.05-1.52,6.57,6.57,0,0,1-1.27-2.37,10.35,10.35,0,0,1-.43-3.09,10,10,0,0,1,.45-3.1,6.72,6.72,0,0,1,1.28-2.38,5.46,5.46,0,0,1,2-1.52,6.75,6.75,0,0,1,2.73-.53,5.79,5.79,0,0,1,3.4.92,5.34,5.34,0,0,1,1.93,2.4l-1.79,1a3.35,3.35,0,0,0-1.29-1.73,3.92,3.92,0,0,0-2.25-.62,4.54,4.54,0,0,0-1.74.32,3.64,3.64,0,0,0-1.29.91,3.84,3.84,0,0,0-.8,1.39,5.55,5.55,0,0,0-.26,1.76v2.45a5.55,5.55,0,0,0,.26,1.76,3.76,3.76,0,0,0,.8,1.39,3.63,3.63,0,0,0,1.31.91,4.71,4.71,0,0,0,1.78.32,4,4,0,0,0,2.4-.67,4.65,4.65,0,0,0,1.5-1.84l1.59,1.09a5.74,5.74,0,0,1-2,2.39A6,6,0,0,1,664.85,550.88Z"/><path class="cls-3" d="M681.32,550.88a7,7,0,0,1-2.8-.53,6,6,0,0,1-2.12-1.52,7.05,7.05,0,0,1-1.35-2.37,9.57,9.57,0,0,1-.47-3.08,9.29,9.29,0,0,1,.49-3.12,7,7,0,0,1,1.35-2.38,5.77,5.77,0,0,1,2.07-1.52,6.73,6.73,0,0,1,2.69-.53,6.45,6.45,0,0,1,2.64.53,5.92,5.92,0,0,1,2,1.46,6.59,6.59,0,0,1,1.28,2.22,8.41,8.41,0,0,1,.45,2.81v1.06H676.92v.67a4.83,4.83,0,0,0,.31,1.76,3.9,3.9,0,0,0,.87,1.39,4,4,0,0,0,1.4.91,5,5,0,0,0,1.82.32,4.57,4.57,0,0,0,2.51-.67,4.32,4.32,0,0,0,1.62-1.84l1.64,1.12A5.4,5.4,0,0,1,685,550,6.74,6.74,0,0,1,681.32,550.88Zm-.14-13.21a4.16,4.16,0,0,0-1.7.34,4.07,4.07,0,0,0-1.35.91,4.15,4.15,0,0,0-.89,1.38,4.7,4.7,0,0,0-.32,1.75v.19h8.25v-.31a5,5,0,0,0-.29-1.72,4.34,4.34,0,0,0-.81-1.35,3.3,3.3,0,0,0-1.26-.88A4.08,4.08,0,0,0,681.18,537.67Z"/><path class="cls-3" d="M690.94,550.55V536.17H693v1.67h.11a4,4,0,0,1,.95-1.42,2.53,2.53,0,0,1,1.81-.59,2.5,2.5,0,0,1,1.87.63,2.79,2.79,0,0,1,.75,1.63h.09a4.26,4.26,0,0,1,1.11-1.62,2.91,2.91,0,0,1,2-.64,2.35,2.35,0,0,1,2.35,1.23,8.21,8.21,0,0,1,.6,3.51v10h-2.06v-9.62a6,6,0,0,0-.38-2.55,1.42,1.42,0,0,0-1.38-.71,2,2,0,0,0-1.45.57,2.41,2.41,0,0,0-.55,1.74v10.57h-2.07v-9.62a6.07,6.07,0,0,0-.37-2.55,1.4,1.4,0,0,0-1.35-.71,2,2,0,0,0-1.47.57A2.37,2.37,0,0,0,693,540v10.57Z"/><path class="cls-3" d="M714.77,550.88a6.92,6.92,0,0,1-2.8-.53,5.78,5.78,0,0,1-2.12-1.52,6.73,6.73,0,0,1-1.35-2.37,9.3,9.3,0,0,1-.48-3.08,9.54,9.54,0,0,1,.49-3.12,7.35,7.35,0,0,1,1.35-2.38,5.8,5.8,0,0,1,2.08-1.52,6.69,6.69,0,0,1,2.69-.53,6.4,6.4,0,0,1,2.63.53,5.83,5.83,0,0,1,2,1.46,6.61,6.61,0,0,1,1.29,2.22,8.67,8.67,0,0,1,.44,2.81v1.06H710.37v.67a5,5,0,0,0,.3,1.76,4.07,4.07,0,0,0,.88,1.39,4,4,0,0,0,1.39.91,5.09,5.09,0,0,0,1.83.32,4.57,4.57,0,0,0,2.51-.67,4.37,4.37,0,0,0,1.61-1.84l1.65,1.12a5.4,5.4,0,0,1-2.13,2.38A6.77,6.77,0,0,1,714.77,550.88Zm-.14-13.21a4.16,4.16,0,0,0-1.7.34,4.07,4.07,0,0,0-1.35.91,4.15,4.15,0,0,0-.89,1.38,4.51,4.51,0,0,0-.32,1.75v.19h8.25v-.31a4.74,4.74,0,0,0-.3-1.72,4,4,0,0,0-.81-1.35,3.27,3.27,0,0,0-1.25-.88A4.12,4.12,0,0,0,714.63,537.67Z"/><path class="cls-3" d="M725.61,550.55V536.17h2.23v2.34H728a5.61,5.61,0,0,1,.56-1,3.48,3.48,0,0,1,.82-.85,4.21,4.21,0,0,1,1.16-.59,5.15,5.15,0,0,1,1.56-.22,4.76,4.76,0,0,1,3.62,1.44,5.64,5.64,0,0,1,1.37,4.05v9.23h-2.23v-8.84a4.27,4.27,0,0,0-.87-2.94,3.22,3.22,0,0,0-2.53-1,5.23,5.23,0,0,0-1.31.17,3.69,3.69,0,0,0-1.14.5,2.47,2.47,0,0,0-.81.86,2.37,2.37,0,0,0-.31,1.23v10Z"/><path class="cls-3" d="M748.66,550.55a3,3,0,0,1-2.41-.92,3.56,3.56,0,0,1-.77-2.36v-9.18h-4.79v-1.92h3.57a1.11,1.11,0,0,0,1.31-1.31v-3.77h2.14v5.08h6.55v1.92h-6.55v10.53h6.55v1.93Z"/><path class="cls-3" d="M541.16,582.07h5V565.29h-5v-1.92h7.24v18.7h5V584H541.16Z"/><path class="cls-3" d="M564.26,584.33a7.13,7.13,0,0,1-2.8-.53,6,6,0,0,1-2.12-1.52,7.05,7.05,0,0,1-1.35-2.37,9.62,9.62,0,0,1-.47-3.08,9.29,9.29,0,0,1,.49-3.12,7,7,0,0,1,1.35-2.38,5.77,5.77,0,0,1,2.07-1.52,6.56,6.56,0,0,1,2.69-.53,6.29,6.29,0,0,1,2.64.53,5.92,5.92,0,0,1,2,1.46,6.4,6.4,0,0,1,1.28,2.22,8.41,8.41,0,0,1,.45,2.81v1.06H559.86V578a4.73,4.73,0,0,0,.31,1.75,4,4,0,0,0,.87,1.4,3.84,3.84,0,0,0,1.4.9,4.83,4.83,0,0,0,1.82.32,4.63,4.63,0,0,0,2.51-.66,4.32,4.32,0,0,0,1.62-1.84L570,581a5.29,5.29,0,0,1-2.13,2.38A6.66,6.66,0,0,1,564.26,584.33Zm-.14-13.21a4.33,4.33,0,0,0-1.7.33,4.1,4.1,0,0,0-1.35.92,4.15,4.15,0,0,0-.89,1.38,4.68,4.68,0,0,0-.32,1.74v.2h8.25v-.31a5,5,0,0,0-.29-1.73,4.34,4.34,0,0,0-.81-1.35,3.54,3.54,0,0,0-1.26-.88A4.26,4.26,0,0,0,564.12,571.12Z"/><path class="cls-3" d="M586.17,584a2.3,2.3,0,0,1-1.87-.67,3.2,3.2,0,0,1-.69-1.67h-.14a4.12,4.12,0,0,1-1.52,2,4.94,4.94,0,0,1-2.8.71,5.27,5.27,0,0,1-3.6-1.17,4.05,4.05,0,0,1-1.34-3.21,3.6,3.6,0,0,1,1.47-3.09,8,8,0,0,1,4.72-1.09h3.07v-1.41a3,3,0,0,0-.9-2.37,3.67,3.67,0,0,0-2.53-.79,4.42,4.42,0,0,0-2.37.57,4.32,4.32,0,0,0-1.48,1.55l-1.5-1.12a4.84,4.84,0,0,1,.75-1.09,5,5,0,0,1,1.17-.94,6,6,0,0,1,1.59-.65,7.57,7.57,0,0,1,2-.24,6,6,0,0,1,4,1.28,4.49,4.49,0,0,1,1.49,3.58v7.93h2V584Zm-6.63-1.53a5.52,5.52,0,0,0,1.57-.21,4.29,4.29,0,0,0,1.24-.56,2.59,2.59,0,0,0,.82-.83,2,2,0,0,0,.3-1.05v-2.37H580.4a5.89,5.89,0,0,0-2.93.56,1.79,1.79,0,0,0-.92,1.62v.58a1.94,1.94,0,0,0,.8,1.69A3.7,3.7,0,0,0,579.54,582.46Z"/><path class="cls-3" d="M591.24,582.07h4.21V571.53h-4.21v-1.92h6.44v3.62h.14a4.79,4.79,0,0,1,1.69-2.66,5,5,0,0,1,3.16-1h2v2.23H602a4.35,4.35,0,0,0-3.1,1.11,3.83,3.83,0,0,0-1.19,2.92v6.2h5.58V584h-12Z"/><path class="cls-3" d="M608.55,584V569.61h2.23V572h.11a5.88,5.88,0,0,1,.56-1,3.48,3.48,0,0,1,.82-.85,4,4,0,0,1,1.16-.59,4.85,4.85,0,0,1,1.56-.22,4.79,4.79,0,0,1,3.62,1.43,5.67,5.67,0,0,1,1.37,4.06V584h-2.23v-8.83a4.27,4.27,0,0,0-.87-2.94,3.22,3.22,0,0,0-2.53-1,5.22,5.22,0,0,0-1.31.16,3.69,3.69,0,0,0-1.14.5,2.59,2.59,0,0,0-.81.87,2.34,2.34,0,0,0-.31,1.23v10Z"/><path class="cls-3" d="M625.5,582.07h5.18V571.53H625.5v-1.92h7.41v12.46h4.85V584H625.5Zm6.3-15.64a1.87,1.87,0,0,1-1.37-.4,1.41,1.41,0,0,1-.39-1v-.44a1.41,1.41,0,0,1,.39-1,1.87,1.87,0,0,1,1.37-.4,1.84,1.84,0,0,1,1.36.4,1.41,1.41,0,0,1,.39,1V565a1.41,1.41,0,0,1-.39,1A1.84,1.84,0,0,1,631.8,566.43Z"/><path class="cls-3" d="M642,584V569.61h2.23V572h.11a5.28,5.28,0,0,1,.56-1,3.31,3.31,0,0,1,.82-.85,3.9,3.9,0,0,1,1.15-.59,4.94,4.94,0,0,1,1.56-.22,4.8,4.8,0,0,1,3.63,1.43,5.66,5.66,0,0,1,1.36,4.06V584h-2.23v-8.83a4.27,4.27,0,0,0-.86-2.94,3.24,3.24,0,0,0-2.54-1,5.28,5.28,0,0,0-1.31.16,3.91,3.91,0,0,0-1.14.5,2.81,2.81,0,0,0-.81.87,2.44,2.44,0,0,0-.3,1.23v10Z"/><path class="cls-3" d="M671.62,585.65a3.44,3.44,0,0,1-1.81,3.21,11.23,11.23,0,0,1-5.43,1,10.08,10.08,0,0,1-5-.92,2.91,2.91,0,0,1-1.51-2.65,2.51,2.51,0,0,1,.61-1.81,3.68,3.68,0,0,1,1.73-.94v-.34a2.4,2.4,0,0,1-1-.78,2.05,2.05,0,0,1-.34-1.2,2,2,0,0,1,.74-1.67,5.23,5.23,0,0,1,1.86-.84v-.11a4.5,4.5,0,0,1-2.08-1.73,4.82,4.82,0,0,1-.74-2.67,5.07,5.07,0,0,1,.39-2,4.33,4.33,0,0,1,1.13-1.57,5.14,5.14,0,0,1,1.77-1,6.92,6.92,0,0,1,2.29-.36,6.55,6.55,0,0,1,2.84.58v-.25a2.29,2.29,0,0,1,.39-1.37,1.51,1.51,0,0,1,1.34-.55h2.64v1.92h-3.23v1a4.47,4.47,0,0,1,1.2,1.59,5.17,5.17,0,0,1,0,4.06,4.59,4.59,0,0,1-1.12,1.58,5.14,5.14,0,0,1-1.77,1,7.07,7.07,0,0,1-2.3.36c-.25,0-.48,0-.7,0s-.45,0-.67-.08a5.16,5.16,0,0,0-.7.18,2.82,2.82,0,0,0-.67.34,1.94,1.94,0,0,0-.5.49,1.13,1.13,0,0,0-.19.65.84.84,0,0,0,.64.86,5.48,5.48,0,0,0,1.67.21h3.18a6.33,6.33,0,0,1,4,1A3.44,3.44,0,0,1,671.62,585.65Zm-2.09.1a1.63,1.63,0,0,0-.69-1.38,4.29,4.29,0,0,0-2.43-.52h-5a2,2,0,0,0-1.45,2,2.12,2.12,0,0,0,.76,1.63,3.7,3.7,0,0,0,2.5.68h2.18a6.38,6.38,0,0,0,3-.6A1.92,1.92,0,0,0,669.53,585.75Zm-5.26-8.28a3.39,3.39,0,0,0,2.46-.78,2.76,2.76,0,0,0,.8-2.06v-.81a2.73,2.73,0,0,0-.8-2.05,4.36,4.36,0,0,0-4.92,0,2.75,2.75,0,0,0-.78,2.05v.81a2.79,2.79,0,0,0,.78,2.06A3.36,3.36,0,0,0,664.27,577.47Z"/><path class="cls-3" d="M1024,517.1V497.65h7.08a5.47,5.47,0,0,1,4.12,1.47,6.7,6.7,0,0,1,0,8.25,5.44,5.44,0,0,1-4.12,1.48h-4.74v8.25Zm2.34-10.28h4.68a3.33,3.33,0,0,0,2.3-.74,2.68,2.68,0,0,0,.82-2.11v-1.45a2.66,2.66,0,0,0-.82-2.1,3.33,3.33,0,0,0-2.3-.74h-4.68Z"/><path class="cls-3" d="M1041,496.48h2.23v8.58h.12a5.62,5.62,0,0,1,.55-1,4.12,4.12,0,0,1,.82-.85,4.34,4.34,0,0,1,1.16-.58,4.93,4.93,0,0,1,1.56-.23,4.78,4.78,0,0,1,3.63,1.44,5.66,5.66,0,0,1,1.36,4.06v9.22h-2.23v-8.83a4.32,4.32,0,0,0-.86-2.94,3.21,3.21,0,0,0-2.54-1,5.29,5.29,0,0,0-1.31.17,3.69,3.69,0,0,0-1.14.5,2.5,2.5,0,0,0-.81.87,2.43,2.43,0,0,0-.31,1.22v10H1041Z"/><path class="cls-3" d="M1068,502.72h2.23l-7.13,17.53a6.26,6.26,0,0,1-.56,1.07,2.94,2.94,0,0,1-.73.76,3.06,3.06,0,0,1-1,.44,5.59,5.59,0,0,1-1.39.16h-2.12v-1.93h3.34l1.62-3.93-5.8-14.1h2.29l2.42,6,2.15,5.46h.11l2.15-5.46Z"/><path class="cls-3" d="M1080.23,517.44a9.09,9.09,0,0,1-3.89-.77,8.38,8.38,0,0,1-2.77-2l1.5-1.31a7.57,7.57,0,0,0,2.26,1.67,6.81,6.81,0,0,0,3,.59,5.6,5.6,0,0,0,2.75-.6,2,2,0,0,0,1.07-1.88,1.92,1.92,0,0,0-.21-.94,1.64,1.64,0,0,0-.57-.6,3.29,3.29,0,0,0-.81-.34,6.33,6.33,0,0,0-1-.21l-2.25-.34c-.5-.07-1-.17-1.63-.3a5.41,5.41,0,0,1-1.61-.63,3.82,3.82,0,0,1-1.21-1.16,3.35,3.35,0,0,1-.49-1.89,3.84,3.84,0,0,1,.44-1.88,3.77,3.77,0,0,1,1.21-1.34,5.62,5.62,0,0,1,1.84-.81,9.32,9.32,0,0,1,2.31-.27,8.58,8.58,0,0,1,3.39.62,7.23,7.23,0,0,1,2.46,1.7l-1.45,1.36a4.52,4.52,0,0,0-.62-.62,4.29,4.29,0,0,0-.92-.59,6.29,6.29,0,0,0-1.27-.43,7.53,7.53,0,0,0-1.67-.17,4.83,4.83,0,0,0-2.61.59,1.9,1.9,0,0,0-.9,1.7,2,2,0,0,0,.2.93,1.59,1.59,0,0,0,.58.6,2.9,2.9,0,0,0,.82.35c.3.08.62.15.93.21l2.26.33c.52.08,1.07.18,1.64.31a5.29,5.29,0,0,1,1.59.63,3.72,3.72,0,0,1,1.22,1.15,3.41,3.41,0,0,1,.48,1.9,3.83,3.83,0,0,1-1.66,3.32A7.48,7.48,0,0,1,1080.23,517.44Z"/><path class="cls-3" d="M1091.38,515.18h5.18V504.64h-5.18v-1.92h7.41v12.46h4.85v1.92h-12.26Zm6.29-15.64a1.84,1.84,0,0,1-1.36-.4,1.41,1.41,0,0,1-.39-1v-.45a1.4,1.4,0,0,1,.39-1,1.84,1.84,0,0,1,1.36-.41,1.87,1.87,0,0,1,1.37.41,1.4,1.4,0,0,1,.39,1v.45a1.41,1.41,0,0,1-.39,1A1.87,1.87,0,0,1,1097.67,499.54Z"/><path class="cls-3" d="M1114,517.44a6.79,6.79,0,0,1-2.78-.55,5.72,5.72,0,0,1-2-1.52,6.42,6.42,0,0,1-1.27-2.37,10.3,10.3,0,0,1-.43-3.09,10,10,0,0,1,.44-3.09,7.1,7.1,0,0,1,1.28-2.39,5.69,5.69,0,0,1,2-1.52,6.75,6.75,0,0,1,2.73-.53,5.81,5.81,0,0,1,3.4.92,5.5,5.5,0,0,1,1.92,2.4l-1.78.95a3.35,3.35,0,0,0-1.3-1.73,3.89,3.89,0,0,0-2.24-.61,4.54,4.54,0,0,0-1.74.32,3.53,3.53,0,0,0-1.3.9,3.78,3.78,0,0,0-.79,1.4,5.49,5.49,0,0,0-.27,1.75v2.46a5.49,5.49,0,0,0,.27,1.75,3.78,3.78,0,0,0,.79,1.4,3.49,3.49,0,0,0,1.31.9,4.57,4.57,0,0,0,1.79.32,4,4,0,0,0,2.39-.67,4.69,4.69,0,0,0,1.51-1.84l1.59,1.09a5.73,5.73,0,0,1-2,2.4A6,6,0,0,1,1114,517.44Z"/><path class="cls-3" d="M1130.4,517.44a9.06,9.06,0,0,1-3.89-.77,8.52,8.52,0,0,1-2.78-2l1.51-1.31a7.57,7.57,0,0,0,2.26,1.67,6.77,6.77,0,0,0,3,.59,5.6,5.6,0,0,0,2.75-.6,2,2,0,0,0,1.07-1.88,1.92,1.92,0,0,0-.21-.94,1.64,1.64,0,0,0-.57-.6,3.29,3.29,0,0,0-.81-.34,6.62,6.62,0,0,0-1-.21l-2.25-.34c-.51-.07-1-.17-1.63-.3a5.41,5.41,0,0,1-1.61-.63,3.72,3.72,0,0,1-1.21-1.16,3.27,3.27,0,0,1-.49-1.89,4,4,0,0,1,.43-1.88,3.9,3.9,0,0,1,1.22-1.34,5.62,5.62,0,0,1,1.84-.81,9.27,9.27,0,0,1,2.31-.27,8.58,8.58,0,0,1,3.39.62,7.33,7.33,0,0,1,2.46,1.7l-1.45,1.36a4.52,4.52,0,0,0-.62-.62,4.29,4.29,0,0,0-.92-.59,6.51,6.51,0,0,0-1.27-.43,7.53,7.53,0,0,0-1.67-.17,4.8,4.8,0,0,0-2.61.59,1.9,1.9,0,0,0-.91,1.7,1.88,1.88,0,0,0,.21.93,1.64,1.64,0,0,0,.57.6,3.09,3.09,0,0,0,.83.35q.45.12.93.21l2.26.33c.52.08,1.07.18,1.64.31a5.29,5.29,0,0,1,1.59.63,3.69,3.69,0,0,1,1.21,1.15,3.33,3.33,0,0,1,.49,1.9,3.83,3.83,0,0,1-1.66,3.32A7.5,7.5,0,0,1,1130.4,517.44Z"/><path class="cls-3" d="M1158,496.48h2.23v8.58h.11a4.67,4.67,0,0,1,4.43-2.68,4.88,4.88,0,0,1,4.14,2,11.08,11.08,0,0,1,0,11.1,4.88,4.88,0,0,1-4.14,2,4.67,4.67,0,0,1-4.43-2.68h-.11v2.34H1158Zm5.91,19a3.86,3.86,0,0,0,3-1.19,4.46,4.46,0,0,0,1.08-3.13v-2.46a4.46,4.46,0,0,0-1.08-3.13,3.86,3.86,0,0,0-3-1.19,5,5,0,0,0-1.42.2,3.55,3.55,0,0,0-1.17.57,2.82,2.82,0,0,0-.8.92,2.7,2.7,0,0,0-.29,1.27v5.18a2.68,2.68,0,0,0,.29,1.27,2.82,2.82,0,0,0,.8.92,3.55,3.55,0,0,0,1.17.57A5,5,0,0,0,1163.87,515.46Z"/><path class="cls-3" d="M1185.83,517.1a2.32,2.32,0,0,1-1.87-.67,3.2,3.2,0,0,1-.69-1.67h-.14a4.06,4.06,0,0,1-1.52,2,4.94,4.94,0,0,1-2.8.71,5.27,5.27,0,0,1-3.6-1.17,4.06,4.06,0,0,1-1.34-3.21,3.6,3.6,0,0,1,1.47-3.09,8,8,0,0,1,4.72-1.09h3.07v-1.41a3,3,0,0,0-.89-2.37,3.7,3.7,0,0,0-2.54-.79,4.06,4.06,0,0,0-3.85,2.12l-1.5-1.12a5.19,5.19,0,0,1,.75-1.09,4.78,4.78,0,0,1,1.17-.94,6.31,6.31,0,0,1,1.59-.65,7.55,7.55,0,0,1,2-.25,6,6,0,0,1,4,1.29,4.49,4.49,0,0,1,1.49,3.58v7.93h2v1.92Zm-6.63-1.53a5.52,5.52,0,0,0,1.57-.21,4.57,4.57,0,0,0,1.24-.56,2.63,2.63,0,0,0,.83-.83,2.08,2.08,0,0,0,.29-1.05v-2.37h-3.07a5.83,5.83,0,0,0-2.92.56,1.77,1.77,0,0,0-.92,1.62v.58A2,2,0,0,0,1177,515,3.7,3.7,0,0,0,1179.2,515.57Z"/><path class="cls-3" d="M1197.29,517.44a9.09,9.09,0,0,1-3.89-.77,8.38,8.38,0,0,1-2.77-2l1.5-1.31a7.57,7.57,0,0,0,2.26,1.67,6.81,6.81,0,0,0,2.95.59,5.6,5.6,0,0,0,2.75-.6,2,2,0,0,0,1.07-1.88,1.92,1.92,0,0,0-.21-.94,1.64,1.64,0,0,0-.57-.6,3.29,3.29,0,0,0-.81-.34,6.62,6.62,0,0,0-1-.21l-2.25-.34c-.5-.07-1-.17-1.63-.3a5.41,5.41,0,0,1-1.61-.63,3.82,3.82,0,0,1-1.21-1.16,3.35,3.35,0,0,1-.49-1.89,3.84,3.84,0,0,1,.44-1.88,3.77,3.77,0,0,1,1.21-1.34,5.62,5.62,0,0,1,1.84-.81,9.32,9.32,0,0,1,2.31-.27,8.58,8.58,0,0,1,3.39.62,7.23,7.23,0,0,1,2.46,1.7l-1.44,1.36a5.31,5.31,0,0,0-.63-.62,4.29,4.29,0,0,0-.92-.59,6.29,6.29,0,0,0-1.27-.43,7.53,7.53,0,0,0-1.67-.17,4.83,4.83,0,0,0-2.61.59,1.9,1.9,0,0,0-.9,1.7,2,2,0,0,0,.2.93,1.59,1.59,0,0,0,.58.6,2.9,2.9,0,0,0,.82.35q.46.12.93.21l2.26.33c.52.08,1.07.18,1.64.31a5.29,5.29,0,0,1,1.59.63,3.72,3.72,0,0,1,1.22,1.15,3.41,3.41,0,0,1,.48,1.9,3.83,3.83,0,0,1-1.66,3.32A7.48,7.48,0,0,1,1197.29,517.44Z"/><path class="cls-3" d="M1214.09,517.44a7.13,7.13,0,0,1-2.8-.53,6.07,6.07,0,0,1-2.12-1.52,7.05,7.05,0,0,1-1.35-2.37,9.62,9.62,0,0,1-.47-3.08,9.29,9.29,0,0,1,.49-3.12,7.05,7.05,0,0,1,1.35-2.39,5.89,5.89,0,0,1,2.07-1.52,6.73,6.73,0,0,1,2.69-.53,6.45,6.45,0,0,1,2.64.53,6.08,6.08,0,0,1,2,1.47,6.45,6.45,0,0,1,1.28,2.21,8.51,8.51,0,0,1,.45,2.82v1.06h-10.65v.67a4.77,4.77,0,0,0,.31,1.75,4,4,0,0,0,.87,1.4,3.84,3.84,0,0,0,1.4.9,4.83,4.83,0,0,0,1.82.32,4.55,4.55,0,0,0,2.51-.67,4.26,4.26,0,0,0,1.62-1.84l1.64,1.12a5.29,5.29,0,0,1-2.13,2.38A6.75,6.75,0,0,1,1214.09,517.44Zm-.14-13.22a4.34,4.34,0,0,0-1.7.34,4.1,4.1,0,0,0-1.35.92,4.15,4.15,0,0,0-.89,1.38,4.68,4.68,0,0,0-.32,1.74v.2h8.25v-.31a5,5,0,0,0-.29-1.73,4.34,4.34,0,0,0-.81-1.35,3.54,3.54,0,0,0-1.26-.88A4.26,4.26,0,0,0,1214,504.22Z"/><path class="cls-3" d="M1234.05,514.76h-.11a4.67,4.67,0,0,1-4.43,2.68,4.88,4.88,0,0,1-4.14-2,11.08,11.08,0,0,1,0-11.1,4.88,4.88,0,0,1,4.14-2,4.67,4.67,0,0,1,4.43,2.68h.11v-8.58h2.23V517.1h-2.23Zm-3.68.7a5,5,0,0,0,1.42-.2,3.55,3.55,0,0,0,1.17-.57,2.82,2.82,0,0,0,.8-.92,2.68,2.68,0,0,0,.29-1.27v-5.18a2.7,2.7,0,0,0-.29-1.27,2.82,2.82,0,0,0-.8-.92,3.55,3.55,0,0,0-1.17-.57,5,5,0,0,0-1.42-.2,3.86,3.86,0,0,0-3,1.19,4.46,4.46,0,0,0-1.08,3.13v2.46a4.46,4.46,0,0,0,1.08,3.13A3.86,3.86,0,0,0,1230.37,515.46Z"/><path class="cls-3" d="M1080.23,550.88a9.09,9.09,0,0,1-3.89-.76,8.66,8.66,0,0,1-2.77-2l1.5-1.31a7.74,7.74,0,0,0,2.26,1.67,6.81,6.81,0,0,0,3,.58,5.72,5.72,0,0,0,2.75-.59,2,2,0,0,0,1.07-1.89,1.88,1.88,0,0,0-.21-.93,1.64,1.64,0,0,0-.57-.6,3.3,3.3,0,0,0-.81-.35c-.29-.08-.61-.15-1-.21l-2.25-.33c-.5-.08-1-.18-1.63-.31a5.67,5.67,0,0,1-1.61-.62,3.93,3.93,0,0,1-1.21-1.16,3.39,3.39,0,0,1-.49-1.9,3.74,3.74,0,0,1,1.65-3.22,5.41,5.41,0,0,1,1.84-.8,9.27,9.27,0,0,1,2.31-.27,8.77,8.77,0,0,1,3.39.61,7.37,7.37,0,0,1,2.46,1.7l-1.45,1.37a5.18,5.18,0,0,0-.62-.63,4.27,4.27,0,0,0-.92-.58,5.72,5.72,0,0,0-1.27-.43,7,7,0,0,0-1.67-.17,4.81,4.81,0,0,0-2.61.58,1.91,1.91,0,0,0-.9,1.7,2,2,0,0,0,.2.94,1.59,1.59,0,0,0,.58.6,3.22,3.22,0,0,0,.82.35c.3.08.62.15.93.2l2.26.34c.52.07,1.07.18,1.64.31a5.27,5.27,0,0,1,1.59.62,3.72,3.72,0,0,1,1.21,1.16,3.27,3.27,0,0,1,.49,1.89,3.81,3.81,0,0,1-1.66,3.32A7.48,7.48,0,0,1,1080.23,550.88Z"/><path class="cls-3" d="M1091.38,548.62h5.18V538.09h-5.18v-1.92h7.41v12.45h4.85v1.93h-12.26Zm6.29-15.63a1.84,1.84,0,0,1-1.36-.41,1.37,1.37,0,0,1-.39-1v-.45a1.41,1.41,0,0,1,.39-1,1.84,1.84,0,0,1,1.36-.4,1.87,1.87,0,0,1,1.37.4,1.41,1.41,0,0,1,.39,1v.45a1.37,1.37,0,0,1-.39,1A1.87,1.87,0,0,1,1097.67,533Z"/><path class="cls-3" d="M1106.65,550.55V536.17h2.06v1.67h.11a4,4,0,0,1,1-1.42,2.53,2.53,0,0,1,1.81-.59,2.5,2.5,0,0,1,1.87.63,2.79,2.79,0,0,1,.75,1.63h.09a4.26,4.26,0,0,1,1.11-1.62,2.91,2.91,0,0,1,2-.64,2.35,2.35,0,0,1,2.35,1.23,8.21,8.21,0,0,1,.6,3.51v10h-2.06v-9.62a6,6,0,0,0-.38-2.55,1.42,1.42,0,0,0-1.38-.71,2,2,0,0,0-1.45.57,2.41,2.41,0,0,0-.55,1.74v10.57h-2.07v-9.62a6.07,6.07,0,0,0-.37-2.55,1.4,1.4,0,0,0-1.35-.71,2,2,0,0,0-1.47.57,2.37,2.37,0,0,0-.57,1.74v10.57Z"/><path class="cls-3" d="M1133.63,548.21h-.11a5.88,5.88,0,0,1-.56,1,3.48,3.48,0,0,1-.82.85,4,4,0,0,1-1.16.59,4.94,4.94,0,0,1-1.56.22,4.77,4.77,0,0,1-3.62-1.43,5.67,5.67,0,0,1-1.37-4.06v-9.22h2.23V545a4.32,4.32,0,0,0,.86,2.94,3.26,3.26,0,0,0,2.54,1,5.22,5.22,0,0,0,1.31-.16,3.7,3.7,0,0,0,1.14-.51,2.44,2.44,0,0,0,.81-.85,2.31,2.31,0,0,0,.31-1.24v-10h2.23v14.38h-2.23Z"/><path class="cls-3" d="M1140.82,548.62h5V531.85h-5v-1.93h7.25v18.7h5v1.93h-12.26Z"/><path class="cls-3" d="M1169.11,550.55a2.34,2.34,0,0,1-1.87-.67,3.33,3.33,0,0,1-.7-1.67h-.14a4,4,0,0,1-1.51,2,5,5,0,0,1-2.81.71,5.26,5.26,0,0,1-3.59-1.17,4,4,0,0,1-1.34-3.2,3.63,3.63,0,0,1,1.47-3.1,8.05,8.05,0,0,1,4.72-1.08h3.06v-1.42a3,3,0,0,0-.89-2.37,3.72,3.72,0,0,0-2.53-.79,4.42,4.42,0,0,0-2.37.58,4.21,4.21,0,0,0-1.48,1.54l-1.5-1.11a5,5,0,0,1,1.92-2,6.37,6.37,0,0,1,1.59-.65,7.57,7.57,0,0,1,2-.24,5.92,5.92,0,0,1,4,1.29,4.42,4.42,0,0,1,1.49,3.57v7.93h2v1.93Zm-6.63-1.54a5.91,5.91,0,0,0,1.57-.2,4.71,4.71,0,0,0,1.24-.56,2.52,2.52,0,0,0,.82-.84,1.92,1.92,0,0,0,.29-1V544h-3.06a5.91,5.91,0,0,0-2.93.55,1.81,1.81,0,0,0-.92,1.62v.59a1.94,1.94,0,0,0,.8,1.68A3.7,3.7,0,0,0,1162.48,549Z"/><path class="cls-3" d="M1181.09,550.55a3,3,0,0,1-2.41-.92,3.56,3.56,0,0,1-.76-2.36v-9.18h-4.8v-1.92h3.57a1.1,1.1,0,0,0,1.31-1.31v-3.77h2.15v5.08h6.55v1.92h-6.55v10.53h6.55v1.93Z"/><path class="cls-3" d="M1191.71,548.62h5.19V538.09h-5.19v-1.92h7.42v12.45H1204v1.93h-12.27ZM1198,533a1.84,1.84,0,0,1-1.36-.41,1.33,1.33,0,0,1-.39-1v-.45a1.37,1.37,0,0,1,.39-1,1.84,1.84,0,0,1,1.36-.4,1.87,1.87,0,0,1,1.37.4,1.41,1.41,0,0,1,.39,1v.45a1.37,1.37,0,0,1-.39,1A1.87,1.87,0,0,1,1198,533Z"/><path class="cls-3" d="M1213.84,550.88a6.64,6.64,0,0,1-2.72-.53,5.73,5.73,0,0,1-2.06-1.52,6.78,6.78,0,0,1-1.29-2.37,10.9,10.9,0,0,1,0-6.2,6.74,6.74,0,0,1,1.29-2.38,5.73,5.73,0,0,1,2.06-1.52,7.24,7.24,0,0,1,5.44,0,5.57,5.57,0,0,1,2.06,1.52,6.75,6.75,0,0,1,1.3,2.38,11.14,11.14,0,0,1,0,6.2,6.8,6.8,0,0,1-1.3,2.37,5.57,5.57,0,0,1-2.06,1.52A6.6,6.6,0,0,1,1213.84,550.88Zm0-1.92a4.09,4.09,0,0,0,3-1.12,4.63,4.63,0,0,0,1.15-3.45v-2.06a4.64,4.64,0,0,0-1.15-3.46,4.6,4.6,0,0,0-6,0,4.64,4.64,0,0,0-1.14,3.46v2.06a4.63,4.63,0,0,0,1.14,3.45A4.11,4.11,0,0,0,1213.84,549Z"/><path class="cls-3" d="M1224.93,550.55V536.17h2.23v2.34h.12a5,5,0,0,1,.55-1,3.53,3.53,0,0,1,.83-.85,4.15,4.15,0,0,1,1.15-.59,5.24,5.24,0,0,1,1.56-.22,4.77,4.77,0,0,1,3.63,1.44,5.64,5.64,0,0,1,1.36,4.05v9.23h-2.23v-8.84a4.32,4.32,0,0,0-.86-2.94,3.24,3.24,0,0,0-2.54-1,5.29,5.29,0,0,0-1.31.17,3.8,3.8,0,0,0-1.14.5,2.67,2.67,0,0,0-.81.86,2.47,2.47,0,0,0-.31,1.23v10Z"/><path class="cls-3" d="M1052.05,584a2.3,2.3,0,0,1-1.87-.67,3.29,3.29,0,0,1-.7-1.67h-.13a4.12,4.12,0,0,1-1.52,2,4.94,4.94,0,0,1-2.8.71,5.27,5.27,0,0,1-3.6-1.17,4.05,4.05,0,0,1-1.34-3.21,3.6,3.6,0,0,1,1.47-3.09,8,8,0,0,1,4.72-1.09h3.07v-1.41a3,3,0,0,0-.9-2.37,3.67,3.67,0,0,0-2.53-.79,4.42,4.42,0,0,0-2.37.57,4.24,4.24,0,0,0-1.48,1.55l-1.5-1.12a4.84,4.84,0,0,1,.75-1.09,4.64,4.64,0,0,1,1.17-.94,6,6,0,0,1,1.59-.65,7.57,7.57,0,0,1,2-.24,6,6,0,0,1,4,1.28,4.46,4.46,0,0,1,1.49,3.58v7.93h2V584Zm-6.63-1.53a5.52,5.52,0,0,0,1.57-.21,4.41,4.41,0,0,0,1.24-.56,2.59,2.59,0,0,0,.82-.83,2,2,0,0,0,.3-1.05v-2.37h-3.07a5.89,5.89,0,0,0-2.93.56,1.79,1.79,0,0,0-.92,1.62v.58a1.94,1.94,0,0,0,.8,1.69A3.7,3.7,0,0,0,1045.42,582.46Z"/><path class="cls-3" d="M1057.71,584V569.61h2.23V572h.11a5.28,5.28,0,0,1,.56-1,3.31,3.31,0,0,1,.82-.85,3.9,3.9,0,0,1,1.15-.59,5,5,0,0,1,1.57-.22,4.79,4.79,0,0,1,3.62,1.43,5.66,5.66,0,0,1,1.36,4.06V584h-2.23v-8.83a4.27,4.27,0,0,0-.86-2.94,3.24,3.24,0,0,0-2.54-1,5.28,5.28,0,0,0-1.31.16,3.91,3.91,0,0,0-1.14.5,2.81,2.81,0,0,0-.81.87,2.44,2.44,0,0,0-.3,1.23v10Z"/><path class="cls-3" d="M1083.54,581.65h-.11a4.65,4.65,0,0,1-4.43,2.68,4.89,4.89,0,0,1-4.14-2,11.06,11.06,0,0,1,0-11.09,4.89,4.89,0,0,1,4.14-2,4.65,4.65,0,0,1,4.43,2.67h.11v-8.58h2.23V584h-2.23Zm-3.68.7a5.09,5.09,0,0,0,1.43-.2,3.75,3.75,0,0,0,1.17-.57,2.69,2.69,0,0,0,.79-.92,2.56,2.56,0,0,0,.29-1.27v-5.18a2.59,2.59,0,0,0-.29-1.27,2.79,2.79,0,0,0-.79-.92,3.75,3.75,0,0,0-1.17-.57,5.09,5.09,0,0,0-1.43-.19,3.87,3.87,0,0,0-3,1.18,4.53,4.53,0,0,0-1.07,3.14V578a4.5,4.5,0,0,0,1.07,3.13A3.87,3.87,0,0,0,1079.86,582.35Z"/><path class="cls-3" d="M1106.65,584V569.61h2.06v1.67h.11a4.12,4.12,0,0,1,1-1.42,3.12,3.12,0,0,1,3.68,0,2.81,2.81,0,0,1,.75,1.63h.09a4.22,4.22,0,0,1,1.11-1.61,2.91,2.91,0,0,1,2-.64,2.36,2.36,0,0,1,2.35,1.22,8.23,8.23,0,0,1,.6,3.52v10h-2.06v-9.61a6,6,0,0,0-.38-2.55,1.41,1.41,0,0,0-1.38-.71,2,2,0,0,0-1.45.57,2.41,2.41,0,0,0-.55,1.74V584h-2.07v-9.61a6,6,0,0,0-.37-2.55,1.38,1.38,0,0,0-1.35-.71,2,2,0,0,0-1.47.57,2.37,2.37,0,0,0-.57,1.74V584Z"/><path class="cls-3" d="M1130.23,584.33a6.77,6.77,0,0,1-2.72-.53,5.57,5.57,0,0,1-2.06-1.52,6.8,6.8,0,0,1-1.3-2.37,11.14,11.14,0,0,1,0-6.2,6.75,6.75,0,0,1,1.3-2.38,5.57,5.57,0,0,1,2.06-1.52,7.24,7.24,0,0,1,5.44,0,5.73,5.73,0,0,1,2.06,1.52,6.74,6.74,0,0,1,1.29,2.38,10.9,10.9,0,0,1,0,6.2,6.78,6.78,0,0,1-1.29,2.37,5.73,5.73,0,0,1-2.06,1.52A6.8,6.8,0,0,1,1130.23,584.33Zm0-1.93a4.14,4.14,0,0,0,3-1.11,4.65,4.65,0,0,0,1.14-3.46v-2.06a4.63,4.63,0,0,0-1.14-3.45,4.6,4.6,0,0,0-6,0,4.63,4.63,0,0,0-1.15,3.45v2.06a4.66,4.66,0,0,0,1.15,3.46A4.13,4.13,0,0,0,1130.23,582.4Z"/><path class="cls-3" d="M1150.43,581.65h-.11a4.65,4.65,0,0,1-4.43,2.68,4.91,4.91,0,0,1-4.14-2,11.06,11.06,0,0,1,0-11.09,4.91,4.91,0,0,1,4.14-2,4.65,4.65,0,0,1,4.43,2.67h.11v-8.58h2.23V584h-2.23Zm-3.67.7a5.08,5.08,0,0,0,1.42-.2,3.75,3.75,0,0,0,1.17-.57,2.69,2.69,0,0,0,.79-.92,2.56,2.56,0,0,0,.29-1.27v-5.18a2.59,2.59,0,0,0-.29-1.27,2.79,2.79,0,0,0-.79-.92,3.75,3.75,0,0,0-1.17-.57,5.07,5.07,0,0,0-1.42-.19,3.89,3.89,0,0,0-3,1.18,4.53,4.53,0,0,0-1.07,3.14V578a4.5,4.5,0,0,0,1.07,3.13A3.89,3.89,0,0,0,1146.76,582.35Z"/><path class="cls-3" d="M1163.92,584.33a7.13,7.13,0,0,1-2.8-.53,5.83,5.83,0,0,1-2.11-1.52,6.91,6.91,0,0,1-1.36-2.37,9.62,9.62,0,0,1-.47-3.08,9.29,9.29,0,0,1,.49-3.12,7,7,0,0,1,1.35-2.38,5.72,5.72,0,0,1,2.08-1.52,6.48,6.48,0,0,1,2.68-.53,6.29,6.29,0,0,1,2.64.53,5.92,5.92,0,0,1,2,1.46,6.4,6.4,0,0,1,1.28,2.22,8.41,8.41,0,0,1,.45,2.81v1.06h-10.65V578a4.73,4.73,0,0,0,.31,1.75,3.83,3.83,0,0,0,2.27,2.3,4.87,4.87,0,0,0,1.82.32,4.63,4.63,0,0,0,2.51-.66,4.32,4.32,0,0,0,1.62-1.84l1.64,1.11a5.23,5.23,0,0,1-2.13,2.38A6.64,6.64,0,0,1,1163.92,584.33Zm-.14-13.21a4.37,4.37,0,0,0-1.7.33,4.1,4.1,0,0,0-1.35.92,4.15,4.15,0,0,0-.89,1.38,4.68,4.68,0,0,0-.32,1.74v.2h8.25v-.31a5,5,0,0,0-.29-1.73,4.34,4.34,0,0,0-.81-1.35,3.5,3.5,0,0,0-1.25-.88A4.35,4.35,0,0,0,1163.78,571.12Z"/><path class="cls-3" d="M1174.26,582.07h5V565.29h-5v-1.92h7.25v18.7h5V584h-12.27Z"/><path class="cls-3" d="M1191.71,582.07h5.19V571.53h-5.19v-1.92h7.42v12.46H1204V584h-12.27Zm6.3-15.64a1.84,1.84,0,0,1-1.36-.4,1.37,1.37,0,0,1-.39-1v-.44a1.37,1.37,0,0,1,.39-1,1.84,1.84,0,0,1,1.36-.4,1.87,1.87,0,0,1,1.37.4,1.41,1.41,0,0,1,.39,1V565a1.41,1.41,0,0,1-.39,1A1.87,1.87,0,0,1,1198,566.43Z"/><path class="cls-3" d="M1208.21,584V569.61h2.23V572h.11a5.88,5.88,0,0,1,.56-1,3.48,3.48,0,0,1,.82-.85,4,4,0,0,1,1.16-.59,4.94,4.94,0,0,1,1.56-.22,4.77,4.77,0,0,1,3.62,1.43,5.67,5.67,0,0,1,1.37,4.06V584h-2.23v-8.83a4.32,4.32,0,0,0-.86-2.94,3.26,3.26,0,0,0-2.54-1,5.22,5.22,0,0,0-1.31.16,3.69,3.69,0,0,0-1.14.5,2.59,2.59,0,0,0-.81.87,2.34,2.34,0,0,0-.31,1.23v10Z"/><path class="cls-3" d="M1237.84,585.65a3.44,3.44,0,0,1-1.81,3.21,11.24,11.24,0,0,1-5.44,1,10,10,0,0,1-5-.92,2.92,2.92,0,0,1-1.52-2.65,2.55,2.55,0,0,1,.61-1.81,3.73,3.73,0,0,1,1.73-.94v-.34a2.47,2.47,0,0,1-1-.78,2,2,0,0,1-.33-1.2,2,2,0,0,1,.74-1.67,5.18,5.18,0,0,1,1.85-.84v-.11a4.53,4.53,0,0,1-2.07-1.73,4.74,4.74,0,0,1-.74-2.67,5.07,5.07,0,0,1,.39-2,4.21,4.21,0,0,1,1.13-1.57,5.14,5.14,0,0,1,1.77-1,6.86,6.86,0,0,1,2.28-.36,6.49,6.49,0,0,1,2.84.58v-.25a2.29,2.29,0,0,1,.39-1.37,1.53,1.53,0,0,1,1.34-.55h2.65v1.92h-3.23v1a4.47,4.47,0,0,1,1.2,1.59,5.05,5.05,0,0,1,.41,2.06,4.89,4.89,0,0,1-.4,2,4.62,4.62,0,0,1-1.13,1.58,5,5,0,0,1-1.77,1,7,7,0,0,1-2.3.36c-.24,0-.47,0-.7,0s-.44,0-.66-.08a4.81,4.81,0,0,0-.7.18,2.64,2.64,0,0,0-.67.34,1.94,1.94,0,0,0-.5.49,1.14,1.14,0,0,0-.2.65.85.85,0,0,0,.64.86,5.55,5.55,0,0,0,1.68.21h3.17a6.37,6.37,0,0,1,4,1A3.47,3.47,0,0,1,1237.84,585.65Zm-2.09.1a1.61,1.61,0,0,0-.7-1.38,4.23,4.23,0,0,0-2.42-.52h-5a2,2,0,0,0-1.45,2,2.14,2.14,0,0,0,.75,1.63,3.73,3.73,0,0,0,2.51.68h2.17a6.35,6.35,0,0,0,3-.6A1.91,1.91,0,0,0,1235.75,585.75Zm-5.27-8.28a3.4,3.4,0,0,0,2.47-.78,2.76,2.76,0,0,0,.79-2.06v-.81a2.72,2.72,0,0,0-.79-2.05,3.45,3.45,0,0,0-2.47-.76,3.39,3.39,0,0,0-2.45.76,2.75,2.75,0,0,0-.78,2.05v.81a2.79,2.79,0,0,0,.78,2.06A3.35,3.35,0,0,0,1230.48,577.47Z"/><path class="cls-3" d="M769.88,154.93h5.43a6.09,6.09,0,0,1,5.32,2.45c1.17,1.63,1.76,4.06,1.76,7.27s-.59,5.64-1.76,7.28a6.11,6.11,0,0,1-5.32,2.45h-5.43Zm5.32,17.42a4.08,4.08,0,0,0,3.52-1.62,7.62,7.62,0,0,0,1.19-4.57v-3a7.6,7.6,0,0,0-1.19-4.57A4.08,4.08,0,0,0,775.2,157h-3v15.39Z"/><path class="cls-3" d="M786.9,172.46h5.19V161.92H786.9V160h7.42v12.46h4.85v1.92H786.9Zm6.3-15.64a1.84,1.84,0,0,1-1.36-.4,1.41,1.41,0,0,1-.39-1V155a1.4,1.4,0,0,1,.39-1,1.84,1.84,0,0,1,1.36-.41,1.87,1.87,0,0,1,1.37.41,1.4,1.4,0,0,1,.39,1v.45a1.41,1.41,0,0,1-.39,1A1.87,1.87,0,0,1,793.2,156.82Z"/><path class="cls-3" d="M816.31,176a3.46,3.46,0,0,1-1.81,3.21,11.24,11.24,0,0,1-5.44,1,10.15,10.15,0,0,1-5-.92,2.93,2.93,0,0,1-1.52-2.65,2.51,2.51,0,0,1,.61-1.81,3.74,3.74,0,0,1,1.73-.95v-.33a2.66,2.66,0,0,1-1-.78,2.07,2.07,0,0,1-.33-1.2,2,2,0,0,1,.74-1.67,5.18,5.18,0,0,1,1.85-.84V169a4.59,4.59,0,0,1-2.07-1.73,4.74,4.74,0,0,1-.74-2.67,5.07,5.07,0,0,1,.39-2A4.33,4.33,0,0,1,804.9,161a5.29,5.29,0,0,1,1.77-1,6.81,6.81,0,0,1,2.28-.37,6.49,6.49,0,0,1,2.84.59V160a2.34,2.34,0,0,1,.39-1.38,1.55,1.55,0,0,1,1.34-.54h2.65V160h-3.23v1a4.65,4.65,0,0,1,1.2,1.59,5.1,5.1,0,0,1,.41,2.07,4.89,4.89,0,0,1-.4,2,4.62,4.62,0,0,1-1.13,1.58,5.1,5.1,0,0,1-1.77,1,6.77,6.77,0,0,1-2.3.37c-.24,0-.47,0-.7,0l-.66-.09a3.85,3.85,0,0,0-.7.19,2.61,2.61,0,0,0-.67.33,2,2,0,0,0-.5.5,1.11,1.11,0,0,0-.2.65.85.85,0,0,0,.64.86,5.55,5.55,0,0,0,1.68.21H811a6.25,6.25,0,0,1,4,1A3.42,3.42,0,0,1,816.31,176Zm-2.09.1a1.61,1.61,0,0,0-.7-1.38,4.15,4.15,0,0,0-2.42-.52h-5a2,2,0,0,0-1.45,1.95,2.13,2.13,0,0,0,.75,1.63,3.68,3.68,0,0,0,2.51.69h2.17a6.35,6.35,0,0,0,3-.6A1.91,1.91,0,0,0,814.22,176.14ZM809,167.86a3.4,3.4,0,0,0,2.47-.78,2.76,2.76,0,0,0,.79-2.06v-.81a2.7,2.7,0,0,0-.79-2.05,3.45,3.45,0,0,0-2.47-.77,3.39,3.39,0,0,0-2.45.77,2.74,2.74,0,0,0-.78,2.05V165a2.79,2.79,0,0,0,.78,2.06A3.35,3.35,0,0,0,809,167.86Z"/><path class="cls-3" d="M820.35,172.46h5.18V161.92h-5.18V160h7.41v12.46h4.85v1.92H820.35Zm6.3-15.64a1.87,1.87,0,0,1-1.37-.4,1.41,1.41,0,0,1-.39-1V155a1.4,1.4,0,0,1,.39-1,2.49,2.49,0,0,1,2.74,0,1.4,1.4,0,0,1,.39,1v.45a1.41,1.41,0,0,1-.39,1A1.89,1.89,0,0,1,826.65,156.82Z"/><path class="cls-3" d="M843.18,174.38a3,3,0,0,1-2.41-.92,3.56,3.56,0,0,1-.77-2.36v-9.18h-4.79V160h3.56a1.09,1.09,0,0,0,1.31-1.31v-3.76h2.15V160h6.55v1.92h-6.55v10.54h6.55v1.92Z"/><path class="cls-3" d="M864.64,174.38a2.29,2.29,0,0,1-1.87-.67,3.29,3.29,0,0,1-.7-1.67h-.14a4,4,0,0,1-1.51,2,4.88,4.88,0,0,1-2.81.71,5.26,5.26,0,0,1-3.59-1.17,4,4,0,0,1-1.34-3.2,3.62,3.62,0,0,1,1.46-3.09,8,8,0,0,1,4.73-1.09h3.06v-1.41a3,3,0,0,0-.89-2.37,3.67,3.67,0,0,0-2.53-.79,4.42,4.42,0,0,0-2.37.57,4.24,4.24,0,0,0-1.48,1.55l-1.5-1.12a4.84,4.84,0,0,1,.75-1.09,4.43,4.43,0,0,1,1.17-.94,6,6,0,0,1,1.59-.66,7.57,7.57,0,0,1,2-.24,5.92,5.92,0,0,1,4,1.29,4.45,4.45,0,0,1,1.49,3.57v7.94h2v1.92ZM858,172.85a5.54,5.54,0,0,0,1.58-.21,4.71,4.71,0,0,0,1.24-.56,2.52,2.52,0,0,0,.82-.84,1.92,1.92,0,0,0,.29-1v-2.37h-3.06a5.89,5.89,0,0,0-2.93.56A1.78,1.78,0,0,0,855,170v.59a2,2,0,0,0,.8,1.69A3.69,3.69,0,0,0,858,172.85Z"/><path class="cls-3" d="M869.79,172.46h5V155.68h-5v-1.92H877v18.7h5v1.92H869.79Z"/><path class="cls-3" d="M910.07,174.38a3,3,0,0,1-2.41-.92,3.56,3.56,0,0,1-.77-2.36v-9.18H902.1V160h3.56a1.09,1.09,0,0,0,1.31-1.31v-3.76h2.15V160h6.55v1.92h-6.55v10.54h6.55v1.92Z"/><path class="cls-3" d="M918.57,160h2l1.64,12.43h.25L924.9,160h2.45l2.45,12.43h.25L931.7,160h1.92l-2.2,14.38h-2.9l-2.29-12H926l-2.34,12h-2.9Z"/><path class="cls-3" d="M937.41,172.46h5.18V161.92h-5.18V160h7.41v12.46h4.85v1.92H937.41Zm6.3-15.64a1.87,1.87,0,0,1-1.37-.4,1.41,1.41,0,0,1-.39-1V155a1.4,1.4,0,0,1,.39-1,2.49,2.49,0,0,1,2.74,0,1.45,1.45,0,0,1,.39,1v.45a1.45,1.45,0,0,1-.39,1A1.89,1.89,0,0,1,943.71,156.82Z"/><path class="cls-3" d="M953.91,174.38V160h2.23v2.34h.11a6.37,6.37,0,0,1,.56-1,3.67,3.67,0,0,1,.82-.85,4.2,4.2,0,0,1,1.16-.58,4.84,4.84,0,0,1,1.56-.23A4.76,4.76,0,0,1,964,161.1a5.66,5.66,0,0,1,1.37,4.05v9.23h-2.23v-8.83a4.31,4.31,0,0,0-.87-3,3.22,3.22,0,0,0-2.53-1,5.23,5.23,0,0,0-1.31.17,3.86,3.86,0,0,0-1.15.5,2.48,2.48,0,0,0-.8.87,2.33,2.33,0,0,0-.31,1.22v10Z"/><path class="cls-3" d="M976.43,174.71a9.12,9.12,0,0,1-3.89-.76,8.62,8.62,0,0,1-2.77-2l1.5-1.31a7.74,7.74,0,0,0,2.26,1.67,6.82,6.82,0,0,0,3,.59,5.56,5.56,0,0,0,2.74-.6,2,2,0,0,0,1.07-1.88,1.92,1.92,0,0,0-.2-.94,1.59,1.59,0,0,0-.58-.6,3.38,3.38,0,0,0-.8-.34,6.94,6.94,0,0,0-1-.21l-2.26-.34c-.5-.07-1-.17-1.63-.3a5.24,5.24,0,0,1-1.6-.63,3.75,3.75,0,0,1-1.22-1.16,3.35,3.35,0,0,1-.48-1.89,3.81,3.81,0,0,1,.43-1.88,3.87,3.87,0,0,1,1.21-1.34,5.51,5.51,0,0,1,1.84-.81,9.38,9.38,0,0,1,2.31-.27,8.55,8.55,0,0,1,3.39.62,7.27,7.27,0,0,1,2.47,1.7l-1.45,1.36a5.31,5.31,0,0,0-.63-.62,4.29,4.29,0,0,0-.92-.59,5.55,5.55,0,0,0-1.27-.43,7.53,7.53,0,0,0-1.67-.17,4.85,4.85,0,0,0-2.61.59,2.09,2.09,0,0,0-.69,2.63,1.64,1.64,0,0,0,.57.6,3.38,3.38,0,0,0,.82.35c.31.08.62.15.94.21l2.25.33c.52.08,1.07.18,1.65.31a5.5,5.5,0,0,1,1.59.63,3.79,3.79,0,0,1,1.21,1.15,3.41,3.41,0,0,1,.49,1.9,3.82,3.82,0,0,1-1.66,3.31A7.53,7.53,0,0,1,976.43,174.71Z"/><path class="cls-3" d="M786.46,211.67l9.7-25h2l-9.69,25Z"/><path class="cls-3" d="M825.92,208.16a8.89,8.89,0,0,1-3.88-.77,8.53,8.53,0,0,1-2.78-2l1.51-1.31a7.74,7.74,0,0,0,2.26,1.67,6.78,6.78,0,0,0,3,.58,5.6,5.6,0,0,0,2.75-.6,2,2,0,0,0,1.07-1.88,1.88,1.88,0,0,0-.21-.93,1.64,1.64,0,0,0-.57-.6,3.3,3.3,0,0,0-.81-.35c-.3-.08-.61-.15-1-.21l-2.26-.33c-.5-.08-1-.18-1.63-.31a5.35,5.35,0,0,1-1.6-.63,3.69,3.69,0,0,1-1.21-1.15,3.33,3.33,0,0,1-.49-1.9,3.68,3.68,0,0,1,1.65-3.22,5.62,5.62,0,0,1,1.84-.81,9.78,9.78,0,0,1,2.31-.26,8.59,8.59,0,0,1,3.39.61,7.47,7.47,0,0,1,2.46,1.7l-1.45,1.37a5.18,5.18,0,0,0-.62-.63,4.53,4.53,0,0,0-.92-.58,6.5,6.5,0,0,0-1.27-.44,7.67,7.67,0,0,0-1.68-.16,4.79,4.79,0,0,0-2.6.58,2.09,2.09,0,0,0-.7,2.64,1.64,1.64,0,0,0,.57.6,3.28,3.28,0,0,0,.83.34,7,7,0,0,0,.93.21l2.26.34c.52.07,1.07.17,1.64.3a5.29,5.29,0,0,1,1.59.63,3.82,3.82,0,0,1,1.21,1.16,3.27,3.27,0,0,1,.49,1.89,3.82,3.82,0,0,1-1.66,3.32A7.51,7.51,0,0,1,825.92,208.16Z"/><path class="cls-3" d="M847.13,193.44h2.23L842.23,211a6.31,6.31,0,0,1-.56,1.07,2.58,2.58,0,0,1-.72.75,3,3,0,0,1-1,.45,5.63,5.63,0,0,1-1.39.15h-2.12v-1.92h3.35l1.61-3.93-5.79-14.11h2.28l2.43,6,2.14,5.47h.11l2.15-5.47Z"/><path class="cls-3" d="M853.57,207.83V193.44h2.23v2.35h.11a5.61,5.61,0,0,1,.56-1,3.48,3.48,0,0,1,.82-.85,4.21,4.21,0,0,1,1.16-.59,4.94,4.94,0,0,1,1.56-.22,4.74,4.74,0,0,1,3.62,1.44,5.62,5.62,0,0,1,1.37,4v9.23h-2.23V199a4.32,4.32,0,0,0-.86-2.94,3.24,3.24,0,0,0-2.54-1,4.81,4.81,0,0,0-1.31.17,3.69,3.69,0,0,0-1.14.5,2.47,2.47,0,0,0-.81.86,2.37,2.37,0,0,0-.31,1.23v10Z"/><path class="cls-3" d="M876.62,207.83a3,3,0,0,1-2.41-.92,3.57,3.57,0,0,1-.76-2.37v-9.17h-4.8v-1.93h3.57a1.09,1.09,0,0,0,1.31-1.31v-3.76h2.14v5.07h6.55v1.93h-6.55V205.9h6.55v1.93Z"/><path class="cls-3" d="M887,187.2h2.23v8.59h.11a5.07,5.07,0,0,1,.56-1,3.31,3.31,0,0,1,.82-.85,4.08,4.08,0,0,1,1.16-.59,4.85,4.85,0,0,1,1.56-.22,4.76,4.76,0,0,1,3.62,1.44,5.62,5.62,0,0,1,1.37,4v9.23h-2.23V199a4.27,4.27,0,0,0-.87-2.94,3.22,3.22,0,0,0-2.53-1,4.76,4.76,0,0,0-1.31.17,3.86,3.86,0,0,0-1.15.5,2.67,2.67,0,0,0-.81.86,2.46,2.46,0,0,0-.3,1.23v10H887Z"/><path class="cls-3" d="M909.62,208.16a7.13,7.13,0,0,1-2.8-.53,5.86,5.86,0,0,1-2.12-1.52,7.05,7.05,0,0,1-1.35-2.37,10.25,10.25,0,0,1,0-6.2,7,7,0,0,1,1.35-2.38,5.77,5.77,0,0,1,2.07-1.52,6.73,6.73,0,0,1,2.69-.53,6.45,6.45,0,0,1,2.64.53,5.92,5.92,0,0,1,2,1.46,6.5,6.5,0,0,1,1.28,2.22,8.41,8.41,0,0,1,.45,2.81v1.06H905.22v.67a5,5,0,0,0,.3,1.76,4.07,4.07,0,0,0,.88,1.39,4,4,0,0,0,1.4.91,5,5,0,0,0,1.82.32,4.66,4.66,0,0,0,2.51-.67,4.32,4.32,0,0,0,1.62-1.84l1.64,1.11a5.42,5.42,0,0,1-2.13,2.39A6.74,6.74,0,0,1,909.62,208.16ZM909.48,195a4.33,4.33,0,0,0-1.7.33,4.25,4.25,0,0,0-1.35.92,4.15,4.15,0,0,0-.89,1.38,4.7,4.7,0,0,0-.32,1.75v.19h8.25v-.31a5,5,0,0,0-.29-1.72,4.5,4.5,0,0,0-.81-1.36,3.39,3.39,0,0,0-1.26-.87A4.08,4.08,0,0,0,909.48,195Z"/><path class="cls-3" d="M926.79,207.83a3,3,0,0,1-2.41-.92,3.57,3.57,0,0,1-.77-2.37v-9.17h-4.79v-1.93h3.57a1.1,1.1,0,0,0,1.31-1.31v-3.76h2.14v5.07h6.55v1.93h-6.55V205.9h6.55v1.93Z"/><path class="cls-3" d="M937.41,205.9h5.18V195.37h-5.18v-1.93h7.41V205.9h4.85v1.93H937.41Zm6.3-15.63a1.87,1.87,0,0,1-1.37-.41,1.4,1.4,0,0,1-.39-1v-.45a1.41,1.41,0,0,1,.39-1,2.55,2.55,0,0,1,2.74,0,1.45,1.45,0,0,1,.39,1v.45a1.45,1.45,0,0,1-.39,1A1.88,1.88,0,0,1,943.71,190.27Z"/><path class="cls-3" d="M960,208.16a6.74,6.74,0,0,1-2.77-.54,5.76,5.76,0,0,1-2-1.52,6.57,6.57,0,0,1-1.27-2.37,10.35,10.35,0,0,1-.43-3.09,10,10,0,0,1,.45-3.1,6.72,6.72,0,0,1,1.28-2.38,5.54,5.54,0,0,1,2-1.52,6.75,6.75,0,0,1,2.73-.53,5.79,5.79,0,0,1,3.4.92,5.34,5.34,0,0,1,1.93,2.4l-1.79.94a3.37,3.37,0,0,0-1.29-1.72A3.92,3.92,0,0,0,960,195a4.54,4.54,0,0,0-1.74.32,3.64,3.64,0,0,0-1.29.91,3.76,3.76,0,0,0-.8,1.39,5.55,5.55,0,0,0-.26,1.76v2.45a5.55,5.55,0,0,0,.26,1.76A3.76,3.76,0,0,0,957,205a3.63,3.63,0,0,0,1.31.91,4.71,4.71,0,0,0,1.78.32,4.12,4.12,0,0,0,2.4-.67,4.65,4.65,0,0,0,1.5-1.84l1.59,1.09a5.74,5.74,0,0,1-2,2.39A6,6,0,0,1,960,208.16Z"/><path class="cls-3" d="M854.33,238.93h-.12a4.65,4.65,0,0,1-4.43,2.68,4.91,4.91,0,0,1-4.14-2,11.06,11.06,0,0,1,0-11.09,4.91,4.91,0,0,1,4.14-2,4.65,4.65,0,0,1,4.43,2.67h.12v-8.58h2.23v20.62h-2.23Zm-3.68.7a5.08,5.08,0,0,0,1.42-.2,3.75,3.75,0,0,0,1.17-.57,2.79,2.79,0,0,0,.79-.92,2.56,2.56,0,0,0,.3-1.27v-5.18a2.59,2.59,0,0,0-.3-1.27,2.79,2.79,0,0,0-.79-.92,3.75,3.75,0,0,0-1.17-.57,5.07,5.07,0,0,0-1.42-.19,3.89,3.89,0,0,0-3,1.18,4.51,4.51,0,0,0-1.07,3.14v2.45a4.5,4.5,0,0,0,1.07,3.13A3.89,3.89,0,0,0,850.65,239.63Z"/><path class="cls-3" d="M873,241.27a2.3,2.3,0,0,1-1.87-.67,3.29,3.29,0,0,1-.7-1.67h-.13a4.12,4.12,0,0,1-1.52,2,4.94,4.94,0,0,1-2.8.71,5.27,5.27,0,0,1-3.6-1.17,4.05,4.05,0,0,1-1.34-3.21,3.6,3.6,0,0,1,1.47-3.09,8,8,0,0,1,4.72-1.09h3.07v-1.41a3,3,0,0,0-.9-2.37,3.67,3.67,0,0,0-2.53-.79,4.42,4.42,0,0,0-2.37.57A4.32,4.32,0,0,0,863,230.6l-1.5-1.12a4.84,4.84,0,0,1,.75-1.09,4.64,4.64,0,0,1,1.17-.94,6,6,0,0,1,1.59-.65,7.57,7.57,0,0,1,2-.24,5.92,5.92,0,0,1,4,1.28,4.47,4.47,0,0,1,1.5,3.58v7.93h2v1.92Zm-6.63-1.53a5.52,5.52,0,0,0,1.57-.21,4.41,4.41,0,0,0,1.24-.56,2.59,2.59,0,0,0,.82-.83,2,2,0,0,0,.3-1v-2.37h-3.07a5.89,5.89,0,0,0-2.93.56,1.79,1.79,0,0,0-.92,1.62v.58a1.94,1.94,0,0,0,.8,1.69A3.7,3.7,0,0,0,866.37,239.74Z"/><path class="cls-3" d="M885,241.27a3,3,0,0,1-2.41-.91,3.59,3.59,0,0,1-.76-2.37v-9.18H877v-1.92h3.57a1.09,1.09,0,0,0,1.31-1.31v-3.76H884v5.07h6.55v1.92H884v10.54h6.55v1.92Z"/><path class="cls-3" d="M906.44,241.27a2.28,2.28,0,0,1-1.86-.67,3.21,3.21,0,0,1-.7-1.67h-.14a4,4,0,0,1-1.52,2,4.92,4.92,0,0,1-2.8.71,5.26,5.26,0,0,1-3.59-1.17,4,4,0,0,1-1.34-3.21,3.62,3.62,0,0,1,1.46-3.09,8,8,0,0,1,4.73-1.09h3.06v-1.41a3,3,0,0,0-.89-2.37,3.7,3.7,0,0,0-2.54-.79,4.47,4.47,0,0,0-2.37.57,4.29,4.29,0,0,0-1.47,1.55L895,229.48a5.6,5.6,0,0,1,.75-1.09,4.89,4.89,0,0,1,1.18-.94,6.09,6.09,0,0,1,1.58-.65,7.67,7.67,0,0,1,2-.24,5.94,5.94,0,0,1,4,1.28,4.49,4.49,0,0,1,1.49,3.58v7.93h2v1.92Zm-6.63-1.53a5.59,5.59,0,0,0,1.58-.21,4.54,4.54,0,0,0,1.24-.56,2.7,2.7,0,0,0,.82-.83,2.08,2.08,0,0,0,.29-1v-2.37h-3.06a5.87,5.87,0,0,0-2.93.56,1.79,1.79,0,0,0-.92,1.62v.58a1.94,1.94,0,0,0,.79,1.69A3.7,3.7,0,0,0,899.81,239.74Z"/></g></svg>